
<svg version="1.0" xmlns="http://www.w3.org/2000/svg"
 width="2106.000000pt" height="848.000000pt" viewBox="0 0 2106.000000 848.000000"
 preserveAspectRatio="xMidYMid meet">

<g transform="translate(0.000000,848.000000) scale(0.100000,-0.100000)"
fill="#EED4F1" stroke="none">
<path d="M12405 8474 c-679 -41 -1077 -318 -1265 -883 -48 -142 -73 -253 -99
-436 -33 -235 -41 -369 -51 -905 -10 -547 -13 -635 -35 -880 -30 -324 -35
-413 -45 -705 -11 -331 -30 -640 -61 -1020 -26 -317 -36 -816 -20 -1025 43
-569 174 -957 407 -1209 156 -168 363 -271 629 -312 116 -18 353 -15 445 5
118 25 226 84 298 160 140 150 166 300 192 1106 11 330 22 463 50 627 25 140
51 210 92 250 41 40 76 53 138 53 107 0 167 -53 213 -190 25 -76 44 -182 82
-460 58 -430 104 -637 190 -862 204 -528 610 -854 1227 -983 169 -36 407 -45
528 -21 180 37 314 133 393 284 50 96 73 163 98 296 60 309 -40 595 -319 917
-153 177 -296 307 -687 624 -283 229 -433 361 -514 451 -114 127 -181 255
-181 348 0 67 43 192 98 283 102 169 187 265 632 718 382 388 514 554 639 803
69 137 104 256 146 497 61 347 76 481 82 730 8 334 -21 505 -117 700 -229 464
-778 720 -1990 929 -270 46 -459 73 -644 90 -161 16 -451 26 -551 20z m797
-2165 c158 -33 290 -168 359 -366 56 -163 65 -327 24 -450 -64 -189 -199 -341
-352 -395 -89 -31 -209 -23 -296 20 -111 55 -189 162 -234 322 -14 51 -18 101
-18 230 1 155 2 170 28 245 39 111 91 199 156 269 65 68 124 105 195 122 66
16 75 16 138 3z"/>
<path d="M9275 8275 c-363 -29 -486 -51 -600 -105 -128 -61 -211 -168 -236
-305 -20 -104 -3 -667 46 -1545 8 -151 17 -288 20 -305 9 -53 54 -694 65 -920
26 -506 -30 -815 -167 -935 -66 -59 -115 -75 -228 -75 -88 0 -106 3 -145 25
-48 27 -84 73 -100 129 -18 58 -29 268 -51 896 -11 325 -28 833 -39 1130 -11
297 -24 698 -30 890 -17 597 -51 824 -133 877 -59 39 -85 40 -611 38 -696 -2
-1121 -14 -1216 -35 -94 -20 -224 -82 -274 -132 -70 -68 -76 -94 -91 -376 -19
-356 -5 -571 81 -1257 24 -195 51 -395 59 -445 8 -49 26 -200 40 -335 27 -261
62 -522 96 -710 61 -342 82 -432 164 -682 90 -273 139 -394 236 -577 184 -347
335 -518 544 -617 194 -92 501 -139 1032 -159 134 -5 185 -11 194 -21 35 -42
-191 -366 -392 -559 -102 -99 -151 -137 -491 -387 -125 -91 -273 -204 -330
-249 -215 -175 -371 -352 -448 -513 -178 -371 -48 -756 315 -931 115 -55 205
-75 342 -75 781 0 1623 802 2333 2220 409 817 743 1786 915 2655 83 418 114
700 150 1360 8 154 22 395 30 535 32 529 39 826 27 1047 -13 227 -25 321 -47
363 -21 41 -73 68 -151 80 -119 17 -719 20 -909 5z"/>
<path d="M18186 7679 c-499 -53 -901 -297 -1206 -733 -310 -443 -530 -1070
-744 -2121 -136 -670 -186 -1083 -186 -1535 0 -252 9 -385 41 -572 136 -814
610 -1326 1438 -1554 641 -176 1199 -110 1669 199 278 182 510 424 736 767
131 197 183 289 305 541 269 553 490 1241 699 2184 100 446 117 588 109 883
-5 204 -18 295 -61 456 -140 512 -520 894 -1161 1166 -241 103 -726 242 -1005
289 -229 39 -451 49 -634 30z m573 -2151 c79 -30 169 -122 199 -203 42 -113
53 -256 31 -425 -17 -141 -26 -179 -211 -940 -117 -482 -293 -802 -496 -902
-129 -64 -298 -44 -398 46 -157 140 -165 391 -33 1021 178 844 367 1268 626
1399 80 40 181 42 282 4z"/>
<path d="M3562 7510 c-244 -38 -467 -102 -606 -173 -224 -116 -308 -293 -277
-589 28 -270 133 -713 305 -1287 119 -397 229 -830 258 -1017 26 -169 -49
-241 -292 -276 -181 -27 -252 27 -324 247 -60 182 -167 708 -280 1381 -81 477
-111 627 -158 774 -85 268 -192 382 -400 426 -93 20 -319 13 -499 -15 -787
-125 -1196 -425 -1270 -931 -17 -120 -6 -325 26 -480 137 -661 277 -1145 480
-1665 54 -137 132 -349 175 -470 43 -121 100 -278 128 -350 28 -71 80 -218
117 -325 37 -107 105 -284 152 -393 94 -223 238 -584 409 -1032 188 -492 262
-644 392 -814 143 -187 333 -281 567 -281 176 0 306 29 570 127 483 178 617
306 616 589 0 120 -22 212 -112 460 -128 358 -159 456 -205 649 -98 412 -136
641 -138 825 -1 145 12 205 56 247 25 23 38 28 81 28 68 0 119 -26 189 -96
118 -117 223 -310 438 -804 346 -796 554 -1112 813 -1233 147 -70 270 -67 501
10 325 109 561 288 617 470 l18 58 -70 318 c-146 659 -249 1096 -560 2362
-334 1357 -449 1840 -595 2502 -41 186 -83 362 -94 392 -29 77 -111 189 -173
235 -71 54 -162 98 -255 123 -113 31 -427 35 -600 8z"/>
</g>
</svg>
