<svg xmlns="http://www.w3.org/2000/svg" id="Layer_1" data-name="Layer 1" viewBox="0 0 340.55 193.13">
<defs>
    <style>
        .cls-1{
            fill:#EED4F1
        }
    </style>
</defs>
<path class="cls-1" d="M243.24 173.16V147.7h-14v28.16c0 9.54 9.86 17.27 22 17.27s22-7.73 22-17.27V147.7h-13.87v25.46a8.07 8.07 0 0 1-16.13 0zm61.69-55.73h14.12v74.12h-14.12zm-23.88 0h14.12v74.12h-14.12zM22.7 133H15v58.57H0v-70.74h25.82A20.85 20.85 0 0 1 30.9 162l20.75 29.55H33.94l-15-23.16v-16.91h3.49c5.55 0 10-4.14 10-9.25A9.41 9.41 0 0 0 22.7 133z"/><path class="cls-1" d="M96 172.5a26.12 26.12 0 0 0 .13-3c.22-15.29-9.9-23.67-22.78-23.67a23.63 23.63 0 0 0 0 47.26c9.84 0 17.51-4.45 21.47-11.43l-11.47-5.28a9.64 9.64 0 0 1-8.85 5.36c-5.49 0-9.55-4-9.6-8.8v-.48zm-31.16-8.12a8.63 8.63 0 0 1 17.26 0zm87.4 27.17v-74.12h-14.09v35.07a20.11 20.11 0 0 0-14.15-5.95c-11.66 0-21.12 10.34-21.12 23.09s9.46 23.1 21.12 23.1a20 20 0 0 0 14.25-6.12v4.93zM128 180.71c-5.72 0-10.36-5.08-10.36-11.34S122.24 158 128 158s10.37 5.08 10.37 11.35-4.68 11.36-10.37 11.36zm83.94-27.66a18.75 18.75 0 0 0 6.22-13.74 18.45 18.45 0 0 0-5.08-12.69c-3.37-3.71-9.34-5.79-17.39-5.79h-24.14v70.72h31.18c11.94-.2 21.56-9.22 21.56-20.29 0-8.05-2.83-13.79-12.35-18.21zm-11.82 26.22h-13.51V133H196c4.14 0 7.49 3.78 7.49 7.92a7.49 7.49 0 0 1-7.49 7.49h-4.91v12.69h9a8.84 8.84 0 0 1 8.8 9.07c-.15 5.18-3.33 8.76-8.77 9.1zm92.37-93.51c-.14-.28-.27-.54-.35-.74a5.71 5.71 0 0 1-.18-1.4 6.46 6.46 0 0 0-.23-1.62c-.46-1.53-2.1-2.49-3.42-3a2 2 0 0 0-.7-1.59c-2.28-1.63-3.49-2.55-4.13-3-.39-.29-.53-.4-.6-.44a2.1 2.1 0 0 0-.87-.19 4.11 4.11 0 0 0-2.6 1.57l-.54.53a.06.06 0 0 1-.05 0c-.25 0-.76-.75-.89-1.09-.22-.61-.4-1.19-.57-1.75a21.06 21.06 0 0 0-1.13-3c-.86-1.71-2.71-1.74-4.34-1.77h-.46c-.74 0-1.73-.11-1.9-.6a4.36 4.36 0 0 1 .41-2.08 7.48 7.48 0 0 0 .35-1.35 17 17 0 0 0 .08-6.29 10.74 10.74 0 0 1 1.25.11c.37 0 .75.09 1.16.11h.35a13 13 0 0 0 6.34-1.46 11.6 11.6 0 0 0 6-9.49 13.73 13.73 0 0 0-1.59-5.58 26.17 26.17 0 0 0-6.85-8 14.33 14.33 0 0 0 4.91-1.77c3-1.88 4.29-5.3 3.71-9.63-.16-1-.55-2.79-1.42-3.24a.83.83 0 0 0-.4-.11c-.63 0-1.24.68-1.78 1.28-.2.22-.39.43-.55.58a6.74 6.74 0 0 1-3.5 1.31 12.48 12.48 0 0 0-2 .5c-3 1-8.06 3.19-8.51 7.22s2.4 6.67 5.15 9.26a35.86 35.86 0 0 1 2.54 2.55c1.59 1.83 2.94 3.66 2.59 5.72a4 4 0 0 1-2.09 2.22 6.62 6.62 0 0 1-2.25.39c-2.54 0-5-1.4-7.14-2.63l-.31-.17c-5-3.46-10.15-7-16.53-7.72-2.44-.48-4.55-1.95-6.6-3.38-.47-.33-.94-.66-1.43-1a19.89 19.89 0 0 0-7-2.49 7 7 0 0 1-3.36-1.87 14 14 0 0 0-1.77-1.31 23.22 23.22 0 0 0-8.22-3.3c-.29-.09-.6-.15-.89-.22a3.87 3.87 0 0 1-2.12-.91 19.1 19.1 0 0 0-3.4-3.27 14.66 14.66 0 0 0-7.33-2.59 5.6 5.6 0 0 0-1.52.19 10.18 10.18 0 0 0-3.67 2.05l-.3.22a51.1 51.1 0 0 0-82.9-.52l-.21-.1a10.84 10.84 0 0 0-4.06-.82L114 20a13.54 13.54 0 0 0-8.4 3.19A26.41 26.41 0 0 1 99 26c-2.82.9-5.74 1.82-8.12 3.91A8.56 8.56 0 0 0 89.7 31c-.53.56-.9 1.2-1.7 1.45a10.67 10.67 0 0 1-1.73.21 20.41 20.41 0 0 0-2.62.38c-3 .69-5.19 2.5-7.56 4.41-.27.22-.53.44-.81.65a11.94 11.94 0 0 1-5.66 2.38 16.48 16.48 0 0 0-10.21 3.39 46.53 46.53 0 0 1-10.32 6.47 7.79 7.79 0 0 1-2.71.51 5.16 5.16 0 0 1-3.51-1.25 5 5 0 0 1-1-5.55c1.28-2.52 3.88-4.57 6-6.08 2.75-2.07 5.39-4.79 4.22-9.31-1.27-4.12-6.31-5.45-9.64-6.33a16.37 16.37 0 0 1-2.23-.68 16.83 16.83 0 0 1-2.51-1.48 12.68 12.68 0 0 0-2.23-1.27 1.25 1.25 0 0 0-.42-.08 1.3 1.3 0 0 0-1.13.68 8.42 8.42 0 0 0-1 6.3 9.87 9.87 0 0 0 7.66 7.08 10.28 10.28 0 0 0 1.15.16 7.45 7.45 0 0 1 1.07.14 40.92 40.92 0 0 0-6.34 6.11 11.58 11.58 0 0 0-1.64 11.62A11.82 11.82 0 0 0 43.48 58a12.87 12.87 0 0 0 2.43.21 34.7 34.7 0 0 0 3.85-.21l.92-.09a22 22 0 0 0 1.8 8.65.94.94 0 0 1-.3 1A16.35 16.35 0 0 1 49 68.83a4.66 4.66 0 0 1-.85.06h-1a7.4 7.4 0 0 0-1.11.06c-1.44.2-2.16 1.43-2.67 2.6-.31.72-.53 1.34-.73 1.88-.5 1.35-.8 2.18-1.74 2.7 0 0-2-1.75-2.3-2a3 3 0 0 0-1.51-.42 6.22 6.22 0 0 0-3.39 1.55c-.35.24-.67.48-1 .68a3.89 3.89 0 0 0-1.7 2.5 7 7 0 0 0-3.51 3 5.79 5.79 0 0 0-.44 2.1c0 .36-.06.71-.11 1a7.58 7.58 0 0 1-.38.67 4.06 4.06 0 0 0-.75 1.89 2.16 2.16 0 0 0 1 2 16.29 16.29 0 0 0 4.07 1.46 1.1 1.1 0 0 0 .31 0 2.08 2.08 0 0 0 1.09-.42 3 3 0 0 1 .49-.28 20.38 20.38 0 0 0 4.49.63 8.79 8.79 0 0 0 2.33-.29c1.68-.45 3.11-2.73 3.88-4a7.07 7.07 0 0 1 .43-.63.34.34 0 0 1 .15 0 5 5 0 0 1 1.11.25 10.33 10.33 0 0 0 1.63.36c1.9.16 3.71-1 4.88-1.88a19.44 19.44 0 0 0 1.51-1.34 15.23 15.23 0 0 1 1.65-1.44 5.23 5.23 0 0 1 2.09-.39h.85a24.18 24.18 0 0 0 4.89.61A8.91 8.91 0 0 0 66.8 81l1.06-.55c1.15-.58 2.33-1.19 3.45-1.8A8.84 8.84 0 0 0 75 74l.18-.39c.42-.9 1.05-2.51 1.21-2.92a7 7 0 0 0 1 .07 16.88 16.88 0 0 0 3.42-.48 16.49 16.49 0 0 1 3.37-.47A7.32 7.32 0 0 1 86 70a39.34 39.34 0 0 0 7.47.87 18.45 18.45 0 0 0 4.22-.45 11.11 11.11 0 0 0 1 .83 9.11 9.11 0 0 1 .95.77c-.31.06-.63.09-.95.13a4 4 0 0 0-2.67 1 6.21 6.21 0 0 0-2.48-.44 21.12 21.12 0 0 0-2.87.27l-1.12.16a3.61 3.61 0 0 0-3 1.69 2.31 2.31 0 0 0 0 2.33l2.88 4.77a2.22 2.22 0 0 0 1.35 1.15h1.56c.46 0 .73.08.84.23l.42.67a12 12 0 0 0 2.12 2.7 6.7 6.7 0 0 0 5.76 1.24l2.39-.86c2.48-.9 5-1.82 7.55-2.88l4.13-.59c1.37-.27 2.41-2.11 2.75-2.87a1.51 1.51 0 0 0 .09-.18 51.09 51.09 0 0 0 83.09.82 7.23 7.23 0 0 0 1.11 1.61 2.58 2.58 0 0 0 2.1.78h1.7c.24.18.48.4.72.6a4.91 4.91 0 0 0 1.76 1.16c3.16.81 5.79 1.54 8.33 2.43a7 7 0 0 0 2.11.39 4.54 4.54 0 0 0 .75-.07 6.89 6.89 0 0 0 5.09-4.94c0-.36.3-.39.76-.41a1.27 1.27 0 0 0 .91-.27 12.49 12.49 0 0 0 2.9-3.87l.51-.89a2.49 2.49 0 0 0 .09-2.32 2.21 2.21 0 0 0-1.39-1.11 14.34 14.34 0 0 0-3.87-.39h-1.34c-.62 0-1.35 0-2.06-.07l-.51-.56a2.35 2.35 0 0 0-1.31-.49l-.33-.06 1.15-.89h1.36a35.64 35.64 0 0 0 7.31-.7 26.21 26.21 0 0 1 6-.74h.81l1 .06c1.19.08 2.43.17 3.65.17a16.09 16.09 0 0 0 4.12-.46c.14.58.26 1.17.37 1.74.43 2.14.84 4.17 2.49 5.92a11.21 11.21 0 0 0 3.54 2.7c.65.37 1.31.78 2 1.2a4.9 4.9 0 0 0 2.49.51c1.36 0 3.09-.58 4.06-.58 4.09 0 7.25 2.21 10.68 4.89a4 4 0 0 0 2.21.61 7 7 0 0 0 3.23-.86l.08.11a12 12 0 0 0 2.17 2.52 6.15 6.15 0 0 0 4.34 1.31h3.51a1.58 1.58 0 0 0 1.19.63c.4 0 4.83-1.46 5.06-1.54a4 4 0 0 0 .57-.27c.94-.75.16-2.31-.41-3.45zm-259.8-6.63a1.73 1.73 0 0 1 .5-1.11 24 24 0 0 1 2.4-1.73l.72-.48a1 1 0 0 1 1.14 0l.08.06c.64.51 1.15.92 1 1.36-.06.16-1.59 2.91-3.07 3.65a1.77 1.77 0 0 1-.82.22 1.49 1.49 0 0 1-1-.39c-.13-.1-.74-.79-.81-.86a1 1 0 0 1-.14-.72zm.16 3.71c-.36 1-.68 2.14-1 3.13-.53 1.84-.72 2.44-1 2.5h-.06a16.44 16.44 0 0 1-3.11-1c-.23-.24-.09-.76.11-1 .73-.81.81-1.09 1-3.76a3.18 3.18 0 0 1 1.74-2 .32.32 0 0 1 .14 0c.57 0 1.59 1.19 1.89 1.62s.31.45.29.51zm64.8-8.42c.14-.32.61-.33.63-.33a28.42 28.42 0 0 0 4.19-.29c1-.14 1.19.63 1.44 1.53a8 8 0 0 0 .53 1.44c.08.18.17.32.24.45.23.4.4.69-.12 1.13a5.71 5.71 0 0 1-3.15 1.23 2 2 0 0 1-.58-.08c-.41-.13-.76-.9-1.16-1.79a11.13 11.13 0 0 0-.79-1.55 4.28 4.28 0 0 0-.63-.65c-.39-.37-.77-.71-.6-1.09zm24.13 5.24c-.12-.41 0-.77-.2-1.23a3.14 3.14 0 0 1 .08-2.53L123 74a.41.41 0 0 0-.34-.38 1.46 1.46 0 0 0-.62.16 1.56 1.56 0 0 1-.6.17.56.56 0 0 1-.55-.6c.05-1.53 1.31-2.72 2.48-3.79.32-.29.65-.6 1-.9a8.76 8.76 0 0 1 2-4.26.51.51 0 0 0-.24-.27c-.4.06-.8.14-1.2.21a19 19 0 0 1-4 .46c-1.82 1-4.33 1.23-5 .76a.94.94 0 0 1-.33-.46 1 1 0 0 1 .13-.68 11.46 11.46 0 0 0 2-8.6c-.05-.27-.16-.31-.28-.31s-.3.26-.32.4a19.22 19.22 0 0 1-2.86 7.61c-.47.72-1.79 1-3.06 1.29a10.78 10.78 0 0 0-1.56.39 1 1 0 0 0-.67.82 4.31 4.31 0 0 0 .9 2.46v.09c.13.21 3.13 5.18 3.26 6.18a18.87 18.87 0 0 1-.64 4.71c-.12.42.06.46.11.46a.73.73 0 0 0 .31-.13 12.65 12.65 0 0 0 2.42-3.95 3.17 3.17 0 0 0-.35-1.93l-3.59-7.08a1.42 1.42 0 0 1 1.33-.62h.07a4.17 4.17 0 0 1 1.57.39c.23.09.46.18.69.25h.07v.06a27 27 0 0 0 3.18 6.09 3.82 3.82 0 0 1 0 3.78 34.39 34.39 0 0 1-2.6 4.43 4.23 4.23 0 0 1-3 1c-.48 0-1.7.06-1.7.06a55.07 55.07 0 0 1-9.68 3.73 4.8 4.8 0 0 1-1.47.22 4.68 4.68 0 0 1-3-1.06A7.5 7.5 0 0 1 95 82.73c-.19-.35-.4-.72-.62-1.06a1.57 1.57 0 0 0-1.32-.48h-1.19a1 1 0 0 1-.87-.29l-.33-.56c-.75-1.25-1.45-2.43-2.18-3.72a1 1 0 0 1-.07-.92.87.87 0 0 1 .62-.49 30.71 30.71 0 0 1 3.86-.64 3.45 3.45 0 0 1 3.1 1.09 15.12 15.12 0 0 1 1.44 2.14 8.33 8.33 0 0 0 3.08 3.45.88.88 0 0 0 .4.06 13.77 13.77 0 0 0 4.49-1.31c.81-.49 1.91-1.27 1.91-2.4-.15-2.5-2-4.29-3.55-5.35a17.26 17.26 0 0 1-5.57-4.35 8.62 8.62 0 0 1-1.13-2.7c-.06-.23-.13-.45-.19-.67a.28.28 0 0 0-.28-.19.59.59 0 0 0-.33.11c-.61.54-.25 1.7 0 2.47 0 .11.07.22.1.32v.1c.17.58.3 1-.08 1.35a3.48 3.48 0 0 1-2.31.64c-.44 0-.88 0-1.31-.07h-.7a24.5 24.5 0 0 1-3.58-.53 20.65 20.65 0 0 0-4.12-.54h-.93a22.27 22.27 0 0 0-2.43.3 22.9 22.9 0 0 1-3.41.37c-1.78 0-2.91-.55-3.43-1.67-1.14-2.83-.53-6.22-.09-8.7 0-.24-.32-.37-.49-.39h-.13a.38.38 0 0 0-.35.26 32.49 32.49 0 0 0-.7 3.74 29.79 29.79 0 0 1-1 4.76A12 12 0 0 1 66 73.38a19.09 19.09 0 0 1-7.62 1.82c-4.37.08-9.78.74-13 5.25a2.56 2.56 0 0 0-.33.84.44.44 0 0 0 0 .37c.1.13.35.1.49 0 3-3.36 7.07-5.06 12.14-5.06h.84c4.09 0 9.2-.54 12.33-4.81a32.54 32.54 0 0 0 1.93-2.83l.22-.16 1.78 1.36v.09s-.78 2-1.23 2.84-1.77 3.28-3.3 4.12l-1.29.68c-.85.45-1.92 1-3 1.61a6.38 6.38 0 0 1-3.12.77 7.86 7.86 0 0 1-2-.26 23 23 0 0 0-4.16-.51 6.59 6.59 0 0 0-2.87.55A11.86 11.86 0 0 0 52 81.54c-.37.35-.76.71-1.14 1a7.41 7.41 0 0 1-4.59 1.78 6.15 6.15 0 0 1-1.18-.23 5.41 5.41 0 0 0-1.27-.23 1.39 1.39 0 0 0-1.1.47 7.6 7.6 0 0 0-1.21 1.7 5.12 5.12 0 0 1-2.12 2.34 4 4 0 0 1-2 .49 11.78 11.78 0 0 1-2.42-.35 14.52 14.52 0 0 0-1.74-.31h-.14v-.23c.06-.24.11-.49.16-.73A9.64 9.64 0 0 1 35 82.78a3.32 3.32 0 0 0 2-.73 10.61 10.61 0 0 0 2-2.46h.05l1-.6a9.43 9.43 0 0 0 3.66-3c.31-.64.61-1.41.9-2.16a9.93 9.93 0 0 1 1.28-2.68 1.25 1.25 0 0 1 .75-.35h.71c.62 0 1.48-.08 2.28-.18a12.54 12.54 0 0 0 4.55-2.26 1.56 1.56 0 0 0 .37-1.54c0-.17-.18-.5-.36-.93A21 21 0 0 1 52.92 62a32.25 32.25 0 0 1-.23-3.29c0-.86-.08-1.75-.13-2.54 0-.4-.18-.4-.26-.4h-.17a22.12 22.12 0 0 1-5.49.91 11.43 11.43 0 0 1-1.77-.14c-3.24-.42-7.15-2.54-8.56-6.34-1.11-2.89-1-7.34 1.37-9.91a42.6 42.6 0 0 1 6.07-5.73l1.24-1c.45-.35.61-.62.57-1a1.45 1.45 0 0 0-1-1.19 6.45 6.45 0 0 0-1.56-.13h-1a5.91 5.91 0 0 1-2.36-.38l-.31-.12a9.1 9.1 0 0 1-5-6.53 5.39 5.39 0 0 1 .81-3.43c1.76.95 3.3 2.49 5.28 3 .78.19 1.54.3 2.34.45l.46.09.22.05c1.26.31 4.6 1.13 6.09 2.77a5.42 5.42 0 0 1 .31 6.44 30 30 0 0 1-4.54 4.43c-1.09.92-2.21 1.87-3.19 2.85A7.46 7.46 0 0 0 40 48.28a6.52 6.52 0 0 0 5.65 4.28h.25c3.42 0 6.09-1.56 8.91-3.21.24-.14.54-.33.78-.49.47-.3 1.47-1.07 2.21-1.65 2.28-1.77 5-3.85 7.5-4.44a18.25 18.25 0 0 1 3.7-.57 15.88 15.88 0 0 0 3.46-.62 19.73 19.73 0 0 0 6.39-4.39 12.27 12.27 0 0 1 8.51-2.95c1.51 0 1.7-.18 3.53-1.91L92.34 31c2-1.82 4.49-2.6 6.91-3.35a30.58 30.58 0 0 0 3.75-1.34 19.77 19.77 0 0 0 4.29-2.31c.81-.52 1.63-1.05 2.48-1.5a11.13 11.13 0 0 1 4.27-.82 9.87 9.87 0 0 1 3.36.55 14.4 14.4 0 0 1 4.31 2.31l10.68 8.88.16.15.63.63a117.6 117.6 0 0 1 8.74 11.32 13.16 13.16 0 0 1 1.53 4.4c.46 6.23 2.36 11.84 4.11 16.61a4 4 0 0 0 .85.89 8.54 8.54 0 0 1 1.3 1.33c.47.66.9 1.39 1.32 2.09 1.07 1.79 2.17 3.65 4.08 4.76l1.62.81a.47.47 0 0 1 .27.59.61.61 0 0 1-.52.48 4.74 4.74 0 0 1-1 .11 8.38 8.38 0 0 1-6.55-4.1c-1.46-2.65-2.66-4.24-4.81-5a8.49 8.49 0 0 0 .77 1.24c.16.24.32.46.46.69a20.57 20.57 0 0 1 2.12 4.58c.48 1.59 2.2 2.79 3.78 3.8l2 1c.4.19.61.46.58.73s-.11.41-.48.5h-.76a11.26 11.26 0 0 1-8.68-3.69 3.11 3.11 0 0 0-2.07-1.18c-1.55 1.38-3.16 2.79-5.31 2.93a11.92 11.92 0 0 0-6.57.44l-.83.29a16.22 16.22 0 0 1-4.85 1.21 2.59 2.59 0 0 1-2.5-1.37zm-2-7.09c-1.53-2.07-2.53-3.55-2.68-5.43a66.57 66.57 0 0 1 6.65-1c-.75 2.22-3.36 3.29-3.97 6.43zm40.42 25.65a47 47 0 0 1-35-15.6c2.09-.31 4.61-1.37 6.47-1.71 2.2-.38 5.07.56 7.19-.48 2.07-.84 3.27-2.45 3.6-2.12a14.13 14.13 0 0 0 10.42 4c3-.09 3.3-2.48 1.22-3.56 4.06.47 5.26-1.73 4.51-2.44a10.09 10.09 0 0 0-2.31-1.54c-2.89-1.63-3.45-4.84-5-6.8a13.87 13.87 0 0 1-1.92-2.34A64 64 0 0 1 145 48.74c-.47-3.33-2.68-6.13-5.89-10.07a80 80 0 0 0-5.11-6.24c-5.2-4.38-8.26-7-11.62-9.4a47.12 47.12 0 0 1 76.42 1c-1.65 1.3-3.38 2.65-4.87 3.71-7.27 5.17-10 7.44-13.6 11.37-9.33 10.09-6.49 25.24-14.51 34.02a21.78 21.78 0 0 1-3.4 3.2c-.93.78-1.15 5 4.92 2.92-2.76 2.37-1 3.46.8 3.5 3.2.07 6.73-1 10.21-4.73 2.41 3.47 6.6 1.87 8.77 2s5.81 2.39 8 2.26h.43a47 47 0 0 1-35.35 15.94zm39.19-20.94v-.36h.3zm1.41-4.56a54.9 54.9 0 0 0-3.23-6 23.17 23.17 0 0 0 6.5.37 50.8 50.8 0 0 0-3.27 5.63zm18.88 2.1a.44.44 0 0 1 .08.35 17 17 0 0 1-1 3.71 1.33 1.33 0 0 1-1.33.67 5.52 5.52 0 0 1-1.11-.14c-.93-.18-2.16-.43-2.3-1.64a6.49 6.49 0 0 1 .91-3h.07a4.43 4.43 0 0 1 .85-.07h1.41a12.23 12.23 0 0 0 1.58-.11h.16a.89.89 0 0 1 .68.23zm65.45 13.58c-.3 0-.87 0-1.34.08s-1 .07-1.49.07a4 4 0 0 1-2.91-.91 10.71 10.71 0 0 1-1.39-1.71c-.65-.91-1.16-1.63-2.08-1.63a2.24 2.24 0 0 0-1 .24 3.91 3.91 0 0 1-2.26.74 3.61 3.61 0 0 1-1.36-.28 6 6 0 0 1-1.77-1.18 9.34 9.34 0 0 0-1.21-.91 14.67 14.67 0 0 0-8.52-2.85 13 13 0 0 0-2.79.3 4.32 4.32 0 0 1-1.08.14 8 8 0 0 1-4.14-1.67c-.31-.21-.63-.41-.95-.6-2.57-1.09-3.28-4.06-3.75-6a21.11 21.11 0 0 1-.45-2.85c.06-.26.13-.4.55-.66a.54.54 0 0 1 .3-.1.43.43 0 0 1 .38.24c.94 2.58 3.88 6.72 7.49 7.91a7.47 7.47 0 0 0 2.83.5 21.52 21.52 0 0 0 2.5-.19 22.94 22.94 0 0 1 2.66-.2 9.78 9.78 0 0 1 1.76.15c3.13.39 5.63 2.32 8.05 4.19l.36.29a.31.31 0 0 0 .41-.22.32.32 0 0 0-.05-.17 13.38 13.38 0 0 0-10.78-5.36 6.42 6.42 0 0 0-1.11 0 18.58 18.58 0 0 1-2.34.25 9.58 9.58 0 0 1-8.13-4.23 16.2 16.2 0 0 1-2.63-6.35 40.8 40.8 0 0 0-1.8-7.86c-.12-.3-.37-.42-.6-.3a.35.35 0 0 0-.18.37.22.22 0 0 1 0 .08 2.64 2.64 0 0 1 .06.31c.63 3.71.68 6.38.16 7.91-.54 1.8-2.37 3-4.89 3.06h-.84c-.84 0-1.67-.07-2.47-.15s-1.68-.15-2.55-.15h-.63a32.19 32.19 0 0 0-5.71.67 32 32 0 0 1-5.79.69A15.11 15.11 0 0 1 222 70h-.16l.05-.16.24-.63a5.4 5.4 0 0 0 .58-3c-.07-.27-.32-.33-.64-.17a2.38 2.38 0 0 0-.85 1.4 3.56 3.56 0 0 1-.46 1 8 8 0 0 1-5 3.69 29.53 29.53 0 0 0-3.83 3.84 1.76 1.76 0 0 0-.29 1.6c.82 1.94 2.84 2.43 4.79 2.91a8.58 8.58 0 0 0 1.2.25 2.26 2.26 0 0 0 2.11-1.12 8.89 8.89 0 0 0 .64-1.35c.52-1.26 1.17-2.69 2.65-2.77h4.82a.81.81 0 0 1 .84.81 1.36 1.36 0 0 1-.27.77c-.17.27-.36.57-.54.91a8.59 8.59 0 0 1-2.3 3.02 2.41 2.41 0 0 1-.88.13c-.85 0-1.23.13-1.45 1.3a4.68 4.68 0 0 1-1.73 3 3.2 3.2 0 0 1-2.25.89 8.34 8.34 0 0 1-2.45-.49 39.39 39.39 0 0 0-4.27-1.29c-1.06-.28-2.16-.57-3.21-.92a3 3 0 0 1-1.32-1 2.68 2.68 0 0 0-1.24-.91 3.43 3.43 0 0 0-1.23 0 5 5 0 0 1-.77.08 1.43 1.43 0 0 1-1.17-.51 7.67 7.67 0 0 1-1.06-2.63c-.06-.2-.11-.4-.17-.6-.21-.72-.51-1.72-.69-2.64a3.16 3.16 0 0 1 .2-1.86l.07-.23 3.39-6.15a2.12 2.12 0 0 0 .15-.21 1.8 1.8 0 0 1 .87-.79h.09a6.35 6.35 0 0 1 2.34 1c.18.23 0 .57-.2.9-.66 1-2.89 4.21-3.26 5-.56 1.3-.33 3 .77 5a.56.56 0 0 0 .21.22v-.23a9.88 9.88 0 0 1 0-3 8.71 8.71 0 0 1 1.51-2.93l2.74-4.06a2.26 2.26 0 0 0-.22-2.24 5.61 5.61 0 0 0-1.64-1.16 6 6 0 0 1-2.28-2c-2.25-3-2.49-6.41-2.74-10.07v-.35a.83.83 0 0 0-.53-.69h-.07a.45.45 0 0 0-.42.36c-.86 2.68 0 6.25.37 7.6a28 28 0 0 0 1.93 5 .71.71 0 0 1-.61.91 29.74 29.74 0 0 1-5.37-.23c-1.83-.28-3.33-1.5-4.78-2.68-.45-.36-.91-.74-1.37-1.07 0 0-.26-.12-.37 0s0 .38 0 .38a7.84 7.84 0 0 0 2.23 3.43 9.9 9.9 0 0 1 2.18 3.08A9.75 9.75 0 0 0 198.2 71a8.15 8.15 0 0 1 1.53 3 .78.78 0 0 1-.58.94 3.64 3.64 0 0 1-.9 0 1.56 1.56 0 0 0-.9 0 4.71 4.71 0 0 0 .15 1.26 3.61 3.61 0 0 1 0 2.18c-.67 1-1.59 2.24-2.87 2.28-1-.34-2-.71-2.93-1.07-1.34-.51-2.74-1-4.14-1.45h-1a29.21 29.21 0 0 0-4 .35 6.55 6.55 0 0 1-2.91-1.8 8.55 8.55 0 0 0-.89-.76 1.06 1.06 0 0 0-.42-.07.58.58 0 0 0-.44.17c-2.63 2.63-5.36 5.36-9.19 5.36-.69 0-1-.3-1-.73 0 0 0-.08.14-.27a2.12 2.12 0 0 1 .41-.35c1.62-1.4 3.45-3 4.11-5a9 9 0 0 1 1.36-2.49 9 9 0 0 0 1.27-2.32c0-.24 0-.31-.14-.38a.77.77 0 0 0-.51.24c-2.06 2.21-3 4.18-4.75 6.33-2.85 2.87-5.72 1.9-5.9 1.83a.56.56 0 0 1-.13-1c6.83-4.44 8.6-11.27 10.3-18.12.31-1.26.64-2.56 1-3.83.2-.68.39-1.37.59-2.05 1.31-4.64 2.66-9.44 6.38-13.27 3.78-4.13 8.2-7.33 12.48-10.43 2.87-2.08 5.84-4.23 8.6-6.65a7.28 7.28 0 0 1 3.82-2h.77c2.77 0 4.92 1.25 7.29 3.13a7.43 7.43 0 0 1 1.45 1.46 4.31 4.31 0 0 0 2.23 1.76 35.18 35.18 0 0 1 8.41 2.62 32.9 32.9 0 0 1 4.45 2.91l1.18.86a5.92 5.92 0 0 0 2.81.89 10.73 10.73 0 0 1 2 .42 15.48 15.48 0 0 1 5 2.76c.56.41 1.15.84 1.74 1.22a13.69 13.69 0 0 0 5.93 2.2 20.08 20.08 0 0 1 4.32 1.21A35.9 35.9 0 0 1 263 47a52.5 52.5 0 0 0 5.64 3.45 11.07 11.07 0 0 0 5.07 1.27 6.93 6.93 0 0 0 3.63-.91c1.88-1.37 2.64-2.95 2.33-4.82-.58-3.22-3-5.59-5.45-7.89a26.15 26.15 0 0 1-4.22-4.69 5 5 0 0 1-.56-3.93c.74-2.17 2.8-3.86 6.12-5a20.74 20.74 0 0 1 2.35-.6 11.41 11.41 0 0 0 3.57-1.15 7.11 7.11 0 0 0 1.3-1.05l.3-.28a.39.39 0 0 1 .25-.12c.26 0 .34.35.4.64 0 .08 0 .15.05.21.38 2.18.5 6.14-2.84 8.39a10.4 10.4 0 0 1-3.36 1.3l-.24.06-.56.14c-.92.21-2.38.55-2.36 1.11s.75 1.2 1.36 1.71l.35.29c4.68 3.93 7.14 7.77 7.52 11.75.15 3.92-2.71 7.1-5.61 8.5a12.88 12.88 0 0 1-5 1 13.12 13.12 0 0 1-2.89-.39c-.19 0-.35-.07-.56-.13a3.29 3.29 0 0 0-.85-.17.6.6 0 0 0-.64.36 4.06 4.06 0 0 0 .31 2c.08.25.17.5.23.76a11.56 11.56 0 0 1-.31 5.65 8.63 8.63 0 0 1-.41 1.21c-.4 1-.7 1.91 0 2.9s2.29 1.34 3.79 1.4a14.72 14.72 0 0 1 1.63.14c1 .17 1.41 1.17 1.71 2l.1.27c.15.42.32 1 .5 1.69a15.64 15.64 0 0 0 .74 2.34 5.51 5.51 0 0 0 1.28 1.36 16.41 16.41 0 0 1 1.6 1.55c.33.35.64.76 1 1.19 1 1.3 2 2.65 3.7 2.55h.09v.08a17.42 17.42 0 0 1 1.45 5.11v.12a3.57 3.57 0 0 1-.38.03zm.43-7.85a2.18 2.18 0 0 1-1.57.67 2.47 2.47 0 0 1-1.67-1l-.22-.27c-1-1.21-1.81-2.19-1.78-2.74a2.45 2.45 0 0 1 1.93-1.48 1 1 0 0 1 .66.25l.16.12a9.46 9.46 0 0 0 .93.65 9 9 0 0 1 2.4 2c.36.6-.47 1.46-.84 1.8zm5.53 7a.45.45 0 0 1-.31.26l-2.88 1h-.09c-.39 0-.55-.81-.59-1.06a42.6 42.6 0 0 0-1.22-4.46c-.16-1.13.43-1.66 1.43-2.16a1.44 1.44 0 0 1 .67-.16 1.83 1.83 0 0 1 1.61 1 7 7 0 0 1 .37 1.8c.05.42.11.85.2 1.26a5.56 5.56 0 0 0 .35.86c.37.66.63 1.31.46 1.69z"/><path class="cls-1" d="M206.36 31.84a1.8 1.8 0 0 0-.93.27 15.48 15.48 0 0 0-5.27 6.54c-.38 1-.62 3.08-.33 3.38a.37.37 0 0 0 .23.11c.18 0 .26-.17.3-.25a13.23 13.23 0 0 1 1.2-2.18 24.51 24.51 0 0 1 4.15-4.47c.44-.4.87-.79 1.28-1.18a1.27 1.27 0 0 0 .35-1.63 1 1 0 0 0-.98-.59zm-73.02 42.89a5.07 5.07 0 0 0 2.46-.51 2.22 2.22 0 0 0 .46-1.15c0-.19.26-1.48-.25-1.74a1.49 1.49 0 0 0-1.06 0 4.56 4.56 0 0 0-2.62 2.37s-.27.48-.1.73.4.27 1.11.3zm-16.95-38.99a1.15 1.15 0 0 0-.5-.11 1 1 0 0 0-.89.37c-.47.77-.05 1.33.43 2a7.63 7.63 0 0 1 .69 1.09 21.61 21.61 0 0 1 1.55 5.57c.05.27.2.3.27.3s.27-.14.33-.34c0 0 1.1-4-.28-6.84a4.24 4.24 0 0 0-1.6-2.04zm17.43 23.61c.18-.12.18-.22.78-1a2.84 2.84 0 0 1 1.4-1.06c1-.09 2.78 2.17 3.15 3a9.66 9.66 0 0 1 .4 2.49c0 .09 0 .72.5.72a.78.78 0 0 0 .73-.51 3.22 3.22 0 0 0 .35-1.13 5.94 5.94 0 0 0-.08-2.24 8.08 8.08 0 0 0-1.57-2.94 8.76 8.76 0 0 1-1.1-1.41 5.35 5.35 0 0 0-.83-1.24 1.72 1.72 0 0 0-1.51-.78 1.53 1.53 0 0 0-1.28.78c-.2.3-.73 1.53-.73 1.53a8.1 8.1 0 0 0-.68 1.69 3.36 3.36 0 0 0-.06 1.71c.1.44.34.5.53.39zm53.27-4.3c-.82-.9-1.32-1.17-1.63-.86-.4.46-.79 1-1.17 1.44a16.72 16.72 0 0 1-2.56 2.83 6.51 6.51 0 0 0-2.07 5.54.5.5 0 0 0 .22.43.69.69 0 0 0 .46.18h.16a1.54 1.54 0 0 0 .53-1.14 3.89 3.89 0 0 1 .15-.67 6 6 0 0 1 2.4-3.11c.2-.17 1-.76 1.19-.91a2.27 2.27 0 0 1 1.26-.59h.08c.56 0 .75.32 1 .74a2 2 0 0 0 .84.9.8.8 0 0 0 1-.37 1.21 1.21 0 0 0 .06-.94 17.24 17.24 0 0 0-1.92-3.47zm-1.81 16.37a.69.69 0 0 0-.76.85 3 3 0 0 0 1.14 2.38 2.33 2.33 0 0 0 1.25.34 1.2 1.2 0 0 0 1.1-.47c.45-.79-.42-1.94-.46-2a3.36 3.36 0 0 0-2.27-1.1zm152.08 49.74a1.9 1.9 0 0 0-.88-1.69 3.51 3.51 0 0 0-1.86-.38h-3.33v7.6h1.15v-3.39h1.46l2.06 3.33v.06h1.37l-2.23-3.4c1.5-.1 2.26-.84 2.26-2.13zm-4.92-1.16h2c.93 0 1.79.14 1.79 1.14s-.76 1.21-1.88 1.21h-1.88z"/><path class="cls-1" d="M333.86 116.2a6.7 6.7 0 1 0 6.69 6.68 6.7 6.7 0 0 0-6.69-6.68zm0 12.35a5.66 5.66 0 1 1 5.64-5.67 5.67 5.67 0 0 1-5.64 5.67z"/></svg>