<svg width="81" height="80" viewBox="0 0 81 80" fill="none" xmlns="http://www.w3.org/2000/svg">
<path d="M26.5241 38.8731C26.4245 31.6372 16.4231 31.3578 16.1953 38.7969C16.3434 46.3234 26.47 46.0525 26.5241 38.8731Z" fill="white"/>
<path d="M74.5092 33.1045C73.6637 33.1045 72.8438 33.6887 72.8438 34.5776C72.8438 35.4666 73.3562 35.6698 76.7669 37.1937C78.7171 38.0629 79.8615 38.9462 80.4993 39.9312C80.4993 38.2407 80.3939 36.57 80.1918 34.9332H76.2573C76.1548 34.2982 76.001 33.1045 74.5149 33.1045H74.5092Z" fill="white"/>
<path d="M18.4844 59.6914H23.2132L20.8417 53.7988L18.4844 59.6914Z" fill="white"/>
<path d="M74.5868 48.6027C69.6132 48.6027 67.6146 45.7072 67.7427 42.0215H72.5626C72.5797 45.5774 76.2979 45.0835 76.3833 42.7835C76.3833 41.7929 75.589 41.4881 72.6651 40.269C71.3327 39.7356 68.0246 38.4149 68.0246 34.8816C68.1612 29.1301 75.6772 27.372 79.4666 30.8686C69.6644 -9.55243 12.2665 -10.5345 1.00961 29.4462H10.8146V33.6653H5.30285V36.8655H10.6096V41.0846H5.30285V48.2499H2.53274H0.5C0.613879 48.7889 0.750534 49.3223 0.890036 49.8529H0.872954C1.0694 50.612 1.31708 51.3514 1.55623 52.0936H2.87438C2.88007 52.119 4.93843 59.7302 4.94698 59.7641C5.23737 60.2692 5.55053 60.7575 5.8637 61.2485L8.25231 52.0908H9.35409C9.35694 52.1105 12.0359 62.1939 12.0445 62.2193L14.7491 52.0908H16.2438L12.7932 64.319H11.3754C11.3698 64.2964 8.81032 54.6448 8.80178 54.6166L6.70071 62.541C9.88078 67.1354 14.0004 71.0581 18.7776 73.9903C42.9512 89.0095 75.3897 74.4052 79.9505 46.5087C78.9427 47.7532 77.2516 48.6055 74.5897 48.6055L74.5868 48.6027ZM11.3527 39.0752C11.3356 32.9202 16.1128 29.0878 21.3484 29.0906C34.5954 29.3418 34.6182 48.3713 21.3228 48.6055C15.3498 48.6055 11.3527 43.9039 11.3527 39.0781V39.0752ZM25.0865 64.3161L25.0722 64.2851L23.663 60.907H18.026L16.6196 64.3161H15.0395C15.0594 64.2653 20.1669 52.1472 20.1897 52.088H21.579L21.5932 52.119L26.6779 64.3161H25.0808H25.0865ZM32.9413 53.3861H29.9178V64.3161H28.4459V53.3861H25.4367V52.088H32.9441V53.3861H32.9413ZM40.9612 53.3861H35.5406V57.4979H40.9299V58.7961H35.5406V63.0208H40.9612V64.319H34.0829V52.0908H40.9612V53.389V53.3861ZM50.8459 64.3161H49.2345L49.2203 64.2936L46.4986 60.1281H44.2836V64.319H42.8117V52.0908C44.5142 52.1275 48.463 51.8622 49.5192 52.7229C50.5327 53.324 51.2132 54.6533 51.2132 56.0276C51.2758 58.0454 49.858 59.7161 47.794 59.7726L50.8431 64.3218L50.8459 64.3161ZM41.9036 44.3864C44.927 44.3864 46.1598 41.8719 46.4673 41.2116H51.5434C48.5085 52.5508 31.9676 50.0024 31.9591 38.8241C32.2722 26.8076 49.1719 25.8763 51.5434 36.589H46.4673C44.3548 31.179 36.7619 32.8864 36.8046 38.7987C36.8046 41.6434 38.752 44.3893 41.9064 44.3893L41.9036 44.3864ZM66.9996 40.8024C67.0082 46.0176 64.5456 48.3741 59.7968 48.6027C58.4132 48.6027 55.8993 48.2725 54.3363 46.5961C52.7733 44.8944 52.4402 43.5737 52.4402 40.8024V29.4462H57.2858C57.4224 31.1282 56.9384 41.7365 57.6189 43.0657C58.1342 44.7618 61.3342 44.8267 61.8466 43.1673C62.4957 41.7591 62.0146 31.1621 62.1541 29.4462H66.9996V40.8024Z" fill="white"/>
<path d="M48.6079 53.8216C47.6513 53.1754 45.536 53.4406 44.2891 53.387V58.9212C45.6158 58.8393 47.8136 59.226 48.8841 58.3144C50.1823 57.1828 50.0684 54.7332 48.6108 53.8216H48.6079Z" fill="white"/>
<path d="M59.72 51.9307C51.3642 52.1875 51.3642 64.2125 59.72 64.4664C68.0787 64.2096 68.0759 52.1847 59.72 51.9307Z" fill="#E30613"/>
<path d="M63.2765 59.426H60.9591V61.726H58.4765V59.426H56.1562V56.968H58.4765V54.668H60.9591V56.968H63.2765V59.426Z" fill="white"/>
</svg>