<svg width="545" height="538" viewBox="0 0 545 538" fill="none" xmlns="http://www.w3.org/2000/svg">
<path d="M178.465 261.422C177.794 212.76 110.501 210.881 108.968 260.909C109.965 311.525 178.101 309.703 178.465 261.422Z" fill="#00ADEF"/>
<path d="M501.327 222.628C495.638 222.628 490.122 226.556 490.122 232.534C490.122 238.513 493.569 239.879 516.518 250.128C529.64 255.973 537.34 261.913 541.631 268.537C541.631 257.169 540.922 245.933 539.562 234.926H513.089C512.4 230.655 511.365 222.628 501.366 222.628H501.327Z" fill="#00ADEF"/>
<path d="M124.37 401.425H156.188L140.231 361.797L124.37 401.425Z" fill="#00ADEF"/>
<path d="M501.849 326.853C468.385 326.853 454.938 307.381 455.8 282.595H488.23C488.345 306.508 513.362 303.187 513.937 287.719C513.937 281.057 508.593 279.007 488.919 270.809C479.955 267.222 457.696 258.34 457.696 234.579C458.615 195.9 509.186 184.077 534.683 207.591C468.73 -64.2401 82.5339 -70.8445 6.79305 198.026H72.7649V226.399H35.6797V247.92H71.3856V276.294H35.6797V324.481H17.0413H3.3642C4.13042 328.105 5.04989 331.692 5.98851 335.261H5.87358C7.19534 340.366 8.86183 345.338 10.4709 350.329H19.34C19.3782 350.5 33.2277 401.686 33.2852 401.914C35.2391 405.31 37.3462 408.594 39.4533 411.896L55.5248 350.311H62.938C62.9572 350.443 80.9823 418.254 81.0402 418.425L99.2378 350.311H109.295L86.0777 432.545H76.5382C76.5005 432.393 59.2793 367.486 59.2218 367.297L45.085 420.588C66.4818 451.486 94.2002 477.866 126.343 497.585C288.993 598.589 507.252 500.375 537.939 312.771C531.158 321.14 519.779 326.872 501.869 326.872L501.849 326.853ZM76.3855 262.781C76.2704 221.388 108.413 195.615 143.64 195.634C232.772 197.324 232.925 325.297 143.468 326.872C103.28 326.872 76.3855 295.254 76.3855 262.8V262.781ZM168.792 432.526L168.696 432.317L159.214 409.6H121.286L111.823 432.526H101.192C101.326 432.184 135.691 350.69 135.844 350.292H145.192L145.288 350.5L179.499 432.526H168.754H168.792ZM221.642 359.022H201.299V432.526H191.395V359.022H171.148V350.292H221.661V359.022H221.642ZM275.603 359.022H239.131V386.673H275.393V395.404H239.131V423.815H275.603V432.545H229.323V350.311H275.603V359.041V359.022ZM342.111 432.526H331.269L331.174 432.374L312.861 404.361H297.958V432.545H288.054V350.311C299.509 350.557 326.078 348.773 333.185 354.561C340.004 358.604 344.583 367.543 344.583 376.786C345.004 390.355 335.464 401.591 321.577 401.971L342.092 432.564L342.111 432.526ZM281.944 298.499C302.287 298.499 310.581 281.589 312.65 277.148H346.804C326.384 353.404 215.091 336.266 215.033 261.092C217.14 180.281 330.848 174.018 346.804 246.061H312.65C298.437 209.679 247.349 221.161 247.636 260.921C247.636 280.052 260.739 298.518 281.963 298.518L281.944 298.499ZM450.8 274.396C450.858 309.468 434.288 325.316 402.336 326.853C393.027 326.853 376.113 324.633 365.596 313.359C355.08 301.915 352.838 293.033 352.838 274.396V198.026H385.441C386.361 209.337 383.104 280.678 387.683 289.617C391.15 301.023 412.681 301.46 416.128 290.3C420.496 280.83 417.259 209.565 418.197 198.026H450.8V274.396Z" fill="#00ADEF"/>
<path d="M327.053 361.95C320.617 357.605 306.384 359.388 297.995 359.028V396.245C306.921 395.694 321.709 398.295 328.912 392.164C337.646 384.554 336.88 368.081 327.073 361.95H327.053Z" fill="#00ADEF"/>
<path d="M401.82 349.234C345.599 350.961 345.599 431.829 401.82 433.537C458.06 431.81 458.042 350.942 401.82 349.234Z" fill="#E30613"/>
<path d="M425.749 399.64H410.157V415.107H393.453V399.64H377.841V383.11H393.453V367.642H410.157V383.11H425.749V399.64Z" fill="white"/>
</svg>
