<?xml version="1.0" encoding="UTF-8"?>
<svg xmlns="http://www.w3.org/2000/svg" xmlns:xlink="http://www.w3.org/1999/xlink" id="Calque_2" data-name="Calque 2" viewBox="0 0 168.2 42.05">
  <defs>
    <style>
      .cls-1 {
        fill: none;
      }

      .cls-2 {
        clip-path: url(#clippath);
      }

      .cls-3 {
        fill: #fd8022;
      }

      .cls-4 {
        clip-path: url(#clippath-1);
      }

      .cls-5 {
        fill: url(#Dégradé_sans_nom);
      }
    </style>
    <clipPath id="clippath">
      <rect class="cls-1" x=".08" width="168.04" height="42.09"/>
    </clipPath>
    <linearGradient id="Dégradé_sans_nom" data-name="Dégradé sans nom" x1="222.38" y1="-462.41" x2="-133.91" y2="-462.41" gradientTransform="translate(63.79 237.29) scale(.47)" gradientUnits="userSpaceOnUse">
      <stop offset="0" stop-color="#fff7ae"/>
      <stop offset=".2" stop-color="#fff7ae"/>
      <stop offset=".3" stop-color="#fff7ae"/>
      <stop offset=".4" stop-color="#fff7ae"/>
      <stop offset=".45" stop-color="#fff7ae"/>
      <stop offset=".5" stop-color="#fff7ae"/>
      <stop offset=".55" stop-color="#fff7ae"/>
      <stop offset=".6" stop-color="#fff7ae"/>
      <stop offset=".7" stop-color="#fff7ae"/>
      <stop offset=".8" stop-color="#fff7ae"/>
      <stop offset="1" stop-color="#fff7ae"/>
    </linearGradient>
    <clipPath id="clippath-1">
      <rect class="cls-1" width="168.2" height="53.31"/>
    </clipPath>
  </defs>
  <g id="Calque_1-2" data-name="Calque 1">
    <g>
      <g class="cls-2">
        <path class="cls-5" d="m98.43.48l-5.3,3.16c-.53.33-1.12.48-1.75.48h-14.89c-.62,0-1.21-.18-1.75-.48l-5.27-3.16c-.62-.39-1.36-.54-2.07-.45L3.16,6.62c-1.75.18-3.08,1.67-3.08,3.43v22c0,1.76,1.33,3.25,3.08,3.43l64.24,6.59c.74.06,1.45-.09,2.07-.45l5.3-3.16c.53-.33,1.12-.48,1.75-.48h14.89c.62,0,1.21.18,1.75.48l5.3,3.16c.62.39,1.36.54,2.07.45l64.56-6.59c1.75-.18,3.08-1.67,3.08-3.43V10.05c0-1.76-1.33-3.25-3.08-3.43L100.51.03c-.12-.03-.24-.03-.35-.03-.59,0-1.19.18-1.72.48Z"/>
        <polygon class="cls-3" points="5.61 22.92 5.61 11.15 8.48 11.15 8.48 20.72 17.63 20.72 17.63 22.92 5.61 22.92"/>
        <path class="cls-3" d="m25.29,18.18h5.35l-2.75-4.89-2.6,4.89Zm-5.54,4.74l6.93-11.75h2.72l7.04,11.74h-3.2l-1.48-2.6h-7.69l-1.48,2.6h-2.84Z"/>
        <path class="cls-3" d="m51.42,16.3c-.42-.39-1.21-.57-2.43-.57h-7.6v-2.47h8.02v.69h2.46v-.24c0-.95-.21-1.61-.65-2-.44-.39-1.24-.57-2.43-.57h-6.92c-1.19,0-2.01.21-2.43.59-.42.39-.62,1.13-.62,2.17v1.31c0,1.07.21,1.79.62,2.21.42.42,1.24.59,2.43.59h7.58v2.68h-8.58v-.63h-2.54v.06c0,1.07.21,1.82.65,2.21.42.39,1.24.59,2.46.59h7.58c1.19,0,1.98-.21,2.4-.59.42-.39.62-1.13.62-2.21v-1.61c.03-1.1-.18-1.85-.59-2.24Z"/>
        <polygon class="cls-3" points="54.61 22.92 54.61 11.15 67.13 11.15 67.13 13.23 57.48 13.23 57.48 15.8 63.1 15.8 63.1 17.82 57.48 17.82 57.48 20.71 67.27 20.71 67.27 22.92 54.61 22.92 54.61 22.92"/>
        <path class="cls-3" d="m79.74,13.17h-6.51v3.25h6.51c.5,0,.83-.06,1-.21.18-.15.27-.39.27-.74v-1.37c0-.36-.09-.59-.27-.74-.17-.12-.53-.18-1-.18Zm-9.32,9.75v-11.78h10.5c.95,0,1.66.18,2.1.54s.65.95.65,1.76v2.77c0,.8-.21,1.37-.65,1.73-.44.36-1.12.54-2.1.54h-1.6l5.56,4.44h-4.08l-4.88-4.44h-2.69v4.44h-2.81Z"/>
        <path class="cls-3" d="m104.24,13.35h-8.99v7.45h8.99v-2.53h-4.71v-2.11h7.52v4.12c0,1.1-.21,1.85-.62,2.24-.42.39-1.24.6-2.43.6h-8.55c-1.21,0-2.01-.21-2.43-.6-.42-.39-.62-1.13-.62-2.24v-6.32c0-1.07.21-1.82.62-2.21.42-.39,1.24-.59,2.43-.59h8.55c1.18,0,2.01.18,2.43.57.42.39.65,1.07.65,2.09v.12h-2.84v-.57Z"/>
        <path class="cls-3" d="m115.6,18.27h5.41l-2.75-4.98-2.66,4.98Zm-5.59,4.8l7.01-11.93h2.78l7.13,11.93h-3.23l-1.48-2.62h-7.81l-1.48,2.62h-2.93Z"/>
        <polygon class="cls-3" points="130.51 23.07 130.51 11.14 132.82 11.14 138.59 18.21 144.36 11.14 146.67 11.14 146.67 23.07 144.01 23.07 144.01 14.88 138.74 21.64 138.18 21.64 132.83 15.05 132.83 23.07 130.51 23.07 130.51 23.07"/>
        <polygon class="cls-3" points="149.83 23.07 149.83 11.14 162.53 11.14 162.53 13.26 152.73 13.26 152.73 15.85 158.44 15.85 158.44 17.91 152.73 17.91 152.73 20.83 162.68 20.83 162.68 23.07 149.83 23.07"/>
        <path class="cls-3" d="m161.34,15.92c-.59,0-1.06.6-.89,1.22.09.27.29.51.59.59.62.21,1.21-.27,1.21-.89,0-.51-.42-.92-.92-.92Zm0,2.09c-.71,0-1.3-.69-1.12-1.43.09-.42.44-.74.86-.87.74-.18,1.42.39,1.42,1.13,0,.66-.53,1.16-1.15,1.16Z"/>
        <path class="cls-3" d="m161.49,16.48h-.5v.3h.5s.06,0,.09-.03c0,0,.03-.03.03-.09v-.12s0-.06-.03-.09t-.09.03Zm-.68.8v-.95h.77c.06,0,.12,0,.15.03.03.03.06.09.06.15v.21c0,.06-.03.12-.06.15-.03.03-.09.03-.15.03h-.12l.42.39h-.24l-.38-.39h-.27v.39h-.18Z"/>
        <polygon class="cls-3" points="30.73 34.43 30.73 28.02 37.25 28.02 37.25 29.13 32.21 29.13 32.21 30.56 35.14 30.56 35.14 31.63 32.21 31.63 32.21 33.24 37.3 33.24 37.3 34.43 30.73 34.43 30.73 34.43"/>
        <polygon class="cls-3" points="45.89 34.43 42.22 28.02 43.9 28.02 46.47 32.67 48.93 28.02 50.38 28.02 46.89 34.43 45.89 34.43 45.89 34.43"/>
        <path class="cls-3" d="m57.16,33.24h4.88v-4.05h-4.88v4.05Zm-1.48-3.69c0-.59.12-.98.33-1.19.21-.21.62-.33,1.24-.33h4.68c.62,0,1.04.12,1.24.33.21.21.33.63.33,1.19v3.37c0,.59-.12.98-.33,1.19-.21.21-.62.33-1.24.33h-4.68c-.62,0-1.04-.12-1.24-.33-.21-.21-.33-.63-.33-1.19v-3.37Z"/>
        <polygon class="cls-3" points="70.33 34.43 70.33 28.02 71.8 28.02 71.8 33.24 76.57 33.24 76.57 34.43 70.33 34.43"/>
        <path class="cls-3" d="m83.7,28.02v5.19h4.2v-5.19h1.48v4.89c0,.59-.12.98-.33,1.19s-.62.33-1.24.33h-4.02c-.62,0-1.04-.12-1.24-.33-.21-.21-.33-.59-.33-1.19v-4.89h1.48Z"/>
        <polygon class="cls-3" points="99.29 29.18 99.29 34.43 97.81 34.43 97.81 29.18 94.88 29.18 94.88 28.02 102.22 28.02 102.22 29.18 99.29 29.18"/>
        <rect class="cls-3" x="107.73" y="28.02" width="1.48" height="6.41"/>
        <path class="cls-3" d="m117.49,33.24h4.88v-4.05h-4.88v4.05Zm-1.48-3.69c0-.59.12-.98.33-1.19.21-.21.62-.33,1.24-.33h4.68c.62,0,1.04.12,1.24.33.21.21.33.63.33,1.19v3.37c0,.59-.12.98-.33,1.19-.21.21-.62.33-1.24.33h-4.68c-.62,0-1.04-.12-1.24-.33-.21-.21-.33-.63-.33-1.19v-3.37Z"/>
        <path class="cls-3" d="m130.63,34.43v-6.41h1l4.47,3.79c.15.12.29.24.42.36.12.12.24.24.33.33-.03-.36-.03-.63-.06-.78v-3.7h1.33v6.41h-1.04l-4.68-3.97c-.12-.09-.21-.18-.29-.27-.09-.09-.15-.15-.24-.24.03.21.03.39.06.57,0,.18.03.33.03.45v3.46h-1.33Z"/>
      </g>
    </g>
  </g>
</svg>