<svg version="1.1" xmlns="http://www.w3.org/2000/svg" width="664" height="806">
<defs>
    <style>
        .bg{
            fill: #fd8022
        }
        .path{
            fill: #fff7ae
        }
    </style>
</defs>
<path d="M0 0 C219.12 0 438.24 0 664 0 C664 265.98 664 531.96 664 806 C444.88 806 225.76 806 0 806 C0 540.02 0 274.04 0 0 Z " class="bg" transform="translate(0,0)"/>
<path d="M0 0 C159.06 0 318.12 0 482 0 C482 158.73 482 317.46 482 481 C477.66646131 479.26658453 474.4840924 477.3554446 470.8125 474.625 C403.00071009 425.2694081 326.17437002 388.90145378 240.21139526 360.7164917 C238.71925508 360.23303853 237.22799905 359.74684909 235.73757935 359.25811768 C223.1755971 355.14118932 210.51938906 351.66963781 197.6875 348.5 C196.73654449 348.26321533 195.78558899 348.02643066 194.80581665 347.7824707 C179.37555723 343.94671822 163.91849752 340.53014955 148.28540039 337.625 C144.70539826 336.94395627 141.13918273 336.20578677 137.5703125 335.46875 C130.30717658 334.01099645 123.03377004 332.93893039 115.6875 332 C114.39714844 331.83193848 113.10679687 331.66387695 111.77734375 331.49072266 C103.35799685 330.39999315 94.93193072 329.3635845 86.5 328.375 C85.56115967 328.26414062 84.62231934 328.15328125 83.6550293 328.0390625 C55.6864805 324.84564396 28.28467472 324.0878721 0 323 C0 216.41 0 109.82 0 0 Z " class="bg" transform="translate(91,100)"/>
<path d="M0 0 C167.64 0 335.28 0 508 0 C508 167.31 508 334.62 508 507 C340.36 507 172.72 507 0 507 C0 339.69 0 172.38 0 0 Z M13 13 C13 119.59 13 226.18 13 336 C30.16 336.66 47.32 337.32 65 338 C77.35551377 339.13319801 89.64585698 340.29537542 101.95629883 341.7611084 C105.16126383 342.13574205 108.36964039 342.47733656 111.578125 342.8203125 C122.57994941 344.00899056 133.47748962 345.39550463 144.34472656 347.49609375 C147.65046225 348.1234419 150.96182409 348.71696475 154.2734375 349.3125 C170.04701412 352.16688198 185.64157485 355.40596544 201.19482422 359.31054688 C203.85407156 359.96413386 206.51846375 360.57709292 209.19140625 361.171875 C223.69826126 364.41863398 237.81369934 368.76927158 251.95263672 373.3392334 C254.04557491 374.01470886 256.13987023 374.68584473 258.234375 375.35644531 C291.29917607 385.96689969 323.54457752 398.26621706 355 413 C356.18078125 413.55123535 357.3615625 414.1024707 358.578125 414.67041016 C386.22235311 427.63612158 413.04080562 441.90376264 439 458 C439.88284668 458.54672363 440.76569336 459.09344727 441.67529297 459.65673828 C454.09303978 467.37154356 466.36092237 475.30198341 478.3046875 483.734375 C479.21677979 484.37777832 480.12887207 485.02118164 481.06860352 485.68408203 C482.8745583 486.96153915 484.67723146 488.24365033 486.47631836 489.53076172 C487.29495361 490.11100098 488.11358887 490.69124023 488.95703125 491.2890625 C489.68897705 491.81193848 490.42092285 492.33481445 491.17504883 492.87353516 C492.92621303 494.17508431 492.92621303 494.17508431 495 494 C495 335.27 495 176.54 495 13 C335.94 13 176.88 13 13 13 Z " class="path"  transform="translate(78,87)"/>
<path d="M0 0 C13.38681183 9.84378114 21.26305251 23.73813682 24 40 C25.23252615 56.04180191 21.11524255 71.30996844 11 84 C5.4313414 90.4253753 -0.46092114 95.09306056 -8 99 C-8.74121094 99.39058594 -9.48242188 99.78117187 -10.24609375 100.18359375 C-22.44112426 106.11807384 -36.99878221 106.77425703 -49.9609375 103.09765625 C-60.22279024 99.39125443 -68.37545809 93.72175829 -76 86 C-76.57363281 85.44828125 -77.14726562 84.8965625 -77.73828125 84.328125 C-88.22010132 73.38586322 -91.42832076 57.35939758 -91.2734375 42.75390625 C-90.23448306 28.49054606 -83.44336381 14.77025638 -73 5 C-50.89063567 -13.48204674 -24.45630383 -14.76552928 0 0 Z " class="path"  transform="translate(488,176)"/>
<path d="M0 0 C6.27 0 12.54 0 19 0 C23.36247789 18.91145239 27.66074383 37.82843454 31.6796875 56.81640625 C32.51302689 60.74717233 33.36855856 64.67134836 34.2578125 68.58984375 C34.44827148 69.4295874 34.63873047 70.26933105 34.83496094 71.13452148 C35.18076887 72.64922901 35.53005477 74.1631493 35.88378906 75.67602539 C36.62396393 78.91768758 37 81.6451096 37 85 C31.39 85 25.78 85 20 85 C19.67 83.618125 19.34 82.23625 19 80.8125 C18.7215625 79.64654297 18.7215625 79.64654297 18.4375 78.45703125 C18 76 18 76 18 71 C12.06 71 6.12 71 0 71 C-0.66 75.62 -1.32 80.24 -2 85 C-7.61 85 -13.22 85 -19 85 C-18.43030332 77.06123974 -16.83752355 69.74786938 -14.8125 62.0625 C-12.32965991 52.40772213 -9.99593087 42.74077835 -7.875 33 C-5.46232557 21.93889 -2.80402187 10.96867378 0 0 Z " class="path"  transform="translate(154,622)"/>
<path d="M0 0 C11.88 0 23.76 0 36 0 C36 5.28 36 10.56 36 16 C29.4 16 22.8 16 16 16 C16 21.61 16 27.22 16 33 C21.94 33 27.88 33 34 33 C34 38.28 34 43.56 34 49 C28.06 49 22.12 49 16 49 C16 55.6 16 62.2 16 69 C22.6 69 29.2 69 36 69 C36 74.28 36 79.56 36 85 C24.12 85 12.24 85 0 85 C0 56.95 0 28.9 0 0 Z " class="path"  transform="translate(551,622)"/>
<path d="M0 0 C11.88 0 23.76 0 36 0 C36 5.28 36 10.56 36 16 C29.4 16 22.8 16 16 16 C16 21.61 16 27.22 16 33 C21.94 33 27.88 33 34 33 C34 38.28 34 43.56 34 49 C28.06 49 22.12 49 16 49 C16 55.6 16 62.2 16 69 C22.6 69 29.2 69 36 69 C36 74.28 36 79.56 36 85 C24.12 85 12.24 85 0 85 C0 56.95 0 28.9 0 0 Z " class="path"  transform="translate(269,622)"/>
<path d="M0 0 C0 4.95 0 9.9 0 15 C-1.155 14.67 -2.31 14.34 -3.5 14 C-8.24947624 12.82739397 -13.48502533 11.66391971 -18 14.0625 C-19.62551601 17.21193728 -19.40776157 19.50490081 -19 23 C-16.67188256 28.43227403 -13.59208518 31.49468362 -9.09375 35.24609375 C-7.05267622 36.95587384 -5.10425492 38.71478075 -3.1875 40.5625 C-2.64480469 41.07941406 -2.10210937 41.59632813 -1.54296875 42.12890625 C2.70840176 47.28436568 3.52791319 51.93572979 3.4375 58.375 C3.42920166 59.13014893 3.42090332 59.88529785 3.41235352 60.66333008 C3.20867323 67.35723548 2.00713296 71.77443124 -2.61328125 76.73046875 C-8.39928395 82.13159322 -14.17087854 83.34929098 -22 83.3125 C-23.02867188 83.33666992 -23.02867188 83.33666992 -24.078125 83.36132812 C-29.25626481 83.3662691 -31.0302552 82.4848724 -36 80 C-36 74.39 -36 68.78 -36 63 C-31 65 -31 65 -29 66 C-24.40460183 66.48836113 -20.37759852 66.85279908 -16.375 64.375 C-14.47847688 61.09918734 -14.20746157 59.74654529 -15 56 C-17.69799491 51.96188262 -21.27191222 48.6932216 -24.7734375 45.359375 C-32.32623393 38.15946553 -36.95155772 32.89484347 -37.46191406 22.07250977 C-37.60235949 14.19946296 -36.9114409 8.11535488 -31.3515625 2.265625 C-21.66182556 -6.62015997 -11.28647805 -5.23430866 0 0 Z " class="path"  transform="translate(115,625)"/>
<path d="M0 0 C14.52 0 29.04 0 44 0 C44 5.28 44 10.56 44 16 C39.71 16 35.42 16 31 16 C31 39.1 31 62.2 31 86 C25.06 86 19.12 86 13 86 C13 62.9 13 39.8 13 16 C8.71 16 4.42 16 0 16 C0 10.72 0 5.44 0 0 Z " class="path"  transform="translate(485,622)"/>
<path d="M0 0 C14.52 0 29.04 0 44 0 C44 5.28 44 10.56 44 16 C39.71 16 35.42 16 31 16 C31 39.1 31 62.2 31 86 C25.06 86 19.12 86 13 86 C13 62.9 13 39.8 13 16 C8.71 16 4.42 16 0 16 C0 10.72 0 5.44 0 0 Z " class="path"  transform="translate(203,622)"/>
<path d="M0 0 C5.61 0 11.22 0 17 0 C17 22.77 17 45.54 17 69 C23.27 69 29.54 69 36 69 C36 74.28 36 79.56 36 85 C24.12 85 12.24 85 0 85 C0 56.95 0 28.9 0 0 Z " class="path"  transform="translate(387,622)"/>
<path d="M0 0 C5.61 0 11.22 0 17 0 C17 22.77 17 45.54 17 69 C23.27 69 29.54 69 36 69 C36 74.28 36 79.56 36 85 C24.12 85 12.24 85 0 85 C0 56.95 0 28.9 0 0 Z " class="path"  transform="translate(330,622)"/>
<path d="M0 0 C5.94 0 11.88 0 18 0 C18 28.38 18 56.76 18 86 C12.06 86 6.12 86 0 86 C0 57.62 0 29.24 0 0 Z " class="path"  transform="translate(444,622)"/>
<path d="M0 0 C0.33 0 0.66 0 1 0 C1.57682702 3.98256105 2.14618681 7.96611513 2.70898438 11.95068359 C2.90100126 13.30285621 3.09497029 14.65475323 3.29101562 16.00634766 C4.31030119 23.04253834 5.2904876 29.8830538 5 37 C1.7 37 -1.6 37 -5 37 C-4.24920454 21.07523314 -4.24920454 21.07523314 -2.47265625 13.32421875 C-1.77333095 9.88538775 -1.51329046 6.42896292 -1.24609375 2.93359375 C-1 1 -1 1 0 0 Z " class="bg" transform="translate(163,642)"/>
</svg>
