<?xml version="1.0" encoding="utf-8"?>
<!-- Generator: Adobe Illustrator 22.0.1, SVG Export Plug-In . SVG Version: 6.00 Build 0)  -->
<svg version="1.1" id="Calque_1" xmlns="http://www.w3.org/2000/svg" xmlns:xlink="http://www.w3.org/1999/xlink" x="0px" y="0px"
	 viewBox="0 0 1700.8 473.2" enable-background="new 0 0 1700.8 473.2" xml:space="preserve">
<g>
	<g>
		<path fill="#E30513" d="M571,338.6c-16.4,0-30.2-5.7-41.5-17c-11.3-11.3-16.9-25.2-16.9-41.6c0-10.7,2.6-20.5,7.7-29.5
			c11-19.4,27.9-29.1,50.6-29.1h58.3v-28.9c0-8.2-2.8-15-8.4-20.6c-5.6-5.5-12.5-8.3-20.7-8.3H542c-9.9,0-14.8-4.9-14.8-14.7
			c0-9.8,4.9-14.7,14.8-14.7h58.3c16.3,0,30.1,5.6,41.4,16.9c11.3,11.3,16.9,25.1,16.9,41.5V324c0,9.7-4.9,14.6-14.6,14.6H571z
			 M629.2,250.9h-58.3c-8.1,0-15,2.8-20.6,8.5c-5.7,5.7-8.5,12.6-8.5,20.6c0,8,2.9,14.8,8.6,20.5c5.7,5.8,12.6,8.6,20.5,8.6h58.3
			V250.9z"/>
		<path fill="#E30513" d="M829.8,134.2c9.7,0,14.6,4.9,14.6,14.6V368c0,16.4-5.6,30.2-16.9,41.5c-11.3,11.3-25.1,16.9-41.4,16.9
			h-58.3c-9.9,0-14.8-4.9-14.8-14.7c0-9.8,4.9-14.7,14.8-14.7h58.1c8.1,0,14.9-2.8,20.6-8.5c5.6-5.7,8.5-12.6,8.5-20.7v-29.2h-58.3
			c-22.7,0-39.5-9.7-50.6-29c-5.2-9-7.7-18.8-7.7-29.4v-87.6c0-16.4,5.6-30.2,16.9-41.5c11.3-11.3,25.1-16.9,41.5-16.9H829.8z
			 M815,163.7h-58.3c-8.1,0-15,2.8-20.6,8.5c-5.7,5.7-8.5,12.5-8.5,20.6v87.3c0,7.9,2.9,14.8,8.6,20.5c5.7,5.7,12.6,8.6,20.5,8.6
			H815V163.7z"/>
		<path fill="#E30513" d="M913.6,250.9V280c0,8,2.9,14.8,8.6,20.5c5.7,5.8,12.6,8.6,20.5,8.6h72.9c9.7,0,14.6,4.9,14.6,14.7
			c0,9.8-4.9,14.7-14.6,14.7h-73c-16.4,0-30.2-5.6-41.5-16.9c-11.3-11.3-16.9-25.1-16.9-41.5v-73c0-20.2,7.1-37.4,21.4-51.6
			c14.2-14.2,31.5-21.3,51.7-21.3c20.5,0,37.8,7,51.9,21.1c14.1,14.1,21.1,31.3,21.1,51.8v43.7H913.6z M957.2,163.7
			c-12,0-22.3,4.2-30.8,12.7c-8.5,8.5-12.8,18.7-12.8,30.6v14.4h87.2V207c0-12-4.3-22.2-12.8-30.6
			C979.5,167.9,969.2,163.7,957.2,163.7z"/>
		<path fill="#E30513" d="M1069.9,148.8c0-9.7,4.9-14.6,14.6-14.6h73c16.4,0,30.2,5.6,41.5,16.9c11.3,11.3,16.9,25.1,16.9,41.5v87.6
			c0,16.2-5.6,30-16.9,41.4c-11.3,11.4-25.1,17-41.4,17h-58.3v73.1c0,9.7-4.9,14.6-14.7,14.6c-9.8,0-14.7-4.9-14.7-14.6V148.8z
			 M1099.3,163.7v145.5h58.1c8.1,0,14.9-2.8,20.6-8.5c5.6-5.7,8.5-12.5,8.5-20.6v-87.3c0-8.2-2.8-15.1-8.4-20.7
			c-5.6-5.6-12.5-8.4-20.7-8.4H1099.3z"/>
		<path fill="#E30513" d="M1255.7,265.6v-58.4c0-20.2,7.1-37.4,21.4-51.6c14.2-14.2,31.5-21.3,51.7-21.3c20.5,0,37.8,7,51.9,21.1
			c14.1,14.1,21.1,31.4,21.1,51.9v58.4c0,20.2-7.1,37.4-21.4,51.6c-14.2,14.2-31.5,21.3-51.7,21.3c-20.2,0-37.4-7.1-51.7-21.3
			C1262.8,303.1,1255.7,285.8,1255.7,265.6z M1372.3,265.5v-58.2c0-12-4.3-22.3-12.8-30.9c-8.5-8.5-18.8-12.8-30.8-12.8
			c-12,0-22.3,4.3-30.8,12.8c-8.5,8.5-12.8,18.8-12.8,30.9v58.2c0,12.2,4.2,22.5,12.7,31c8.4,8.5,18.7,12.7,30.9,12.7
			c12,0,22.3-4.3,30.8-12.8C1368.1,287.9,1372.3,277.6,1372.3,265.5z"/>
		<path fill="#E30513" d="M1441.5,61.1c0-9.7,4.9-14.6,14.7-14.6c9.8,0,14.7,4.9,14.7,14.6v233.7c0,7.5,4.8,12.4,14.5,14.6
			c9.6,2.2,14.5,7.1,14.5,14.6c0,9.7-4.9,14.6-14.6,14.6c-13.1,0-23.7-3.9-31.7-11.6c-8-7.7-12-18.5-12-32.2V61.1z"/>
		<path fill="#E30513" d="M1573,397l24.3-73.2l-56.5-170.3c-0.7-1.8-1.1-3.3-1.1-4.7c0-9.7,4.9-14.6,14.8-14.6
			c7.2,0,11.9,3.3,14.2,9.9l44.2,133l44.2-133c2.2-6.6,6.9-9.9,14-9.9c9.8,0,14.7,4.9,14.7,14.6c0,1.3-0.3,2.9-0.8,4.7l-87.4,262.7
			c-2.2,6.7-6.9,10.1-13.9,10.1h-29.4c-9.7,0-14.6-4.9-14.6-14.7c0-7.9,4-12.6,12.1-14.3C1553.1,397.1,1560.2,397,1573,397z"/>
	</g>
	<g>
		<g>
			<path fill="#1475A1" d="M291.6,208.7 M291.6,208.7c-18.1,18.1-40.2,27.1-66.2,27.1c-26,0-48.2-9-66.5-27.1l0,0
				c16.4-18.1,40-29.5,66.4-29.5C251.6,179.3,275.3,190.6,291.6,208.7"/>
			<path fill="#1475A1" d="M185.8,147.2c-12.9,19.6-27.7,32.1-44.5,37.5c-6.5-13-9.8-27.3-9.8-42.8c0-26,9.1-48.3,27.4-66.8
				C173.9,60,191.9,51,212.8,48.4C212.8,87.3,203.8,120.2,185.8,147.2z"/>
			<path fill="#1475A1" d="M237.8,48.4c20.8,2.7,38.8,11.6,53.9,26.8c18.2,18.6,27.4,40.9,27.4,66.8c0,15.5-3.3,29.7-9.8,42.8
				c-16.8-5.5-31.7-18-44.6-37.5C246.8,120.2,237.8,87.3,237.8,48.4z"/>
		</g>
		<g>
			<path fill="#5FA5C1" d="M243.9,356.1 M243.9,356.1c-6.6-24.7-3.5-48.4,9.5-70.9c13-22.6,31.9-37.3,56.7-44.1l0,0
				c7.5,23.2,5.6,49.4-7.6,72.2C289.4,336.1,267.7,351,243.9,356.1"/>
			<path fill="#5FA5C1" d="M350,295.1c-10.5-20.9-14-40-10.3-57.3c14.5,0.9,28.5,5.1,41.9,12.8c22.5,13,37.3,32,44.3,57
				c5.6,20.7,4.4,40.7-3.7,60.1C388.4,348.3,364.4,324.1,350,295.1z"/>
			<path fill="#5FA5C1" d="M409.7,389.5c-12.7,16.7-29.4,27.9-50.1,33.4c-25.2,6.5-49.1,3.3-71.6-9.6c-13.4-7.7-24.1-17.7-32.2-29.8
				c13.1-11.9,31.4-18.5,54.7-19.9C342.9,361.4,376,370,409.7,389.5z"/>
		</g>
		<g>
			<path fill="#B6D3DB" d="M139.9,241.1 M139.9,241.1c24.7,6.6,43.6,21.2,56.6,43.7c13.1,22.5,16.4,46.3,9.9,71.2v0
				c-23.9-5.1-45.6-19.9-58.8-42.6C134.5,290.5,132.5,264.3,139.9,241.1"/>
			<path fill="#B6D3DB" d="M139.8,363.5c23.4,1.3,41.6,7.9,54.8,19.7c-8,12.2-18.7,22.1-32.1,29.9c-22.5,13-46.3,16.3-71.5,9.8
				c-20.7-5.5-37.4-16.6-50.2-33.3C74.4,370.2,107.4,361.5,139.8,363.5z"/>
			<path fill="#B6D3DB" d="M28.2,368c-8.1-19.4-9.4-39.4-3.9-60.1c6.9-25.1,21.6-44.2,44.1-57.2c13.4-7.8,27.4-12.1,41.9-13
				c3.7,17.3,0.3,36.4-10.1,57.4C85.9,324.2,61.9,348.5,28.2,368z"/>
		</g>
	</g>
</g>
</svg>
