<svg width="128" height="30" viewBox="0 0 128 30" fill="none" xmlns="http://www.w3.org/2000/svg">
<defs>
<style>
.cls-1{
    fill:#eed4f1
}
</style>
</defs>
    <path d="M47.1363 16.1837H42.6912C42.0732 16.1837 41.5484 16.4002 41.1166 16.8326C40.6841 17.2651 40.4682 17.7899 40.4682 18.4072C40.4682 19.0137 40.6868 19.5359 41.1247 19.9737C41.5625 20.4122 42.0847 20.6308 42.6912 20.6308H47.1363V16.1837ZM42.6979 22.876C41.4485 22.876 40.394 22.4449 39.5332 21.5814C38.6723 20.7179 38.2419 19.6601 38.2419 18.4072C38.2419 17.595 38.4383 16.8441 38.8316 16.1561C39.6735 14.6779 40.9593 13.9385 42.6891 13.9385H47.1363V11.7365C47.1363 11.1138 46.9232 10.5908 46.4981 10.1684C46.0724 9.74613 45.5462 9.53428 44.9201 9.53428H40.4872C39.7323 9.53428 39.3551 9.16054 39.3551 8.41168C39.3551 7.6635 39.7323 7.28907 40.4872 7.28907H44.9343C46.1811 7.28907 47.2335 7.71947 48.0929 8.57967C48.9518 9.44056 49.3815 10.4943 49.3815 11.7425V21.7628C49.3815 22.505 49.0098 22.876 48.2677 22.876H42.6979Z" class="cls-1"/>
    <path d="M61.304 9.53427H56.8588C56.2409 9.53427 55.7161 9.75016 55.2843 10.1819C54.8519 10.6137 54.636 11.1374 54.636 11.754V18.4113C54.636 19.0172 54.8545 19.538 55.2924 19.9751C55.7302 20.4123 56.2523 20.6308 56.8588 20.6308H61.304V9.53427ZM62.4354 7.28914C63.1775 7.28914 63.5492 7.66082 63.5492 8.40298V25.1124C63.5492 26.3611 63.1194 27.4163 62.2606 28.2771C61.4012 29.138 60.3488 29.5684 59.1021 29.5684H54.6549C53.8999 29.5684 53.5228 29.194 53.5228 28.4458C53.5228 27.697 53.8999 27.3232 54.6549 27.3232H59.0879C59.7031 27.3232 60.2266 27.1067 60.6577 26.675C61.0881 26.2418 61.304 25.7169 61.304 25.0996V22.876H56.8568C55.1271 22.876 53.8413 22.1393 52.9993 20.6659C52.606 19.9804 52.4097 19.2323 52.4097 18.4228V11.7426C52.4097 10.4943 52.8401 9.44055 53.701 8.57966C54.5618 7.71954 55.6162 7.28914 56.8656 7.28914H62.4354Z" class="cls-1"/>
    <path d="M72.1474 9.53428C71.2292 9.53428 70.4453 9.85678 69.7963 10.5018C69.1473 11.1468 68.8228 11.9254 68.8228 12.8374V13.9385H75.472V12.8374C75.472 11.9254 75.1468 11.1468 74.4978 10.5018C73.8488 9.85678 73.0648 9.53428 72.1474 9.53428ZM68.8228 16.1837V18.4073C68.8228 19.0138 69.0414 19.5359 69.4799 19.9738C69.9178 20.4123 70.4398 20.6308 71.0464 20.6308H76.6054C77.3461 20.6308 77.7171 21.0053 77.7171 21.7534C77.7171 22.5023 77.3454 22.876 76.6034 22.876H71.0336C69.7842 22.876 68.7297 22.4463 67.8689 21.5854C67.008 20.7253 66.5776 19.6708 66.5776 18.4228V12.8557C66.5776 11.3155 67.12 10.0025 68.2061 8.91704C69.2924 7.83219 70.6059 7.28915 72.1474 7.28915C73.7112 7.28915 75.0308 7.82548 76.1054 8.89813C77.1794 9.97079 77.7171 11.2872 77.7171 12.8483V16.1837H68.8228Z" class="cls-1"/>
    <path d="M82.9907 9.53427V20.6308H87.4237C88.039 20.6308 88.5625 20.4156 88.9937 19.9839C89.424 19.5521 89.6399 19.0279 89.6399 18.4113V11.754C89.6399 11.1266 89.4267 10.5995 89.0017 10.1732C88.576 9.74749 88.0498 9.53427 87.4237 9.53427H82.9907ZM80.7456 8.40298C80.7456 7.66082 81.1166 7.28914 81.8594 7.28914H87.4292C88.6779 7.28914 89.733 7.71954 90.5939 8.57966C91.4547 9.44055 91.8852 10.4943 91.8852 11.7426V18.4228C91.8852 19.6601 91.4554 20.7111 90.5966 21.5774C89.7371 22.4436 88.6846 22.876 87.4379 22.876H82.9907V28.4532C82.9907 29.1967 82.6163 29.5684 81.8681 29.5684C81.1193 29.5684 80.7456 29.1967 80.7456 28.4545V8.40298Z" class="cls-1"/>
    <path d="M103.807 17.3021V12.8631C103.807 11.9443 103.482 11.1603 102.833 10.5099C102.184 9.85945 101.4 9.53428 100.483 9.53428C99.5646 9.53428 98.7807 9.85945 98.1317 10.5099C97.4827 11.1603 97.1583 11.9443 97.1583 12.8631V17.3021C97.1583 18.2325 97.48 19.0198 98.1237 19.6641C98.7672 20.309 99.5532 20.6308 100.483 20.6308C101.4 20.6308 102.184 20.3064 102.833 19.656C103.482 19.0057 103.807 18.2211 103.807 17.3021ZM94.9131 17.3096V12.8557C94.9131 11.3155 95.4555 10.0025 96.5417 8.91697C97.6278 7.83219 98.9413 7.28907 100.483 7.28907C102.047 7.28907 103.366 7.82608 104.441 8.90011C105.515 9.97414 106.053 11.2932 106.053 12.8557V17.3096C106.053 18.8505 105.509 20.1633 104.423 21.2481C103.337 22.3336 102.024 22.876 100.483 22.876C98.9413 22.876 97.6278 22.3336 96.5417 21.2481C95.4555 20.1633 94.9131 18.8505 94.9131 17.3096Z" class="cls-1"/>
    <path d="M109.081 1.71059C109.081 0.968517 109.455 0.596758 110.204 0.596758C110.952 0.596758 111.326 0.968517 111.326 1.71059V19.5339C111.326 20.108 111.694 20.4797 112.43 20.6484C113.165 20.8171 113.534 21.1888 113.534 21.7621C113.534 22.505 113.163 22.876 112.421 22.876C111.419 22.876 110.612 22.5812 110 21.9902C109.387 21.3992 109.081 20.5809 109.081 19.5339V1.71059Z" class="cls-1"/>
    <path d="M119.111 27.3267L120.967 21.746L116.654 8.75918C116.598 8.62428 116.57 8.50554 116.57 8.40435C116.57 7.6609 116.947 7.28914 117.702 7.28914C118.251 7.28914 118.611 7.54079 118.783 8.0441L122.15 18.1854L125.522 8.0441C125.692 7.54079 126.048 7.28914 126.59 7.28914C127.337 7.28914 127.71 7.6609 127.71 8.40435C127.71 8.50554 127.69 8.62428 127.651 8.75918L120.99 28.796C120.821 29.3108 120.467 29.5684 119.927 29.5684H117.683C116.941 29.5684 116.57 29.1947 116.57 28.4471C116.57 27.8467 116.878 27.4844 117.496 27.3604C117.597 27.3374 118.135 27.3267 119.111 27.3267Z" class="cls-1"/>
    <path d="M21.396 12.9679C20.0123 14.3475 18.3305 15.0366 16.3504 15.0366C14.3644 15.0366 12.6723 14.3475 11.2759 12.9679L11.2765 12.9685C12.5249 11.5889 14.3296 10.722 16.3366 10.722C18.3429 10.722 20.147 11.5882 21.3953 12.9665" class="cls-1"/>
    <path d="M13.3231 8.27772C12.3429 9.76865 11.2101 10.7219 9.92629 11.1382C9.42977 10.1448 9.18018 9.05762 9.18018 7.87698C9.18086 5.89623 9.87642 4.19719 11.2668 2.78046C12.4204 1.62582 13.7913 0.945136 15.3807 0.74C15.3814 3.70944 14.6953 6.22209 13.3231 8.27772Z" class="cls-1"/>
    <path d="M17.2913 0.74C18.88 0.945441 20.2515 1.62582 21.4051 2.78007C22.7955 4.19681 23.4911 5.89623 23.4911 7.87698C23.4911 9.05754 23.2422 10.1444 22.7457 11.1382C21.4618 10.7216 20.3291 9.76827 19.3482 8.27772C17.9767 6.22209 17.2899 3.70906 17.2913 0.74Z" class="cls-1"/>
    <path d="M17.7536 24.2119C17.248 22.3247 17.4892 20.5231 18.4765 18.8068C19.4672 17.0855 20.9085 15.9625 22.8005 15.44L22.7999 15.4404C23.3729 17.2106 23.2242 19.2072 22.2234 20.9467C21.2226 22.6856 19.5724 23.8173 17.755 24.2119" class="cls-1"/>
    <path d="M25.8446 19.5542C25.0408 17.961 24.7798 16.5038 25.0593 15.1833C26.1677 15.2483 27.2344 15.5742 28.2581 16.1631C29.9743 17.1514 31.1003 18.6016 31.6347 20.5131C32.0603 22.0891 31.9665 23.6168 31.3517 25.0967C28.7775 23.6165 26.9419 21.7687 25.8446 19.5542Z" class="cls-1"/>
    <path d="M30.3989 26.7526C29.4287 28.0274 28.155 28.8767 26.5791 29.3007C24.6577 29.7996 22.8376 29.5548 21.1209 28.5671C20.0978 27.9784 19.2799 27.2206 18.666 26.2946C19.6674 25.3896 21.0586 24.8832 22.8396 24.7763C25.3054 24.6127 27.8261 25.2705 30.3989 26.7526Z" class="cls-1"/>
    <path d="M9.82682 15.4372C11.7141 15.9432 13.1538 17.0529 14.1465 18.7662C15.1419 20.4848 15.3936 22.2946 14.9 24.1943V24.1933C13.0805 23.8047 11.4257 22.6774 10.4198 20.9409C9.41426 19.2047 9.25945 17.2098 9.82613 15.4386" class="cls-1"/>
    <path d="M9.81536 24.7735C11.5968 24.874 12.9892 25.3766 13.993 26.2789C13.3825 27.2065 12.5669 27.9672 11.5451 28.5592C9.83092 29.5516 8.01207 29.8012 6.08936 29.3084C4.51172 28.8888 3.23568 28.0438 2.26147 26.7714C4.83048 25.2822 7.34854 24.6166 9.81536 24.7735Z" class="cls-1"/>
    <path d="M1.30395 25.1177C0.685338 23.6402 0.586507 22.1125 1.00715 20.5355C1.536 18.6223 2.65792 17.1685 4.37184 16.1757C5.39325 15.584 6.45851 15.2545 7.56761 15.186C7.85061 16.5059 7.59324 17.9638 6.79549 19.5596C5.70431 21.7769 3.87402 23.6308 1.30395 25.1177Z" class="cls-1"/>
</svg>
