<?xml version="1.0" encoding="UTF-8" standalone="no"?>
<!-- Created with Inkscape (http://www.inkscape.org/) -->

<svg
   version="1.1"
   id="svg1"
   width="2267.72"
   height="630.86932"
   viewBox="0 0 2267.72 630.86932"
   sodipodi:docname="AGEPoly-Horizontal-Logo.ai"
   xmlns:inkscape="http://www.inkscape.org/namespaces/inkscape"
   xmlns:sodipodi="http://sodipodi.sourceforge.net/DTD/sodipodi-0.dtd"
   xmlns="http://www.w3.org/2000/svg"
   xmlns:svg="http://www.w3.org/2000/svg">
  <defs
     id="defs1">
    <clipPath
       clipPathUnits="userSpaceOnUse"
       id="clipPath2">
      <path
         d="M 0,473.152 H 1700.787 V 0 H 0 Z"
         transform="translate(-629.17792,-222.27941)"
         id="path2" />
    </clipPath>
    <clipPath
       clipPathUnits="userSpaceOnUse"
       id="clipPath4">
      <path
         d="M 0,473.152 H 1700.787 V 0 H 0 Z"
         transform="translate(-814.9639,-309.47411)"
         id="path4" />
    </clipPath>
    <clipPath
       clipPathUnits="userSpaceOnUse"
       id="clipPath6">
      <path
         d="M 0,473.152 H 1700.787 V 0 H 0 Z"
         transform="translate(-957.15385,-309.47411)"
         id="path6" />
    </clipPath>
    <clipPath
       clipPathUnits="userSpaceOnUse"
       id="clipPath8">
      <path
         d="M 0,473.152 H 1700.787 V 0 H 0 Z"
         transform="translate(-1099.3459,-309.47411)"
         id="path8" />
    </clipPath>
    <clipPath
       clipPathUnits="userSpaceOnUse"
       id="clipPath10">
      <path
         d="M 0,473.152 H 1700.787 V 0 H 0 Z"
         transform="translate(-1372.3221,-207.61151)"
         id="path10" />
    </clipPath>
    <clipPath
       clipPathUnits="userSpaceOnUse"
       id="clipPath12">
      <path
         d="M 0,473.152 H 1700.787 V 0 H 0 Z"
         transform="translate(-1441.4758,-412.06811)"
         id="path12" />
    </clipPath>
    <clipPath
       clipPathUnits="userSpaceOnUse"
       id="clipPath14">
      <path
         d="M 0,473.152 H 1700.787 V 0 H 0 Z"
         transform="translate(-1573.008,-76.159302)"
         id="path14" />
    </clipPath>
    <clipPath
       clipPathUnits="userSpaceOnUse"
       id="clipPath16">
      <path
         d="M 0,473.152 H 1700.787 V 0 H 0 Z"
         transform="translate(-291.6367,-264.4511)"
         id="path16" />
    </clipPath>
    <clipPath
       clipPathUnits="userSpaceOnUse"
       id="clipPath18">
      <path
         d="M 0,473.152 H 1700.787 V 0 H 0 Z"
         transform="translate(-185.7778,-325.95281)"
         id="path18" />
    </clipPath>
    <clipPath
       clipPathUnits="userSpaceOnUse"
       id="clipPath20">
      <path
         d="M 0,473.152 H 1700.787 V 0 H 0 Z"
         transform="translate(-237.81381,-424.79641)"
         id="path20" />
    </clipPath>
    <clipPath
       clipPathUnits="userSpaceOnUse"
       id="clipPath22">
      <path
         d="M 0,473.152 H 1700.787 V 0 H 0 Z"
         transform="translate(-243.87381,-117.0043)"
         id="path22" />
    </clipPath>
    <clipPath
       clipPathUnits="userSpaceOnUse"
       id="clipPath24">
      <path
         d="M 0,473.152 H 1700.787 V 0 H 0 Z"
         transform="translate(-349.97591,-178.08571)"
         id="path24" />
    </clipPath>
    <clipPath
       clipPathUnits="userSpaceOnUse"
       id="clipPath26">
      <path
         d="M 0,473.152 H 1700.787 V 0 H 0 Z"
         transform="translate(-409.69521,-83.687705)"
         id="path26" />
    </clipPath>
    <clipPath
       clipPathUnits="userSpaceOnUse"
       id="clipPath28">
      <path
         d="M 0,473.152 H 1700.787 V 0 H 0 Z"
         transform="translate(-139.9299,-232.06801)"
         id="path28" />
    </clipPath>
    <clipPath
       clipPathUnits="userSpaceOnUse"
       id="clipPath30">
      <path
         d="M 0,473.152 H 1700.787 V 0 H 0 Z"
         transform="translate(-139.7796,-109.6394)"
         id="path30" />
    </clipPath>
    <clipPath
       clipPathUnits="userSpaceOnUse"
       id="clipPath32">
      <path
         d="M 0,473.152 H 1700.787 V 0 H 0 Z"
         transform="translate(-28.166001,-105.12301)"
         id="path32" />
    </clipPath>
  </defs>
  <sodipodi:namedview
     id="namedview1"
     pagecolor="#ffffff"
     bordercolor="#000000"
     borderopacity="0.25"
     inkscape:showpageshadow="2"
     inkscape:pageopacity="0.0"
     inkscape:pagecheckerboard="0"
     inkscape:deskcolor="#d1d1d1">
    <inkscape:page
       x="0"
       y="0"
       inkscape:label="1"
       id="page1"
       width="2267.72"
       height="630.86932"
       margin="62.349468 20.040001 61.970665 27.8988"
       bleed="0" />
  </sodipodi:namedview>
  <g
     id="layer-MC0"
     inkscape:groupmode="layer"
     inkscape:label="Calque 1">
    <path
       id="path1"
       d="m 0,0 h -58.29 c -8.104,0 -14.986,-2.84 -20.648,-8.51 -5.671,-5.671 -8.502,-12.554 -8.502,-20.649 0,-7.953 2.866,-14.8 8.608,-20.542 5.741,-5.75 12.588,-8.616 20.542,-8.616 H 0 Z m -58.202,-87.759 c -16.384,0 -30.211,5.653 -41.5,16.977 -11.288,11.324 -16.932,25.195 -16.932,41.623 0,10.652 2.574,20.498 7.732,29.521 11.04,19.383 27.902,29.08 50.585,29.08 H 0 v 28.875 c 0,8.165 -2.796,15.024 -8.369,20.562 -5.582,5.538 -12.483,8.316 -20.692,8.316 h -58.131 c -9.9,0 -14.845,4.901 -14.845,14.72 0,9.811 4.945,14.721 14.845,14.721 h 58.317 c 16.348,0 30.149,-5.644 41.419,-16.924 C 23.806,88.424 29.442,74.606 29.442,58.237 V -73.162 c 0,-9.731 -4.875,-14.597 -14.606,-14.597 z"
       style="fill:#e30513;fill-opacity:1;fill-rule:nonzero;stroke:none"
       transform="matrix(1.3333333,0,0,-1.3333333,838.90387,334.4968)"
       clip-path="url(#clipPath2)" />
    <path
       id="path3"
       d="m 0,0 h -58.291 c -8.103,0 -14.985,-2.831 -20.647,-8.493 -5.671,-5.662 -8.502,-12.529 -8.502,-20.615 v -87.299 c 0,-7.944 2.866,-14.773 8.608,-20.506 5.741,-5.732 12.588,-8.599 20.541,-8.599 H 0 Z m 14.836,29.442 c 9.731,0 14.606,-4.875 14.606,-14.607 V -204.28 c 0,-16.375 -5.636,-30.212 -16.898,-41.5 -11.27,-11.288 -25.071,-16.932 -41.419,-16.932 h -58.317 c -9.9,0 -14.845,4.91 -14.845,14.721 0,9.819 4.945,14.721 14.845,14.721 h 58.131 c 8.068,0 14.933,2.839 20.586,8.501 5.644,5.68 8.475,12.563 8.475,20.657 v 29.159 h -58.317 c -22.683,0 -39.545,9.66 -50.585,28.981 -5.158,8.988 -7.732,18.799 -7.732,29.415 v 87.6 c 0,16.368 5.644,30.186 16.933,41.475 11.288,11.279 25.115,16.924 41.499,16.924 z"
       style="fill:#e30513;fill-opacity:1;fill-rule:nonzero;stroke:none"
       transform="matrix(1.3333333,0,0,-1.3333333,1086.6185,218.2372)"
       clip-path="url(#clipPath4)" />
    <path
       id="path5"
       d="m 0,0 c -12.04,0 -22.32,-4.229 -30.831,-12.686 -8.51,-8.46 -12.765,-18.669 -12.765,-30.629 v -14.438 h 87.192 v 14.438 c 0,11.96 -4.264,22.169 -12.774,30.629 C 22.311,-4.229 12.031,0 0,0 m -43.596,-87.195 v -29.158 c 0,-7.954 2.866,-14.801 8.616,-20.542 5.742,-5.75 12.589,-8.617 20.542,-8.617 h 72.896 c 9.714,0 14.58,-4.91 14.58,-14.721 0,-9.819 -4.875,-14.72 -14.606,-14.72 h -73.038 c -16.384,0 -30.211,5.635 -41.499,16.923 -11.289,11.279 -16.933,25.107 -16.933,41.473 v 73.002 c 0,20.197 7.113,37.415 21.356,51.65 14.243,14.225 31.467,21.347 51.682,21.347 20.506,0 37.81,-7.034 51.903,-21.1 14.084,-14.066 21.135,-31.328 21.135,-51.799 v -43.738 z"
       style="fill:#e30513;fill-opacity:1;fill-rule:nonzero;stroke:none"
       transform="matrix(1.3333333,0,0,-1.3333333,1276.2051,218.2372)"
       clip-path="url(#clipPath6)" />
    <path
       id="path7"
       d="m 0,0 v -145.512 h 58.131 c 8.068,0 14.933,2.822 20.586,8.484 5.644,5.662 8.475,12.536 8.475,20.621 v 87.299 c 0,8.228 -2.795,15.139 -8.369,20.73 C 73.241,-2.796 66.34,0 58.131,0 Z m -29.442,14.835 c 0,9.732 4.866,14.607 14.606,14.607 h 73.038 c 16.375,0 30.211,-5.645 41.499,-16.924 11.289,-11.289 16.933,-25.107 16.933,-41.475 v -87.6 c 0,-16.225 -5.636,-30.008 -16.897,-41.367 -11.271,-11.359 -25.072,-17.029 -41.42,-17.029 H 0 v -73.136 c 0,-9.749 -4.91,-14.623 -14.721,-14.623 -9.82,0 -14.721,4.874 -14.721,14.606 z"
       style="fill:#e30513;fill-opacity:1;fill-rule:nonzero;stroke:none"
       transform="matrix(1.3333333,0,0,-1.3333333,1465.7945,218.2372)"
       clip-path="url(#clipPath8)" />
    <path
       id="path9"
       d="M 0,0 V 58.211 C 0,70.26 -4.264,80.54 -12.775,89.07 c -8.51,8.528 -18.79,12.793 -30.821,12.793 -12.04,0 -22.321,-4.265 -30.831,-12.793 -8.511,-8.53 -12.765,-18.81 -12.765,-30.859 V 0 c 0,-12.2 4.219,-22.524 12.659,-30.972 8.44,-8.458 18.746,-12.677 30.937,-12.677 12.031,0 22.311,4.255 30.821,12.783 C -4.264,-22.338 0,-12.049 0,0 m -116.634,-0.097 v 58.405 c 0,20.197 7.113,37.415 21.356,51.649 14.243,14.226 31.467,21.347 51.682,21.347 20.506,0 37.81,-7.042 51.903,-21.126 C 22.391,96.094 29.442,78.797 29.442,58.308 V -0.097 c 0,-20.206 -7.122,-37.421 -21.365,-51.647 -14.243,-14.234 -31.468,-21.347 -51.673,-21.347 -20.215,0 -37.439,7.113 -51.682,21.347 -14.243,14.226 -21.356,31.441 -21.356,51.647"
       style="fill:#e30513;fill-opacity:1;fill-rule:nonzero;stroke:none"
       transform="matrix(1.3333333,0,0,-1.3333333,1829.7627,354.054)"
       clip-path="url(#clipPath10)" />
    <path
       id="path11"
       d="M 0,0 C 0,9.732 4.901,14.606 14.721,14.606 24.532,14.606 29.442,9.732 29.442,0 v -233.721 c 0,-7.529 4.821,-12.403 14.473,-14.615 9.643,-2.212 14.473,-7.086 14.473,-14.606 0,-9.74 -4.866,-14.605 -14.597,-14.605 -13.128,0 -23.709,3.866 -31.742,11.615 C 4.017,-258.182 0,-247.451 0,-233.721 Z"
       style="fill:#e30513;fill-opacity:1;fill-rule:nonzero;stroke:none"
       transform="matrix(1.3333333,0,0,-1.3333333,1921.9677,81.4452)"
       clip-path="url(#clipPath12)" />
    <path
       id="path13"
       d="M 0,0 24.328,73.18 -32.22,243.479 c -0.742,1.77 -1.105,3.327 -1.105,4.653 0,9.75 4.945,14.624 14.844,14.624 7.202,0 11.925,-3.3 14.172,-9.899 L 39.845,119.872 84.069,252.857 c 2.221,6.599 6.892,9.899 14.005,9.899 9.784,0 14.676,-4.874 14.676,-14.624 0,-1.326 -0.256,-2.883 -0.769,-4.653 L 24.629,-19.268 c -2.212,-6.75 -6.856,-10.129 -13.934,-10.129 h -29.424 c -9.731,0 -14.596,4.901 -14.596,14.703 0,7.873 4.043,12.624 12.137,14.251 C -19.861,-0.141 -12.801,0 0,0"
       style="fill:#e30513;fill-opacity:1;fill-rule:nonzero;stroke:none"
       transform="matrix(1.3333333,0,0,-1.3333333,2097.3439,529.3236)"
       clip-path="url(#clipPath14)" />
    <path
       id="path15"
       d="m 0,0 c -18.145,-18.091 -40.199,-27.128 -66.164,-27.128 -26.044,0 -48.232,9.037 -66.544,27.128 l 0.008,-0.009 c 16.371,18.092 40.036,29.46 66.354,29.46 26.31,0 49.967,-11.359 66.337,-29.433"
       style="fill:#1475a1;fill-opacity:1;fill-rule:nonzero;stroke:none"
       transform="matrix(1.3333333,0,0,-1.3333333,388.84893,278.26787)"
       clip-path="url(#clipPath16)" />
    <path
       id="path17"
       d="m 0,0 c -12.854,-19.551 -27.708,-32.051 -44.543,-37.509 -6.511,13.026 -9.784,27.282 -9.784,42.764 0.009,25.974 9.13,48.254 27.362,66.832 C -11.837,87.228 6.14,96.155 26.982,98.844 26.991,59.905 17.994,26.956 0,0"
       style="fill:#1475a1;fill-opacity:1;fill-rule:nonzero;stroke:none"
       transform="matrix(1.3333333,0,0,-1.3333333,247.70373,196.2656)"
       clip-path="url(#clipPath18)" />
    <path
       id="path19"
       d="M 0,0 C 20.834,-2.694 38.819,-11.615 53.947,-26.752 72.179,-45.33 81.3,-67.615 81.3,-93.589 c 0,-15.481 -3.264,-29.733 -9.775,-42.764 -16.835,5.462 -31.689,17.963 -44.552,37.509 C 8.988,-71.888 -0.018,-38.934 0,0"
       style="fill:#1475a1;fill-opacity:1;fill-rule:nonzero;stroke:none"
       transform="matrix(1.3333333,0,0,-1.3333333,317.08507,64.474133)"
       clip-path="url(#clipPath20)" />
    <path
       id="path21"
       d="m 0,0 c -6.631,24.748 -3.468,48.373 9.479,70.879 12.991,22.572 31.892,37.298 56.703,44.149 l -0.009,-0.004 C 73.688,91.81 71.737,65.628 58.613,42.818 45.49,20.015 23.85,5.175 0.018,0"
       style="fill:#5fa5c1;fill-opacity:1;fill-rule:nonzero;stroke:none"
       transform="matrix(1.3333333,0,0,-1.3333333,325.16507,474.8636)"
       clip-path="url(#clipPath22)" />
    <path
       id="path23"
       d="M 0,0 C -10.541,20.891 -13.964,40 -10.298,57.317 4.237,56.464 18.224,52.191 31.649,44.468 54.154,31.507 68.92,12.491 75.926,-12.575 81.508,-33.241 80.279,-53.274 72.215,-72.68 38.461,-53.27 14.389,-29.039 0,0"
       style="fill:#5fa5c1;fill-opacity:1;fill-rule:nonzero;stroke:none"
       transform="matrix(1.3333333,0,0,-1.3333333,466.63453,393.42173)"
       clip-path="url(#clipPath24)" />
    <path
       id="path25"
       d="m 0,0 c -12.721,-16.716 -29.424,-27.854 -50.09,-33.414 -25.195,-6.542 -49.063,-3.33 -71.574,9.621 -13.415,7.719 -24.142,17.658 -32.192,29.8 13.132,11.868 31.374,18.507 54.729,19.909 C -66.792,28.061 -33.737,19.436 0,0"
       style="fill:#5fa5c1;fill-opacity:1;fill-rule:nonzero;stroke:none"
       transform="matrix(1.3333333,0,0,-1.3333333,546.26027,519.28573)"
       clip-path="url(#clipPath26)" />
    <path
       id="path27"
       d="m 0,0 c 24.749,-6.635 43.628,-21.187 56.645,-43.654 13.053,-22.537 16.354,-46.267 9.882,-71.18 v 0.014 C 42.668,-109.725 20.966,-94.942 7.776,-72.171 -5.41,-49.404 -7.44,-23.244 -0.009,-0.018"
       style="fill:#b6d3db;fill-opacity:1;fill-rule:nonzero;stroke:none"
       transform="matrix(1.3333333,0,0,-1.3333333,186.5732,321.44533)"
       clip-path="url(#clipPath28)" />
    <path
       id="path29"
       d="M 0,0 C 23.36,-1.318 41.619,-7.909 54.783,-19.741 46.777,-31.905 36.081,-41.88 22.683,-49.643 0.204,-62.656 -23.647,-65.93 -48.86,-59.467 -69.548,-53.965 -86.281,-42.884 -99.056,-26.199 -65.368,-6.671 -32.348,2.057 0,0"
       style="fill:#b6d3db;fill-opacity:1;fill-rule:nonzero;stroke:none"
       transform="matrix(1.3333333,0,0,-1.3333333,186.3728,484.68347)"
       clip-path="url(#clipPath30)" />
    <path
       id="path31"
       d="m 0,0 c -8.112,19.374 -9.408,39.407 -3.892,60.087 6.935,25.088 21.648,44.153 44.122,57.171 13.394,7.758 27.363,12.08 41.907,12.978 C 85.848,112.928 82.473,93.81 72.012,72.883 57.702,43.809 33.702,19.498 0,0"
       style="fill:#b6d3db;fill-opacity:1;fill-rule:nonzero;stroke:none"
       transform="matrix(1.3333333,0,0,-1.3333333,37.554667,490.70533)"
       clip-path="url(#clipPath32)" />
  </g>
</svg>
