<svg width="88" height="76" viewBox="0 0 88 76" fill="none" xmlns="http://www.w3.org/2000/svg">
<defs>
<style>
.cls-1{
    fill:#eed4f1
}
</style>
</defs>
<path fill-rule="evenodd" clip-rule="evenodd" d="M2.87512 75.787L87.3904 72.5593L84.6246 0.115723L0.106689 3.34342L2.87512 75.787ZM4.97194 71.1861H82.5213V4.71555H4.97194V71.1861Z" class="cls-1"/>
<path d="M14.4374 28.8575C14.4374 29.9505 14.7248 30.5509 15.8358 30.5509C16.9313 30.5509 17.2264 29.9197 17.2264 28.8241V25.3373H18.2681V28.7831C18.2681 30.6663 17.5728 31.4053 15.8358 31.4053C14.127 31.4053 13.3958 30.7407 13.3958 28.8164V25.3373H14.4374V28.8575Z" class="cls-1"/>
<path d="M21.6211 26.778C22.6884 26.778 23.1246 27.4682 23.1246 28.5201V31.2988H22.147V28.7588C22.147 28.1584 22.0572 27.5759 21.308 27.5759C20.5614 27.5759 20.2817 28.1507 20.2817 28.9486V31.2988H19.3042V26.8755H20.2817V27.4938C20.5358 27.032 21.0053 26.778 21.6211 26.778Z" class="cls-1"/>
<path d="M27.1507 28.6522C27.1251 27.9621 26.5991 27.5413 26.0244 27.5413C25.5625 27.5413 24.9314 27.8132 24.8493 28.6522H27.1507ZM26.0475 30.5919C26.5606 30.5919 26.9609 30.3867 27.1328 29.9762H28.0949C27.8897 30.6843 27.2328 31.4053 26.0885 31.4053C24.6671 31.4053 23.8538 30.32 23.8538 29.0551C23.8538 27.7234 24.7646 26.7793 26.0244 26.7793C27.3816 26.7793 28.2283 27.88 28.1462 29.3681H24.8493C24.9134 30.1891 25.4907 30.5919 26.0475 30.5919Z" class="cls-1"/>
<path d="M31.621 30.0578C31.621 30.4452 31.9417 30.6736 32.4318 30.6736C33.1579 30.6736 33.5864 30.3041 33.5864 29.5575V29.2188C32.1881 29.3522 31.621 29.5472 31.621 30.0578ZM33.5607 28.5363V28.4542C33.5607 27.6999 33.1246 27.4689 32.6371 27.4689C32.147 27.4689 31.7775 27.7307 31.7519 28.2643H30.7897C30.8539 27.3612 31.6031 26.7428 32.673 26.7428C33.7326 26.7428 34.5614 27.2303 34.5383 28.6441C34.5383 28.8673 34.5229 29.383 34.5229 29.7858C34.5229 30.3451 34.5716 30.9301 34.6537 31.2996H33.7583C33.7249 31.1097 33.6916 31.0045 33.6762 30.6992C33.394 31.1764 32.868 31.4048 32.2188 31.4048C31.2567 31.4048 30.5845 30.8891 30.5845 30.0834C30.5845 28.9802 31.9417 28.7005 33.5607 28.5363Z" class="cls-1"/>
<path d="M37.0829 27.5259C36.6544 27.5259 36.2619 27.7157 36.2619 28.0108C36.2619 28.3059 36.4748 28.4624 36.852 28.5368L37.4755 28.6599C38.3735 28.8318 39.0559 29.1115 39.0559 29.9762C39.0559 30.8947 38.1836 31.4053 37.1804 31.4053C36.0951 31.4053 35.3716 30.7895 35.2664 29.9505H36.2182C36.308 30.4046 36.639 30.6663 37.2138 30.6663C37.7243 30.6663 38.1015 30.4534 38.1015 30.0916C38.1015 29.7298 37.7731 29.5631 37.3369 29.4835L36.6724 29.3501C35.9232 29.2039 35.3382 28.8652 35.3382 28.0596C35.3382 27.2796 36.1772 26.7767 37.1393 26.7767C38.0014 26.7767 38.7917 27.1975 38.9713 28.0852H38.0527C37.945 27.6824 37.5755 27.5259 37.0829 27.5259Z" class="cls-1"/>
<path d="M41.41 27.5259C40.9841 27.5259 40.589 27.7157 40.589 28.0108C40.589 28.3059 40.802 28.4624 41.1791 28.5368L41.8052 28.6599C42.7006 28.8318 43.3857 29.1115 43.3857 29.9762C43.3857 30.8947 42.5133 31.4053 41.5101 31.4053C40.4248 31.4053 39.7013 30.7895 39.5935 29.9505H40.548C40.6378 30.4046 40.9662 30.6663 41.5435 30.6663C42.0515 30.6663 42.4286 30.4534 42.4286 30.0916C42.4286 29.7298 42.1028 29.5631 41.6666 29.4835L40.9995 29.3501C40.2529 29.2039 39.6679 28.8652 39.6679 28.0596C39.6679 27.2796 40.5043 26.7767 41.4665 26.7767C42.3311 26.7767 43.1214 27.1975 43.301 28.0852H42.3799C42.2747 27.6824 41.9027 27.5259 41.41 27.5259Z" class="cls-1"/>
<path d="M47.2759 29.0956C47.2759 28.077 46.7268 27.5741 46.1111 27.5741C45.4927 27.5741 44.9436 28.077 44.9436 29.0956C44.9436 30.1142 45.4927 30.6094 46.1111 30.6094C46.7268 30.6094 47.2759 30.1142 47.2759 29.0956ZM46.1111 31.4048C45.0334 31.4048 43.9302 30.6915 43.9302 29.0956C43.9302 27.4997 45.0334 26.7788 46.1111 26.7788C47.1861 26.7788 48.2894 27.4997 48.2894 29.0956C48.2894 30.6915 47.1861 31.4048 46.1111 31.4048Z" class="cls-1"/>
<path d="M52.0413 28.3894C51.9592 27.9199 51.5486 27.5915 51.0124 27.5915C50.4043 27.5915 49.8527 28.0431 49.8527 29.0873C49.8527 30.1418 50.412 30.5934 50.9893 30.5934C51.464 30.5934 51.9515 30.3779 52.0746 29.7852H53.0265C52.8315 30.8218 51.9155 31.4067 50.9714 31.4067C49.6885 31.4067 48.8418 30.4112 48.8418 29.095C48.8418 27.7814 49.6962 26.7782 51.0124 26.7782C51.9746 26.7782 52.8315 27.4016 52.9932 28.3894H52.0413Z" class="cls-1"/>
<path d="M54.768 31.2988H53.7878V26.8755H54.768V31.2988ZM54.768 26.3264H53.7878V25.3386H54.768V26.3264Z" class="cls-1"/>
<path d="M56.644 30.0578C56.644 30.4452 56.9647 30.6736 57.4548 30.6736C58.1809 30.6736 58.6093 30.3041 58.6093 29.5575V29.2188C57.211 29.3522 56.644 29.5472 56.644 30.0578ZM58.5837 28.5363V28.4542C58.5837 27.6999 58.1475 27.4689 57.66 27.4689C57.17 27.4689 56.8005 27.7307 56.7748 28.2643H55.8127C55.8768 27.3612 56.626 26.7428 57.6959 26.7428C58.7556 26.7428 59.5843 27.2303 59.5612 28.6441C59.5612 28.8673 59.5458 29.383 59.5458 29.7858C59.5458 30.3451 59.5946 30.9301 59.6767 31.2996H58.7812C58.7479 31.1097 58.7145 31.0045 58.6991 30.6992C58.4169 31.1764 57.8909 31.4048 57.2418 31.4048C56.2796 31.4048 55.6074 30.8891 55.6074 30.0834C55.6074 28.9802 56.9647 28.7005 58.5837 28.5363Z" class="cls-1"/>
<path d="M61.6704 25.7091V26.8765H62.5581V27.5821H61.6704V29.9913C61.6704 30.4454 61.7781 30.5506 62.1964 30.5506H62.5504V31.2998H61.8269C60.8801 31.2998 60.6903 31.0458 60.6903 30.1401V27.5821H60.0334V26.8765H60.6903V25.7091H61.6704Z" class="cls-1"/>
<path d="M64.3278 31.2988H63.3477V26.8755H64.3278V31.2988ZM64.3278 26.3264H63.3477V25.3386H64.3278V26.3264Z" class="cls-1"/>
<path d="M68.481 29.0956C68.481 28.077 67.9319 27.5741 67.3161 27.5741C66.6978 27.5741 66.1487 28.077 66.1487 29.0956C66.1487 30.1142 66.6978 30.6094 67.3161 30.6094C67.9319 30.6094 68.481 30.1142 68.481 29.0956ZM67.3161 31.4048C66.2385 31.4048 65.1353 30.6915 65.1353 29.0956C65.1353 27.4997 66.2385 26.7788 67.3161 26.7788C68.3912 26.7788 69.4944 27.4997 69.4944 29.0956C69.4944 30.6915 68.3912 31.4048 67.3161 31.4048Z" class="cls-1"/>
<path d="M72.6201 26.778C73.69 26.778 74.1262 27.4682 74.1262 28.5201V31.2988H73.1461V28.7588C73.1461 28.1584 73.0563 27.5759 72.3096 27.5759C71.5604 27.5759 71.2833 28.1507 71.2833 28.9486V31.2988H70.3032V26.8755H71.2833V27.4938C71.5348 27.032 72.0043 26.778 72.6201 26.778Z" class="cls-1"/>
<path d="M15.3843 36.7614C14.7685 36.7614 14.4144 37.0077 14.4144 37.8954V40.2148H13.4343V35.7915H14.3965V36.5792C14.6351 36.0866 15.0636 35.7915 15.5972 35.7838C15.6716 35.7838 15.7768 35.7915 15.8538 35.7992V36.7845C15.687 36.7691 15.5331 36.7614 15.3843 36.7614Z" class="cls-1"/>
<path d="M19.3736 37.5673C19.348 36.8771 18.822 36.4563 18.2498 36.4563C17.788 36.4563 17.1543 36.7283 17.0747 37.5673H19.3736ZM18.2729 39.507C18.7835 39.507 19.1863 39.3017 19.3582 38.8912H20.3204C20.1151 39.5993 19.4557 40.3203 18.314 40.3203C16.89 40.3203 16.0767 39.235 16.0767 37.9701C16.0767 36.6385 16.9901 35.6943 18.2498 35.6943C19.6045 35.6943 20.4512 36.795 20.3691 38.2831H17.0747C17.1389 39.1042 17.7136 39.507 18.2729 39.507Z" class="cls-1"/>
<path d="M24.1215 37.304C24.0394 36.8345 23.6288 36.506 23.0952 36.506C22.4845 36.506 21.9329 36.9576 21.9329 38.0019C21.9329 39.0564 22.4922 39.508 23.0695 39.508C23.5442 39.508 24.0317 39.2924 24.1548 38.6997H25.1093C24.9117 39.7363 23.9983 40.3213 23.0541 40.3213C21.7713 40.3213 20.9246 39.3258 20.9246 38.0096C20.9246 36.6959 21.779 35.6927 23.0952 35.6927C24.0573 35.6927 24.9117 36.3162 25.0759 37.304H24.1215Z" class="cls-1"/>
<path d="M28.9348 38.0102C28.9348 36.9916 28.3858 36.4887 27.77 36.4887C27.1516 36.4887 26.6026 36.9916 26.6026 38.0102C26.6026 39.0288 27.1516 39.524 27.77 39.524C28.3858 39.524 28.9348 39.0288 28.9348 38.0102ZM27.77 40.3193C26.6924 40.3193 25.5891 39.6061 25.5891 38.0102C25.5891 36.4143 26.6924 35.6933 27.77 35.6933C28.845 35.6933 29.9483 36.4143 29.9483 38.0102C29.9483 39.6061 28.845 40.3193 27.77 40.3193Z" class="cls-1"/>
<path d="M33.0742 35.693C34.1441 35.693 34.5803 36.3832 34.5803 37.4352V40.2139H33.6002V37.6738C33.6002 37.0734 33.5104 36.491 32.7637 36.491C32.0145 36.491 31.7374 37.0657 31.7374 37.8637V40.2139H30.7573V35.7905H31.7374V36.4089C31.9889 35.947 32.4584 35.693 33.0742 35.693Z" class="cls-1"/>
<path d="M37.9223 35.693C38.9897 35.693 39.4258 36.3832 39.4258 37.4352V40.2139H38.4483V37.6738C38.4483 37.0734 38.3585 36.491 37.6093 36.491C36.8627 36.491 36.583 37.0657 36.583 37.8637V40.2139H35.6055V35.7905H36.583V36.4089C36.837 35.947 37.3066 35.693 37.9223 35.693Z" class="cls-1"/>
<path d="M41.8709 40.3208C40.819 40.3208 40.3931 39.6306 40.3931 38.5787V35.7897H41.3706V38.3401C41.3706 38.9404 41.4527 39.5229 42.1839 39.5229C42.9152 39.5229 43.1795 38.9481 43.1795 38.1502V35.7897H44.157V40.213H43.1795V39.605C42.9229 40.0668 42.4713 40.3208 41.8709 40.3208Z" class="cls-1"/>
<path d="M48.2628 37.5673C48.2371 36.8771 47.7112 36.4563 47.139 36.4563C46.6772 36.4563 46.0434 36.7283 45.9639 37.5673H48.2628ZM47.1621 39.507C47.6727 39.507 48.0755 39.3017 48.2474 38.8912H49.2095C49.0043 39.5993 48.3449 40.3203 47.2031 40.3203C45.7792 40.3203 44.9658 39.235 44.9658 37.9701C44.9658 36.6385 45.8792 35.6943 47.139 35.6943C48.4937 35.6943 49.3404 36.795 49.2583 38.2831H45.9639C46.028 39.1042 46.6028 39.507 47.1621 39.507Z" class="cls-1"/>
<path d="M16.6096 46.9165C16.6096 45.9877 16.1991 45.4027 15.514 45.4027C14.8726 45.4027 14.3723 45.8979 14.3723 46.9165C14.3723 47.9351 14.8726 48.4379 15.514 48.4379C16.1991 48.4379 16.6096 47.853 16.6096 46.9165ZM14.4159 45.2975C14.6776 44.8613 15.1369 44.6073 15.7296 44.6073C16.8046 44.6073 17.6282 45.5027 17.6282 46.9165C17.6282 48.3379 16.8046 49.2333 15.7296 49.2333C15.1369 49.2333 14.6776 48.9793 14.4159 48.5431V50.5649H13.4358V44.7048H14.4159V45.2975Z" class="cls-1"/>
<path d="M19.1628 47.8864C19.1628 48.2712 19.4835 48.5022 19.9736 48.5022C20.6997 48.5022 21.1281 48.1327 21.1281 47.3861V47.0474C19.7298 47.1808 19.1628 47.3758 19.1628 47.8864ZM21.1025 46.3649V46.2828C21.1025 45.5285 20.6663 45.2976 20.1788 45.2976C19.6888 45.2976 19.3193 45.5593 19.2936 46.0929H18.3315C18.3956 45.1898 19.1448 44.5715 20.2147 44.5715C21.2744 44.5715 22.1031 45.0589 22.08 46.4727C22.08 46.6933 22.0646 47.2116 22.0646 47.617C22.0646 48.1737 22.1134 48.7587 22.1955 49.1282H21.3C21.2667 48.9383 21.2333 48.8331 21.2179 48.5278C20.9357 49.005 20.4097 49.2334 19.7606 49.2334C18.7984 49.2334 18.1262 48.7177 18.1262 47.912C18.1262 46.8088 19.4835 46.5291 21.1025 46.3649Z" class="cls-1"/>
<path d="M25.0187 45.6754C24.4029 45.6754 24.0488 45.9217 24.0488 46.8095V49.1289H23.0713V44.7056H24.0334V45.4933C24.2721 45.0006 24.698 44.7056 25.2342 44.6979C25.306 44.6979 25.4138 44.7056 25.4882 44.7133V45.6985C25.324 45.6831 25.1675 45.6754 25.0187 45.6754Z" class="cls-1"/>
<path d="M27.9995 43.1677H28.9796V49.1279H27.9995V43.1677Z" class="cls-1"/>
<path d="M31.0769 43.1671V44.3678L30.4997 45.584H29.9172L30.4612 44.2857H29.9557V43.1671H31.0769Z" class="cls-1"/>
<path d="M36.3237 43.1668V44.0391H33.1498V45.6324H36.1518V46.4971H33.1498V48.2469H36.3237V49.127H32.103V43.1668H36.3237Z" class="cls-1"/>
<path d="M38.2105 46.0198H39.1804C39.9706 46.0198 40.5787 45.9044 40.5787 45.05C40.5787 44.0802 39.8654 44.0057 39.1316 44.0057H38.2105V46.0198ZM41.664 45.0423C41.664 46.5458 40.553 46.8742 39.147 46.8742H38.2105V49.127H37.1663V43.1668H39.1316C40.4376 43.1668 41.664 43.3823 41.664 45.0423Z" class="cls-1"/>
<path d="M46.5193 43.1668V44.0391H43.4019V45.6324H46.3371V46.4971H43.4019V49.127H42.3577V43.1668H46.5193Z" class="cls-1"/>
<path d="M51.1773 48.2489V49.1289H47.1311V43.1687H48.1754V48.2489H51.1773Z" class="cls-1"/>
</svg>
