<svg version="1.1" xmlns="http://www.w3.org/2000/svg" width="370" height="89">
<defs>
<style>
.cls-1{
    fill:#eed4f1
}
</style>
</defs>
<path d="M0 0 C3 0 3 0 4.33203125 1.22265625 C4.82058594 1.82980469 5.30914063 2.43695313 5.8125 3.0625 C9.9726737 8.04048563 14.39783687 12.73905689 18.84887695 17.45532227 C22.6882171 21.54122063 26.37969073 25.71844703 30 30 C35.23205102 28.39013815 39.07595663 25.08110798 43.3125 21.75 C44.76664633 20.61943047 46.22107239 19.48922063 47.67578125 18.359375 C48.7443335 17.52889648 48.7443335 17.52889648 49.83447266 16.68164062 C50.54909668 16.12669922 51.2637207 15.57175781 52 15 C52.74427246 14.41927734 53.48854492 13.83855469 54.25537109 13.24023438 C55.32585693 12.41749023 55.32585693 12.41749023 56.41796875 11.578125 C57.05887451 11.0821582 57.69978027 10.58619141 58.36010742 10.07519531 C60 9 60 9 62 9 C60.56651191 12.97671481 58.66222608 16.26791729 56.33203125 19.7890625 C55.79517952 20.60496353 55.79517952 20.60496353 55.2474823 21.43734741 C54.1066825 23.1693766 52.95985831 24.89731013 51.8125 26.625 C51.0614166 27.76143312 50.310762 28.89814975 49.56054688 30.03515625 C49.19154266 30.59410583 48.82253845 31.15305542 48.44235229 31.72894287 C47.33973147 33.40237598 46.24138269 35.07862137 45.14306641 36.75488281 C43.73424786 38.88817242 42.30469145 41.00793648 40.85302734 43.11230469 C40.20414551 44.07297852 39.55526367 45.03365234 38.88671875 46.0234375 C38.30494873 46.86567871 37.72317871 47.70791992 37.1237793 48.57568359 C35.72320966 51.59711668 35.9662344 52.8746984 37 56 C37.91348297 58.11571972 37.91348297 58.11571972 39.06640625 60.13671875 C39.46923828 60.87857422 39.87207031 61.62042969 40.28710938 62.38476562 C40.70798828 63.14466797 41.12886719 63.90457031 41.5625 64.6875 C42.40082088 66.21021638 43.23563938 67.73486791 44.06640625 69.26171875 C44.43709229 69.93162842 44.80777832 70.60153809 45.18969727 71.29174805 C46 73 46 73 46 75 C41.96530333 73.72451525 38.19173454 72.2387032 34.3828125 70.3984375 C33.36445312 69.90859375 32.34609375 69.41875 31.296875 68.9140625 C30.25015625 68.40617187 29.2034375 67.89828125 28.125 67.375 C26.52011719 66.6015625 26.52011719 66.6015625 24.8828125 65.8125 C22.25364318 64.54486479 19.62611698 63.2739434 17 62 C16.69674805 62.77327637 16.39349609 63.54655273 16.08105469 64.34326172 C14.97330785 67.06559711 13.6762579 69.55620216 12.25 72.125 C11.72664063 73.07246094 11.20328125 74.01992187 10.6640625 74.99609375 C10.11492188 75.98738281 9.56578125 76.97867188 9 78 C7.87357182 80.06172035 6.74850744 82.12418658 5.625 84.1875 C4.75 85.79166667 3.875 87.39583333 3 89 C2.34 89 1.68 89 1 89 C1.49888774 74.98622746 2.03987392 60.99040862 3 47 C-5.25 45.35 -13.5 43.7 -22 42 C-21.67 41.01 -21.34 40.02 -21 39 C-18.6986978 37.94988017 -16.50944308 37.09980482 -14.12109375 36.30078125 C-13.4344313 36.0608696 -12.74776886 35.82095795 -12.04029846 35.57377625 C-9.8430279 34.80892384 -7.64052595 34.06059341 -5.4375 33.3125 C-3.9481947 32.79730098 -2.45925696 32.28103809 -0.97070312 31.76367188 C2.68204491 30.49672365 6.33956837 29.2445657 10 28 C10 24.73126666 9.31854706 22.99577614 8.06640625 20 C7.66486328 19.030625 7.26332031 18.06125 6.84960938 17.0625 C6.42486328 16.051875 6.00011719 15.04125 5.5625 14 C4.72972139 12.00031108 3.89765796 10.00032412 3.06640625 8 C2.69459229 7.113125 2.32277832 6.22625 1.93969727 5.3125 C1.23000109 3.56600943 0.59614579 1.78843736 0 0 Z M13 29 C10.36 34.61 7.72 40.22 5 46 C10.94 52.93 10.94 52.93 17 60 C22.28 57.36 27.56 54.72 33 52 C32.731875 49.256875 32.46375 46.51375 32.1875 43.6875 C32.07184692 42.39718872 32.07184692 42.39718872 31.95385742 41.08081055 C31.84328003 40.05661011 31.84328003 40.05661011 31.73046875 39.01171875 C31.66239014 38.31522217 31.59431152 37.61872559 31.52416992 36.90112305 C30.85775591 34.48409189 29.96637949 33.53373022 28 32 C25.39558415 31.30833546 22.95358413 30.76436441 20.3125 30.3125 C16.6928125 29.6628125 16.6928125 29.6628125 13 29 Z " class="cls-1" transform="translate(22,0)"/>
<path d="M0 0 C2.23046875 0.40625 2.23046875 0.40625 5 2 C6.82735388 5.00849526 8.04805953 8.22253192 9.3125 11.5 C9.67150391 12.38042969 10.03050781 13.26085938 10.40039062 14.16796875 C13 20.63480655 13 20.63480655 13 23 C13.66 23 14.32 23 15 23 C15.09796875 22.34386719 15.1959375 21.68773438 15.296875 21.01171875 C16.2142421 17.08232968 17.67368916 13.51850739 19.25 9.8125 C19.68119141 8.72678711 19.68119141 8.72678711 20.12109375 7.61914062 C22.3687211 2.34359609 22.3687211 2.34359609 25.734375 0.51171875 C26.48203125 0.34285156 27.2296875 0.17398438 28 0 C30.30052062 1.78244091 30.95209519 2.75169952 31.51171875 5.65234375 C32.07107575 16.10610453 32.09476786 26.53341604 32 37 C30.02 37 28.04 37 26 37 C25.93941406 35.74703125 25.87882812 34.4940625 25.81640625 33.203125 C25.73197744 31.55207276 25.64733061 29.90103165 25.5625 28.25 C25.52318359 27.425 25.48386719 26.6 25.44335938 25.75 C25.40146484 24.95078125 25.35957031 24.1515625 25.31640625 23.328125 C25.27974854 22.5949707 25.24309082 21.86181641 25.20532227 21.10644531 C24.99885215 18.98822395 24.56867914 17.0480544 24 15 C23.54109375 16.13179687 23.0821875 17.26359375 22.609375 18.4296875 C21.99028493 19.9117516 21.3704545 21.39350659 20.75 22.875 C20.44964844 23.62136719 20.14929688 24.36773437 19.83984375 25.13671875 C19.53691406 25.85214844 19.23398438 26.56757812 18.921875 27.3046875 C18.64956055 27.96452637 18.37724609 28.62436523 18.09667969 29.30419922 C16.71785696 31.43627906 15.31701393 32.05213066 13 33 C9.73524446 29.29669521 7.97474348 25.88540452 6.3125 21.25 C5.15184213 17.33833514 5.15184213 17.33833514 3 14 C2.97494385 14.59014893 2.9498877 15.18029785 2.92407227 15.78833008 C2.80799948 18.46326814 2.68532428 21.1378638 2.5625 23.8125 C2.50352539 25.2056543 2.50352539 25.2056543 2.44335938 26.62695312 C2.40146484 27.51962891 2.35957031 28.41230469 2.31640625 29.33203125 C2.27974854 30.15421143 2.24309082 30.9763916 2.20532227 31.82348633 C2 34 2 34 1 37 C-0.65 37 -2.3 37 -4 37 C-4.29918013 4.5458599 -4.29918013 4.5458599 -1.45703125 1.1640625 C-0.73580078 0.58785156 -0.73580078 0.58785156 0 0 Z " class="cls-1" transform="translate(163,34)"/>
<path d="M0 0 C3.09897235 2.09810807 3.75521125 4.59506373 4.6328125 8.10546875 C4.6328125 12.68427991 4.13527955 14.49993154 1.1953125 18.04296875 C-1.3671875 20.10546875 -1.3671875 20.10546875 -3.3671875 20.10546875 C-2.7896875 21.10449219 -2.2121875 22.10351562 -1.6171875 23.1328125 C-0.86707491 24.43613312 -0.11708102 25.73952207 0.6328125 27.04296875 C1.014375 27.70232422 1.3959375 28.36167969 1.7890625 29.04101562 C4.6328125 33.9921875 4.6328125 33.9921875 4.6328125 35.10546875 C0.33307314 36.15846614 0.33307314 36.15846614 -2.3671875 35.10546875 C-5.32653238 31.30059677 -9.3671875 26.08743641 -9.3671875 21.10546875 C-11.3471875 21.10546875 -13.3271875 21.10546875 -15.3671875 21.10546875 C-15.3671875 25.72546875 -15.3671875 30.34546875 -15.3671875 35.10546875 C-17.3471875 35.10546875 -19.3271875 35.10546875 -21.3671875 35.10546875 C-22.3671875 34.10546875 -22.3671875 34.10546875 -22.48071289 30.87084961 C-22.48055381 29.43732749 -22.47486157 28.00379963 -22.46484375 26.5703125 C-22.4634288 25.81706192 -22.46201385 25.06381134 -22.46055603 24.28773499 C-22.45494126 21.87277315 -22.44238633 19.45790274 -22.4296875 17.04296875 C-22.4246744 15.40950654 -22.42011116 13.77604289 -22.41601562 12.14257812 C-22.40496704 8.1301729 -22.38769256 4.11783634 -22.3671875 0.10546875 C-14.83344102 -2.49351212 -7.51138111 -3.23871291 0 0 Z M-15.3671875 4.10546875 C-15.3671875 8.06546875 -15.3671875 12.02546875 -15.3671875 16.10546875 C-13.9440625 16.12609375 -12.5209375 16.14671875 -11.0546875 16.16796875 C-10.25417969 16.17957031 -9.45367187 16.19117188 -8.62890625 16.203125 C-6.19857416 16.2020473 -6.19857416 16.2020473 -3.3671875 15.10546875 C-1.86056653 12.0922268 -2.18948377 9.42260498 -2.3671875 6.10546875 C-4.20456577 3.83330027 -4.20456577 3.83330027 -6.96875 3.91015625 C-7.96648437 3.93335938 -8.96421875 3.9565625 -9.9921875 3.98046875 C-11.7659375 4.02171875 -13.5396875 4.06296875 -15.3671875 4.10546875 Z " class="cls-1" transform="translate(133.3671875,35.89453125)"/>
<path d="M0 0 C2.65449258 3.48402151 3.24050507 6.28325823 3.0625 10.5625 C2.54919093 14.0959764 1.68058179 15.77443178 -1.0625 18.0625 C-2.031875 18.701875 -3.00125 19.34125 -4 20 C-3.4946875 20.84304687 -2.989375 21.68609375 -2.46875 22.5546875 C-1.8190625 23.65039062 -1.169375 24.74609375 -0.5 25.875 C0.1496875 26.96554688 0.799375 28.05609375 1.46875 29.1796875 C3 32 3 32 3 34 C-1.29973936 35.05299739 -1.29973936 35.05299739 -4 34 C-6.95934488 30.19512802 -11 24.98196766 -11 20 C-12.98 20 -14.96 20 -17 20 C-17 24.62 -17 29.24 -17 34 C-18.98 34 -20.96 34 -23 34 C-23 22.12 -23 10.24 -23 -2 C-15.02792887 -3.59441423 -7.12186587 -4.45116617 0 0 Z M-17 3 C-17 6.96 -17 10.92 -17 15 C-10.17181509 15.43721825 -10.17181509 15.43721825 -4 13 C-2.76678328 9.95806544 -2.90508844 8.35591833 -3.75 5.1875 C-6.59940851 2.41724173 -7.79808705 2.6875 -11.6875 2.6875 C-13.440625 2.790625 -15.19375 2.89375 -17 3 Z " class="cls-1" transform="translate(288,37)"/>
<path d="M0 0 C0 1.65 0 3.3 0 5 C-1.04800781 5.04898438 -2.09601563 5.09796875 -3.17578125 5.1484375 C-4.55471354 5.22348143 -5.9336185 5.29902857 -7.3125 5.375 C-8.34793945 5.42140625 -8.34793945 5.42140625 -9.40429688 5.46875 C-13.06990789 5.68124919 -14.87900792 5.91933861 -18 8 C-19.24303855 11.22615207 -19.16589522 14.51098237 -19.1875 17.9375 C-19.20167969 18.95714844 -19.21585937 19.97679688 -19.23046875 21.02734375 C-18.99179182 24.10587162 -18.39856515 26.25684941 -17 29 C-13.57067929 30.71466036 -9.78283935 30.05404056 -6 30 C-5.67 27.03 -5.34 24.06 -5 21 C-6.98 21 -8.96 21 -11 21 C-11 19.35 -11 17.7 -11 16 C-7.04 16 -3.08 16 1 16 C1.08089542 18.77141717 1.14044062 21.54047819 1.1875 24.3125 C1.21263672 25.09818359 1.23777344 25.88386719 1.26367188 26.69335938 C1.27333984 27.45068359 1.28300781 28.20800781 1.29296875 28.98828125 C1.3086792 29.68477783 1.32438965 30.38127441 1.34057617 31.09887695 C0.89465565 33.58804049 -0.04766091 34.44488626 -2 36 C-8.05150093 37.84906973 -14.23191628 37.56359277 -20 35 C-23.29573335 32.34510369 -24.72455016 30.0015186 -26 26 C-26.21484045 23.32704994 -26.32497134 20.79386602 -26.3125 18.125 C-26.32861328 17.44308594 -26.34472656 16.76117188 -26.36132812 16.05859375 C-26.36614108 11.00498836 -25.3174344 7.4992141 -23 3 C-16.98014758 -2.82566363 -7.59872778 -1.55871339 0 0 Z " class="cls-1" transform="translate(103,35)"/>
<path d="M0 0 C1.98 0 3.96 0 6 0 C6 4.95 6 9.9 6 15 C10.95 14.67 15.9 14.34 21 14 C20.979375 11.875625 20.95875 9.75125 20.9375 7.5625 C20.91626217 5.37500389 20.92741054 3.18639453 21 1 C21.33 0.67 21.66 0.34 22 0 C23.65 0 25.3 0 27 0 C27 11.88 27 23.76 27 36 C25.35 36 23.7 36 22 36 C21 35 21 35 20.90234375 31.62109375 C20.90808576 30.22652508 20.92109772 28.83198403 20.9375 27.4375 C20.958125 24.983125 20.97875 22.52875 21 20 C16.05 20 11.1 20 6 20 C6 25.28 6 30.56 6 36 C4.02 36 2.04 36 0 36 C0 24.12 0 12.24 0 0 Z " class="cls-1" transform="translate(343,35)"/>
<path d="M0 0 C2.71785804 2.94115624 3.43135944 4.95227346 3.4375 8.9375 C3.30220343 12.10530582 2.98363241 14.03928222 1.75 17 C-2.63882822 20.19187507 -7.65178808 20.69480312 -13 21 C-14.32 20.67 -15.64 20.34 -17 20 C-17 24.62 -17 29.24 -17 34 C-18.98 34 -20.96 34 -23 34 C-23 22.12 -23 10.24 -23 -2 C-14.64377599 -3.392704 -7.54468719 -4.31124982 0 0 Z M-17 3 C-17 6.96 -17 10.92 -17 15 C-15.246875 15.061875 -13.49375 15.12375 -11.6875 15.1875 C-10.70136719 15.22230469 -9.71523437 15.25710937 -8.69921875 15.29296875 C-5.99864301 15.21968355 -5.99864301 15.21968355 -4.1640625 13.7109375 C-2.24450687 10.88957722 -2.70056104 8.29382853 -3 5 C-4.8628949 2.69939466 -4.8628949 2.69939466 -7.8203125 2.8046875 C-12.41015625 2.90234375 -12.41015625 2.90234375 -17 3 Z " class="cls-1" transform="translate(226,37)"/>
<path d="M0 0 C0.5625 1.9375 0.5625 1.9375 1 4 C-0.94090826 5.94090826 -4.47293902 5.39919435 -7.0625 5.5625 C-8.35285156 5.64628906 -9.64320313 5.73007812 -10.97265625 5.81640625 C-11.97167969 5.87699219 -12.97070312 5.93757813 -14 6 C-14.33 8.97 -14.66 11.94 -15 15 C-10.05 15 -5.1 15 0 15 C0 16.65 0 18.3 0 20 C-4.95 20 -9.9 20 -15 20 C-15 23.3 -15 26.6 -15 30 C-10.05 30.33 -5.1 30.66 0 31 C0.33 32.32 0.66 33.64 1 35 C-1.10264973 37.10264973 -5.42445686 36.27690374 -8.3125 36.3125 C-9.47168945 36.35600586 -9.47168945 36.35600586 -10.65429688 36.40039062 C-14.39786592 36.44223619 -16.36709292 36.45150694 -19.48046875 34.23046875 C-22.87531382 29.24729 -22.21814619 23.4383198 -22.25 17.625 C-22.270625 16.69171875 -22.29125 15.7584375 -22.3125 14.796875 C-22.3425843 9.48699617 -22.16106228 5.5023387 -19 1 C-12.5946012 -1.63078879 -6.7558834 -0.91899884 0 0 Z " class="cls-1" transform="translate(257,35)"/>
<path d="M0 0 C0.76183594 -0.00257812 1.52367187 -0.00515625 2.30859375 -0.0078125 C4.51565859 0.12223985 6.44219276 0.51643801 8.5625 1.125 C8.5625 2.775 8.5625 4.425 8.5625 6.125 C7.65886719 6.18558594 6.75523437 6.24617188 5.82421875 6.30859375 C4.64472656 6.39238281 3.46523438 6.47617187 2.25 6.5625 C0.49236328 6.68431641 0.49236328 6.68431641 -1.30078125 6.80859375 C-4.46340958 7.0117371 -4.46340958 7.0117371 -7.4375 8.125 C-7.55394156 11.20801416 -7.62482432 14.29046123 -7.6875 17.375 C-7.72101563 18.24769531 -7.75453125 19.12039062 -7.7890625 20.01953125 C-7.88923625 25.12959951 -7.88923625 25.12959951 -5.8125 29.6875 C-2.82882491 31.49340861 -0.65961459 31.7240385 2.8125 31.875 C3.89015625 31.93171875 4.9678125 31.9884375 6.078125 32.046875 C6.89796875 32.07265625 7.7178125 32.0984375 8.5625 32.125 C8.5625 33.775 8.5625 35.425 8.5625 37.125 C0.25497861 38.25722377 -5.19021657 38.74381616 -12.25 33.875 C-16.35713762 27.82237615 -16.03319702 20.13374775 -15.4375 13.125 C-14.54269711 8.81177046 -13.14568962 5.81548488 -9.9375 2.6875 C-6.52522453 0.55482783 -3.94693348 -0.01331175 0 0 Z " class="cls-1" transform="translate(328.4375,33.875)"/>
<path d="M0 0 C1.98 0 3.96 0 6 0 C6 11.88 6 23.76 6 36 C4.02 36 2.04 36 0 36 C0 24.12 0 12.24 0 0 Z " class="cls-1" transform="translate(145,35)"/>
<path d="M0 0 C1.65 0.33 3.3 0.66 5 1 C5 2.98 5 4.96 5 7 C3.1875 7.6875 3.1875 7.6875 1 8 C-0.75 6.5625 -0.75 6.5625 -2 5 C-1.34 3.35 -0.68 1.7 0 0 Z " class="cls-1" transform="translate(300,64)"/>
</svg>
