<svg version="1.1" xmlns="http://www.w3.org/2000/svg" width="1069" height="569">
<defs>
<style>
.cls-1{
    fill:#eed4f1
}
</style>
</defs>
<path d="M0 0 C0.99 0.33 1.98 0.66 3 1 C4.04069042 3.79806232 4.04069042 3.79806232 4.99320984 7.62312317 C5.17136586 8.32352634 5.34952189 9.0239295 5.53307658 9.74555701 C6.13037825 12.10715012 6.7089771 14.47293696 7.2878418 16.83911133 C7.71082582 18.52760403 8.13493489 20.21581525 8.56008911 21.90376282 C9.71425337 26.50011239 10.85220366 31.10034019 11.98713279 35.70147157 C13.17559676 40.50909533 14.37792558 45.3132497 15.5785675 50.11784363 C17.59370769 58.19043257 19.59903745 66.26540709 21.59790039 74.34204102 C23.91017998 83.68485032 26.23455003 93.02458098 28.56620091 102.36257344 C31.04563055 112.29243836 33.51785423 122.22408521 35.9870646 132.15649581 C36.69996264 135.02252187 37.41402525 137.88825587 38.1282711 140.7539463 C39.24997368 145.25644042 40.36671965 149.76013631 41.47961807 154.26481438 C41.88919964 155.91963399 42.30037079 157.57406108 42.71323204 159.22806549 C43.2757701 161.48296497 43.83250904 163.73921814 44.38774109 165.9959259 C44.85754158 167.89102764 44.85754158 167.89102764 45.336833 169.82441425 C46 173 46 173 46 177 C28.42979011 185.5945286 10.84695855 194.14101474 -6.91894531 202.32495117 C-14.81916885 205.96985286 -22.66965632 209.70746937 -30.5 213.5 C-40.61082004 218.39403211 -50.76935232 223.17274028 -60.96582031 227.88549805 C-70.91375579 232.48589646 -80.83496967 237.1416759 -90.75 241.8125 C-91.51603546 242.17332672 -92.28207092 242.53415344 -93.07131958 242.90591431 C-97.38134969 244.9362802 -101.69089262 246.96767655 -106 249 C-108.62716478 246.37283522 -109.15070217 243.55663837 -110.09692383 240.06860352 C-110.29797446 239.34850633 -110.4990251 238.62840914 -110.70616817 237.88649082 C-111.37943175 235.4689998 -112.04313448 233.04898488 -112.70703125 230.62890625 C-113.18479319 228.90688392 -113.66318039 227.18503496 -114.14215088 225.46334839 C-115.43732874 220.80150081 -116.72443951 216.13746184 -118.00984573 211.47291183 C-120.16522332 203.65754637 -122.33353672 195.8457491 -124.4987011 188.03309059 C-125.33351198 185.01961676 -126.1673494 182.0058747 -127.00111389 178.99211121 C-130.46913287 166.46518016 -133.98185729 153.95170175 -137.53652382 141.44909096 C-138.28787053 138.80512395 -139.03769665 136.16073103 -139.78691101 133.51615906 C-140.02858663 132.66313107 -140.27026224 131.81010309 -140.51926136 130.93122578 C-140.99847073 129.23961534 -141.47762731 127.54798995 -141.95672894 125.85634899 C-143.1218654 121.74512977 -144.29117292 117.63517924 -145.46914673 113.52761841 C-146.57026117 109.68788895 -147.66119733 105.84541417 -148.74446869 102.00061417 C-149.14137343 100.59936386 -149.54218451 99.19921315 -149.94721222 97.80028915 C-150.49725137 95.89900366 -151.03234651 93.99341377 -151.56665039 92.08764648 C-151.86954483 91.02577621 -152.17243927 89.96390594 -152.48451233 88.86985779 C-153.02776357 85.84543275 -152.91901945 83.91759114 -152 81 C-150.29541016 79.55297852 -150.29541016 79.55297852 -148.0390625 78.37890625 C-147.18892578 77.92580078 -146.33878906 77.47269531 -145.46289062 77.00585938 C-144.52638672 76.52955078 -143.58988281 76.05324219 -142.625 75.5625 C-141.64982422 75.04880859 -140.67464844 74.53511719 -139.66992188 74.00585938 C-136.45585021 72.31882617 -133.22905621 70.65815118 -130 69 C-127.76776957 67.84333445 -125.53600258 66.6857741 -123.3046875 65.52734375 C-119.88285623 63.75233964 -116.46004188 61.97940178 -113.03369141 60.21313477 C-105.96988613 56.56692782 -98.96283245 52.83519784 -92 49 C-82.75557974 43.90808074 -73.4047988 39.04195399 -64.02294922 34.20874023 C-56.12622544 30.13024339 -48.31227385 25.9233335 -40.5300293 21.63134766 C-31.26247193 16.54577237 -21.86356269 11.71784897 -12.45556641 6.89868164 C-11.84949051 6.587509 -11.24341461 6.27633636 -10.61897278 5.95573425 C-8.96467007 5.10672173 -7.3091561 4.26007053 -5.65356445 3.41357422 C-2.88657347 1.99542957 -2.88657347 1.99542957 0 0 Z " class="cls-1" transform="translate(510,0)"/>
<path d="M0 0 C6.44267181 1.33363671 12.60162572 3.05349107 18.83984375 5.1328125 C19.77895599 5.441689 20.71806824 5.75056549 21.68563843 6.06880188 C23.7121285 6.73563394 25.73801002 7.40431771 27.76333618 8.07467651 C33.23754767 9.88608047 38.7166062 11.6827147 44.1953125 13.48046875 C45.89658043 14.03919426 45.89658043 14.03919426 47.63221741 14.60920715 C58.77736046 18.2648896 69.94488969 21.84910843 81.11865234 25.41619873 C84.29127807 26.43071383 87.4622363 27.45029101 90.6328125 28.47119141 C99.48224817 31.31597172 108.331383 34.12842752 117.2578125 36.72265625 C118.59749797 37.12033855 119.93694706 37.51881829 121.27612305 37.91821289 C123.61858188 38.61031365 125.96867533 39.27738134 128.32739258 39.91186523 C129.32150146 40.20907471 130.31561035 40.50628418 131.33984375 40.8125 C132.17894287 41.04582031 133.01804199 41.27914062 133.88256836 41.51953125 C138.839511 44.98533318 139.98768193 54.24426978 141.48925781 59.93969727 C141.83456197 61.22954922 141.83456197 61.22954922 142.18684196 62.54545879 C142.94600306 65.38479271 143.69952683 68.22559129 144.453125 71.06640625 C144.99113806 73.08219594 145.52954771 75.09787982 146.06832886 77.11346436 C147.503987 82.48769016 148.93507515 87.86312266 150.36527252 93.23880386 C152.71867843 102.07995137 155.0805084 110.91885532 157.44176102 119.75790977 C158.02781094 121.95185954 158.61370503 124.14585095 159.19944382 126.3398838 C162.77804484 139.74283147 166.38079794 153.13846672 170.0546875 166.515625 C170.23718048 167.18066984 170.41967346 167.84571468 170.60769653 168.5309124 C172.39066589 175.02727481 174.18260212 181.52106352 175.98535156 188.01196289 C176.53459113 190.00404532 177.08375093 191.99614975 177.6328125 193.98828125 C177.87836884 194.86272888 178.12392517 195.73717651 178.37692261 196.63812256 C178.70298996 197.82525848 178.70298996 197.82525848 179.03564453 199.03637695 C179.31772263 200.04979912 179.31772263 200.04979912 179.60549927 201.08369446 C180 203 180 203 180 207 C158.00997937 202.71854217 136.16198266 197.80743596 114.31269741 192.86422253 C107.68102431 191.36440727 101.04711802 189.87647522 94.40649414 188.41674805 C87.93216899 186.99357238 81.46536814 185.53929153 75.00242805 184.06511879 C72.54830242 183.51059038 70.09180545 182.96644992 67.63302422 182.43294334 C64.21378109 181.68901821 60.80500905 180.90825054 57.39624023 180.11791992 C56.38181351 179.90625183 55.36738678 179.69458374 54.32221985 179.47650146 C47.52638651 177.84282159 47.52638651 177.84282159 44.97592163 173.75915527 C44.49284042 171.89837341 44.49284042 171.89837341 44 170 C43.65418381 168.84385696 43.30836761 167.68771393 42.95207214 166.49653625 C42.63426285 165.25542587 42.31645355 164.01431549 41.98901367 162.7355957 C41.80889929 162.03878315 41.6287849 161.3419706 41.44321251 160.62404251 C40.84622864 158.30926688 40.25716448 155.99255036 39.66796875 153.67578125 C39.23929811 152.00807705 38.81007945 150.34051363 38.38035583 148.67308044 C37.45883454 145.09342605 36.54062764 141.51294472 35.62506104 137.9317627 C33.43255813 129.35675135 31.22363998 120.78596203 29.01625824 112.21477127 C28.24770861 109.2298355 27.47982912 106.24472782 26.7119751 103.25961304 C23.05975673 89.06898634 19.36867761 74.88880801 15.65234375 60.71484375 C15.39669081 59.73974161 15.14103786 58.76463947 14.87763786 57.75998878 C12.39522804 48.29384205 9.90863208 38.82879636 7.42099476 29.36402225 C6.50718926 25.88632638 5.59425238 22.40840285 4.68147469 18.93043709 C4.05274933 16.53648925 3.42258819 14.14292251 2.79234314 11.74937439 C2.41829594 10.32479649 2.0443141 8.90020144 1.67041016 7.47558594 C1.34593903 6.24193298 1.0214679 5.00828003 0.68716431 3.73724365 C0 1 0 1 0 0 Z " class="cls-1" transform="translate(528,0)"/>
<path d="M0 0 C1.21696218 0.28225842 1.21696218 0.28225842 2.45850945 0.57021904 C4.25019078 0.98755138 6.03986208 1.41358314 7.82770348 1.84707069 C10.82456408 2.5694125 13.82740747 3.2595948 16.83345032 3.94267273 C23.78954434 5.5263722 30.7372688 7.14500207 37.68432617 8.76782227 C38.93439831 9.05953686 40.18447044 9.35125145 41.47242355 9.65180588 C47.38403882 11.03160731 53.29525694 12.41308364 59.20585024 13.79725611 C65.99878725 15.38799349 72.79332475 16.97166039 79.58923209 18.54965842 C85.511769 19.92538931 91.43214642 21.31021007 97.35178757 22.69834518 C99.86227692 23.28565855 102.37343025 23.87014099 104.88524246 24.45177078 C108.3717436 25.2597839 111.8556586 26.07812994 115.33911133 26.89916992 C116.90194603 27.25766273 116.90194603 27.25766273 118.49635315 27.62339783 C119.43789749 27.84754868 120.37944183 28.07169952 121.34951782 28.30264282 C122.17196802 28.49471125 122.99441822 28.68677967 123.84179115 28.88466835 C125.70776367 29.54125977 125.70776367 29.54125977 126.70776367 31.54125977 C106.69413667 40.77179015 86.66162861 49.95110461 66.53619385 58.93580627 C58.19027802 62.66308797 49.85549613 66.41516405 41.52026367 70.16625977 C40.68889893 70.54034973 39.85753418 70.9144397 39.00097656 71.29986572 C22.66807046 78.65014638 6.34398793 86.02008514 -9.96913147 93.41418457 C-11.59077459 94.14715735 -13.21405582 94.87651869 -14.83909607 95.60192871 C-18.12966625 97.07518579 -21.35196551 98.572898 -24.53979492 100.26147461 C-28.83053677 102.5087895 -31.91653998 103.98729739 -36.75683594 102.97143555 C-37.72472549 102.77029648 -38.69261505 102.56915741 -39.68983459 102.36192322 C-40.87862717 102.09110428 -42.06741974 101.82028534 -43.29223633 101.54125977 C-44.01508253 101.37705599 -44.73792873 101.21285221 -45.48267937 101.04367256 C-51.94731631 99.5673473 -58.39709031 98.02994055 -64.84692383 96.49047852 C-66.9555983 95.98939832 -69.06433358 95.48857398 -71.17312622 94.98799133 C-76.71236219 93.67236825 -82.25076728 92.35328016 -87.78900146 91.03344727 C-93.35989237 89.70647432 -98.93156634 88.38279821 -104.50317383 87.05883789 C-115.49439929 84.44644914 -126.48470922 81.83022969 -137.47463226 79.21236801 C-142.3904837 78.04149079 -147.30645116 76.8711009 -152.22241211 75.70068359 C-153.13594389 75.48318042 -154.04947567 75.26567724 -154.99069023 75.04158306 C-157.09120451 74.54147075 -159.19172025 74.04136452 -161.29223633 73.54125977 C-161.29223633 72.88125977 -161.29223633 72.22125977 -161.29223633 71.54125977 C-143.81593898 62.99266882 -126.32806503 54.49190029 -108.65454102 46.35693359 C-99.98230616 42.35431589 -91.37977709 38.22128788 -82.79223633 34.04125977 C-71.87722171 28.72853725 -60.93105303 23.49848519 -49.87060547 18.49267578 C-44.26328365 15.93646092 -38.76494547 13.30367433 -33.35287476 10.35983276 C-30.65034666 8.89282489 -27.92785739 7.46491617 -25.20458984 6.03686523 C-23.91573615 5.34631116 -22.63693948 4.63654901 -21.37060547 3.90551758 C-20.77304443 3.56101563 -20.1754834 3.21651367 -19.55981445 2.86157227 C-19.04543823 2.55678955 -18.53106201 2.25200684 -18.00109863 1.93798828 C-11.40153977 -1.15280055 -7.09156149 -1.79851513 0 0 Z " class="cls-1" transform="translate(573.292236328125,189.458740234375)"/>
<path d="M0 0 C29.390625 -0.12375 29.390625 -0.12375 59.375 -0.25 C65.54880371 -0.28641602 71.72260742 -0.32283203 78.08349609 -0.36035156 C85.65551758 -0.37841797 85.65551758 -0.37841797 89.20669556 -0.3817749 C91.67295218 -0.38789438 94.13919725 -0.40191524 96.6053772 -0.42230225 C100.35350149 -0.45172251 104.10089807 -0.45561934 107.84912109 -0.45410156 C108.9373435 -0.468494 110.02556591 -0.48288643 111.14676476 -0.497715 C118.47382762 -0.45818723 125.87432397 0.47306021 131.65175438 5.41204453 C138.34490578 12.98492612 138.18032161 22.36870736 138.1875 31.9375 C138.19974609 32.79279297 138.21199219 33.64808594 138.22460938 34.52929688 C138.24463004 43.27832788 137.084308 49.74453724 130.953125 56.30078125 C128.14056406 58.74770926 125.52907858 59.84764781 122 61 C122.66386719 61.35191406 123.32773437 61.70382812 124.01171875 62.06640625 C130.54329371 65.71836714 135.13560537 68.86058412 137.73828125 76.03515625 C140.71626616 87.84580389 140.89560385 104.35307393 135.3125 115.3125 C127.30898385 124.61388364 116.73536263 126.11389468 105 127 C101.40759914 127.12492293 97.82035288 127.12717174 94.22607422 127.11352539 C92.66309695 127.11370619 92.66309695 127.11370619 91.06854439 127.11389065 C87.73056958 127.11315049 84.39265219 127.10556352 81.0546875 127.09765625 C78.97989936 127.09618405 76.90511085 127.09516505 74.83032227 127.09460449 C67.17854247 127.08938384 59.52677066 127.07542258 51.875 127.0625 C26.196875 127.0315625 26.196875 127.0315625 0 127 C0 85.09 0 43.18 0 0 Z M30 21 C30 30.57 30 40.14 30 50 C39.43165564 50.06780861 48.86314905 50.12283499 58.2949934 50.15543652 C62.67470045 50.17108454 67.0542319 50.19230696 71.43383789 50.22631836 C75.66135189 50.25894274 79.88869711 50.27685951 84.11632729 50.28463173 C85.728261 50.29016972 87.34018559 50.30098415 88.95204735 50.31719017 C91.21196747 50.33900582 93.47119249 50.34196527 95.73120117 50.34057617 C97.01693527 50.34723801 98.30266937 50.35389984 99.62736511 50.36076355 C103.25764597 49.97244016 105.12456044 49.20950835 108 47 C111.23494904 40.8381923 110.56624752 33.17098609 109.375 26.5 C107.48667995 23.06669081 105.60638206 22.46090498 102 21 C98.48819922 20.56979713 98.48819922 20.56979713 94.70947266 20.65942383 C93.6547728 20.65876671 93.6547728 20.65876671 92.57876587 20.65809631 C90.27357417 20.66017272 87.96912585 20.68344812 85.6640625 20.70703125 C84.05838417 20.71263132 82.45270069 20.71689948 80.84701538 20.71989441 C76.63504716 20.7313109 72.4233927 20.76075021 68.21154785 20.79400635 C63.90800215 20.82477643 59.60440541 20.83841453 55.30078125 20.85351562 C46.86702796 20.88562336 38.43358924 20.93836482 30 21 Z M30 72 C30 82.23 30 92.46 30 103 C39.30127668 103.04520754 48.60248023 103.08189124 57.90384197 103.10362434 C62.22296421 103.1140558 66.5420073 103.12820337 70.86108398 103.15087891 C75.03023366 103.17263001 79.19930725 103.18457343 83.36850929 103.18975449 C84.95809946 103.19344617 86.54768554 103.2006551 88.13724327 103.21146011 C90.36591931 103.22600526 92.59428208 103.22797669 94.82299805 103.22705078 C96.09096725 103.231492 97.35893646 103.23593323 98.66532898 103.24050903 C102.75237904 102.94573559 105.66409734 102.14090162 108.79296875 99.46875 C110.69621868 95.57601874 110.3930095 91.77022389 110.3125 87.5 C110.31733398 86.21802734 110.31733398 86.21802734 110.32226562 84.91015625 C110.36204451 79.13899814 110.36204451 79.13899814 108 74 C103.87442987 71.8632385 100.33182038 71.75705762 95.73120117 71.77294922 C95.01846039 71.77265717 94.3057196 71.77236511 93.57138062 71.77206421 C91.22845044 71.77345143 88.88584299 71.78898364 86.54296875 71.8046875 C84.91343866 71.8084198 83.28390631 71.81126575 81.65437317 71.81326294 C77.37506871 71.82088233 73.095901 71.8405162 68.81665039 71.8626709 C64.44614512 71.88316589 60.07561765 71.89227246 55.70507812 71.90234375 C47.13664914 71.92376377 38.56835736 71.95893203 30 72 Z " class="cls-1" transform="translate(766,353)"/>
<path d="M0 0 C0.9591481 -0.00686325 1.9182962 -0.0137265 2.9065094 -0.02079773 C6.04598206 -0.03895132 9.18494952 -0.03524469 12.32446289 -0.02954102 C14.52584493 -0.03410816 16.72722555 -0.03941531 18.92860413 -0.04542542 C23.53058687 -0.05433399 28.13239586 -0.05195888 32.734375 -0.04199219 C38.60952761 -0.03050318 44.4840791 -0.05072502 50.35915279 -0.07990932 C54.90185812 -0.09832135 59.4444207 -0.09796891 63.98715401 -0.0922718 C66.15232753 -0.09211922 68.31751112 -0.09811151 70.48264885 -0.11056328 C95.55843798 -0.23448078 95.55843798 -0.23448078 103.85961914 7.02905273 C108.59031671 15.01210489 109.28456619 22.90865079 109.04711914 32.02905273 C109.03358398 33.03323242 109.02004883 34.03741211 109.00610352 35.07202148 C108.97118066 37.51662138 108.92214662 39.96003007 108.85961914 42.40405273 C103.3435526 44.11619215 97.87752393 45.16016436 92.17211914 46.02905273 C90.91044922 46.23014648 90.91044922 46.23014648 89.62329102 46.43530273 C85.94772313 47.00660432 82.59856165 47.40405273 78.85961914 47.40405273 C78.85961914 39.48405273 78.85961914 31.56405273 78.85961914 23.40405273 C53.11961914 23.40405273 27.37961914 23.40405273 0.85961914 23.40405273 C0.85961914 49.47405273 0.85961914 75.54405273 0.85961914 102.40405273 C26.59961914 102.40405273 52.33961914 102.40405273 78.85961914 102.40405273 C78.85961914 93.49405273 78.85961914 84.58405273 78.85961914 75.40405273 C88.99561528 76.53027453 88.99561528 76.53027453 92.82446289 77.34155273 C93.64366211 77.51428711 94.46286133 77.68702148 95.30688477 77.86499023 C96.53955078 78.13182617 96.53955078 78.13182617 97.79711914 78.40405273 C99.07039063 78.67088867 99.07039063 78.67088867 100.36938477 78.94311523 C106.59050506 80.2694957 106.59050506 80.2694957 108.85961914 81.40405273 C108.94783022 85.36224199 109.00041326 89.32017335 109.04711914 93.27905273 C109.07225586 94.38764648 109.09739258 95.49624023 109.12329102 96.63842773 C109.20562877 105.97003971 108.37039143 114.96543642 101.64868164 122.00170898 C91.49795356 129.95828405 74.30305947 127.56694309 62.18383789 127.57202148 C60.36839269 127.57524173 58.55294773 127.57860635 56.73750305 127.58210754 C52.94429931 127.5880703 49.15111825 127.58995037 45.35791016 127.58935547 C40.53013733 127.58925396 35.70251193 127.60290754 30.87477398 127.62012768 C27.12809092 127.63131996 23.3814427 127.63327248 19.63474464 127.63274574 C17.85639755 127.63391494 16.07804922 127.63827607 14.29971886 127.64607811 C-15.05782857 127.76283795 -15.05782857 127.76283795 -23.14038086 121.40405273 C-32.41102959 111.99077864 -30.43487794 95.18540379 -30.37084961 82.89233398 C-30.36965285 81.3468581 -30.36920569 79.80138148 -30.36946106 78.25590515 C-30.36791111 75.04311457 -30.35973591 71.83043776 -30.34619141 68.61767578 C-30.32916078 64.52971272 -30.32537932 60.44187338 -30.32613659 56.35387897 C-30.3258629 53.17173616 -30.32035072 49.98961959 -30.31313515 46.80748558 C-30.30998721 45.30101913 -30.30799031 43.79454977 -30.30724144 42.28808022 C-30.27916618 15.35652699 -30.27916618 15.35652699 -23.01538086 5.52905273 C-16.26061889 0.53640258 -8.15894504 -0.04165009 0 0 Z " class="cls-1" transform="translate(445.140380859375,352.595947265625)"/>
<path d="M0 0 C42.9 0 85.8 0 130 0 C130 7.26 130 14.52 130 22 C97 22 64 22 30 22 C30 30.91 30 39.82 30 49 C49.47 49 68.94 49 89 49 C89 56.59 89 64.18 89 72 C69.53 72 50.06 72 30 72 C30 81.9 30 91.8 30 102 C63.33 102 96.66 102 131 102 C131 110.25 131 118.5 131 127 C87.77 127 44.54 127 0 127 C0 85.09 0 43.18 0 0 Z " class="cls-1" transform="translate(938,353)"/>
<path d="M0 0 C42.9 0 85.8 0 130 0 C130 7.26 130 14.52 130 22 C97 22 64 22 30 22 C30 30.91 30 39.82 30 49 C49.47 49 68.94 49 89 49 C89 56.59 89 64.18 89 72 C69.53 72 50.06 72 30 72 C30 81.9 30 91.8 30 102 C63.33 102 96.66 102 131 102 C131 110.25 131 118.5 131 127 C87.77 127 44.54 127 0 127 C0 85.09 0 43.18 0 0 Z " class="cls-1" transform="translate(149,353)"/>
<path d="M0 0 C9.9 0 19.8 0 30 0 C30 33.66 30 67.32 30 102 C57.39 102 84.78 102 113 102 C113 68.34 113 34.68 113 0 C122.9 0 132.8 0 143 0 C143.04525939 13.25682238 143.08192119 26.5135931 143.10362434 39.77047539 C143.11404293 45.9267655 143.12816699 52.08299981 143.15087891 58.23925781 C143.17267588 64.18500438 143.1845831 70.13069741 143.18975449 76.07648087 C143.19343794 78.34016894 143.20063072 80.60385422 143.21146011 82.86751938 C143.22606606 86.04829902 143.22797413 89.22885996 143.22705078 92.40966797 C143.23424133 93.33684128 143.24143188 94.26401459 143.24884033 95.21928406 C143.22040993 104.32341733 142.56502865 114.43497135 135.8125 121.1875 C123.89829764 128.86554152 109.07981681 127.16253796 95.484375 127.16796875 C93.58164445 127.17118873 91.67891414 127.17455334 89.77618408 127.17805481 C85.79886298 127.18401987 81.82156353 127.18589743 77.84423828 127.18530273 C72.78339813 127.18520128 67.7226988 127.19884774 62.66189194 127.21607494 C58.73416525 127.22727126 54.80647178 127.22921961 50.87873077 127.22869301 C49.01468674 127.22986187 47.15064153 127.23422109 45.28661346 127.24202538 C14.25728836 127.35978018 14.25728836 127.35978018 6 121 C-0.06291931 113.82022714 -0.29247552 106.25087531 -0.22705078 97.29125977 C-0.22734283 96.23685196 -0.22763489 95.18244415 -0.22793579 94.09608459 C-0.22654786 90.62777336 -0.21101176 87.15967974 -0.1953125 83.69140625 C-0.19158047 81.2800254 -0.18873439 78.86864304 -0.18673706 76.45726013 C-0.17911562 70.12301416 -0.15947983 63.78886049 -0.1373291 57.45465088 C-0.11683864 50.98605599 -0.1077285 44.51744614 -0.09765625 38.04882812 C-0.07623259 25.36583842 -0.0410625 12.68294134 0 0 Z " class="cls-1" transform="translate(587,353)"/>
<path d="M0 0 C9.9 0 19.8 0 30 0 C30 33.66 30 67.32 30 102 C61.02 102 92.04 102 124 102 C124 110.25 124 118.5 124 127 C83.08 127 42.16 127 0 127 C0 85.09 0 43.18 0 0 Z " class="cls-1" transform="translate(0,353)"/>
<path d="M0 0 C1.39365803 -0.01151247 2.78727221 -0.03195327 4.18066406 -0.06152344 C6.20171856 -0.10439211 8.22146611 -0.12039378 10.24291992 -0.13061523 C12.05240112 -0.15248901 12.05240112 -0.15248901 13.8984375 -0.17480469 C17.97748716 0.39111752 20.12736081 1.69241672 23.28588867 4.29516602 C24.83156437 8.93219312 24.34324495 13.41988253 24.28588867 18.29516602 C20.32588867 18.62516602 16.36588867 18.95516602 12.28588867 19.29516602 C12.28588867 16.65516602 12.28588867 14.01516602 12.28588867 11.29516602 C5.68588867 11.29516602 -0.91411133 11.29516602 -7.71411133 11.29516602 C-5.70452951 16.31912056 -4.94744746 17.30433906 -0.90161133 20.42016602 C0.07549805 21.1871582 1.05260742 21.95415039 2.05932617 22.74438477 C2.58107422 23.15221191 3.10282227 23.56003906 3.64038086 23.98022461 C7.13440387 26.77233261 10.4955446 29.72910077 13.86914062 32.66479492 C16.62932438 35.03115754 18.99434465 36.649394 22.28588867 38.29516602 C26.57588867 34.66516602 30.86588867 31.03516602 35.28588867 27.29516602 C40.06326065 29.20611481 41.91311679 30.6332994 45.28588867 34.29516602 C43.97431351 38.22989149 41.9520542 39.42200025 38.72338867 41.98266602 C37.71147461 42.7909082 36.69956055 43.59915039 35.65698242 44.43188477 C34.87452148 45.04676758 34.09206055 45.66165039 33.28588867 46.29516602 C34.85856185 50.64314481 38.24759773 53.04284515 41.72338867 55.85766602 C48.42526472 61.36514831 48.42526472 61.36514831 51.28588867 64.29516602 C47.78677172 64.50054504 44.28922201 64.62346542 40.78588867 64.73266602 C39.80362305 64.79131836 38.82135742 64.8499707 37.80932617 64.91040039 C32.12545417 65.04302407 28.92944679 64.58484187 24.56713867 60.76782227 C23.44719743 59.63559106 22.34315921 58.48612987 21.28588867 57.29516602 C18.60197751 58.87393729 16.10962635 60.43494442 13.66503906 62.37353516 C9.3486493 64.82814854 6.21474201 64.85910542 1.34448242 64.79125977 C0.49918472 64.792715 -0.34611298 64.79417023 -1.21702576 64.79566956 C-2.99628156 64.7940161 -4.77555249 64.78251698 -6.5546875 64.76171875 C-9.27185989 64.73271673 -11.98708437 64.74113033 -14.7043457 64.75415039 C-16.4380791 64.74791354 -18.17180637 64.73952302 -19.90551758 64.72875977 C-21.11819054 64.73316322 -21.11819054 64.73316322 -22.35536194 64.73765564 C-26.94956255 64.66108715 -29.99191488 64.27441258 -33.71411133 61.29516602 C-36.63109297 56.91969355 -36.86523662 52.97492387 -36.90161133 47.79516602 C-36.91579102 46.87735352 -36.9299707 45.95954102 -36.94458008 45.01391602 C-36.56559141 40.54313445 -35.42501854 37.98830055 -32.21411133 34.85766602 C-21.19739158 26.29516602 -21.19739158 26.29516602 -16.71411133 26.29516602 C-17.37411133 25.59391602 -18.03411133 24.89266602 -18.71411133 24.17016602 C-22.19656806 18.96520381 -21.5621063 12.24550364 -20.71411133 6.29516602 C-16.72628195 -1.43696118 -7.40310425 0.04259154 0 0 Z M-15.90161133 37.17016602 C-16.55581055 37.51563477 -17.21000977 37.86110352 -17.8840332 38.21704102 C-19.91001612 39.44234872 -21.28005864 40.40192843 -22.71411133 42.29516602 C-23.28071016 45.70258315 -23.12209897 48.87572215 -22.71411133 52.29516602 C-18.6573945 52.3694858 -14.60094287 52.42384735 -10.54370117 52.45996094 C-9.16439915 52.47502023 -7.7851448 52.49547215 -6.40600586 52.52148438 C-4.42037729 52.55799016 -2.43439515 52.57331455 -0.44848633 52.58813477 C0.74550781 52.60384521 1.93950195 52.61955566 3.16967773 52.63574219 C6.52082238 52.2694897 7.86174259 51.56977062 10.28588867 49.29516602 C8.25315064 44.70929913 5.11574875 42.22970902 1.34838867 39.04516602 C0.71481445 38.49086914 0.08124023 37.93657227 -0.5715332 37.36547852 C-1.18448242 36.84211914 -1.79743164 36.31875977 -2.42895508 35.77954102 C-2.98703857 35.30226563 -3.54512207 34.82499023 -4.12011719 34.33325195 C-8.31483047 31.60145215 -12.2071851 34.96166247 -15.90161133 37.17016602 Z " class="cls-1" transform="translate(718.714111328125,504.704833984375)"/>
<path d="M0 0 C22.11 0 44.22 0 67 0 C67 3.96 67 7.92 67 12 C50.17 12 33.34 12 16 12 C16 16.29 16 20.58 16 25 C25.9 25 35.8 25 46 25 C46 28.96 46 32.92 46 37 C36.1 37 26.2 37 16 37 C16 41.62 16 46.24 16 51 C32.83 51 49.66 51 67 51 C67 55.29 67 59.58 67 64 C44.89 64 22.78 64 0 64 C0 42.88 0 21.76 0 0 Z " class="cls-1" transform="translate(0,505)"/>
<path d="M0 0 C12.7153125 -0.061875 12.7153125 -0.061875 25.6875 -0.125 C29.69136841 -0.15231201 29.69136841 -0.15231201 33.77612305 -0.18017578 C35.89631957 -0.18601807 38.01651834 -0.19111425 40.13671875 -0.1953125 C41.23391235 -0.20554443 42.33110596 -0.21577637 43.46154785 -0.22631836 C44.51668579 -0.22656006 45.57182373 -0.22680176 46.65893555 -0.22705078 C47.5716069 -0.231492 48.48427826 -0.23593323 49.42460632 -0.24050903 C53.05217749 0.09826 55.90389536 1.15329584 58.78759766 3.38085938 C60.98045625 6.30938096 60.42778368 9.986953 60.375 13.5 C60.38660156 14.27214844 60.39820313 15.04429687 60.41015625 15.83984375 C60.38059312 21.5258184 60.38059312 21.5258184 58.60009766 23.74414062 C57 25 57 25 55 25 C55 25.66 55 26.32 55 27 C55.61875 27.2475 56.2375 27.495 56.875 27.75 C59.48482119 29.28518894 59.91804431 30.19352979 61 33 C61.61273438 37.99217276 62.17962428 43.50464095 59.984375 48.1484375 C57.88727922 50.73822446 56.16169313 51.94610229 53 53 C51.26654193 53.0878506 49.52986731 53.11764814 47.79418945 53.11352539 C46.18066589 53.11334412 46.18066589 53.11334412 44.5345459 53.11315918 C43.40552856 53.10804321 42.27651123 53.10292725 41.11328125 53.09765625 C40.07441772 53.09664917 39.0355542 53.09564209 37.96520996 53.09460449 C34.08096209 53.0893687 30.19672995 53.07540745 26.3125 53.0625 C17.629375 53.041875 8.94625 53.02125 0 53 C0 35.51 0 18.02 0 0 Z M14 10 C14 13.63 14 17.26 14 21 C18.37823917 21.04938149 22.75633146 21.0857104 27.13476562 21.10986328 C28.6247032 21.11993043 30.11462097 21.13358518 31.60449219 21.15087891 C33.74419028 21.17509653 35.88362753 21.18647564 38.0234375 21.1953125 C39.31169434 21.20578613 40.59995117 21.21625977 41.92724609 21.22705078 C45.10700806 21.32837664 45.10700806 21.32837664 47 19 C47.32752234 16.28545044 47.1308425 13.74769241 47 11 C45.87572365 9.64894855 45.87572365 9.64894855 42.94897461 9.88647461 C41.60008729 9.88663366 40.25119386 9.89232388 38.90234375 9.90234375 C38.19348526 9.9037587 37.48462677 9.90517365 36.75428772 9.90663147 C34.48198288 9.91224557 32.20977525 9.92480037 29.9375 9.9375 C28.40039204 9.94251319 26.86328255 9.94707641 25.32617188 9.95117188 C21.55074358 9.96221958 17.77538829 9.97949359 14 10 Z M14 31 C14 34.96 14 38.92 14 43 C18.3782512 43.02469081 22.75646567 43.04285557 27.13476562 43.05493164 C28.62468166 43.05996514 30.11459274 43.06679242 31.60449219 43.07543945 C33.74415304 43.08754805 35.88374868 43.09323807 38.0234375 43.09765625 C39.95582275 43.10551147 39.95582275 43.10551147 41.92724609 43.11352539 C44.91405228 43.21542631 44.91405228 43.21542631 47 42 C47.02688151 40.35425434 47.04634123 38.70838587 47.0625 37.0625 C47.07410156 36.14597656 47.08570313 35.22945312 47.09765625 34.28515625 C47.25949049 32.03406673 47.25949049 32.03406673 46 31 C43.6243148 30.9116033 41.27791326 30.88469695 38.90234375 30.90234375 C38.19348526 30.9037587 37.48462677 30.90517365 36.75428772 30.90663147 C34.48198288 30.91224557 32.20977525 30.92480037 29.9375 30.9375 C28.40039204 30.94251319 26.86328255 30.94707641 25.32617188 30.95117188 C21.55074358 30.96221958 17.77538829 30.97949359 14 31 Z " class="cls-1" transform="translate(847,516)"/>
<path d="M0 0 C1.36782875 -0.00287018 1.36782875 -0.00287018 2.76329041 -0.00579834 C4.68374916 -0.00715465 6.60421725 -0.00349706 8.5246582 0.00488281 C11.45870585 0.01560257 14.39214298 0.00496231 17.32617188 -0.0078125 C19.19661593 -0.00649105 21.06705961 -0.00392895 22.9375 0 C24.24860497 -0.00607269 24.24860497 -0.00607269 25.5861969 -0.01226807 C30.79771776 0.0277441 34.87127724 0.36034094 39.171875 3.59765625 C40.75719668 5.74664787 40.89809026 7.3069269 41.08984375 9.953125 C41.18845703 11.16548828 41.18845703 11.16548828 41.2890625 12.40234375 C41.34513672 13.32466797 41.34513672 13.32466797 41.40234375 14.265625 C37.13618059 15.40326851 33.83748064 16.265625 29.40234375 16.265625 C29.40234375 14.615625 29.40234375 12.965625 29.40234375 11.265625 C17.85234375 11.265625 6.30234375 11.265625 -5.59765625 11.265625 C-5.59765625 14.565625 -5.59765625 17.865625 -5.59765625 21.265625 C-4.3765918 21.25515137 -3.15552734 21.24467773 -1.89746094 21.23388672 C2.63489854 21.19767349 7.16724523 21.17471965 11.69970703 21.15576172 C13.66099193 21.14570717 15.62226186 21.13206167 17.58349609 21.11474609 C20.40335793 21.09047387 23.22302147 21.07913641 26.04296875 21.0703125 C26.91914856 21.05998993 27.79532837 21.04966736 28.69805908 21.03903198 C29.51860779 21.03888092 30.33915649 21.03872986 31.18457031 21.03857422 C31.90404846 21.034133 32.62352661 21.02969177 33.36480713 21.02511597 C35.7614534 21.30801399 37.34609107 22.01773458 39.40234375 23.265625 C41.33233277 26.1384511 41.65822627 28.47240507 41.66796875 31.890625 C41.67183594 33.19773437 41.67183594 33.19773437 41.67578125 34.53125 C41.66804688 35.43359375 41.6603125 36.3359375 41.65234375 37.265625 C41.66394531 38.61914062 41.66394531 38.61914062 41.67578125 40 C41.67320312 40.87140625 41.670625 41.7428125 41.66796875 42.640625 C41.66571289 43.43210937 41.66345703 44.22359375 41.66113281 45.0390625 C41.36416183 47.59413361 40.8376506 49.12914291 39.40234375 51.265625 C36.34325254 53.16879401 33.99350774 53.51786137 30.421875 53.52441406 C29.43405029 53.53071838 28.44622559 53.53702271 27.4284668 53.54351807 C26.36797119 53.5394696 25.30747559 53.53542114 24.21484375 53.53125 C22.57286011 53.53412018 22.57286011 53.53412018 20.89770508 53.53704834 C18.58447032 53.53840868 16.27122788 53.5347228 13.95800781 53.52636719 C10.4158413 53.51566578 6.87418197 53.52626785 3.33203125 53.5390625 C1.0846343 53.53774088 -1.16276234 53.53517843 -3.41015625 53.53125 C-4.47065186 53.53529846 -5.53114746 53.53934692 -6.6237793 53.54351807 C-7.611604 53.53721375 -8.59942871 53.53090942 -9.6171875 53.52441406 C-10.48448486 53.52282288 -11.35178223 53.52123169 -12.24536133 53.51959229 C-14.8181169 53.2418228 -16.41923028 52.64719618 -18.59765625 51.265625 C-20.85657583 47.31251574 -20.77324453 43.74312618 -20.59765625 39.265625 C-16.42028151 37.67424415 -13.0660484 37.05284442 -8.59765625 37.265625 C-8.59765625 39.245625 -8.59765625 41.225625 -8.59765625 43.265625 C3.94234375 43.265625 16.48234375 43.265625 29.40234375 43.265625 C29.40234375 39.635625 29.40234375 36.005625 29.40234375 32.265625 C28.28263184 32.27609863 27.16291992 32.28657227 26.00927734 32.29736328 C21.83841168 32.33367799 17.66755988 32.35656713 13.49658203 32.37548828 C11.69447476 32.38551976 9.89238365 32.39914815 8.09033203 32.41650391 C5.4937744 32.440878 2.89743278 32.45213678 0.30078125 32.4609375 C-0.49945465 32.47126007 -1.29969055 32.48158264 -2.12417603 32.49221802 C-7.34320722 32.49325492 -12.1535901 32.2040223 -16.41015625 28.828125 C-19.21464572 25.13800728 -18.81565937 20.8646948 -18.84765625 16.453125 C-18.86828125 15.75380859 -18.88890625 15.05449219 -18.91015625 14.33398438 C-18.94589794 9.55800146 -18.38465844 6.18265118 -15.59765625 2.265625 C-10.44954027 -0.08042145 -5.54119301 -0.02572492 0 0 Z " class="cls-1" transform="translate(99.59765625,515.734375)"/>
<path d="M0 0 C12.7153125 -0.061875 12.7153125 -0.061875 25.6875 -0.125 C29.69136841 -0.15231201 29.69136841 -0.15231201 33.77612305 -0.18017578 C35.89631957 -0.18601807 38.01651834 -0.19111425 40.13671875 -0.1953125 C41.23391235 -0.20554443 42.33110596 -0.21577637 43.46154785 -0.22631836 C44.51668579 -0.22656006 45.57182373 -0.22680176 46.65893555 -0.22705078 C47.5716069 -0.231492 48.48427826 -0.23593323 49.42460632 -0.24050903 C53.0172838 0.09500138 55.86145855 1.17804914 58.78320312 3.28735352 C61.46344289 7.05980174 60.5104152 12.48760651 60.5 16.9375 C60.52835938 18.03513672 60.55671875 19.13277344 60.5859375 20.26367188 C60.60546079 28.26333812 60.60546079 28.26333812 57.80078125 31.67578125 C55.03330315 32.98425416 52.70487379 33.76722019 49.6875 34.25 C48.80449219 34.39953125 47.92148438 34.5490625 47.01171875 34.703125 C46.34785156 34.80109375 45.68398437 34.8990625 45 35 C53.72652209 42.53524953 53.72652209 42.53524953 62.8125 49.625 C63.864375 50.40875 64.91625 51.1925 66 52 C66 52.33 66 52.66 66 53 C48.59456951 54.13135298 48.59456951 54.13135298 43.3125 51.828125 C41.31010512 50.0156124 39.68789103 48.10986379 38 46 C30.12283943 37.28410866 30.12283943 37.28410866 19.25 33.8125 C17.5175 33.874375 15.785 33.93625 14 34 C14 40.27 14 46.54 14 53 C9.38 53 4.76 53 0 53 C0 35.51 0 18.02 0 0 Z M14 10 C14 14.62 14 19.24 14 24 C18.21780188 24.04592888 22.43473513 24.08574749 26.65258789 24.10986328 C28.08718812 24.119917 29.52176789 24.13356194 30.95629883 24.15087891 C33.01909438 24.17515549 35.08161885 24.18648919 37.14453125 24.1953125 C38.38565674 24.20578613 39.62678223 24.21625977 40.90551758 24.22705078 C44.16903309 24.2428807 44.16903309 24.2428807 47 22 C47.36460453 19.33346095 47.36460453 19.33346095 47.1875 16.375 C47.16042969 15.37210938 47.13335938 14.36921875 47.10546875 13.3359375 C47.05326172 12.17964844 47.05326172 12.17964844 47 11 C44.02640551 9.51320275 41.33700821 9.88887395 38.0234375 9.90234375 C37.33819 9.9037587 36.6529425 9.90517365 35.94692993 9.90663147 C33.75624239 9.91223325 31.5656567 9.92478594 29.375 9.9375 C27.89062648 9.94251478 26.40625135 9.94707772 24.921875 9.95117188 C21.2811791 9.96135279 17.64070369 9.98092763 14 10 Z " class="cls-1" transform="translate(1003,516)"/>
<path d="M0 0 C6.6825 -0.061875 13.365 -0.12375 20.25 -0.1875 C23.3751709 -0.22846802 23.3751709 -0.22846802 26.56347656 -0.27026367 C51.01423639 -0.45935599 51.01423639 -0.45935599 60.37890625 7.38671875 C66.33660818 13.31570886 67.23704524 18.68099832 67.3125 26.75 C67.32002843 34.19645355 66.44253666 39.01488963 61.5625 44.6640625 C52.35335472 53.6518341 40.69248719 53.47489537 28.62817383 53.36035156 C26.37900146 53.32393555 24.1298291 53.28751953 21.8125 53.25 C14.614375 53.1675 7.41625 53.085 0 53 C0 35.51 0 18.02 0 0 Z M14 11 C14 21.56 14 32.12 14 43 C33.68895671 44.39962606 33.68895671 44.39962606 50.7578125 36.53515625 C54.35624446 32.08803751 53.50408164 25.36740452 53 20 C50.66544216 14.88193089 48.10625406 13.12349424 43 11 C39.62207048 10.59140658 39.62207048 10.59140658 36.0703125 10.70703125 C34.90773926 10.71452393 33.74516602 10.7220166 32.54736328 10.72973633 C31.0879834 10.75704834 29.62860352 10.78436035 28.125 10.8125 C21.133125 10.9053125 21.133125 10.9053125 14 11 Z " class="cls-1" transform="translate(456,516)"/>
<path d="M0 0 C1.3940078 -0.00642769 1.3940078 -0.00642769 2.81617737 -0.01298523 C4.77531116 -0.01871029 6.73446619 -0.01924228 8.69360352 -0.01489258 C11.6782686 -0.01173266 14.66194163 -0.03521454 17.64648438 -0.06054688 C19.55598834 -0.06282018 21.46549495 -0.06352322 23.375 -0.0625 C24.26062119 -0.07170975 25.14624237 -0.08091949 26.05870056 -0.09040833 C31.5450596 -0.04977398 35.39364513 0.70116241 40.25390625 3.30078125 C42.76034906 6.45095528 42.46403794 9.63472369 42.37890625 13.55078125 C42.36085937 14.6284375 42.3428125 15.70609375 42.32421875 16.81640625 C42.30101562 17.63625 42.2778125 18.45609375 42.25390625 19.30078125 C37.49083188 20.25339612 33.08725345 20.38411482 28.25390625 20.30078125 C28.25390625 17.33078125 28.25390625 14.36078125 28.25390625 11.30078125 C17.36390625 11.30078125 6.47390625 11.30078125 -4.74609375 11.30078125 C-4.74609375 21.53078125 -4.74609375 31.76078125 -4.74609375 42.30078125 C6.14390625 42.30078125 17.03390625 42.30078125 28.25390625 42.30078125 C28.25390625 38.67078125 28.25390625 35.04078125 28.25390625 31.30078125 C30.21287025 31.6093031 32.17106338 31.92272305 34.12890625 32.23828125 C35.21945313 32.41230469 36.31 32.58632813 37.43359375 32.765625 C40.25390625 33.30078125 40.25390625 33.30078125 42.25390625 34.30078125 C42.30832281 36.19629147 42.3468866 38.09226045 42.37890625 39.98828125 C42.40210938 41.04402344 42.4253125 42.09976563 42.44921875 43.1875 C42.24722742 46.40724173 41.82104786 48.48682571 40.25390625 51.30078125 C37.25381774 53.19794654 34.8960907 53.55965316 31.38110352 53.59130859 C30.41652725 53.6040683 29.45195099 53.616828 28.45814514 53.62997437 C26.90491798 53.63331284 26.90491798 53.63331284 25.3203125 53.63671875 C24.25022446 53.64337555 23.18013641 53.65003235 22.07762146 53.65689087 C19.81568113 53.66701095 17.55371099 53.67170809 15.29174805 53.67138672 C11.83267032 53.67576068 8.3748677 53.71209073 4.91601562 53.75 C2.71745228 53.7558681 0.51888287 53.75983754 -1.6796875 53.76171875 C-2.71314804 53.77608978 -3.74660858 53.79046082 -4.81138611 53.80526733 C-9.22257281 53.77721899 -11.98779399 53.73184718 -15.87524414 51.52197266 C-19.45350083 47.27363919 -18.91974633 42.36625233 -18.94921875 37.02734375 C-18.95491882 36.22597992 -18.9606189 35.42461609 -18.9664917 34.59896851 C-18.97592146 32.90616163 -18.98246763 31.21333656 -18.98632812 29.52050781 C-18.99603373 26.94172918 -19.02707544 24.36374802 -19.05859375 21.78515625 C-19.06512458 20.13672346 -19.07037474 18.488285 -19.07421875 16.83984375 C-19.08656555 16.07402985 -19.09891235 15.30821594 -19.1116333 14.51919556 C-19.0920325 9.76837034 -18.60114573 6.29018642 -15.74609375 2.30078125 C-10.80620848 -0.29755818 -5.45712362 -0.00560321 0 0 Z " class="cls-1" transform="translate(175.74609375,515.69921875)"/>
<path d="M0 0 C18.81 0 37.62 0 57 0 C57 3.3 57 6.6 57 10 C42.81 10 28.62 10 14 10 C14 13.63 14 17.26 14 21 C22.25 21 30.5 21 39 21 C39 24.3 39 27.6 39 31 C30.75 31 22.5 31 14 31 C14 34.96 14 38.92 14 43 C28.52 43 43.04 43 58 43 C58 46.3 58 49.6 58 53 C38.86 53 19.72 53 0 53 C0 35.51 0 18.02 0 0 Z " class="cls-1" transform="translate(535,516)"/>
<path d="M0 0 C6.66110505 2.28481934 8.97422804 8.29957117 11.89794922 14.22802734 C12.59852139 15.54781491 13.30489284 16.86453939 14.0168457 18.17822266 C15.46253811 20.85329623 16.88421118 23.53918034 18.29199219 26.234375 C21.40615627 32.12819814 24.93552292 37.75989599 28.46044922 43.41552734 C29.62075556 45.29403723 30.77858902 47.1740785 31.93310547 49.05615234 C32.41142822 49.82991211 32.88975098 50.60367188 33.38256836 51.40087891 C34.39794922 53.16552734 34.39794922 53.16552734 34.39794922 54.16552734 C31.84913651 54.43796576 29.32935052 54.63383024 26.77294922 54.79052734 C26.06009766 54.87431641 25.34724609 54.95810547 24.61279297 55.04443359 C22.19976028 55.15512317 20.63250683 55.11720998 18.39794922 54.16552734 C17.14648438 51.93457031 17.14648438 51.93457031 15.96044922 49.19677734 C14.64118855 46.36174428 14.64118855 46.36174428 12.39794922 44.16552734 C6.61500597 42.71340902 0.95116617 42.90038608 -4.97705078 43.04052734 C-6.5877288 43.04247065 -8.19841893 43.03991261 -9.80908203 43.03271484 C-13.74212363 43.0249117 -17.67000845 43.07859983 -21.60205078 43.16552734 C-22.71253796 45.92762892 -23.80092382 48.69254088 -24.85205078 51.47802734 C-28.39011616 54.93568215 -30.00251071 54.54541599 -34.85205078 54.54052734 C-37.10345366 54.44403865 -39.35443065 54.32778869 -41.60205078 54.16552734 C-37.97444049 46.67186768 -33.97304168 39.53029504 -29.60351562 32.44775391 C-26.63860762 27.6225637 -23.83460631 22.7697419 -21.19970703 17.75537109 C-20.33140259 16.17115356 -20.33140259 16.17115356 -19.44555664 14.55493164 C-18.32191273 12.50223423 -17.2385342 10.42684235 -16.2019043 8.32885742 C-12.20387792 1.20892485 -8.20996634 -0.64892757 0 0 Z M-4.60205078 13.16552734 C-6.72996524 16.41959961 -8.64230927 19.80806495 -10.60205078 23.16552734 C-11.23820312 24.2309375 -11.23820312 24.2309375 -11.88720703 25.31787109 C-13.93214281 28.52301885 -13.93214281 28.52301885 -14.60205078 32.16552734 C-7.67205078 32.16552734 -0.74205078 32.16552734 6.39794922 32.16552734 C3.21597956 25.72927054 0.05067355 19.34706083 -3.60205078 13.16552734 C-3.93205078 13.16552734 -4.26205078 13.16552734 -4.60205078 13.16552734 Z " class="cls-1" transform="translate(265.60205078125,514.83447265625)"/>
<path d="M0 0 C4.79716688 -1.50913912 9.37077161 -2.2794832 14 0 C19.30040649 5.42957729 22.52788787 12.78432919 26.04638672 19.42529297 C28.11230973 23.26714053 30.36850091 26.98092975 32.66015625 30.69140625 C33.05284195 31.32768951 33.44552765 31.96397278 33.85011292 32.61953735 C34.63591998 33.89045365 35.42239807 35.1609553 36.20956421 36.43103027 C38.07546348 39.44332234 39.93059399 42.46183326 41.7734375 45.48828125 C42.39653809 46.50446533 43.01963867 47.52064941 43.66162109 48.56762695 C45 51 45 51 45 53 C39.87403116 53.5282487 35.10814393 53.80598718 30 53 C26.93468739 50.45840914 25.35104047 47.72376329 24 44 C24 43.34 24 42.68 24 42 C19.26623385 41.8953484 14.53810152 41.85677037 9.80322266 41.87792969 C8.19502832 41.87598938 6.58675025 41.85636601 4.97900391 41.81835938 C-0.17702418 41.70342624 -4.97813505 41.74033937 -10 43 C-12.34081176 45.46431795 -13.46671445 47.6658704 -14.81103516 50.76904297 C-15.20339355 51.50525879 -15.59575195 52.24147461 -16 53 C-19.6484375 53.9765625 -19.6484375 53.9765625 -23.375 53.625 C-24.62023437 53.53476562 -25.86546875 53.44453125 -27.1484375 53.3515625 C-28.08945312 53.23554687 -29.03046875 53.11953125 -30 53 C-28.61049723 49.29396048 -26.92691898 45.95137815 -24.9453125 42.52734375 C-24.33574707 41.47160156 -23.72618164 40.41585937 -23.09814453 39.328125 C-22.44700684 38.20921875 -21.79586914 37.0903125 -21.125 35.9375 C-20.45284653 34.77741078 -19.78080985 33.61725389 -19.10888672 32.45703125 C-13.50184696 22.79272204 -7.77705514 13.20005712 -1.97705078 3.65039062 C-1.27209894 2.45961741 -0.61885345 1.23770689 0 0 Z M6 12 C4.32992313 14.97726736 2.66451428 17.9571197 1 20.9375 C0.52304687 21.78763672 0.04609375 22.63777344 -0.4453125 23.51367188 C-1.12207031 24.72700195 -1.12207031 24.72700195 -1.8125 25.96484375 C-2.23144531 26.7137085 -2.65039062 27.46257324 -3.08203125 28.23413086 C-4.07687345 29.81617648 -4.07687345 29.81617648 -4 31 C2.93 31 9.86 31 17 31 C15.74835013 27.87087533 14.69858563 25.28626875 13.0546875 22.44921875 C12.70019531 21.83369141 12.34570312 21.21816406 11.98046875 20.58398438 C11.43326172 19.64522461 11.43326172 19.64522461 10.875 18.6875 C10.50246094 18.04232422 10.12992188 17.39714844 9.74609375 16.73242188 C8.83367787 15.15324055 7.91724491 13.57638136 7 12 C6.67 12 6.34 12 6 12 Z " class="cls-1" transform="translate(947,516)"/>
<path d="M0 0 C4.2527751 -0.24441236 6.83094815 -0.02265484 10.7734375 1.6796875 C15.38363814 6.33518646 18.06808124 12.64870324 21.02490234 18.41259766 C22.97051345 22.04791849 25.0677214 25.55751979 27.23046875 29.06640625 C27.61602432 29.69199432 28.0015799 30.3175824 28.39881897 30.96212769 C29.17786809 32.2231725 29.95771735 33.48372337 30.7383728 34.74377441 C32.59718172 37.74560436 34.4440791 40.75441676 36.28125 43.76953125 C36.90660645 44.78909912 37.53196289 45.80866699 38.17626953 46.85913086 C39.7734375 49.6796875 39.7734375 49.6796875 41.7734375 54.6796875 C36.4934375 54.6796875 31.2134375 54.6796875 25.7734375 54.6796875 C20.7734375 45.9296875 20.7734375 45.9296875 20.7734375 43.6796875 C9.2234375 43.6796875 -2.3265625 43.6796875 -14.2265625 43.6796875 C-14.8865625 45.6596875 -15.5465625 47.6396875 -16.2265625 49.6796875 C-17.37109375 52.53515625 -17.37109375 52.53515625 -19.2265625 54.6796875 C-22.05692806 55.06634946 -24.12321366 55.16027508 -26.9140625 54.9921875 C-28.85116089 54.90940552 -28.85116089 54.90940552 -30.82739258 54.82495117 C-31.94911865 54.77701416 -33.07084473 54.72907715 -34.2265625 54.6796875 C-29.10743937 45.67846187 -23.93245574 36.71235128 -18.68945312 27.78271484 C-17.23182394 25.2999039 -15.77647808 22.81575729 -14.32150269 20.33139038 C-13.61442176 19.12801762 -12.90445636 17.92633448 -12.19143677 16.72647095 C-10.60428744 14.05387444 -9.06343827 11.37367644 -7.60107422 8.63037109 C-4.0477562 2.10718543 -4.0477562 2.10718543 0 0 Z M2.7734375 13.6796875 C1.10336063 16.65695486 -0.56204822 19.6368072 -2.2265625 22.6171875 C-2.70351563 23.46732422 -3.18046875 24.31746094 -3.671875 25.19335938 C-4.34863281 26.40668945 -4.34863281 26.40668945 -5.0390625 27.64453125 C-5.45800781 28.393396 -5.87695312 29.14226074 -6.30859375 29.91381836 C-7.30343595 31.49586398 -7.30343595 31.49586398 -7.2265625 32.6796875 C-0.2965625 32.6796875 6.6334375 32.6796875 13.7734375 32.6796875 C12.5153125 30.1015625 11.2571875 27.5234375 9.9609375 24.8671875 C9.57059326 24.05918701 9.18024902 23.25118652 8.77807617 22.41870117 C8.4607251 21.77650635 8.14337402 21.13431152 7.81640625 20.47265625 C7.49696045 19.8180542 7.17751465 19.16345215 6.84838867 18.48901367 C5.70441856 16.56351686 4.41599615 15.19133239 2.7734375 13.6796875 Z " class="cls-1" transform="translate(403.2265625,514.3203125)"/>
<path d="M0 0 C4.29 0 8.58 0 13 0 C13 14.19 13 28.38 13 43 C26.53 43 40.06 43 54 43 C54 46.3 54 49.6 54 53 C36.18 53 18.36 53 0 53 C0 35.51 0 18.02 0 0 Z " class="cls-1" transform="translate(311,516)"/>
</svg>
