<svg version="1.1" xmlns="http://www.w3.org/2000/svg" width="362" height="154">
<defs>
<style>
.cls-1{
    fill:#eed4f1
}
</style>
</defs>
<path d="M0 0 C0.2475 0.53625 0.495 1.0725 0.75 1.625 C5.03344469 9.76354492 10.49135404 14.34260962 18 19.375 C23.47194847 23.13435391 28.84996812 27.54990437 31 34 C30.89273197 36.0634982 30.76517399 38.12597568 30.625 40.1875 C30.56429879 45.15948094 30.88211394 47.71448322 34.3125 51.375 C34.95058594 51.98730469 35.58867187 52.59960938 36.24609375 53.23046875 C40.87493643 57.90054834 41.82152493 64.36749272 42.25 70.6875 C42.06876633 80.31100805 38.19303395 87.84630721 31.453125 94.53515625 C25.34004147 99.93924813 18.91917476 100.8800125 11 101 C2.77850886 100.39744772 -3.42147943 96.38508703 -9.3125 90.8125 C-14.83306346 81.61156089 -16.92309613 71.74640408 -14.3046875 61.19921875 C-11.68474835 53.94484944 -7.84500828 48.22432576 -0.875 44.6875 C0.4127271 44.11603877 1.7044013 43.55338325 3 43 C4.33703944 42.34079763 5.67142396 41.67609758 7 41 C6.45730469 40.62488281 5.91460937 40.24976563 5.35546875 39.86328125 C-2.33942682 34.3590046 -2.33942682 34.3590046 -4 30 C-4.53041413 25.6610385 -4.49487401 21.74231102 -2 18 C-1.34 18 -0.68 18 0 18 C-0.515625 17.21625 -1.03125 16.4325 -1.5625 15.625 C-3.43692074 10.89819988 -3.17656474 6.91857141 -2 2 C-1.34 1.34 -0.68 0.68 0 0 Z M0 18 C3.04947759 28.60386526 7.41395098 32.67644988 17 38 C17.33 37.34 17.66 36.68 18 36 C13.33343311 28.95092428 7.47225715 23.38068397 1 18 C0.67 18 0.34 18 0 18 Z M3 48 C-2.53374163 53.71819969 -1.21991438 61.79999745 -1.24023438 69.21679688 C-1.24993698 71.36107221 -1.28098433 73.5043869 -1.3125 75.6484375 C-1.31903147 77.02343185 -1.32428138 78.39843301 -1.328125 79.7734375 C-1.3374707 81.01528809 -1.34681641 82.25713867 -1.35644531 83.53662109 C-0.88886503 88.07983612 0.57467464 91.41021402 3.625 94.8125 C8.53543857 97.26771929 13.47732918 97.24961817 18.8125 96.375 C22.4653492 94.79926113 23.88679847 93.33235626 26 90 C27.1687481 86.4937557 27.12514267 83.3522134 27.09765625 79.70703125 C27.09553383 78.64798836 27.09553383 78.64798836 27.09336853 77.56755066 C27.08777764 75.31582374 27.07522688 73.06419679 27.0625 70.8125 C27.05748382 69.28450665 27.05292112 67.75651173 27.04882812 66.22851562 C27.0378112 62.48563865 27.02055287 58.74283627 27 55 C22.92856122 55 22.03172741 56.54271567 19.125 59.3125 C15.91214619 62.36323734 12.88206811 64.85025261 9 67 C9.51691406 66.21496094 10.03382812 65.42992188 10.56640625 64.62109375 C14.99024927 58.27717768 14.99024927 58.27717768 16.125 50.9375 C15.06183802 48.16146595 14.44516541 46.66271248 12 45 C8.60214907 45 6.00753574 46.52261402 3 48 Z " class="cls-1" transform="translate(112,3)"/>
<path d="M0 0 C0.33 3.3 0.66 6.6 1 10 C2.299375 8.3603125 2.299375 8.3603125 3.625 6.6875 C7.1598301 2.22688107 10.96083146 0.24417228 16.62109375 -0.43359375 C29.71168458 -0.44699251 29.71168458 -0.44699251 35 4 C38.84289723 8.67695288 38.3881564 13.35524902 38.29296875 19.11328125 C38.28872391 20.08283249 38.28447906 21.05238373 38.28010559 22.05131531 C38.263354 25.138663 38.22570789 28.22535062 38.1875 31.3125 C38.17244863 33.40949576 38.15876102 35.50650178 38.14648438 37.60351562 C38.11346192 42.73593023 38.06170347 47.86785331 38 53 C41.3 53 44.6 53 48 53 C48 54.32 48 55.64 48 57 C37.44 57 26.88 57 16 57 C15.505 55.02 15.505 55.02 15 53 C18.63 53 22.26 53 26 53 C25.88128357 47.28901464 25.75700562 41.57818675 25.62768555 35.86743164 C25.58450808 33.92670946 25.54282169 31.98595348 25.50268555 30.04516602 C25.44456434 27.24745523 25.38099284 24.44991186 25.31640625 21.65234375 C25.29969376 20.7916478 25.28298126 19.93095184 25.26576233 19.04417419 C25.14990156 14.2789648 24.77976801 9.70358286 24 5 C18.63387353 3.85011576 14.86472772 3.51496506 10.07446289 6.45654297 C5.51233984 9.85088708 1.76743378 14.27159758 0.59475708 19.96878052 C-0.03840658 25.33976827 0.02268317 30.72518281 0.0625 36.125 C0.04936829 37.76565318 0.03311712 39.4062845 0.01367188 41.046875 C-0.02685433 45.03190889 -0.02516594 49.01486169 0 53 C3.63 53 7.26 53 11 53 C10.67 54.32 10.34 55.64 10 57 C-0.56 57 -11.12 57 -22 57 C-22 55.68 -22 54.36 -22 53 C-18.7 53 -15.4 53 -12 53 C-12 37.49 -12 21.98 -12 6 C-15.3 6 -18.6 6 -22 6 C-22 4.68 -22 3.36 -22 2 C-21.15236084 1.96241577 -21.15236084 1.96241577 -20.28759766 1.92407227 C-17.73316258 1.80820044 -15.1791045 1.68543463 -12.625 1.5625 C-11.29082031 1.50352539 -11.29082031 1.50352539 -9.9296875 1.44335938 C-9.07890625 1.40146484 -8.228125 1.35957031 -7.3515625 1.31640625 C-6.56604004 1.27974854 -5.78051758 1.24309082 -4.97119141 1.20532227 C-3.12434632 1.0129521 -1.77034161 0 0 0 Z " class="cls-1" transform="translate(43,45)"/>
<path d="M0 0 C4.81419826 2.62592633 8.64349503 5.4929851 10.4375 10.875 C10.54985161 12.20951263 10.61325649 13.54854389 10.64282227 14.88745117 C10.6727401 16.0883564 10.6727401 16.0883564 10.70326233 17.31352234 C10.71997482 18.17298965 10.73668732 19.03245697 10.75390625 19.91796875 C10.77468735 20.8015657 10.79546844 21.68516266 10.81687927 22.59553528 C10.88225754 25.41777785 10.94120528 28.24011335 11 31.0625 C11.04319637 32.97592106 11.08681102 34.88933273 11.13085938 36.80273438 C11.23792695 41.49339437 11.33922752 46.18414783 11.4375 50.875 C13.3188003 51.55393704 13.3188003 51.55393704 15.4375 51.875 C17.70894074 50.02067913 17.70894074 50.02067913 19.4375 47.875 C20.4275 48.205 21.4175 48.535 22.4375 48.875 C21.17211332 52.77660892 20.09275211 54.89918805 16.4375 56.875 C11.16860478 58.16737053 7.4846544 57.83778227 2.4375 55.875 C-0.5 53.75 -0.5 53.75 -2.5625 51.875 C-3.00078125 52.22433594 -3.4390625 52.57367188 -3.890625 52.93359375 C-10.41893673 57.61752473 -17.00935068 58.47880207 -24.93359375 57.6171875 C-29.33531569 56.7018956 -32.44296375 55.08628732 -35.5625 51.875 C-37.94083454 47.79785507 -38.14312587 43.49279011 -37.5625 38.875 C-35.83363453 34.14336817 -33.85428399 31.50262285 -29.5625 28.875 C-20.4095462 24.73998389 -11.43359852 24.1255355 -1.5625 23.875 C-1.62263424 21.28922773 -1.70967122 18.7091319 -1.8125 16.125 C-1.82667969 15.39539063 -1.84085937 14.66578125 -1.85546875 13.9140625 C-2.01399794 10.42642024 -2.27940386 8.2587661 -4.375 5.41796875 C-7.59148452 3.14919842 -10.7177454 2.6810304 -14.5625 2.875 C-17.50019553 3.58532362 -19.79765245 4.56533537 -22.5625 5.875 C-22.8925 6.535 -23.2225 7.195 -23.5625 7.875 C-22.9025 8.41125 -22.2425 8.9475 -21.5625 9.5 C-19.5625 11.875 -19.5625 11.875 -19.0625 14.9375 C-19.5625 17.875 -19.5625 17.875 -21.1875 19.75 C-24.22569551 21.18914524 -26.23689432 21.29954541 -29.5625 20.875 C-31.66776328 19.28986059 -32.46225033 18.39983653 -32.9609375 15.7890625 C-32.91228765 11.03759334 -32.84794702 7.58437567 -29.5625 3.875 C-21.19384019 -1.96129939 -9.75616702 -3.22674785 0 0 Z M-21.125 31.3125 C-24.85356115 35.23226941 -24.8078493 38.51328333 -24.69921875 43.65234375 C-24.51633675 46.62548247 -24.33968195 48.43137482 -22.5625 50.875 C-16.8845167 53.08845112 -13.32270271 53.26602754 -7.5625 50.875 C-3.54072471 48.16589077 -3.54072471 48.16589077 -1.5625 43.875 C-1.48276524 42.53974283 -1.45478662 41.20087917 -1.46484375 39.86328125 C-1.46967773 38.72729492 -1.46967773 38.72729492 -1.47460938 37.56835938 C-1.48298828 36.78267578 -1.49136719 35.99699219 -1.5 35.1875 C-1.50451172 34.39021484 -1.50902344 33.59292969 -1.51367188 32.77148438 C-1.5254415 30.80595743 -1.54337652 28.84046915 -1.5625 26.875 C-8.40121534 26.76566007 -15.5695241 26.86811928 -21.125 31.3125 Z " class="cls-1" transform="translate(265.5625,46.125)"/>
<path d="M0 0 C6.57485674 3.79124881 11.94030875 10.01660458 14.6015625 17.11328125 C14.6015625 19.42328125 14.6015625 21.73328125 14.6015625 24.11328125 C3.0515625 24.11328125 -8.4984375 24.11328125 -20.3984375 24.11328125 C-20.2953125 27.28953125 -20.1921875 30.46578125 -20.0859375 33.73828125 C-20.06104248 34.72779785 -20.03614746 35.71731445 -20.01049805 36.73681641 C-19.79677886 41.88167689 -19.26581631 45.67165525 -16.3984375 50.11328125 C-13.01972808 53.0093179 -9.96330542 53.64946445 -5.515625 53.46484375 C0.64958591 52.44110024 5.75565311 48.94813877 9.6015625 44.11328125 C10.82002219 41.47492297 11.70739925 38.88989343 12.6015625 36.11328125 C13.9215625 36.11328125 15.2415625 36.11328125 16.6015625 36.11328125 C15.13933918 44.30173186 11.74256843 50.19638841 4.8515625 55.05078125 C-1.66368604 58.72414043 -9.03922768 58.86614087 -16.16796875 56.9609375 C-23.75106298 54.07909608 -29.05674877 49.51273486 -32.3984375 42.11328125 C-35.68737946 33.68320369 -35.39741114 24.01929019 -32.49609375 15.53125 C-29.41182609 8.73708031 -24.73509945 3.23966497 -17.98828125 -0.0703125 C-12.12450299 -1.91877352 -5.80859899 -2.14747878 0 0 Z M-17.3984375 5.11328125 C-20.64883255 10.63895283 -20.3984375 13.30829349 -20.3984375 20.11328125 C-13.4684375 20.11328125 -6.5384375 20.11328125 0.6015625 20.11328125 C0.68847535 11.98478455 0.68847535 11.98478455 -2.3984375 5.11328125 C-7.63903637 0.94767702 -11.94586416 1.51690309 -17.3984375 5.11328125 Z " class="cls-1" transform="translate(327.3984375,45.88671875)"/>
<path d="M0 0 C10.23 0 20.46 0 31 0 C31 1.32 31 2.64 31 4 C28.36 4.33 25.72 4.66 23 5 C27.62 16.22 32.24 27.44 37 39 C42.1914029 28.63839288 42.1914029 28.63839288 46.8125 18.0625 C47.11091797 17.34771484 47.40933594 16.63292969 47.71679688 15.89648438 C49.19731637 12.28374945 50.41440577 8.88621625 51 5 C47.7 4.67 44.4 4.34 41 4 C41 2.68 41 1.36 41 0 C48.92 0 56.84 0 65 0 C65.495 1.98 65.495 1.98 66 4 C64.824375 4.04125 63.64875 4.0825 62.4375 4.125 C59.36089037 4.9572417 58.22098863 5.69517025 56.33203125 8.30078125 C54.81480692 11.30900628 53.42739513 14.33053714 52.10449219 17.42773438 C50.7927482 20.48267131 49.43254203 23.51411734 48.0703125 26.546875 C45.98662323 31.19493293 43.91864428 35.84934766 41.8671875 40.51171875 C39.29041595 46.36222884 36.66073303 52.18724284 34 58 C33.01 58 32.02 58 31 58 C24.52960956 43.96713263 18.28827269 29.84593007 12.2043457 15.64208984 C11.79573807 14.69169075 11.79573807 14.69169075 11.37887573 13.72209167 C10.63350335 11.98827565 9.89076603 10.2533275 9.14819336 8.51831055 C8.22839639 6.11171533 8.22839639 6.11171533 7 5 C4.67182036 4.63239269 2.3381615 4.29758419 0 4 C0 2.68 0 1.36 0 0 Z " class="cls-1" transform="translate(158,47)"/>
<path d="M0 0 C0.99 0 1.98 0 3 0 C3.99 0 4.98 0 6 0 C6.11608127 4.41644598 6.1872132 8.83250017 6.25 13.25 C6.30027344 15.13138672 6.30027344 15.13138672 6.3515625 17.05078125 C6.36445313 18.25605469 6.37734375 19.46132812 6.390625 20.703125 C6.41157227 21.81333008 6.43251953 22.92353516 6.45410156 24.06738281 C5.89646667 27.66862489 4.85824637 28.81167549 2 31 C-1.71111643 31.74222329 -5.26736303 31.58906562 -9 31 C-11.6875 29 -11.6875 29 -13 27 C-12.01 26.67 -11.02 26.34 -10 26 C-9.34 26.33 -8.68 26.66 -8 27 C-3.95300854 27.41206904 -3.95300854 27.41206904 0 27 C2.08216876 24.6450037 2.08216876 24.6450037 3 22 C2.34 22.33 1.68 22.66 1 23 C-3.63213493 23.55512815 -6.98172127 23.6364242 -11 21.125 C-14.48442732 17.42279597 -14.32855002 14.46811337 -14.29296875 9.55078125 C-13.8511932 5.70438881 -12.52418105 3.89538414 -10 1 C-6.83598119 -0.58200941 -3.46125163 -0.06168567 0 0 Z M-9.4375 5.0625 C-11.38701789 8.72759364 -11.51301543 10.89587659 -11 15 C-9.66216588 18.23896682 -8.92155485 19.6014898 -5.6875 21 C-2.16647924 21 -0.00795021 19.74880826 3 18 C3.08107583 16.06318839 3.13922475 14.1254066 3.1875 12.1875 C3.22230469 11.10855469 3.25710938 10.02960938 3.29296875 8.91796875 C3.24231842 6.02520922 3.24231842 6.02520922 1.703125 4.14453125 C-2.20067268 1.52110758 -6.00225308 2.1557526 -9.4375 5.0625 Z " class="cls-1" transform="translate(274,118)"/>
<path d="M0 0 C0.76183594 -0.02835937 1.52367187 -0.05671875 2.30859375 -0.0859375 C5.65412646 0.59824423 6.65458943 1.52390114 8.5625 4.375 C9.04572207 7.64005484 8.9388992 10.83375938 8.8125 14.125 C8.79445313 15.01316406 8.77640625 15.90132812 8.7578125 16.81640625 C8.71077374 19.00370848 8.64507009 21.18879816 8.5625 23.375 C6.29225032 23.45597324 4.02117925 23.51417704 1.75 23.5625 C-0.14685547 23.61470703 -0.14685547 23.61470703 -2.08203125 23.66796875 C-5.4375 23.375 -5.4375 23.375 -7.33203125 22.04296875 C-9.03295156 19.47656249 -9.3151054 17.43486507 -9.4375 14.375 C-8.29970128 12.04768444 -7.26909286 10.20659286 -5.4375 8.375 C-3.96101124 8.27676004 -2.47974583 8.24526481 -1 8.25 C0.20462891 8.24613281 0.20462891 8.24613281 1.43359375 8.2421875 C3.5625 8.375 3.5625 8.375 5.5625 9.375 C4.9025 7.725 4.2425 6.075 3.5625 4.375 C-2.2349423 4.13071657 -2.2349423 4.13071657 -7.4375 6.375 C-7.4375 5.055 -7.4375 3.735 -7.4375 2.375 C-4.37702368 0.33468245 -3.50254006 0.05906476 0 0 Z M-4.4375 11.375 C-6.75293207 14.14488076 -6.75293207 14.14488076 -6.125 17 C-5.6633486 19.31001965 -5.6633486 19.31001965 -4.4375 20.375 C-0.42092857 20.60418242 -0.42092857 20.60418242 3.5625 20.375 C5.80095015 18.54584359 5.80095015 18.54584359 5.875 15.875 C5.771875 15.05 5.66875 14.225 5.5625 13.375 C1.88253497 10.92168998 -0.09163172 10.97992107 -4.4375 11.375 Z " class="cls-1" transform="translate(55.4375,117.625)"/>
<path d="M0 0 C0.7734375 -0.01675781 1.546875 -0.03351563 2.34375 -0.05078125 C5.07692079 0.40969861 5.80589279 1.14636256 7.5 3.3125 C7.84057617 5.48901367 7.84057617 5.48901367 7.79296875 7.98046875 C7.78330078 8.87314453 7.77363281 9.76582031 7.76367188 10.68554688 C7.73853516 11.61431641 7.71339844 12.54308594 7.6875 13.5 C7.66719727 14.91055664 7.66719727 14.91055664 7.64648438 16.34960938 C7.61113096 18.67115038 7.56178674 20.99153653 7.5 23.3125 C5.23020335 23.42044277 2.95894804 23.49806176 0.6875 23.5625 C-0.57707031 23.60890625 -1.84164062 23.6553125 -3.14453125 23.703125 C-6.5 23.3125 -6.5 23.3125 -8.421875 21.515625 C-10.01488379 18.26034617 -9.94609672 15.88127373 -9.5 12.3125 C-8 9.875 -8 9.875 -5.5 8.3125 C-2.02182314 7.83132929 1.29419594 7.70959797 4.5 9.3125 C3.84 7.6625 3.18 6.0125 2.5 4.3125 C-3.2974423 4.06821657 -3.2974423 4.06821657 -8.5 6.3125 C-8.1875 4.4375 -8.1875 4.4375 -7.5 2.3125 C-4.40219052 0.24729368 -3.5459519 0.01772976 0 0 Z M-6.5 13.3125 C-6.83333333 15.8125 -6.83333333 15.8125 -6.5 18.3125 C-4.55765911 20.70035276 -4.55765911 20.70035276 -1 20.5 C2.34964703 20.55381237 2.34964703 20.55381237 4.5 19.3125 C4.66681109 16.39597826 4.66681109 16.39597826 4.5 13.3125 C2.55667668 10.93255632 2.55667668 10.93255632 -1 11.0625 C-4.55667668 10.93255632 -4.55667668 10.93255632 -6.5 13.3125 Z " class="cls-1" transform="translate(132.5,117.6875)"/>
<path d="M0 0 C0.66 0 1.32 0 2 0 C2 10.23 2 20.46 2 31 C1.34 31 0.68 31 0 31 C0 30.34 0 29.68 0 29 C-0.99 29.66 -1.98 30.32 -3 31 C-6.06578057 31.5454104 -8.9329232 31.53808365 -12 31 C-15.28175318 28.47031526 -16.69243777 26.92268669 -18 23 C-18.39537729 17.76125095 -17.80588657 14.46863417 -15 10 C-11.86588698 7.91059132 -11.02549528 7.72635588 -7.4375 7.75 C-6.25994141 7.74226563 -6.25994141 7.74226563 -5.05859375 7.734375 C-3 8 -3 8 -1 10 C-0.67 6.7 -0.34 3.4 0 0 Z M-12.734375 12.21484375 C-14.2580667 14.36400149 -14.55268037 15.82609252 -14.8125 18.4375 C-14.90144531 19.19933594 -14.99039063 19.96117187 -15.08203125 20.74609375 C-14.98709243 23.35465077 -14.39947652 24.81181507 -13 27 C-9.94306678 28.52846661 -7.37015453 28.23242445 -4 28 C-1.72099667 26.88971707 -1.72099667 26.88971707 0 25 C0.55752993 22.59828716 0.55752993 22.59828716 0.375 20 C0.36210937 19.13375 0.34921875 18.2675 0.3359375 17.375 C0.13759291 14.73762919 0.13759291 14.73762919 -2 12 C-4.08449848 11.3068753 -4.08449848 11.3068753 -6.4375 11.125 C-7.21996094 11.02445313 -8.00242188 10.92390625 -8.80859375 10.8203125 C-11.05158766 10.81859961 -11.05158766 10.81859961 -12.734375 12.21484375 Z " class="cls-1" transform="translate(218,110)"/>
<path d="M0 0 C3.1293173 0.74342897 4.94179824 2.18840477 7.12109375 4.50390625 C9.11233933 8.48639742 8.63272296 13.17333046 8.12109375 17.50390625 C6.91322347 20.75159827 6.07864406 21.31531902 3.12109375 23.50390625 C-0.37391805 24.283122 -3.38534222 24.2955513 -6.87890625 23.50390625 C-9.94140625 21.06640625 -9.94140625 21.06640625 -11.87890625 18.50390625 C-12.20890625 18.17390625 -12.53890625 17.84390625 -12.87890625 17.50390625 C-13.52136446 13.25880265 -13.67825339 9.23684203 -11.85546875 5.28515625 C-8.53659172 0.81108997 -5.53131538 -0.43840105 0 0 Z M-8.31640625 5.56640625 C-10.27771322 9.25366336 -10.46840623 11.37740639 -9.87890625 15.50390625 C-8.48981725 18.55304561 -8.48981725 18.55304561 -5.87890625 20.50390625 C-1.94579498 21.13601342 0.14576443 21.10410891 3.55859375 19.00390625 C5.73101056 15.52803936 5.87604692 12.43433252 5.12109375 8.50390625 C3.75166926 5.39543052 3.75166926 5.39543052 1.12109375 3.50390625 C-3.14474062 2.74215011 -4.97096758 2.73565046 -8.31640625 5.56640625 Z " class="cls-1" transform="translate(297.87890625,117.49609375)"/>
<path d="M0 0 C14 0 14 0 19 4 C20.56935594 7.13871188 20.35201103 9.53855822 20 13 C18.3125 15.9375 18.3125 15.9375 15 18 C10.57771908 18.41760038 6.46093817 18.22529991 2 18 C2 22.29 2 26.58 2 31 C1.34 31 0.68 31 0 31 C0 20.77 0 10.54 0 0 Z M2 3 C2 6.96 2 10.92 2 15 C4.8771875 15.12375 4.8771875 15.12375 7.8125 15.25 C8.89144531 15.29640625 9.97039063 15.3428125 11.08203125 15.390625 C14.08740292 15.28510177 14.08740292 15.28510177 15.890625 13.14453125 C17.20610108 11.02284812 17.20610108 11.02284812 16.9375 8.4375 C15.78192009 5.43299224 14.74191843 4.64231947 12 3 C9.41118198 2.63965477 9.41118198 2.63965477 6.75 2.8125 C4.39875 2.9053125 4.39875 2.9053125 2 3 Z " class="cls-1" transform="translate(24,110)"/>
<path d="M0 0 C0.66 0 1.32 0 2 0 C2 1.65 2 3.3 2 5 C3.65 5 5.3 5 7 5 C7 5.99 7 6.98 7 8 C5.35 8 3.7 8 2 8 C2.495 15.92 2.495 15.92 3 24 C4.65 24.33 6.3 24.66 8 25 C7.67 25.99 7.34 26.98 7 28 C5.00045254 28.04254356 2.99958364 28.04080783 1 28 C0 27 0 27 -0.11352539 25.14233398 C-0.10828857 24.35157471 -0.10305176 23.56081543 -0.09765625 22.74609375 C-0.09443359 21.89208984 -0.09121094 21.03808594 -0.08789062 20.15820312 C-0.07951172 19.26037109 -0.07113281 18.36253906 -0.0625 17.4375 C-0.05798828 16.53580078 -0.05347656 15.63410156 -0.04882812 14.70507812 C-0.03700225 12.46998686 -0.0205222 10.23502563 0 8 C-1.48011371 8.30798326 -2.95907325 8.621518 -4.4375 8.9375 C-5.26121094 9.11152344 -6.08492188 9.28554687 -6.93359375 9.46484375 C-8.97661204 9.80752994 -8.97661204 9.80752994 -10 11 C-10.23701239 13.85877909 -10.42219182 16.69883297 -10.5625 19.5625 C-10.60568359 20.36880859 -10.64886719 21.17511719 -10.69335938 22.00585938 C-10.79975262 24.00368805 -10.90040888 26.0018207 -11 28 C-11.99 28 -12.98 28 -14 28 C-14 20.41 -14 12.82 -14 5 C-12.68 5.33 -11.36 5.66 -10 6 C-9.34 5.67 -8.68 5.34 -8 5 C-5.3276379 4.86584528 -2.67749512 4.95681459 0 5 C0 3.35 0 1.7 0 0 Z " class="cls-1" transform="translate(84,113)"/>
<path d="M0 0 C0.7734375 -0.00515625 1.546875 -0.0103125 2.34375 -0.015625 C4.5 0.25 4.5 0.25 7.5 2.25 C7.5 3.24 7.5 4.23 7.5 5.25 C3.87 4.92 0.24 4.59 -3.5 4.25 C-3.83 5.24 -4.16 6.23 -4.5 7.25 C-3.81292969 7.49234375 -3.12585938 7.7346875 -2.41796875 7.984375 C-1.51691406 8.31953125 -0.61585937 8.6546875 0.3125 9 C1.20582031 9.32484375 2.09914063 9.6496875 3.01953125 9.984375 C5.79178693 11.39888026 6.97017016 12.55872743 8.5 15.25 C8.375 18.375 8.375 18.375 7.5 21.25 C4.26085771 23.40942819 3.25140267 23.52232978 -0.5 23.5 C-1.36625 23.50515625 -2.2325 23.5103125 -3.125 23.515625 C-5.5 23.25 -5.5 23.25 -8.5 21.25 C-8.5 20.26 -8.5 19.27 -8.5 18.25 C-8.005 18.415 -7.51 18.58 -7 18.75 C-3.46555911 19.45688818 -0.10309299 19.31005155 3.5 19.25 C3.5 17.93 3.5 16.61 3.5 15.25 C2.80132812 14.99605469 2.10265625 14.74210938 1.3828125 14.48046875 C0.01769531 13.96419922 0.01769531 13.96419922 -1.375 13.4375 C-2.27992187 13.10105469 -3.18484375 12.76460937 -4.1171875 12.41796875 C-6.5 11.25 -6.5 11.25 -8.5 8.25 C-8.3125 5.1875 -8.3125 5.1875 -7.5 2.25 C-4.377998 0.16866533 -3.56733011 -0.0237822 0 0 Z " class="cls-1" transform="translate(110.5,117.75)"/>
<path d="M0 0 C0.7734375 -0.00515625 1.546875 -0.0103125 2.34375 -0.015625 C4.5 0.25 4.5 0.25 7.5 2.25 C7.5 3.24 7.5 4.23 7.5 5.25 C6.984375 5.085 6.46875 4.92 5.9375 4.75 C2.76636124 4.09951 -0.27218334 4.1879266 -3.5 4.25 C-3.83 5.24 -4.16 6.23 -4.5 7.25 C-3.64535156 7.52972656 -2.79070312 7.80945313 -1.91015625 8.09765625 C1.39244112 9.29614841 4.44371518 10.51347453 7.5 12.25 C8.9375 15.8125 8.9375 15.8125 8.5 19.25 C7.31640625 21.4375 7.31640625 21.4375 5.5 23.25 C2.90625 23.74609375 2.90625 23.74609375 0 23.6875 C-0.9590625 23.68621094 -1.918125 23.68492187 -2.90625 23.68359375 C-5.83015288 23.19480878 -6.78033819 22.62615432 -8.5 20.25 C-8.5 19.59 -8.5 18.93 -8.5 18.25 C-7.6646875 18.4665625 -7.6646875 18.4665625 -6.8125 18.6875 C-6.049375 18.873125 -5.28625 19.05875 -4.5 19.25 C-3.675 19.476875 -2.85 19.70375 -2 19.9375 C0.89107497 20.29888437 2.0735637 19.77775619 4.5 18.25 C4.5 16.93 4.5 15.61 4.5 14.25 C3.71753906 14.04503906 2.93507812 13.84007812 2.12890625 13.62890625 C1.11699219 13.35949219 0.10507813 13.09007812 -0.9375 12.8125 C-1.94683594 12.54566406 -2.95617187 12.27882812 -3.99609375 12.00390625 C-6.5 11.25 -6.5 11.25 -7.5 10.25 C-7.87086093 4.4089404 -7.87086093 4.4089404 -7.5 2.25 C-4.377998 0.16866533 -3.56733011 -0.0237822 0 0 Z " class="cls-1" transform="translate(176.5,117.75)"/>
<path d="M0 0 C0.66 0 1.32 0 2 0 C2.33 6.6 2.66 13.2 3 20 C10.51761809 19.89167565 10.51761809 19.89167565 13 17 C13.30675232 14.10032243 13.51173371 11.28216822 13.625 8.375 C13.66367187 7.57320313 13.70234375 6.77140625 13.7421875 5.9453125 C13.83653931 3.96392444 13.91936215 1.98199355 14 0 C14.99 0 15.98 0 17 0 C17 7.59 17 15.18 17 23 C15.68 22.67 14.36 22.34 13 22 C12.34 22.33 11.68 22.66 11 23 C9.50350638 23.12005453 8.00125207 23.17531451 6.5 23.1875 C5.7059375 23.20167969 4.911875 23.21585938 4.09375 23.23046875 C2 23 2 23 0 21 C-0.22705078 18.84521484 -0.22705078 18.84521484 -0.1953125 16.2109375 C-0.18886719 15.26992187 -0.18242187 14.32890625 -0.17578125 13.359375 C-0.15902344 12.37453125 -0.14226562 11.3896875 -0.125 10.375 C-0.11597656 9.38242188 -0.10695313 8.38984375 -0.09765625 7.3671875 C-0.07404116 4.91121866 -0.04110799 2.45572832 0 0 Z " class="cls-1" transform="translate(312,118)"/>
<path d="M0 0 C0.99 0 1.98 0 3 0 C3.33 6.6 3.66 13.2 4 20 C11.51761809 19.89167565 11.51761809 19.89167565 14 17 C14.30675232 14.10032243 14.51173371 11.28216822 14.625 8.375 C14.66367188 7.57320313 14.70234375 6.77140625 14.7421875 5.9453125 C14.83653931 3.96392444 14.91936215 1.98199355 15 0 C15.66 0 16.32 0 17 0 C17 7.59 17 15.18 17 23 C16.01 22.67 15.02 22.34 14 22 C13.34 22.33 12.68 22.66 12 23 C9.94140625 23.23828125 9.94140625 23.23828125 7.5625 23.3125 C6.38880859 23.36857422 6.38880859 23.36857422 5.19140625 23.42578125 C3 23 3 23 1.2265625 21.58984375 C-0.68325919 17.55732217 -0.31414949 13.64701038 -0.1875 9.25 C-0.17396484 8.36183594 -0.16042969 7.47367187 -0.14648438 6.55859375 C-0.11121309 4.37177422 -0.06192752 2.18620034 0 0 Z " class="cls-1" transform="translate(226,118)"/>
<path d="M0 0 C0.99 0.33 1.98 0.66 3 1 C3.66 0.67 4.32 0.34 5 0 C12.46666667 -0.35555556 12.46666667 -0.35555556 16 2 C16.99013879 4.71463348 17.11940483 7.23856279 17.09765625 10.109375 C17.09443359 10.86347656 17.09121094 11.61757812 17.08789062 12.39453125 C17.07951172 13.17183594 17.07113281 13.94914063 17.0625 14.75 C17.05798828 15.54277344 17.05347656 16.33554688 17.04882812 17.15234375 C17.03708565 19.10159508 17.01915146 21.05080738 17 23 C16.01 23 15.02 23 14 23 C13.93941406 21.79601562 13.87882813 20.59203125 13.81640625 19.3515625 C13.73200268 17.77602923 13.64735459 16.20050904 13.5625 14.625 C13.52318359 13.8309375 13.48386719 13.036875 13.44335938 12.21875 C13.31106596 7.97398779 13.31106596 7.97398779 12 4 C7.2102679 3.76571687 7.2102679 3.76571687 3 6 C2.61615491 8.93597539 2.396157 11.68027373 2.3125 14.625 C2.27833984 15.42679688 2.24417969 16.22859375 2.20898438 17.0546875 C2.12643122 19.03596318 2.06154084 21.01796037 2 23 C1.34 23 0.68 23 0 23 C0 15.41 0 7.82 0 0 Z " class="cls-1" transform="translate(147,118)"/>
<path d="M0 0 C0.99 0 1.98 0 3 0 C3 1.65 3 3.3 3 5 C4.32 5 5.64 5 7 5 C7 5.99 7 6.98 7 8 C5.68 8 4.36 8 3 8 C3.33 13.61 3.66 19.22 4 25 C5.65 25.33 7.3 25.66 9 26 C8.67 26.66 8.34 27.32 8 28 C5.69 28 3.38 28 1 28 C-0.1482685 25.703463 -0.11561175 24.41686833 -0.09765625 21.8671875 C-0.09282227 20.65869141 -0.09282227 20.65869141 -0.08789062 19.42578125 C-0.07951172 18.58402344 -0.07113281 17.74226563 -0.0625 16.875 C-0.05798828 16.02550781 -0.05347656 15.17601562 -0.04882812 14.30078125 C-0.03702874 12.20049091 -0.01909306 10.1002367 0 8 C-1.32 8 -2.64 8 -4 8 C-3.67 7.01 -3.34 6.02 -3 5 C-2.01 5 -1.02 5 0 5 C0 3.35 0 1.7 0 0 Z " class="cls-1" transform="translate(335,113)"/>
<path d="M0 0 C2.3125 0.1875 2.3125 0.1875 5 1 C8 5.03448276 8 5.03448276 8 8 C6.0625 7.625 6.0625 7.625 4 7 C3.67 6.34 3.34 5.68 3 5 C-0.11785113 5.64644661 -0.11785113 5.64644661 -1 8 C-1.99 8 -2.98 8 -4 8 C-2.87548273 5.0280615 -1.77706209 2.66559313 0 0 Z " class="cls-1" transform="translate(318,109)"/>
<path d="M0 0 C0.66 0 1.32 0 2 0 C2 7.59 2 15.18 2 23 C1.34 23 0.68 23 0 23 C0 15.41 0 7.82 0 0 Z " class="cls-1" transform="translate(95,118)"/>
<path d="M0 0 C0.99 0.33 1.98 0.66 3 1 C3 1.99 3 2.98 3 4 C1.68 3.67 0.36 3.34 -1 3 C-0.67 2.01 -0.34 1.02 0 0 Z " class="cls-1" transform="translate(95,112)"/>
</svg>
