<svg version="1.1" xmlns="http://www.w3.org/2000/svg" width="1200" height="901">
<defs>
<style>
.cls-1{
    fill:#eed4f1
}
.cls-2{
    fill:#515582
}
</style>
</defs>
<path d="M0 0 C0 187.44 0 374.88 0 568 C-7.8749935 570.24999814 -7.8749935 570.24999814 -11.34198475 570.79702187 C-12.13357941 570.92409374 -12.92517407 571.0511656 -13.74075645 571.18208814 C-14.59030295 571.31395859 -15.43984944 571.44582903 -16.31513977 571.58169556 C-17.23595717 571.72820769 -18.15677456 571.87471982 -19.10549551 572.02567172 C-22.19119169 572.51555421 -25.27783089 572.99921129 -28.36450195 573.48291016 C-30.59405152 573.83556099 -32.82354018 574.18859707 -35.05297279 574.54198647 C-41.16042358 575.50896221 -47.26871496 576.4705322 -53.37715602 577.43122959 C-59.2373079 578.35375682 -65.09680908 579.28039172 -70.95631973 580.20698172 C-82.85542184 582.08850908 -94.7551389 583.96611873 -106.6552124 585.8414917 C-123.68553323 588.52539797 -140.71496377 591.21492347 -157.74421406 593.90561286 C-164.49061032 594.97154733 -171.23703374 596.03730995 -177.98345947 597.10305786 C-178.72653203 597.22044427 -179.46960459 597.33783068 -180.2351945 597.45877425 C-191.55524406 599.2470254 -202.87544435 601.03432018 -214.19573975 602.8210144 C-215.69883843 603.05825277 -217.20193708 603.29549138 -218.70503569 603.53273022 C-219.4464679 603.64975272 -220.18790011 603.76677521 -220.95179996 603.88734385 C-254.09567051 609.11855268 -287.23826102 614.35776421 -320.37890625 619.609375 C-321.41803524 619.77403629 -322.45716422 619.93869758 -323.52778196 620.10834861 C-334.7924185 621.89338174 -346.05699166 623.67881453 -357.3215332 625.46444702 C-369.48183179 627.39206106 -381.64226482 629.31882614 -393.80273438 631.24536133 C-394.81297881 631.40541062 -395.82322324 631.56545992 -396.86408114 631.7303592 C-401.97138084 632.53948582 -407.07868264 633.34859913 -412.18598557 634.15770531 C-418.30552559 635.12717543 -424.42505635 636.096704 -430.54458618 637.0662384 C-478.30577266 644.6331284 -526.06743868 652.19699048 -573.82910585 659.76084566 C-579.62552233 660.67880618 -585.42193776 661.59677337 -591.21835327 662.51473999 C-624.9797547 667.86146123 -658.74117211 673.20808148 -692.50259209 678.55468559 C-798.32432892 695.31307337 -904.14603009 712.07168567 -1009.96696419 728.83514172 C-1015.3023245 729.68033402 -1020.63768565 730.52552111 -1025.97304916 731.37069321 C-1027.50605888 731.61353663 -1027.50605888 731.61353663 -1029.0700385 731.86128598 C-1031.11006236 732.18444419 -1033.15008652 732.50760052 -1035.19011098 732.83075494 C-1040.17943684 733.6211055 -1045.16875516 734.41150358 -1050.15805721 735.20200443 C-1058.77768927 736.56766354 -1067.39735179 737.93312714 -1076.01726669 739.29699999 C-1080.63833722 740.02817796 -1085.25936621 740.75961817 -1089.88037109 741.49121094 C-1090.7852628 741.6344693 -1091.6901545 741.77772766 -1092.62246716 741.92532718 C-1106.01395312 744.04596663 -1119.40298109 746.18169366 -1132.79090679 748.32468581 C-1138.56200699 749.24795494 -1144.33348709 750.1688466 -1150.10498005 751.08965695 C-1155.54816978 751.95840248 -1160.99068756 752.83120873 -1166.43272161 753.70716286 C-1169.75286887 754.24060388 -1173.07361892 754.77021279 -1176.39455009 755.29874945 C-1177.925952 755.5433006 -1179.4570967 755.78946886 -1180.98795724 756.03738642 C-1183.07678596 756.37546537 -1185.16645457 756.70778374 -1187.25642395 757.03872681 C-1189.00387012 757.31897422 -1189.00387012 757.31897422 -1190.78661823 757.60488319 C-1194 758 -1194 758 -1200 758 C-1200 570.56 -1200 383.12 -1200 190 C-1084.67582239 171.54813158 -1084.67582239 171.54813158 -1042.981709 164.94733882 C-1037.2077053 164.03305834 -1031.43382355 163.11800825 -1025.65993403 162.20300701 C-1014.02798139 160.35968912 -1002.39592424 158.51703168 -990.76379395 156.67483521 C-979.30336857 154.85982964 -967.84299796 153.04447878 -956.38269043 151.22872925 C-955.65302382 151.11312242 -954.9233572 150.99751559 -954.17157948 150.87840552 C-950.47098095 150.29208882 -946.77038332 149.70576642 -943.06978607 149.11944163 C-918.0443376 145.1544037 -893.01878891 141.18999877 -867.99316406 137.22607422 C-840.97958203 132.94726649 -813.96611741 128.66771809 -786.95273209 124.38766861 C-694.13576907 109.68160131 -601.31777952 94.98201543 -508.49972534 80.28283691 C-434.07141761 68.49595719 -359.64343333 56.70703715 -285.21582031 44.91577148 C-283.16739211 44.59124779 -281.11896389 44.26672418 -279.07053566 43.94220066 C-277.54845153 43.70106353 -277.54845153 43.70106353 -275.99561822 43.45505494 C-271.8898498 42.80459623 -267.78408129 42.15413812 -263.67831278 41.50367999 C-260.60085816 41.01613226 -257.52340385 40.52858257 -254.44594955 40.04103279 C-224.14694185 35.24088339 -193.84780139 30.44157259 -163.54858917 25.64271432 C-155.17132794 24.31590096 -146.79407368 22.9890436 -138.41682434 21.66215515 C-136.66474921 21.38464075 -136.66474921 21.38464075 -134.87727863 21.10152 C-129.03648665 20.1763846 -123.19569558 19.25124348 -117.35490513 18.32609844 C-104.86307805 16.34747983 -92.37122712 14.36901194 -79.87934619 12.39073336 C-71.42946059 11.05255325 -62.97960238 9.71420034 -54.52976578 8.37571084 C-49.65247721 7.6031342 -44.77517569 6.83063951 -39.8978405 6.05835724 C-35.42616316 5.35030626 -30.95452093 4.64203401 -26.4829067 3.93358457 C-24.86353292 3.67706372 -23.24414608 3.42062527 -21.62474501 3.16427672 C-19.42677617 2.81632985 -17.22885471 2.46808527 -15.03094482 2.11976624 C-13.80921947 1.92627122 -12.58749413 1.7327762 -11.3287468 1.5334177 C-9.11229338 1.17824035 -6.89782263 0.81045784 -4.68556595 0.43001461 C-2 0 -2 0 0 0 Z " class="cls-1" transform="translate(1200,72)"/>
<path d="M0 0 C11.24881697 2.24976339 11.24881697 2.24976339 16.23486328 3.80566406 C17.36604584 4.15583084 18.49722839 4.50599762 19.66268921 4.86677551 C21.47321274 5.43545601 21.47321274 5.43545601 23.3203125 6.015625 C24.63141273 6.42326355 25.94266612 6.83040972 27.25405884 7.23710632 C30.06781781 8.1106409 32.88063685 8.98711489 35.69274902 9.86593628 C40.21438179 11.27876832 44.73826553 12.68428898 49.26269531 14.08813477 C50.03357483 14.32732541 50.80445435 14.56651606 51.59869385 14.8129549 C53.17345621 15.30153573 54.74822944 15.79008155 56.32301331 16.27859306 C58.72959248 17.02531962 61.13598748 17.77263741 63.5423584 18.52003479 C79.51923987 23.48053373 95.51608206 28.37498941 111.51729584 33.2563324 C114.51699832 34.17150073 117.51655894 35.08713359 120.51612282 36.00275612 C126.56630742 37.84957683 132.61663496 39.69592852 138.66710472 41.5418148 C148.45071319 44.52666528 158.23339662 47.51453613 168.015625 50.50390625 C168.75765923 50.73066481 169.49969345 50.95742336 170.26421356 51.19105339 C174.01083034 52.33599916 177.75743259 53.48099244 181.50402832 54.62600708 C188.25251922 56.68842009 195.00113892 58.75041156 201.74974823 60.81243706 C205.49983736 61.95827432 209.24991827 63.10413851 213 64.25 C214.49999996 64.70833346 215.99999996 65.1666668 217.5 65.625 C258 78 258 78 298.5 90.375 C299.24249906 90.60187469 299.98499811 90.82874937 300.74999714 91.06249905 C302.25000673 91.52083536 303.75001627 91.97917188 305.25002575 92.43750858 C308.99987845 93.58329783 312.74973217 94.72908372 316.49958801 95.87486267 C323.2513481 97.93788545 330.00310097 100.00093186 336.7548151 102.06410503 C340.5071112 103.21072219 344.25941337 104.35731948 348.01171875 105.50390625 C349.12601541 105.84440097 349.12601541 105.84440097 350.2628231 106.19177437 C360.72739502 109.38938222 371.19230436 112.58588372 381.65742874 115.78168297 C395.78271642 120.09522807 409.90740237 124.41073626 424.03115845 128.72929382 C425.54632535 129.19257718 427.06149259 129.65585944 428.57666016 130.11914062 C429.33557871 130.35119107 430.09449726 130.58324152 430.87641335 130.8223238 C436.69255603 132.60056756 442.50908027 134.37756054 448.32568359 136.15429688 C456.18691507 138.55565214 464.0475237 140.95903571 471.90747929 143.36456394 C476.09309301 144.64551119 480.27895661 145.92562649 484.46548462 147.20358276 C488.36665622 148.39446848 492.26708709 149.5877496 496.16697121 150.78284454 C497.59615337 151.22035805 499.02559776 151.6570161 500.45532799 152.09273529 C507.38153358 154.20406727 514.25965149 156.34323977 521 159 C517.33071262 161.44619158 513.92430833 161.85289938 509.65940857 162.50576782 C508.79506939 162.64411692 507.9307302 162.78246602 507.04019892 162.92500752 C504.12219584 163.390198 501.20262492 163.84468813 498.28295898 164.29931641 C496.1824495 164.63193307 494.08204382 164.96520589 491.98173428 165.29908276 C486.20730489 166.21508629 480.43145067 167.12181112 474.65533018 168.02708077 C468.47315224 168.99765163 462.29233388 169.9768064 456.11135864 170.95500183 C445.46195642 172.639192 434.81173744 174.3181102 424.16091919 175.99331665 C413.01784868 177.74598499 401.87527853 179.50178276 390.73336792 181.2618103 C389.69593462 181.42568781 389.69593462 181.42568781 388.63754307 181.59287596 C385.13320243 182.14646167 381.6288731 182.70011904 378.12455022 183.2538172 C371.05884199 184.3702229 363.99307508 185.48625705 356.92729187 186.60218811 C356.22462252 186.71316562 355.52195317 186.82414313 354.79799081 186.93848359 C344.05496399 188.63514628 333.31166594 190.33008449 322.56819153 192.02391052 C321.85667693 192.13608977 321.14516233 192.24826903 320.41208669 192.36384765 C317.54460537 192.81593958 314.67712299 193.26802477 311.80964002 193.72010616 C278.8421981 198.91771692 245.8772431 204.13089096 212.9140625 209.35546875 C211.18606521 209.62934134 211.18606521 209.62934134 209.42315888 209.90874672 C199.25369714 211.52052913 189.08426236 213.13248165 178.91487598 214.74473953 C165.24501879 216.91194634 151.57499565 219.07810238 137.90478337 221.24306822 C134.92056473 221.71569521 131.93635503 222.1883786 128.95214748 222.66107559 C120.44485297 224.00857533 111.93751439 225.35579286 103.42990106 226.70127845 C99.00156353 227.40165048 94.57327571 228.10233641 90.14501953 228.80322266 C89.29202558 228.93822725 88.43903162 229.07323184 87.56018937 229.21232748 C76.04957466 231.03475643 64.54161009 232.87309529 53.03571761 234.72509491 C48.55874525 235.44522893 44.08135925 236.16278786 39.60398215 236.8804006 C36.17360835 237.43055766 32.74360075 237.98281254 29.314394 238.54020119 C25.64906049 239.13529499 21.98275008 239.72397274 18.31616211 240.3112793 C17.25906225 240.48489927 16.20196239 240.65851925 15.11282921 240.83740044 C14.13727388 240.99242594 13.16171856 241.14745144 12.15660095 241.30717468 C11.32309585 241.4420312 10.48959074 241.57688772 9.6308279 241.7158308 C6.43772814 242.06073386 3.21167312 242 0 242 C0 162.14 0 82.28 0 0 Z " class="cls-1" transform="translate(0,0)"/>
<path d="M0 0 C0 79.86 0 159.72 0 242 C-23.2372044 235.02883868 -46.47018577 228.05759642 -69.66601562 220.95214844 C-74.20929445 219.56073373 -78.75305948 218.17091089 -83.296875 216.78125 C-88.89313843 215.06961638 -94.4893024 213.35765839 -100.08532715 211.6452446 C-113.82247505 207.44165934 -127.5614192 203.24395828 -141.30051136 199.0467329 C-146.53333496 197.44812458 -151.76607999 195.84925929 -156.9987793 194.25024414 C-171.21835391 189.90504124 -185.43814503 185.5605497 -199.65852737 181.21799088 C-231.73079912 171.42370657 -263.79801004 161.61318593 -295.85736847 151.77671051 C-326.30381533 142.43521952 -356.75863452 133.12133768 -387.21751595 123.82047844 C-398.01918559 120.5220912 -408.81999472 117.22090002 -419.62019348 113.91769981 C-421.99998087 113.18989513 -424.37980489 112.46221036 -426.75964355 111.73457336 C-427.5403421 111.49587367 -428.32104065 111.25717398 -429.12539673 111.01124096 C-430.69479234 110.53139909 -432.26418931 110.05156166 -433.83358765 109.57172871 C-437.68369911 108.39450276 -441.53368946 107.21688341 -445.38342285 106.03842163 C-459.92393673 101.58736428 -474.46589324 97.14404811 -489.0390625 92.80078125 C-490.08283554 92.48890366 -491.12660858 92.17702606 -492.20201111 91.85569763 C-496.89536185 90.45340867 -501.59040402 89.05774359 -506.2902832 87.67749023 C-507.86940031 87.20719382 -509.44842743 86.7365951 -511.02734375 86.265625 C-511.73384064 86.06153519 -512.44033752 85.85744537 -513.16824341 85.64717102 C-514.79765564 85.15679857 -516.40263235 84.58640084 -518 84 C-518.33 83.34 -518.66 82.68 -519 82 C-490.18950751 77.12047536 -461.33532253 72.52658293 -432.47354937 67.96169519 C-426.5271002 67.0208802 -420.58087278 66.07866633 -414.63463841 65.13649498 C-402.60153561 63.22991451 -390.56822716 61.3246352 -378.53479004 59.42016602 C-366.72568502 57.55119577 -354.91667419 55.68163224 -343.10778809 53.8112793 C-342.37145818 53.69465572 -341.63512828 53.57803214 -340.87648535 53.45787451 C-337.14671193 52.8671305 -333.41694046 52.27637415 -329.68717003 51.68561125 C-322.18488871 50.49731831 -314.68259538 49.30910126 -307.18029785 48.12091064 C-306.43565466 48.00297615 -305.69101147 47.88504165 -304.92380333 47.76353338 C-293.59846228 45.96987118 -282.27306551 44.17656113 -270.94763184 42.38348389 C-270.20110194 42.2652908 -269.45457205 42.1470977 -268.68542004 42.025323 C-265.67914395 41.54936017 -262.67286759 41.0733991 -259.66659105 40.59743915 C-226.333052 35.32000134 -192.99998591 30.03958606 -159.66724062 24.75713682 C-153.68363316 23.80888853 -147.70001677 22.86069657 -141.71640015 21.9125061 C-140.55773418 21.72889829 -139.39906821 21.54529048 -138.20529115 21.3561188 C-134.74770072 20.80821261 -131.29011014 20.26030742 -127.83251953 19.71240234 C-124.45961448 19.17791622 -121.0867095 18.64342972 -117.7138046 18.10894263 C-115.50328881 17.75865353 -113.29277291 17.40836506 -111.08225691 17.05807722 C-105.61837975 16.19224568 -100.15450517 15.32639784 -94.69063568 14.46051788 C-83.32518485 12.65939955 -71.95970956 10.8584358 -60.59415376 9.05797994 C-55.96868394 8.32523945 -51.3432286 7.59240797 -46.7178154 6.85931015 C-42.51972751 6.19394188 -38.32159687 5.52884402 -34.1234324 4.86395907 C-32.61926267 4.62568869 -31.11510815 4.38732225 -29.61097121 4.14884496 C-25.07444088 3.42962345 -20.53732121 2.7142191 -16 2 C-14.75927483 1.80245621 -13.51854965 1.60491241 -12.24022675 1.40138245 C-11.07167397 1.21740402 -9.90312119 1.0334256 -8.69915771 0.84387207 C-7.15555887 0.59924603 -7.15555887 0.59924603 -5.58077621 0.34967804 C-3 0 -3 0 0 0 Z " class="cls-1" transform="translate(1200,659)"/>
<path d="M0 0 C0.84240234 -0.01224609 1.68480469 -0.02449219 2.55273438 -0.03710938 C12.62500774 -0.06037098 23.32762703 1.77792445 30.921875 8.94140625 C34.92096282 13.84127871 36.62361355 19.10069976 38.0625 25.1875 C38.23621848 25.75732227 38.40993696 26.32714455 38.58891964 26.91423416 C39.21681029 29.92821548 39.18512339 32.77709383 39.18275452 35.85662842 C39.18403615 36.86018352 39.18403615 36.86018352 39.18534368 37.88401246 C39.18698985 40.12419967 39.18149126 42.36431188 39.17602539 44.60449219 C39.17574331 46.21097309 39.17590167 47.81745411 39.1764679 49.42393494 C39.17675504 53.78514051 39.17087163 58.14631863 39.16389394 62.50751781 C39.15764668 67.06525216 39.15705551 71.62298713 39.15586853 76.1807251 C39.15275927 84.81146919 39.14455133 93.44220064 39.13451904 102.07293916 C39.12334534 111.8987199 39.11784428 121.72450125 39.11282361 131.55028677 C39.10236839 151.76269824 39.08477677 171.97509833 39.0625 192.1875 C40.25875 191.8575 41.455 191.5275 42.6875 191.1875 C46.45356278 190.14858613 48.88139699 190.1875 53.0625 190.1875 C53.0625 213.2875 53.0625 236.3875 53.0625 260.1875 C45.16701559 262.00953486 37.87959556 263.61838004 29.9375 264.5 C17.83448867 265.94735968 5.86179033 268.05213261 -6.13134766 270.20629883 C-6.86781021 270.33666534 -7.60427277 270.46703186 -8.36305237 270.60134888 C-10.37889824 270.95833131 -12.39371042 271.32113688 -14.40844727 271.68432617 C-22.81929867 272.88354892 -22.81929867 272.88354892 -25.67578125 271.10546875 C-27.46552591 268.38483523 -28.22822436 265.62325308 -29.125 262.5 C-29.46917969 261.32050781 -29.81335937 260.14101563 -30.16796875 258.92578125 C-30.42191406 258.02214844 -30.67585937 257.11851562 -30.9375 256.1875 C-31.57365234 257.04021484 -31.57365234 257.04021484 -32.22265625 257.91015625 C-34.08984879 260.36828445 -35.99979583 262.78459304 -37.9375 265.1875 C-38.4428125 265.81785156 -38.948125 266.44820312 -39.46875 267.09765625 C-52.64157892 281.84988048 -77.28761653 284.83481562 -95.9375 286.1875 C-99.98021406 286.3838633 -104.01548318 286.4618206 -108.0625 286.5 C-109.09503906 286.52900391 -110.12757813 286.55800781 -111.19140625 286.58789062 C-118.36772581 286.64731238 -123.95781803 285.70169218 -129.45703125 280.84570312 C-134.87648747 274.96551504 -135.23520531 267.99071351 -135.19628906 260.42919922 C-135.1997937 259.58099106 -135.20329834 258.7327829 -135.20690918 257.85887146 C-135.21567118 255.06989214 -135.20989373 252.28116918 -135.203125 249.4921875 C-135.20447399 247.53793286 -135.20641647 245.58367855 -135.20892334 243.62942505 C-135.21186776 239.5357951 -135.20760166 235.44225257 -135.19824219 231.34863281 C-135.18689351 226.13401696 -135.19338232 220.91960806 -135.20538712 215.70499992 C-135.21266299 211.66749555 -135.2102909 207.63003904 -135.20513153 203.59253311 C-135.20380845 201.6718455 -135.20539504 199.75115337 -135.21009064 197.83047104 C-135.26616664 168.42828785 -135.26616664 168.42828785 -126.9375 157.1875 C-126.45667969 156.51332031 -125.97585938 155.83914063 -125.48046875 155.14453125 C-113.15895168 139.51648049 -91.892202 131.41949583 -74.1875 123.5625 C-50.28560077 114.01683339 -50.28560077 114.01683339 -34.88671875 94.6315918 C-33.69585508 90.3107292 -33.65032605 86.38079256 -33.671875 81.921875 C-33.66996155 81.04726624 -33.6680481 80.17265747 -33.66607666 79.27154541 C-33.66472118 77.43265493 -33.66837292 75.59375468 -33.67675781 73.75488281 C-33.6875182 70.93272668 -33.6768146 68.11119964 -33.6640625 65.2890625 C-33.6653832 63.49999859 -33.66794373 61.71093508 -33.671875 59.921875 C-33.66782654 59.07606873 -33.66377808 58.23026245 -33.65960693 57.35882568 C-33.49237427 52.7964433 -33.49237427 52.7964433 -35.9375 49.1875 C-38.51073413 48.93166401 -40.92509902 48.8069519 -43.5 48.8125 C-44.58112061 48.81382935 -44.58112061 48.81382935 -45.68408203 48.81518555 C-51.31867036 48.93999035 -56.27576234 49.78784254 -60.9375 53.1875 C-63.07987343 56.40106015 -63.1991525 57.31797064 -63.25634766 61.02612305 C-63.27621735 62.0069133 -63.29608704 62.98770355 -63.31655884 63.99821472 C-63.32811005 65.05454605 -63.33966125 66.11087738 -63.3515625 67.19921875 C-63.37092865 68.28258011 -63.3902948 69.36594147 -63.4102478 70.48213196 C-63.47008344 73.94634093 -63.5164453 77.41058305 -63.5625 80.875 C-63.60067607 83.22201979 -63.63972758 85.56902552 -63.6796875 87.91601562 C-63.77578824 93.67305234 -63.86082413 99.43017359 -63.9375 105.1875 C-68.48584657 106.85927692 -72.93899227 107.76662749 -77.72265625 108.40625 C-78.46019638 108.50965698 -79.19773651 108.61306396 -79.95762634 108.71960449 C-82.3043804 109.04756601 -84.6521069 109.36780542 -87 109.6875 C-90.07445694 110.11287227 -93.14852784 110.54101079 -96.22265625 110.96875 C-96.96834869 111.07203613 -97.71404114 111.17532227 -98.48233032 111.28173828 C-109.44963284 112.67378441 -109.44963284 112.67378441 -120.29321289 114.74414062 C-123.87887596 115.34533757 -127.30281127 115.24910489 -130.9375 115.1875 C-131.03056696 106.49418061 -131.10144962 97.8010352 -131.14474869 89.1073246 C-131.16554004 85.06957915 -131.19370073 81.0321769 -131.23925781 76.99462891 C-131.28302046 73.09126838 -131.30670052 69.188236 -131.31700897 65.2846489 C-131.32434625 63.80242123 -131.33867301 62.3202096 -131.36042023 60.83812332 C-131.54315104 47.85753369 -129.57826535 39.00700819 -120.40234375 29.50390625 C-105.93741695 15.91008439 -87.11972579 12.76789374 -68.30029297 8.89257812 C-66.05540301 8.42189116 -63.81467415 7.93091005 -61.57861328 7.41992188 C-52.44782485 5.35119709 -43.3509389 4.11485366 -34.0625 3.0625 C-32.60409422 2.89254763 -31.14576037 2.72197684 -29.6875 2.55078125 C-27.00967916 2.23689097 -24.33151046 1.92720327 -21.65283203 1.62060547 C-19.02153746 1.31386894 -16.39713261 0.98711694 -13.77075195 0.64379883 C-9.15147565 0.09393402 -4.64502624 0.00353772 0 0 Z " class="cls-2" transform="translate(1053.9375,281.8125)"/>
<path d="M0 0 C1.03092773 -0.01764404 2.06185547 -0.03528809 3.12402344 -0.0534668 C12.13136119 -0.04542714 20.79820203 1.36155625 27.875 7.3125 C38.81121057 18.41357807 38.37332452 32.91782963 38.32818604 47.47138977 C38.30776606 49.96660718 38.28690219 52.461821 38.265625 54.95703125 C38.25815402 57.53919535 38.25246514 60.12136516 38.24847412 62.70353699 C38.23483258 68.77355574 38.20340218 74.84323635 38.16307616 80.91312855 C38.11812159 87.83224095 38.09631236 94.75136854 38.07629442 101.670591 C38.03466106 115.88471728 37.96445828 130.09859816 37.875 144.3125 C37.30487781 144.39781479 36.73475561 144.48312958 36.14735699 144.57102966 C33.53204506 144.96251209 30.91677909 145.35430074 28.30151367 145.74609375 C26.95642353 145.94736877 26.95642353 145.94736877 25.58415985 146.15270996 C18.77981054 147.17239424 11.98082195 148.22157242 5.1875 149.3125 C3.60437012 149.56567993 3.60437012 149.56567993 1.98925781 149.82397461 C-3.97656667 150.78448872 -9.92957145 151.79603609 -15.875 152.875 C-22.12833405 154.00481689 -28.39695635 154.97545454 -34.6875 155.875 C-35.48961914 155.98980713 -36.29173828 156.10461426 -37.11816406 156.22290039 C-45.10869974 157.3440296 -53.11727349 158.32346809 -61.125 159.3125 C-61.08694263 167.06674112 -61.02758118 174.82050135 -60.94109726 182.57433701 C-60.90160548 186.17490193 -60.86942579 189.7752217 -60.85400391 193.37597656 C-60.83884782 196.8516659 -60.8044229 200.32668133 -60.75669098 203.80207062 C-60.73465628 205.7717312 -60.73252535 207.7415818 -60.73065186 209.71136475 C-60.71093323 210.91230774 -60.6912146 212.11325073 -60.67089844 213.35058594 C-60.66201599 214.40759705 -60.65313354 215.46460815 -60.64398193 216.5536499 C-59.99855677 219.98465812 -58.803792 221.14746178 -56.125 223.3125 C-51.67027138 225.53986431 -45.95853815 224.80940579 -41.125 224.3125 C-36.69579216 222.72673423 -34.01655119 220.77031605 -31.55786133 216.75 C-29.80593885 212.54705767 -29.6502358 209.13427851 -29.61328125 204.6328125 C-29.58635445 203.41366653 -29.58635445 203.41366653 -29.55888367 202.16989136 C-29.50501642 199.5924792 -29.47096164 197.0152497 -29.4375 194.4375 C-29.40430601 192.68226638 -29.36981443 190.92705679 -29.33398438 189.171875 C-29.24930389 184.88554897 -29.18238103 180.59927488 -29.125 176.3125 C-23.19337033 174.92705452 -17.27162521 173.78715379 -11.25 172.875 C-9.58331937 172.61727781 -7.91665312 172.35946256 -6.25 172.1015625 C-5.404375 171.97168945 -4.55875 171.84181641 -3.6875 171.70800781 C-0.34700376 171.19242055 2.99134215 170.66371181 6.32958984 170.13378906 C8.71154753 169.75609716 11.09400858 169.38172241 13.4765625 169.0078125 C16.22343259 168.57597454 18.96732107 168.13230039 21.7109375 167.6796875 C22.83757812 167.49664062 23.96421875 167.31359375 25.125 167.125 C26.07890625 166.96644531 27.0328125 166.80789063 28.015625 166.64453125 C31.31982113 166.26084727 34.55103676 166.29173134 37.875 166.3125 C37.81352724 174.87573483 37.73623583 183.43862445 37.63928509 192.00152397 C37.59474224 195.97853404 37.5554518 199.95544546 37.52856445 203.93261719 C37.5023695 207.7777965 37.46185585 211.62259285 37.41181374 215.46753311 C37.39525359 216.92733079 37.38367226 218.38719453 37.37738609 219.8470726 C37.31756651 232.47356514 35.77880752 242.21529135 27.875 252.3125 C27.19050781 253.22128906 27.19050781 253.22128906 26.4921875 254.1484375 C15.72515674 266.60662492 -4.57985352 271.13844139 -19.9375 273.9375 C-21.08621582 274.15204834 -22.23493164 274.36659668 -23.41845703 274.58764648 C-30.22229034 275.83900912 -37.00633382 276.95446611 -43.875 277.78125 C-51.31559329 278.67899029 -58.72603028 279.82628433 -66.14208984 280.90454102 C-108.81759106 287.0583471 -108.81759106 287.0583471 -121.125 278.3125 C-127.37887574 272.79504079 -131.03745785 266.61086449 -132.125 258.3125 C-132.21766064 255.51910019 -132.26436726 252.75118407 -132.25871277 249.95832825 C-132.26097833 249.13200179 -132.26324388 248.30567534 -132.26557809 247.45430869 C-132.27189381 244.69323899 -132.27109028 241.93221869 -132.27026367 239.17114258 C-132.27325673 237.18813005 -132.27665959 235.20511811 -132.28044128 233.22210693 C-132.28927181 227.83966078 -132.29161904 222.45723054 -132.29225707 217.07477784 C-132.29296825 213.70938785 -132.29510389 210.34400189 -132.29775429 206.9786129 C-132.30700543 195.23012409 -132.31108957 183.48164663 -132.31030273 171.7331543 C-132.3097024 160.79510241 -132.32024623 149.85709992 -132.3360464 138.91906053 C-132.34914011 129.51841844 -132.35448584 120.11779246 -132.35384732 110.71714133 C-132.35359282 105.10704702 -132.35641744 99.49699659 -132.36702538 93.88691139 C-132.37673685 88.60671919 -132.37676464 83.32661253 -132.36950874 78.04641724 C-132.3684666 76.11435 -132.37080365 74.18227735 -132.3768692 72.25021935 C-132.42451432 56.01512381 -132.17375873 40.5895243 -120.4375 27.9375 C-115.89107462 23.74816933 -110.68930676 20.93600486 -105.125 18.3125 C-104.10019531 17.82265625 -103.07539062 17.3328125 -102.01953125 16.828125 C-96.99039745 14.70574452 -91.6776167 13.60230829 -86.375 12.375 C-85.26608398 12.11485107 -84.15716797 11.85470215 -83.01464844 11.58666992 C-79.72021103 10.81905936 -76.42327966 10.06341106 -73.125 9.3125 C-72.24070312 9.10947266 -71.35640625 8.90644531 -70.4453125 8.69726562 C-58.09274948 5.88538027 -45.69278004 3.88672749 -33.125 2.3125 C-32.30950684 2.20663574 -31.49401367 2.10077148 -30.65380859 1.99169922 C-20.44266018 0.69344521 -10.29370187 0.09941573 0 0 Z " class="cls-2" transform="translate(667.125,343.6875)"/>
<path d="M0 0 C-0.54720185 11.26163345 -2.3882896 22.21447349 -4.27880859 33.31225586 C-4.61941578 35.3374804 -4.95950448 37.3627922 -5.29911804 39.38818359 C-6.02803847 43.72869352 -6.76054252 48.06857746 -7.49589157 52.40800285 C-8.66211663 59.2905004 -9.81996074 66.17439225 -10.97671509 73.05848694 C-13.01877732 85.20478588 -15.0678383 97.34989617 -17.11846924 109.49475098 C-20.19893385 127.73913844 -23.27383781 145.98446176 -26.34225142 164.23087984 C-27.48959028 171.05197401 -28.64052215 177.87244865 -29.79446006 184.69242942 C-30.51673311 188.96511128 -31.23615902 193.23826932 -31.95491982 197.51154327 C-32.28463346 199.46822569 -32.61549605 201.42471498 -32.94770241 203.38097572 C-34.82080255 214.41500581 -36.53396926 225.45342516 -37.99478376 236.55028909 C-38.99701602 244.1582579 -40.24464868 251.70067118 -41.625 259.25 C-41.8415625 260.46945312 -42.058125 261.68890625 -42.28125 262.9453125 C-43.86658863 271.73317726 -43.86658863 271.73317726 -45 274 C-47.61694336 274.65429688 -47.61694336 274.65429688 -51.08984375 275.21875 C-52.34990234 275.42886719 -53.60996094 275.63898438 -54.90820312 275.85546875 C-56.25124297 276.0706817 -57.59434241 276.28552309 -58.9375 276.5 C-61.53014744 276.92587041 -64.12259955 277.3529319 -66.71484375 277.78125 C-67.96370361 277.98613037 -69.21256348 278.19101074 -70.49926758 278.40209961 C-74.3088987 279.05275772 -78.08881326 279.80568592 -81.8737793 280.58447266 C-84.8801622 281.17201011 -87.89770778 281.56506338 -90.9375 281.9375 C-102.96580079 283.48521449 -114.9716882 285.31864791 -126.87109375 287.66796875 C-129 288 -129 288 -133 288 C-133.15033691 287.05721191 -133.30067383 286.11442383 -133.45556641 285.14306641 C-137.69839171 258.57850895 -142.26344275 232.08642002 -147.0625 205.6171875 C-147.81307829 201.47406286 -148.56298872 197.3308178 -149.3125 193.1875 C-149.50283813 192.13589691 -149.69317627 191.08429382 -149.88928223 190.00082397 C-152.89127689 173.39373269 -155.76148978 156.76708051 -158.5625 140.125 C-161.33247475 123.66745585 -164.18005442 107.22839798 -167.1875 90.8125 C-167.35171448 89.91592682 -167.51592896 89.01935364 -167.68511963 88.09561157 C-168.32733259 84.59089413 -168.96994268 81.08624982 -169.61312866 77.58171082 C-171.11348444 69.39937384 -172.590263 61.21295212 -174.04458618 53.02230835 C-174.30160056 51.57681959 -174.55967525 50.13151885 -174.81893921 48.68643188 C-175.17252453 46.71464366 -175.52189475 44.742101 -175.87109375 42.76953125 C-176.06630615 41.67229736 -176.26151855 40.57506348 -176.46264648 39.44458008 C-177.10796355 35.30792467 -177.569231 31.16368435 -178 27 C-170.57704213 25.81929539 -163.15305046 24.64529002 -155.72771454 23.47963715 C-152.27921684 22.9380696 -148.83110304 22.39427101 -145.38378906 21.84521484 C-141.41316301 21.2129138 -137.44102549 20.59060542 -133.46875 19.96875 C-131.62766663 19.67345398 -131.62766663 19.67345398 -129.74938965 19.37219238 C-123.75675244 18.44181627 -118.06495041 17.76370323 -112 18 C-110.251714 23.52680017 -109.35475064 28.91206876 -108.65893555 34.65917969 C-108.53987854 35.60550262 -108.42082153 36.55182556 -108.29815674 37.52682495 C-107.90564942 40.65786542 -107.52109911 43.78982728 -107.13671875 46.921875 C-106.86052606 49.14061802 -106.58389087 51.359306 -106.30683899 53.57794189 C-105.72438195 58.25141999 -105.14554656 62.925327 -104.56958008 67.59960938 C-103.8483788 73.45232019 -103.12115328 79.30425904 -102.39146519 85.15591717 C-99.35480231 109.51466417 -96.38353982 133.87966211 -93.59672546 158.26837158 C-92.23057195 170.20345102 -90.73052793 182.1114138 -89 194 C-88.67 194 -88.34 194 -88 194 C-87.88519287 192.96037109 -87.77038574 191.92074219 -87.65209961 190.84960938 C-85.12867907 168.06451015 -82.44312306 145.30527005 -79.5625 122.5625 C-77.03253881 102.58758992 -74.66928341 82.60009966 -72.43942261 62.58953857 C-70.48185281 45.03271151 -68.37500901 27.50556461 -66 10 C-58.67024622 8.24148158 -51.34111704 7.13529722 -43.875 6.125 C-33.6335142 4.7096751 -23.44800809 3.11842183 -13.28466797 1.21923828 C-12.40955566 1.0592334 -11.53444336 0.89922852 -10.6328125 0.734375 C-9.50190186 0.52119629 -9.50190186 0.52119629 -8.34814453 0.30371094 C-5.5498852 -0.05821822 -2.81901638 -0.01875425 0 0 Z " class="cls-2" transform="translate(521,368)"/>
<path d="M0 0 C0 112.86 0 225.72 0 342 C-14.19 344.31 -28.38 346.62 -43 349 C-53.50827378 350.83923541 -53.50827378 350.83923541 -64.00341797 352.74389648 C-66.31820842 353.0408169 -68.66624411 353 -71 353 C-71 240.14 -71 127.28 -71 11 C-56.74378128 8.14875626 -42.38764054 6.18088194 -27.99389648 4.17724609 C-16.38101662 2.56898745 -16.38101662 2.56898745 -4.87182617 0.34960938 C-3 0 -3 0 0 0 Z " class="cls-2" transform="translate(800,249)"/>
<path d="M0 0 C0 112.86 0 225.72 0 342 C-18.81 344.97 -37.62 347.94 -57 351 C-58.32 351.33 -59.64 351.66 -61 352 C-63.97 352 -66.94 352 -70 352 C-70 239.47 -70 126.94 -70 11 C-60.8556859 9.17113718 -51.82971424 7.4202136 -42.625 6.0625 C-40.38529564 5.72606514 -38.14571561 5.38880169 -35.90625 5.05078125 C-34.77445313 4.8801416 -33.64265625 4.70950195 -32.4765625 4.53369141 C-28.95000001 3.99232444 -25.4278301 3.42830856 -21.90625 2.85546875 C-20.76849121 2.67040771 -19.63073242 2.48534668 -18.45849609 2.29467773 C-16.27874072 1.93851586 -14.09936027 1.58004979 -11.92041016 1.21899414 C-10.44773682 0.97910767 -10.44773682 0.97910767 -8.9453125 0.734375 C-7.65391357 0.52119629 -7.65391357 0.52119629 -6.33642578 0.30371094 C-4 0 -4 0 0 0 Z " class="cls-2" transform="translate(896,234)"/>
<path d="M0 0 C0 20.79 0 41.58 0 63 C-12.375 63.495 -12.375 63.495 -25 64 C-38.523346 68.91758036 -47.57769084 73.44694236 -53.75 86.4375 C-56.85070635 93.37274653 -58.24527281 99.92220159 -58.2784729 107.49182129 C-58.2842653 108.20102769 -58.2900577 108.9102341 -58.29602563 109.64093161 C-58.3128924 111.99309042 -58.3158905 114.34505145 -58.31884766 116.69726562 C-58.32815506 118.39301019 -58.33832493 120.0887502 -58.34928894 121.78448486 C-58.37651146 126.3706321 -58.39171532 130.95674876 -58.40471697 135.5429554 C-58.4203815 140.34227111 -58.4471611 145.14152468 -58.4727478 149.9407959 C-58.51947685 159.02116005 -58.55624936 168.10153597 -58.58942068 177.18195868 C-58.62768361 187.52297746 -58.67708283 197.86393375 -58.72740483 208.20489979 C-58.83063731 229.469887 -58.9199259 250.7349138 -59 272 C-63.81980267 273.67652726 -68.45259303 274.6034418 -73.5 275.25 C-80.89047905 276.24388015 -88.25897462 277.34352934 -95.62109375 278.52734375 C-96.46608429 278.66288666 -97.31107483 278.79842957 -98.18167114 278.93807983 C-101.6226657 279.49084171 -105.06345825 280.04464059 -108.50292969 280.60681152 C-110.94793559 281.0062209 -113.3937988 281.39998059 -115.83984375 281.79296875 C-116.57351669 281.91469955 -117.30718964 282.03643036 -118.06309509 282.16184998 C-122.16550427 282.81601011 -125.7945911 283 -130 283 C-130 217 -130 151 -130 83 C-134.95 83.99 -134.95 83.99 -140 85 C-141.32 85 -142.64 85 -144 85 C-144 62.89 -144 40.78 -144 18 C-133.77 16.35 -123.54 14.7 -113 13 C-108.30136719 12.21689453 -108.30136719 12.21689453 -103.5078125 11.41796875 C-102.2496875 11.20849609 -100.9915625 10.99902344 -99.6953125 10.78320312 C-97.22831857 10.37158762 -94.76222107 9.95457605 -92.296875 9.53320312 C-74.94845064 6.66907646 -74.94845064 6.66907646 -71.22363281 9.21337891 C-65.9351178 14.27934872 -64.1277094 22.21204213 -62 29 C-61.731875 28.39414062 -61.46375 27.78828125 -61.1875 27.1640625 C-54.51842974 12.90453727 -44.75155959 3.55977341 -30 -2 C-28.948125 -2.4125 -27.89625 -2.825 -26.8125 -3.25 C-16.43267097 -5.29193358 -9.79759781 -4.35448792 0 0 Z " class="cls-2" transform="translate(237,417)"/>
<path d="M0 0 C0 88.11 0 176.22 0 267 C-51.402316 275.56705267 -51.402316 275.56705267 -63.27832031 277.04003906 C-64.02135406 277.13253937 -64.76438782 277.22503967 -65.52993774 277.32034302 C-67.35324499 277.54727197 -69.17661616 277.77368724 -71 278 C-71.02286537 244.00280108 -71.04049772 210.00560406 -71.05106533 176.00839916 C-71.05231611 171.99900763 -71.05361042 167.98961612 -71.05493164 163.98022461 C-71.05519395 163.18199278 -71.05545626 162.38376094 -71.05572652 161.56134026 C-71.06008342 148.61926078 -71.06797107 135.67718572 -71.0771528 122.73510886 C-71.0864888 109.46536869 -71.0920555 96.19563084 -71.09408849 82.92588753 C-71.09546383 74.73106416 -71.09981501 66.53625328 -71.10791647 58.34143376 C-71.11380391 52.06838446 -71.1144591 45.79534478 -71.11310768 39.52229309 C-71.11338422 36.9410081 -71.11539209 34.35972266 -71.11920547 31.77844048 C-71.12413545 28.2711448 -71.12300087 24.76390384 -71.12025452 21.25660706 C-71.12316736 20.2206367 -71.1260802 19.18466635 -71.12908131 18.11730295 C-71.12709026 17.18524529 -71.12509921 16.25318762 -71.12304783 15.29288578 C-71.12342755 14.48218288 -71.12380727 13.67147997 -71.1241985 12.83621031 C-71 11 -71 11 -70 10 C-67.20983223 9.49545986 -64.42837526 9.04364322 -61.625 8.625 C-59.87758764 8.35687853 -58.13019226 8.08864635 -56.3828125 7.8203125 C-55.48594727 7.68399414 -54.58908203 7.54767578 -53.66503906 7.40722656 C-49.60752339 6.78722508 -45.55386082 6.14338913 -41.5 5.5 C-36.58652415 4.72278491 -31.67264896 3.94825527 -26.7578125 3.1796875 C-25.89865234 3.04498047 -25.03949219 2.91027344 -24.15429688 2.77148438 C-22.5125031 2.51412211 -20.87058295 2.25756426 -19.22851562 2.00195312 C-14.82510098 1.31219732 -14.82510098 1.31219732 -10.4609375 0.4140625 C-7.01959901 -0.16495636 -3.48970965 0 0 0 Z " class="cls-2" transform="translate(326,399)"/>
<path d="M0 0 C5.11313539 4.20413354 9.84031773 10.33182693 11 17 C12.35847031 31.29481262 9.81285055 41.11739358 0.625 52.5 C-6.01669443 59.43886197 -14.68381861 64.85759314 -24.4375 65.43359375 C-25.95823905 65.45057795 -27.47923309 65.45177341 -29 65.4375 C-29.75539063 65.45748047 -30.51078125 65.47746094 -31.2890625 65.49804688 C-39.62899091 65.49088199 -46.1419033 61.8580967 -52 56 C-58.31619272 46.47449854 -59.00875542 37.20625575 -58 26 C-57.16602326 22.58307816 -55.88023399 19.95465341 -54 17 C-53.56429688 16.24460937 -53.12859375 15.48921875 -52.6796875 14.7109375 C-46.94185528 5.33600945 -38.44463996 -1.81168798 -27.6484375 -4.609375 C-17.57692086 -6.09484943 -8.54486825 -6.00629574 0 0 Z " class="cls-2" transform="translate(314,322)"/>
<path d="M0 0 C0.11604531 8.2408486 0.20479072 16.4813537 0.25906086 24.72281837 C0.28511309 28.55004438 0.32042891 32.37670985 0.37719727 36.20361328 C0.43167656 39.89949394 0.46145343 43.59483678 0.47438622 47.2910881 C0.48359787 48.69850503 0.50158679 50.10589375 0.52865028 51.5130806 C0.75777049 63.92424538 0.75777049 63.92424538 -2.36938477 67.8203125 C-8.1617034 72.61973902 -15.54851128 74.74818765 -23.0546875 74.3984375 C-26.13263371 73.76801478 -27.88598132 72.24614485 -30 70 C-31.17888935 67.6422213 -31.14513483 66.18360434 -31.17700195 63.55371094 C-31.18983719 62.63225281 -31.20267242 61.71079468 -31.21589661 60.76141357 C-31.22328354 59.76249084 -31.23067047 58.76356812 -31.23828125 57.734375 C-31.246353 56.70822083 -31.25442474 55.68206665 -31.26274109 54.62481689 C-31.27658889 52.44927666 -31.28730792 50.27371464 -31.29516602 48.09814453 C-31.31235893 44.77724758 -31.35623722 41.45735115 -31.40039062 38.13671875 C-31.41051919 36.02344482 -31.41903478 33.91016243 -31.42578125 31.796875 C-31.44328934 30.80604919 -31.46079742 29.81522339 -31.47883606 28.79437256 C-31.45590064 21.47161679 -29.97140941 18.38956084 -25.16796875 12.91015625 C-18.94548174 7.10495633 -8.86387022 0 0 0 Z " class="cls-1" transform="translate(1021,434)"/>
<path d="M0 0 C3.89686247 3.26833627 3.89686247 3.26833627 4.18473816 5.79493713 C4.18331314 6.69348923 4.18188812 7.59204132 4.18041992 8.51782227 C4.18503487 10.04434166 4.18503487 10.04434166 4.18974304 11.60169983 C4.18255753 12.70380295 4.17537201 13.80590607 4.16796875 14.94140625 C4.16751053 16.06820297 4.16705231 17.19499969 4.1665802 18.35594177 C4.16355536 20.74080456 4.15566221 23.12566533 4.14331055 25.51049805 C4.12505882 29.17568909 4.12280077 32.84062765 4.12304688 36.50585938 C4.11813173 38.81771053 4.11230342 41.12955997 4.10546875 43.44140625 C4.10435593 44.5455336 4.1032431 45.64966095 4.10209656 46.7872467 C4.09571671 47.80177414 4.08933685 48.81630157 4.08276367 49.86157227 C4.07704597 51.20820702 4.07704597 51.20820702 4.07121277 52.58204651 C3.9375 54.625 3.9375 54.625 2.9375 55.625 C0.9912231 55.99501248 -0.96585627 56.30852463 -2.92578125 56.59765625 C-4.12267578 56.77490234 -5.31957031 56.95214844 -6.55273438 57.13476562 C-8.44475586 57.40836914 -8.44475586 57.40836914 -10.375 57.6875 C-11.62474609 57.87376953 -12.87449219 58.06003906 -14.16210938 58.25195312 C-23.53202266 59.625 -23.53202266 59.625 -28.0625 59.625 C-28.21499066 52.49026972 -28.31985834 45.35596162 -28.39208984 38.2199707 C-28.42220966 35.7940297 -28.46311464 33.36819712 -28.51513672 30.94262695 C-28.58815833 27.44976008 -28.62200597 23.95833628 -28.6484375 20.46484375 C-28.67940521 19.38541 -28.71037292 18.30597626 -28.74227905 17.1938324 C-28.74502525 11.00967383 -28.10507224 7.41958593 -23.71450806 2.92921448 C-17.223215 -2.1954811 -7.51732834 -3.37512701 0 0 Z " class="cls-1" transform="translate(634.0625,399.375)"/>
</svg>
