<?xml version="1.0" standalone="no"?>
<!DOCTYPE svg PUBLIC "-//W3C//DTD SVG 20010904//EN"
 "http://www.w3.org/TR/2001/REC-SVG-20010904/DTD/svg10.dtd">
<svg version="1.0" xmlns="http://www.w3.org/2000/svg"
 width="300.000000pt" height="300.000000pt" viewBox="0 0 300.000000 300.000000"
 preserveAspectRatio="xMidYMid meet">

<g transform="translate(0.000000,300.000000) scale(0.100000,-0.100000)"
fill="#221F20" stroke="none">
<path d="M1745 2978 c-2 -7 -22 -94 -42 -193 l-38 -180 -145 -1 c-204 -3 -299
-23 -324 -69 -6 -11 -29 -40 -51 -66 -83 -95 -125 -208 -125 -334 1 -136 47
-250 141 -345 190 -193 503 -195 697 -3 77 75 126 174 143 283 21 136 -28 295
-127 408 -24 27 -44 55 -44 61 0 6 -11 17 -25 23 -14 6 -24 17 -21 24 51 134
136 367 134 369 -2 1 -32 7 -68 14 -36 7 -73 14 -83 17 -9 3 -19 -1 -22 -8z
m89 -54 c19 -7 20 -24 5 -57 -8 -18 -17 -23 -35 -19 -31 6 -37 16 -29 52 7 30
24 37 59 24z m-36 -122 c10 -7 1 -41 -39 -150 -28 -78 -55 -142 -59 -142 -6 0
42 248 55 288 5 14 24 16 43 4z m-185 -249 c31 -5 38 -9 35 -27 -5 -33 -78
-42 -231 -28 -134 12 -179 24 -139 36 63 20 262 32 335 19z m-313 -99 c12 -12
9 -19 -27 -56 -38 -39 -41 -45 -27 -62 14 -19 15 -19 52 17 21 20 40 37 43 37
3 0 12 -18 19 -40 9 -27 19 -40 31 -40 31 0 32 20 2 81 -29 59 -29 59 -8 59
18 0 24 -7 28 -37 7 -40 31 -83 48 -83 14 0 11 58 -6 90 -15 29 -15 30 10 30
l25 0 0 -212 c-1 -229 2 -221 -45 -153 -12 19 -14 19 -31 3 -16 -16 -16 -19
-1 -35 9 -10 29 -45 44 -78 23 -51 28 -76 31 -167 3 -77 1 -108 -7 -108 -15 0
-100 44 -129 68 l-23 18 35 59 c45 74 52 95 35 106 -23 14 -29 11 -46 -28 -21
-52 -53 -94 -64 -87 -12 7 -54 92 -63 126 -5 22 -1 30 29 48 48 30 110 103
140 166 30 64 31 70 5 77 -16 4 -24 -2 -35 -29 -8 -19 -16 -34 -19 -34 -3 0
-25 21 -50 48 -42 44 -46 46 -62 31 -15 -16 -13 -20 25 -59 57 -59 60 -75 19
-117 -18 -19 -41 -39 -51 -45 -18 -9 -19 -6 -15 44 3 49 1 53 -19 56 -16 2
-23 -2 -23 -12 0 -21 -7 -20 -55 7 -38 22 -40 25 -38 70 2 57 40 143 95 215
40 51 43 53 77 47 20 -4 43 -13 51 -21z m545 -16 c47 -55 81 -123 101 -200 16
-61 16 -61 -7 -79 -38 -29 -76 -40 -83 -23 -3 8 -14 14 -25 14 -17 0 -20 -8
-23 -57 l-3 -58 -48 47 c-56 53 -55 58 14 133 33 36 37 44 25 54 -19 16 -45 2
-80 -44 -15 -19 -31 -35 -36 -35 -5 0 -13 15 -20 34 -8 27 -15 33 -30 29 -27
-7 -25 -28 8 -89 32 -62 62 -98 120 -143 23 -19 42 -42 42 -51 0 -20 -59 -140
-68 -140 -9 0 -45 57 -61 98 -8 17 -15 32 -16 32 -17 0 -35 -15 -35 -29 0 -10
16 -44 36 -77 42 -69 40 -75 -36 -121 -83 -51 -83 -51 -79 85 4 114 5 119 42
186 31 56 36 71 25 83 -11 13 -16 11 -40 -18 l-28 -33 0 207 c0 204 0 207 21
207 16 0 19 -4 13 -17 -4 -10 -9 -38 -11 -63 l-4 -45 26 28 c16 19 25 40 25
63 0 30 3 34 25 34 14 0 25 -1 25 -2 0 -2 -11 -25 -25 -52 -30 -59 -32 -86 -7
-86 12 0 25 14 37 40 10 22 21 40 25 40 3 0 21 -16 40 -35 26 -26 37 -32 47
-24 19 16 16 29 -12 51 -64 50 -52 87 32 97 6 0 28 -18 48 -41z m-687 -371 c6
-5 12 -30 12 -57 l0 -47 -37 6 c-33 6 -39 11 -49 46 -7 22 -13 52 -13 67 l-1
28 38 -17 c20 -10 43 -21 50 -26z m798 6 c-4 -21 -12 -53 -17 -70 -10 -30 -14
-33 -51 -33 -32 0 -39 3 -34 16 3 9 6 30 6 48 0 28 6 35 43 53 57 29 60 29 53
-14z m-771 -161 c6 -4 19 -24 29 -45 11 -20 35 -55 53 -77 19 -22 30 -40 25
-40 -30 0 -162 131 -162 161 0 11 41 12 55 1z m715 -2 c0 -16 -116 -134 -152
-154 l-33 -20 32 37 c17 20 44 58 59 84 16 26 33 51 39 55 15 11 55 10 55 -2z"/>
<path d="M1221 2446 c-9 -10 -8 -16 4 -26 19 -16 41 1 32 24 -8 20 -21 20 -36
2z"/>
<path d="M1166 2394 c-9 -24 -7 -87 4 -104 9 -13 11 -13 20 0 18 27 10 120
-10 120 -4 0 -11 -7 -14 -16z"/>
<path d="M1420 2280 c0 -13 7 -20 20 -20 13 0 20 7 20 20 0 13 -7 20 -20 20
-13 0 -20 -7 -20 -20z"/>
<path d="M1110 2251 c0 -24 52 -81 74 -81 20 0 20 4 1 40 -14 27 -51 60 -67
60 -5 0 -8 -9 -8 -19z"/>
<path d="M1423 2164 c-8 -21 13 -42 28 -27 13 13 5 43 -11 43 -6 0 -13 -7 -17
-16z"/>
<path d="M1382 2018 c-7 -7 -12 -20 -12 -31 0 -14 6 -18 27 -15 33 4 42 32 15
47 -13 7 -22 7 -30 -1z"/>
<path d="M1286 1994 c-9 -24 -7 -87 4 -104 9 -13 11 -13 20 0 18 27 10 120
-10 120 -4 0 -11 -7 -14 -16z"/>
<path d="M1410 1823 c0 -31 34 -93 50 -93 17 0 11 53 -10 88 -24 39 -40 41
-40 5z"/>
<path d="M1771 2446 c-9 -10 -8 -16 4 -26 19 -16 41 1 32 24 -8 20 -21 20 -36
2z"/>
<path d="M1831 2391 c-15 -28 -14 -74 3 -97 14 -18 15 -18 26 11 12 31 6 90
-10 100 -5 3 -14 -3 -19 -14z"/>
<path d="M1565 2290 c-4 -7 -3 -16 3 -22 14 -14 45 -2 40 15 -6 16 -34 21 -43
7z"/>
<path d="M1864 2236 c-35 -35 -45 -66 -21 -66 18 0 63 49 72 78 10 32 -11 28
-51 -12z"/>
<path d="M1567 2167 c-3 -8 -2 -20 3 -27 11 -18 42 -4 38 17 -4 22 -34 29 -41
10z"/>
<path d="M1610 2015 c-18 -21 -4 -47 22 -43 29 4 35 34 10 47 -15 8 -23 7 -32
-4z"/>
<path d="M1711 1987 c-6 -16 -11 -34 -11 -42 0 -8 5 -26 11 -42 10 -27 11 -27
25 -9 8 11 14 34 14 51 0 17 -6 40 -14 51 -14 18 -15 18 -25 -9z"/>
<path d="M1576 1821 c-18 -33 -21 -91 -6 -91 13 0 38 50 42 85 4 39 -18 43
-36 6z"/>
<path d="M1107 2044 c-15 -15 -7 -45 11 -42 9 2 17 12 17 22 0 20 -16 31 -28
20z"/>
<path d="M1889 2034 c-9 -11 -9 -18 -1 -26 14 -14 42 -3 42 16 0 20 -27 27
-41 10z"/>
<path d="M1160 1891 c0 -6 5 -13 10 -16 6 -3 10 1 10 9 0 9 -4 16 -10 16 -5 0
-10 -4 -10 -9z"/>
<path d="M1846 1891 c-4 -5 -2 -12 3 -15 5 -4 12 -2 15 3 4 5 2 12 -3 15 -5 4
-12 2 -15 -3z"/>
<path d="M1496 2941 c-29 -32 -49 -109 -43 -167 6 -56 43 -137 61 -131 6 2 21
23 34 47 30 59 30 153 1 215 -26 55 -32 59 -53 36z"/>
<path d="M1297 2873 c-12 -11 -7 -54 10 -90 20 -43 79 -76 93 -53 14 22 12 48
-6 86 -21 43 -78 77 -97 57z"/>
<path d="M1287 2689 c-18 -10 -18 -12 4 -35 16 -17 33 -24 59 -24 20 0 39 3
43 6 11 11 -5 35 -34 49 -33 18 -47 18 -72 4z"/>
<path d="M1075 1397 c-3 -7 -4 -136 -3 -287 l3 -275 58 -3 57 -3 0 61 c0 57 1
60 25 60 18 0 37 -16 72 -60 l48 -60 68 0 c37 0 67 3 67 6 0 3 -25 37 -55 76
-30 38 -55 73 -55 77 0 4 13 20 30 36 43 41 63 102 58 174 -7 104 -78 180
-187 201 -77 14 -180 13 -186 -3z m213 -123 c55 -39 66 -123 21 -171 -24 -24
-92 -48 -109 -38 -6 3 -10 55 -10 116 l0 109 38 0 c21 0 48 -7 60 -16z"/>
<path d="M550 1120 l0 -280 111 0 c129 0 167 13 205 69 34 51 34 134 -1 185
-25 37 -25 38 -10 84 21 61 12 114 -28 159 -44 51 -82 63 -187 63 l-90 0 0
-280z m194 154 c39 -38 9 -96 -50 -98 l-39 -1 -3 58 -3 57 40 0 c23 0 46 -7
55 -16z m28 -231 c24 -21 23 -58 -2 -83 -15 -15 -33 -20 -70 -20 l-50 0 0 60
0 60 52 0 c34 0 58 -6 70 -17z"/>
<path d="M1622 1118 l3 -283 55 0 55 0 0 280 0 280 -58 3 -57 3 2 -283z"/>
<path d="M2089 1386 c-71 -25 -141 -96 -169 -171 -7 -16 -12 -59 -12 -95 -2
-260 310 -388 487 -199 62 67 79 108 79 199 0 58 -5 85 -22 117 -57 110 -142
163 -256 163 -39 -1 -87 -7 -107 -14z m202 -121 c43 -28 79 -96 79 -149 0 -83
-73 -164 -155 -174 -168 -18 -269 183 -150 298 65 63 153 72 226 25z"/>
<path d="M2362 740 l-72 -41 20 -39 20 -40 68 35 c100 51 96 46 76 88 -10 21
-22 37 -28 37 -6 0 -44 -18 -84 -40z"/>
<path d="M1682 543 l3 -48 68 -3 67 -3 0 -239 0 -240 45 0 45 0 0 240 0 240
70 0 70 0 0 50 0 50 -186 0 -185 0 3 -47z"/>
<path d="M2200 300 l0 -290 175 0 175 0 0 45 0 44 -127 3 -128 3 0 25 c0 25 1
25 98 28 l97 3 0 44 0 44 -97 3 -98 3 0 120 0 120 128 3 127 3 0 44 0 45 -175
0 -175 0 0 -290z"/>
<path d="M450 295 l0 -285 50 0 49 0 3 131 3 131 84 -121 c47 -67 88 -121 92
-121 5 0 46 54 91 120 l83 119 3 -129 3 -130 49 0 50 0 0 287 c0 246 -2 285
-14 273 -8 -8 -69 -95 -136 -192 -67 -98 -125 -178 -129 -178 -4 0 -66 85
-137 190 -71 104 -132 189 -136 190 -5 0 -8 -128 -8 -285z"/>
<path d="M1302 328 c-55 -134 -108 -260 -116 -280 l-16 -38 53 0 c51 0 53 1
66 35 l12 35 110 0 109 0 14 -35 c14 -33 17 -35 66 -35 l50 0 -13 33 c-137
330 -221 527 -227 527 -4 0 -52 -109 -108 -242z m143 -65 c17 -42 32 -80 33
-85 2 -4 -29 -8 -68 -8 -39 0 -70 4 -68 8 2 5 16 43 33 85 16 42 32 77 35 77
3 0 19 -35 35 -77z"/>
</g>
</svg>
