<?xml version="1.0" standalone="no"?>
<!DOCTYPE svg PUBLIC "-//W3C//DTD SVG 20010904//EN"
 "http://www.w3.org/TR/2001/REC-SVG-20010904/DTD/svg10.dtd">
<svg version="1.0" xmlns="http://www.w3.org/2000/svg"
 width="300.000000pt" height="206.000000pt" viewBox="0 0 300.000000 206.000000"
 preserveAspectRatio="xMidYMid meet">
<g transform="translate(0.000000,206.000000) scale(0.100000,-0.100000)"
fill="#EED4F1" stroke="none">
<path d="M213 1554 c4 -22 7 -70 7 -108 0 -58 2 -67 14 -56 8 6 16 23 18 37 5
41 28 41 28 1 0 -42 7 -50 31 -38 15 9 16 15 7 43 -6 17 -18 43 -27 56 -13 21
-16 21 -26 7 -18 -25 -21 -20 -20 36 0 44 -3 53 -19 56 -17 4 -18 0 -13 -34z"/>
<path d="M725 1526 c-17 -7 -35 -19 -42 -27 -7 -8 -39 -96 -73 -194 -69 -205
-133 -375 -140 -374 -3 0 -32 42 -65 92 -33 50 -81 120 -107 154 -27 34 -48
69 -48 77 0 8 -10 27 -23 41 -28 34 -77 36 -135 6 -51 -26 -57 -46 -39 -133
13 -61 13 -81 -4 -195 -10 -71 -22 -176 -25 -235 -7 -103 -6 -108 20 -153 35
-59 62 -73 104 -51 59 30 59 30 67 235 4 105 10 191 14 191 12 0 121 -234 121
-261 1 -59 54 -134 87 -122 7 3 23 -3 35 -11 33 -23 75 -20 103 8 37 37 41 70
15 125 l-22 48 76 174 c42 96 81 182 87 192 18 33 2 29 -24 -5 -23 -30 -117
-220 -117 -236 0 -4 -6 -19 -14 -34 -35 -66 -38 -92 -16 -143 23 -53 19 -78
-14 -101 -19 -12 -29 -12 -52 -3 -35 15 -40 16 -59 18 -21 2 -46 45 -56 97
-10 55 -66 173 -109 233 -31 42 -32 43 -50 25 -23 -23 -27 -53 -36 -224 -4
-74 -11 -143 -16 -152 -5 -10 -20 -21 -35 -24 -21 -6 -32 -1 -55 25 -35 40
-38 68 -19 251 7 63 16 131 21 150 10 39 14 124 7 155 -20 88 -19 102 9 124
27 21 104 30 104 12 0 -5 19 -38 43 -73 215 -317 224 -326 271 -245 23 39 86
210 119 322 8 28 21 64 28 80 15 35 16 40 18 60 0 8 14 29 29 46 22 25 39 33
74 36 78 8 86 -8 103 -212 18 -219 29 -311 46 -390 27 -121 26 -116 38 -148
19 -48 14 -141 -8 -161 -33 -30 -72 -17 -98 30 -26 46 -61 177 -67 250 -6 62
-35 237 -41 242 -23 24 6 -264 40 -396 21 -80 61 -156 89 -171 30 -17 89 0
111 32 22 32 19 124 -9 219 -33 114 -53 249 -71 476 -9 106 -20 203 -25 216
-15 42 -104 59 -165 32z"/>
<path d="M490 1515 c0 -9 9 -19 20 -22 24 -6 25 -13 5 -39 -8 -10 -15 -29 -15
-41 0 -27 24 -30 74 -9 42 17 61 42 25 32 -13 -3 -35 -9 -48 -13 l-24 -6 23
30 c18 25 20 34 11 52 -7 11 -18 21 -26 21 -7 0 -20 3 -29 6 -11 4 -16 1 -16
-11z"/>
<path d="M73 1508 c-32 -15 -61 -74 -47 -96 15 -23 96 -22 147 2 51 25 40 31
-33 17 -73 -15 -90 -8 -59 25 18 19 30 23 51 19 39 -9 53 3 32 26 -19 21 -57
24 -91 7z"/>
<path d="M374 1512 c-16 -10 -34 -48 -34 -70 0 -26 31 -52 63 -52 14 0 39 12
54 26 l28 25 -25 -7 c-37 -12 -83 -10 -87 2 -2 7 16 13 47 16 28 3 53 8 57 12
3 3 -4 17 -17 31 -23 24 -63 33 -86 17z m66 -22 c0 -5 -14 -10 -31 -10 -17 0
-28 4 -24 10 3 6 17 10 31 10 13 0 24 -4 24 -10z"/>
<path d="M2240 1149 c-112 -61 -131 -109 -43 -109 61 0 131 33 139 67 8 29
-10 73 -28 73 -7 0 -38 -14 -68 -31z m50 -38 c0 -11 -59 -36 -67 -27 -9 9 28
35 50 36 9 0 17 -4 17 -9z"/>
<path d="M1690 1053 c-16 -20 -20 -36 -16 -58 30 -169 33 -220 15 -340 -10
-67 -10 -78 5 -94 20 -22 89 -34 130 -23 29 8 30 9 27 68 -3 72 15 187 34 225
40 75 93 87 175 39 72 -42 87 -39 53 10 -73 110 -171 154 -276 123 -51 -15
-67 -12 -67 16 0 18 -35 61 -50 61 -5 0 -18 -12 -30 -27z m67 -69 c25 -23 32
-25 73 -18 67 13 125 9 151 -10 l23 -16 -22 0 c-91 0 -162 -118 -162 -268 0
-78 -11 -102 -49 -102 -47 0 -54 18 -43 112 11 88 8 181 -8 261 -16 78 -10 85
37 41z"/>
<path d="M2710 1020 c-19 -11 -61 -34 -94 -52 -68 -37 -146 -105 -175 -151
-50 -81 -44 -193 12 -228 57 -36 163 -16 342 63 133 59 185 93 185 119 0 37
-89 196 -131 234 -46 41 -86 46 -139 15z m112 -40 c28 -22 88 -118 106 -169
10 -29 9 -35 -11 -53 -12 -10 -67 -39 -122 -64 -55 -24 -109 -49 -120 -54 -72
-33 -172 -39 -205 -12 -28 23 -32 101 -7 149 24 46 75 101 108 119 41 20 43
18 16 -18 -74 -99 -74 -157 0 -196 33 -18 114 -14 153 7 38 20 97 89 106 125
9 38 -15 105 -53 147 -30 34 -33 39 -16 39 11 0 32 -9 45 -20z m-29 -81 c27
-53 27 -59 14 -91 -37 -89 -169 -135 -229 -81 -27 24 -22 45 26 110 53 72 114
125 141 121 13 -2 30 -23 48 -59z"/>
<path d="M1312 1000 c-66 -39 -182 -147 -221 -209 -36 -56 -39 -96 -11 -150
36 -72 122 -120 187 -105 52 12 110 53 153 108 46 61 70 71 70 31 0 -15 12
-38 26 -52 25 -25 26 -25 45 -7 16 16 21 45 31 177 l12 157 -24 24 c-29 32
-100 56 -164 56 -38 0 -64 -8 -104 -30z m146 -15 c1 -1 -28 -17 -65 -36 -94
-47 -228 -178 -239 -233 -6 -36 -4 -42 26 -69 27 -24 38 -28 66 -23 92 18 172
95 243 233 27 53 27 81 -1 104 -17 15 -18 19 -5 19 31 0 68 -24 73 -47 9 -36
-6 -253 -18 -253 -6 0 -19 11 -30 25 -33 43 -46 37 -145 -67 -82 -87 -176 -87
-237 -1 -49 70 -36 111 68 221 85 90 184 146 236 135 14 -3 26 -7 28 -8z m32
-49 c0 -9 -85 -153 -109 -185 -38 -50 -107 -91 -153 -91 -76 0 -60 58 43 155
75 70 161 125 197 125 12 0 22 -2 22 -4z"/>
<path d="M2212 973 c-20 -17 -21 -30 -24 -218 l-2 -200 47 1 c66 1 79 16 83
106 2 40 10 107 18 148 l14 75 -39 53 c-42 56 -64 63 -97 35z m72 -59 c17 -24
18 -34 6 -153 -6 -69 -16 -136 -21 -149 -12 -30 -44 -26 -43 6 0 12 1 90 2
172 2 136 4 150 20 150 9 0 25 -12 36 -26z"/>
</g>
</svg>
