<?xml version="1.0" encoding="UTF-8"?>
<svg version="1.1" xmlns="http://www.w3.org/2000/svg" width="2560" height="871">
<path d="M0 0 C-0.65256246 3.49735063 -2.06150283 5.97896697 -3.95703125 8.97265625 C-4.56893311 9.94501221 -5.18083496 10.91736816 -5.8112793 11.91918945 C-6.47168213 12.95648193 -7.13208496 13.99377441 -7.8125 15.0625 C-8.82920776 16.67354614 -8.82920776 16.67354614 -9.86645508 18.31713867 C-11.90636685 21.54769772 -13.95302632 24.7739127 -16 28 C-17.08145454 29.71308396 -18.16224764 31.42658577 -19.2421875 33.140625 C-21.67335194 36.99828462 -24.1097886 40.85257291 -26.54833984 44.70556641 C-29.03473533 48.63545958 -31.51712775 52.56788032 -34 56.5 C-34.99998164 58.08334493 -35.99998162 59.66667828 -37 61.25 C-37.7425 62.425625 -37.7425 62.425625 -38.5 63.625 C-43 70.75 -43 70.75 -44.50146484 73.12719727 C-45.49672914 74.70311348 -46.49184746 76.27912191 -47.48681641 77.85522461 C-50.05805447 81.92782635 -52.63216957 85.99856755 -55.2109375 90.06640625 C-62.74359509 101.94829803 -62.74359509 101.94829803 -70 114 C-74.66611149 113.44324806 -78.06795496 111.33027335 -82 108.9375 C-119.92407992 86.8406335 -168.66582213 82.0450673 -210.78393555 92.89892578 C-233.01466922 98.98174867 -253.53200743 108.85709859 -271 124 C-271.81726563 124.69609375 -272.63453125 125.3921875 -273.4765625 126.109375 C-304.16304169 152.90066643 -320.20607916 190.74490998 -323 231 C-325.11875091 270.80159973 -313.46874885 310.2150816 -288 341 C-287.54512207 341.55268555 -287.09024414 342.10537109 -286.62158203 342.67480469 C-279.67070969 350.98943971 -271.78374789 357.70554405 -263 364 C-262.44473633 364.39815918 -261.88947266 364.79631836 -261.31738281 365.20654297 C-241.18383868 379.38802635 -218.02572387 387.42835035 -194 392 C-192.89011719 392.21527344 -191.78023438 392.43054688 -190.63671875 392.65234375 C-134.19148001 402.09434339 -77.74704488 384.43268816 -31.6875 352 C-20.57417871 343.97811616 -10.28792996 334.81341548 -0.40234375 325.33544922 C0.8493721 324.14344266 2.12623839 322.97797522 3.40625 321.81640625 C6.91367227 318.41342685 6.91367227 318.41342685 8.10571289 313.84936523 C7.94703735 312.68449585 7.94703735 312.68449585 7.78515625 311.49609375 C7.61209961 310.17303223 7.61209961 310.17303223 7.43554688 308.82324219 C6.84253533 304.97930413 6.2410122 301.13846502 5.59082031 297.30371094 C-0.09046465 263.79358094 -1.36416215 229.66844863 4 196 C4.1556543 195.01386719 4.31130859 194.02773438 4.47167969 193.01171875 C11.81724563 148.73305777 31.81058589 107.38168318 62.51171875 74.67578125 C64.59661085 72.43378582 66.59110206 70.1532465 68.5625 67.8125 C72.65626665 63.10902342 77.29613196 59.07934319 82 55 C82.93328125 54.16726562 83.8665625 53.33453125 84.828125 52.4765625 C116.2843799 24.7443738 155.46901665 5.29160969 195 -8 C196.15967285 -8.39026367 197.3193457 -8.78052734 198.51416016 -9.18261719 C246.9035249 -25.24838958 298.94663716 -34.27030679 350 -35 C351.25538574 -35.02046387 352.51077148 -35.04092773 353.80419922 -35.06201172 C426.97969067 -36.14057905 501.12471854 -26.39859209 617.69213867 28.54418945 C618.59295166 29.11097412 619.49376465 29.67775879 620.421875 30.26171875 C621.21174805 30.76662842 622.00162109 31.27153809 622.81542969 31.79174805 C624.9759337 32.9866893 626.54443308 33.75155296 629 34 C630.92760002 33.23746849 630.92760002 33.23746849 632.7734375 31.89453125 C633.50385254 31.41169678 634.23426758 30.9288623 634.98681641 30.43139648 C635.77491699 29.89716064 636.56301758 29.3629248 637.375 28.8125 C699.80532626 -11.91104134 774.54847343 -28.43075869 848 -34 C848.94101563 -34.07202637 849.88203125 -34.14405273 850.8515625 -34.21826172 C939.74413545 -40.62355606 1035.87957516 -25.28261979 1115.17333984 16.04980469 C1116.99128925 16.99546882 1118.81729872 17.92398855 1120.64453125 18.8515625 C1144.12088809 30.90775109 1165.34042172 46.34042172 1184 65 C1184.33 38.6 1184.66 12.2 1185 -15 C1241.1 -15 1297.2 -15 1355 -15 C1355.33 1.17 1355.66 17.34 1356 34 C1361.61 30.37 1367.22 26.74 1373 23 C1418.410456 -3.32490203 1466.76750076 -18.25803715 1519 -23 C1520.12462646 -23.10803955 1520.12462646 -23.10803955 1521.27197266 -23.21826172 C1608.31200982 -31.3667827 1709.05430919 -9.9228397 1777.9375 45.6875 C1779.63378936 47.11461769 1781.32181801 48.55163274 1783 50 C1783.76828125 50.65742188 1784.5365625 51.31484375 1785.328125 51.9921875 C1797.55345044 62.71970817 1809.10213605 74.1812999 1818.74853516 87.29980469 C1819.99732441 88.99636504 1821.26887103 90.67395975 1822.54296875 92.3515625 C1854.61059847 135.20951628 1867.21555374 189.40353736 1867.25 242.125 C1867.25101212 243.52078278 1867.25101212 243.52078278 1867.25204468 244.94476318 C1867.18479467 303.51260205 1849.84799011 359.11166449 1813 405 C1811.80890625 406.50046875 1811.80890625 406.50046875 1810.59375 408.03125 C1799.22542898 421.92586458 1786.35647612 435.18708287 1772 446 C1770.81573773 446.92362263 1769.63219741 447.84817138 1768.44921875 448.7734375 C1695.92746819 504.9355241 1597.54621793 527.75025522 1507.19482422 516.52734375 C1451.24098932 509.23221351 1398.73862258 489.39629476 1356 452 C1355.67 526.91 1355.34 601.82 1355 679 C1297.58 679 1240.16 679 1181 679 C1180.67 594.85 1180.34 510.7 1180 424 C1175.05 427.96 1170.1 431.92 1165 436 C1161.14880377 438.73862843 1157.31916589 441.40921439 1153.375 444 C1151.85048218 445.00836914 1151.85048218 445.00836914 1150.29516602 446.03710938 C1141.17470265 452.00547599 1131.82901826 457.50795161 1122.27490234 462.74951172 C1120.25350281 463.86065235 1118.2445478 464.99077237 1116.23828125 466.12890625 C1059.72357909 497.45564485 991.5134793 513.8772505 927.34570312 517.85302734 C925.13970652 517.99124653 922.93781289 518.15831836 920.734375 518.33203125 C843.10544244 523.94762747 761.88734261 512.21811741 635.83422852 454.60571289 C635.11936279 454.13125732 634.40449707 453.65680176 633.66796875 453.16796875 C633.05203857 452.74797607 632.4361084 452.3279834 631.80151367 451.89526367 C629.73827264 450.70331481 629.73827264 450.70331481 626 451 C624.19030004 451.79441501 624.19030004 451.79441501 622.4453125 452.984375 C621.76009521 453.41878906 621.07487793 453.85320312 620.36889648 454.30078125 C619.62841064 454.77902344 618.8879248 455.25726562 618.125 455.75 C554.87613287 495.33625858 480.87525398 513.06513303 407 518 C406.24847656 518.05639648 405.49695313 518.11279297 404.72265625 518.17089844 C326.14547261 524.00549599 243.37365391 512.89097402 163 479 C162.08041504 478.58959473 161.16083008 478.17918945 160.21337891 477.75634766 C131.15055459 464.65074259 103.75149175 447.68222318 80.23828125 426.0546875 C78.12960473 424.11897397 75.98213672 422.24180024 73.8125 420.375 C70.03063358 417.08608562 66.50242434 413.58184158 63 410 C57.59447559 414.49281152 52.66216552 419.29044388 47.75 424.3125 C41.44422344 430.68132076 35.08572988 436.50656897 28 442 C26.86226697 442.92423918 25.72700651 443.85152736 24.59375 444.78125 C9.27409867 457.30956563 -6.84024416 468.15104178 -24 478 C-24.86753906 478.50031738 -25.73507812 479.00063477 -26.62890625 479.51611328 C-71.78672714 505.37877543 -121.32522259 519.91801362 -173 525 C-173.70640625 525.07202637 -174.4128125 525.14405273 -175.140625 525.21826172 C-250.96290724 532.60075149 -333.80469783 516.5759311 -401 481 C-401.71462402 480.62407715 -402.42924805 480.2481543 -403.16552734 479.86083984 C-419.1611529 471.38971189 -433.92669699 461.36986 -448 450 C-448.81452637 449.34209473 -448.81452637 449.34209473 -449.64550781 448.67089844 C-463.67700179 437.22479926 -477.0878831 424.48852765 -488 410 C-488.41910645 409.4519873 -488.83821289 408.90397461 -489.27001953 408.33935547 C-517.49376376 371.35337085 -534.48769107 329.05314686 -541 283 C-541.11714355 282.22140625 -541.23428711 281.4428125 -541.35498047 280.640625 C-551.35254316 211.71240677 -534.76092974 139.52456662 -493.10864258 83.68383789 C-488.79759479 78.01796249 -484.15559682 72.70999016 -479.3125 67.49609375 C-477.26342081 65.28433428 -475.27800519 63.03577724 -473.3125 60.75 C-455.84485065 40.71117796 -432.90028467 24.26838783 -409.93212891 11.11083984 C-407.94926706 9.97083208 -405.98099224 8.80782521 -404.01171875 7.64453125 C-356.79602385 -19.83142415 -301.91804172 -33.88164066 -248 -40 C-246.97487305 -40.11859375 -245.94974609 -40.2371875 -244.89355469 -40.359375 C-162.23646512 -49.41473271 -75.12941187 -35.4359368 0 0 Z M1474 87 C1473.17274414 87.19335938 1472.34548828 87.38671875 1471.49316406 87.5859375 C1446.50447182 93.64380229 1424.30365258 104.97585198 1405 122 C1404.00355469 122.86367187 1403.00710938 123.72734375 1401.98046875 124.6171875 C1395.26361011 130.53102387 1389.39965497 136.84807604 1384 144 C1383.39309326 144.79446533 1383.39309326 144.79446533 1382.77392578 145.60498047 C1356.78329971 179.82946886 1346.83573324 223.57070041 1351.87939453 266.01586914 C1356.77059364 300.98678006 1370.6648961 332.33253937 1395 358 C1396.33998047 359.43666016 1396.33998047 359.43666016 1397.70703125 360.90234375 C1425.45801576 390.06943565 1465.51003262 405.34724162 1505.35473633 406.35131836 C1547.34748371 406.71029399 1584.85140472 389.65110709 1614.55126953 360.47607422 C1618.37579443 356.57936416 1621.7233712 352.35903401 1625 348 C1625.59675537 347.21568604 1625.59675537 347.21568604 1626.20556641 346.41552734 C1653.43151517 310.43648385 1666.49117163 265.15238908 1660.63183594 220.17382812 C1654.50522528 178.75168557 1635.10289516 140.4796996 1601.49145508 114.57226562 C1565.39627058 87.79242436 1518.08684494 76.61334255 1474 87 Z M854 92 C853.27635254 92.16628906 852.55270508 92.33257812 851.80712891 92.50390625 C831.30010338 97.29671897 812.44325541 106.53366188 795.5625 119.0625 C794.91200684 119.54493164 794.26151367 120.02736328 793.59130859 120.52441406 C789.01491683 124.01286895 784.99392965 127.86585793 781 132 C780.12730469 132.86882812 779.25460937 133.73765625 778.35546875 134.6328125 C769.61206617 143.4197146 762.42273389 152.42488192 756 163 C755.60925293 163.64146973 755.21850586 164.28293945 754.81591797 164.94384766 C745.24399106 180.99078345 738.90709175 199.54837631 736 218 C735.81824219 219.13695312 735.63648438 220.27390625 735.44921875 221.4453125 C734.67837254 227.89016746 734.75568876 234.39299356 734.75 240.875 C734.74932526 241.56596771 734.74865051 242.25693542 734.74795532 242.96884155 C734.76489924 253.90748746 735.40943176 264.34450329 738 275 C738.16628906 275.72364746 738.33257813 276.44729492 738.50390625 277.19287109 C744.72158099 303.79645903 758.25285665 327.22644301 777 347 C778.33998047 348.43666016 778.33998047 348.43666016 779.70703125 349.90234375 C803.85213447 375.27954953 839.6744961 392.28554709 874.74707031 394.20507812 C878.728575 394.30304133 882.7052272 394.33456474 886.6875 394.3125 C887.39032104 394.31034485 888.09314209 394.3081897 888.81726074 394.30596924 C899.77761383 394.25215357 910.34669752 393.74277315 921 391 C921.79760742 390.79600586 922.59521484 390.59201172 923.41699219 390.38183594 C946.69416849 384.24309501 967.91343676 374.08980665 986 358 C986.83660156 357.28328125 987.67320312 356.5665625 988.53515625 355.828125 C1019.06478557 329.21497054 1036.99479972 291.31558229 1039.87548828 251.05957031 C1042.5482278 206.84931425 1025.82346253 167.71505762 997 135 C996.06800781 133.93845703 996.06800781 133.93845703 995.1171875 132.85546875 C971.19148218 107.37405613 934.11708969 90.7466325 899.34643555 88.79492188 C895.49923688 88.69711385 891.6608882 88.67103044 887.8125 88.6875 C887.13402008 88.68932281 886.45554016 88.69114563 885.75650024 88.69302368 C874.89878011 88.74198765 864.55919204 89.43284539 854 92 Z M270 127 C269.17113281 127.71929687 268.34226562 128.43859375 267.48828125 129.1796875 C264.95841364 131.41898838 262.47290553 133.69805097 260 136 C259.26007812 136.67417969 258.52015625 137.34835938 257.7578125 138.04296875 C231.56672448 162.88255935 215.90985882 200.97626736 214.71484375 236.76171875 C214.45471561 250.41937534 214.97364052 263.65840147 218 277 C218.24943359 278.11544189 218.24943359 278.11544189 218.50390625 279.25341797 C227.90815566 319.80488972 253.85617295 353.03398243 288.69970703 375.07519531 C297.40000009 380.45482271 306.3657237 384.58704787 316 388 C316.96292969 388.34224609 316.96292969 388.34224609 317.9453125 388.69140625 C328.13559435 392.24379534 338.33220624 394.43859314 349 396 C349.87785156 396.13277344 350.75570312 396.26554687 351.66015625 396.40234375 C372.34552537 398.99245 394.22642709 396.36665589 414 390 C414.6197168 389.80067871 415.23943359 389.60135742 415.87792969 389.39599609 C438.54382469 381.93451672 457.92538219 369.47926851 475 353 C475.85207031 352.21109375 476.70414063 351.4221875 477.58203125 350.609375 C500.91400499 328.4164425 516.4197895 294.84992455 520 263 C520.16435547 261.56720703 520.16435547 261.56720703 520.33203125 260.10546875 C520.63038163 257.07025091 520.83808898 254.0454691 521 251 C521.08121094 249.50339844 521.08121094 249.50339844 521.1640625 247.9765625 C522.16430104 210.42215192 508.84857955 173.13675004 484 145 C483.15824219 144.02546875 482.31648438 143.0509375 481.44921875 142.046875 C460.66733176 118.36899534 432.63854818 102.18744593 402 95 C401.26491211 94.82500977 400.52982422 94.65001953 399.77246094 94.46972656 C354.89045438 84.34671928 304.67055306 96.87737298 270 127 Z " fill="#EF8D35" transform="translate(618,117)"/>
<path d="M0 0 C-0.65256246 3.49735063 -2.06150283 5.97896697 -3.95703125 8.97265625 C-4.56893311 9.94501221 -5.18083496 10.91736816 -5.8112793 11.91918945 C-6.47168213 12.95648193 -7.13208496 13.99377441 -7.8125 15.0625 C-8.82920776 16.67354614 -8.82920776 16.67354614 -9.86645508 18.31713867 C-11.90636685 21.54769772 -13.95302632 24.7739127 -16 28 C-17.08145454 29.71308396 -18.16224764 31.42658577 -19.2421875 33.140625 C-21.67335194 36.99828462 -24.1097886 40.85257291 -26.54833984 44.70556641 C-29.03473533 48.63545958 -31.51712775 52.56788032 -34 56.5 C-34.99998164 58.08334493 -35.99998162 59.66667828 -37 61.25 C-37.7425 62.425625 -37.7425 62.425625 -38.5 63.625 C-43 70.75 -43 70.75 -44.50146484 73.12719727 C-45.49672914 74.70311348 -46.49184746 76.27912191 -47.48681641 77.85522461 C-50.05805447 81.92782635 -52.63216957 85.99856755 -55.2109375 90.06640625 C-62.74359509 101.94829803 -62.74359509 101.94829803 -70 114 C-74.66611149 113.44324806 -78.06795496 111.33027335 -82 108.9375 C-119.92407992 86.8406335 -168.66582213 82.0450673 -210.78393555 92.89892578 C-233.01466922 98.98174867 -253.53200743 108.85709859 -271 124 C-271.81726563 124.69609375 -272.63453125 125.3921875 -273.4765625 126.109375 C-304.16304169 152.90066643 -320.20607916 190.74490998 -323 231 C-325.11875091 270.80159973 -313.46874885 310.2150816 -288 341 C-287.54512207 341.55268555 -287.09024414 342.10537109 -286.62158203 342.67480469 C-279.67070969 350.98943971 -271.78374789 357.70554405 -263 364 C-262.44473633 364.39815918 -261.88947266 364.79631836 -261.31738281 365.20654297 C-241.18383868 379.38802635 -218.02572387 387.42835035 -194 392 C-192.89011719 392.21527344 -191.78023438 392.43054688 -190.63671875 392.65234375 C-134.19148001 402.09434339 -77.74704488 384.43268816 -31.6875 352 C-20.57417871 343.97811616 -10.28792996 334.81341548 -0.40234375 325.33544922 C0.8493721 324.14344266 2.12623839 322.97797522 3.40625 321.81640625 C6.91367227 318.41342685 6.91367227 318.41342685 8.10571289 313.84936523 C7.94703735 312.68449585 7.94703735 312.68449585 7.78515625 311.49609375 C7.61209961 310.17303223 7.61209961 310.17303223 7.43554688 308.82324219 C6.84253533 304.97930413 6.2410122 301.13846502 5.59082031 297.30371094 C-0.09046465 263.79358094 -1.36416215 229.66844863 4 196 C4.1556543 195.01386719 4.31130859 194.02773438 4.47167969 193.01171875 C11.81724563 148.73305777 31.81058589 107.38168318 62.51171875 74.67578125 C64.59661085 72.43378582 66.59110206 70.1532465 68.5625 67.8125 C72.65626665 63.10902342 77.29613196 59.07934319 82 55 C82.93328125 54.16726562 83.8665625 53.33453125 84.828125 52.4765625 C116.2843799 24.7443738 155.46901665 5.29160969 195 -8 C196.15967285 -8.39026367 197.3193457 -8.78052734 198.51416016 -9.18261719 C246.9035249 -25.24838958 298.94663716 -34.27030679 350 -35 C351.25538574 -35.02046387 352.51077148 -35.04092773 353.80419922 -35.06201172 C426.97969067 -36.14057905 501.12471854 -26.39859209 628 35 C628 35.66 628 36.32 628 37 C628.55042969 37.25136719 629.10085938 37.50273437 629.66796875 37.76171875 C675.87972903 62.29962161 709.16119488 117.67541168 724.1640625 165.83203125 C728.58585999 180.52014708 730.98070232 194.90510304 732.67456055 210.15844727 C732.92663018 212.35937638 733.21626862 214.55601982 733.52124023 216.75024414 C734.09150179 221.30975866 734.21436318 225.83844477 734.2734375 230.4296875 C734.28587494 231.3254953 734.29831238 232.2213031 734.31112671 233.14425659 C734.56545193 255.92929443 733.33410088 277.62586492 729 300 C728.84015625 300.88381348 728.6803125 301.76762695 728.515625 302.67822266 C722.43699512 335.96294249 705.84534009 368.59095703 685 395 C684.31679687 395.8765625 683.63359375 396.753125 682.9296875 397.65625 C669.90677631 413.99495777 655.06653525 427.77413755 638.69335938 440.66650391 C637.25597014 441.79842721 635.82283069 442.93574387 634.390625 444.07421875 C623.83127654 452.40561957 612.67281974 459.35917413 601 466 C600.39591309 466.34675781 599.79182617 466.69351562 599.16943359 467.05078125 C541.59143031 499.86844534 472.5655219 513.62022314 407 518 C406.24847656 518.05639648 405.49695313 518.11279297 404.72265625 518.17089844 C326.14547261 524.00549599 243.37365391 512.89097402 163 479 C162.08041504 478.58959473 161.16083008 478.17918945 160.21337891 477.75634766 C131.15055459 464.65074259 103.75149175 447.68222318 80.23828125 426.0546875 C78.12960473 424.11897397 75.98213672 422.24180024 73.8125 420.375 C70.03063358 417.08608562 66.50242434 413.58184158 63 410 C57.59447559 414.49281152 52.66216552 419.29044388 47.75 424.3125 C41.44422344 430.68132076 35.08572988 436.50656897 28 442 C26.86226697 442.92423918 25.72700651 443.85152736 24.59375 444.78125 C9.27409867 457.30956563 -6.84024416 468.15104178 -24 478 C-24.86753906 478.50031738 -25.73507812 479.00063477 -26.62890625 479.51611328 C-71.78672714 505.37877543 -121.32522259 519.91801362 -173 525 C-173.70640625 525.07202637 -174.4128125 525.14405273 -175.140625 525.21826172 C-250.96290724 532.60075149 -333.80469783 516.5759311 -401 481 C-401.71462402 480.62407715 -402.42924805 480.2481543 -403.16552734 479.86083984 C-419.1611529 471.38971189 -433.92669699 461.36986 -448 450 C-448.81452637 449.34209473 -448.81452637 449.34209473 -449.64550781 448.67089844 C-463.67700179 437.22479926 -477.0878831 424.48852765 -488 410 C-488.41910645 409.4519873 -488.83821289 408.90397461 -489.27001953 408.33935547 C-517.49376376 371.35337085 -534.48769107 329.05314686 -541 283 C-541.11714355 282.22140625 -541.23428711 281.4428125 -541.35498047 280.640625 C-551.35254316 211.71240677 -534.76092974 139.52456662 -493.10864258 83.68383789 C-488.79759479 78.01796249 -484.15559682 72.70999016 -479.3125 67.49609375 C-477.26342081 65.28433428 -475.27800519 63.03577724 -473.3125 60.75 C-455.84485065 40.71117796 -432.90028467 24.26838783 -409.93212891 11.11083984 C-407.94926706 9.97083208 -405.98099224 8.80782521 -404.01171875 7.64453125 C-356.79602385 -19.83142415 -301.91804172 -33.88164066 -248 -40 C-246.97487305 -40.11859375 -245.94974609 -40.2371875 -244.89355469 -40.359375 C-162.23646512 -49.41473271 -75.12941187 -35.4359368 0 0 Z M270 127 C269.17113281 127.71929687 268.34226562 128.43859375 267.48828125 129.1796875 C264.95841364 131.41898838 262.47290553 133.69805097 260 136 C259.26007812 136.67417969 258.52015625 137.34835938 257.7578125 138.04296875 C231.56672448 162.88255935 215.90985882 200.97626736 214.71484375 236.76171875 C214.45471561 250.41937534 214.97364052 263.65840147 218 277 C218.24943359 278.11544189 218.24943359 278.11544189 218.50390625 279.25341797 C227.90815566 319.80488972 253.85617295 353.03398243 288.69970703 375.07519531 C297.40000009 380.45482271 306.3657237 384.58704787 316 388 C316.96292969 388.34224609 316.96292969 388.34224609 317.9453125 388.69140625 C328.13559435 392.24379534 338.33220624 394.43859314 349 396 C349.87785156 396.13277344 350.75570312 396.26554687 351.66015625 396.40234375 C372.34552537 398.99245 394.22642709 396.36665589 414 390 C414.6197168 389.80067871 415.23943359 389.60135742 415.87792969 389.39599609 C438.54382469 381.93451672 457.92538219 369.47926851 475 353 C475.85207031 352.21109375 476.70414063 351.4221875 477.58203125 350.609375 C500.91400499 328.4164425 516.4197895 294.84992455 520 263 C520.16435547 261.56720703 520.16435547 261.56720703 520.33203125 260.10546875 C520.63038163 257.07025091 520.83808898 254.0454691 521 251 C521.08121094 249.50339844 521.08121094 249.50339844 521.1640625 247.9765625 C522.16430104 210.42215192 508.84857955 173.13675004 484 145 C483.15824219 144.02546875 482.31648438 143.0509375 481.44921875 142.046875 C460.66733176 118.36899534 432.63854818 102.18744593 402 95 C401.26491211 94.82500977 400.52982422 94.65001953 399.77246094 94.46972656 C354.89045438 84.34671928 304.67055306 96.87737298 270 127 Z " fill="#EC612B" transform="translate(618,117)"/>
<path d="M0 0 C6.13796356 3.13718138 11.18923263 7.23088804 16.43603516 11.67871094 C18.04613644 13.03897758 19.66887757 14.38304363 21.29296875 15.7265625 C69.53154862 55.96436251 98.75961012 111.8887028 105.67456055 174.15844727 C105.92663018 176.35937638 106.21626862 178.55601982 106.52124023 180.75024414 C107.09150179 185.30975866 107.21436318 189.83844477 107.2734375 194.4296875 C107.29209366 195.7733992 107.29209366 195.7733992 107.31112671 197.14425659 C107.56545193 219.92929443 106.33410088 241.62586492 102 264 C101.84015625 264.88381348 101.6803125 265.76762695 101.515625 266.67822266 C95.43699512 299.96294249 78.84534009 332.59095703 58 359 C57.31679687 359.8765625 56.63359375 360.753125 55.9296875 361.65625 C42.90679479 377.99493458 28.07244157 391.81569313 11.66796875 404.67431641 C10.23623911 405.8122397 8.83370534 406.98672795 7.4375 408.16796875 C5.375 409.875 5.375 409.875 2 412 C-4.91348881 410.25428627 -10.52932037 404.39138783 -16 400 C-17.01320313 399.195625 -18.02640625 398.39125 -19.0703125 397.5625 C-33.38769396 385.84494996 -46.91221647 372.64033967 -57.80126953 357.64746094 C-59.0135225 355.98141552 -60.25260363 354.33813285 -61.49609375 352.6953125 C-86.46049375 319.27656165 -99.94075444 278.76717662 -104.68261719 237.60986328 C-104.97468169 235.20819438 -105.32432597 232.82410553 -105.6953125 230.43359375 C-110.29481926 198.289195 -105.10095857 160.85203573 -96 130 C-95.63261719 128.74058594 -95.26523438 127.48117187 -94.88671875 126.18359375 C-83.29604085 89.26071262 -62.66906009 57.69216981 -36 30 C-35.2471875 29.2059375 -34.494375 28.411875 -33.71875 27.59375 C-28.53899269 22.24416458 -22.83027476 17.61993924 -17 13 C-16.40219727 12.52530273 -15.80439453 12.05060547 -15.18847656 11.56152344 C-3.85110792 2.56740528 -3.85110792 2.56740528 0 0 Z " fill="#CB4121" transform="translate(1245,153)"/>
</svg>
