<svg width="128" height="30" version="1.1" xmlns="http://www.w3.org/2000/svg" viewBox="0 0 788.2 167.6">
    <style type="text/css">
        .st0,.st2,.st3{fill:#EED4F1;}
    </style>
    <rect x="65.8" y="98.1" class="st0" width="13.9" height="13.9" />
    <rect x="65.8" y="81.7" class="st0" width="13.9" height="13.9" />
    <rect x="33.1" y="65.4" class="st0" width="13.9" height="13.9" />
    <rect x="65.8" y="65.4" class="st0" width="13.9" height="13.9" />
    <rect x="49.4" y="65.4" class="st0" width="13.9" height="13.9" />
    <rect x="33.1" y="49" class="st0" width="13.9" height="13.9" />
    <rect x="16.7" y="49" class="st0" width="13.9" height="13.9" />
    <rect y="49" class="st0" width="13.9" height="13.9" />
    <rect x="16.7" y="32.7" class="st0" width="13.9" height="13.9" />
    <rect x="16.7" y="65.4" class="st0" width="13.9" height="13.9" />
    <rect x="65.8" y="49" class="st0" width="13.9" height="13.9" />
    <rect x="49.4" y="49" class="st0" width="13.9" height="13.9" />
    <rect x="33.1" y="32.7" class="st0" width="13.9" height="13.9" />
    <rect x="98.6" y="32.7" class="st0" width="13.9" height="13.9" />
    <rect x="82.2" y="32.7" class="st0" width="13.9" height="13.9" />
    <rect x="82.2" y="49" class="st0" width="13.9" height="13.9" />
    <rect x="98.6" y="49" class="st0" width="13.9" height="13.9" />
    <rect x="114.9" y="49" class="st0" width="13.9" height="13.9" />
    <rect x="82.2" y="65.4" class="st0" width="13.9" height="13.9" />
    <rect x="82.2" y="81.7" class="st0" width="13.9" height="13.9" />
    <rect x="98.6" y="65.4" class="st0" width="13.9" height="13.9" />
    <rect x="65.8" y="32.7" class="st0" width="13.9" height="13.9" />
    <rect x="49.4" y="32.7" class="st0" width="13.9" height="13.9" />
    <rect x="82.2" y="16.3" class="st0" width="13.9" height="13.9" />
    <rect x="65.8" y="16.3" class="st0" width="13.9" height="13.9" />
    <rect x="65.8" class="st0" width="13.9" height="13.9" />
    <path class="st0" d="M262.3 81.5c-9.6-9.6-22.2-14.4-34.9-14.3 -12.4 0.2-25.1 4.9-34.7 14.5 -9.6 9.6-14.3 22.2-14.5 34.7 0 4.4 0.6 8.9 1.7 13.2 -2.7-13.7 1.3-28.5 11.9-39 8.2-8.2 19.1-12.7 30.6-12.7 0 0 0 0 0 0 11.6 0 22.5 4.5 30.6 12.7 8.2 8.2 12.7 19.1 12.7 30.6 0 11.6-4.5 22.5-12.7 30.6 -8.2 8.2-19.1 12.7-30.6 12.7l0 0c-3 0-5.9-0.3-8.8-0.9 4.5 1.3 9.1 1.9 13.6 1.8 12.4-0.2 25.1-4.9 34.7-14.5 9.6-9.6 14.3-22.3 14.5-34.7C276.7 103.7 271.8 91 262.3 81.5z" />
    <path class="st2" d="M193.1 81.8c8.8-8.9 21.1-14.5 34.5-14.5 13.6 0 25.8 5.6 34.7 14.5 8.6 8.9 14.3 21.1 14.3 34.7 0 13.6-5.6 25.8-14.3 34.7 -8.9 9-21.1 14.5-34.7 14.5 -13.4 0-25.8-5.5-34.5-14.5 -8.6-8.9-14.3-21.1-14.3-34.7C178.8 102.9 184.4 90.7 193.1 81.8zM252.4 91.7c-6.4-6.4-15.4-10.4-24.8-10.4 -9.5 0-18.2 4-24.5 10.4 -6.3 6.3-10.3 15.1-10.3 24.8 0 9.7 4 18.5 10.3 24.8 6.3 6.4 15.1 10.4 24.5 10.4 9.5 0 18.4-4 24.8-10.4 6.2-6.3 10.1-14.9 10.1-24.8S258.6 98 252.4 91.7z" />
    <path class="st0" d="M541.6 162.4h51v2.1h-52.9 -0.3V68.7h52.9v2.1h-50.7v44.7h49.6v2.2h-49.6V162.4z" />
    <path class="st0" d="M602.6 68.5h1.1 32.1c38.4 0 38.4 59.5 0 59.5h-31v36.5h-2.2c0-31.7 0-63.2 0-94.9V68.5zM635.8 126c35.6 0 35.6-55.2 0-55.2h-31V126H635.8z" />
    <path class="st0" d="M676.1 164.5H674c0-31.9 0-63.9 0-95.8h51.7v2.1h-49.6v44.7h43.9v2.2h-43.9V164.5z" />
    <path class="st0" d="M736.7 162.3h51.5v2.2c-18 0-35.8 0-53.7 0V68.7h2.2V162.3z" />
    <path class="st0" d="M304.1 115.8h16.2c11.7 0 17.4-8.4 17.4-16.7 0-8.2-5.8-16.6-17.4-16.6H299v82h-13.7v-96h35c20.8 0 31.3 15.4 31.3 30.6 0 13.6-8.4 26.5-24.8 29.3l30.3 36h-18l-35-42.1V115.8z" />
    <path class="st0" d="M357.7 135.7v-67h14v67.2c0 10.6 11.4 15.8 21.5 15.8 10 0 21.4-5.3 21.4-15.9v-67h14v67.2c0 19.5-18.9 29.6-35.4 29.6C376.4 165.4 357.7 155.3 357.7 135.7z" />
    <path class="st0" d="M452.5 164.5h-13.8v-96h11.2l31.7 46.6 31.7-46.6h11v96h-13.7V96.9l-25.1 37.3h-7.8l-25.1-37.3V164.5z" />
    <path class="st2" d="M254.9 152.5c12.6-12.6 16.2-30.9 10.7-46.7 3.6 13.3 0.2 28.1-10.2 38.5 -15.5 15.5-40.7 15.5-56.2 0 -15.5-15.5-15.5-40.7 0-56.2 10.4-10.4 25.2-13.8 38.5-10.2 -15.8-5.4-34.1-1.9-46.7 10.7 -17.6 17.6-17.6 46.3 0 63.9 0 0 0 0 0 0 0 0 0 0 0 0C208.6 170.2 237.3 170.2 254.9 152.5z" />
    <path class="st0" d="M133 164.5h-13.8V68.7h57.2v13.8H133v27h38.4v14H133V164.5z" />
    <path class="st3" d="M191 79.9c-11.8 11.8-16.6 27.9-14.5 43.2 -0.7-12.8 3.8-25.8 13.6-35.5 18.2-18.2 47.7-18.2 65.9 0 18.2 18.2 18.2 47.7 0 65.9 -9.7 9.7-22.8 14.3-35.5 13.6 15.4 2.1 31.5-2.8 43.2-14.5 20-20 20-52.6 0-72.6C243.6 59.9 211 59.9 191 79.9z" />
    <path class="st0" d="M193.1 91.8c-15.7 15.7-16.3 40.8-1.5 57.2 0.5 0.5 1 1.1 1.5 1.6 7.9 7.8 18.3 12.2 29.4 12.2 11.1 0 21.6-4.3 29.4-12.2 7.9-7.9 12.2-18.3 12.2-29.4 0-3.3-0.4-6.5-1.1-9.7 0.2 1.5 0.3 3.1 0.3 4.7 0 9.6-3.7 18.7-10.6 25.5 -6.8 6.8-15.9 10.6-25.5 10.6l-0.4 0c-9.4 0-18.5-3.7-25-10.3 -6.6-6.6-10.5-16-10.5-25.6 0.1-9.6 3.9-18.6 10.6-25.4 6.8-6.8 15.8-10.5 25.4-10.6h0c1.5 0 2.9 0.1 4.3 0.3 -3-0.7-6.1-1-9.3-1C211.4 79.6 201 83.9 193.1 91.8z" />
</svg>
