<?xml version="1.0" encoding="UTF-8" standalone="no"?>
<svg
   width="1059px"
   height="218px"
   viewBox="0 0 1059 218"
   version="1.1"
   id="svg4"
   sodipodi:docname="sweez.svg"
   inkscape:version="1.3.2 (091e20ef0f, 2023-11-25)"
   xmlns:inkscape="http://www.inkscape.org/namespaces/inkscape"
   xmlns:sodipodi="http://sodipodi.sourceforge.net/DTD/sodipodi-0.dtd"
   xmlns="http://www.w3.org/2000/svg"
   xmlns:svg="http://www.w3.org/2000/svg"
   xmlns:rdf="http://www.w3.org/1999/02/22-rdf-syntax-ns#"
   xmlns:cc="http://creativecommons.org/ns#"
   xmlns:dc="http://purl.org/dc/elements/1.1/">
  <defs
     id="defs4" />
  <sodipodi:namedview
     id="namedview4"
     pagecolor="#545784"
     bordercolor="#000000"
     borderopacity="0.25"
     inkscape:showpageshadow="2"
     inkscape:pageopacity="0.0"
     inkscape:pagecheckerboard="0"
     inkscape:deskcolor="#d1d1d1"
     inkscape:zoom="0.59773371"
     inkscape:cx="529.5"
     inkscape:cy="109.58057"
     inkscape:window-width="1440"
     inkscape:window-height="891"
     inkscape:window-x="0"
     inkscape:window-y="32"
     inkscape:window-maximized="1"
     inkscape:current-layer="Page-1" />
  <title
     id="title1">Sweez_logo_sur_fond_sombre</title>
  <g
     id="Page-1"
     stroke="none"
     stroke-width="1"
     fill="none"
     fill-rule="evenodd">
    <g
       id="Sweez_logo_sur_fond_sombre"
       transform="translate(0.228497, 0.344772)"
       fill-rule="nonzero">
      <circle
         id="Oval"
         fill="#FF3851"
         cx="923.571503"
         cy="187.655228"
         r="28.6"
         style="fill:#444669;fill-opacity:1.0" />
      <path
         d="M1047.7715,115.755228 L960.271503,115.755228 C954.671503,115.755228 950.071503,120.355228 950.071503,125.955228 L950.071503,151.155228 C950.071503,156.755228 954.671503,161.355228 960.271503,161.355228 L1047.7715,161.355228 C1053.3715,161.355228 1057.9715,156.755228 1057.9715,151.155228 L1057.9715,125.955228 C1058.0715,120.255228 1053.4715,115.755228 1047.7715,115.755228 Z"
         id="Path"
         fill="#FF3851"
         style="fill:#444669;fill-opacity:1.0" />
      <g
         id="Group"
         fill="#E1E721">
        <path
           d="M875.571503,69.3552285 L875.571503,58.6552285 C875.571503,52.3552285 870.471503,47.2552285 864.171503,47.2552285 L753.171503,47.2552285 C746.871503,47.2552285 741.771503,52.3552285 741.771503,58.6552285 L741.771503,80.4552285 C741.771503,86.7552285 746.871503,91.8552285 753.171503,91.8552285 L807.171503,91.8552285 L739.271503,185.555228 C737.871503,187.555228 737.071503,189.855228 737.071503,192.255228 L737.071503,201.655228 C737.071503,207.955228 742.171503,213.055228 748.471503,213.055228 L864.171503,213.055228 C870.471503,213.055228 875.571503,207.955228 875.571503,201.655228 L875.571503,178.755228 C875.571503,172.455228 870.471503,167.355228 864.171503,167.355228 L806.271503,167.355228 L873.371503,76.1552285 C874.771503,74.1552285 875.571503,71.8552285 875.571503,69.3552285 Z"
           id="path1"
           style="fill:#eed4f1;fill-opacity:1" />
        <path
           d="M97.1715033,84.4552285 L97.1715033,84.4552285 C72.5715033,80.4552285 57.4715033,75.7552285 57.6715033,64.2552285 C57.7715033,58.8552285 60.9715033,51.6552285 75.2715033,48.1552285 C79.1715033,47.1552285 83.2715033,46.6552285 86.7715033,46.3552285 L86.7715033,46.4552285 C86.8715033,46.4552285 94.2715033,45.8552285 102.471503,46.7552285 C121.571503,48.6552285 135.371503,54.2552285 144.971503,60.2552285 C149.071503,62.8552285 154.471503,61.9552285 157.571503,58.2552285 L174.971503,37.7552285 C178.771503,33.3552285 177.871503,26.5552285 173.071503,23.3552285 C158.171503,13.2552285 136.771503,3.65522847 107.271503,0.655228475 C103.571503,0.255228475 100.071503,0.055228475 96.8715033,0.055228475 C96.8715033,0.055228475 96.8715033,0.055228475 96.7715033,0.055228475 C96.7715033,0.055228475 96.7715033,0.055228475 96.7715033,0.055228475 C89.4715033,-0.144771525 83.9715033,0.255228475 83.1715033,0.355228475 L83.1715033,0.455228475 C63.1715033,1.85522847 46.0715033,7.35522847 33.3715033,16.6552285 C17.9715033,27.8552285 9.57150332,44.0552285 9.17150332,63.3552285 C8.07150332,117.855228 71.0715033,126.155228 91.7715033,128.855228 C121.571503,132.855228 134.871503,139.555228 134.871503,150.755228 C133.771503,163.855228 119.771503,170.755228 95.2715033,170.255228 C82.8715033,170.055228 52.0715033,166.955228 34.6715033,144.055228 C32.9715033,141.855228 30.5715033,140.555228 27.8715033,140.455228 L27.4715033,140.455228 C27.3715033,140.455228 27.3715033,140.455228 27.2715033,140.455228 C24.7715033,140.455228 22.3715033,141.655228 20.6715033,143.655228 L2.17150332,165.355228 C-0.528496683,168.555228 -0.728496683,173.055228 1.67150332,176.355228 C21.1715033,202.755228 51.2715033,216.055228 93.5715033,216.855228 C147.171503,217.955228 181.871503,193.655228 183.771503,153.455228 C186.171503,96.7552285 126.071503,88.4552285 97.1715033,84.4552285 Z"
           id="path2"
           style="fill:#eed4f1;fill-opacity:1" />
        <path
           d="M412.371503,53.4552285 L412.371503,53.4552285 C410.271503,50.4552285 406.771503,48.6552285 403.071503,48.6552285 L377.271503,48.6552285 C372.371503,48.6552285 367.971503,51.8552285 366.471503,56.4552285 L338.671503,141.655228 L312.371503,75.1552285 C310.871503,70.4552285 306.471503,67.2552285 301.571503,67.2552285 L282.071503,67.2552285 C277.071503,67.2552285 272.771503,70.4552285 271.271503,74.9552285 L244.871503,140.255228 L231.971503,103.955228 L230.671503,99.9552285 L230.671503,100.555228 C222.671503,79.7552285 213.071503,63.1552285 200.071503,48.2552285 C196.171503,43.7552285 189.071503,43.9552285 185.271503,48.4552285 L167.771503,69.1552285 C164.671503,72.7552285 164.771503,78.0552285 167.771503,81.7552285 C176.371503,92.3552285 182.671503,103.955228 188.371503,119.355228 L191.671503,128.455228 L219.171503,206.655228 C220.771503,211.155228 225.071503,214.255228 229.871503,214.255228 L256.771503,214.255228 C261.571503,214.255228 265.871503,211.255228 267.471503,206.855228 L291.571503,145.755228 L315.571503,206.755228 C317.171503,211.255228 321.471503,214.255228 326.271503,214.255228 L353.471503,214.255228 C358.271503,214.255228 362.671503,211.155228 364.171503,206.655228 L413.871503,63.7552285 C415.071503,60.2552285 414.571503,56.4552285 412.371503,53.4552285 Z"
           id="path3"
           style="fill:#eed4f1;fill-opacity:1" />
        <path
           d="M488.371503,46.6552285 C442.971503,45.8552285 404.171503,81.5552285 402.971503,126.955228 C401.571503,179.355228 435.871503,214.855228 487.471503,214.855228 C514.071503,214.855228 539.171503,204.655228 554.671503,187.555228 C557.271503,185.555228 558.871503,182.555228 558.971503,179.055228 C559.071503,175.555228 557.371503,172.355228 554.871503,170.055228 L539.771503,156.455228 C537.471503,154.455228 534.471503,153.355228 531.371503,153.655228 C528.271503,153.955228 525.471503,155.455228 523.571503,157.855228 C517.771503,165.255228 502.071503,171.055228 487.971503,171.055228 C474.671503,171.055228 463.571503,165.955228 456.471503,157.455228 C455.771503,156.655228 455.071503,155.855228 454.471503,154.955228 C454.371503,154.855228 454.371503,154.755228 454.271503,154.655228 C454.171503,154.555228 454.171503,154.455228 454.071503,154.355228 C452.971503,152.655228 452.071503,150.955228 451.271503,149.255228 C461.371503,150.655228 471.471503,151.455228 481.671503,151.455228 C505.671503,151.455228 525.471503,149.255228 548.171503,141.855228 C558.571503,138.955228 567.871503,133.355228 567.671503,124.255228 C567.171503,102.555228 560.671503,84.3552285 548.471503,71.0552285 C534.371503,55.4552285 513.671503,47.0552285 488.371503,46.6552285 Z M452.771503,107.855228 C459.071503,96.0552285 471.071503,89.6552285 486.871503,89.6552285 C498.771503,89.6552285 513.271503,92.6552285 519.671503,105.955228 C497.571503,111.455228 475.171503,112.155228 452.771503,107.855228 Z"
           id="Shape"
           style="fill:#eed4f1;fill-opacity:1" />
        <path
           d="M719.671503,141.855228 C730.071503,138.955228 739.371503,133.355228 739.171503,124.255228 C738.671503,102.555228 732.171503,84.3552285 719.971503,71.0552285 C705.871503,55.5552285 685.171503,47.1552285 659.871503,46.7552285 C614.471503,45.9552285 575.671503,81.6552285 574.471503,127.055228 C573.071503,179.455228 607.371503,214.955228 658.971503,214.955228 C685.571503,214.955228 710.671503,204.755228 726.171503,187.655228 C728.771503,185.655228 730.371503,182.655228 730.471503,179.155228 C730.571503,175.655228 728.871503,172.455228 726.371503,170.155228 L711.171503,156.555228 C708.871503,154.555228 705.871503,153.455228 702.771503,153.755228 C699.671503,154.055228 696.871503,155.555228 694.971503,157.955228 C689.171503,165.355228 673.471503,171.155228 659.371503,171.155228 C646.071503,171.155228 634.971503,166.055228 627.871503,157.555228 C627.171503,156.755228 626.471503,155.955228 625.871503,155.055228 C625.771503,154.955228 625.771503,154.855228 625.671503,154.755228 C625.571503,154.655228 625.571503,154.555228 625.471503,154.455228 C624.371503,152.755228 623.471503,151.055228 622.671503,149.355228 C632.771503,150.755228 642.871503,151.555228 653.071503,151.555228 C677.271503,151.455228 697.071503,149.255228 719.671503,141.855228 Z M624.371503,107.855228 C630.671503,96.0552285 642.671503,89.6552285 658.471503,89.6552285 C670.371503,89.6552285 684.871503,92.6552285 691.271503,105.955228 C669.071503,111.455228 646.771503,112.155228 624.371503,107.855228 Z"
           id="path4"
           style="fill:#eed4f1;fill-opacity:1" />
      </g>
    </g>
  </g>
  <metadata
     id="metadata4">
    <rdf:RDF>
      <cc:Work
         rdf:about="">
        <dc:title>Sweez_logo_sur_fond_sombre</dc:title>
      </cc:Work>
    </rdf:RDF>
  </metadata>
</svg>
