<svg xmlns="http://www.w3.org/2000/svg" xmlns:xlink="http://www.w3.org/1999/xlink" width="200px" height="174px" viewBox="0 0 200 174" version="1.1">
<defs>
<style>
.bg{
    fill:#515582
}
.cls-1{
    fill:#eed4f1
}
</style>
</defs>
<g id="surface1">
<path class="bg" style=" stroke:none;fill-rule:nonzero;fill-opacity:1;" d="M 0 17.398438 C 66 17.398438 132 17.398438 200 17.398438 C 200 63.335938 200 109.273438 200 156.601562 C 134 156.601562 68 156.601562 0 156.601562 C 0 110.664062 0 64.726562 0 17.398438 Z M 0 17.398438 "/>
<path class="cls-1" style=" stroke:none;fill-rule:nonzero;fill-opacity:1;" d="M 126.800781 25 C 126.800781 25.265625 126.800781 25.527344 126.800781 25.800781 C 127.195312 25.800781 127.59375 25.800781 128 25.800781 C 128.109375 29.226562 127.832031 32.429688 127.199219 35.800781 C 127.144531 36.101562 127.089844 36.402344 127.03125 36.710938 C 126.84375 37.710938 126.648438 38.703125 126.449219 39.699219 C 126.390625 40.011719 126.332031 40.324219 126.269531 40.644531 C 125.871094 42.578125 125.265625 44.25 124.429688 46.03125 C 123.609375 47.882812 122.996094 49.808594 122.351562 51.726562 C 122.074219 52.535156 121.796875 53.347656 121.523438 54.15625 C 121.402344 54.511719 121.28125 54.867188 121.160156 55.230469 C 120.800781 56.199219 120.800781 56.199219 120.359375 57.054688 C 119.695312 58.4375 120.011719 59.992188 120.089844 61.488281 C 120 62.601562 120 62.601562 119.40625 63.164062 C 118.625 63.984375 118.644531 64.398438 118.640625 65.515625 C 118.636719 65.855469 118.636719 66.195312 118.632812 66.546875 C 118.640625 66.910156 118.644531 67.273438 118.648438 67.648438 C 118.65625 68.207031 118.65625 68.207031 118.65625 68.777344 C 118.722656 72.25 118.816406 76.632812 120.398438 79.800781 C 120.550781 81.148438 120.550781 81.148438 120.398438 82.601562 C 119.449219 83.449219 119.449219 83.449219 118.398438 84.199219 C 117.390625 86.007812 117.167969 88.179688 116.800781 90.199219 C 117.296875 90.167969 117.789062 90.132812 118.300781 90.101562 C 119.492188 90.109375 119.914062 90.148438 120.949219 90.800781 C 121.699219 91.953125 121.925781 92.941406 122.195312 94.273438 C 122.351562 95.0625 122.351562 95.0625 123.074219 95.675781 C 123.25 95.847656 123.421875 96.023438 123.601562 96.199219 C 123.277344 99.085938 121.523438 101.945312 119.601562 104.074219 C 118.398438 105 118.398438 105 117.050781 105.148438 C 116.703125 105.101562 116.355469 105.050781 116 105 C 115.921875 104.179688 115.84375 103.359375 115.765625 102.539062 C 115.710938 102.296875 115.65625 102.050781 115.601562 101.800781 C 115.335938 101.667969 115.070312 101.535156 114.800781 101.398438 C 114.230469 101.773438 114.230469 101.773438 113.648438 102.148438 C 111.914062 103.226562 110.230469 103.191406 108.230469 103.210938 C 107.890625 103.273438 107.550781 103.335938 107.199219 103.398438 C 106.6875 104.164062 106.6875 104.164062 106.398438 105 C 105.484375 105.5 104.640625 105.765625 103.609375 105.914062 C 100.386719 106.414062 98.007812 108.273438 96.003906 110.808594 C 95.171875 111.835938 94.328125 112.535156 93.273438 113.324219 C 89.4375 116.347656 87.128906 119.9375 84.957031 124.289062 C 84.320312 125.554688 83.980469 126.203125 82.800781 127 C 82.085938 127.082031 81.367188 127.136719 80.648438 127.175781 C 79.21875 127.265625 78.140625 127.34375 76.949219 128.175781 C 75.785156 129.675781 75.726562 130.65625 75.71875 132.515625 C 75.660156 132.953125 75.660156 132.953125 75.601562 133.398438 C 73.886719 134.542969 72.390625 134.332031 70.375 134.324219 C 70.007812 134.332031 69.636719 134.335938 69.257812 134.34375 C 68.902344 134.34375 68.550781 134.34375 68.1875 134.34375 C 67.703125 134.347656 67.703125 134.347656 67.207031 134.347656 C 66.941406 134.300781 66.671875 134.25 66.398438 134.199219 C 65.542969 132.914062 65.359375 132.496094 65.601562 131 C 66.363281 130.335938 66.363281 130.335938 67.398438 129.773438 C 67.765625 129.570312 68.132812 129.367188 68.507812 129.160156 C 69.421875 128.691406 70.34375 128.253906 71.273438 127.824219 C 73.441406 126.765625 75.210938 125.226562 76.074219 122.949219 C 76.183594 122.570312 76.289062 122.191406 76.398438 121.800781 C 76.640625 121.511719 76.886719 121.222656 77.136719 120.925781 C 78.171875 119.574219 78.722656 118.21875 79.351562 116.648438 C 80.335938 114.289062 81.3125 112.375 83.199219 110.601562 C 83.707031 110.042969 83.707031 110.042969 84.226562 109.476562 C 85.199219 108.601562 85.199219 108.601562 86.273438 108.175781 C 87.25 107.898438 87.25 107.898438 87.539062 107.09375 C 88.136719 105.933594 88.929688 105.222656 89.875 104.324219 C 91.707031 102.527344 93.273438 100.660156 94.800781 98.601562 C 95.28125 97.964844 95.765625 97.332031 96.25 96.699219 C 96.480469 96.402344 96.707031 96.105469 96.945312 95.796875 C 97.601562 95 97.601562 95 98.75 93.949219 C 99.890625 92.675781 100.03125 91.902344 100 90.199219 C 99.597656 89.070312 99.132812 88.390625 98.398438 87.398438 C 97.554688 86.984375 97.554688 86.984375 96.800781 87 C 96.703125 87.289062 96.605469 87.582031 96.503906 87.878906 C 95.757812 89.539062 94.578125 90.65625 93.339844 91.964844 C 92.398438 92.957031 92.398438 92.957031 91.710938 93.984375 C 91.058594 94.898438 90.523438 95.558594 89.601562 96.199219 C 85.953125 96.804688 82.011719 95.132812 79.015625 93.148438 C 78.472656 92.742188 77.933594 92.324219 77.410156 91.894531 C 75.761719 90.558594 73.710938 90.851562 71.675781 90.75 C 70.398438 90.601562 70.398438 90.601562 69.601562 89.800781 C 69.542969 88.3125 69.714844 87.363281 70.644531 86.179688 C 71.953125 84.914062 72.792969 84.25 74.625 84.023438 C 76.054688 84.625 76.359375 84.949219 77.273438 86.125 C 79.792969 89.273438 84.21875 89.632812 88 90.199219 C 88.042969 89.953125 88.085938 89.707031 88.132812 89.453125 C 88.195312 89.132812 88.257812 88.808594 88.324219 88.476562 C 88.386719 88.15625 88.445312 87.835938 88.507812 87.503906 C 88.832031 86.5 89.242188 86.109375 90 85.398438 C 89.925781 84.601562 89.925781 84.601562 89.601562 83.800781 C 89.460938 83.265625 89.328125 82.734375 89.199219 82.199219 C 89.46875 81.976562 89.46875 81.976562 89.742188 81.746094 C 90.867188 80.792969 91.957031 79.84375 93 78.800781 C 93.796875 78.003906 94.59375 77.230469 95.425781 76.476562 C 95.648438 76.269531 95.871094 76.066406 96.101562 75.855469 C 96.800781 75.398438 96.800781 75.398438 98.398438 75.398438 C 98.386719 75.066406 98.371094 74.734375 98.359375 74.390625 C 98.277344 71.007812 98.296875 68.140625 100.550781 65.476562 C 100.898438 65.1875 101.242188 64.898438 101.601562 64.601562 C 102.109375 64.167969 102.109375 64.167969 102.625 63.726562 C 104.445312 62.371094 105.554688 62.109375 107.851562 62.175781 C 109.589844 62.289062 109.589844 62.289062 111.199219 61.800781 C 111.632812 61.066406 111.632812 61.066406 112.050781 60.148438 C 112.933594 58.332031 113.851562 56.535156 114.800781 54.75 C 114.929688 54.507812 115.054688 54.261719 115.1875 54.011719 C 115.878906 52.710938 116.613281 51.46875 117.421875 50.238281 C 118.472656 48.582031 119.058594 46.894531 119.625 45.023438 C 120.242188 43.070312 120.847656 41.171875 121.75 39.324219 C 122.449219 37.832031 122.625 36.664062 122.398438 35 C 122.101562 34.53125 122.101562 34.53125 121.800781 34.050781 C 120.929688 32.527344 121.097656 31.117188 121.199219 29.398438 C 121.726562 29.398438 122.257812 29.398438 122.800781 29.398438 C 122.78125 28.890625 122.765625 28.375 122.75 27.851562 C 122.722656 26.976562 122.722656 26.976562 122.800781 26.199219 C 123.988281 25.011719 125.160156 25 126.800781 25 Z M 126.800781 25 "/>
<path class="cls-1" style=" stroke:none;fill-rule:nonzero;fill-opacity:1;" d="M 64 84.199219 C 66.828125 86.328125 68.851562 88.613281 70.398438 91.800781 C 70.535156 92.0625 70.671875 92.328125 70.8125 92.601562 C 72.421875 96.40625 72.234375 101.378906 70.78125 105.1875 C 68.554688 110.300781 65.164062 113.636719 60.078125 115.898438 C 55.210938 117.761719 50.355469 117.460938 45.601562 115.398438 C 40.855469 112.890625 37.789062 108.613281 35.898438 103.699219 C 34.890625 98.640625 35.707031 93.398438 38.566406 89.082031 C 38.878906 88.644531 38.878906 88.644531 39.199219 88.199219 C 39.375 87.945312 39.554688 87.691406 39.734375 87.429688 C 45.601562 79.78125 56.371094 79.183594 64 84.199219 Z M 64 84.199219 "/>
<path class="cls-1" style=" stroke:none;fill-rule:nonzero;fill-opacity:1;" d="M 157.550781 83.273438 C 157.921875 83.265625 158.289062 83.25 158.671875 83.242188 C 159.203125 83.234375 159.203125 83.234375 159.746094 83.230469 C 160.074219 83.222656 160.398438 83.21875 160.734375 83.210938 C 161.601562 83.398438 161.601562 83.398438 162.285156 84.132812 C 162.972656 85.292969 163.34375 86.464844 163.75 87.75 C 163.921875 88.285156 164.09375 88.824219 164.269531 89.359375 C 164.355469 89.632812 164.445312 89.902344 164.535156 90.183594 C 165.554688 93.304688 166.648438 96.40625 168 99.398438 C 169.0625 96.867188 170.113281 94.328125 171.144531 91.78125 C 171.429688 91.078125 171.429688 91.078125 171.71875 90.359375 C 172.015625 89.632812 172.308594 88.90625 172.601562 88.179688 C 172.890625 87.464844 173.179688 86.75 173.46875 86.03125 C 173.636719 85.613281 173.808594 85.195312 173.984375 84.761719 C 174.398438 83.800781 174.398438 83.800781 174.800781 83.398438 C 175.421875 83.359375 176.042969 83.347656 176.664062 83.347656 C 177.039062 83.347656 177.414062 83.34375 177.800781 83.34375 C 178.195312 83.347656 178.59375 83.347656 179 83.351562 C 179.59375 83.347656 179.59375 83.347656 180.199219 83.34375 C 180.761719 83.34375 180.761719 83.34375 181.335938 83.347656 C 181.683594 83.347656 182.03125 83.347656 182.390625 83.347656 C 183.199219 83.398438 183.199219 83.398438 183.601562 83.800781 C 183.765625 84.710938 183.914062 85.625 184.046875 86.542969 C 184.089844 86.824219 184.132812 87.105469 184.175781 87.390625 C 184.3125 88.296875 184.441406 89.195312 184.574219 90.101562 C 184.664062 90.691406 184.75 91.28125 184.835938 91.871094 C 185.011719 93.03125 185.183594 94.195312 185.355469 95.355469 C 185.636719 97.246094 185.925781 99.132812 186.21875 101.015625 C 186.390625 102.148438 186.5625 103.28125 186.726562 104.414062 C 186.777344 104.753906 186.828125 105.09375 186.878906 105.441406 C 186.976562 106.128906 187.078125 106.816406 187.179688 107.503906 C 187.25 108.003906 187.25 108.003906 187.328125 108.515625 C 187.371094 108.8125 187.414062 109.109375 187.457031 109.414062 C 187.59375 110.28125 187.59375 110.28125 188 111.398438 C 188 112.71875 188 114.039062 188 115.398438 C 185.226562 115.398438 182.457031 115.398438 179.601562 115.398438 C 179.441406 114.242188 179.441406 114.242188 179.277344 113.058594 C 179.171875 112.289062 179.066406 111.519531 178.960938 110.75 C 178.851562 109.972656 178.746094 109.195312 178.640625 108.414062 C 178.171875 105.007812 177.6875 101.601562 177.199219 98.199219 C 177.066406 98.523438 176.933594 98.847656 176.796875 99.179688 C 175.941406 101.253906 175.066406 103.3125 174.125 105.351562 C 173.453125 106.8125 172.859375 108.253906 172.398438 109.800781 C 172.136719 109.800781 171.871094 109.800781 171.601562 109.800781 C 171.632812 110.054688 171.664062 110.3125 171.699219 110.574219 C 171.554688 112.359375 170.78125 113.804688 170 115.398438 C 169.417969 115.421875 168.832031 115.4375 168.25 115.449219 C 167.925781 115.460938 167.601562 115.46875 167.265625 115.476562 C 166.398438 115.398438 166.398438 115.398438 165.601562 114.601562 C 165.242188 113.71875 164.914062 112.84375 164.601562 111.949219 C 163.355469 108.511719 161.941406 105.152344 160.5 101.796875 C 160.25 101.199219 160.25 101.199219 159.992188 100.59375 C 159.839844 100.238281 159.6875 99.882812 159.53125 99.515625 C 159.199219 98.601562 159.199219 98.601562 159.199219 97.398438 C 158.9375 97.398438 158.671875 97.398438 158.398438 97.398438 C 158.421875 97.792969 158.421875 97.792969 158.441406 98.195312 C 158.523438 101.132812 158.175781 103.855469 157.65625 106.730469 C 157.265625 108.914062 157.015625 111.070312 156.882812 113.285156 C 156.800781 114.199219 156.800781 114.199219 156.398438 115.398438 C 153.628906 115.398438 150.855469 115.398438 148 115.398438 C 148.171875 112.707031 148.378906 110.171875 148.992188 107.550781 C 149.347656 105.929688 149.582031 104.289062 149.824219 102.648438 C 149.925781 101.984375 150.023438 101.320312 150.125 100.652344 C 150.171875 100.363281 150.210938 100.074219 150.257812 99.777344 C 150.398438 99 150.398438 99 150.800781 97.800781 C 150.917969 96.867188 151.023438 95.933594 151.125 95 C 151.429688 92.378906 151.882812 89.808594 152.425781 87.226562 C 152.496094 86.890625 152.5625 86.558594 152.636719 86.210938 C 153.375 82.792969 154.320312 83.308594 157.550781 83.273438 Z M 157.550781 83.273438 "/>
<path class="cls-1" style=" stroke:none;fill-rule:nonzero;fill-opacity:1;" d="M 125.601562 83.398438 C 131.671875 83.398438 137.742188 83.398438 144 83.398438 C 144 85.777344 144 88.152344 144 90.601562 C 140.699219 90.601562 137.398438 90.601562 134 90.601562 C 134 92.449219 134 94.296875 134 96.199219 C 137.035156 96.199219 140.070312 96.199219 143.199219 96.199219 C 143.199219 98.445312 143.199219 100.6875 143.199219 103 C 140.164062 103 137.128906 103 134 103 C 134 104.847656 134 106.695312 134 108.601562 C 137.300781 108.601562 140.601562 108.601562 144 108.601562 C 144 110.84375 144 113.085938 144 115.398438 C 137.929688 115.398438 131.855469 115.398438 125.601562 115.398438 C 125.601562 104.839844 125.601562 94.28125 125.601562 83.398438 Z M 125.601562 83.398438 "/>
<path class="cls-1" style=" stroke:none;fill-rule:nonzero;fill-opacity:1;" d="M 11.601562 83 C 18.859375 83 26.121094 83 33.601562 83 C 33.601562 85.242188 33.601562 87.488281 33.601562 89.800781 C 31.355469 89.800781 29.113281 89.800781 26.800781 89.800781 C 26.800781 97.984375 26.800781 106.167969 26.800781 114.601562 C 25.359375 115.320312 24.980469 115.503906 23.5 115.476562 C 23.078125 115.472656 23.078125 115.472656 22.644531 115.46875 C 21.222656 115.375 19.8125 115.175781 18.398438 115 C 18.398438 106.683594 18.398438 98.367188 18.398438 89.800781 C 16.15625 89.800781 13.914062 89.800781 11.601562 89.800781 C 11.601562 87.554688 11.601562 85.3125 11.601562 83 Z M 11.601562 83 "/>
<path class="bg" style=" stroke:none;fill-rule:nonzero;fiopacity:1;" d="M 60 91.398438 C 62.3125 93.367188 63.023438 95.511719 63.300781 98.46875 C 63.414062 101.003906 63.148438 102.949219 61.601562 105 C 59.296875 107.484375 56.921875 109.011719 53.476562 109.199219 C 50.71875 109.109375 48.433594 108.222656 46.460938 106.265625 C 44.597656 103.941406 43.320312 101.292969 43.460938 98.253906 C 43.976562 95.050781 45.4375 92.578125 48 90.601562 C 51.890625 88.425781 56.417969 88.953125 60 91.398438 Z M 60 91.398438 "/>
<path class="cls-1" style=" stroke:none;fill-rule:nonzero;fill-opacity:1;" d="M 130 122.199219 C 131.1875 122.199219 132.375 122.199219 133.601562 122.199219 C 133.707031 122.445312 133.8125 122.691406 133.921875 122.945312 C 134.0625 123.269531 134.203125 123.59375 134.351562 123.925781 C 134.558594 124.40625 134.558594 124.40625 134.773438 124.894531 C 135.210938 125.878906 135.210938 125.878906 136 127 C 136.660156 125.414062 137.320312 123.832031 138 122.199219 C 139.320312 122.199219 140.640625 122.199219 142 122.199219 C 142.203125 123.523438 142.402344 124.851562 142.601562 126.175781 C 142.65625 126.546875 142.714844 126.914062 142.773438 127.296875 C 143.117188 129.625 143.257812 131.84375 143.199219 134.199219 C 142.144531 134.199219 141.085938 134.199219 140 134.199219 C 139.601562 132.875 139.558594 131.679688 139.574219 130.300781 C 139.578125 129.90625 139.582031 129.511719 139.585938 129.105469 C 139.589844 128.808594 139.59375 128.507812 139.601562 128.199219 C 139.335938 128.199219 139.070312 128.199219 138.800781 128.199219 C 138.726562 128.429688 138.65625 128.664062 138.578125 128.902344 C 137.984375 130.757812 137.328125 132.480469 136.398438 134.199219 C 135.871094 134.199219 135.34375 134.199219 134.800781 134.199219 C 133.96875 132.351562 133.320312 130.558594 132.800781 128.601562 C 132.535156 128.601562 132.273438 128.601562 132 128.601562 C 131.867188 130.449219 131.734375 132.296875 131.601562 134.199219 C 130.542969 134.199219 129.488281 134.199219 128.398438 134.199219 C 128.1875 130.535156 128.320312 125.554688 130 122.199219 Z M 130 122.199219 "/>
<path class="cls-1" style=" stroke:none;fill-rule:nonzero;fill-opacity:1;" d="M 162 122.199219 C 165.601562 122.199219 165.601562 122.199219 166.625 122.925781 C 166.964844 123.335938 167.289062 123.765625 167.601562 124.199219 C 168.011719 124.75 168.011719 124.75 168.429688 125.3125 C 169.234375 126.398438 170.015625 127.5 170.800781 128.601562 C 170.929688 126.488281 171.0625 124.375 171.199219 122.199219 C 172.125 122.199219 173.046875 122.199219 174 122.199219 C 174 126.160156 174 130.121094 174 134.199219 C 170.800781 134.199219 170.800781 134.199219 170.046875 133.699219 C 169.882812 133.46875 169.71875 133.238281 169.550781 133 C 169.363281 132.75 169.175781 132.496094 168.980469 132.234375 C 168.789062 131.960938 168.597656 131.683594 168.398438 131.398438 C 167.953125 130.808594 167.5 130.214844 167.050781 129.625 C 166.703125 129.15625 166.355469 128.683594 166 128.199219 C 165.867188 130.179688 165.734375 132.160156 165.601562 134.199219 C 164.414062 134.199219 163.222656 134.199219 162 134.199219 C 162 130.242188 162 126.28125 162 122.199219 Z M 162 122.199219 "/>
<path class="cls-1" style=" stroke:none;fill-rule:nonzero;fill-opacity:1;" d="M 145.199219 121.800781 C 147.3125 121.800781 149.421875 121.800781 151.601562 121.800781 C 153.601562 123.800781 153.601562 123.800781 153.773438 125 C 153.601562 126.183594 153.308594 127.121094 152.800781 128.199219 C 153.328125 128.464844 153.855469 128.726562 154.398438 129 C 154.464844 129.554688 154.511719 130.117188 154.550781 130.675781 C 154.578125 130.984375 154.605469 131.296875 154.632812 131.617188 C 154.339844 132.851562 153.753906 133.453125 152.75 134.214844 C 151.359375 134.929688 149.976562 134.808594 148.449219 134.726562 C 146.839844 134.664062 146.839844 134.664062 145.199219 134.601562 C 145.199219 130.375 145.199219 126.152344 145.199219 121.800781 Z M 145.199219 121.800781 "/>
<path class="cls-1" style=" stroke:none;fill-rule:nonzero;fill-opacity:1;" d="M 182.398438 121.648438 C 182.804688 121.648438 183.207031 121.644531 183.625 121.640625 C 185.246094 121.859375 186.265625 122.574219 187.523438 123.574219 C 188 124.199219 188 124.199219 188 125.800781 C 184.949219 126.300781 184.949219 126.300781 183.601562 125.398438 C 182.367188 125.273438 181.542969 125.203125 180.449219 125.824219 C 179.742188 127.046875 179.855469 128.019531 180 129.398438 C 180.296875 130.429688 180.296875 130.429688 181.199219 131 C 182.410156 131.132812 183.585938 131.09375 184.800781 131 C 184.800781 130.605469 184.800781 130.207031 184.800781 129.800781 C 184.007812 129.800781 183.214844 129.800781 182.398438 129.800781 C 182.398438 129.007812 182.398438 128.214844 182.398438 127.398438 C 184.511719 127.398438 186.625 127.398438 188.800781 127.398438 C 188.800781 130.070312 188.675781 131.289062 187.023438 133.300781 C 184.910156 134.992188 182.601562 134.875 180 134.601562 C 178.242188 133.816406 177.164062 132.78125 176.28125 131.046875 C 175.621094 129.054688 175.523438 126.878906 176.382812 124.9375 C 177.902344 122.667969 179.632812 121.628906 182.398438 121.648438 Z M 182.398438 121.648438 "/>
<path class="cls-1" style=" stroke:none;fill-rule:nonzero;fill-opacity:1;" d="M 109.226562 121.699219 C 109.648438 121.699219 110.074219 121.695312 110.515625 121.695312 C 111.601562 121.800781 111.601562 121.800781 112.398438 122.601562 C 112.507812 123.675781 112.433594 124.71875 112.398438 125.800781 C 112.125 125.761719 111.851562 125.722656 111.566406 125.683594 C 111.207031 125.640625 110.847656 125.59375 110.476562 125.550781 C 110.117188 125.503906 109.761719 125.457031 109.390625 125.410156 C 108.296875 125.304688 108.296875 125.304688 107.199219 126.199219 C 107.039062 127.039062 107.039062 127.039062 107.101562 127.976562 C 107.105469 128.289062 107.113281 128.601562 107.117188 128.921875 C 107.171875 129.871094 107.171875 129.871094 107.601562 131 C 109.183594 130.867188 110.769531 130.734375 112.398438 130.601562 C 112.515625 133.023438 112.515625 133.023438 112.398438 133.800781 C 110.695312 134.9375 109.203125 134.898438 107.199219 134.601562 C 105.273438 133.734375 104.132812 132.488281 103.199219 130.601562 C 102.863281 128.542969 102.695312 126.347656 103.695312 124.46875 C 105.320312 122.546875 106.664062 121.6875 109.226562 121.699219 Z M 109.226562 121.699219 "/>
<path class="cls-1" style=" stroke:none;fill-rule:nonzero;fill-opacity:1;" d="M 114.398438 122.199219 C 115.457031 122.199219 116.511719 122.199219 117.601562 122.199219 C 117.601562 125.234375 117.601562 128.273438 117.601562 131.398438 C 118.789062 131.398438 119.976562 131.398438 121.199219 131.398438 C 121.199219 132.324219 121.199219 133.25 121.199219 134.199219 C 118.957031 134.199219 116.710938 134.199219 114.398438 134.199219 C 114.398438 130.242188 114.398438 126.28125 114.398438 122.199219 Z M 114.398438 122.199219 "/>
<path class="cls-1" style=" stroke:none;fill-rule:nonzero;fill-opacity:1;" d="M 156.398438 122.199219 C 157.457031 122.199219 158.511719 122.199219 159.601562 122.199219 C 159.601562 126.160156 159.601562 130.121094 159.601562 134.199219 C 158.542969 134.199219 157.488281 134.199219 156.398438 134.199219 C 156.398438 130.242188 156.398438 126.28125 156.398438 122.199219 Z M 156.398438 122.199219 "/>
<path class="cls-1" style=" stroke:none;fill-rule:nonzero;fill-opacity:1;" d="M 123.199219 122.199219 C 124.125 122.199219 125.046875 122.199219 126 122.199219 C 126 126.160156 126 130.121094 126 134.199219 C 125.078125 134.199219 124.152344 134.199219 123.199219 134.199219 C 123.199219 130.242188 123.199219 126.28125 123.199219 122.199219 Z M 123.199219 122.199219 "/>
<path class="bg" style=" stroke:none;fill-rule:nonzero;fill-opacity:1;" d="M 148.398438 129.398438 C 149.191406 129.398438 149.984375 129.398438 150.800781 129.398438 C 150.953125 130.0625 151.085938 130.730469 151.199219 131.398438 C 150.800781 131.800781 150.800781 131.800781 149.574219 131.824219 C 148.992188 131.8125 148.992188 131.8125 148.398438 131.800781 C 148.398438 131.007812 148.398438 130.214844 148.398438 129.398438 Z M 148.398438 129.398438 "/>
<path class="bg" style=" stroke:none;fill-rule:nonzero;fill-opacity:1;" d="M 148.398438 124.601562 C 149.390625 124.796875 149.390625 124.796875 150.398438 125 C 150.269531 125.660156 150.136719 126.320312 150 127 C 149.472656 127 148.945312 127 148.398438 127 C 148.398438 126.207031 148.398438 125.414062 148.398438 124.601562 Z M 148.398438 124.601562 "/>
</g>
</svg>
