<?xml version="1.0" encoding="UTF-8" standalone="no"?>
<!DOCTYPE svg PUBLIC "-//W3C//DTD SVG 1.1//EN" "http://www.w3.org/Graphics/SVG/1.1/DTD/svg11.dtd">
<svg width="100%" height="100%" viewBox="0 0 2691 462" version="1.1" xmlns="http://www.w3.org/2000/svg" xmlns:xlink="http://www.w3.org/1999/xlink" xml:space="preserve" xmlns:serif="http://www.serif.com/" style="fill-rule:evenodd;clip-rule:evenodd;stroke-linejoin:round;stroke-miterlimit:2;">
    <g transform="matrix(1,0,0,1,-140.416667,-1645.416667)">
        <path d="M162.665,2022.406C155.818,2026.637 146.824,2024.512 142.594,2017.665C138.363,2010.818 140.488,2001.824 147.335,1997.594C156.745,1991.78 166.012,1986.092 175.143,1980.527C182.015,1976.338 190.996,1978.516 195.185,1985.389C199.374,1992.262 197.195,2001.243 190.323,2005.432C181.242,2010.967 172.024,2016.624 162.665,2022.406ZM273.93,1955.719C266.961,1959.746 258.034,1957.358 254.006,1950.389C249.979,1943.421 252.367,1934.493 259.336,1930.466C278.962,1919.124 297.92,1908.423 316.283,1898.33C323.336,1894.453 332.21,1897.032 336.087,1904.085C339.965,1911.139 337.386,1920.013 330.332,1923.89C312.145,1933.887 293.368,1944.486 273.93,1955.719ZM416.255,1878.979C409.035,1882.535 400.285,1879.561 396.729,1872.34C393.172,1865.12 396.147,1856.371 403.367,1852.814C423.88,1842.711 443.663,1833.45 462.851,1824.97C470.213,1821.716 478.831,1825.052 482.085,1832.414C485.339,1839.775 482.003,1848.394 474.641,1851.647C455.807,1859.971 436.389,1869.062 416.255,1878.979ZM564.255,1816.242C556.645,1818.862 548.339,1814.811 545.719,1807.201C543.098,1799.591 547.149,1791.285 554.759,1788.664C576.306,1781.245 597.296,1774.837 617.969,1769.328C625.746,1767.255 633.743,1771.887 635.816,1779.664C637.889,1787.441 633.257,1795.438 625.48,1797.511C605.456,1802.848 585.126,1809.055 564.255,1816.242ZM719.387,1778.259C711.422,1779.414 704.017,1773.884 702.863,1765.919C701.708,1757.953 707.238,1750.549 715.203,1749.394C736.926,1746.246 758.728,1743.921 780.908,1742.285C788.935,1741.692 795.933,1747.728 796.525,1755.755C797.117,1763.782 791.081,1770.78 783.055,1771.372C761.563,1772.958 740.436,1775.208 719.387,1778.259ZM879.423,1768.32C871.374,1768.265 864.884,1761.687 864.939,1753.638C864.994,1745.589 871.572,1739.099 879.621,1739.154C901.208,1739.3 923.157,1739.967 945.338,1741.147C953.375,1741.575 959.554,1748.447 959.126,1756.485C958.698,1764.522 951.826,1770.7 943.788,1770.273C922.064,1769.117 900.566,1768.463 879.423,1768.32ZM1040.094,1778.54C1032.101,1777.596 1026.377,1770.341 1027.321,1762.348C1028.264,1754.354 1035.52,1748.631 1043.513,1749.574C1065.197,1752.133 1086.921,1755.157 1108.569,1758.64C1116.516,1759.918 1121.929,1767.408 1120.651,1775.355C1119.372,1783.301 1111.883,1788.715 1103.936,1787.436C1082.693,1784.019 1061.374,1781.051 1040.094,1778.54ZM1198.803,1805.869C1190.958,1804.072 1186.047,1796.243 1187.845,1788.398C1189.642,1780.552 1197.471,1775.642 1205.316,1777.439C1226.863,1782.375 1248.152,1787.777 1269.062,1793.637C1276.812,1795.81 1281.341,1803.865 1279.168,1811.615C1276.996,1819.366 1268.941,1823.894 1261.19,1821.722C1240.726,1815.986 1219.891,1810.7 1198.803,1805.869ZM1352.843,1851.467C1345.303,1848.65 1341.468,1840.242 1344.284,1832.702C1347.101,1825.162 1355.509,1821.328 1363.049,1824.144C1384.124,1832.016 1404.537,1840.414 1424.136,1849.328C1431.463,1852.66 1434.706,1861.314 1431.374,1868.641C1428.041,1875.967 1419.388,1879.21 1412.061,1875.878C1393.062,1867.237 1373.273,1859.098 1352.843,1851.467ZM1497.861,1920.292C1490.773,1916.478 1488.115,1907.627 1491.929,1900.539C1495.743,1893.451 1504.594,1890.793 1511.682,1894.607C1530.308,1904.63 1549.388,1914.698 1569.011,1924.678C1576.186,1928.327 1579.048,1937.114 1575.399,1944.288C1571.751,1951.462 1562.964,1954.324 1555.79,1950.676C1535.961,1940.591 1516.682,1930.419 1497.861,1920.292ZM1644.583,1993.048C1637.223,1989.789 1633.894,1981.168 1637.153,1973.809C1640.412,1966.449 1649.032,1963.12 1656.392,1966.379C1675.643,1974.904 1695.441,1983.201 1715.852,1991.171C1723.349,1994.099 1727.059,2002.563 1724.131,2010.06C1721.204,2017.558 1712.74,2021.268 1705.242,2018.34C1684.419,2010.209 1664.222,2001.745 1644.583,1993.048ZM1798.419,2050.834C1790.724,2048.473 1786.394,2040.309 1788.754,2032.614C1791.115,2024.92 1799.279,2020.589 1806.974,2022.95C1827.034,2029.104 1847.668,2034.88 1868.923,2040.204C1876.731,2042.16 1881.482,2050.087 1879.526,2057.894C1877.57,2065.702 1869.643,2070.453 1861.836,2068.497C1840.077,2063.046 1818.955,2057.134 1798.419,2050.834ZM1958.479,2088.705C1950.543,2087.366 1945.186,2079.836 1946.524,2071.899C1947.863,2063.963 1955.393,2058.606 1963.329,2059.944C1983.996,2063.429 2005.213,2066.472 2027.017,2069.02C2035.011,2069.955 2040.743,2077.204 2039.808,2085.198C2038.874,2093.193 2031.624,2098.924 2023.63,2097.99C2001.326,2095.383 1979.621,2092.27 1958.479,2088.705ZM2121.958,2105.869C2113.918,2105.511 2107.68,2098.693 2108.038,2090.652C2108.396,2082.611 2115.215,2076.374 2123.256,2076.731C2129.282,2077 2135.35,2077.231 2141.461,2077.424C2156.802,2077.909 2171.874,2077.636 2186.687,2076.661C2194.718,2076.133 2201.668,2082.224 2202.197,2090.255C2202.725,2098.287 2196.634,2105.236 2188.603,2105.765C2172.861,2106.801 2156.843,2107.091 2140.539,2106.576C2134.303,2106.379 2128.11,2106.143 2121.958,2105.869ZM2287.586,2088.999C2279.825,2091.13 2271.793,2086.56 2269.661,2078.798C2267.53,2071.037 2272.101,2063.005 2279.862,2060.873C2300.318,2055.256 2320.245,2048.348 2339.676,2040.336C2347.117,2037.268 2355.649,2040.818 2358.718,2048.259C2361.786,2055.7 2358.235,2064.232 2350.794,2067.3C2330.261,2075.767 2309.202,2083.062 2287.586,2088.999ZM2439.677,2021.985C2432.796,2026.161 2423.82,2023.966 2419.644,2017.085C2415.468,2010.204 2417.663,2001.228 2424.544,1997.052C2442.708,1986.027 2460.418,1974.163 2477.709,1961.645C2484.228,1956.924 2493.353,1958.385 2498.073,1964.905C2502.793,1971.424 2501.333,1980.549 2494.813,1985.269C2476.882,1998.252 2458.514,2010.553 2439.677,2021.985ZM2572.024,1923.444C2565.962,1928.739 2556.742,1928.117 2551.446,1922.056C2546.151,1915.994 2546.773,1906.774 2552.834,1901.479C2569.056,1887.307 2584.901,1872.751 2600.403,1857.994C2606.233,1852.445 2615.472,1852.673 2621.021,1858.503C2626.571,1864.333 2626.343,1873.571 2620.513,1879.12C2604.711,1894.162 2588.559,1908.998 2572.024,1923.444ZM2690.127,1809.898C2684.515,1815.668 2675.275,1815.797 2669.505,1810.186C2663.735,1804.575 2663.606,1795.334 2669.217,1789.564C2684.545,1773.802 2699.547,1758.128 2714.259,1742.755C2719.824,1736.941 2729.063,1736.738 2734.878,1742.303C2740.693,1747.868 2740.896,1757.107 2735.331,1762.922C2720.566,1778.35 2705.51,1794.08 2690.127,1809.898ZM2803.089,1693.104C2797.398,1698.795 2788.156,1698.794 2782.465,1693.103C2776.774,1687.411 2776.774,1678.17 2782.466,1672.479C2790.348,1664.598 2798.156,1656.92 2805.897,1649.483C2811.701,1643.907 2820.94,1644.093 2826.517,1649.897C2832.093,1655.701 2831.907,1664.94 2826.103,1670.517C2818.5,1677.821 2810.831,1685.363 2803.089,1693.104Z" style="fill:rgb(255,102,179);"/>
    </g>
</svg>
