<?xml version="1.0" standalone="no"?>
<!DOCTYPE svg PUBLIC "-//W3C//DTD SVG 20010904//EN"
 "http://www.w3.org/TR/2001/REC-SVG-20010904/DTD/svg10.dtd">
<svg version="1.0" xmlns="http://www.w3.org/2000/svg"
 width="630.000000pt" height="500.000000pt">

<rect width="100%" height="100%" fill="#EED4F1" />
<g transform="translate(-20.000000,800.000000) scale(0.100000,-0.100000)"
fill="#515582" stroke="none">
<path d="M0 4415 l0 -4415 4430 0 4430 0 0 4415 0 4415 -4430 0 -4430 0 0
-4415z m3822 1962 c31 -8 93 -27 137 -42 l81 -27 0 -307 0 -307 -59 57 c-105
102 -235 153 -391 152 -245 -2 -424 -138 -496 -378 -28 -94 -25 -250 8 -343
78 -218 256 -342 493 -342 143 0 277 52 389 151 l56 51 0 -306 0 -305 -82 -25
c-146 -44 -210 -57 -328 -63 -433 -21 -867 247 -1019 629 -90 228 -95 519 -11
751 91 251 266 446 506 565 88 44 177 75 274 97 82 18 358 13 442 -8z m-1940
-389 c75 -200 218 -579 318 -843 271 -718 280 -741 280 -748 0 -4 -123 -7
-272 -7 l-273 0 -34 93 c-18 50 -47 127 -63 170 l-30 77 -348 0 -348 0 -19
-47 c-11 -27 -42 -103 -69 -170 l-48 -123 -274 0 c-257 0 -274 1 -267 18 12
30 642 1661 718 1860 l31 82 281 0 281 0 136 -362z m3678 147 l0 -215 -212 -2
-213 -3 -3 -762 -2 -763 -255 0 -255 0 0 765 0 765 -210 0 -210 0 0 215 0 215
680 0 680 0 0 -215z m690 -765 l0 -980 -257 2 -258 3 -3 978 -2 977 260 0 260
0 0 -980z m914 393 c127 -321 233 -583 236 -583 3 0 110 263 238 585 l234 585
280 0 c220 0 279 -3 275 -12 -3 -7 -103 -240 -222 -518 -119 -278 -305 -713
-413 -967 l-197 -463 -200 0 -200 0 -47 113 c-136 321 -392 932 -485 1152 -58
138 -140 333 -183 435 -43 102 -85 202 -94 223 l-16 37 281 -2 281 -3 232
-582z m-3469 -2305 c49 -51 143 -149 210 -218 66 -69 171 -179 234 -245 63
-66 158 -164 210 -218 l96 -99 3 416 2 416 65 0 65 0 0 -570 c0 -313 -3 -570
-7 -570 -7 0 -430 439 -770 798 l-82 87 -1 -423 0 -423 -62 3 -63 3 -3 568
c-1 312 2 567 6 567 5 0 48 -42 97 -92z m3244 37 c51 -28 131 -106 131 -129 0
-6 -20 -24 -45 -40 l-46 -28 -42 45 c-50 55 -80 67 -156 67 -44 0 -66 -6 -91
-22 -91 -62 -109 -165 -43 -233 16 -15 96 -61 180 -100 171 -83 229 -128 263
-207 30 -71 26 -179 -11 -258 -121 -256 -500 -260 -623 -7 -41 83 -39 97 14
113 60 18 80 18 80 -3 1 -40 55 -117 104 -148 180 -110 405 89 308 272 -21 38
-84 79 -217 139 -151 68 -234 137 -254 209 -41 149 29 288 173 345 78 31 203
24 275 -15z m1260 0 c51 -28 131 -106 131 -129 0 -6 -21 -24 -46 -40 l-47 -30
-30 38 c-46 57 -97 79 -174 74 -99 -6 -163 -68 -163 -157 0 -81 30 -110 190
-182 255 -116 318 -189 308 -356 -10 -166 -116 -282 -285 -313 -75 -13 -180 6
-240 43 -75 47 -145 145 -155 216 -3 20 3 25 42 37 59 18 80 17 80 -1 0 -57
92 -157 162 -175 113 -31 240 45 268 160 23 96 -22 174 -132 227 -35 17 -107
52 -160 78 -148 71 -208 148 -208 267 0 84 40 164 107 215 92 71 250 83 352
28z m-7179 -45 l0 -60 -190 0 -191 0 3 -157 3 -158 183 -3 182 -2 0 -55 0 -55
-182 -2 -183 -3 -3 -272 -2 -273 -60 0 -60 0 0 550 0 550 250 0 250 0 0 -60z
m770 -490 l0 -551 -62 3 -63 3 -3 548 -2 547 65 0 65 0 0 -550z m1230 490 l0
-60 -135 0 -135 0 0 -490 0 -491 -62 3 -63 3 -3 488 -2 487 -130 0 -130 0 0
60 0 60 330 0 330 0 0 -60z m2800 0 l0 -60 -220 0 -220 0 0 -160 0 -160 215 0
215 0 0 -55 0 -55 -215 0 -215 0 0 -215 0 -215 220 0 220 0 0 -60 0 -60 -285
0 -285 0 0 550 0 550 285 0 285 0 0 -60z"/>
<path d="M1436 5664 c-72 -203 -178 -525 -174 -530 3 -2 95 -3 205 -2 l200 3
-102 304 -101 304 -28 -79z"/>
</g>
</svg>
