<svg version="1.1" id="Layer_1" xmlns="http://www.w3.org/2000/svg" xmlns:xlink="http://www.w3.org/1999/xlink" x="0px" y="0px"
	 width="100%" viewBox="0 0 225 225" enable-background="new 0 0 225 225" xml:space="preserve">
<path fill="#000051" opacity="1.000000" stroke="none" 
	d="
M131.000000,226.000000 
	C87.333336,226.000000 44.166672,226.000000 1.000006,226.000000 
	C1.000004,151.000000 1.000004,76.000015 1.000002,1.000016 
	C75.999992,1.000011 150.999985,1.000011 225.999969,1.000005 
	C225.999985,75.999985 225.999985,150.999969 226.000000,225.999969 
	C194.500000,226.000000 163.000000,226.000000 131.000000,226.000000 
M76.468903,180.059799 
	C76.468903,180.059799 75.996956,180.165039 75.072495,180.029297 
	C70.921295,180.018845 66.766830,179.902542 62.619900,180.030518 
	C59.141796,180.137848 57.133865,182.146103 57.043152,185.607605 
	C56.903988,190.917633 56.791649,196.245621 57.077396,201.543915 
	C57.294224,205.564331 59.136295,208.380463 63.912354,208.036972 
	C66.838966,207.826508 69.793053,207.998062 74.100121,207.998062 
	C72.831779,211.354523 71.923561,213.757965 70.203064,216.347809 
	C66.535179,216.704391 62.867298,217.060959 59.182430,217.419174 
	C60.120659,221.308609 65.182709,222.324249 72.736382,219.992722 
	C74.098106,218.263885 75.459831,216.535034 77.011108,214.427612 
	C77.011108,214.427612 77.138428,214.023819 77.879295,213.571533 
	C77.918510,203.186157 77.979721,192.800705 77.951103,182.415512 
	C77.949028,181.664474 77.292877,180.915253 76.468903,180.059799 
M165.516037,168.009842 
	C165.516037,168.009842 165.039642,167.880569 164.760773,167.326172 
	C164.164185,167.272903 163.567612,167.219620 162.208206,167.533096 
	C162.141846,179.349899 162.059402,191.166687 162.049362,202.983536 
	C162.048767,203.688049 162.628113,204.393066 163.014191,205.813385 
	C165.421051,207.841141 167.787445,210.661865 170.970612,206.208496 
	C169.393295,205.041885 168.111115,204.093582 166.970200,202.196686 
	C166.980240,192.121506 167.026169,182.046051 166.955231,171.971451 
	C166.946289,170.700836 166.322922,169.434525 165.516037,168.009842 
M110.262230,220.660385 
	C113.305466,221.579712 113.999710,219.886703 114.004036,217.343658 
	C114.009308,214.244431 114.069366,211.145309 115.010216,208.008759 
	C116.839722,208.005859 118.669235,208.003387 120.498741,208.000015 
	C127.614807,207.986893 129.983398,205.573898 129.998474,198.310791 
	C130.005371,194.984406 130.016006,191.657898 129.995850,188.331619 
	C129.961060,182.588776 124.874512,178.206436 119.271179,179.039093 
	C116.521751,179.447678 113.762657,179.791199 110.533607,180.059723 
	C110.533607,180.059723 110.059578,180.165558 109.227325,180.418427 
	C109.151894,192.565048 109.055618,204.711639 109.037971,216.858353 
	C109.036453,217.904922 109.555656,218.952240 110.262230,220.660385 
M35.402134,131.844116 
	C35.877583,131.782333 36.430897,131.857849 36.817142,131.638779 
	C47.806366,125.406166 56.865253,117.192215 63.032024,106.017120 
	C66.524345,99.688530 69.036705,93.083893 69.004982,85.716309 
	C68.990379,82.326401 67.651207,80.172462 63.976822,81.044876 
	C56.642269,82.786324 49.834553,85.730423 44.370300,91.122284 
	C32.863457,102.476692 30.529305,116.015465 35.402134,131.844116 
M170.489075,115.912483 
	C176.616852,122.369026 183.209366,128.211166 191.661484,132.252686 
	C196.942734,117.221107 193.871475,103.917351 183.784470,92.805252 
	C177.346176,85.712662 168.687592,81.302055 157.758987,81.084274 
	C158.099670,85.151299 157.550858,89.065117 158.862503,92.200676 
	C162.162216,100.088753 166.301758,107.625526 170.489075,115.912483 
M80.525383,59.659527 
	C81.152710,59.502087 81.825928,59.442451 82.400589,59.172787 
	C94.331116,53.574223 100.803986,43.434994 104.896065,31.530857 
	C107.558304,23.786238 109.196335,15.791343 108.691528,7.125378 
	C97.043388,6.506635 89.758698,13.450602 83.893242,21.040495 
	C74.979782,32.574509 74.711205,45.832581 80.525383,59.659527 
M127.424988,141.002975 
	C141.154587,159.045761 171.495575,160.706421 185.843857,141.242081 
	C184.436554,140.238205 183.148148,138.994644 181.613724,138.277298 
	C171.708603,133.646683 161.600067,130.498383 150.317108,130.808426 
	C142.477020,131.023865 135.185760,131.697327 128.375626,135.843643 
	C126.227341,137.151596 125.247475,138.219406 127.424988,141.002975 
M90.905273,132.365051 
	C73.181145,128.857101 56.399834,130.791199 40.933617,140.839355 
	C53.628647,158.207413 80.497284,160.205917 95.591187,144.840317 
	C97.600502,142.794846 99.196953,140.343796 100.984596,138.080566 
	C97.834213,136.357574 94.683823,134.634583 90.905273,132.365051 
M126.830811,8.400695 
	C124.413101,7.902239 121.995392,7.403783 119.512848,6.891962 
	C116.869705,28.746296 129.704742,55.184181 146.555130,59.688110 
	C154.429947,44.041878 151.346909,19.331470 126.830811,8.400695 
M133.570709,122.094933 
	C147.306671,113.512642 152.849503,92.854347 146.313828,82.126228 
	C125.436340,87.650101 114.554909,112.621574 121.429489,128.230484 
	C125.312767,126.338684 129.167984,124.460564 133.570709,122.094933 
M80.901413,106.465866 
	C86.623741,119.222023 97.828094,127.886726 106.719017,126.431496 
	C110.883049,101.366600 93.675568,84.667580 79.722870,82.617340 
	C76.736481,90.454147 77.781342,98.183853 80.901413,106.465866 
M88.562462,70.858521 
	C103.090668,84.877495 130.674011,81.950432 138.685898,69.707428 
	C129.493881,56.756596 110.086273,55.189007 98.424805,61.064983 
	C94.491394,63.046947 91.603584,67.104012 88.562462,70.858521 
M90.495171,179.880951 
	C85.784355,181.118835 83.295570,184.268539 83.038864,189.033371 
	C82.842384,192.680298 82.902946,196.349243 83.019798,200.002930 
	C83.186417,205.212875 86.161407,207.964935 91.459274,207.994522 
	C94.119156,208.009384 96.816177,208.255798 99.424309,207.887238 
	C100.829147,207.688736 102.081818,206.413315 103.403145,205.623779 
	C103.169044,205.083023 102.934937,204.542267 102.700829,204.001511 
	C99.737015,204.001511 96.773170,204.009781 93.809395,203.999817 
	C87.276390,203.977875 86.410507,202.908905 87.666634,195.999146 
	C91.728333,195.999146 95.878136,196.214645 99.982941,195.879288 
	C101.372185,195.765793 103.545601,194.484329 103.829681,193.352386 
	C105.710648,185.857529 98.843140,178.494141 90.495171,179.880951 
M183.104279,203.353333 
	C184.807236,210.053192 181.542511,214.965942 176.332611,219.474594 
	C181.911438,220.643982 184.872192,219.687332 186.401077,214.405502 
	C189.339920,204.252625 193.089706,194.336655 196.232101,184.238083 
	C196.686996,182.776230 195.641876,180.847626 195.290894,179.135025 
	C194.197647,180.260757 192.625168,181.198547 192.096756,182.545822 
	C190.143570,187.525970 188.535324,192.641403 186.630936,198.191132 
	C182.253983,191.756348 183.286331,183.471817 177.574051,178.748856 
	C176.896484,179.027328 176.218903,179.305801 175.541336,179.584274 
	C178.028488,187.238098 180.515625,194.891907 183.104279,203.353333 
M40.139320,182.999435 
	C46.583042,184.119629 47.672173,185.664352 46.217621,192.022659 
	C42.988289,192.022659 39.665195,191.799820 36.384426,192.077316 
	C31.976271,192.450195 30.392208,195.743668 30.058512,199.559128 
	C29.706457,203.584488 31.628082,207.108337 35.520603,207.767258 
	C40.129322,208.547409 44.971130,207.950562 50.007355,207.950562 
	C50.007355,200.838562 49.869202,194.380463 50.049282,187.931244 
	C50.204800,182.361740 46.690868,178.523682 41.273178,179.047577 
	C38.551971,179.310745 35.873405,180.014847 33.175556,180.519531 
	C33.118530,181.051483 33.061508,181.583450 33.004482,182.115417 
	C35.091576,182.409637 37.178673,182.703857 40.139320,182.999435 
M136.036224,200.754547 
	C136.354004,201.500931 136.586411,202.299164 137.003265,202.985352 
	C139.932648,207.807281 144.022324,209.445175 149.304581,207.962814 
	C153.495758,206.786652 155.987823,202.989471 155.996613,197.754501 
	C156.001633,194.766739 156.028824,191.778534 155.989059,188.791306 
	C155.933990,184.654053 150.679611,178.653091 147.190994,179.097275 
	C140.265198,179.979111 136.130020,182.004166 136.013336,188.932480 
	C135.951843,192.583130 136.006302,196.235718 136.036224,200.754547 
z"/>
<path fill="#B7D3DB" opacity="1.000000" stroke="none" 
	d="
M35.214386,131.486603 
	C30.529305,116.015465 32.863457,102.476692 44.370300,91.122284 
	C49.834553,85.730423 56.642269,82.786324 63.976822,81.044876 
	C67.651207,80.172462 68.990379,82.326401 69.004982,85.716309 
	C69.036705,93.083893 66.524345,99.688530 63.032024,106.017120 
	C56.865253,117.192215 47.806366,125.406166 36.817142,131.638779 
	C36.430897,131.857849 35.877583,131.782333 35.214386,131.486603 
z"/>
<path fill="#5EA5C1" opacity="1.000000" stroke="none" 
	d="
M170.296844,115.607811 
	C166.301758,107.625526 162.162216,100.088753 158.862503,92.200676 
	C157.550858,89.065117 158.099670,85.151299 157.758987,81.084274 
	C168.687592,81.302055 177.346176,85.712662 183.784470,92.805252 
	C193.871475,103.917351 196.942734,117.221107 191.661484,132.252686 
	C183.209366,128.211166 176.616852,122.369026 170.296844,115.607811 
z"/>
<path fill="#1375A1" opacity="1.000000" stroke="none" 
	d="
M80.200424,59.462700 
	C74.711205,45.832581 74.979782,32.574509 83.893242,21.040495 
	C89.758698,13.450602 97.043388,6.506635 108.691528,7.125378 
	C109.196335,15.791343 107.558304,23.786238 104.896065,31.530857 
	C100.803986,43.434994 94.331116,53.574223 82.400589,59.172787 
	C81.825928,59.442451 81.152710,59.502087 80.200424,59.462700 
z"/>
<path fill="#5FA5C1" opacity="1.000000" stroke="none" 
	d="
M127.174118,140.724854 
	C125.247475,138.219406 126.227341,137.151596 128.375626,135.843643 
	C135.185760,131.697327 142.477020,131.023865 150.317108,130.808426 
	C161.600067,130.498383 171.708603,133.646683 181.613724,138.277298 
	C183.148148,138.994644 184.436554,140.238205 185.843857,141.242081 
	C171.495575,160.706421 141.154587,159.045761 127.174118,140.724854 
z"/>
<path fill="#B7D3DB" opacity="1.000000" stroke="none" 
	d="
M91.219360,132.638321 
	C94.683823,134.634583 97.834213,136.357574 100.984596,138.080566 
	C99.196953,140.343796 97.600502,142.794846 95.591187,144.840317 
	C80.497284,160.205917 53.628647,158.207413 40.933617,140.839355 
	C56.399834,130.791199 73.181145,128.857101 91.219360,132.638321 
z"/>
<path fill="#1475A1" opacity="1.000000" stroke="none" 
	d="
M127.153412,8.622082 
	C151.346909,19.331470 154.429947,44.041878 146.555130,59.688110 
	C129.704742,55.184181 116.869705,28.746296 119.512848,6.891962 
	C121.995392,7.403783 124.413101,7.902239 127.153412,8.622082 
z"/>
<path fill="#5EA5C1" opacity="1.000000" stroke="none" 
	d="
M133.296967,122.338692 
	C129.167984,124.460564 125.312767,126.338684 121.429489,128.230484 
	C114.554909,112.621574 125.436340,87.650101 146.313828,82.126228 
	C152.849503,92.854347 147.306671,113.512642 133.296967,122.338692 
z"/>
<path fill="#B6D3DB" opacity="1.000000" stroke="none" 
	d="
M80.625092,106.175430 
	C77.781342,98.183853 76.736481,90.454147 79.722870,82.617340 
	C93.675568,84.667580 110.883049,101.366600 106.719017,126.431496 
	C97.828094,127.886726 86.623741,119.222023 80.625092,106.175430 
z"/>
<path fill="#1274A1" opacity="1.000000" stroke="none" 
	d="
M88.400177,70.535606 
	C91.603584,67.104012 94.491394,63.046947 98.424805,61.064983 
	C110.086273,55.189007 129.493881,56.756596 138.685898,69.707428 
	C130.674011,81.950432 103.090668,84.877495 88.400177,70.535606 
z"/>
<path fill="#E3040D" opacity="1.000000" stroke="none" 
	d="
M90.819107,179.649506 
	C98.843140,178.494141 105.710648,185.857529 103.829681,193.352386 
	C103.545601,194.484329 101.372185,195.765793 99.982941,195.879288 
	C95.878136,196.214645 91.728333,195.999146 87.666634,195.999146 
	C86.410507,202.908905 87.276390,203.977875 93.809395,203.999817 
	C96.773170,204.009781 99.737015,204.001511 102.700829,204.001511 
	C102.934937,204.542267 103.169044,205.083023 103.403145,205.623779 
	C102.081818,206.413315 100.829147,207.688736 99.424309,207.887238 
	C96.816177,208.255798 94.119156,208.009384 91.459274,207.994522 
	C86.161407,207.964935 83.186417,205.212875 83.019798,200.002930 
	C82.902946,196.349243 82.842384,192.680298 83.038864,189.033371 
	C83.295570,184.268539 85.784355,181.118835 90.819107,179.649506 
M95.794174,184.337280 
	C89.030273,183.636917 88.216156,184.320877 87.202003,192.002686 
	C89.536453,192.002686 91.824516,192.159439 94.079582,191.953934 
	C95.942848,191.784134 97.767097,191.186157 99.608635,190.777893 
	C98.542877,188.802811 97.477119,186.827728 95.794174,184.337280 
z"/>
<path fill="#E30C13" opacity="1.000000" stroke="none" 
	d="
M183.053528,202.949524 
	C180.515625,194.891907 178.028488,187.238098 175.541336,179.584274 
	C176.218903,179.305801 176.896484,179.027328 177.574051,178.748856 
	C183.286331,183.471817 182.253983,191.756348 186.630936,198.191132 
	C188.535324,192.641403 190.143570,187.525970 192.096756,182.545822 
	C192.625168,181.198547 194.197647,180.260757 195.290894,179.135010 
	C195.641876,180.847626 196.686996,182.776230 196.232101,184.238083 
	C193.089706,194.336655 189.339920,204.252625 186.401077,214.405502 
	C184.872192,219.687332 181.911438,220.643982 176.332611,219.474594 
	C181.542511,214.965942 184.807236,210.053192 183.053528,202.949524 
z"/>
<path fill="#E3040E" opacity="1.000000" stroke="none" 
	d="
M71.015350,216.161407 
	C71.923561,213.757965 72.831779,211.354523 74.100121,207.998062 
	C69.793053,207.998062 66.838966,207.826508 63.912354,208.036972 
	C59.136295,208.380463 57.294224,205.564331 57.077396,201.543915 
	C56.791649,196.245621 56.903988,190.917633 57.043152,185.607605 
	C57.133865,182.146103 59.141796,180.137848 62.619900,180.030518 
	C66.766830,179.902542 70.921295,180.018845 75.536423,180.555161 
	C76.001282,187.227753 75.897690,193.376816 76.035576,199.520462 
	C76.150009,204.619019 76.548759,209.711197 76.821564,214.806198 
	C75.459831,216.535034 74.098106,218.263885 72.057663,219.809189 
	C68.171776,219.303467 64.964615,218.981277 62.443035,218.727966 
	C64.917175,217.987213 67.966263,217.074310 71.015350,216.161407 
M59.997993,189.836487 
	C59.998028,191.989868 59.967018,194.143799 60.003952,196.296539 
	C60.112030,202.595474 63.928135,205.987411 69.989555,204.891190 
	C71.094597,204.691345 72.792915,203.281586 72.827957,202.376556 
	C73.075165,195.990829 72.959259,189.591034 72.959259,183.265671 
	C63.508041,182.608780 61.338188,183.618988 59.997993,189.836487 
z"/>
<path fill="#E3040E" opacity="1.000000" stroke="none" 
	d="
M39.702545,182.998749 
	C37.178673,182.703857 35.091576,182.409637 33.004482,182.115417 
	C33.061508,181.583450 33.118530,181.051483 33.175556,180.519531 
	C35.873405,180.014847 38.551971,179.310745 41.273178,179.047577 
	C46.690868,178.523682 50.204800,182.361740 50.049282,187.931244 
	C49.869202,194.380463 50.007355,200.838562 50.007355,207.950562 
	C44.971130,207.950562 40.129322,208.547409 35.520603,207.767258 
	C31.628082,207.108337 29.706457,203.584488 30.058512,199.559128 
	C30.392208,195.743668 31.976271,192.450195 36.384426,192.077316 
	C39.665195,191.799820 42.988289,192.022659 46.217621,192.022659 
	C47.672173,185.664352 46.583042,184.119629 39.702545,182.998749 
M41.646526,196.001816 
	C39.511570,196.853851 37.172546,197.419785 35.354637,198.716339 
	C34.735748,199.157761 35.175800,202.613098 35.561428,202.696106 
	C39.229839,203.485718 42.990704,203.845795 46.710373,204.327469 
	C46.710373,200.930084 46.710373,198.666733 46.710373,196.001968 
	C45.138523,196.001968 43.845406,196.001968 41.646526,196.001816 
z"/>
<path fill="#E3060F" opacity="1.000000" stroke="none" 
	d="
M136.022324,200.320984 
	C136.006302,196.235718 135.951843,192.583130 136.013336,188.932480 
	C136.130020,182.004166 140.265198,179.979111 147.190994,179.097275 
	C150.679611,178.653091 155.933990,184.654053 155.989059,188.791306 
	C156.028824,191.778534 156.001633,194.766739 155.996613,197.754501 
	C155.987823,202.989471 153.495758,206.786652 149.304581,207.962814 
	C144.022324,209.445175 139.932648,207.807281 137.003265,202.985352 
	C136.586411,202.299164 136.354004,201.500931 136.022324,200.320984 
M153.002090,194.379425 
	C152.998062,193.218536 153.441238,191.762405 152.906235,190.952072 
	C151.293854,188.509949 149.735825,185.473572 147.346207,184.244461 
	C144.365936,182.711548 141.200745,184.709335 140.595749,188.008530 
	C139.870560,191.963211 139.657593,196.197296 140.315201,200.127579 
	C140.573395,201.670715 143.865158,203.830475 145.638535,203.709106 
	C147.816711,203.560074 150.135345,201.597504 151.838013,199.871201 
	C152.800827,198.895004 152.649750,196.820160 153.002090,194.379425 
z"/>
<path fill="#E30511" opacity="1.000000" stroke="none" 
	d="
M111.007942,180.164185 
	C113.762657,179.791199 116.521751,179.447678 119.271179,179.039093 
	C124.874512,178.206436 129.961060,182.588776 129.995850,188.331619 
	C130.016006,191.657898 130.005371,194.984406 129.998474,198.310791 
	C129.983398,205.573898 127.614807,207.986893 120.498741,208.000015 
	C118.669235,208.003387 116.839722,208.005859 114.199020,208.164612 
	C112.703537,211.226776 112.019241,214.133102 111.007942,218.428299 
	C111.007942,204.734512 111.007942,192.449356 111.007942,180.164185 
M126.000046,191.694580 
	C125.991714,190.368317 126.228867,188.984177 125.932274,187.725861 
	C124.696091,182.481400 120.516174,182.995789 116.511292,182.968369 
	C112.597061,182.941589 112.993202,185.580872 112.997887,188.092361 
	C113.003448,191.076767 112.997833,194.061188 112.999138,197.045609 
	C113.002281,204.231491 113.428925,204.625549 120.619186,203.989563 
	C124.208183,203.672089 126.530045,202.253860 126.035622,198.085037 
	C125.822327,196.286530 125.999985,194.441666 126.000046,191.694580 
z"/>
<path fill="#E3040D" opacity="1.000000" stroke="none" 
	d="
M166.828918,203.145264 
	C168.111115,204.093582 169.393295,205.041885 170.970612,206.208496 
	C167.787445,210.661865 165.421051,207.841141 163.008972,204.982239 
	C162.992859,191.822830 162.981934,179.494598 162.971024,167.166351 
	C163.567612,167.219620 164.164185,167.272903 164.892639,168.079849 
	C165.017578,178.302856 164.953766,187.772781 165.051224,197.241043 
	C165.070969,199.159454 165.699799,201.071594 166.241699,203.033173 
	C166.435577,203.079712 166.828918,203.145264 166.828918,203.145264 
z"/>
<path fill="#E20000" opacity="1.000000" stroke="none" 
	d="
M110.770775,180.111954 
	C111.007942,192.449356 111.007942,204.734512 111.007942,218.428299 
	C112.019241,214.133102 112.703537,211.226776 113.746780,208.183289 
	C114.069366,211.145309 114.009308,214.244431 114.004036,217.343658 
	C113.999710,219.886703 113.305466,221.579712 110.107445,219.864777 
	C109.988304,206.101303 110.023941,193.133438 110.059578,180.165558 
	C110.059578,180.165558 110.533607,180.059723 110.770775,180.111954 
z"/>
<path fill="#EC757A" opacity="1.000000" stroke="none" 
	d="
M109.643448,180.291992 
	C110.023941,193.133438 109.988304,206.101303 109.892807,219.534210 
	C109.555656,218.952240 109.036453,217.904922 109.037971,216.858353 
	C109.055618,204.711639 109.151894,192.565048 109.643448,180.291992 
z"/>
<path fill="#E20000" opacity="1.000000" stroke="none" 
	d="
M70.609207,216.254608 
	C67.966263,217.074310 64.917175,217.987213 62.443035,218.727966 
	C64.964615,218.981277 68.171776,219.303467 71.706200,219.871460 
	C65.182709,222.324249 60.120659,221.308609 59.182430,217.419174 
	C62.867298,217.060959 66.535179,216.704391 70.609207,216.254608 
z"/>
<path fill="#E52A31" opacity="1.000000" stroke="none" 
	d="
M162.589615,167.349731 
	C162.981934,179.494598 162.992859,191.822830 162.970688,204.624451 
	C162.628113,204.393066 162.048767,203.688049 162.049362,202.983536 
	C162.059402,191.166687 162.141846,179.349899 162.589615,167.349731 
z"/>
<path fill="#F9D4D6" opacity="1.000000" stroke="none" 
	d="
M166.899567,202.670975 
	C166.828918,203.145264 166.435577,203.079712 166.227524,202.565582 
	C166.007721,190.756363 165.995972,179.461304 165.984222,168.166229 
	C166.322922,169.434525 166.946289,170.700836 166.955231,171.971451 
	C167.026169,182.046051 166.980240,192.121506 166.899567,202.670975 
z"/>
<path fill="#E20000" opacity="1.000000" stroke="none" 
	d="
M165.750122,168.088043 
	C165.995972,179.461304 166.007721,190.756363 166.033646,202.519043 
	C165.699799,201.071594 165.070969,199.159454 165.051224,197.241043 
	C164.953766,187.772781 165.017578,178.302856 165.032074,168.357056 
	C165.039642,167.880569 165.516037,168.009842 165.750122,168.088043 
z"/>
<path fill="#E20000" opacity="1.000000" stroke="none" 
	d="
M76.916336,214.616913 
	C76.548759,209.711197 76.150009,204.619019 76.035576,199.520462 
	C75.897690,193.376816 76.001282,187.227753 75.998650,180.623032 
	C75.996956,180.165039 76.468903,180.059799 76.721046,180.570114 
	C77.028267,192.061554 77.083351,203.042694 77.138428,214.023819 
	C77.138428,214.023819 77.011108,214.427612 76.916336,214.616913 
z"/>
<path fill="#F6C1C3" opacity="1.000000" stroke="none" 
	d="
M77.508865,213.797668 
	C77.083351,203.042694 77.028267,192.061554 76.957016,180.622803 
	C77.292877,180.915253 77.949028,181.664474 77.951103,182.415512 
	C77.979721,192.800705 77.918510,203.186157 77.508865,213.797668 
z"/>
<path fill="#000051" opacity="1.000000" stroke="none" 
	d="
M96.102768,184.594971 
	C97.477119,186.827728 98.542877,188.802811 99.608635,190.777893 
	C97.767097,191.186157 95.942848,191.784134 94.079582,191.953934 
	C91.824516,192.159439 89.536453,192.002686 87.202003,192.002686 
	C88.216156,184.320877 89.030273,183.636917 96.102768,184.594971 
z"/>
<path fill="#000051" opacity="1.000000" stroke="none" 
	d="
M59.998928,189.385315 
	C61.338188,183.618988 63.508041,182.608780 72.959259,183.265671 
	C72.959259,189.591034 73.075165,195.990829 72.827957,202.376556 
	C72.792915,203.281586 71.094597,204.691345 69.989555,204.891190 
	C63.928135,205.987411 60.112030,202.595474 60.003952,196.296539 
	C59.967018,194.143799 59.998028,191.989868 59.998928,189.385315 
z"/>
<path fill="#000051" opacity="1.000000" stroke="none" 
	d="
M42.099403,196.001892 
	C43.845406,196.001968 45.138523,196.001968 46.710373,196.001968 
	C46.710373,198.666733 46.710373,200.930084 46.710373,204.327469 
	C42.990704,203.845795 39.229839,203.485718 35.561428,202.696106 
	C35.175800,202.613098 34.735748,199.157761 35.354637,198.716339 
	C37.172546,197.419785 39.511570,196.853851 42.099403,196.001892 
z"/>
<path fill="#000051" opacity="1.000000" stroke="none" 
	d="
M153.001251,194.809784 
	C152.649750,196.820160 152.800827,198.895004 151.838013,199.871201 
	C150.135345,201.597504 147.816711,203.560074 145.638535,203.709106 
	C143.865158,203.830475 140.573395,201.670715 140.315201,200.127579 
	C139.657593,196.197296 139.870560,191.963211 140.595749,188.008530 
	C141.200745,184.709335 144.365936,182.711548 147.346207,184.244461 
	C149.735825,185.473572 151.293854,188.509949 152.906235,190.952072 
	C153.441238,191.762405 152.998062,193.218536 153.001251,194.809784 
z"/>
<path fill="#000051" opacity="1.000000" stroke="none" 
	d="
M126.000046,192.156219 
	C125.999985,194.441666 125.822327,196.286530 126.035622,198.085037 
	C126.530045,202.253860 124.208183,203.672089 120.619186,203.989563 
	C113.428925,204.625549 113.002281,204.231491 112.999138,197.045609 
	C112.997833,194.061188 113.003448,191.076767 112.997887,188.092361 
	C112.993202,185.580872 112.597061,182.941589 116.511292,182.968369 
	C120.516174,182.995789 124.696091,182.481400 125.932274,187.725861 
	C126.228867,188.984177 125.991714,190.368317 126.000046,192.156219 
z"/>
</svg>