<svg width="231" height="128" viewBox="0 0 231 128" fill="none" version="1.1" sodipodi:docname="andros.svg" inkscape:version="1.3.2 (091e20ef0f, 2023-11-25)" xmlns:inkscape="http://www.inkscape.org/namespaces/inkscape" xmlns:sodipodi="http://sodipodi.sourceforge.net/DTD/sodipodi-0.dtd" xmlns:xlink="http://www.w3.org/1999/xlink" xmlns="http://www.w3.org/2000/svg" xmlns:svg="http://www.w3.org/2000/svg"><sodipodi:namedview pagecolor="#545784" bordercolor="#000000" borderopacity="0.25" inkscape:showpageshadow="2" inkscape:pageopacity="0.0" inkscape:pagecheckerboard="0" inkscape:deskcolor="#d1d1d1" inkscape:zoom="2.7402597" inkscape:cx="105.64692" inkscape:cy="78.64218" inkscape:window-width="1440" inkscape:window-height="891" inkscape:window-x="0" inkscape:window-y="32" inkscape:window-maximized="1" inkscape:current-layer="svg56"/><path d="M 116.2832 13.648438 C 92.972552 13.648438 74 28.094905 74 45.855469 C 74 51.113757 75.667392 56.077252 78.617188 60.464844 C 74.114196 60.330244 71.072373 60.250012 70.234375 60.195312 C 29.356657 57.545118 3.2109375 65.853516 3.2109375 65.853516 L 3.2109375 69.134766 C 8.4953299 67.768893 32.578702 62.163308 69.691406 64.214844 C 71.175405 64.299444 79.446736 64.442835 90.515625 64.802734 L 90.519531 64.802734 C 91.616224 64.837131 92.900761 64.892369 94.048828 64.931641 C 84.874258 60.128914 78.898437 52.435509 78.898438 43.736328 C 78.898438 29.176658 95.565284 17.371094 116.12305 17.371094 C 136.68001 17.371094 153.34375 29.176658 153.34375 43.736328 C 153.34375 53.64465 145.62109 62.264244 134.2168 66.769531 C 148.82237 67.403607 160.77207 67.767562 161.99219 67.833984 C 196.22548 69.688613 219.14943 64.93731 227.16992 62.90625 L 227.16992 57.662109 C 227.16992 57.662109 202.21998 66.997172 160.28906 64.330078 L 160.28906 64.333984 C 159.67506 64.296184 156.3025 64.171631 151.22852 63.957031 C 155.8495 58.795441 158.5625 52.565055 158.5625 45.855469 C 158.5625 28.094905 139.59316 13.648437 116.2832 13.648438 z M 227.16992 116.125 C 219.72383 118.13106 199.37144 122.38352 164.80469 120.58203 C 169.22668 120.81503 143.9745 120.12583 115.76953 118.92383 C 87.881661 117.72983 61.819233 117.03125 66.736328 117.28125 C 29.26486 115.36656 9.2652801 120.25731 3.2109375 122.0918 L 3.2109375 127.17773 C 3.2109375 127.17773 22.800746 118.20019 67.347656 120.86719 C 62.548466 120.58119 87.974754 121.38114 115.1875 122.74414 C 142.70444 124.11914 167.34425 124.90758 163.03125 124.64258 C 206.46517 127.29658 227.16992 118.98437 227.16992 118.98438 L 227.16992 116.125 z " fill="#eed4f1" fill-opacity="1"/><path d="M208.153 87.915C210.879 89.4157 212.304 90.2556 215.085 91.961C219.237 94.5574 221.477 96.9834 221.583 101.729C221.68 106.47 218.865 113.645 209.391 115.056C199.918 116.463 195.069 111.471 195.069 111.471C196.198 108.751 197.267 106.141 198.388 103.383C198.831 103.792 202.061 108.111 207.388 108.064C210.499 107.74 212.194 106.363 212.194 104.116C212.131 102.432 210.004 101.319 210.004 101.319C209.987 101.319 204.479 98.0066 201.664 96.3779C199.161 94.7834 196.697 93.2699 196.511 88.8998C196.68 83.5066 199.884 77.0687 207.223 74.5703C212.46 73.1506 216.206 73.7731 219.165 76.3226C219.389 76.5315 219.841 76.9366 219.841 76.9366L217.301 85.6383C217.301 85.6383 217.064 84.8325 215.656 83.4767C214.595 82.4748 212.68 80.8163 209.903 81.2469C207.354 81.6989 206.217 83.3019 206.162 84.9306C206.14 86.6317 206.622 86.9216 208.153 87.9107" fill="#434569" fill-opacity="1" stroke="#434569" stroke-opacity="1"/><path d="M208.153 87.915C210.879 89.4157 212.304 90.2556 215.085 91.961C219.237 94.5574 221.477 96.9834 221.583 101.729C221.68 106.47 218.865 113.645 209.391 115.056C199.918 116.463 195.069 111.471 195.069 111.471C196.198 108.751 197.267 106.141 198.388 103.383C198.831 103.792 202.061 108.111 207.388 108.064C210.499 107.74 212.194 106.363 212.194 104.116C212.131 102.432 210.004 101.319 210.004 101.319C209.987 101.319 204.479 98.0066 201.664 96.3779C199.161 94.7834 196.697 93.2699 196.511 88.8998C196.68 83.5066 199.884 77.0687 207.223 74.5703C212.46 73.1506 216.206 73.7731 219.165 76.3226C219.389 76.5315 219.841 76.9366 219.841 76.9366L217.301 85.6383C217.301 85.6383 217.064 84.8325 215.656 83.4767C214.595 82.4748 212.68 80.8163 209.903 81.2469C207.354 81.6989 206.217 83.3019 206.162 84.9306C206.14 86.6317 206.622 86.9216 208.153 87.9107V87.9107" stroke="#434569" stroke-width="0.787885" fill="#434569" fill-opacity="1" stroke-opacity="1"/><path fill-rule="evenodd" clip-rule="evenodd" d="m 43.969247,110.248 c 5e-4,-0.001 10e-4,-0.001 0.0016,-0.001 v 0.005 c -6e-4,-0.002 -0.0011,-0.003 -0.0016,-0.004 z m 0,0 C 39.352547,97.6906 30.075547,74.46 30.075547,74.46 l -6.9032,0.712 c 0,0 -10.5302,25.193 -16.3470299,38.35 1.1987099,-0.238 2.4426699,-0.45 3.6936299,-0.663 1.7357,-0.296 3.485,-0.594 5.1457,-0.966 0.7651,-1.773 2.7266,-6.804 2.7266,-6.804 l 11.9295,-1.437 c 0,0 2.1306,5.372 2.8535,7.239 4.6706,-0.375 6.1969,-0.456 10.795,-0.643 z m -23.5827,-11.1238 c 0,0 3.0775,-7.8789 4.8952,-12.3044 h 0.0043 c 1.2217,3.9352 3.4072,11.2598 3.4072,11.2598 z" fill="#434569" fill-opacity="1" stroke="#434569" stroke-opacity="1"/><path d="m 79.39492,111.86347 -8.2348,-0.277 c 0,0 -11.1094,-13.9033 -16.7909,-20.6737 0,6.6809 0.0084,20.4777 0.0084,20.4777 0,0 -4.8614,-0.209 -7.3471,-0.175 0,-13.0761 0,-24.5832 -0.0127,-36.0519 2.3842,0.0512 4.667,0.1748 7.0512,0.2089 6.1339,6.8471 11.9972,13.6303 18.1352,21.0189 -0.0126,-7.3119 -0.0211,-14.078 -0.0338,-20.8484 2.4392,0.0256 7.2203,0.3283 7.2203,0.3283 l 0.0084,35.9922 z" fill="#434569" stroke="#434569" stroke-width="0.787885" display="inline" fill-opacity="1" stroke-opacity="1"/><path fill-rule="evenodd" clip-rule="evenodd" d="m 114.742,107.037 c 2.921,-2.947 4.443,-6.724 4.536,-11.3583 0.123,-11.7587 -7.077,-19.5096 -19.0949,-20.7929 -4.0624,-0.3667 -12.5213,-0.5713 -12.5213,-0.5713 -0.0085,11.7458 -0.0085,23.8881 -0.0085,36.9085 0,0 8.9324,0.222 12.7792,0.508 5.9145,0.4 10.8305,-1.348 14.3095,-4.694 z m -5.76,-11.3864 c -0.217,3.3259 -0.375,5.7384 -2.885,7.8214 v 0.004 c -2.336,1.938 -5.9702,1.49 -7.6997,1.277 -0.3296,-0.041 -0.59,-0.073 -0.7591,-0.079 L 97.6255,81.2425 c 0.484,0.0456 0.9529,0.0861 1.4246,0.1269 0.2782,0.024 0.5574,0.0481 0.8413,0.0734 5.9436,0.6225 9.3976,7.3332 9.1136,13.8478 -0.008,0.1212 -0.015,0.2412 -0.023,0.36 z" fill="#434569" fill-opacity="1" stroke="#434569" stroke-opacity="1"/><path fill-rule="evenodd" clip-rule="evenodd" d="M146.509 101.336C145.033 99.4792 143.954 98.121 143.783 97.9555C143.473 97.6577 143.211 97.5 143.068 97.4135C143.008 97.3773 142.968 97.3536 142.955 97.3373C142.955 97.3373 143.745 97.0857 144.595 96.6509C146.129 95.8749 149.866 93.7815 150.221 87.8255C150.627 80.9272 144.942 76.6254 138.043 76.0754C132.822 75.7258 122.731 75.4785 122.731 75.4785V112.916C124.423 113 126.079 113.026 127.735 113.053C129.36 113.078 130.984 113.104 132.644 113.185C132.644 107.578 132.653 102.189 132.665 96.54C136.889 103.234 140.93 109.573 145.144 116.011C146.424 115.313 147.656 114.629 148.879 113.951C150.672 112.958 152.444 111.975 154.314 110.972C152.032 108.285 148.795 104.212 146.509 101.336ZM140.507 87.5688C140.507 87.5691 140.507 87.5694 140.507 87.5697V87.5655C140.507 87.5666 140.507 87.5677 140.507 87.5688ZM134.145 82.2958C138.004 82.5346 140.287 84.5337 140.507 87.5688C140.477 88.9829 139.991 90.2309 139.074 91.2235C138.026 92.3491 136.322 92.9801 134.826 93.0739C133.771 93.1339 133.298 93.1284 132.953 93.1244C132.808 93.1227 132.685 93.1213 132.551 93.125C132.551 91.2901 132.56 89.4935 132.568 87.6943C132.577 85.8898 132.585 84.0828 132.585 82.2319C132.585 82.2319 133.545 82.2831 134.145 82.2958Z" fill="#434569" fill-opacity="1" stroke="#434569" stroke-opacity="1"/><path fill-rule="evenodd" clip-rule="evenodd" d="M155.041 95.8453C155.041 84.7177 163.373 75.709 173.653 75.709C183.943 75.709 192.287 84.739 192.287 95.8453C192.287 106.952 183.934 115.96 173.653 115.96C163.373 115.96 155.041 106.973 155.041 95.8453ZM165.875 95.8454C165.875 103.336 169.363 109.42 173.654 109.42C177.953 109.42 181.436 103.349 181.436 95.8454C181.436 88.3417 177.948 82.2577 173.654 82.2577C169.359 82.2577 165.875 88.3545 165.875 95.8454Z" fill="#434569" fill-opacity="1" stroke="#434569" stroke-opacity="1"/><mask id="a" style="mask-type:luminance" maskUnits="userSpaceOnUse" x="8" y="71" width="37" height="41"><path fill-rule="evenodd" clip-rule="evenodd" d="M44.156 108.34C39.7007 108.531 38.2224 108.613 33.6975 108.994C32.9973 107.096 30.9335 101.636 30.9335 101.636L19.3776 103.096C19.3776 103.096 17.4775 108.21 16.7363 110.013C13.9682 110.663 10.9461 111.092 8.17383 111.668C13.8085 98.2948 24.0089 72.6876 24.0089 72.6876L30.696 71.9639C30.696 71.9639 39.6843 95.582 44.156 108.344V108.34ZM26.0523 84.5269C24.2915 89.0252 21.3104 97.0337 21.3104 97.0337L29.3569 95.9719C29.3569 95.9719 27.2398 88.5268 26.0564 84.5269H26.0523Z" fill="white"/></mask><g mask="url(#a)" transform="translate(-2)" fill="#eed4f1" fill-opacity="1"><path d="M 45.6178,109.124 7.14185,112.431 23.2267,71.8985 31.5927,71.2744 Z" fill="#eed4f1" fill-opacity="1"/></g><mask id="b" style="mask-type:luminance" maskUnits="userSpaceOnUse" x="194" y="71" width="29" height="42"><path fill-rule="evenodd" clip-rule="evenodd" d="M208.378 85.4623C211.185 86.9661 212.651 87.8077 215.515 89.5166C219.788 92.1183 222.094 94.5492 222.203 99.3041C222.303 104.055 219.405 111.245 209.653 112.659C199.9 114.069 194.909 109.066 194.909 109.066C196.071 106.34 197.172 103.726 198.325 100.962C198.782 101.372 202.107 105.7 207.59 105.653C210.793 105.328 212.538 103.948 212.538 101.697C212.473 100.009 210.284 98.894 210.284 98.894C210.266 98.894 204.596 95.5745 201.698 93.9426C199.121 92.3448 196.584 90.8282 196.393 86.4492C196.567 81.0449 199.866 74.5939 207.42 72.0904C212.812 70.6678 216.668 71.2915 219.714 73.8463C219.945 74.0556 220.41 74.4615 220.41 74.4615L217.795 83.181C217.795 83.181 217.551 82.3735 216.102 81.015C215.01 80.011 213.038 78.3492 210.179 78.7806C207.555 79.2335 206.385 80.8398 206.328 82.4718C206.306 84.1764 206.802 84.4669 208.378 85.458" fill="white"/></mask><g mask="url(#b)" fill="#eed4f1" fill-opacity="1"><rect x="192.981" y="70.6504" width="34.9317" height="47.7842" fill="#eed4f1" fill-opacity="1"/></g><mask id="c" style="mask-type:luminance" maskUnits="userSpaceOnUse" x="46" y="73" width="33" height="36"><path fill-rule="evenodd" clip-rule="evenodd" d="M78.2728 108.567L70.0688 108.3C70.0688 108.3 59.0011 94.9036 53.3408 88.3801C53.3408 94.8173 53.3493 108.111 53.3493 108.111C53.3493 108.111 48.5061 107.91 46.0297 107.942C46.0297 95.3432 46.0297 84.2556 46.0171 73.2051C48.3924 73.2544 50.6666 73.3735 53.0418 73.4064C59.1527 80.0038 64.994 86.5397 71.109 93.6589C71.0964 86.6136 71.088 80.0942 71.0753 73.5707C73.5054 73.5953 78.2685 73.887 78.2685 73.887L78.277 108.567H78.2728Z" fill="white"/></mask><g mask="url(#c)" fill="#eed4f1" fill-opacity="1"><path d="M45.1284 72.4287L78.7865 73.1599L79.2371 109.36L45.3516 108.481L45.1284 72.4287Z" fill="#eed4f1" fill-opacity="1"/></g><mask id="d" style="mask-type:luminance" maskUnits="userSpaceOnUse" x="85" y="73" width="33" height="37"><path fill-rule="evenodd" clip-rule="evenodd" d="M117.36 93.7195C117.267 98.1696 115.744 101.797 112.822 104.626C109.341 107.839 104.423 109.518 98.5063 109.133C94.6578 108.859 85.7217 108.646 85.7217 108.646C85.7217 96.1431 85.7217 84.4837 85.7301 73.2051C85.7301 73.2051 94.1926 73.4016 98.2568 73.7537C110.28 74.9859 117.482 82.4286 117.36 93.7195ZM104.173 101.203C106.774 99.1317 106.85 96.7204 107.083 93.347C107.366 87.0916 103.911 80.6478 97.965 80.0501C97.1995 79.9846 96.4679 79.9273 95.6982 79.8577L95.7109 102.358C96.7682 102.39 101.391 103.422 104.173 101.207V101.203Z" fill="white"/></mask><g mask="url(#d)" fill="#eed4f1" fill-opacity="1"><rect x="84.8379" y="72.7549" width="33.3719" height="37.4099" fill="#eed4f1" fill-opacity="1"/></g><mask id="e" style="mask-type:luminance" maskUnits="userSpaceOnUse" x="122" y="72" width="32" height="42"><path fill-rule="evenodd" clip-rule="evenodd" d="M143.414 95.2897C143.851 95.7161 150.203 103.972 153.964 108.439C150.813 110.144 147.937 111.789 144.778 113.529C140.556 107.026 136.507 100.622 132.276 93.8598C132.264 99.5664 132.255 105.01 132.255 110.674C128.897 110.51 125.683 110.57 122.324 110.402V72.584C122.324 72.584 132.433 72.8338 137.663 73.1869C144.575 73.7425 150.271 78.0881 149.864 85.0566C149.509 91.0733 145.765 93.188 144.228 93.9718C143.376 94.4111 142.584 94.6652 142.584 94.6652C142.631 94.7212 142.974 94.8633 143.414 95.2897ZM140.132 84.7982C139.912 81.7318 137.625 79.7118 133.759 79.4707C133.157 79.4577 132.196 79.4061 132.196 79.4061C132.196 83.1401 132.162 86.6976 132.162 90.4101C132.615 90.3971 132.941 90.4445 134.44 90.3584C135.94 90.2636 137.646 89.6262 138.697 88.4892C139.616 87.4857 140.103 86.2238 140.132 84.7939V84.7982Z" fill="white"/></mask><g mask="url(#e)" fill="#eed4f1" fill-opacity="1"><rect x="120.757" y="71.335" width="33.812" height="43.0254" fill="#eed4f1" fill-opacity="1"/></g><mask id="f" style="mask-type:luminance" maskUnits="userSpaceOnUse" x="153" y="73" width="39" height="41"><path fill-rule="evenodd" clip-rule="evenodd" d="M172.565 73.2051C162.29 73.2051 153.964 82.2302 153.964 93.3782C153.964 104.526 162.29 113.53 172.565 113.53C182.839 113.53 191.187 104.505 191.187 93.3782C191.187 82.2516 182.847 73.2051 172.565 73.2051ZM172.564 106.978C168.277 106.978 164.791 100.883 164.791 93.3782C164.791 85.8736 168.272 79.7658 172.564 79.7658C176.857 79.7658 180.342 85.8608 180.342 93.3782C180.342 100.896 176.861 106.978 172.564 106.978Z" fill="white"/></mask><g mask="url(#f)" fill="#eed4f1" fill-opacity="1"><rect x="152.675" y="72.4189" width="39.99" height="42.2127" fill="#eed4f1" fill-opacity="1"/></g><mask id="g" style="mask-type:luminance" maskUnits="userSpaceOnUse" x="75" y="0" width="84" height="72"><path fill-rule="evenodd" clip-rule="evenodd" d="M152.976 44.4059C152.976 59.2857 136.501 71.3439 116.177 71.3439C95.853 71.3439 79.3743 59.2815 79.3743 44.4059C79.3743 39.1914 73.4863 26.7259 76.8148 19.7421C82.9718 6.80557 103.161 0 116.358 0C132.017 0 153.056 6.24551 158.679 21.2144C160.356 25.6779 152.972 40.9904 152.972 44.4059H152.976Z" fill="white"/></mask><g mask="url(#g)" transform="translate(-4)"><mask id="h" maskUnits="userSpaceOnUse" x="69" y="-5" width="89" height="77"><path fill-rule="evenodd" clip-rule="evenodd" d="m 156.649,37.3161 c 0.214,17.748 -15.18,34.0618 -40.829,34.0618 -22.186,0 -51.9241,-17.54 -45.4898,-34.0618 4.6271,-11.8758 3.9925,-43.5531 45.7378,-41.23649 53.071,2.944553 40.186,8.40938 40.581,41.23649 z" fill="#ffffff"/></mask><g mask="url(#h)"><mask id="i" maskUnits="userSpaceOnUse" x="66" y="-1" width="102" height="75"><path fill-rule="evenodd" clip-rule="evenodd" d="m 167.765,36.909 c 0,20.4294 -22.627,36.9894 -50.537,36.9894 -27.9102,0 -50.529,-16.56 -50.529,-36.9894 0,-20.4295 22.623,-36.9851719 50.533,-36.9851719 27.91,0 50.537,16.5599719 50.537,36.9851719 z" fill="#ffffff"/></mask><g mask="url(#i)" display="inline"><mask id="j" maskUnits="userSpaceOnUse" x="77" y="1" width="81" height="86"><path fill-rule="evenodd" clip-rule="evenodd" d="m 98.5132,50.9398 2.5088,1.6632 c 0,0 3.509,5.9018 5.813,7.7432 l 0.495,5.851 -3.181,2.4481 c 0,0 -5.2869,2.3251 -7.6614,2.8427 -3.3412,0.7341 -12.8602,3.9968 -12.8602,3.9968 0,0 -2.9587,2.1172 -5.7325,5.1339 -0.5422,0.6025 0.0798,5.4733 -0.3824,5.5879 0.4286,-0.1061 79.8385,0 79.8385,0 0,0 0.109,-5.7406 0.382,-6.0886 0.95,-1.1752 -2.303,-2.3208 -4.139,-3.3858 -2.535,-1.4765 -7.901,-3.4112 -10.612,-4.0349 -2.32,-0.5304 -7.166,-3.7083 -7.166,-3.7083 L 131,65.5183 c 0,0 -1.37,-5.1381 -1.37,-7.5014 0,-2.3633 -0.273,-2.359 -0.273,-2.359 l 1.513,-2.0833 0.958,0.8316 c 0,0 1.929,-1.1116 2.479,-2.6391 0.551,-1.5274 0.206,-2.499 1.034,-3.1906 0.828,-0.6958 3.262,-1.4595 3.51,-3.3306 0,0 2.988,-1.5275 3.021,-4.4423 l -1.197,-0.2461 c 0,0 1.164,-0.8316 1.58,-3.3349 l 1.82,2.5033 c 0,0 1.752,-2.7452 0.827,-7.2553 l 2.194,-0.4158 c 0,0 2.198,0.8061 3.022,0.8316 2.551,0.0721 5.501,-1.3875 5.501,-1.3875 0,0 -0.996,-2.0153 -4.257,-4.3065 0,0 1.093,-1.9772 -0.143,-4.9599 l 3.442,-5.834 c 0,0 -4.472,-1.3534 -7.359,1.7014 l -3.164,-0.5558 c 0,0 1.546,-2.1681 0.861,-5.223 0,0 -3.459,0.5559 -4.783,1.5402 0,0 -0.168,-2.5669 -0.58,-4.23439 -0.416,-1.6632 -0.525,-2.15113 -0.525,-2.15113 l -2.656,0.84009 -1.975,1.2771 -1.963,-0.30973 c 0,0 -0.693,-1.6632 -3.307,-1.80746 l -2.472,-4.30652 c 0,0 -1.513,1.66745 -2.063,2.63907 l -1.379,-0.27579 -0.685,-1.80746 -1.378,1.11163 -1.74,-0.70856 -0.567,-2.94456 -3.737,2.63907 c 0,0 -1.895,0.21639 -4.236,1.18376 0,0 -4.379,0.12305 -5.337,0.53885 -0.967,0.4158 -2.471,1.90505 -2.471,1.90505 0,0 -3.2323,-1.05223 -6.5272,0.33519 0,0 -0.374,-0.51339 0.7271,3.09729 0,0 -1.8408,1.2771 -2.6687,2.3887 l -0.6724,-0.7976 0.622,-0.6916 c 0,0 0.2521,-0.4158 -1.6769,-0.5558 -1.9206,-0.1358 -1.7988,-0.0721 -1.7988,-0.0721 l 0.0421,0.7722 1.1977,0.7976 0.1429,1.3535 0.311,1.3874 c 0,0 -2.0425,-1.5656 -2.8326,-1.6335 -0.7901,-0.0679 -2.1475,-1.0225 -5.0348,0.017 -2.8872,1.0437 -2.8326,1.3407 -2.8326,1.3407 0,0 2.8536,1.8372 2.8536,2.219 0,0 -1.7525,1.4935 -2.0257,2.6391 l 2.3367,1.0056 -0.7901,0.2079 c 0,0 -2.7443,-0.1273 -4.2909,0.3988 -1.5466,0.5176 -1.0759,1.2389 -1.0759,1.2389 l 1.7357,3.0379 c 0,0 -2.8032,2.9997 -0.9246,6.288 1.0297,1.8032 5.5854,0.5218 5.5854,0.5218 0,0 -0.6304,2.5585 -0.3573,3.772 0.269,1.2177 -0.1176,1.9687 0.3026,1.8668 0.4077,-0.106 2.4544,-2.7663 2.4544,-2.7663 0,0 1.5928,2.0365 3.6269,1.4807 0,0 0.206,0.7298 0.9961,0.6237 0,0 -0.622,1.4553 1.4751,3.2628 l -0.5506,1.4935 c 0,0 1.45,2.1851 2.9251,3.0549 0,0 0.2774,3.3306 1.7525,4.4762 l 0.3362,0.9207 z" fill="#ffffff"/></mask><g mask="url(#j)" display="inline"><mask id="k" maskUnits="userSpaceOnUse" x="77" y="1" width="82" height="86"><path fill-rule="evenodd" clip-rule="evenodd" d="m 98.5847,51.1222 2.5173,1.6717 c 0,0 3.522,5.923 5.833,7.7687 l 0.358,5.7618 -3.144,2.3209 c 0,0 -5.3919,2.2784 -7.7791,2.8003 -3.3495,0.734 -12.7215,4.3065 -12.7215,4.3065 0,0 -2.9671,2.1257 -5.7492,5.1593 -0.5506,0.6025 0.0756,5.4903 -0.3909,5.6049 0.4329,-0.1061 80.1367,0 80.1367,0 0,0 0.105,-5.7576 0.387,-6.1055 0.949,-1.1838 -2.32,-2.3294 -4.161,-3.4028 -2.543,-1.4808 -7.926,-3.4198 -10.654,-4.0477 -2.328,-0.5346 -7.186,-3.721 -7.186,-3.721 l -4.833,-3.4834 c 0,0 -1.379,-5.1551 -1.379,-7.5226 0,-2.3676 -0.273,-2.3676 -0.273,-2.3676 l 1.517,-2.0875 0.862,0.4455 c 0,0 1.815,-1.1964 2.366,-2.7324 0.55,-1.5316 0.399,-2.6263 1.227,-3.3221 0.828,-0.6959 3.312,-0.8698 3.551,-2.7494 0,0 3.005,-1.5317 3.039,-4.4593 l -1.206,-0.2418 c 0,0 1.172,-0.8359 1.588,-3.3434 l 1.828,2.5075 c 0,0 1.761,-2.7494 0.828,-7.2807 l 2.211,-0.4159 c 0,0 2.198,0.8147 3.038,0.8359 2.556,0.0721 5.523,-1.3917 5.523,-1.3917 0,0 -1.001,-2.0196 -4.279,-4.3192 0,0 1.106,-1.9857 -0.138,-4.9812 l 3.45,-5.8509 c 0,0 -4.43,-1.799 -7.329,1.2644 l -3.232,-0.1146 c 0,0 1.273,-2.2232 0.58,-5.2908 0,0 -3.379,0.5261 -4.485,1.2219 0,0 -0.201,-2.1978 -0.617,-3.87372 -0.412,-1.67169 -0.517,-2.15962 -0.517,-2.15962 l -2.761,0.60673 -2.173,1.45531 -1.694,-0.25033 c 0,0 -0.689,-1.6717 -3.312,-1.81171 l -2.483,-4.31925 c -0.324,-0.22063 -2.081,1.28559 -2.072,2.64756 l -1.379,-0.28003 -1.177,-2.07901 -0.895,1.37893 -1.74,-0.75099 -0.731,-2.92758 -3.433,2.60512 c 0,0 -3.073,-0.05515 -4.502,1.13285 0,0 -4.601,0.46248 -5.568,0.87828 -0.967,0.4158 -2.19,1.68866 -2.19,1.68866 0,0 -3.572,-1.19649 -6.8837,0.19942 0,0 0.0547,-0.39035 1.1558,3.23308 0,0 -2.0005,1.2389 -2.8284,2.3548 l -0.6136,-0.7468 0.3278,-1.2304 c 0,0 0.1555,0.2291 -1.7778,0.0891 -1.929,-0.14 -1.4583,-0.2334 -1.4583,-0.2334 l 0.0883,0.8232 1.2103,0.8019 0.1387,1.3577 0.311,1.3959 c 0,0 -2.3577,-1.7184 -3.152,-1.7863 -0.7943,-0.0678 -2.2232,-0.8485 -5.1231,0.1995 -2.8998,1.0437 -2.4585,1.311 -2.4585,1.311 0,0 2.4249,1.485 2.4249,1.8669 0,0 -1.5928,1.4722 -1.8702,2.6221 l 2.6225,1.3959 h -2.2821 c 0,0 -1.2566,0.0721 -2.8115,0.5982 -1.555,0.5219 -1.0843,1.2517 -1.0843,1.2517 l 2.0719,2.9615 c 0,0 -2.9209,3.2203 -1.0339,6.5171 1.0339,1.8117 5.5938,0.594 5.5938,0.594 0,0 -0.5842,2.4735 -0.311,3.6955 0.2774,1.2177 -0.1051,1.8796 0.311,1.7778 0.4119,-0.1061 2.4838,-2.7537 2.4838,-2.7537 0,0 1.3112,2.0196 3.3495,1.4638 0,0 0.2059,0.7298 1.0003,0.628 0,0 -0.622,1.4638 1.4835,3.2755 l -0.5548,1.4977 c 0,0 1.45,2.1936 2.9335,3.0676 0,0 0.2774,3.3434 1.7609,4.4932 l 0.3363,0.9207 z" fill="#ffffff"/></mask><g mask="url(#k)"><rect x="70.554398" y="-3.9203899" width="91.027214" height="91.344276" fill="#eed4f1" display="inline" fill-opacity="1" stroke-width="1.07325"/></g></g><path d="m 130.626,12.6356 c 0.16,0.4497 0.063,0.9716 -0.303,1.2941 0.168,0.4794 0.147,1.1286 -0.168,1.5274 -0.231,0.1273 -0.441,0.3479 -0.735,0.2164 -0.118,-0.1146 -0.194,-0.3182 -0.063,-0.4498 0.176,-0.1315 0.462,-0.1188 0.525,-0.3903 0.399,-0.594 -1.021,-1.3789 0.177,-1.4935 0.437,-0.3606 -0.509,-0.9886 0.264,-1.1456 l 0.303,0.4498 z" fill="#434569" fill-opacity="1"/><path d="m 132.181,17.4853 c 0.143,0.4497 -0.08,0.8401 -0.202,1.2474 -0.357,0.2333 -0.836,0.4243 -1.273,0.2503 -0.168,-0.0976 -0.185,-0.2758 -0.177,-0.4497 0.21,-0.2631 0.66,0.0848 0.933,-0.174 0.206,-0.2079 0.206,-0.5261 0.143,-0.7722 -0.08,-0.1315 -0.151,-0.2758 -0.071,-0.4243 0.248,-0.2758 0.55,0.1061 0.647,0.3225 z" fill="#434569" fill-opacity="1"/><path d="m 137.813,17.5143 c -0.047,0.1485 -0.026,0.437 -0.24,0.3819 0.063,-0.5346 -0.66,-0.0127 -0.454,-0.577 0.223,-0.4371 0.567,0.0466 0.694,0.1994 z" fill="#434569" fill-opacity="1"/><path d="m 137.85,18.359 c -0.08,0.3734 -0.487,0.6534 -0.836,0.7256 -0.345,-0.0722 -0.693,-0.1019 -0.925,-0.4201 0.017,-0.1061 -0.046,-0.2588 0.097,-0.28 0.437,0.1909 0.904,0.28 1.315,-0.0679 -0.012,-0.1146 -0.046,-0.2206 0.072,-0.28 0.193,-0.0722 0.265,0.1951 0.273,0.3224 z" fill="#434569" fill-opacity="1"/><path d="m 123.107,24.244 c 0.097,0.9122 0.122,1.9729 -0.037,2.8639 0.117,0.2249 0.374,0.2461 0.55,0.0976 0.651,-0.2631 0.883,-1.0607 1.521,-1.3195 0.177,0.1018 0.089,0.3436 0.08,0.4964 -0.533,0.6958 -1.181,1.171 -1.874,1.625 -0.24,0.0255 -0.58,0.2588 -0.765,0.0679 L 122.565,27.18 c 0.194,-0.5685 0.336,-1.2813 0.122,-1.8923 -0.345,0.7425 -0.71,1.8923 -1.689,2.062 -0.345,-0.3054 -0.77,0.314 -1.102,-0.1442 0.143,-0.4795 0.375,-0.9462 0.513,-1.4256 0.185,-0.0467 0.194,0.1867 0.24,0.3055 l -0.046,0.594 c 0.996,-0.1443 0.933,-1.3365 1.601,-1.8711 0.134,-0.331 0.231,-0.8019 0.647,-0.8698 0.134,0.0466 0.248,0.1485 0.248,0.3055 z" fill="#434569" fill-opacity="1"/><path d="m 126.902,24.5872 c 0.047,1.659 -1.29,2.881 -2.517,3.8823 -0.328,0.1018 -0.685,0.3606 -1.038,0.1739 -0.206,-0.0891 -0.063,-0.263 0,-0.3521 0.719,-0.3734 1.412,-0.8274 2.042,-1.4681 0.089,-0.6237 0.74,-1.0013 0.925,-1.5698 0.151,-0.2716 0.286,-0.6195 0.513,-0.7934 l 0.071,0.1272 z" fill="#434569" fill-opacity="1"/><path d="m 129.067,28.1768 c -0.837,1.0014 -1.912,1.659 -3.207,1.362 -0.252,-0.1018 -0.677,-0.0594 -0.685,-0.4243 0.454,-0.5006 1.236,-0.2588 1.723,-0.6958 0.177,0.017 0.353,-0.0255 0.513,0.0467 -0.097,0.1612 -0.311,0.3479 -0.471,0.5218 0.605,0.0976 0.988,-0.5218 1.475,-0.7722 0.08,-0.1909 0.269,-0.3776 0.454,-0.4455 l 0.194,0.0255 v 0.3776 z" fill="#434569" fill-opacity="1"/><path d="m 99.9338,29.7172 c 0.3822,0.314 0.5972,0.8571 0.4162,1.3704 -0.063,0.1273 -0.193,0.0976 -0.32,0.0976 -0.424,-0.3903 -0.1761,-1.1158 -0.1929,-1.642 0.1219,-0.0424 0.0168,0.1485 0.0967,0.174 z" fill="#434569" fill-opacity="1"/><path d="m 132.223,35.7165 c 0.214,0.3904 0.446,0.8232 0.866,1.1159 0.756,0.3692 1.387,-0.0891 2.168,-0.0721 0.063,0.0594 0.034,0.157 0.034,0.2461 -0.757,0.3479 -1.778,0.7976 -2.593,0.2758 -0.731,-0.594 -1.173,-1.4553 -1.034,-2.3633 0.063,-0.1188 0.193,-0.1485 0.286,-0.0721 0.151,0.2588 0.134,0.594 0.273,0.874 z" fill="#434569" fill-opacity="1"/><path d="m 127.486,15.1769 c 0,0 0.017,0.0169 0.026,0.0297 -0.009,-0.0255 -0.009,-0.051 -0.017,-0.0807 0,0.017 -0.013,0.0297 -0.013,0.051 z" fill="#434569" fill-opacity="1"/><path fill-rule="evenodd" clip-rule="evenodd" d="m 96.9518,71.7571 -0.0062,0.0028 0.0077,-0.0026 c 0.0154,0.0017 0.0218,-1e-4 0.0175,-0.0059 l -0.0175,0.0059 z m 0,0 c 0.9912,-0.444 1.9174,-0.7565 2.881,-1.0816 h 10e-5 l 3e-4,-1e-4 3e-4,-1e-4 0.0028,-9e-4 7e-4,-2e-4 0.0023,-8e-4 0.0011,-4e-4 0.0019,-6e-4 c 0.4567,-0.1542 0.9217,-0.3112 1.4067,-0.4866 0.362,-0.1585 0.726,-0.3104 1.09,-0.4621 1.778,-0.7414 3.549,-1.4799 5.025,-2.9873 l 0.303,-0.5219 -0.278,-4.7775 c 0.2,0.1229 0.387,0.3147 0.578,0.5108 0.191,0.1964 0.387,0.3971 0.603,0.5372 2.551,1.9899 6.17,2.3081 9.389,1.7396 4.266,-1.2474 7.75,-4.4763 11.108,-7.8451 l 0.008,0.1102 c 0.22,2.9253 0.441,5.8666 1.412,8.4604 0.07,0.0967 0.137,0.1988 0.204,0.3021 v 3e-4 c 0.226,0.3451 0.46,0.7031 0.838,0.9153 2.526,2.0069 4.577,3.6234 7.296,5.1296 0.249,-0.0861 0.437,-0.1565 0.633,-0.2302 v -1e-4 c 0.143,-0.0534 0.29,-0.1086 0.468,-0.1727 -0.607,-0.312 -0.818,-0.4432 -1.281,-0.7303 l -0.001,-0.001 c -0.091,-0.0563 -0.191,-0.1186 -0.306,-0.1894 -1.604,-0.7918 -3.078,-1.8864 -4.553,-2.9819 -0.453,-0.3369 -0.907,-0.6739 -1.365,-1.0022 -0.999,-0.6271 -1.299,-1.6321 -1.593,-2.6212 -0.073,-0.2422 -0.145,-0.4834 -0.226,-0.7179 -0.08,-0.6448 -0.181,-1.2822 -0.282,-1.9193 v -1e-4 -5e-4 c -0.269,-1.7023 -0.537,-3.4018 -0.412,-5.2294 l 1.068,-1.5402 c 0.051,0.0536 0.102,0.1115 0.154,0.1702 v 2e-4 c 0.214,0.2438 0.439,0.5 0.753,0.5 1.165,-0.4794 2.06,-1.7565 2.686,-2.7918 0.246,-0.4316 0.329,-0.9338 0.413,-1.4367 0.116,-0.6935 0.231,-1.3885 0.772,-1.9024 1.324,-0.6534 2.904,-1.5699 3.509,-3.0804 1.652,-1.2474 2.888,-2.9191 3.014,-4.9387 -0.108,-0.3155 -0.395,-0.3629 -0.671,-0.4083 -0.091,-0.015 -0.181,-0.0298 -0.262,-0.0541 0.444,-0.4788 0.682,-1.1062 0.91,-1.7064 0.063,-0.1657 0.125,-0.3293 0.191,-0.4872 0.208,0.1162 0.311,0.3046 0.412,0.4899 0.054,0.0988 0.107,0.1967 0.176,0.2823 0.039,0.1141 0.138,0.2069 0.233,0.2972 0.1,0.0944 0.197,0.1862 0.221,0.2968 0.096,0.063 0.175,0.1832 0.254,0.3047 0.141,0.2143 0.284,0.4326 0.528,0.3487 0.903,-1.7862 1.261,-3.8186 1.185,-6.0291 0.035,-0.2034 -0.019,-0.3937 -0.071,-0.5766 -0.067,-0.233 -0.13,-0.454 -0.001,-0.6751 l 1.53,-0.2758 1.795,0.7001 c 1.016,0.2053 2.113,0.0543 3.117,-0.0838 l 0.224,-0.0307 c 0.744,-0.1757 1.46,-0.419 2.175,-0.6619 0.718,-0.244 1.435,-0.4876 2.179,-0.6619 0.108,-0.2138 -0.013,-0.2738 -0.152,-0.3424 -0.088,-0.0431 -0.182,-0.0895 -0.231,-0.1795 -0.384,-0.5413 -0.868,-1.0215 -1.35,-1.4998 v -10e-5 0 -10e-5 -1e-4 0 -10e-5 0 -10e-5 0 -10e-5 0 -10e-5 0 -10e-5 0 -10e-5 0 -10e-5 0 -10e-5 0 c -0.398,-0.395 -0.795,-0.7887 -1.133,-1.2145 -0.391,-0.1228 -0.682,-0.4241 -0.976,-0.7273 -0.234,-0.2417 -0.469,-0.4846 -0.756,-0.6389 0.029,-0.1094 0.06,-0.2183 0.09,-0.3273 0.118,-0.4241 0.236,-0.8488 0.293,-1.2978 l 0.105,-0.1485 c -0.006,-0.0618 -0.012,-0.1242 -0.019,-0.187 v -2e-4 -10e-5 -10e-5 0 -10e-5 -1e-4 c -0.034,-0.3378 -0.068,-0.6857 -0.061,-1.0004 -0.068,-0.2641 -0.146,-0.5254 -0.223,-0.787 -0.132,-0.4485 -0.265,-0.8978 -0.353,-1.3641 0.515,-0.7845 0.976,-1.5918 1.436,-2.3995 v 0 l 0.001,-10e-5 v 0 -10e-5 -10e-5 0 -10e-5 -10e-5 0 -10e-5 -10e-5 0 -10e-5 0 -1e-4 c 0.588,-1.0311 1.177,-2.0626 1.879,-3.0475 l 0.029,-0.28 c -0.189,-0.2865 -0.48,-0.3184 -0.77,-0.3501 -0.135,-0.0147 -0.27,-0.0295 -0.394,-0.0699 -2.286,-0.0425 -4.703,-0.0425 -6.211,1.7396 -0.9,-0.3013 -1.858,-0.4286 -2.837,-0.5177 0.424,-0.9886 0.702,-2.1384 0.719,-3.3391 -0.012,-0.0643 -0.025,-0.1312 -0.038,-0.2001 -0.091,-0.4721 -0.199,-1.0346 0.084,-1.4419 -0.231,-0.0873 -0.471,0.0347 -0.699,0.1503 -0.071,0.0361 -0.141,0.0717 -0.209,0.1 -1.067,0.1315 -2.08,0.4073 -3.076,0.6916 -0.157,0 -0.284,0.0959 -0.41,0.191 -0.18,0.1365 -0.358,0.2712 -0.62,0.1187 0.012,-1.2705 -0.262,-2.4328 -0.536,-3.59209 v -2.9e-4 c -0.106,-0.4472 -0.211,-0.89395 -0.3,-1.34629 -0.071,-0.17763 -0.065,-0.38947 -0.06,-0.60159 0.008,-0.29453 0.016,-0.58959 -0.18,-0.79432 -0.248,-0.11455 -0.479,0.02546 -0.647,0.20366 -1.572,0.49217 -3.072,1.32378 -4.489,2.2657 -0.344,-0.24425 -0.744,-0.35033 -1.14,-0.4553 C 132.978,8.80795 132.79,8.75818 132.61,8.69382 131.942,7.53865 130.785,7.18475 129.692,6.85046 129.561,6.81027 129.431,6.77035 129.302,6.72937 128.523,5.96274 128.033,5.019 127.54,4.06968 v -3e-5 c -0.254,-0.49027 -0.51,-0.98202 -0.806,-1.45163 -0.13,-0.07866 -0.239,0.04017 -0.331,0.13938 -0.027,0.02922 -0.053,0.05674 -0.076,0.07701 -0.354,0.41243 -0.652,0.85017 -0.951,1.28834 v 1.2e-4 c -0.248,0.36415 -0.496,0.7286 -0.777,1.07906 -0.163,-0.05047 -0.338,-0.06321 -0.512,-0.07585 -0.339,-0.02455 -0.672,-0.04876 -0.9,-0.34844 -0.113,-0.0891 -0.071,-0.28851 -0.033,-0.42004 -0.132,-0.21857 -0.186,-0.4588 -0.241,-0.70113 v -5e-5 c -0.045,-0.19986 -0.09,-0.40114 -0.18,-0.5929 -0.342,0.17425 -0.635,0.45181 -0.926,0.72889 -0.17,0.16147 -0.34,0.32277 -0.519,0.46336 -0.421,-0.13153 -0.883,-0.28003 -1.236,-0.42005 -0.039,-0.00628 -0.077,0.01595 -0.115,0.0376 -0.063,0.03681 -0.124,0.07193 -0.179,-0.0376 -0.282,-0.95888 -0.568,-1.97717 -0.4,-3.097294 -0.088,-0.263058 -0.39,-0.097586 -0.512,0 -0.474,0.756814 -1.14,1.192554 -1.811,1.631544 -0.515,0.33626 -1.032,0.67443 -1.467,1.16027 -1.761,-0.04243 -3.253,0.50914 -4.712,1.17527 -0.54,0.05779 -1.093,0.08535 -1.646,0.1129 -1.639,0.08169 -3.277,0.16334 -4.59,1.03268 -0.217,0.13011 -0.409,0.33886 -0.6,0.54732 -0.302,0.32858 -0.603,0.65646 -1.002,0.67463 L 100.993,6.66997 C 100.792,6.66198 100.582,6.63803 100.37,6.6138 99.7946,6.54796 99.2012,6.48009 98.7065,6.72512 98.3626,6.8619 97.9749,6.91244 97.587,6.96299 97.0364,7.03476 96.4854,7.10657 96.0588,7.4252 c 0.1849,1.17527 0.5001,2.29115 1.0675,3.3094 -0.0207,0.0074 -0.0414,0.019 -0.0628,0.0311 -0.0528,0.0297 -0.1105,0.0622 -0.1851,0.0411 -0.7481,0.5091 -1.4668,1.2346 -2.072,1.9559 l -0.1765,0.0637 c -0.1513,-0.1316 -0.2563,-0.2801 -0.3362,-0.4498 0.084,-0.1048 0.1927,-0.1479 0.3005,-0.1907 0.0756,-0.03 0.1506,-0.0598 0.2164,-0.1105 0.002,-0.0727 0.0112,-0.1528 0.0206,-0.2354 v 0 -10e-5 c 0.0302,-0.2647 0.0633,-0.5555 -0.1256,-0.7107 -0.4228,-0.0857 -0.8583,-0.076 -1.2898,-0.0663 -0.5936,0.0133 -1.1797,0.0264 -1.7152,-0.2095 -0.0852,-0.0195 -0.165,-0.0237 -0.2457,-0.028 -0.0944,-0.005 -0.1899,-0.0101 -0.2964,-0.0398 -0.0186,0.0177 -0.0375,0.0352 -0.0562,0.0526 -0.1339,0.1241 -0.2632,0.2439 -0.2632,0.4226 -0.1706,0.5816 0.2357,0.8325 0.6431,1.0841 0.2048,0.1265 0.4099,0.2532 0.5421,0.4221 0.0256,0.2427 0.0661,0.486 0.1065,0.7293 v 0 0 0 10e-5 0 0 0 0 0 10e-5 0 0 0 0 0 1e-4 0 0 0 0 10e-5 0 0 0 0 0 l 1e-4,10e-5 v 0 0 0 0 0 10e-5 0 0 0 0 0 10e-5 0 c 0.0718,0.4325 0.1437,0.8649 0.1329,1.2938 l -0.5842,-0.454 c -1.6516,-1.0861 -3.7446,-1.4086 -5.8375,-1.0861 -1.4163,0.4073 -2.7654,0.9589 -4.0976,1.5401 -0.0462,0.1188 -0.0883,0.314 0.0294,0.4201 0.975,0.3946 1.9122,1.048 2.6099,1.9475 -0.6126,0.5046 -1.0374,1.1253 -1.4618,1.7454 -0.1608,0.235 -0.3216,0.4699 -0.4925,0.6984 0.1282,0.5323 0.5914,0.7099 1.047,0.8846 0.2018,0.0774 0.4021,0.1542 0.5711,0.261 -0.4158,0.0984 -0.8719,0.1181 -1.3174,0.1373 v 0 0 c -0.3425,0.0148 -0.6788,0.0293 -0.9857,0.0791 -0.2046,0.053 -0.4057,0.1125 -0.6062,0.1719 h -1e-4 -1e-4 v 0 0 c -0.4257,0.126 -0.8489,0.2512 -1.2974,0.3118 l -1.0423,0.8401 c -0.0901,0.8821 0.47,1.5067 1.0221,2.1223 0.3746,0.4179 0.7455,0.8315 0.9069,1.3187 l -1.1011,1.8159 c -0.5505,1.0947 -0.5673,2.516 -0.3824,3.7634 0.311,1.2347 1.5466,2.0324 2.7191,2.1639 0.861,0.158 1.7295,0.035 2.5526,-0.0815 h 10e-5 l 2e-4,-1e-4 c 0.2376,-0.0336 0.4713,-0.0667 0.7,-0.0924 -0.4291,1.416 -0.2121,2.9722 -0.0096,4.425 l 0.0348,0.2507 c 0.0552,0.0913 0.0383,0.2305 0.0216,0.3677 -0.029,0.2391 -0.0573,0.4719 0.2978,0.4342 0.3947,-0.4062 0.7408,-0.84 1.0866,-1.2733 0.409,-0.5125 0.8174,-1.0243 1.3048,-1.4888 0.8993,0.8995 1.9542,1.5953 3.2823,1.2941 0.0771,0.0753 0.1483,0.1526 0.2174,0.2278 l 1e-4,10e-5 1e-4,1e-4 c 0.1603,0.1744 0.3102,0.3373 0.501,0.4381 0.0294,1.1795 0.5422,2.2699 1.6264,2.8936 -0.0291,0.2882 -0.1641,0.5275 -0.2984,0.7656 -0.1564,0.2772 -0.3119,0.5527 -0.2983,0.9019 0.3948,0.676 0.9701,1.2802 1.5437,1.8827 l 2e-4,10e-5 1e-4,1e-4 1e-4,2e-4 1e-4,10e-5 10e-5,1e-4 1e-4,10e-5 c 0.1894,0.1989 0.3786,0.3976 0.5611,0.5987 0.128,0.1525 0.2943,0.2671 0.4555,0.3781 0.2197,0.1514 0.4298,0.2961 0.5195,0.5214 0.0283,0.1916 0.0531,0.3849 0.0779,0.5783 0.1263,0.9849 0.2531,1.9743 0.8467,2.765 0.0813,0.2178 0.2713,0.3713 0.4591,0.5232 0.2879,0.2328 0.5708,0.4615 0.4487,0.9109 0.5006,0.625 1.1177,1.0161 1.7382,1.4092 0.5464,0.3461 1.0954,0.6939 1.5694,1.2044 0.702,1.2941 1.563,2.5458 2.454,3.7677 0.391,0.5397 0.834,1.0593 1.278,1.5791 0.578,0.6776 1.157,1.3555 1.618,2.0783 0.311,1.6844 0.408,3.5004 0.408,5.2569 -0.83,1.1864 -2.002,1.758 -3.164,2.3254 l -10e-4,1e-4 c -0.421,0.2057 -0.841,0.4108 -1.244,0.6445 -2.303,0.891 -4.5347,1.6547 -6.905,2.3633 0.5011,0.1949 1.1794,0.4196 1.3048,0.4342 z M 141.096,40.9395 c -0.305,0 -0.614,0 -0.804,-0.2715 h -0.004 c 0.168,-0.4803 0.421,-0.9203 0.674,-1.359 0.321,-0.5574 0.641,-1.1129 0.784,-1.7468 -0.046,-0.874 -0.454,-1.6293 -1.147,-2.1936 -0.412,-0.5048 -0.698,-1.0853 -0.985,-1.6676 -0.243,-0.4945 -0.487,-0.9904 -0.81,-1.4424 -0.089,-0.1736 -0.1,-0.3812 -0.11,-0.5892 -0.013,-0.2799 -0.027,-0.5604 -0.234,-0.76 l 0.042,-2.1681 c -1.261,0.0891 -2.282,-0.3607 -3.278,-0.9123 -0.012,0.147 -0.06,0.2748 -0.108,0.4019 -0.061,0.159 -0.121,0.317 -0.107,0.5104 0.093,0.3394 0.231,0.6279 0.517,0.874 0.222,0.1942 0.516,0.237 0.804,0.2788 0.335,0.0486 0.662,0.096 0.856,0.3788 -0.026,0.0538 -0.066,0.0744 -0.105,0.095 -0.036,0.0185 -0.071,0.0369 -0.097,0.079 l -0.021,0.0018 c -0.854,0.0719 -1.903,0.1603 -2.408,-0.7316 -0.216,0.4536 -0.515,0.8739 -0.815,1.2951 -0.564,0.7923 -1.131,1.5876 -1.147,2.6126 0.003,0.0466 0.012,0.0939 0.021,0.141 0.031,0.1717 0.062,0.3398 -0.156,0.453 -0.275,0.0711 -0.411,-0.1358 -0.535,-0.3258 -0.032,-0.0483 -0.063,-0.0954 -0.095,-0.1367 -0.478,-0.3861 -0.801,-0.8991 -1.115,-1.3981 v -10e-5 c -0.252,-0.4001 -0.498,-0.7912 -0.814,-1.1008 l -0.03,0.5516 c -0.135,0.4392 -0.012,0.8768 0.111,1.3148 0.075,0.2686 0.151,0.5373 0.167,0.8066 0.037,0.1403 0.139,0.2487 0.24,0.3553 0.14,0.148 0.277,0.2925 0.23,0.5145 -0.148,0.503 -0.04,1.0015 0.064,1.4844 0.04,0.1851 0.08,0.368 0.105,0.5479 0.234,0.3194 0.361,0.6848 0.487,1.0496 0.134,0.3864 0.268,0.772 0.53,1.1016 0.529,0.2588 1.134,0.5218 1.748,0.3479 0.223,-0.0467 0.437,-0.2758 0.5,-0.4795 0.799,-0.5812 1.618,-1.1752 2.728,-1.048 0.263,0.2089 0.618,0.1945 0.971,0.1801 0.221,-0.0089 0.441,-0.0179 0.638,0.0278 0.114,0.0297 0.16,0.1443 0.177,0.2504 -0.089,0.157 -0.269,0.2885 -0.408,0.3776 -0.555,-0.081 -0.905,0.3241 -1.216,0.6833 v 1e-4 3e-4 c -0.08,0.0921 -0.157,0.1812 -0.234,0.2582 -0.357,0.0989 -0.374,0.4014 -0.391,0.6951 -0.006,0.0971 -0.011,0.1933 -0.029,0.2808 -0.102,0.2831 0.082,0.3349 0.271,0.388 v 0 c 0.092,0.0256 0.184,0.0516 0.246,0.1041 0.155,0.0705 0.365,0.0687 0.571,0.067 0.353,-0.0029 0.696,-0.0057 0.736,0.3531 -0.083,0.0532 -0.165,0.1099 -0.249,0.1671 -0.482,0.3305 -0.988,0.6772 -1.6,0.4566 0,1.1456 -0.24,2.1936 -0.559,3.2076 -0.242,0.5282 0.067,0.4864 0.436,0.4367 0.265,-0.0358 0.56,-0.0756 0.703,0.0894 0.033,0.1018 0.033,0.2758 -0.11,0.3479 l -1.588,0.6577 c -0.188,0.2049 -0.314,0.4413 -0.438,0.6766 -0.193,0.364 -0.385,0.7257 -0.806,0.9654 -0.096,0.3875 -0.393,0.6353 -0.701,0.8926 -0.151,0.1257 -0.304,0.2538 -0.438,0.4015 l -1.307,3.3858 c -0.097,0.3118 0.086,0.4935 0.288,0.693 0.043,0.0421 0.086,0.085 0.128,0.1301 1.483,-0.8401 2.374,-2.4948 2.551,-4.0095 l -0.311,0.3479 c -0.088,0.017 -0.198,0 -0.215,-0.1018 0.16,-0.5092 0.375,-0.9886 0.631,-1.4681 0.444,-0.7905 1.176,-1.1614 1.898,-1.5267 0.843,-0.4269 1.671,-0.8462 2.006,-1.9185 h -0.168 c -0.176,-0.0127 -0.298,-0.1443 -0.345,-0.3182 1.123,-0.2758 2.127,-1.0438 2.892,-2.0451 0.085,-0.2058 0.206,-0.3983 0.327,-0.5898 0.263,-0.4203 0.524,-0.8354 0.4,-1.3746 -0.136,-0.034 -0.288,-0.034 -0.44,-0.034 z M 130.109,20.9301 c -0.031,-0.0525 -0.053,-0.1116 -0.077,-0.1722 -0.054,-0.1399 -0.111,-0.2875 -0.272,-0.3793 -0.206,0.1301 -0.39,-0.0191 -0.56,-0.1563 -0.212,-0.1713 -0.401,-0.3239 -0.579,0.1096 -0.025,0.2503 0.181,0.4412 0.341,0.5685 l 0.453,0.1316 c 0,0.0705 0.019,0.1436 0.038,0.216 0.04,0.1541 0.079,0.3049 -0.067,0.4204 l -0.005,-0.0017 c -0.231,-0.0806 -0.571,-0.1994 -0.651,0.1799 0.034,0.263 -0.063,0.4497 -0.176,0.6534 -0.168,0.2334 -0.534,0.1994 -0.748,0.1018 -0.176,-0.0145 -0.303,-0.1778 -0.41,-0.315 -0.018,-0.0233 -0.035,-0.0459 -0.052,-0.0668 0.108,-0.1771 0.271,-0.3009 0.434,-0.4252 0.146,-0.111 0.293,-0.2224 0.402,-0.3725 0.223,0.0891 0.475,0.017 0.622,-0.2121 0.105,-0.0467 0.08,-0.2037 0.033,-0.2801 -0.079,-0.0434 -0.162,-0.076 -0.242,-0.1075 -0.239,-0.0945 -0.453,-0.1787 -0.485,-0.5162 -0.04,-0.0359 -0.079,-0.0768 -0.119,-0.118 -0.133,-0.1389 -0.27,-0.2825 -0.477,-0.2596 -0.246,0.2256 -0.121,0.4097 0.012,0.6057 0.121,0.1801 0.25,0.3703 0.105,0.612 -0.214,0.2291 -0.475,0.3182 -0.756,0.3776 -0.231,-0.3182 -0.412,-0.6406 -0.559,-0.9716 0.343,-0.2518 0.558,-0.6249 0.767,-0.9893 0.345,-0.5995 0.677,-1.1755 1.544,-1.1491 0.135,0.2037 0.16,0.4243 0.143,0.6704 -0.055,0.0144 -0.115,0.0222 -0.174,0.03 -0.169,0.0218 -0.339,0.0439 -0.41,0.2161 0.009,0.0529 0.004,0.1058 -0.002,0.156 -0.011,0.1147 -0.022,0.2151 0.145,0.2683 0.231,0.0551 0.487,0.0297 0.693,-0.1146 0.089,-0.3226 0.313,-0.3294 0.544,-0.3363 0.207,-0.0063 0.42,-0.0127 0.549,-0.245 0.043,-0.0565 0.09,-0.1129 0.137,-0.1699 v -5e-4 l 0.001,-10e-5 c 0.204,-0.246 0.416,-0.5013 0.324,-0.8181 -0.061,-0.0851 -0.099,-0.1943 -0.138,-0.3045 v 0 c -0.081,-0.2301 -0.163,-0.4644 -0.458,-0.4931 0.548,-0.2155 0.575,-0.8223 0.596,-1.2882 v -0.0059 c -0.017,-0.016 -0.034,-0.0337 -0.053,-0.0521 -0.127,-0.1281 -0.288,-0.2888 -0.438,-0.1219 -0.191,0.1261 -0.153,0.315 -0.117,0.4884 0.044,0.2118 0.083,0.4005 -0.308,0.4239 -0.091,0.0112 -0.198,-0.0114 -0.305,-0.0341 -0.219,-0.0461 -0.441,-0.093 -0.548,0.1401 0.094,0.1705 0.033,0.3557 -0.029,0.5447 v 10e-5 c -0.032,0.0979 -0.065,0.1969 -0.076,0.2953 -0.16,0.0931 -0.264,0.0056 -0.371,-0.0849 -0.113,-0.0951 -0.23,-0.1934 -0.419,-0.089 -0.113,0.0635 -0.077,0.1807 -0.041,0.2969 0.046,0.1475 0.092,0.2935 -0.169,0.3268 0.071,-0.9606 0.042,-1.9591 -0.179,-2.8945 0.09,0.1656 0.348,0.1191 0.46,0.039 0.219,-0.1167 0.256,-0.3091 0.292,-0.5046 0.014,-0.0745 0.029,-0.1495 0.053,-0.2209 -0.071,-0.2885 -0.214,-0.5219 -0.462,-0.7383 0.222,-0.2376 0.294,-0.5388 0.344,-0.8316 0.103,-0.0278 0.215,-0.0434 0.328,-0.0592 0.337,-0.0468 0.678,-0.0944 0.782,-0.4627 -0.01,-0.063 -0.018,-0.1278 -0.026,-0.1934 -0.055,-0.4329 -0.113,-0.898 -0.558,-1.1006 -0.173,0.133 -0.119,0.3247 -0.064,0.5182 0.07,0.2447 0.14,0.4923 -0.247,0.6273 -0.105,-0.1175 -0.194,-0.086 -0.301,-0.0477 v 10e-5 c -0.013,0.0045 -0.026,0.0092 -0.04,0.0137 -0.11,0.2889 -0.21,0.2152 -0.316,0.1383 -0.107,-0.079 -0.22,-0.1613 -0.352,0.1417 -0.177,0.1267 -0.098,0.233 -0.011,0.3496 0.061,0.0826 0.127,0.1703 0.108,0.2741 -0.041,0.0965 -0.125,0.1765 -0.209,0.256 -0.114,0.1094 -0.228,0.2179 -0.228,0.3677 0,-0.1666 -0.099,-0.2861 -0.196,-0.4037 -0.099,-0.119 -0.195,-0.236 -0.187,-0.3982 -0.248,-0.1442 -0.471,-0.4624 -0.487,-0.7976 -0.014,-0.0673 -0.064,-0.1409 -0.114,-0.2161 -0.115,-0.1715 -0.235,-0.3513 0.042,-0.484 0.106,-0.1439 0.276,-0.1905 0.44,-0.2356 0.234,-0.0641 0.456,-0.125 0.468,-0.456 -0.214,-0.4116 0.176,-0.7001 0.471,-0.8019 l 0.39,-0.1188 c 0.386,0.2419 0.198,0.4623 0.019,0.6713 -0.176,0.2053 -0.343,0.3997 0.053,0.5931 0.407,-0.117 0.528,-0.4121 0.652,-0.7142 0.124,-0.3005 0.251,-0.60787 0.663,-0.75386 0.269,0.0594 0.559,0.16123 0.765,0.32246 l 0.008,0.0227 c 0.053,0.1534 0.118,0.342 0.286,0.4228 0.131,0.0486 0.174,-0.0201 0.22,-0.0926 0.038,-0.0606 0.078,-0.1238 0.171,-0.1238 0.303,0 0.58,0.174 0.748,0.4625 0,0.0296 -0.015,0.0603 -0.031,0.092 -0.03,0.0591 -0.061,0.1218 0.002,0.188 0.092,0.1666 0.242,0.1424 0.389,0.1187 0.149,-0.024 0.296,-0.0476 0.376,0.1274 -0.004,0.0463 -0.004,0.0945 -0.004,0.143 v 10e-5 0 c -0.002,0.1826 -0.003,0.37 -0.173,0.4806 -0.114,0.0101 -0.234,-0.0336 -0.351,-0.0758 -0.226,-0.0821 -0.437,-0.1587 -0.556,0.1776 -0.047,0.189 0.076,0.2848 0.196,0.379 0.109,0.0855 0.216,0.1697 0.194,0.3211 0.177,0.174 0.32,0.4031 0.194,0.6704 -0.086,0.2005 -0.285,0.1767 -0.463,0.1553 -0.221,-0.0267 -0.412,-0.0496 -0.319,0.3666 0.151,0.2757 0.462,0.3224 0.719,0.2757 0.269,-0.0848 0.533,-0.3012 0.66,-0.5685 0.125,-0.2974 0.059,-0.6125 -0.005,-0.9118 -0.03,-0.1405 -0.059,-0.2776 -0.067,-0.4077 0.135,-0.1146 0.349,-0.0679 0.492,-0.0255 0.184,0.2811 0.145,0.5675 0.104,0.8704 -0.023,0.168 -0.046,0.3411 -0.033,0.5213 -0.015,-0.0063 -0.03,-0.0127 -0.045,-0.0191 -0.095,-0.0409 -0.183,-0.0788 -0.299,-0.0531 -0.208,0.1979 -0.067,0.3433 0.087,0.502 0.13,0.134 0.269,0.2774 0.215,0.4697 l -0.034,0.0084 c -0.238,0.0583 -0.564,0.138 -0.588,0.4413 0.045,0.1559 0.151,0.23 0.276,0.317 0.014,0.0101 0.029,0.0203 0.044,0.0309 0.17,-0.0341 0.333,-0.12 0.495,-0.2057 0.322,-0.1703 0.643,-0.3397 1.018,-0.0998 0,0.0642 0.009,0.1411 0.018,0.2226 v 4e-4 0 10e-5 0 c 0.037,0.3062 0.08,0.6764 -0.321,0.6764 -0.316,0.0696 -0.502,-0.0291 -0.702,-0.1352 -0.093,-0.0492 -0.189,-0.1 -0.302,-0.1363 -0.125,0.0711 -0.214,0.1995 -0.302,0.3255 -0.141,0.2049 -0.279,0.4037 -0.56,0.3406 -0.051,-0.0149 -0.102,-0.0517 -0.153,-0.0888 -0.11,-0.0794 -0.221,-0.1601 -0.339,-0.03 -0.143,0.0891 -0.176,0.2631 -0.096,0.3946 0.239,0.3055 0.664,0.2928 1.071,0.28 l 0.471,-0.3776 c 0.357,0.14 0.891,0.14 1.252,0 -0.178,0.1101 -0.159,0.3286 -0.14,0.5377 0.026,0.2823 0.05,0.5475 -0.419,0.5061 -0.207,-0.0933 -0.306,-0.2449 -0.406,-0.398 -0.068,-0.1047 -0.137,-0.21 -0.241,-0.2979 -0.095,-0.0119 -0.139,0.0583 -0.182,0.126 -0.018,0.0284 -0.036,0.0564 -0.057,0.0777 0.046,0.437 0.256,0.8698 0.613,1.1159 0.019,0.2157 -0.078,0.3799 -0.175,0.543 -0.036,0.0615 -0.072,0.1229 -0.102,0.1867 -0.336,0.0255 -0.446,0.3183 -0.517,0.594 0.147,0.1121 0.339,0.068 0.511,0.0288 0.049,-0.0113 0.096,-0.0221 0.14,-0.0288 0.513,-0.3182 0.765,-0.8867 0.799,-1.468 0.072,-0.0752 0.157,-0.1432 0.242,-0.2115 0.208,-0.167 0.419,-0.3359 0.451,-0.6159 -0.006,-0.0626 -0.004,-0.1318 -0.002,-0.2021 0.006,-0.2249 0.012,-0.4618 -0.237,-0.5361 h -0.223 c 0.399,-0.2206 0.693,-0.6407 0.668,-1.1201 -0.046,-0.191 -0.134,-0.3777 -0.252,-0.5516 l 0.024,-0.0192 c 0.287,-0.2327 0.6,-0.4856 0.981,-0.3287 0.305,0.1852 0.26,0.609 0.224,0.9459 -0.004,0.0336 -0.007,0.0663 -0.01,0.0978 -0.046,-0.0976 -0.437,0.0128 -0.517,0.2037 -0.061,0.1739 0.044,0.2715 0.15,0.3696 0.105,0.0981 0.211,0.1968 0.153,0.3729 -0.042,0.0874 -0.127,0.1677 -0.213,0.2484 -0.171,0.1621 -0.344,0.3254 -0.17,0.5492 0.055,0.1485 0.206,0.2037 0.345,0.174 0.457,-0.1565 0.581,-0.5944 0.693,-0.9896 0.013,-0.0442 0.025,-0.0878 0.038,-0.1305 0,-0.2291 -0.122,-0.4201 -0.269,-0.594 0.168,0.1315 0.357,-0.0891 0.403,-0.2291 l -0.1,-0.9165 c 0.256,-0.0849 0.533,0 0.735,0.1443 -0.056,0.0594 -0.05,0.152 -0.044,0.2415 v 10e-5 0 10e-5 0 10e-5 0 10e-5 10e-5 0 1e-4 10e-5 0 10e-5 10e-5 10e-5 0 10e-5 10e-5 10e-5 1e-4 0 10e-5 10e-5 c 0.002,0.0379 0.005,0.0751 0.002,0.109 0.08,0.0721 0.206,0.1443 0.311,0.0721 0.055,-0.2036 0.303,-0.2036 0.446,-0.1145 0.247,0.2036 0.39,0.4794 0.273,0.768 -0.014,0.0712 -0.073,0.1234 -0.132,0.1761 -0.015,0.0133 -0.03,0.0266 -0.045,0.0402 -0.253,0.0337 -0.435,-0.0502 -0.61,-0.1311 -0.199,-0.0921 -0.39,-0.1802 -0.667,-0.0852 -0.232,0.1255 -0.101,0.2549 0.029,0.383 0.063,0.0624 0.126,0.1244 0.147,0.1855 0,0.42 -0.063,0.7425 -0.479,0.8995 -0.024,0.0051 -0.052,0.0032 -0.079,0.0013 -0.064,-0.0044 -0.128,-0.0089 -0.161,0.0708 -0.02,0.1437 0.114,0.2006 0.218,0.2447 0.022,0.0093 0.042,0.018 0.06,0.0269 0.319,-0.0128 0.622,-0.0849 0.836,-0.348 l 0.269,-0.594 c 0.198,0.0849 0.462,0.174 0.664,0.0425 0.074,-0.0811 0.152,-0.1487 0.23,-0.2161 v 0 c 0.074,-0.063 0.147,-0.1259 0.216,-0.1997 0.344,0.3012 0.365,0.7679 0.248,1.2177 -0.05,-0.0047 -0.098,-0.0162 -0.145,-0.0275 -0.125,-0.0301 -0.241,-0.0582 -0.351,0.0529 0.033,0.0816 0.065,0.1638 0.096,0.2457 v 10e-5 c 0.107,0.2846 0.214,0.566 0.429,0.8065 0.021,0.3055 -0.143,0.5812 -0.416,0.6958 -0.366,0.017 -0.773,0.2037 -0.899,0.5261 -0.035,0.089 0.022,0.1373 0.074,0.1815 0.024,0.0211 0.048,0.0413 0.06,0.0646 0.279,-0.1203 0.301,0.1091 0.32,0.3126 0.007,0.0692 0.013,0.1354 0.029,0.1838 -0.068,0.0876 -0.112,0.1849 -0.155,0.282 -0.072,0.1615 -0.145,0.3227 -0.328,0.4393 -0.101,0.0385 -0.222,0.0366 -0.336,0.0347 l -0.05,-7e-4 -0.022,-10e-5 c -0.113,0.0953 -0.149,0.23 -0.183,0.3606 -0.042,0.1602 -0.082,0.3142 -0.263,0.3819 l -0.453,-0.1018 c 0.04,-0.0308 0.083,-0.0614 0.127,-0.0928 0.188,-0.1327 0.394,-0.2781 0.448,-0.5012 -0.041,-0.1693 -0.017,-0.3514 0.006,-0.5284 0.045,-0.3419 0.087,-0.6644 -0.35,-0.8378 -0.028,0.0079 -0.057,0.0143 -0.087,0.0209 -0.132,0.0286 -0.274,0.0594 -0.287,0.2252 -0.045,0.1582 0.022,0.3198 0.085,0.4727 0.098,0.2367 0.188,0.4529 -0.157,0.605 -0.169,0.0174 -0.29,-0.0722 -0.412,-0.1631 -0.057,-0.0422 -0.114,-0.0847 -0.176,-0.1169 -0.128,-0.2859 0.061,-0.4797 0.255,-0.6787 0.131,-0.1347 0.265,-0.2718 0.304,-0.4415 -0.063,-0.3903 -0.135,-0.7849 -0.353,-1.1031 -0.181,-0.0721 -0.429,-0.0424 -0.584,0.0551 -0.112,0.2249 0.018,0.3148 0.144,0.4027 0.137,0.0945 0.269,0.1866 0.095,0.4417 -0.01,0.0225 -0.02,0.0456 -0.03,0.0691 -0.088,0.2027 -0.189,0.4336 -0.407,0.5249 -0.202,-0.0552 -0.374,0.1188 -0.416,0.28 0.007,0.1338 0.099,0.2377 0.19,0.3399 0.135,0.1506 0.265,0.2973 0.113,0.5299 -0.073,0.1252 -0.158,0.1595 -0.246,0.1957 -0.065,0.0264 -0.133,0.0539 -0.2,0.1183 -0.013,-0.1831 -0.065,-0.3521 -0.116,-0.5174 -0.094,-0.3059 -0.185,-0.5994 -0.018,-0.9464 0,-0.174 -0.08,-0.331 -0.215,-0.4201 -0.209,0.0592 -0.238,0.2377 -0.264,0.4044 -0.023,0.1443 -0.045,0.2798 -0.181,0.3212 -0.14,0.2405 -0.385,0.2519 -0.625,0.2629 -0.262,0.0122 -0.518,0.0241 -0.619,0.3396 l 0.003,0.0031 c -0.113,-0.0526 -0.255,0.0046 -0.372,0.0518 l -0.022,0.0087 c -0.063,0.0764 -0.135,0.1909 -0.063,0.28 0.051,0.0625 0.115,0.1074 0.176,0.1502 0.108,0.0764 0.206,0.1458 0.206,0.2953 -0.013,0.0526 -0.01,0.121 -0.007,0.1894 0.008,0.1635 0.015,0.327 -0.207,0.2731 h -0.168 c 0.135,-0.4116 -0.04,-0.7426 -0.214,-1.0707 -0.021,-0.0405 -0.043,-0.081 -0.063,-0.1215 -0.089,-0.0053 -0.157,-0.0631 -0.22,-0.1175 -0.089,-0.0767 -0.17,-0.1466 -0.293,-0.0523 -0.044,0.1346 0.024,0.2514 0.095,0.3726 0.059,0.1005 0.119,0.2041 0.119,0.3233 l 0.025,0.7255 -0.336,0.7468 c -0.191,-0.0279 -0.306,0.0916 -0.419,0.2085 -0.128,0.1324 -0.253,0.2615 -0.48,0.1691 -0.24,0.2036 -0.542,0.1188 -0.811,0.0424 -0.012,-0.1529 -0.135,-0.206 -0.245,-0.2538 -0.049,-0.0212 -0.096,-0.0413 -0.129,-0.0687 0.238,-0.1377 0.36,-0.3596 0.478,-0.5753 0.155,-0.2828 0.304,-0.5549 0.703,-0.6127 0.277,-0.2885 0.311,-0.7425 0.235,-1.1498 z m 2.114,0.2885 c -0.029,-0.0468 -0.064,-0.0768 -0.102,-0.0944 z m -4.705,-6.011 0.002,0.0031 0.002,0.0077 -0.002,-0.0034 z m -0.012,-0.0652 c 0.001,0.0064 0.003,0.0131 0.004,0.0198 l 0.002,0.0125 v 10e-5 c 0.001,0.0111 0.003,0.0222 0.006,0.0328 -0.004,-0.0047 -0.007,-0.0082 -0.011,-0.0117 -0.004,-0.0043 -0.008,-0.0085 -0.012,-0.0149 0,-0.0085 0.003,-0.0169 0.006,-0.0254 l 0.003,-0.0079 z m -0.003,-0.0279 0.004,0.0156 c 0,0.0041 0,0.0082 -0.001,0.0123 l -0.003,-0.008 c 0,-0.0067 0,-0.0133 0,-0.0199 z m 0,0 c -0.011,-0.0427 -0.022,-0.0854 -0.032,-0.1278 -0.022,-0.0872 -0.043,-0.1731 -0.073,-0.2554 l -0.168,-0.6661 c 0.247,-0.1375 0.315,0.0589 0.383,0.258 0.035,0.1021 0.07,0.2049 0.13,0.2638 -0.019,0.0897 -0.071,0.1716 -0.122,0.2515 -0.058,0.0917 -0.115,0.1808 -0.118,0.276 z m -11.892,8.7104 c 0.133,-0.1974 0.273,-0.4045 0.453,-0.5272 v -0.0042 c 0.109,0.1145 0.071,0.3352 0.029,0.4667 -0.198,0.2657 -0.36,0.5524 -0.522,0.8396 v 1e-4 c -0.131,0.2309 -0.261,0.4623 -0.411,0.6835 0.096,0.0229 0.179,-0.0044 0.265,-0.0325 0.041,-0.0135 0.082,-0.0271 0.126,-0.0354 0.122,-0.0444 0.231,-0.1411 0.341,-0.238 0.183,-0.1623 0.367,-0.3254 0.617,-0.2457 0.178,-0.2323 0.403,-0.3572 0.625,-0.4805 0.154,-0.086 0.308,-0.1713 0.442,-0.2917 0.131,-0.2259 0.288,-0.4474 0.447,-0.6706 v 0 c 0.52,-0.7325 1.053,-1.4828 0.692,-2.4649 -0.102,-0.0387 -0.201,-0.1075 -0.3,-0.1758 -0.194,-0.1339 -0.385,-0.2662 -0.591,-0.1679 -0.192,-0.3805 -0.488,-0.5219 -0.796,-0.6693 -0.128,-0.0613 -0.259,-0.1237 -0.384,-0.2047 l -1.093,0.9716 c -1.53,1.3917 -3.745,1.5275 -5.779,1.2644 -0.152,0.1779 -0.185,0.4131 -0.217,0.6467 -0.007,0.0506 -0.014,0.1011 -0.022,0.151 -0.037,0.0941 -0.073,0.1884 -0.109,0.2828 v 10e-5 c -0.402,1.0543 -0.807,2.1157 -1.64,2.9841 -0.078,0.0975 -0.162,0.1742 -0.243,0.2474 -0.158,0.1434 -0.301,0.2734 -0.354,0.5205 0.146,-0.071 0.329,-0.0892 0.507,-0.1068 0.142,-0.014 0.28,-0.0277 0.393,-0.0671 v 0.0764 c 0.114,-0.0974 0.239,-0.183 0.365,-0.2692 0.269,-0.1842 0.542,-0.3705 0.711,-0.677 0.19,0.0543 0.336,-0.0433 0.477,-0.1373 0.124,-0.0824 0.243,-0.162 0.384,-0.1343 -0.045,0.0713 -0.091,0.1421 -0.137,0.2128 -0.205,0.317 -0.41,0.6326 -0.548,0.9795 0.087,-0.0037 0.175,-0.0038 0.263,-0.0039 v 0 c 0.318,-3e-4 0.636,-6e-4 0.893,-0.1701 0.274,-0.2983 0.614,-0.5112 0.952,-0.723 0.518,-0.3243 1.032,-0.6457 1.296,-1.2669 0.075,-0.0867 0.102,-0.2137 0.127,-0.3386 0.044,-0.2112 0.086,-0.4161 0.361,-0.4081 0.02,0.0272 0.047,0.0506 0.072,0.0735 0.055,0.0483 0.107,0.0948 0.096,0.1726 -0.059,0.2702 -0.169,0.5322 -0.278,0.7932 -0.138,0.329 -0.275,0.6566 -0.31,0.9973 0.18,0 0.365,0 0.525,-0.0467 0.113,-0.0547 0.229,-0.1077 0.347,-0.1613 l 10e-4,-4e-4 v -10e-5 c 0.658,-0.3 1.36,-0.6196 1.72,-1.3572 0.07,-0.0842 0.138,-0.1845 0.207,-0.2873 z M 99.5134,18.9106 c 0.1502,-0.0366 0.2522,-0.1684 0.3545,-0.3007 0.1471,-0.1899 0.2951,-0.3809 0.5871,-0.2934 0.134,0.1867 0.357,0.4795 0.588,0.2716 0.362,-0.1728 0.244,-0.3596 0.121,-0.5541 -0.112,-0.178 -0.229,-0.3626 0.014,-0.5491 0.117,-0.1582 0.274,-0.2335 0.424,-0.3056 0.124,-0.0594 0.243,-0.1166 0.332,-0.2162 -0.273,-0.3507 -0.74,-0.1957 -1.124,-0.0683 -0.076,0.0252 -0.149,0.0493 -0.216,0.0683 l -0.215,-0.1443 c 0.74,-0.9164 2.312,-0.8995 3.253,-0.3224 0.164,0.284 0.303,0.5755 0.443,0.8661 0.283,0.5906 0.565,1.1776 1.041,1.6923 0.241,0.4066 0.053,0.8349 -0.124,1.2394 -0.057,0.1316 -0.114,0.2607 -0.154,0.3856 -0.584,1.3026 -1.937,1.9305 -3.311,1.9178 -0.341,-1.2813 -1.387,-2.7748 -2.7911,-2.9955 -0.0798,-0.594 0.0715,-1.2813 0.4077,-1.7735 0.1173,-0.1369 0.2729,-0.0576 0.3945,0.0043 v 10e-5 h 1e-4 c 0.0178,0.0091 0.0348,0.0177 0.0509,0.0253 0.0888,0.1299 -0.0097,0.2335 -0.1131,0.3422 -0.0825,0.0867 -0.168,0.1766 -0.1643,0.2858 -0.0336,0.1866 0.0546,0.3479 0.2059,0.42 z m 5.3386,-1.5653 c 0.114,0.1152 0.229,0.2316 0.188,0.4197 1.185,1.9136 3.139,2.9318 5.157,3.3434 2.319,0.3522 4.538,-0.3564 5.988,-2.2275 0.16,-0.1757 0.235,-0.3789 0.311,-0.5816 0.076,-0.2035 0.151,-0.4066 0.311,-0.581 0.069,-0.2656 0.15,-0.5301 0.231,-0.7954 0.22,-0.7218 0.443,-1.4498 0.433,-2.2255 0.19,-1.1625 0.143,-2.4863 -0.248,-3.5301 l -0.025,-0.0623 c -0.431,-1.0596 -0.93,-2.28611 -2.072,-2.82705 -0.441,-0.45531 -1.045,-0.62145 -1.64,-0.78504 v -1e-5 c -0.182,-0.04982 -0.362,-0.09941 -0.537,-0.15687 0.063,0.14426 0.177,0.33095 0.311,0.39035 1.223,1.39166 1.984,2.97852 2.287,4.76472 0.001,0.0376 0.007,0.0805 0.013,0.126 v 10e-5 c 0.021,0.1652 0.047,0.3648 -0.085,0.4679 -0.071,0.0128 -0.13,0 -0.176,-0.0721 -0.358,-1.7863 -1.068,-3.4537 -2.417,-4.83688 -0.663,-0.91898 -1.622,-1.06437 -2.603,-1.21303 v -1e-5 -10e-6 -1e-5 -10e-6 h -10e-4 v -10e-6 -1e-5 -10e-6 -1e-5 -10e-6 0 c -0.101,-0.01535 -0.203,-0.03073 -0.304,-0.04701 -0.219,0.06246 -0.452,0.10791 -0.689,0.15418 -0.601,0.11716 -1.228,0.23949 -1.719,0.65621 -0.259,0.0436 -0.446,0.17404 -0.638,0.30789 v 1e-5 c -0.126,0.08755 -0.253,0.17656 -0.405,0.24367 -1.025,0.94192 -1.849,1.93475 -2.311,3.13545 -0.056,0.0974 -0.065,0.2095 -0.075,0.32 -0.012,0.1545 -0.025,0.3059 -0.165,0.4098 -0.445,1.6547 -0.168,3.4961 0.694,4.9217 0.019,0.1116 0.103,0.1957 0.186,0.2804 z m 12.346,1.3617 c 0.526,-1.3068 0.933,-2.6858 1.059,-4.1496 0.202,-0.9886 0.097,-1.9729 -0.168,-2.8936 1.051,-1.0141 2.48,-1.5105 3.972,-1.3195 l 1.076,0.2715 c 0.221,0.1434 0.456,0.2754 0.694,0.4087 v 0 0 0 10e-5 0 h 10e-4 v 0 0 10e-5 0 0 0 0 1e-4 0 0 0 0 c 0.747,0.4186 1.516,0.8494 1.927,1.6827 1.147,1.5954 1.58,3.861 0.958,5.851 -0.127,0.0859 -0.174,0.2262 -0.222,0.3712 -0.042,0.1269 -0.085,0.2575 -0.185,0.3585 -1.013,1.5699 -2.808,1.642 -4.447,1.4384 -0.916,-0.0594 -1.857,-0.2207 -2.736,-0.4498 l -0.025,-0.0132 -0.077,-0.0393 -0.096,-0.0491 c -0.682,-0.3486 -1.405,-0.7182 -1.731,-1.4682 z m 7.04,-8.3077 c -0.034,-0.3818 -0.135,-0.72552 -0.311,-1.04798 L 123.759,9.992 c 0.067,0.1994 0.29,0.3479 0.479,0.4073 z m -0.454,-1.8032 0.143,-0.56854 c -0.034,0.17395 -0.055,0.37761 -0.072,0.56854 z m 6.048,9.8605 c 0.121,-0.1698 0.084,-0.4625 -0.101,-0.594 h -0.005 c -0.113,-0.1273 -0.063,-0.4243 0,-0.4922 -0.346,-0.0894 -0.381,0.1134 -0.417,0.3297 -0.024,0.1429 -0.05,0.2918 -0.167,0.3661 l 0.269,0.5643 c 0.164,0.0721 0.404,0.0297 0.421,-0.1739 z m 9.418,-0.7679 0.004,-0.0028 c 0.042,0.4198 0.088,0.9282 -0.03,1.3223 -0.13,0.3182 -0.399,0.6704 -0.718,0.7977 0.063,0.6831 -0.168,1.3365 -0.694,1.8159 -0.321,0.0223 -0.442,0.2286 -0.567,0.4432 -0.114,0.1949 -0.232,0.3965 -0.508,0.4733 -0.417,0.0594 -0.82,-0.0891 -1.165,-0.2885 0,-0.1101 -0.08,-0.1846 -0.16,-0.2592 -0.072,-0.0663 -0.143,-0.1327 -0.159,-0.2245 -0.338,0.059 -0.484,0.3168 -0.633,0.5799 -0.086,0.1527 -0.173,0.3072 -0.3,0.4256 l -0.374,1.6378 c -0.055,0.9334 0.416,1.6293 0.958,2.3124 1.652,1.3916 4.161,1.5232 6.25,0.997 l 1.945,-0.8995 c 1.333,-0.7806 1.967,-2.219 1.929,-3.6997 -0.207,0.0961 -0.388,0.2534 -0.568,0.4101 -0.225,0.1959 -0.449,0.3908 -0.722,0.4639 -0.087,0.0155 -0.164,0.1002 -0.24,0.1842 -0.133,0.1467 -0.263,0.2911 -0.445,0.0619 -0.105,-0.7722 0.143,-1.4808 0.454,-2.1215 -0.165,-0.02 -0.334,-0.0284 -0.502,-0.0368 -0.331,-0.0166 -0.658,-0.033 -0.948,-0.1371 -0.027,0.0081 -0.058,0.0219 -0.091,0.0367 -0.124,0.0551 -0.278,0.1237 -0.354,-0.0367 -0.041,-0.5321 0.327,-0.9326 0.694,-1.3323 0.204,-0.2219 0.408,-0.4435 0.541,-0.6873 -0.068,-0.2703 -0.246,-0.4949 -0.423,-0.7194 -0.193,-0.2441 -0.386,-0.4883 -0.438,-0.7911 0.153,-0.1263 0.409,-0.1115 0.619,-0.0993 0.108,0.0063 0.203,0.0118 0.267,-0.0025 l -0.685,-0.3055 c -0.143,-0.0068 -0.279,-0.0812 -0.413,-0.1548 -0.204,-0.1117 -0.404,-0.2217 -0.625,-0.0913 -0.088,0.0424 -0.096,-0.0721 -0.096,-0.1443 -0.146,-0.0075 -0.301,-0.0278 -0.459,-0.0486 v 0 c -0.465,-0.061 -0.958,-0.1258 -1.34,0.118 v -0.0015 z m 5.049,1.5024 c -0.046,0.3191 -0.092,0.6379 -0.41,0.7335 -0.161,-0.1333 -0.171,-0.3202 -0.18,-0.5061 v -1e-4 c -0.005,-0.0805 -0.009,-0.1607 -0.025,-0.2363 -0.053,-0.3156 -0.317,-0.3311 -0.57,-0.346 -0.095,-0.0055 -0.187,-0.011 -0.267,-0.0316 l 0.727,0.9758 v 0.2716 c -0.357,0.1733 -0.572,0.4829 -0.789,0.7954 -0.112,0.1617 -0.225,0.3242 -0.358,0.4689 0.31,0.1424 0.678,0.1544 1.05,0.1665 v 0 c 0.194,0.0062 0.388,0.0125 0.576,0.0372 0.114,0.0297 0.16,0.157 0.139,0.2758 -0.282,0.5219 -0.441,1.0904 -0.584,1.6717 l 1.042,-0.9292 c 0.202,-0.2758 0.639,-0.2631 0.782,0.1018 0.357,0.1927 0.534,0.5719 0.703,0.936 v 10e-5 c 0.062,0.1331 0.123,0.2642 0.192,0.3835 l -0.025,-1.2178 -1.11,-1.3916 c -0.101,-0.2698 0.106,-0.4092 0.326,-0.5568 0.126,-0.0845 0.256,-0.1717 0.334,-0.2876 0.014,-0.0157 0.035,-0.0346 0.058,-0.0559 0.119,-0.1112 0.309,-0.2882 0.077,-0.4235 -0.208,0.1773 -0.46,0.263 -0.717,0.3499 -0.117,0.04 -0.236,0.0801 -0.351,0.1295 l -0.139,-0.1315 c 0.08,-0.594 -0.088,-1.1922 -0.374,-1.642 -0.059,0.1333 -0.083,0.2961 -0.107,0.4588 z m -0.561,-1.0867 0.294,0.2503 -0.046,0.0255 z m -9.669,4.0146 -10e-4,-9e-4 v -0.0042 z m 0,0 0.15,0.0967 -0.105,0.0722 z m -0.615,-0.0772 c -0.122,0.1782 -0.361,0.0764 -0.512,0 l -0.622,-0.7637 c 0.256,0.0976 0.676,0.2164 1.012,0.0721 0.012,0.0803 0.055,0.1585 0.099,0.2365 0.082,0.1487 0.164,0.2964 0.023,0.4551 z m -1.92,0.8242 c -0.094,-0.0498 -0.186,-0.0993 -0.282,0.0201 l -0.004,0.0043 c -0.111,0.6309 -0.417,1.1817 -0.724,1.7342 -0.355,0.6402 -0.712,1.2826 -0.768,2.0547 -0.166,0.7034 -0.05,1.3551 0.066,2.0074 0.081,0.4533 0.162,0.9069 0.148,1.3784 0.269,0.6534 0.58,1.2728 1.139,1.8117 0.09,0.0845 0.137,0.2001 0.183,0.3131 0.071,0.1764 0.14,0.3465 0.368,0.3827 0.025,0.1188 0.239,0.3691 0.311,0.4243 0.013,-0.151 0.094,-0.2835 0.18,-0.4235 0.078,-0.1274 0.16,-0.2611 0.198,-0.4208 0.195,-0.3211 0.402,-0.6383 0.609,-0.9559 0.744,-1.1435 1.492,-2.2929 1.749,-3.6477 -0.106,-0.1498 -0.213,-0.2976 -0.32,-0.445 v -10e-5 0 c -0.422,-0.5824 -0.839,-1.1569 -1.101,-1.8205 l -0.007,-0.1102 v -10e-5 c -0.045,-0.7282 -0.093,-1.5053 0.247,-2.1554 l -0.622,-0.1019 c -0.168,-0.0297 -0.307,-0.1867 -0.337,-0.3479 -0.157,0.0279 -0.291,0.1011 -0.426,0.1744 -0.132,0.072 -0.264,0.1441 -0.418,0.1735 -0.064,0.017 -0.127,-0.0165 -0.189,-0.0498 z m 12.625,16.1176 h -0.003 c 0.805,-1.8323 0.939,-4.1935 0.566,-6.2667 l -0.152,-0.2376 c -0.227,-0.1141 -0.484,-0.1531 -0.742,-0.192 -0.431,-0.0653 -0.862,-0.1306 -1.157,-0.5505 -1.45,-0.1994 -2.728,-1.3789 -3.619,-2.4396 -0.34,1.7798 0.478,3.1508 1.286,4.5041 v 1e-4 10e-5 2e-4 1e-4 l 0.001,2e-4 v 1e-4 10e-5 2e-4 1e-4 10e-5 2e-4 1e-4 2e-4 10e-5 1e-4 2e-4 1e-4 l 0.001,10e-5 v 2e-4 1e-4 2e-4 10e-5 1e-4 2e-4 10e-5 c 0.158,0.265 0.316,0.5294 0.465,0.796 0.391,0.7638 0.966,1.4013 1.542,2.0388 v 0 0 0 0 1e-4 0 0 0 10e-5 0 0 0 0 1e-4 0 h 0.001 v 0 10e-5 0 0 0 1e-4 0 0 0 c 0.575,0.6373 1.151,1.2746 1.542,2.0382 0.117,0.0551 0.269,0.1315 0.197,0.3054 h 0.069 l -0.002,0.0043 z m 10.983,-8.0084 c -0.02,-0.0132 -0.041,-0.0265 -0.061,-0.0403 l -0.004,0.0043 c -1.004,-1.205 -2.227,-2.3633 -3.501,-3.3137 -0.504,1.6717 -2.051,3.0761 -3.58,3.8652 0.022,0.1199 -0.059,0.116 -0.136,0.1122 -0.081,-0.0039 -0.158,-0.0076 -0.104,0.1339 l 0.034,-0.0297 c 0.009,0 0.019,-2e-4 0.029,-4e-4 0.086,-0.0017 0.195,-0.0038 0.21,0.1023 0.272,0.0574 0.516,0.1699 0.76,0.2819 0.314,0.1445 0.626,0.2882 0.993,0.3121 1.919,0.0397 3.568,-0.5694 5.204,-1.1737 0.109,-0.0402 0.218,-0.0804 0.326,-0.1204 -0.047,-0.0541 -0.108,-0.0939 -0.17,-0.1337 z m -6.869,-13.6047 c 1.387,-0.925 3.093,-1.0607 4.837,-1.1032 0.085,0 0.173,-0.0174 0.263,-0.0351 0.182,-0.0361 0.369,-0.073 0.536,0.0351 0.057,0.8526 -0.441,1.5185 -0.938,2.1841 -0.198,0.2652 -0.396,0.5303 -0.558,0.8072 -0.109,0.2147 -0.202,0.4382 -0.295,0.6627 -0.204,0.4898 -0.41,0.9846 -0.781,1.4035 -0.184,-0.018 -0.191,-0.0894 -0.2,-0.1855 -0.006,-0.062 -0.013,-0.1342 -0.069,-0.2091 -0.481,-1.1503 -1.511,-1.9549 -2.495,-2.7249 -0.16,-0.1246 -0.318,-0.2483 -0.472,-0.3724 l 0.168,-0.4624 z m -0.996,1.0119 c -0.199,-0.0945 -0.399,-0.1893 -0.605,-0.2737 h 0.012 c -0.165,-0.0336 -0.335,-0.0761 -0.507,-0.1191 -0.566,-0.1416 -1.159,-0.29 -1.733,-0.1566 0.71,0.4115 0.862,1.1328 0.862,1.8753 l 0.584,-0.4497 c 0.385,-0.105 0.442,0.1286 0.506,0.3871 0.046,0.1908 0.097,0.395 0.284,0.4869 0.239,0.3099 -0.004,0.5173 -0.255,0.7316 -0.151,0.129 -0.305,0.2604 -0.359,0.4182 0.232,0.2461 0.4,0.4879 0.559,0.7637 0.673,0.8868 0.232,2.1639 -0.285,2.9955 -0.357,0.1651 -0.418,-0.0757 -0.481,-0.3289 -0.037,-0.1437 -0.074,-0.2913 -0.167,-0.3712 -0.027,0.2661 -0.132,0.4966 -0.236,0.7271 -0.069,0.1517 -0.137,0.3034 -0.184,0.4652 -1.067,2.2232 -3.412,2.8045 -5.526,3.2118 0.038,0.0547 0.058,0.1162 0.078,0.178 v 0 c 0.022,0.0676 0.044,0.1356 0.09,0.1954 0.093,0.0907 0.186,0.1836 0.28,0.2772 v 10e-5 c 0.785,0.7825 1.621,1.615 2.758,1.615 2.249,-0.3988 4.329,-2.1384 5.493,-4.1877 h 0.139 c 0.099,0.2174 -0.02,0.401 -0.145,0.5929 -0.092,0.1416 -0.187,0.2876 -0.2,0.4551 -1.08,1.782 -2.87,3.0464 -4.656,3.6871 0.083,0.0934 0.19,0.075 0.298,0.0565 0.088,-0.0151 0.177,-0.0302 0.252,0.0156 0.631,0.2007 1.295,0.0656 1.924,-0.0625 0.143,-0.0289 0.283,-0.0575 0.421,-0.0818 2.324,-0.9631 4.417,-3.2967 4.934,-5.7533 0.526,-2.8894 -1.21,-5.1975 -3.244,-6.9711 -0.307,-0.1033 -0.598,-0.2412 -0.891,-0.3797 z m -3.901,-5.5008 v 0 c 0.448,-0.0259 0.873,-0.0505 1.35,-0.0384 l 0.126,0.1443 c 0.088,1.0777 0.046,2.1936 -0.374,3.11 -0.26,0.2628 -0.402,0.5932 -0.545,0.9275 -0.126,0.2919 -0.252,0.5867 -0.46,0.8418 -1.181,-0.8104 -2.614,-1.1159 -4.143,-1.0183 -0.012,-0.1591 -0.058,-0.3177 -0.105,-0.4764 -0.092,-0.3151 -0.185,-0.6303 0,-0.9492 0.316,-0.175 0.489,-0.4681 0.663,-0.7647 0.071,-0.1204 0.142,-0.2415 0.223,-0.3554 l -0.025,-0.1273 c 0.853,-0.4794 1.795,-0.8995 2.736,-1.2644 0.191,-0.0085 0.374,-0.0191 0.554,-0.0295 z m -4.462,-4.95158 c -0.349,0 -0.694,0 -0.971,0.1485 h -0.004 c -1.885,0.28202 -3.323,1.83353 -4.659,3.27498 l -0.032,0.0345 c -0.175,0.3333 -0.036,0.5636 0.106,0.7984 0.124,0.2046 0.25,0.4126 0.172,0.6951 -0.201,0.2436 -0.14,0.4775 -0.077,0.7225 0.055,0.2116 0.112,0.4316 0.005,0.6734 0.052,0 0.104,-0.0015 0.156,-0.003 0.163,-0.0046 0.324,-0.0092 0.458,0.0327 0.081,-0.0615 0.16,-0.1275 0.239,-0.1934 v 0 -10e-5 c 0.345,-0.2884 0.686,-0.5731 1.186,-0.4557 0.061,0.0644 0.149,0.0813 0.234,0.0976 0.1,0.0191 0.197,0.0376 0.245,0.1315 0.302,-0.1018 0.735,-0.1018 1.038,0 0.135,0.3629 0.422,0.4431 0.715,0.5248 0.234,0.0655 0.472,0.1319 0.638,0.345 0.046,0.0437 0.076,0.1114 0.106,0.1789 0.06,0.1357 0.119,0.2709 0.31,0.2114 0.559,-0.6237 0.744,-1.4807 0.887,-2.3081 0.312,-1.3342 -0.042,-2.4819 -0.394,-3.62296 v -3e-5 -3e-5 -4e-5 -3e-5 -4e-5 -3e-5 -4e-5 -3e-5 -3e-5 -4e-5 -3e-5 -4e-5 -3e-5 -4e-5 -3e-5 -3e-5 -4e-5 -3e-5 -4e-5 -3e-5 C 139.141,8.78912 139.01,8.36381 138.914,7.93002 Z m -7.04,0.69585 c -0.012,0.30651 0.188,0.52888 0.391,0.75348 0.078,0.08631 0.156,0.17294 0.223,0.26481 0.462,-0.24608 0.979,-0.02545 1.386,0.20366 -0.121,0.15408 -0.253,0.30278 -0.385,0.45138 v 0 c -0.276,0.3097 -0.551,0.6187 -0.724,0.9742 -0.02,-0.0584 -0.038,-0.1191 -0.056,-0.1802 -0.089,-0.3027 -0.182,-0.6184 -0.528,-0.749 -0.028,0.0297 -0.063,0.0297 -0.099,0.0297 -0.037,0 -0.073,0 -0.103,0.0297 -0.147,-0.3479 -0.5,-0.71277 -0.891,-0.75944 h -0.668 c -0.271,-0.33738 -0.379,-0.74297 -0.486,-1.14967 -0.086,-0.3247 -0.172,-0.65011 -0.342,-0.94206 0.853,0.13152 1.778,0.30548 2.286,1.07344 z M 125.91,4.2726 c -0.037,-0.01697 -0.054,-0.0297 -0.054,-0.07212 l -0.004,0.00424 c -0.887,1.20073 -1.492,2.52451 -1.476,4.1071 -0.089,0.50786 0.085,0.91074 0.258,1.31249 0.169,0.39369 0.338,0.78639 0.259,1.27569 l 0.597,0.42 0.639,-0.594 c 0.432,0.0963 0.456,-0.1615 0.481,-0.4346 0.017,-0.1841 0.035,-0.37513 0.179,-0.46912 0.34,-0.34791 0.718,-0.55157 1.244,-0.46671 0.295,0.43896 0.53,0.24438 0.781,0.03608 0.181,-0.15007 0.37,-0.30726 0.597,-0.23974 0.09,-0.13572 0.032,-0.29593 -0.026,-0.45803 -0.03,-0.08115 -0.059,-0.16278 -0.07,-0.24204 -0.446,-1.07345 -1.123,-2.04931 -1.808,-3.03366 -0.249,-0.2104 -0.367,-0.51533 -0.489,-0.82855 v -3e-5 c -0.089,-0.22996 -0.18,-0.46438 -0.326,-0.66915 l -0.071,-0.41581 c -0.094,0.03422 -0.156,0.118 -0.219,0.20356 -0.063,0.08421 -0.127,0.17015 -0.223,0.21225 -0.052,0.04693 -0.086,0.11214 -0.12,0.17431 -0.041,0.07833 -0.081,0.15182 -0.149,0.17784 z m -1.464,1.68639 v 0.00133 3e-5 4e-5 c -0.162,0.40007 -0.323,0.79902 -0.385,1.24829 -0.328,-0.04697 -0.323,-0.26257 -0.317,-0.49448 0.004,-0.208 0.01,-0.42913 -0.225,-0.55351 -0.159,-0.60335 0.227,-0.52207 0.6,-0.44355 0.149,0.03136 0.295,0.06228 0.405,0.04896 -0.026,0.06447 -0.052,0.12869 -0.078,0.19289 z m -3.874,-1.21671 c -0.156,-0.13073 -0.308,-0.25743 -0.537,-0.27026 -0.138,0.20103 -0.114,0.42579 -0.09,0.6537 0.019,0.18096 0.038,0.36391 -0.023,0.53855 h 0.113 c 0.068,-0.26507 0.25,-0.41516 0.445,-0.57647 0.083,-0.06848 0.168,-0.139 0.249,-0.22119 -0.055,-0.03939 -0.106,-0.08207 -0.157,-0.12433 z m -1.23,2.07193 0.206,-0.27579 c 0.061,0.02023 0.116,0.0636 0.17,0.10629 0.104,0.08266 0.205,0.16279 0.347,0.06767 l 0.668,-1.12012 c 0.024,0.01181 0.052,0.0305 0.082,0.05056 v 4e-5 5e-5 3e-5 c 0.121,0.08082 0.274,0.18375 0.355,-0.05068 0.138,-0.11182 0.113,-0.25306 0.087,-0.40195 -0.022,-0.12228 -0.044,-0.24972 0.022,-0.37025 0.488,0.21106 0.744,-0.22385 0.967,-0.60166 0.072,-0.12345 0.142,-0.2408 0.214,-0.32753 l -0.118,0.30549 c 0.192,0.01369 0.224,0.16725 0.258,0.33203 0.029,0.14163 0.06,0.29155 0.196,0.36804 -0.065,0.20344 0.056,0.27665 0.18,0.35117 0.113,0.06847 0.229,0.13804 0.203,0.31072 0.005,0.14546 -0.046,0.27774 -0.096,0.40619 -0.077,0.19752 -0.149,0.38598 -0.009,0.59937 0.257,0.00748 0.225,0.17633 0.189,0.36508 -0.026,0.13226 -0.053,0.27429 0.017,0.37742 0.379,0.27323 0.212,0.59252 0.046,0.907 -0.178,0.3399 -0.354,0.67419 0.168,0.93865 -0.008,0.1483 -0.067,0.26699 -0.126,0.38495 -0.069,0.13853 -0.138,0.27606 -0.122,0.45939 l -1.937,-0.24609 c -0.02,-0.17985 0.059,-0.34357 0.135,-0.50031 0.106,-0.22044 0.205,-0.42706 0.016,-0.64527 -0.226,0.16186 -0.383,0.39135 -0.538,0.6181 -0.194,0.28441 -0.386,0.56451 -0.706,0.70144 -0.904,0.14846 -1.753,0.46676 -2.48,1.00556 -0.152,-0.0856 -0.151,-0.2142 -0.15,-0.3467 0,-0.1237 0.001,-0.2508 -0.123,-0.3491 0.096,-0.32042 0.063,-0.66165 0.032,-0.99967 v -7e-5 c -0.016,-0.16778 -0.032,-0.33477 -0.032,-0.49803 0.008,0.01554 0.016,0.03108 0.024,0.04651 0.045,0.08571 0.087,0.16816 0.169,0.22928 0.392,-0.14481 0.505,-0.51059 0.615,-0.86546 0.044,-0.1442 0.088,-0.2866 0.15,-0.41165 0.007,0.01537 0.012,0.03239 0.018,0.04985 v 5e-5 c 0.013,0.04522 0.027,0.09346 0.079,0.12406 h 0.109 c 0.071,-0.08751 0.161,-0.17309 0.253,-0.26107 0.244,-0.23196 0.505,-0.48058 0.474,-0.82511 z m -1.946,-4.12559 c -0.387,0.27828 -0.78,0.56068 -1.127,0.9096 -0.673,0.70628 -1.036,1.53737 -1.395,2.36306 -0.11,0.25063 -0.219,0.50077 -0.336,0.74676 v 0.52187 l 0.374,0.0297 c 0.87,0.53885 1.5,1.01405 2.043,1.88808 V 8.20577 c 0.126,-0.22129 0.329,-0.1829 0.531,-0.14486 0.119,0.0225 0.237,0.04487 0.338,0.01333 0.074,-0.13963 0.112,-0.29417 0.148,-0.44793 0.06,-0.24805 0.119,-0.49408 0.332,-0.67219 0.382,0.09912 0.499,-0.14811 0.623,-0.41049 0.078,-0.16442 0.159,-0.33479 0.31,-0.4296 0.134,-0.7758 -0.003,-1.51948 -0.14,-2.26508 -0.068,-0.3717 -0.136,-0.74386 -0.171,-1.12073 l -0.215,-0.44974 c 0.021,-0.11035 0.007,-0.2304 -0.007,-0.34637 -0.019,-0.16051 -0.037,-0.31322 0.041,-0.42159 -0.367,0.47302 -0.853,0.8222 -1.349,1.1781 z m -11.814,3.17934 c 0.607,-0.04348 1.203,-0.13548 1.798,-0.2273 1.146,-0.17696 2.288,-0.35321 3.497,-0.18001 0.227,0.05335 0.434,0.16884 0.639,0.28331 0.3,0.16772 0.596,0.33327 0.946,0.29796 0.011,-0.01804 0.031,-0.032 0.051,-0.04617 0.042,-0.02917 0.085,-0.05926 0.054,-0.12779 -0.2,-0.06812 -0.366,-0.24427 -0.527,-0.41603 -0.111,-0.11708 -0.219,-0.23211 -0.335,-0.3095 1.03,-0.52612 2.114,-0.94616 3.379,-0.90373 -0.399,0.7425 -0.765,1.72685 -1.092,2.61785 -0.461,-0.1893 -0.983,-0.21595 -1.504,-0.24254 -0.553,-0.02825 -1.105,-0.05644 -1.581,-0.27933 -2.337,-0.32246 -4.241,0.73826 -5.838,2.26569 -0.135,-0.00896 -0.212,-0.1102 -0.289,-0.21251 -0.07,-0.09144 -0.14,-0.18374 -0.253,-0.21177 l -1.013,-0.62371 c 0.379,-0.38802 0.891,-0.77604 1.379,-1.14639 v -1e-5 -10e-6 -10e-6 -1e-5 -10e-6 0 -1e-5 -3e-5 c 0.243,-0.18442 0.481,-0.36446 0.693,-0.53794 z m -4.03,1.4383 c -1.6772,-0.36489 -3.4129,0.1485 -4.8334,0.6534 l -0.0042,-0.00424 0.622,1.74382 c 0.3741,0.91646 0.7649,1.85836 1.4584,2.61786 1.1725,1.1625 2.5002,2.0026 4.0262,2.3378 l 0.143,-0.1739 0.071,-1.3493 c 0.131,-0.2242 0.165,-0.4743 0.2,-0.7282 0.02,-0.1449 0.039,-0.291 0.078,-0.4343 l 0.026,-0.0804 c 0.319,-0.9753 0.641,-1.96135 1.386,-2.76659 l -0.231,-0.24609 c -0.9,-0.6831 -1.833,-1.37893 -2.942,-1.56986 z M 97.3658,11.388 c 0.1014,0.1209 0.1615,0.2704 0.2205,0.4169 0.0755,0.1877 0.1491,0.3706 0.3049,0.4826 0.0084,0.1612 0.105,0.2928 0.2647,0.2758 1.4584,1.468 3.0591,2.5245 5.0141,2.7154 l 0.143,0.4667 c -0.782,-0.42 -1.929,-0.263 -2.791,0 -0.183,0.2354 -0.455,0.3966 -0.7079,0.5469 -0.0435,0.0258 -0.0865,0.0513 -0.1284,0.0768 -0.8349,-0.3623 -1.5961,-0.9007 -2.3594,-1.4405 -0.5506,-0.3895 -1.1023,-0.7798 -1.6836,-1.1052 l -0.4791,-0.5219 c 0.5842,-0.7976 1.3155,-1.5995 2.2022,-1.9177 z m -5.9342,0.0255 -0.0378,0.2036 1.1095,0.6704 c 0.0211,0.8735 0.2025,1.6913 0.3834,2.5071 0.2154,0.9713 0.4302,1.9397 0.3731,2.9959 l -0.1429,0.2164 c -0.1837,0.07 -0.3779,0.1149 -0.5721,0.1599 -0.5124,0.1187 -1.0255,0.2375 -1.3485,0.8159 -0.8069,1.1202 -1.0213,2.9658 -0.2228,4.1411 0.7103,1.0437 1.9627,1.3365 3.11,1.1201 l -0.1219,-1.0056 c 0.2144,-1.2643 0.7733,-2.4566 1.9543,-3.2118 0,-0.0354 0.002,-0.0712 0.004,-0.1067 0.0056,-0.1004 0.0111,-0.199 -0.0292,-0.2837 -0.0649,-0.0982 -0.1289,-0.2013 -0.1938,-0.3057 -0.3467,-0.5586 -0.7193,-1.1587 -1.3991,-1.2981 -0.0908,-0.0547 -0.2064,-0.063 -0.3207,-0.0712 -0.187,-0.0135 -0.3705,-0.0267 -0.4357,-0.2427 -0.0143,-0.2202 -0.0242,-0.4303 -0.0339,-0.6361 -0.0216,-0.4605 -0.0422,-0.8997 -0.109,-1.3835 0.0233,-0.3731 -0.0338,-0.7255 -0.09,-1.0727 -0.0551,-0.34 -0.1094,-0.6748 -0.0865,-1.0191 h 0.105 c 0.6357,1.1575 1.2078,2.3418 1.7799,3.5264 v 10e-5 c 0.4682,0.9691 0.9363,1.9384 1.4394,2.893 0.0882,0.1188 0.1429,0.4031 -0.0715,0.4794 -0.996,0.4201 -1.5087,1.4384 -1.8029,2.3803 -0.2017,1.3195 0.2059,2.6433 1.3869,3.3688 0.6766,0.4328 1.7399,0.5516 2.4165,0.0467 0.8532,-0.1527 1.6557,-0.7001 2.0007,-1.5444 0.037,-0.2083 0.123,-0.4269 0.211,-0.6488 0.208,-0.5285 0.423,-1.0756 0.003,-1.5448 0,-0.6719 -0.487,-1.1591 -0.9487,-1.6214 -0.0893,-0.0894 -0.1778,-0.1779 -0.2615,-0.2666 -0.0914,-0.0337 -0.1834,-0.0696 -0.2762,-0.1059 l -6e-4,-2e-4 v 0 h -1e-4 -1e-4 l -5e-4,-2e-4 -2e-4,-1e-4 c -0.5387,-0.2104 -1.1023,-0.4304 -1.6934,-0.2713 0.0562,0.1152 0.1892,0.1733 0.3244,0.2323 0.2086,0.091 0.4226,0.1844 0.369,0.4933 -0.1302,0.2503 -0.3908,0.2503 -0.5841,0.1782 -0.0085,0.0418 -0.0151,0.0846 -0.0217,0.1275 v 10e-5 c -0.0298,0.1924 -0.0599,0.3874 -0.2557,0.5088 -0.1728,0.0993 -0.3168,0.0271 -0.4548,-0.0421 -0.1036,-0.0519 -0.2037,-0.1022 -0.3101,-0.0767 -0.1567,-0.1853 -0.3098,-0.1395 -0.4618,-0.0941 -0.1335,0.0399 -0.2662,0.0796 -0.3997,-0.0374 -0.121,-0.1976 0.0321,-0.3526 0.1687,-0.4908 0.0247,-0.025 0.0489,-0.0495 0.0708,-0.0735 0.0633,-0.0136 0.1252,-0.0498 0.1873,-0.0861 0.1317,-0.077 0.2638,-0.1542 0.4095,-0.0158 0.1788,0.1986 0.364,0.0942 0.539,-0.0045 0.0718,-0.0405 0.1418,-0.08 0.2091,-0.0973 -0.0062,-0.1609 -0.1397,-0.2721 -0.267,-0.3782 v 0 0 0 0 0 0 l -1e-4,-10e-5 v 0 c -0.0472,-0.0394 -0.0936,-0.078 -0.1322,-0.1181 -0.3706,-1.2022 -0.9695,-2.316 -1.5696,-3.4319 -0.516,-0.9597 -1.0328,-1.9208 -1.4059,-2.9409 V 13.747 h 0.0967 c 1.555,1.4681 3.2528,2.5161 5.1188,3.3137 0.183,0.0857 0.3592,0.203 0.5362,0.3209 v 0 c 0.2174,0.1448 0.4365,0.2903 0.6705,0.3792 0.153,-0.3516 -0.108,-0.4744 -0.3888,-0.6062 -0.173,-0.0813 -0.3534,-0.1661 -0.448,-0.3103 -0.27,-0.1054 -0.5254,-0.2583 -0.7793,-0.4103 -0.339,-0.2029 -0.6753,-0.4043 -1.0405,-0.4892 -1.4499,-0.857 -3.1562,-1.9899 -4.2405,-3.5852 -0.0928,-0.2742 0.0848,-0.34 0.2731,-0.4097 0.1527,-0.0565 0.3123,-0.1156 0.3405,-0.2904 -0.9078,0.174 -1.8156,-0.0169 -2.6309,-0.246 z m 7.2161,6.0247 c -0.0635,0.146 -0.1337,0.2897 -0.2041,0.4336 -0.2467,0.5045 -0.495,1.0121 -0.4558,1.6327 -0.2395,-0.017 -0.4875,-0.017 -0.6934,0.1358 l -0.0967,-0.0297 c -0.2794,-0.7615 -0.6362,-1.4895 -0.9921,-2.2155 v -10e-5 -10e-5 0 h -1e-4 v 0 -10e-5 0 0 0 c -0.3024,-0.6169 -0.6041,-1.2324 -0.8569,-1.8659 0.1626,0.1066 0.3252,0.2212 0.4895,0.3371 0.3918,0.2762 0.7928,0.559 1.2252,0.7534 0.063,0.1782 0.2773,0.2333 0.4076,0.2036 l 1.1726,0.6195 z M 88.1409,30.413 c 2.1938,0.6365 5.0853,0.6365 6.7369,-1.0734 -0.1586,-0.6659 -0.0906,-1.4062 -0.024,-2.1298 0.0339,-0.3691 0.0674,-0.7338 0.0702,-1.0821 -0.2094,-0.1452 -0.2783,-0.3463 -0.347,-0.5471 -0.0678,-0.198 -0.1355,-0.3958 -0.338,-0.539 -0.0807,-0.0028 -0.1611,-0.0052 -0.2412,-0.0076 -0.7833,-0.0233 -1.536,-0.0456 -2.23,-0.3998 -1.0338,-0.4497 -1.7525,-1.4807 -1.8954,-2.5881 -0.1429,-1.3747 -0.0462,-2.7706 1.1011,-3.6277 v -0.1018 c -1.8407,0.5346 -3.2192,2.5415 -3.6899,4.2853 -0.1118,0.2586 -0.1076,0.5648 -0.1034,0.8701 0.0045,0.326 0.0089,0.6511 -0.1278,0.9162 -0.0411,-0.0104 -0.0848,-0.0068 -0.1269,-0.0033 -0.0784,0.0064 -0.1515,0.0125 -0.1925,-0.0731 -0.1134,-1.2899 0.2858,-2.3633 0.6935,-3.4537 0.7102,-1.1032 1.5886,-2.4142 2.862,-2.9234 -0.8195,0.0297 -1.5382,0.3098 -2.2484,0.6237 -2.6561,1.3959 -3.5555,4.2853 -3.2781,7.145 0.5631,1.8033 1.4247,3.8823 3.3789,4.7096 z m 6.5058,-12.7964 -0.0049,-0.0016 -0.7264,-1.6998 0.0715,1.4213 c 0.1059,0.1447 0.2948,0.1891 0.4762,0.2318 0.0617,0.0145 0.1224,0.0287 0.1787,0.0467 l 7e-4,0.0016 z m -12.2298,-2.6179 1.2187,0.8443 0.0042,0.0043 c 0.3073,0.1901 0.6092,0.399 0.9117,0.6083 1.0343,0.7155 2.0768,1.4368 3.3709,1.4368 0.8219,-0.4331 1.7968,-0.4878 2.7897,-0.5435 l 0.1437,-0.0081 c 0.2723,0.0075 0.5388,0.0561 0.8042,0.1046 0.337,0.0615 0.6724,0.1228 1.0156,0.099 l -0.0714,-1.8032 c 0.0294,-0.1739 -0.1471,-0.2333 -0.2648,-0.2461 -0.0921,-0.2497 -0.3416,-0.3842 -0.5641,-0.504 -0.1025,-0.0553 -0.1993,-0.1074 -0.2722,-0.1663 -0.1177,-0.0722 -0.248,-0.1273 -0.3741,-0.0722 -1.9752,-1.5698 -5.2281,-1.0607 -7.3505,-0.1739 -0.102,0.0116 -0.167,0.0642 -0.2297,0.115 -0.0741,0.06 -0.1451,0.1175 -0.2704,0.1014 -0.1501,0.2237 -0.4674,0.2142 -0.7295,0.2063 h -1e-4 C 82.5027,15 82.4583,14.9987 82.4169,14.9987 Z m 0.6935,4.7817 c -0.0211,-0.1697 0.0767,-0.261 0.1739,-0.3517 0.0972,-0.0906 0.1938,-0.1808 0.1707,-0.3484 0.129,-0.1392 0.2552,-0.2883 0.3824,-0.4387 v 0 c 0.3533,-0.4178 0.7152,-0.8456 1.1726,-1.1014 0.3315,0.0982 0.6293,0.2738 0.9277,0.4497 0.2689,0.1586 0.5383,0.3175 0.8332,0.4201 v 0.1188 c -0.1834,0.1997 -0.3847,0.3955 -0.5862,0.5914 v 0 c -0.3847,0.3741 -0.7698,0.7486 -1.0318,1.1524 -0.2384,-0.0598 -0.4862,-0.087 -0.7324,-0.114 v 0 0 h -1e-4 C 83.9505,20.107 83.4867,20.0561 83.1062,19.7804 Z m -1.6265,1.9134 c -0.8448,0.0425 -1.5718,0.4498 -2.2022,0.9038 l -0.0042,0.0042 c 0.2037,0.6279 0.6743,1.1695 1.1454,1.7118 0.2674,0.3078 0.5351,0.6159 0.7542,0.94 0.9372,-0.768 1.887,-1.5359 3.0427,-1.8075 0.0047,-0.358 0.1078,-0.7317 0.2108,-1.1052 v 0 c 0.0826,-0.2992 0.1651,-0.5983 0.1969,-0.8889 -0.2143,0.1252 -0.4683,0.0614 -0.7252,-0.0031 -0.126,-0.0317 -0.2528,-0.0635 -0.3759,-0.0733 -0.1788,0.1053 -0.3635,0.0802 -0.5541,0.0544 -0.1319,-0.018 -0.2666,-0.0363 -0.4041,-0.012 -0.1611,0.2084 -0.4157,0.2098 -0.6553,0.2111 -0.1605,9e-4 -0.3144,0.0018 -0.429,0.0647 z m 0.3909,11.0783 c -0.8195,-0.2037 -1.7694,-0.5898 -2.0719,-1.4935 -0.6473,-2.7282 0.7901,-5.083 2.9586,-6.5213 l 1.2819,-0.6492 c -0.1429,2.4524 0.9161,4.4847 2.6645,6.1013 -0.4371,0.5346 -0.8994,1.1455 -1.0381,1.8414 -0.7936,0.83 -2.025,0.7852 -3.1899,0.7429 l -3e-4,-1e-4 c -0.2045,-0.0074 -0.4071,-0.0148 -0.6048,-0.0173 z m 3.7277,4.9854 0.2732,-0.2758 c 0.2966,-0.3511 0.5914,-0.7127 0.8886,-1.0773 h 10e-5 v -1e-4 c 0.8988,-1.1025 1.8199,-2.2323 2.8811,-3.1825 0.1339,-0.1807 0.3056,-0.3513 0.4794,-0.5241 0.3446,-0.3426 0.6976,-0.6935 0.7814,-1.1476 -0.1186,-0.0714 -0.3094,-0.0679 -0.5106,-0.0642 -0.2051,0.0037 -0.4209,0.0077 -0.5821,-0.0673 -0.0884,-0.0104 -0.1775,-0.0203 -0.2671,-0.0302 l -10e-5,-10e-5 c -0.8564,-0.0948 -1.7535,-0.1942 -2.3889,-0.8395 -1.5087,1.9942 -2.0341,4.6163 -1.555,7.2087 z m 13.0787,12.8982 c -0.0195,-0.669 -0.4358,-1.1738 -0.8528,-1.6793 -0.4821,-0.5846 -0.9651,-1.1702 -0.8366,-2.012 l -0.311,-1.9899 c -0.5506,-0.2503 -1.0675,-0.5388 -1.5802,-0.874 -0.134,-0.1899 -0.3177,-0.363 -0.5017,-0.5363 -0.4162,-0.3923 -0.8338,-0.7858 -0.6793,-1.3772 0.0163,-0.0524 0.0333,-0.1053 0.0504,-0.1587 0.1587,-0.4958 0.3309,-1.0336 0.1639,-1.5852 -0.6766,-0.5049 -1.307,-1.2219 -1.5297,-2.0196 -0.1568,-0.2852 0.0285,-0.4907 0.1949,-0.6753 0.1726,-0.1915 0.3249,-0.3603 0.053,-0.5721 -0.115,-0.0349 -0.2347,-0.0537 -0.3534,-0.0724 -0.2847,-0.0446 -0.5633,-0.0884 -0.7561,-0.3519 -1.3322,0.0425 -2.6309,-0.1612 -3.421,-1.3237 0.0252,-0.157 0.0715,-0.4074 0.2942,-0.3946 0.2525,-0.4188 0.6223,-0.6679 0.9842,-0.9117 0.3128,-0.2106 0.6196,-0.4173 0.8398,-0.7261 0.0934,0.1478 0.1845,0.2969 0.2756,0.4461 l 2e-4,2e-4 c 0.4372,0.7159 0.8743,1.4316 1.5734,1.9934 0.1194,0.0414 0.146,-0.0376 0.1682,-0.1034 0.0027,-0.0083 0.0055,-0.0163 0.0083,-0.0239 C 92.4607,35.5362 92.3349,35.4154 92.2049,35.2904 92.1037,35.1933 92,35.0936 91.9485,34.9656 c -0.4121,-0.4161 -0.5358,-0.9522 -0.659,-1.4864 -0.0577,-0.2502 -0.1154,-0.5 -0.2025,-0.7369 0.0129,-0.2517 0.1654,-0.4212 0.3175,-0.5904 0.1453,-0.1617 0.2903,-0.323 0.3129,-0.5552 0.178,-0.2471 0.4782,-0.2357 0.7825,-0.2243 0.2129,0.0081 0.4279,0.0162 0.6044,-0.0642 0.1502,-0.0666 0.3024,-0.1293 0.4549,-0.192 0.5853,-0.2409 1.174,-0.4832 1.6674,-0.9578 0.1415,0.1089 0.225,0.2652 0.3055,0.416 0.1108,0.2075 0.216,0.4046 0.4594,0.4538 0.0547,-0.2037 0.0547,-0.5516 0,-0.7977 -0.5253,-0.8443 -0.5757,-1.905 -0.4791,-2.9615 l 0.1765,-0.454 c 0.6304,0.3055 1.2987,0.5558 2.072,0.5558 -0.0258,0.0983 -0.0581,0.1978 -0.0909,0.2987 -0.1172,0.3606 -0.24,0.7385 -0.0857,1.1397 -0.1938,0.6037 0.0794,1.0786 0.3544,1.5568 0.1425,0.2476 0.2854,0.4962 0.3643,0.764 -0.0069,0.125 -0.096,0.1946 -0.1861,0.2648 -0.13,0.1015 -0.2619,0.2044 -0.1501,0.4777 -0.1292,0.1768 -0.1152,0.4249 -0.1014,0.6698 0.0064,0.1137 0.0127,0.2267 0.0047,0.3315 -1.2272,0.2631 -2.1139,-0.8443 -2.7653,-1.7013 -0.0883,-0.0128 -0.206,0 -0.2228,0.1018 0.2606,0.8104 0.8363,1.5401 1.6012,2.0196 0.1777,0.1746 0.4593,0.2396 0.7352,0.3032 0.4684,0.108 0.9203,0.2123 0.8198,0.8424 -0.0676,0.3157 0.0274,0.5639 0.1225,0.8124 0.094,0.2458 0.1882,0.4919 0.1255,0.8041 0.0687,0.1233 0.0637,0.2807 0.0587,0.4405 -0.006,0.1921 -0.0122,0.3875 0.1094,0.5311 0.0847,0.4225 0.069,0.8598 0.0535,1.2908 -0.0106,0.2963 -0.0211,0.5896 0.0011,0.8731 -0.1698,0.4842 -0.6406,0.6299 -1.0754,0.7646 h -10e-5 c -0.1139,0.0353 -0.2253,0.0698 -0.3282,0.1094 l -1.244,-0.0764 c -0.3194,-0.198 -0.6355,-0.4027 -0.9516,-0.6074 l -3e-4,-2e-4 c -0.395,-0.2558 -0.79,-0.5116 -1.1914,-0.7543 -0.0808,0.0957 -0.0148,0.1915 0.0409,0.2724 0.011,0.0158 0.0215,0.0312 0.0305,0.0458 0.8616,1.2304 2.1602,1.9432 3.6269,1.6632 0.1305,-0.0955 0.2998,-0.1156 0.4702,-0.1359 v 0 c 0.1096,-0.013 0.2196,-0.0261 0.3199,-0.0593 0.1099,-0.1335 0.2293,-0.2369 0.3481,-0.3397 0.1039,-0.0899 0.2073,-0.1794 0.3033,-0.2882 0,0.2593 0.0347,0.5362 0.0697,0.816 0.1087,0.8692 0.2208,1.7659 -0.6916,2.2473 -0.5338,0.2461 -1.118,0.3734 -1.7526,0.4201 0.056,0.1523 0.2078,0.1866 0.3657,0.2222 0.1147,0.0259 0.2327,0.0525 0.3194,0.1257 0.781,0.1748 1.3155,-0.2229 1.8581,-0.6267 l 6e-4,-4e-4 c 0.0499,-0.0372 0.0999,-0.0744 0.1502,-0.1112 0,0.0915 0.0175,0.1862 0.0352,0.2814 0.0356,0.1919 0.0715,0.3858 -0.0352,0.5587 0.024,0.3321 0.0461,0.6666 0.0683,1.0018 0.0862,1.3051 0.1732,2.6198 0.3771,3.8351 0.0389,0.2329 0.0506,0.4714 0.0623,0.7086 v 0 c 0.0261,0.5321 0.0519,1.0575 0.3831,1.4977 -0.016,0.2882 0.126,0.5765 0.262,0.854 l 0.024,0.0497 c -0.319,-0.1293 -0.711,-0.391 -1.1059,-0.6545 v -1e-4 H 99.248 C 99.06,50.8854 98.8713,50.7595 98.6896,50.6472 Z m 1.4248,-4.6332 c -0.1345,4.8496 2.328,8.7149 5.279,12.3001 l 0.008,0.0128 0.06,0.0666 c 1.589,1.7551 3.307,3.6529 5.315,4.5411 3.014,1.3662 7.128,0.9716 9.919,-0.5982 3.278,-1.8584 6.4,-4.5611 8.968,-7.6966 1.484,-1.8032 1.874,-4.0392 2.152,-6.3473 l 0.139,-0.1316 c 0.178,-0.1017 0.324,0.0224 0.459,0.1368 0.04,0.0336 0.078,0.0664 0.116,0.0923 0.193,0.0954 0.379,0.0213 0.557,-0.049 0.043,-0.0173 0.086,-0.0343 0.128,-0.0485 2.412,-2.1015 2.434,-5.3366 2.455,-8.4591 0.002,-0.2945 0.004,-0.588 0.008,-0.8795 h -0.097 c -0.184,0.0594 -0.353,0.1315 -0.382,0.3522 0.088,0.3033 0.044,0.5685 0,0.8337 -0.044,0.2652 -0.088,0.5303 0,0.8337 -0.054,0.1546 -0.062,0.3325 -0.071,0.5095 -0.013,0.2892 -0.026,0.5759 -0.24,0.7549 -0.088,0.0721 -0.185,0 -0.248,-0.0721 -0.071,-0.2398 -0.071,-0.4795 -0.071,-0.7187 0,-0.2392 0,-0.4778 -0.072,-0.7154 -0.205,-0.0466 -0.365,0.1072 -0.529,0.2651 -0.104,0.1011 -0.211,0.2038 -0.332,0.2567 0.231,0.7383 0.428,1.536 0.39,2.3336 -0.125,0.436 -0.429,0.7914 -0.734,1.1492 -0.185,0.2166 -0.371,0.4342 -0.518,0.671 l -0.025,1.0735 c -0.01,0.0199 -0.02,0.0424 -0.03,0.0662 -0.073,0.1634 -0.174,0.3913 -0.39,0.3283 -0.161,-0.304 -0.165,-0.6622 -0.168,-1.0278 -0.002,-0.1139 -0.003,-0.2286 -0.009,-0.3426 0.092,-0.2603 0.245,-0.5048 0.4,-0.7512 0.304,-0.4844 0.612,-0.9765 0.47,-1.6121 -0.248,-0.3372 -0.37,-0.732 -0.492,-1.1242 -0.062,-0.2 -0.123,-0.3993 -0.201,-0.5899 0.017,-0.0805 0.037,-0.1609 0.056,-0.2412 0.111,-0.4571 0.22,-0.9102 -0.023,-1.3541 -1.119,-0.1828 -1.519,-1.1934 -1.888,-2.1265 -0.102,-0.2582 -0.202,-0.5104 -0.314,-0.7375 -0.035,-0.1961 -0.086,-0.3913 -0.138,-0.5873 -0.139,-0.5289 -0.279,-1.0632 -0.11,-1.6359 -0.382,-0.4922 -0.63,-1.048 -0.862,-1.6123 -0.039,-0.0839 -0.036,-0.1871 -0.032,-0.2918 0.005,-0.1495 0.011,-0.3017 -0.11,-0.4041 0.1,-0.7976 0.323,-1.5529 0.659,-2.2657 -0.045,-0.0417 -0.082,-0.0992 -0.12,-0.1569 -0.08,-0.1243 -0.162,-0.2496 -0.325,-0.2207 -0.04,0.0256 -0.08,0.0517 -0.12,0.0781 -0.654,0.4261 -1.438,0.9369 -2.225,0.4735 -0.143,-0.1273 -0.051,-0.3309 0.063,-0.4497 0.933,-0.0594 1.752,-0.3649 2.463,-0.9462 -0.118,-1.816 0.025,-3.6149 1.197,-4.9514 l -0.071,0.0636 c -0.366,0.3522 -1.173,0.2503 -1.618,0 -0.346,-0.0184 -0.507,-0.2461 -0.667,-0.4727 -0.173,-0.2442 -0.344,-0.487 -0.745,-0.465 -0.412,-0.2333 -0.694,-0.6237 -0.668,-1.1031 -0.245,-0.0305 -0.342,-0.2178 -0.441,-0.4068 -0.067,-0.1266 -0.133,-0.254 -0.244,-0.3357 -0.105,0 -0.161,-0.0787 -0.219,-0.1629 -0.01,-0.0136 -0.02,-0.0273 -0.029,-0.0408 -0.08,-0.1315 -0.265,-0.1315 -0.362,0 -0.187,0.1538 -0.421,0.1851 -0.649,0.2155 -0.345,0.0461 -0.675,0.0903 -0.809,0.5525 -0.32,1.0862 -0.034,2.1384 0.277,3.1397 0.043,-0.0226 0.085,-0.0452 0.128,-0.0678 0.596,-0.3163 1.193,-0.6325 1.738,-1.0523 0.127,-0.115 0.23,-0.2529 0.332,-0.3894 0.17,-0.226 0.337,-0.4483 0.601,-0.5568 0.019,0.0321 0.041,0.0625 0.064,0.0932 0.05,0.0668 0.101,0.135 0.113,0.225 -0.321,0.4921 -0.755,0.8099 -1.189,1.1279 -0.311,0.2276 -0.622,0.4554 -0.892,0.7475 -0.105,0.0613 -0.21,0.1397 -0.318,0.2192 -0.331,0.2452 -0.676,0.5013 -1.06,0.3027 -0.027,-0.0992 -0.055,-0.199 -0.083,-0.2994 -0.327,-1.1807 -0.678,-2.4495 -0.333,-3.7399 -0.755,0.1085 -1.401,-0.0353 -2.05,-0.1796 -0.392,-0.0871 -0.785,-0.1745 -1.203,-0.2065 -0.073,-0.0811 -0.162,-0.0373 -0.242,0.0021 -0.078,0.0381 -0.147,0.0719 -0.183,-0.0165 -0.007,-0.0278 -0.014,-0.0555 -0.021,-0.0831 0.005,0.0353 0.012,0.0625 0.021,0.0831 0.381,1.5878 0.692,3.3825 0.37,5.0338 -0.033,0.0669 -0.055,0.1446 -0.077,0.2222 -0.055,0.1929 -0.109,0.3845 -0.343,0.4057 -0.181,-0.0133 -0.205,-0.1675 -0.227,-0.3112 -0.006,-0.0395 -0.012,-0.0783 -0.021,-0.1131 0.286,-1.2898 0.105,-2.6136 -0.239,-3.8313 -0.349,0.8062 -1.043,1.5232 -1.736,2.1299 -0.237,0.1397 -0.459,0.321 -0.681,0.5024 -0.548,0.4471 -1.096,0.8946 -1.862,0.7196 -0.643,0.6072 -1.551,0.6272 -2.403,0.6459 -0.101,0.0022 -0.201,0.0043 -0.299,0.0075 -0.014,-0.0017 -0.028,-0.0035 -0.041,-0.0052 -0.433,-0.0544 -0.937,-0.1178 -1.3,0.1494 -0.727,0.5389 -1.714,0.4625 -2.584,0.3225 -0.284,0 -0.534,0.0936 -0.784,0.1872 -0.26,0.0975 -0.52,0.1948 -0.818,0.1862 -0.107,-0.0471 -0.108,-0.1176 -0.109,-0.1928 -0.001,-0.0604 -0.003,-0.1239 -0.059,-0.1806 0.215,-0.6831 0.677,-1.2347 1.173,-1.7905 0.008,-0.012 0.016,-0.0241 0.025,-0.0365 0.127,-0.1851 0.285,-0.4141 0.151,-0.6169 -1.719,0.8571 -3.484,1.9772 -4.694,3.6913 -0.253,1.0094 -0.744,1.9174 -1.231,2.8194 -0.031,0.0573 -0.062,0.1146 -0.093,0.1718 -0.143,0.0891 -0.311,0 -0.399,-0.1315 0,-0.9589 0.319,-1.8584 0.79,-2.656 0.228,-0.2473 0.4,-0.5291 0.571,-0.8098 0.249,-0.4081 0.497,-0.8139 0.912,-1.108 0.135,-0.1523 0.287,-0.2688 0.44,-0.3857 0.201,-0.1535 0.403,-0.3075 0.565,-0.5435 0.025,-0.0292 0.063,-0.0278 0.098,-0.0265 0.053,0.0019 0.103,0.0037 0.108,-0.0923 0.501,-0.5503 1.193,-0.923 1.835,-1.2692 0.032,-0.0168 0.063,-0.0336 0.094,-0.0503 1.08,-0.2079 1.841,-1.2687 2.286,-2.1978 l 0.072,-0.3183 c -0.243,-0.1196 -0.491,-0.2274 -0.739,-0.3352 -0.509,-0.2212 -1.019,-0.4428 -1.485,-0.7679 -0.092,-0.0499 -0.188,-0.0943 -0.284,-0.1388 -0.279,-0.1295 -0.561,-0.26 -0.771,-0.5316 -0.075,0.3171 -0.208,0.5961 -0.343,0.8779 -0.076,0.1594 -0.153,0.3197 -0.22,0.4883 -0.773,1.3959 -2.206,2.079 -3.723,2.1257 -0.141,0.1562 -0.178,0.4091 -0.215,0.6645 -0.017,0.1192 -0.035,0.2389 -0.063,0.3495 -0.256,1.3069 -1.6891,2.4227 -2.8616,2.7876 -0.1481,0.2964 -0.1628,0.6427 -0.1775,0.9874 -0.0098,0.2327 -0.0197,0.4646 -0.0705,0.6801 l 0.4791,1.642 c 0.0071,0.0092 0.0143,0.0185 0.0215,0.0278 0.2752,0.3563 0.562,0.7276 0.5375,1.2238 -0.0886,0.182 -0.2231,0.1679 -0.3658,0.1528 -0.0402,-0.0042 -0.0811,-0.0085 -0.1218,-0.0085 l -0.0714,0.6534 c 0.4245,3.2203 0.8447,6.4491 1.1011,9.7289 0.0158,0.302 0.0237,0.613 0.0316,0.9274 0.0239,0.9402 0.0484,1.9107 0.2878,2.7596 z" fill="#434569" fill-opacity="1"/><path d="m 124.066,7.20866 c 0.071,-0.52188 0.277,-0.97587 0.462,-1.44258 -0.383,0.04667 -1.227,-0.44975 -1.005,0.39459 0.496,0.26305 -0.079,0.95889 0.543,1.04799 z" fill="#434569" fill-opacity="1"/><path d="m 134.072,22.1224 0.046,0.1697 0.106,-0.0721 z" fill="#434569" fill-opacity="1"/><path d="m 132.324,21.2783 0.622,0.7637 c 0.151,0.0764 0.391,0.1782 0.512,0 0.215,-0.2418 -0.088,-0.4582 -0.121,-0.6916 -0.337,0.1443 -0.757,0.0255 -1.013,-0.0721 z" fill="#434569" fill-opacity="1"/><path d="m 124.242,10.3996 c -0.034,-0.3819 -0.134,-0.72558 -0.311,-1.04804 l -0.168,0.64068 c 0.067,0.19946 0.29,0.34796 0.479,0.40736 z" fill="#434569" fill-opacity="1"/><path d="m 119.107,30.7948 c 0.336,-0.1782 0.659,0.1994 1.029,0.0721 0.811,0.4625 1.904,0.2164 2.694,0.7383 0.87,0.0297 1.517,0.611 2.24,1.048 -0.071,0.2588 0.273,0.3479 0.357,0.5516 -0.168,0.2715 -0.496,0.0721 -0.701,0.0254 -0.135,-0.1867 -0.353,-0.1442 -0.543,-0.2036 -0.437,-0.1188 -0.693,-0.6365 -1.21,-0.4965 -1.126,-1.0564 -2.807,-0.5218 -4.186,-0.8655 -0.374,0.0382 -0.693,0.4285 -1.164,0.314 l -0.168,0.1739 c -0.567,0.0722 -1.034,0.3649 -1.627,0.3225 -0.184,-0.3055 -0.525,0 -0.764,-0.1443 -0.105,-0.8528 0.933,-0.7976 1.403,-1.1498 0.82,-0.2758 1.732,-0.3606 2.644,-0.42 v 0.0297 z" fill="#434569" fill-opacity="1"/><path d="m 104.906,32.611 c 0.071,0.2036 0.21,0.0466 0.344,0.1442 0.425,-0.2885 0.837,0.2291 1.324,0.174 0.488,0.2206 0.933,0.6237 1.307,1.0734 0.088,0.2334 -0.176,0.3055 -0.311,0.3522 -0.424,-0.1188 -0.727,-0.5092 -1.139,-0.6577 -0.882,-0.3733 -1.929,-0.2758 -2.87,-0.4921 -0.597,0.42 -1.513,0.0551 -2.169,0.3224 V 33.451 c -0.365,0.2589 -0.95,0.1613 -1.324,0.4795 -0.2308,0.0127 -0.5166,0.0424 -0.6217,-0.2334 -0.0546,-0.3479 0.1597,-0.5515 0.4287,-0.6958 0.828,-0.4837 1.963,-0.2206 2.9,-0.4964 l 2.135,0.1061 z" fill="#434569" fill-opacity="1"/><path d="m 108.839,35.0887 c 0.677,1.1668 1.761,2.1554 1.866,3.547 0.08,1.1287 -0.071,2.2615 -0.55,3.2034 h -0.105 c 0.806,-2.4778 -0.412,-4.6417 -1.476,-6.6189 -0.105,-0.2036 0.169,-0.2036 0.269,-0.1315 z" fill="#434569" fill-opacity="1"/><path d="m 120.926,37.0109 c 0.118,0.1909 -0.055,0.3606 -0.097,0.5516 -0.184,0.1739 -0.525,0.1866 -0.735,0.0721 -0.185,-0.174 -0.214,-0.4964 -0.097,-0.6958 0.231,-0.2928 0.765,-0.2207 0.933,0.0721 z" fill="#434569" fill-opacity="1"/><path fill-rule="evenodd" clip-rule="evenodd" d="m 118.442,35.9584 c 1.955,-0.5897 3.926,0.0467 5.455,1.0777 0.226,-0.0068 0.319,0.0983 0.415,0.2059 0.083,0.0933 0.168,0.1885 0.342,0.2142 0.039,0.2971 -0.151,0.3188 -0.352,0.3419 -0.124,0.0141 -0.252,0.0287 -0.333,0.1078 -1.832,0.7425 -3.787,1.1626 -5.947,1.1201 -0.605,-0.0085 -1.202,-0.0551 -1.681,-0.3479 0.092,-0.303 0.242,-0.5867 0.391,-0.8695 0.246,-0.4655 0.491,-0.9288 0.475,-1.4726 0.169,-0.2318 0.4,-0.2201 0.632,-0.2084 0.218,0.011 0.436,0.022 0.603,-0.1692 z m 0.24,0.717 c -0.74,0.0127 -1.353,0.9843 -1.45,1.5529 h 0.004 c 0.365,0.2791 1.073,0.2416 1.596,0.2138 0.073,-0.0039 0.143,-0.0075 0.207,-0.0102 -0.386,-0.4412 -0.517,-1.188 -0.357,-1.7565 z m 2.816,1.2645 c -0.517,0.4243 -1.53,0.4752 -2.24,0.3903 -0.496,-0.3521 -0.471,-0.9589 -0.391,-1.5274 0.071,-0.1146 0.193,-0.2928 0.374,-0.2928 0.878,-0.0297 1.904,0 2.639,0.3904 0.092,0.3714 -0.143,0.7006 -0.351,0.9912 l -0.031,0.044 z m 0.613,-0.8274 c -0.054,0.2928 -0.159,0.5516 -0.319,0.7977 0.462,-0.0128 1.084,-0.157 1.412,-0.3776 -0.224,-0.1889 -0.643,-0.3002 -0.961,-0.3847 -0.046,-0.0123 -0.09,-0.024 -0.132,-0.0354 z" fill="#434569" fill-opacity="1"/><path d="m 105.322,38.2287 c 0.029,0.2588 -0.017,0.5219 -0.248,0.6534 -0.24,0.0552 -0.589,0.0552 -0.719,-0.2036 -0.071,-0.2292 -0.055,-0.5813 0.206,-0.6662 0.273,-0.0721 0.584,-0.0466 0.765,0.2164 z" fill="#434569" fill-opacity="1"/><path fill-rule="evenodd" clip-rule="evenodd" d="m 108.19,38.8919 c 0.168,-0.1058 0.365,-0.2298 0.305,-0.4299 v -0.0043 c -0.642,-0.173 -1.23,-0.4899 -1.818,-0.8071 -1.086,-0.5849 -2.173,-1.1712 -3.604,-0.8603 -1.019,0.0241 -1.795,0.7069 -2.545,1.367 -0.175,0.1537 -0.348,0.3063 -0.523,0.4489 l 0.063,0.0976 c 0.536,0.1014 0.983,0.3916 1.428,0.6808 0.225,0.1465 0.45,0.2926 0.686,0.4139 1.858,0.3225 4.186,0.5855 5.653,-0.768 l 0.214,-0.0424 c 0.038,-0.0315 0.088,-0.063 0.141,-0.0962 z m -4.387,-1.3575 c 0.113,0.0065 0.222,0.0128 0.308,-0.0017 0.123,0.0127 0.255,0.0224 0.39,0.0323 0.638,0.0469 1.371,0.1008 1.804,0.5066 0.088,0.6364 -0.702,1.4256 -1.021,1.4256 -0.421,0.0127 -1.261,0.0382 -1.61,-0.1952 -0.477,-0.3332 -0.464,-0.8055 -0.45,-1.3194 v 0 c 0.002,-0.0881 0.005,-0.1774 0.005,-0.2674 0.058,-0.2108 0.324,-0.1953 0.574,-0.1808 z m -0.793,0.1173 c -0.576,0.1315 -1.13,0.4497 -1.483,0.8528 0.407,0.5346 1.18,0.8061 1.828,0.8316 -0.306,-0.403 -0.327,-1.0891 -0.342,-1.5791 z m 3.175,1.516 c 0.157,-0.2629 0.381,-0.6366 0.381,-0.9305 0.035,0.0301 0.091,0.0651 0.152,0.1043 0.235,0.1491 0.564,0.3589 0.301,0.5873 -0.166,0.1942 -0.582,0.3098 -0.848,0.3836 -0.03,0.0084 -0.059,0.0163 -0.085,0.0237 0.027,-0.0479 0.061,-0.1049 0.099,-0.1684 z" fill="#434569" fill-opacity="1"/><path d="m 109.39,44.385 c -0.248,0.5516 -0.66,1.1371 -0.446,1.7863 0.311,0.8443 1.085,0.1315 1.69,0.3479 0.424,0.1612 0.836,0.3522 1.172,0.7255 l -0.025,0.2461 c -1.198,-0.0976 -2.639,-0.0721 -3.316,-1.2134 -0.071,-0.7722 0.366,-1.4681 0.87,-1.9942 l 0.055,0.0976 z" fill="#434569" fill-opacity="1"/><path d="m 117.455,45.0555 c 0.122,0.5346 0.096,1.205 -0.32,1.5954 -0.311,0.2461 -0.676,0.3055 -1.038,0.3946 v -0.1019 c 0.399,-0.3776 0.879,-0.7552 0.933,-1.2898 0.063,-0.5261 -0.353,-0.8316 -0.407,-1.2983 0.374,0.0127 0.613,0.437 0.836,0.6958 z" fill="#434569" fill-opacity="1"/><path d="m 115.303,46.5528 c -0.009,0.1188 -0.097,0.2334 -0.214,0.2758 -0.669,0.3055 -1.253,-0.4497 -1.824,0.1146 -0.089,-0.034 -0.248,-0.0891 -0.135,-0.2164 0.168,-0.314 0.429,-0.751 0.815,-0.8274 0.526,0.0594 1.005,0.2334 1.349,0.6534 z" fill="#434569" fill-opacity="1"/><path fill-rule="evenodd" clip-rule="evenodd" d="m 121.45,50.9474 c 0.118,0.045 0.228,0.087 0.312,-0.0663 -0.037,-0.1214 -0.019,-0.2779 -0.001,-0.4342 0.036,-0.3137 0.072,-0.6265 -0.343,-0.652 -0.066,0.3098 -0.292,0.511 -0.516,0.7092 v 0 0 c -0.049,0.0434 -0.097,0.0867 -0.144,0.1309 -1.178,0.556 -2.414,0.3976 -3.654,0.2388 -1.06,-0.1358 -2.122,-0.2719 -3.154,0.037 -0.685,0.4625 -1.715,0.4455 -2.488,0.1697 l -2.371,0.5728 c -0.186,0.0036 -0.383,0.0349 -0.582,0.0665 -0.499,0.0791 -1.012,0.1604 -1.393,-0.1853 -0.2,-0.032 -0.216,-0.1497 -0.234,-0.2794 -0.012,-0.0938 -0.026,-0.1938 -0.111,-0.2722 -0.033,0.0104 -0.073,0.0068 -0.113,0.0031 -0.074,-0.0068 -0.151,-0.0138 -0.198,0.0691 -0.004,0.0854 -0.034,0.1837 -0.064,0.2843 -0.072,0.2441 -0.148,0.5009 0.111,0.6151 0.153,-0.306 0.384,-0.1413 0.594,0.0084 v 0 c 0.078,0.0557 0.154,0.1094 0.221,0.1359 1.194,1.2644 2.551,2.6009 3.866,3.7931 1.03,0.6365 2.4,0.6959 3.627,0.4922 1.884,-0.2787 3.037,-1.7097 4.215,-3.1704 0.651,-0.8077 1.309,-1.6244 2.102,-2.2605 0.104,-0.0875 0.214,-0.0454 0.318,-0.0058 z m -10.014,0.7059 c 0.854,0.3479 1.925,0.2758 2.682,-0.2164 v -0.0042 c 0.992,-0.2547 1.989,-0.1263 2.981,0.0013 0.496,0.0638 0.99,0.1274 1.482,0.1429 -0.311,0.2334 -6.897,2.0069 -10.229,0.6534 z m 8.112,0.2759 c -0.258,0.1946 -0.515,0.3971 -0.773,0.6007 -1.032,0.813 -2.084,1.6422 -3.27,2.0426 -1.866,0.7595 -4.594,0.3394 -6.107,-0.8486 0.26,0.248 0.65,0.5593 1.042,0.8718 v 0 c 0.413,0.3292 0.828,0.6597 1.093,0.9187 1.084,0.4667 2.463,0.5813 3.669,0.3225 1.27,-0.3263 2.178,-1.4188 3.068,-2.4901 0.418,-0.503 0.832,-1.0013 1.278,-1.4134 z m 0.036,-0.4028 c 10e-4,-3e-4 10e-4,-4e-4 10e-4,-4e-4 l 0.005,-0.0043 c -0.002,0.0016 -0.004,0.0031 -0.006,0.0047 z m -4.496,1.1239 c 2.062,-0.3014 4.434,-1.103 4.496,-1.1239 -0.077,0.0665 -0.156,0.1342 -0.236,0.2027 -1.579,1.3601 -3.554,3.0597 -5.76,2.979 -1.883,0.174 -4.106,-0.8443 -5.022,-2.0281 2.063,0.5049 4.442,0.2801 6.522,-0.0297 z" fill="#434569" fill-opacity="1"/></g><path d="m 118.22,44.0494 c 0,0 -0.253,1.0904 1.866,2.0918 2.366,1.1201 2.328,2.2105 2.534,2.1638 0,0 0.151,-1.0692 -0.711,-1.8117 -0.861,-0.7467 -2.693,-0.6449 -3.219,-2.1172 -0.193,-0.5515 -0.496,-0.6322 -0.47,-0.3309 z" fill="#434569" fill-opacity="1"/><path d="m 106.7,48.6657 c 0,0 0.567,-1.4765 1.421,-2.2869 0,0 -0.282,-0.5261 -0.896,0.3776 -0.613,0.908 -0.71,1.4299 -0.525,1.9051 z" fill="#434569" fill-opacity="1"/></g></g></svg>