<svg width="128" height="30" version="1.1" id="A" xmlns="http://www.w3.org/2000/svg" x="0px" y="0px" viewBox="0 0 210 43" style="enable-background:new 0 0 210 43;" xml:space="preserve">
<style type="text/css">
	.st0{fill:none;}
	.st1{fill:#EED4F1;}
</style>
<g>
	<polygon class="st0" points="14.7,25.7 14.8,25.7 28.7,25.7 28.7,13.2 28.7,13.2 28.7,8.1 22.9,8.1  "/>
	<path class="st0" d="M195.9,18.1h-0.5c-3.2,0-6,2.3-6.9,5.4h13.6C201.4,20.1,199.2,18.3,195.9,18.1z"/>
	<path class="st1" d="M28.7,2.9h-9.3l-11,22.8L5.8,31l-4.3,8.6H8l4-8.7h16.6v8.7h5.8V13.2l0,0V8h-5.8L28.7,2.9L28.7,2.9z M28.7,13.2   L28.7,13.2v12.5h-14L23,8.2h5.7V13.2z"/>
	<polygon class="st1" points="47.8,18.5 56.5,18.5 56.5,13.2 53.5,13.2  "/>
	<polygon class="st1" points="42,13.2 42,18.5 42,25.7 42,39.6 47.8,39.6 47.8,25.7 47.8,18.5 47.8,13.2  "/>
	<path class="st1" d="M72.3,18.4c2.3,0,4.6,1,6.1,2.8l4-4.1c-2.6-2.8-6.2-4.4-10-4.4h-0.1c-7.8,0-13.6,5.9-13.6,13.6   s5.8,13.6,13.6,13.6h0.1c3.8,0.1,7.5-1.5,10-4.4l-4-4.1c-1.5,1.8-3.8,2.8-6.1,2.8c-4.5,0-7.6-3.4-7.6-8S67.9,18.4,72.3,18.4z"/>
	<g>
		<path class="st0" d="M98.9,18.3h-0.1c-4.4,0.1-7.6,3.5-7.6,8.1c0,4.6,3.2,8,7.6,8.1h0.1c2.8,0,5.5-1.3,7.1-3.6v-9    C104.3,19.6,101.7,18.3,98.9,18.3z"/>
		<path class="st1" d="M105.9,13.2v2c-2-1.6-4.6-2.4-7.1-2.4c-7.8,0-13.6,5.9-13.6,13.6C85.2,34.1,91,40,98.8,40    c2.6,0.1,5.1-0.8,7.1-2.3v1.9h5.8V13.2H105.9z M106,30.9c-1.6,2.3-4.3,3.6-7.1,3.6h-0.1c-4.4-0.1-7.6-3.5-7.6-8.1    c0-4.6,3.2-8,7.6-8.1h0.1c2.8,0,5.4,1.3,7.1,3.6V30.9z"/>
	</g>
	<polygon class="st1" points="124.5,18.5 136.8,18.5 136.8,23.8 136.8,31.3 136.8,39.6 142.6,39.6 142.6,31.3 142.6,23.8    142.6,18.5 142.6,13.2 130.2,13.2  "/>
	<polygon class="st1" points="118.7,13.2 118.7,23.8 118.7,31.3 118.7,39.6 124.5,39.6 124.5,31.3 124.5,23.8 124.5,18.5    124.5,13.2  "/>
	<polygon class="st1" points="149.4,18.5 149.4,23.8 149.4,31.3 149.4,39.6 155.2,39.6 155.2,31.3 155.2,23.8 155.2,18.5    155.2,13.2 149.4,13.2  "/>
	<path class="st1" d="M178,18.5l1.3-5.3h-8V5.1L165.5,8v5.3h-5.2v5.3h5.2v13c0,5,3,8,8.1,8h5.1v-5.3H175c-3,0-3.7-0.3-3.7-3V18.5   H178z"/>
	<path class="st0" d="M195.9,18.1h-0.5c-3.2,0-6,2.3-6.9,5.4h13.6C201.4,20.1,199.2,18.3,195.9,18.1z"/>
	<g>
		<path class="st0" d="M195.9,18.1h-0.5c-3.2,0-6,2.3-6.9,5.4h7.4h6.2C201.4,20.1,199.2,18.3,195.9,18.1z"/>
		<path class="st1" d="M208.5,26.4c0-1-0.1-1.9-0.3-2.9c-1.3-6.7-5.8-10.7-12.3-10.7h-0.5c-7.4,0.2-13.2,6.3-13.1,13.6    c0,0.5,0.1,1.1,0.1,1.6c0,0.3,0,0.5,0.1,0.8l0,0c1,6.3,6.1,11,12.8,11.2h0.5c4.7,0,8.6-2,10.8-4.6l-3.9-4.2c-1.8,1.9-4.3,3-6.9,3    h-0.5c-3.4-0.2-6.1-2.3-6.9-5.5h19.9v-2.3H208.5z M195.9,23.5h-7.4c0.8-3.1,3.6-5.3,6.9-5.4h0.5c3.2,0.2,5.5,2,6.2,5.4H195.9z"/>
	</g>
</g>
</svg>
