<?xml version="1.0" encoding="UTF-8"?>
<svg width="109px" height="36px" viewBox="0 0 109 36" version="1.1" xmlns="http://www.w3.org/2000/svg" xmlns:xlink="http://www.w3.org/1999/xlink">
    <!-- Generator: Sketch 52.5 (67469) - http://www.bohemiancoding.com/sketch -->
    <title>05 Logo / Bic</title>
    <desc>Created with Sketch.</desc>
    <defs>
        <polygon id="path-1" points="0 0.290731034 103.900702 0.290731034 103.900702 35.3792326 0 35.3792326"></polygon>
    </defs>
    <g id="05-Logo-/-Bic" stroke="none" stroke-width="1" fill="none" fill-rule="evenodd">
        <g id="Group-50">
            <g id="Group-3" transform="translate(0.000000, 0.330083)">
                <mask id="mask-2" fill="white">
                    <use xlink:href="#path-1"></use>
                </mask>
                <g id="Clip-2"></g>
                <path d="M20.8563449,28.7325931 C22.0441972,32.672731 25.7204699,35.3578345 31.3036233,35.3578345 L82.696504,35.3578345 C85.1459074,35.3578345 88.5614472,35.8872828 93.812646,31.6790069 C103.665379,23.7757655 104.586924,10.4203862 103.586726,6.67638621 C102.680663,3.27997241 99.9092142,0.800317241 96.3208847,0.800317241 L41.9249301,0.800317241 C39.2141744,0.800317241 36.2717938,0.662524138 31.1574642,5.18548966 C26.8470097,8.99776552 24.4874074,13.4909379 21.8131915,19.928731 C22.3947313,16.6589379 19.9081688,13.4481103 19.9081688,13.4481103 C21.4069188,12.0602483 22.3427085,10.0783862 22.3427085,7.87307586 C22.3427085,3.68404138 18.9556574,0.290731034 14.7764983,0.290731034 C10.5991972,0.290731034 6.90062898,3.54562759 6.90062898,7.73342069 C6.90062898,8.59804138 7.04740739,9.42355862 7.3099983,10.1994207 C7.3099983,10.1981793 4.55712898,8.4528 3.68760625,8.01645517 C2.8174642,7.58321379 1.29703807,7.21638621 0.569339205,8.16355862 C-0.152785795,9.10824828 -0.226484659,10.8492828 0.569339205,12.1595586 C1.36702102,13.4661103 3.97744716,17.3162483 6.51355511,18.6985241 C6.51355511,18.6985241 6.22247557,21.9658345 8.25321989,23.1997655 C8.25321989,23.1997655 8.18137898,25.452869 9.12336193,26.0319724 C9.12336193,26.0319724 9.27075966,27.126869 9.77674261,27.4136276 L9.77674261,29.7393517 C9.77674261,29.7381103 7.01891875,32.0644552 8.39628239,34.0965931 C9.77674261,36.1293517 13.0368335,35.1132828 13.6914528,34.6769379 C13.6914528,34.6769379 18.332004,35.9859724 19.2696517,33.950731 C20.2147313,31.916731 19.4158108,30.4661793 18.332004,29.7393517 L18.332004,27.776731 L20.8563449,28.7325931 Z" id="Fill-1" fill="#fff7ae" mask="url(#mask-2)"></path>
            </g>
            <path d="M31.5934023,32.6844 C24.1999818,32.6844 22.4274932,27.868469 25.3612034,20.4804 C27.6080898,14.8159862 29.6369761,10.9602621 33.334925,7.69295172 C37.5679648,3.94957241 40.0018852,4.06315862 42.247533,4.06315862 L95.0153,4.06315862 C97.9905045,4.06315862 100.888294,6.02143448 101.034453,8.92936552 C101.179993,11.8335724 99.554283,23.0922621 91.3941466,29.6330897 C87.042817,33.1201241 84.2131523,32.6844 82.1836466,32.6844 L31.5934023,32.6844 Z" id="Fill-4" fill="#fd8022"></path>
            <path d="M27.8212591,31.3509103 C28.8189807,31.7487724 30.0737193,31.9585655 31.5935261,31.9585655 L82.1831511,31.9585655 C82.2407477,31.9585655 82.5219182,31.963531 82.8043273,31.9691172 C84.6740489,32.0063586 87.2151114,32.0566345 90.9440261,29.0680138 C96.6151227,24.5227034 99.040992,17.5989103 99.9098955,12.9921517 C100.081447,12.0865655 100.191066,11.2790483 100.253617,10.6018759 C100.31493,9.93463448 100.331032,9.39028966 100.31431,9.00173793 L100.312452,8.96325517 C100.22389,7.19925517 98.9059807,5.83435862 97.215242,5.19194483 C96.8739977,5.06222069 96.5185091,4.96166897 96.1568273,4.89401379 C95.7908102,4.82573793 95.420458,4.78911724 95.0544409,4.78663448 L95.0544409,4.78973793 L95.0154239,4.78973793 L42.2476568,4.78973793 L42.2476568,4.78663448 L42.0544295,4.78663448 C39.9908614,4.78353103 37.7192023,4.78042759 33.8125432,8.23518621 L33.8125432,8.23766897 C32.023333,9.81918621 30.6360602,11.5453241 29.4240545,13.5619448 C28.19285,15.6102207 27.1387705,17.9558069 26.0320489,20.7470483 C25.1792477,22.8940138 24.7407705,24.8063586 24.7407705,26.4220138 C24.7407705,27.6360828 24.990975,28.669531 25.5025318,29.4931862 C26.0060375,30.3050483 26.77585,30.9338069 27.8212591,31.3509103 Z M31.5935261,33.4109793 C29.8953557,33.4109793 28.4628727,33.1645655 27.2892648,32.6959448 C25.9416284,32.1584276 24.9408102,31.3341517 24.2738045,30.2591172 C23.6142307,29.1958759 23.2909466,27.9054621 23.2909466,26.4220138 C23.2909466,24.6307034 23.766583,22.5396 24.689367,20.2138759 C25.8289125,17.3413241 26.9145773,14.9256 28.1835602,12.8133931 C29.4723614,10.6701517 30.9488159,8.83353103 32.8556966,7.14835862 L32.8575545,7.15022069 C37.1748216,3.33235862 39.7319864,3.33608276 42.0544295,3.33918621 L42.2476568,3.3398069 L42.2476568,3.33670345 L95.0154239,3.33670345 L95.0544409,3.33670345 L95.0569182,3.3398069 C95.5207875,3.34228966 95.979083,3.38697931 96.4225148,3.47015172 C96.8702818,3.55394483 97.3075205,3.67746207 97.7249409,3.83573793 C99.9216625,4.66994483 101.636555,6.49601379 101.756083,8.89497931 L101.757941,8.93346207 L101.757941,8.93594483 C101.77714,9.37911724 101.759799,9.99111724 101.691674,10.7322207 C101.624787,11.4640138 101.507736,12.3199448 101.331231,13.2590483 C100.418975,18.0960828 97.8580943,25.3773931 91.8438955,30.197669 C87.7062307,33.5140138 84.8654182,33.457531 82.7758386,33.4165655 C82.6389693,33.4140828 82.5151057,33.4109793 82.1831511,33.4109793 L31.5935261,33.4109793 Z" id="Fill-6" fill="#fff7ae"></path>
            <path d="M37.1751313,23.8201448 L40.5801426,18.6622138 L45.1476142,18.6622138 C46.0177563,18.6622138 46.8141994,19.3189034 46.4556142,20.9513172 C46.0920744,22.5862138 43.4451085,23.8201448 42.6486653,23.8201448 L37.1751313,23.8201448 Z M42.9762847,15.5047655 L45.5476938,11.6912483 L49.1707051,11.6912483 C49.6797847,11.6912483 51.0930688,11.7620069 51.0181313,13.2504207 C50.9487676,14.7425586 48.3742619,15.5047655 47.5053585,15.5047655 C46.6352165,15.5047655 42.9762847,15.5035241 42.9762847,15.5047655 Z M29.2744892,27.1631793 L47.2520574,27.1631793 C49.2821824,27.1631793 54.2088585,25.5953172 54.7154608,21.3535241 C54.9353188,19.5349034 53.2290972,18.081869 52.2524324,17.7175241 C52.2524324,17.7175241 58.6648528,16.9205586 58.6648528,12.1251103 C58.6648528,9.91173103 56.2755233,8.82055862 54.4621597,8.82055862 L38.4428756,8.82055862 L29.2744892,27.1631793 Z" id="Fill-8" fill="#fff7ae"></path>
            <polygon id="Fill-10" fill="#fff7ae" points="54.9527216 27.1630552 63.506125 27.1630552 68.6532784 12.9610552 63.3958864 12.9610552"></polygon>
            <path d="M67.7576205,12.5592828 C69.2142568,12.3681103 70.2726716,11.2403172 70.117842,10.0355586 C69.9555807,8.83514483 68.6482,8.01397241 67.190325,8.20328276 C65.7312114,8.39197241 64.6789898,9.52224828 64.8338193,10.7270069 C64.9898875,11.9317655 66.3003648,12.7498345 67.7576205,12.5592828" id="Fill-12" fill="#fff7ae"></path>
            <path d="M87.0774369,16.9207448 L90.8119256,16.9207448 L98.1310278,9.00074483 L90.5964028,9.00074483 L89.8358801,10.3817793 C89.8358801,10.3817793 88.4913403,8.38315862 83.710204,8.38315862 C78.9247324,8.38315862 71.9697892,11.1073655 70.2976301,17.3558483 C68.6335222,23.604331 73.0585506,27.4569517 78.7816699,27.4569517 C84.5029312,27.4569517 87.9147551,25.7829517 90.7394653,22.5857793 L88.5309767,20.4804 C88.5309767,20.4804 85.4120903,25.2770897 79.5812097,23.892331 C77.0742097,23.3020552 77.1126074,18.1571586 80.3751756,14.7421241 C83.6358858,11.3277103 85.8480903,11.7274345 86.6086131,12.1619172 C87.3685165,12.5970207 88.7464994,13.4715724 87.0774369,16.9207448" id="Fill-14" fill="#fff7ae"></path>
            <path d="M9.27069773,8.49357931 C9.27069773,5.60551034 11.6018114,3.26054483 14.4872148,3.26054483 C17.3707602,3.26054483 19.708067,5.60551034 19.708067,8.49357931 C19.708067,11.3810276 17.3707602,13.7228897 14.4872148,13.7228897 C11.6018114,13.7228897 9.27069773,11.3810276 9.27069773,8.49357931" id="Fill-16" fill="#fd8022"></path>
            <path d="M10.9750614,7.47763448 C10.9750614,6.45349655 11.7999932,5.62611724 12.8200102,5.62611724 C13.8406466,5.62611724 14.6661977,6.45349655 14.6661977,7.47763448 C14.6661977,8.49742759 13.8406466,9.32791034 12.8200102,9.32791034 C11.7999932,9.32791034 10.9750614,8.49742759 10.9750614,7.47763448" id="Fill-18" fill="#fff7ae"></path>
            <path d="M2.08896023,11.2036345 C2.58936932,13.4480483 5.14963068,15.7650828 7.09367045,17.2299103 C7.24044886,17.338531 7.56249432,17.7177724 7.49375,17.0468069 C7.49375,17.0468069 7.49375,16.7184621 7.74643182,16.9717034 C8.00035227,17.2299103 18.8867273,25.6383931 19.3803239,26.0207379 C19.688125,26.2522552 19.9686761,26.3621172 20.1780057,26.4527379 C20.5533125,26.624669 20.830767,26.8139793 21.0258523,26.8909448 C21.3745284,27.0188069 21.4637102,26.9455655 21.284108,26.6563241 C21.1980227,26.5222552 20.9088011,26.0424621 20.7954659,25.8556345 C20.5979034,25.5397034 20.4505057,25.2939103 20.19225,25.0760483 C19.8256136,24.7588759 9.99331818,16.1567379 9.99331818,16.1567379 C9.99331818,16.1561172 3.22107386,10.1962552 2.88911932,9.83563448 C2.63705682,9.5643931 2.38313636,9.32791034 2.29395455,9.74687586 C2.22954545,10.0354966 2.04003409,10.9603241 2.08896023,11.2036345" id="Fill-20" fill="#fd8022"></path>
            <path d="M13.9918222,14.5944 C14.0797653,14.7619862 14.1906233,15.0332276 14.1807142,15.1393655 C14.0859585,16.0449517 13.7608165,16.1244 13.6536744,15.8599862 C13.4846006,15.4366759 13.3353449,15.1312966 13.2009528,14.9109517 C13.6264244,15.0624 13.8698165,14.8054345 13.9918222,14.5944 Z M15.5921403,15.0214345 L15.5735608,15.0686069 C15.5029585,15.2554345 15.1765778,16.0555034 14.9771574,16.0555034 C14.7764983,16.0555034 14.5405381,15.2299862 14.6142369,15.1046069 C14.6538733,15.034469 14.6990835,14.9233655 14.7492483,14.7992276 C14.9319472,14.9810897 15.2174528,15.1524 15.5921403,15.0214345 Z M17.9474074,23.640331 L18.4286176,23.5217793 C18.248396,23.0674345 18.6459983,22.7626759 18.6893506,22.5510207 C18.7853449,22.1320552 18.8900097,18.1732966 18.563629,17.4272276 C18.2973222,16.8239172 16.3334642,14.4137793 16.0844983,14.3790207 C15.9240949,14.3548138 15.7878449,14.5726759 15.6937085,14.7756414 C15.2868165,15.0139862 14.9876858,14.802331 14.8235665,14.6167448 C14.8446233,14.5677103 14.8656801,14.5168138 14.8879756,14.4696414 C14.993879,14.2325379 14.7932199,14.2151586 14.6662597,14.2325379 C14.5077142,14.2517793 14.0432256,14.2325379 14.0432256,14.2325379 C13.8995437,14.2188828 13.8605267,14.3206759 13.8852994,14.4081931 C13.8004528,14.6006069 13.5335267,15.0108828 12.9272142,14.548469 L12.9247369,14.5515724 C12.6237483,14.2672966 12.3958392,14.4168828 12.1505892,14.4696414 C11.7331688,14.5565379 10.9528278,14.7253655 10.4487028,14.9562621 C9.94148125,15.196469 8.90660057,20.3891586 8.83352102,20.9006069 C8.76044148,21.4058483 8.92270284,21.4058483 9.03479943,21.4952276 C9.13822557,21.586469 9.77674261,21.948331 10.1384244,22.1320552 C10.5007256,22.3139172 10.5527483,22.4417793 10.5527483,22.6062621 L10.5527483,25.0027448 C10.5527483,25.2181241 10.4716176,25.8195724 10.9385835,25.798469 C11.4142199,25.7829517 11.4235097,26.0697103 11.4433278,26.1994345 C11.4612881,26.3279172 11.2959301,27.2533655 11.7152085,27.2893655 C12.130771,27.3259862 12.1673108,27.3551586 12.1673108,27.7281931 L12.1673108,30.9402621 C12.1673108,31.396469 12.1586403,31.5795724 12.0403506,31.648469 C11.097129,32.1921931 10.1898278,33.396331 10.7168676,33.6638483 C11.4612881,34.044331 13.1836119,32.4665379 13.7453335,32.4845379 C14.0395097,32.494469 14.1807142,32.7024 14.5981347,32.7235034 C14.8489585,32.7315724 15.0316574,32.9562621 15.6837994,33.2473655 C16.3365608,33.5397103 16.8735097,33.3882621 16.8976631,32.8296414 C16.9137653,32.4311586 16.5694244,32.1220552 16.1173222,31.8489517 C15.6646006,31.5746069 15.6101006,31.3567448 15.6101006,31.3567448 C15.6101006,29.7975724 15.7581176,29.2526069 15.7581176,29.0701241 C15.7581176,27.3998483 16.054771,27.4644 16.3173619,27.2335034 C16.4430835,27.1261241 16.354521,26.5662621 16.354521,26.3279172 C16.354521,26.0901931 16.300021,25.8375724 16.6610835,25.8375724 C17.0246233,25.8375724 17.3869244,25.7289517 17.3503847,25.402469 C17.3057937,24.9890897 17.3132256,24.3137793 17.6699528,24.6688138 L17.9474074,23.640331 Z" id="Fill-22" fill="#fff7ae"></path>
            <path d="M9.47575398,21.345269 C9.7284358,21.5823724 10.1532881,21.6394759 10.4827653,21.7512 C10.8271062,21.8728552 10.7738449,21.1286483 10.7738449,21.0063724 C10.7738449,20.697269 10.2882994,20.4775448 10.3384642,20.1709241 C10.4394131,19.5558207 10.7825153,18.5180276 10.9955608,18.0432 C11.0067085,17.9929241 11.0822653,17.873131 11.1454358,17.873131 C11.2079869,17.873131 11.2271858,17.9178207 11.2302824,18.0909931 C11.097129,20.4713379 10.9528278,22.5407172 10.9528278,24.9669931 C10.9528278,25.7285793 11.6235494,25.5616138 11.8979074,25.5616138 C13.4294812,25.5876828 14.9573392,25.5845793 16.5830494,25.4660276 C16.8474983,25.4486483 16.9571176,25.0874069 16.9719812,24.9098897 C17.0246233,23.7529241 16.7917597,22.5792 16.8598847,21.3688552 C16.9044756,20.6190621 16.7694642,19.0288552 17.1119472,19.0288552 C17.4593847,19.0288552 16.8815608,22.5506483 17.4401858,23.3680966 C18.8175494,22.9869931 18.5109869,20.0126483 18.3840267,18.1164414 C18.332004,17.3380966 16.8221063,15.5238207 16.1377597,14.9409931 C15.8609244,15.4338207 15.5333051,15.9974069 15.2292199,16.4840276 C14.993879,16.8669931 14.6340551,17.5547172 14.3231574,17.5547172 C14.0710949,17.5547172 13.4753108,16.3220276 13.195379,15.6330621 C13.070896,15.317131 12.7748619,14.7330621 12.4769699,14.7765103 C11.860129,14.8658897 10.5899074,15.0682345 10.4487028,15.5585793 C9.9092767,17.3703724 9.4664642,18.9760966 9.23236193,20.8915448 C9.1902483,21.2329241 9.3165892,21.1913379 9.47575398,21.345269" id="Fill-24" fill="#fd8022"></path>
            <path d="M14.6510244,25.7828276 C14.9767858,25.7828276 15.3205074,25.8796552 15.6103483,25.8914483 C16.1101381,25.9069655 15.9732688,26.4016552 15.9899903,26.6561379 C16.0085699,26.9075172 15.7218256,27.0186207 15.4474676,27.0186207 C15.1768256,27.0186207 14.9049449,27.036 14.6875642,27.0186207 C14.4726608,27.0024828 14.1809619,26.928 14.1809619,26.6182759 C14.1809619,26.3793103 14.1852972,26.2998621 14.1809619,26.2278621 C14.1605244,25.9932414 14.2874847,25.7828276 14.6510244,25.7828276" id="Fill-26" fill="#fd8022"></path>
            <path d="M12.3881597,25.8913862 C12.5683812,25.877731 13.0731256,25.8913862 13.2378642,25.8913862 C13.4019835,25.8913862 13.5444267,25.9987655 13.5444267,26.2364897 C13.5444267,26.4760759 13.6534267,27.0080069 12.9003358,27.0080069 C12.4860119,27.0080069 12.0048017,26.9279379 11.9131426,26.8354552 C11.8245801,26.7442138 11.8363472,26.4785586 11.8598812,26.2731103 C11.8976597,25.9391793 12.1676824,25.9069034 12.3881597,25.8913862" id="Fill-28" fill="#fd8022"></path>
            <path d="M14.3075506,27.3818483 C14.5075903,27.2614345 14.8959028,27.3172966 15.0953233,27.3086069 C15.312704,27.2968138 15.4984994,27.472469 15.4842551,28.1068138 C15.4662949,28.7417793 15.4093176,28.9068828 15.392596,29.1048828 C15.3783517,29.3047448 15.229096,29.4673655 14.9250108,29.4897103 C14.6141131,29.5077103 14.3601926,29.4897103 14.2350903,29.4506069 C14.1062722,29.4170897 14.0325733,29.2867448 14.0158517,28.9236414 C13.9954142,28.5611586 14.0325733,27.7977103 14.0548688,27.6530897 C14.0715903,27.5059862 14.1242324,27.490469 14.3075506,27.3818483" id="Fill-30" fill="#fff7ae"></path>
            <path d="M12.6418943,27.3261103 C12.8729,27.3261103 13.2581159,27.272731 13.4754966,27.308731 C13.6916386,27.344731 13.8018773,27.4719724 13.7814398,28.1069379 C13.7647182,28.7419034 13.7517125,28.9411448 13.7362295,29.142869 C13.7145534,29.3414897 13.5281386,29.4674897 13.2215761,29.4898345 C12.9106784,29.5078345 12.7304568,29.4898345 12.6041159,29.450731 C12.4771557,29.4172138 12.4034568,29.286869 12.3879739,28.9237655 C12.366917,28.5612828 12.4034568,27.7978345 12.4201784,27.6532138 C12.4393773,27.5061103 12.4034568,27.3261103 12.6418943,27.3261103" id="Fill-32" fill="#fff7ae"></path>
            <path d="M14.6029653,28.1068138 C14.561471,28.1682621 14.4871528,28.2762621 14.4828176,28.3631586 C14.4729085,28.6046069 14.6097778,28.7076414 14.767704,28.7076414 C14.9250108,28.7076414 15.0061415,28.5673655 15.0507324,28.3631586 C15.0953233,28.1769517 14.9250108,28.0161931 14.767704,28.0161931 C14.6785222,28.0161931 14.6549881,28.032331 14.6029653,28.1068138" id="Fill-34" fill="#fff7ae"></path>
            <path d="M12.9751494,28.1492069 C12.9627631,28.1492069 12.8859676,28.1492069 12.869246,28.4148621 C12.857479,28.6159655 12.9627631,28.7618276 13.128121,28.7767241 C13.2123483,28.7854138 13.3795642,28.6066552 13.3795642,28.4055517 C13.3795642,28.2063103 13.3473597,28.0505172 13.1789051,28.0505172 C13.1064449,28.0505172 13.0042574,28.1492069 12.9751494,28.1492069" id="Fill-36" fill="#fff7ae"></path>
            <path d="M14.8654324,31.3054138 C14.9812449,31.3054138 15.2655119,31.1105172 15.2655119,30.9925862 L15.2970972,30.2061724 C15.3125801,30.0044483 15.1323585,29.8474138 14.950279,29.8474138 L14.2176256,29.8703793 C14.1005744,29.8703793 13.9612278,30.1887931 13.9612278,30.3073448 L13.9612278,30.9205862 C13.9612278,31.1278966 14.335296,31.3054138 14.4492506,31.3054138 L14.8654324,31.3054138 Z" id="Fill-38" fill="#fd8022"></path>
            <path d="M13.4611284,31.2908897 C13.5757023,31.2908897 13.670458,31.1977862 13.670458,31.0798552 L13.670458,30.1090966 C13.670458,29.996131 13.5757023,29.9024069 13.4611284,29.9024069 L12.8015545,29.9048897 C12.455975,29.8707517 12.4726966,30.194131 12.4726966,30.3095793 L12.4937534,31.0854414 C12.4918955,31.2890276 12.8325205,31.3250276 12.9458557,31.3250276 L13.4611284,31.2908897 Z" id="Fill-40" fill="#fd8022"></path>
            <path d="M15.7215778,32.121869 C15.577896,32.0610414 15.3927199,32.121869 15.320879,32.0101448 C15.2558506,31.9151793 15.2744301,31.6383517 15.1319869,31.5744207 C14.830379,31.4459379 14.1280722,31.4285586 14.1008222,31.7600069 C14.0438449,32.3844207 14.5615949,32.2379379 14.9864472,32.4669724 C15.5333051,32.7568345 16.0634415,33.2626966 16.6072028,32.8853172 C16.7341631,32.6500759 16.2430438,32.301869 15.9903619,32.301869 C15.9903619,32.301869 15.8107597,32.3192483 15.7215778,32.121869" id="Fill-42" fill="#fd8022"></path>
            <path d="M12.3670409,31.8327517 C12.4246375,31.6316483 12.5472625,31.5596483 12.7832227,31.5745448 C13.0210409,31.5950276 13.1956886,31.5658552 13.3090239,31.5745448 C13.6837114,31.6037172 13.6533648,32.1642 13.3796261,32.3019931 C12.9733534,32.5080621 12.9553932,32.4031655 12.7745523,32.5130276 C12.4617966,32.7010966 12.4035807,32.9077862 12.1310807,33.0778552 C11.8604386,33.2355103 11.1903364,33.5191655 11.0441773,33.3913034 C10.8998761,33.2628207 11.0646148,32.7824069 11.355075,32.5837862 C11.6442966,32.3845448 11.8090352,32.4099931 11.8975977,32.3764759 C11.9867795,32.3373724 12.1125011,32.1219931 12.1874386,32.1219931 C12.2580409,32.1219931 12.3509386,31.8917172 12.3670409,31.8327517" id="Fill-44" fill="#fd8022"></path>
            <path d="M6.96671023,16.6949379 C7.01563636,16.7433517 7.1395,16.7160414 7.18409091,16.6676276 L7.23549432,16.5919034 C7.28689773,16.5410069 7.28689773,16.4615586 7.23301705,16.4181103 L4.04910227,13.3978345 C4.00079545,13.3506621 3.86206818,13.4189379 3.81252273,13.4716966 L3.87073864,13.4021793 C3.82490909,13.4493517 3.70785795,13.5784552 3.83357955,13.7224552 L6.96671023,16.6949379 Z" id="Fill-46" fill="#fff7ae"></path>
            <path d="M106.152313,5.76502759 C106.438438,5.76502759 106.60937,5.70606207 106.60937,5.37275172 C106.60937,5.06364828 106.276177,5.04006207 106.034643,5.04006207 L105.583779,5.04006207 L105.583779,5.76502759 L106.152313,5.76502759 Z M105.583779,7.53771724 L104.942785,7.53771724 L104.942785,4.53109655 L106.063131,4.53109655 C106.837279,4.53109655 107.294336,4.75082069 107.294336,5.43854483 C107.294336,5.99406207 106.969813,6.19268276 106.572211,6.22371724 L107.337688,7.53771724 L106.577785,7.53771724 L105.886006,6.2739931 L105.583779,6.2739931 L105.583779,7.53771724 Z M106.047648,3.89488966 C104.942785,3.89488966 104.049728,4.75082069 104.049728,6.03813103 C104.049728,7.32482069 104.942785,8.18757931 106.047648,8.18137241 L106.047648,8.18757931 C107.124643,8.18757931 108.038756,7.32482069 108.038756,6.03813103 C108.038756,4.75082069 107.124643,3.89488966 106.047648,3.89488966 Z M106.047648,8.83123448 C104.56562,8.83123448 103.244614,7.80337241 103.244614,6.03813103 C103.244614,4.27226897 104.56562,3.2444069 106.047648,3.2444069 C107.522864,3.2444069 108.844489,4.27226897 108.844489,6.03813103 C108.844489,7.80337241 107.522864,8.83123448 106.047648,8.83123448 Z" id="Fill-48" fill="#fff7ae"></path>
        </g>
    </g>
</svg>
