<?xml version="1.0" encoding="UTF-8" standalone="no"?>
<!DOCTYPE svg PUBLIC "-//W3C//DTD SVG 20010904//EN" "http://www.w3.org/TR/2001/REC-SVG-20010904/DTD/svg10.dtd">
<svg version="1.0" xmlns="http://www.w3.org/2000/svg" width="172.000000pt" height="171.000000pt" viewBox="0 0 172.000000 171.000000" preserveAspectRatio="xMidYMid meet">

<g transform="translate(0.000000,171.000000) scale(0.100000,-0.100000)" fill="#eed4f1" stroke="none">
<path d="M1099 1521 c-6 -31 -26 -123 -43 -206 l-33 -150 -189 -6 c-204 -7 -286 -24 -308 -64 -6 -11 -32 -44 -58 -73 -255 -286 -139 -740 221 -864 52 -18 88 -23 171 -23 164 0 276 47 385 160 189 197 191 524 5 729 -28 29 -50 58 -50 64 0 6 -11 19 -25 29 l-25 18 74 200 c41 110 73 201 72 202 -1 2 -44 11 -94 21 l-91 19 -12 -56z m114 -17 c13 -4 13 -11 5 -37 -15 -44 -21 -49 -52 -41 -26 6 -34 32 -20 68 6 16 39 21 67 10z m-45 -132 c9 -6 -2 -45 -45 -160 -31 -84 -59 -152 -63 -152 -4 0 3 46 15 103 13 56 28 128 35 160 12 57 25 69 58 49z m-158 -269 c-1 -44 -12 -51 -84 -58 -73 -7 -278 9 -318 24 -20 8 -20 10 -7 16 52 21 409 36 409 18z m-418 -83 c53 -15 54 -34 6 -86 -39 -42 -40 -46 -25 -62 16 -15 20 -14 56 22 22 21 43 36 48 33 5 -3 16 -24 23 -47 9 -28 18 -39 28 -35 7 3 18 5 23 5 16 0 10 26 -21 86 -16 32 -30 60 -30 62 0 1 11 2 25 2 21 0 25 -5 25 -28 0 -31 31 -94 48 -100 18 -6 15 70 -4 96 -14 21 -14 22 10 22 l25 0 3 -217 c3 -208 1 -245 -9 -215 -3 7 -16 25 -28 40 -22 25 -25 26 -41 10 -16 -15 -15 -18 6 -49 52 -72 70 -136 70 -256 0 -62 -2 -113 -5 -113 -16 0 -123 61 -139 78 -18 21 -18 22 11 69 47 77 59 113 42 124 -25 16 -37 10 -48 -23 -7 -18 -23 -51 -38 -72 -25 -38 -26 -39 -40 -20 -20 25 -63 121 -63 139 0 7 21 29 46 47 87 62 188 227 153 249 -25 15 -34 10 -51 -33 l-18 -41 -30 39 c-17 21 -41 47 -53 56 -20 15 -23 15 -39 1 -17 -15 -15 -19 26 -63 73 -78 73 -80 13 -136 l-52 -49 -3 56 c-2 48 -6 58 -24 62 -14 4 -22 0 -25 -13 -5 -18 -7 -18 -53 5 -27 14 -51 29 -55 35 -9 14 20 122 49 178 26 51 101 152 114 152 4 0 23 -5 44 -10z m629 -42 c22 -28 52 -74 65 -100 29 -56 58 -164 49 -178 -4 -6 -28 -21 -55 -35 -46 -23 -48 -23 -53 -5 -3 13 -11 17 -25 13 -18 -4 -22 -14 -24 -62 l-3 -56 -52 49 c-60 56 -60 58 13 136 41 44 43 48 26 63 -16 14 -19 14 -39 -1 -12 -9 -36 -35 -53 -56 l-30 -39 -18 41 c-17 43 -26 48 -51 33 -35 -22 66 -187 153 -249 25 -18 46 -40 46 -47 0 -18 -43 -114 -63 -139 -14 -19 -15 -18 -40 20 -15 21 -31 54 -38 72 -11 33 -23 39 -48 23 -17 -11 -5 -47 42 -124 29 -47 29 -48 11 -69 -16 -17 -123 -78 -139 -78 -3 0 -5 51 -5 113 0 120 18 184 70 256 21 31 22 34 6 49 -16 16 -19 15 -41 -10 -12 -15 -25 -33 -28 -40 -10 -30 -12 7 -9 215 l3 217 25 0 c24 0 24 -1 10 -22 -19 -26 -22 -102 -4 -96 17 6 48 69 48 100 0 23 4 28 25 28 14 0 25 -1 25 -2 0 -2 -14 -30 -30 -62 -31 -60 -37 -86 -21 -86 5 0 16 -2 23 -5 10 -4 19 7 28 35 7 23 18 44 23 47 5 3 26 -12 48 -33 36 -36 40 -37 56 -22 15 16 14 20 -25 62 -47 51 -47 71 2 85 50 15 54 13 97 -41z m-781 -371 c43 -21 45 -24 50 -75 l6 -52 -42 0 c-39 0 -41 2 -52 38 -18 60 -25 112 -16 111 5 0 29 -10 54 -22z m895 -14 c-3 -21 -11 -55 -17 -75 -11 -36 -13 -38 -52 -38 l-42 0 6 52 c5 51 7 54 50 75 61 29 63 29 55 -14z m-819 -177 c1 0 11 -19 22 -42 12 -23 37 -62 57 -88 l36 -48 -31 19 c-42 24 -150 139 -150 159 0 12 7 14 33 9 17 -4 33 -8 33 -9z m754 -1 c0 -19 -109 -135 -150 -158 l-31 -19 37 49 c20 26 46 67 57 90 19 39 31 47 75 52 6 0 12 -6 12 -14z"/>
<path d="M553 1003 c-7 -3 -13 -13 -13 -24 0 -14 7 -19 25 -19 18 0 25 5 25 19 0 20 -17 31 -37 24z"/>
<path d="M491 942 c-15 -29 -14 -94 3 -118 14 -18 15 -18 25 9 15 38 13 77 -3 106 -13 24 -14 24 -25 3z"/>
<path d="M764 825 c-4 -9 -2 -21 4 -27 15 -15 44 -1 40 19 -4 23 -36 29 -44 8z"/>
<path d="M433 768 c12 -30 67 -78 88 -78 14 0 -11 54 -39 83 -14 15 -34 27 -44 27 -16 0 -17 -3 -5 -32z"/>
<path d="M767 703 c-12 -12 -7 -41 7 -46 22 -9 41 19 26 38 -14 16 -23 19 -33 8z"/>
<path d="M711 526 c-17 -20 -3 -46 24 -46 29 0 38 13 30 40 -7 23 -37 26 -54 6z"/>
<path d="M616 514 c-11 -29 -6 -100 8 -119 13 -18 15 -17 26 22 18 59 -14 150 -34 97z"/>
<path d="M753 314 c3 -32 13 -55 31 -72 l26 -27 0 40 c0 41 -31 105 -51 105 -8 0 -10 -15 -6 -46z"/>
<path d="M1143 1003 c-7 -3 -13 -13 -13 -24 0 -14 7 -19 25 -19 18 0 25 5 25 19 0 20 -17 31 -37 24z"/>
<path d="M1202 935 c-15 -32 -15 -65 -1 -102 10 -27 11 -27 25 -9 18 25 18 96 1 120 -12 17 -14 16 -25 -9z"/>
<path d="M914 825 c-4 -9 -2 -21 4 -27 15 -15 44 -1 40 19 -4 23 -36 29 -44 8z"/>
<path d="M1238 773 c-28 -29 -53 -83 -39 -83 21 0 76 48 88 78 12 29 11 32 -5 32 -10 0 -30 -12 -44 -27z"/>
<path d="M920 695 c-10 -12 -10 -18 0 -29 16 -20 42 -8 38 17 -4 26 -21 32 -38 12z"/>
<path d="M955 520 c-8 -27 1 -40 30 -40 27 0 41 26 24 46 -17 20 -47 17 -54 -6z"/>
<path d="M1070 494 c-10 -29 -10 -46 0 -77 11 -39 13 -40 26 -22 22 30 17 135 -6 135 -5 0 -14 -16 -20 -36z"/>
<path d="M930 328 c-11 -18 -20 -51 -20 -73 l0 -40 26 27 c18 17 28 40 31 72 7 55 -8 61 -37 14z"/>
<path d="M414 549 c-3 -6 0 -18 9 -26 18 -18 37 -9 37 18 0 21 -34 27 -46 8z"/>
<path d="M1260 541 c0 -27 19 -36 37 -18 18 18 9 37 -18 37 -12 0 -19 -7 -19 -19z"/>
<path d="M486 403 c-11 -11 -6 -23 9 -23 8 0 15 4 15 9 0 13 -16 22 -24 14z"/>
<path d="M1216 403 c-11 -11 -6 -23 9 -23 8 0 15 4 15 9 0 13 -16 22 -24 14z"/>
<path d="M831 1507 c-32 -52 -45 -127 -32 -189 13 -58 48 -121 64 -115 7 2 23 25 36 52 35 67 35 163 0 230 -13 27 -29 50 -36 52 -6 2 -20 -11 -32 -30z"/>
<path d="M624 1436 c-12 -50 25 -115 83 -145 30 -15 31 -15 38 22 9 46 -16 102 -57 127 -43 26 -56 25 -64 -4z"/>
<path d="M610 1250 c-13 -8 -11 -14 12 -37 21 -20 37 -27 64 -26 52 2 62 16 31 47 -27 27 -78 35 -107 16z"/>
</g>
</svg>