<?xml version="1.0" standalone="no"?>
<!DOCTYPE svg PUBLIC "-//W3C//DTD SVG 20010904//EN"
 "http://www.w3.org/TR/2001/REC-SVG-20010904/DTD/svg10.dtd">
<svg version="1.0" xmlns="http://www.w3.org/2000/svg"
 width="852.000000pt" height="1300.000000pt" viewBox="0 0 852.000000 1300.000000"
 preserveAspectRatio="xMidYMid meet">

<g transform="translate(0.000000,1300.000000) scale(0.100000,-0.100000)"
fill="#EED4F1" stroke="none">
<path d="M6237 12193 c-31 -5 -54 -37 -35 -49 6 -4 8 -3 4 4 -3 6 -2 13 3 16
5 4 12 2 15 -3 4 -5 2 -12 -3 -16 -6 -3 -8 -12 -5 -20 7 -17 -61 -50 -121 -59
-76 -12 -229 -24 -397 -31 -53 -2 -123 -7 -155 -12 -32 -4 -653 -7 -1380 -7
-728 1 -1323 -2 -1323 -6 0 -5 51 -11 113 -14 61 -3 150 -9 197 -12 47 -4 470
-8 940 -10 1217 -4 2167 -14 2370 -24 219 -10 310 -5 310 20 0 10 8 20 19 23
15 4 18 16 20 78 2 122 2 123 -304 125 -132 1 -252 -1 -268 -3z"/>
<path d="M4082 12045 c7 -7 277 -10 284 -3 2 3 -62 6 -142 7 -81 1 -145 -1
-142 -4z"/>
<path d="M1955 12010 l-110 -5 105 -9 c95 -8 537 -10 635 -2 22 2 86 4 143 5
56 0 102 5 102 9 0 5 -114 7 -252 4 -349 -5 -364 -5 -443 -1 -38 2 -119 2
-180 -1z"/>
<path d="M1800 11850 c-30 -30 -17 -37 84 -44 173 -12 2550 -27 2674 -17 28 3
52 8 52 12 0 10 -74 21 -154 23 -39 1 -70 7 -81 16 -17 13 -18 13 -13 0 6 -16
-19 -19 -52 -7 -8 3 -22 5 -30 5 -8 0 -125 3 -260 7 -230 6 -393 6 -1038 2
-145 -1 -266 1 -268 5 -2 3 -17 3 -32 -1 -15 -4 -88 -4 -162 0 -74 4 -262 10
-416 14 l-282 7 -22 -22z"/>
<path d="M5900 11833 c-124 -7 -249 -17 -278 -23 -114 -25 -90 -27 703 -52
215 -7 373 -14 353 -16 -21 -2 -38 -7 -38 -13 0 -5 3 -9 8 -10 68 -5 94 -4 98
3 3 4 0 8 -5 8 -6 0 -11 5 -11 10 0 6 18 10 39 10 45 0 57 11 42 38 -15 29
-16 29 -531 50 -87 4 -254 2 -380 -5z"/>
<path d="M2100 11774 c0 -15 6 -16 35 -5 17 7 17 8 -8 13 -19 4 -27 1 -27 -8z"/>
<path d="M2018 11773 c7 -3 16 -2 19 1 4 3 -2 6 -13 5 -11 0 -14 -3 -6 -6z"/>
<path d="M2400 11760 c0 -5 10 -10 23 -10 18 0 19 2 7 10 -19 13 -30 13 -30 0z"/>
<path d="M3455 11760 c-3 -5 1 -10 9 -10 9 0 16 5 16 10 0 6 -4 10 -9 10 -6 0
-13 -4 -16 -10z"/>
<path d="M3598 11762 c-10 -2 -18 -8 -18 -14 0 -6 10 -8 23 -4 12 3 30 6 40 6
9 0 17 3 17 8 0 8 -35 11 -62 4z"/>
<path d="M3778 11753 c7 -3 16 -2 19 1 4 3 -2 6 -13 5 -11 0 -14 -3 -6 -6z"/>
<path d="M3820 11750 c0 -5 5 -10 11 -10 5 0 7 5 4 10 -3 6 -8 10 -11 10 -2 0
-4 -4 -4 -10z"/>
<path d="M6130 11740 c0 -5 5 -10 10 -10 6 0 10 5 10 10 0 6 -4 10 -10 10 -5
0 -10 -4 -10 -10z"/>
<path d="M6227 11743 c-14 -13 -6 -20 18 -15 14 2 25 8 25 13 0 10 -34 12 -43
2z"/>
<path d="M5885 11730 c3 -5 17 -10 31 -10 13 0 24 5 24 10 0 6 -14 10 -31 10
-17 0 -28 -4 -24 -10z"/>
<path d="M6333 11733 c9 -2 25 -2 35 0 9 3 1 5 -18 5 -19 0 -27 -2 -17 -5z"/>
<path d="M6450 11730 c0 -5 5 -10 11 -10 5 0 7 5 4 10 -3 6 -8 10 -11 10 -2 0
-4 -4 -4 -10z"/>
<path d="M6488 11728 c8 -8 44 -12 96 -10 63 3 32 15 -39 16 -35 1 -61 -2 -57
-6z"/>
<path d="M1767 11713 c-2 -5 -7 -21 -11 -38 l-7 -30 30 33 c17 18 31 35 31 38
0 7 -39 4 -43 -3z"/>
<path d="M1833 11693 c-12 -16 -40 -50 -61 -78 -22 -27 -58 -70 -81 -94 -23
-24 -40 -46 -37 -48 5 -5 165 159 179 183 15 26 25 5 17 -33 -5 -21 -11 -71
-15 -112 -3 -41 -9 -80 -13 -85 -14 -21 -232 -229 -236 -225 -2 2 4 48 13 102
10 53 14 97 10 97 -9 0 -18 -30 -43 -143 -20 -87 -20 -87 7 -87 15 0 54 30
116 90 51 50 97 90 102 90 6 0 7 -5 4 -11 -9 -14 -9 -140 0 -161 12 -30 56
-21 105 20 52 44 115 99 142 125 24 23 37 22 31 -3 -3 -12 0 -20 7 -20 7 0 9
-8 5 -20 -4 -12 -2 -20 5 -20 7 0 9 -8 5 -20 -4 -12 -2 -20 5 -20 7 0 9 -8 5
-20 -4 -11 -2 -20 4 -20 6 0 11 -7 11 -15 0 -11 12 -15 45 -15 25 0 45 5 45
10 0 6 7 13 16 17 9 3 26 15 38 25 11 11 40 37 64 59 24 21 50 39 57 39 8 0
17 9 20 20 3 11 13 20 21 20 8 0 14 -9 14 -20 0 -11 5 -20 10 -20 6 0 10 -9
10 -20 0 -11 5 -20 11 -20 7 0 9 -9 6 -21 -3 -12 0 -22 9 -26 8 -3 13 -12 10
-19 -3 -7 4 -16 15 -19 10 -4 17 -11 14 -16 -4 -5 16 -9 45 -9 36 0 52 4 56
15 4 8 14 15 24 15 10 0 21 8 25 18 6 17 68 62 85 62 5 0 11 9 15 19 3 11 16
21 27 23 30 4 34 25 6 33 -17 6 -26 2 -36 -14 -8 -11 -20 -21 -28 -21 -7 0
-18 -9 -24 -20 -6 -11 -17 -20 -25 -20 -8 0 -19 -9 -25 -20 -6 -11 -16 -20
-22 -20 -6 0 -21 -12 -35 -26 -23 -25 -48 -28 -48 -6 0 6 -5 16 -12 23 -6 6
-9 17 -7 24 3 7 1 16 -5 20 -6 3 -11 15 -11 26 0 10 -4 19 -10 19 -5 0 -10 7
-10 15 0 8 -9 30 -20 50 -25 44 -18 60 41 101 24 16 60 45 80 65 20 20 44 39
53 42 9 4 16 13 16 22 0 8 9 15 19 15 11 0 23 9 26 20 3 11 15 20 26 20 12 0
19 -7 19 -20 0 -11 5 -20 10 -20 6 0 10 -9 10 -19 0 -11 5 -23 10 -26 6 -3 10
-15 10 -26 0 -10 5 -19 10 -19 6 0 10 -9 10 -20 0 -11 7 -20 15 -20 8 0 15 -8
15 -18 0 -9 8 -22 18 -29 16 -9 26 -5 63 23 24 18 53 43 64 54 12 11 26 20 32
20 6 0 15 9 18 20 3 11 13 20 20 20 8 0 19 9 25 20 6 11 19 20 29 20 10 0 21
9 24 20 3 11 12 20 21 20 9 0 16 -8 16 -20 0 -11 5 -20 10 -20 6 0 15 -11 20
-25 5 -14 14 -25 20 -25 5 0 10 -9 10 -20 0 -11 7 -20 15 -20 8 0 15 -9 15
-20 0 -11 7 -20 15 -20 8 0 15 -9 15 -20 0 -11 7 -23 15 -26 24 -10 18 -43
-10 -54 -14 -5 -25 -16 -25 -24 0 -8 -9 -18 -21 -21 -12 -4 -29 -14 -39 -23
-41 -38 -72 -62 -81 -62 -5 0 -9 -7 -9 -15 0 -8 -7 -15 -15 -15 -8 0 -22 -11
-31 -25 -18 -28 -64 -35 -64 -10 0 8 -5 15 -10 15 -6 0 -15 11 -20 25 -5 14
-14 25 -20 25 -7 0 -9 8 -5 20 5 14 2 20 -10 20 -8 0 -20 11 -25 25 -5 14 -15
25 -21 25 -7 0 -10 3 -6 6 3 3 -1 14 -10 23 -11 14 -23 16 -46 12 -42 -9 -49
-38 -10 -43 19 -2 28 -8 27 -20 -1 -10 7 -20 17 -23 10 -3 16 -12 13 -19 -3
-7 2 -16 10 -19 9 -4 16 -16 16 -27 0 -11 7 -20 15 -20 8 0 15 -9 15 -20 0
-11 7 -20 15 -20 8 0 15 -7 15 -15 0 -11 11 -15 40 -15 55 0 97 23 174 98 13
12 28 22 34 22 5 0 12 7 16 15 3 8 14 15 25 15 11 0 22 9 26 20 9 27 49 28 42
1 -3 -15 1 -21 17 -23 13 -2 20 -9 18 -19 -1 -10 6 -19 18 -22 12 -3 20 -13
20 -26 0 -12 6 -21 15 -21 8 0 15 -9 15 -20 0 -13 7 -20 20 -20 11 0 23 -7 26
-15 5 -11 21 -15 60 -15 39 0 56 4 60 15 4 8 14 15 24 15 10 0 22 9 25 20 3
11 15 20 25 20 10 0 22 9 25 20 3 11 13 20 22 20 8 0 17 9 20 20 3 11 14 20
25 20 11 0 22 9 25 20 3 11 14 20 24 20 12 0 19 -7 19 -20 0 -13 7 -20 20 -20
13 0 20 -7 20 -20 0 -13 7 -20 19 -20 13 0 21 -8 23 -22 2 -13 9 -24 16 -24 6
-1 17 -2 22 -3 6 0 10 -10 10 -21 0 -13 7 -20 20 -20 11 0 20 -7 20 -15 0 -12
14 -15 65 -15 51 0 65 3 65 15 0 9 9 15 21 15 12 0 23 8 26 20 3 11 14 20 24
20 12 0 23 10 29 25 5 14 16 25 24 25 7 0 16 9 19 20 3 12 14 20 26 20 14 0
21 6 21 20 0 26 30 26 37 1 3 -11 16 -22 29 -25 15 -4 24 -14 24 -26 0 -13 7
-20 20 -20 13 0 20 -7 20 -20 0 -14 7 -20 21 -20 12 0 23 -8 26 -20 3 -11 14
-20 24 -20 11 0 22 -7 25 -15 5 -11 22 -15 70 -15 50 0 64 3 64 15 0 8 9 15
20 15 13 0 20 7 20 19 0 10 9 21 20 24 11 3 20 12 20 20 0 9 9 19 20 22 11 3
20 13 20 21 0 8 9 14 19 14 13 0 21 8 23 23 2 12 10 22 18 22 8 0 19 -10 25
-22 5 -13 18 -23 28 -23 11 0 21 -9 24 -20 3 -11 14 -20 25 -20 11 0 22 -9 25
-20 3 -11 14 -20 23 -20 10 0 22 -9 25 -20 4 -11 15 -20 26 -20 11 0 22 -7 25
-15 8 -21 124 -22 124 -1 0 8 7 16 15 20 8 3 15 12 15 20 0 8 9 18 20 21 11 3
20 12 20 20 0 7 7 15 15 19 8 3 15 12 15 21 0 8 9 15 21 15 16 0 19 4 14 20
-5 16 -2 20 15 20 13 0 24 -8 27 -20 3 -11 14 -20 25 -20 11 0 22 -9 25 -20 3
-11 14 -20 25 -20 11 0 22 -9 25 -20 3 -11 12 -20 19 -20 8 0 19 -9 26 -20 7
-11 21 -20 30 -20 9 0 21 -7 26 -16 12 -22 112 -31 112 -10 0 7 9 16 19 19 14
3 18 11 14 26 -4 15 -1 21 12 21 12 0 15 5 10 20 -5 15 -2 20 13 20 15 0 19 5
15 20 -4 14 0 20 12 20 12 0 15 5 10 20 -4 14 -2 20 9 20 8 0 20 -9 26 -20 6
-11 17 -20 24 -20 8 0 21 -11 30 -25 9 -14 23 -25 31 -25 7 0 17 -9 20 -20 3
-11 15 -20 25 -20 10 0 22 -9 25 -20 4 -11 15 -20 26 -20 11 0 22 -7 25 -15 4
-11 21 -15 56 -15 40 0 49 3 44 15 -3 9 0 15 10 15 11 0 15 6 11 19 -3 12 1
22 10 25 8 4 13 13 9 21 -3 8 -1 17 5 20 5 4 8 14 7 23 -2 10 3 16 11 14 10
-2 12 4 7 23 -8 32 7 32 28 0 9 -14 22 -25 29 -25 7 0 18 -9 25 -20 7 -11 19
-20 27 -20 8 0 15 -9 15 -20 0 -13 7 -20 20 -20 10 0 24 -9 30 -20 6 -11 17
-20 26 -20 8 0 17 -7 20 -15 4 -10 20 -15 45 -15 28 0 39 4 39 15 0 8 5 15 11
15 6 0 8 8 4 19 -3 11 -1 22 4 25 6 4 8 13 5 20 -3 8 0 17 6 21 8 5 8 11 -1
21 -9 11 -9 14 1 14 8 0 10 9 6 28 l-6 27 23 -27 c12 -16 26 -28 29 -28 4 0
34 -27 66 -60 33 -33 64 -60 70 -60 5 0 12 -7 16 -15 3 -9 18 -15 39 -15 l34
0 -2 93 -1 92 94 -94 c126 -126 131 -120 76 89 -6 22 -2 20 30 -15 l37 -40
-28 40 c-15 22 -38 51 -51 65 l-23 25 6 -25 c3 -14 14 -59 24 -100 10 -41 16
-77 14 -80 -3 -3 -21 13 -40 35 -20 22 -67 73 -105 112 -70 73 -81 95 -93 183
-4 25 -10 62 -15 83 -4 20 -5 37 -1 37 3 0 21 -20 38 -43 39 -50 138 -157 146
-157 3 0 -3 17 -13 38 -9 20 -20 44 -24 52 -3 8 -4 5 -2 -7 8 -42 -6 -29 -106
105 -79 104 -92 106 -84 11 3 -39 8 -74 10 -78 3 -4 1 -12 -3 -19 -8 -14 -44
17 -125 111 -69 80 -105 78 -98 -5 1 -10 -2 -18 -7 -18 -5 0 -8 -29 -7 -64 l2
-65 -44 42 c-46 44 -86 84 -141 142 -25 27 -41 35 -60 33 -21 -2 -25 -8 -23
-25 2 -13 -2 -23 -7 -23 -6 0 -11 -9 -11 -20 0 -11 -4 -20 -9 -20 -5 0 -7 -9
-4 -20 3 -12 0 -20 -7 -20 -7 0 -9 -8 -5 -20 4 -12 2 -20 -5 -20 -8 0 -10 -9
-6 -25 4 -14 4 -25 1 -25 -3 0 -25 19 -50 43 -117 112 -134 127 -144 127 -5 0
-13 9 -16 20 -5 16 -15 20 -46 20 -32 0 -39 -3 -39 -20 0 -11 -7 -20 -16 -20
-11 0 -14 -6 -9 -20 5 -15 2 -20 -10 -20 -12 0 -16 -6 -12 -20 3 -13 0 -20 -9
-20 -8 0 -14 -10 -14 -25 0 -15 -6 -25 -14 -25 -9 0 -12 -7 -9 -20 3 -11 0
-20 -5 -20 -6 0 -16 9 -22 20 -6 11 -17 20 -25 20 -8 0 -19 9 -25 20 -6 11
-17 20 -25 20 -7 0 -16 9 -20 19 -3 11 -15 23 -25 26 -10 3 -22 15 -25 26 -4
10 -13 19 -21 19 -9 0 -22 7 -30 15 -9 8 -31 15 -50 15 -24 0 -34 -5 -34 -15
0 -8 -9 -15 -20 -15 -13 0 -20 -7 -20 -19 0 -10 -7 -21 -15 -25 -8 -3 -12 -12
-9 -21 4 -10 0 -15 -10 -15 -10 0 -16 -8 -16 -21 0 -13 -8 -23 -20 -26 -12 -3
-19 -12 -18 -21 4 -25 -28 -27 -35 -2 -3 12 -13 20 -25 20 -12 0 -23 9 -27 20
-3 11 -11 20 -17 20 -6 0 -21 10 -34 23 -44 43 -69 63 -89 71 -32 13 -74 16
-80 6 -3 -6 -17 -10 -31 -10 -15 0 -24 -6 -24 -16 0 -9 -9 -18 -20 -21 -11 -3
-20 -14 -20 -24 0 -11 -7 -19 -15 -19 -8 0 -15 -7 -15 -16 0 -9 -9 -18 -19
-21 -11 -3 -21 -15 -23 -26 -2 -12 -11 -23 -20 -25 -13 -3 -18 3 -18 22 0 21
-5 26 -25 26 -16 0 -25 6 -25 16 0 9 -9 18 -20 21 -10 3 -22 14 -25 24 -4 10
-15 19 -26 19 -10 0 -19 6 -19 13 0 15 -45 57 -60 57 -6 0 -10 4 -10 8 0 4
-17 9 -39 10 -31 2 -39 -1 -44 -18 -3 -12 -13 -20 -26 -20 -14 0 -21 -6 -21
-20 0 -13 -7 -20 -20 -20 -14 0 -20 -7 -20 -21 0 -12 -8 -23 -19 -26 -11 -3
-21 -13 -24 -24 -3 -10 -12 -19 -20 -19 -8 0 -17 -9 -20 -20 -3 -11 -12 -20
-21 -20 -9 0 -16 8 -16 20 0 15 -7 20 -25 20 -18 0 -25 5 -25 20 0 11 -7 20
-15 20 -8 0 -17 11 -21 25 -4 16 -13 25 -25 25 -12 0 -19 7 -19 20 0 12 -7 20
-16 20 -9 0 -18 9 -21 20 -5 17 -14 20 -59 20 -41 0 -54 -4 -54 -15 0 -8 -9
-15 -20 -15 -13 0 -24 -10 -30 -25 -5 -14 -16 -25 -25 -25 -8 0 -15 -7 -15
-15 0 -9 -11 -20 -25 -25 -14 -5 -25 -16 -25 -25 0 -8 -9 -15 -20 -15 -13 0
-24 -10 -30 -26 -11 -28 -37 -28 -32 0 2 11 -5 20 -16 23 -11 3 -22 13 -25 24
-3 10 -12 19 -21 19 -9 0 -16 8 -16 20 0 11 -7 20 -15 20 -9 0 -15 9 -15 21 0
12 -8 23 -20 26 -11 3 -20 14 -20 24 0 16 -8 19 -49 19 -41 0 -51 -4 -56 -20
-3 -11 -15 -20 -26 -20 -10 0 -19 -7 -19 -15 0 -9 -11 -20 -25 -25 -14 -5 -25
-16 -25 -25 0 -9 -11 -20 -25 -25 -14 -5 -25 -16 -25 -25 0 -8 -9 -15 -20 -15
-10 0 -24 -9 -30 -20 -6 -11 -17 -20 -25 -20 -8 0 -15 9 -15 20 0 11 -7 20
-15 20 -8 0 -15 9 -15 20 0 11 -7 20 -15 20 -8 0 -15 9 -15 20 0 11 -7 20 -15
20 -9 0 -15 9 -15 25 0 16 -6 25 -15 25 -8 0 -15 7 -15 16 0 8 -4 12 -10 9 -5
-3 -10 -1 -10 4 0 6 -15 11 -34 11 -26 0 -36 -5 -41 -20 -3 -11 -15 -20 -25
-20 -10 0 -21 -9 -25 -19 -3 -11 -14 -23 -24 -26 -11 -3 -21 -15 -24 -25 -3
-12 -14 -20 -26 -20 -14 0 -21 -6 -21 -20 0 -14 -7 -20 -24 -20 -15 0 -26 -7
-29 -20 -3 -12 -14 -20 -27 -20 -15 0 -20 5 -17 14 3 8 -1 17 -9 20 -8 3 -14
12 -14 20 0 7 -7 16 -15 20 -8 3 -12 12 -9 19 3 8 -2 17 -11 21 -11 4 -14 12
-10 26 4 14 1 22 -10 26 -9 4 -14 12 -11 19 5 15 -14 25 -46 25 -20 0 -30 -7
-82 -57 -13 -13 -28 -23 -34 -23 -6 0 -14 -9 -17 -20 -3 -11 -13 -20 -21 -20
-7 0 -19 -9 -26 -20 -7 -11 -18 -20 -25 -20 -7 0 -17 -8 -22 -19 -6 -10 -18
-21 -27 -25 -13 -5 -15 -2 -10 19 5 19 2 25 -10 25 -10 0 -14 5 -11 15 4 8 2
17 -4 21 -5 3 -7 14 -4 25 4 11 2 19 -4 19 -6 0 -11 11 -11 25 0 14 -4 25 -9
25 -5 0 -8 8 -7 18 2 27 -59 29 -74 3 -6 -12 -17 -21 -25 -21 -7 0 -17 -9 -20
-20 -3 -11 -13 -20 -20 -20 -8 0 -19 -9 -25 -20 -6 -11 -17 -20 -25 -20 -7 0
-17 -9 -20 -20 -3 -11 -12 -20 -18 -20 -6 0 -21 -12 -33 -27 -12 -16 -26 -25
-30 -21 -4 4 -1 14 5 22 7 8 8 17 3 20 -5 3 -10 22 -11 43 -2 21 -4 49 -5 63
-2 14 -4 35 -4 48 -3 30 -57 32 -67 2 -3 -11 -13 -20 -21 -20 -8 0 -14 -4 -14
-8 0 -5 -34 -44 -75 -87 l-74 -78 5 106 c6 100 5 107 -13 107 -10 0 -28 -12
-40 -27z m257 -75 c1 -24 2 -62 3 -85 1 -24 5 -43 8 -43 3 0 6 -15 5 -33 -1
-23 -11 -44 -37 -70 -20 -20 -39 -37 -42 -37 -3 0 -32 -24 -63 -52 -31 -29
-71 -65 -87 -80 -16 -16 -33 -28 -36 -28 -3 0 -6 54 -6 120 l0 120 59 53 c32
28 86 80 120 114 34 34 64 62 67 62 4 1 8 -18 9 -41z m300 12 c0 -11 5 -20 11
-20 6 0 8 -9 4 -20 -4 -12 -2 -20 5 -20 7 0 10 -8 7 -20 -3 -11 -1 -23 4 -26
5 -3 9 -14 9 -25 0 -10 5 -19 11 -19 6 0 8 -7 5 -17 -4 -9 -2 -20 5 -23 12 -8
-4 -50 -20 -50 -5 0 -28 -18 -52 -40 -24 -22 -47 -40 -51 -40 -4 0 -18 -10
-31 -22 -54 -52 -120 -108 -126 -108 -9 0 -42 150 -35 161 3 5 0 9 -7 9 -6 0
-9 8 -6 20 3 11 1 22 -4 25 -12 8 11 55 27 55 7 0 18 9 24 20 6 11 15 20 20
20 11 0 64 47 134 116 46 47 66 54 66 24z m1267 -10 c3 -11 12 -20 19 -20 8 0
14 -9 14 -19 0 -11 9 -23 20 -26 11 -3 20 -15 20 -26 0 -10 7 -19 15 -19 8 0
15 -9 15 -20 0 -13 7 -20 20 -20 13 0 20 -7 20 -20 0 -11 7 -20 15 -20 9 0 15
-9 15 -25 0 -15 -6 -25 -14 -25 -8 0 -18 -9 -21 -20 -3 -11 -17 -23 -31 -26
-13 -3 -24 -12 -24 -19 0 -8 -9 -17 -20 -20 -11 -3 -25 -15 -30 -26 -6 -10
-17 -19 -25 -19 -7 0 -17 -9 -20 -20 -3 -11 -15 -20 -25 -20 -9 0 -20 -9 -23
-20 -3 -14 -14 -20 -31 -20 -19 0 -26 5 -26 20 0 11 -7 20 -15 20 -8 0 -15 9
-15 20 0 13 -7 20 -20 20 -13 0 -20 7 -20 20 0 11 -7 20 -15 20 -8 0 -16 5
-16 10 -1 6 -2 16 -3 23 0 6 -8 12 -16 12 -8 0 -16 10 -18 23 -2 12 -7 20 -12
17 -4 -3 -13 2 -20 9 -14 18 3 56 26 56 8 0 17 7 21 16 3 8 16 20 29 25 13 4
24 15 24 24 0 8 9 15 19 15 11 0 23 9 26 20 3 11 15 20 25 20 9 0 20 9 23 20
3 11 14 20 25 20 11 0 22 9 25 20 3 11 13 20 22 20 9 0 19 -9 22 -20z m483 5
c0 -8 9 -19 19 -25 11 -5 23 -19 26 -30 3 -11 12 -20 20 -20 8 0 17 -9 20 -20
3 -11 13 -20 21 -20 8 0 14 -7 14 -16 0 -9 9 -18 21 -21 11 -3 25 -16 30 -29
4 -13 15 -24 24 -24 22 0 18 -38 -5 -45 -11 -3 -20 -13 -20 -21 0 -8 -11 -19
-25 -24 -14 -5 -25 -16 -25 -25 0 -8 -8 -15 -19 -15 -10 0 -21 -9 -24 -20 -3
-11 -12 -20 -20 -20 -9 0 -19 -9 -22 -20 -3 -11 -15 -20 -26 -20 -12 0 -19 -7
-19 -20 0 -11 -4 -20 -9 -20 -5 0 -16 -3 -25 -6 -10 -4 -17 2 -22 20 -3 14
-11 24 -17 23 -6 -1 -16 8 -22 21 -5 12 -18 22 -27 22 -11 0 -18 8 -18 19 0
10 -9 21 -20 24 -12 3 -20 14 -20 27 0 14 -5 20 -17 18 -12 -2 -19 4 -21 20
-2 14 -10 22 -23 22 -14 0 -19 7 -19 25 0 15 6 25 15 25 8 0 20 9 27 20 7 11
18 20 24 20 7 0 19 11 28 25 9 14 23 25 30 25 8 0 16 9 19 20 3 11 12 20 21
20 9 0 16 7 16 15 0 9 11 20 25 25 14 5 25 16 25 25 0 8 9 15 20 15 11 0 20
-7 20 -15z m956 7 c6 -4 13 -15 17 -24 3 -10 13 -18 21 -18 9 0 18 -11 22 -25
4 -15 13 -25 24 -25 10 0 22 -9 25 -20 3 -11 13 -20 20 -20 8 0 19 -9 25 -20
6 -11 15 -20 21 -20 13 0 79 -67 79 -80 0 -6 -7 -13 -15 -16 -10 -4 -13 -13
-10 -25 5 -14 1 -19 -14 -19 -14 0 -21 -6 -21 -19 0 -10 -7 -21 -15 -25 -8 -3
-15 -12 -15 -20 0 -7 -7 -16 -15 -20 -8 -3 -15 -12 -15 -20 0 -8 -8 -16 -17
-18 -10 -2 -18 -12 -18 -23 0 -27 -39 -32 -57 -7 -7 10 -21 21 -30 25 -10 3
-18 13 -18 22 0 8 -7 15 -15 15 -8 0 -22 11 -31 25 -9 14 -23 25 -31 25 -8 0
-17 9 -20 20 -3 11 -14 20 -25 20 -11 0 -22 8 -25 19 -3 11 -16 22 -29 25 -31
8 -34 51 -4 59 11 3 20 12 20 21 0 9 7 16 15 16 8 0 15 9 15 19 0 11 9 23 20
26 11 3 20 15 20 26 0 10 7 19 15 19 8 0 15 9 15 20 0 12 7 20 16 20 12 0 15
7 12 25 -5 25 13 34 38 17z m-471 -21 c3 -10 15 -21 25 -24 11 -3 20 -12 20
-20 0 -9 9 -18 19 -22 11 -3 23 -15 26 -26 4 -10 13 -19 22 -19 8 0 17 -9 20
-20 3 -11 14 -20 25 -20 11 0 22 -8 25 -19 3 -11 13 -21 24 -24 23 -6 26 -45
4 -53 -8 -4 -15 -15 -15 -25 0 -12 -7 -19 -19 -19 -10 0 -21 -9 -24 -20 -3
-11 -12 -20 -20 -20 -8 0 -17 -9 -20 -20 -3 -11 -12 -20 -20 -20 -8 0 -17 -9
-20 -20 -3 -11 -12 -20 -21 -20 -9 0 -16 -8 -16 -19 0 -10 -9 -21 -19 -24 -21
-5 -41 9 -41 30 0 7 -9 13 -20 13 -13 0 -20 7 -20 20 0 13 -7 20 -19 20 -11 0
-22 9 -26 19 -3 10 -15 21 -25 24 -12 3 -20 14 -20 26 0 16 -6 21 -25 21 -16
0 -25 6 -25 16 0 9 -9 18 -19 21 -27 7 -35 44 -11 50 11 3 22 14 25 24 4 10
13 19 22 19 8 0 17 9 20 20 3 10 13 22 23 25 10 3 20 15 23 25 3 11 12 20 21
20 9 0 16 8 16 20 0 13 7 20 20 20 13 0 20 7 20 20 0 26 36 27 45 1z m952 -26
c23 -25 45 -45 49 -45 3 0 26 -19 50 -42 79 -75 95 -88 104 -88 14 0 24 -44
11 -48 -6 -2 -11 -12 -11 -23 0 -10 -4 -19 -10 -19 -5 0 -10 -9 -10 -20 0 -11
-7 -20 -15 -20 -8 0 -15 -9 -15 -20 0 -11 -4 -20 -10 -20 -5 0 -10 -9 -10 -20
0 -11 -7 -20 -15 -20 -9 0 -15 -9 -15 -25 0 -34 -33 -33 -48 1 -7 14 -16 22
-22 19 -5 -3 -15 3 -22 15 -7 11 -18 20 -25 20 -7 0 -17 9 -23 20 -6 12 -22
25 -36 30 -13 5 -24 16 -24 25 0 9 -9 15 -21 15 -12 0 -23 8 -26 20 -3 11 -14
20 -24 20 -20 0 -44 35 -34 50 3 6 13 10 21 10 8 0 14 9 14 20 0 11 6 20 14
20 9 0 12 7 9 20 -4 14 0 20 11 20 9 0 16 8 16 20 0 11 5 20 10 20 6 0 10 9
10 20 0 11 7 23 15 26 8 4 15 15 15 25 0 30 20 22 67 -26z m795 -45 c51 -49
110 -106 132 -126 21 -20 34 -39 29 -43 -5 -3 -9 -23 -8 -44 1 -21 -2 -40 -7
-43 -5 -3 -6 -14 -3 -25 4 -10 2 -19 -3 -19 -6 0 -8 -9 -5 -20 3 -11 1 -20 -5
-20 -6 0 -8 -9 -5 -20 4 -14 0 -20 -10 -20 -9 0 -19 9 -22 20 -3 11 -13 20
-20 20 -8 0 -19 9 -25 20 -6 11 -15 20 -20 20 -5 0 -28 18 -50 40 -22 22 -45
40 -50 40 -5 0 -17 11 -26 25 -9 14 -22 25 -29 25 -17 0 -32 43 -17 48 6 2 9
9 6 17 -3 7 0 16 6 20 6 4 8 15 5 26 -4 11 -2 19 5 19 7 0 9 8 5 20 -4 12 -2
20 5 20 7 0 9 8 5 20 -4 12 -2 20 5 20 6 0 8 10 4 25 -3 14 -4 25 -1 25 3 0
48 -40 99 -90z m-407 60 c3 -11 11 -20 17 -20 6 0 30 -20 54 -45 23 -25 47
-45 53 -45 6 0 15 -9 21 -20 6 -11 16 -20 22 -20 13 0 78 -67 78 -81 0 -5 -5
-9 -11 -9 -6 0 -8 -9 -4 -20 4 -11 2 -20 -4 -20 -6 0 -11 -9 -11 -20 0 -11 -4
-20 -10 -20 -5 0 -10 -9 -10 -20 0 -11 -5 -20 -11 -20 -6 0 -8 -9 -4 -20 4
-11 2 -20 -4 -20 -6 0 -11 -9 -11 -19 0 -11 -4 -23 -10 -26 -8 -5 -65 41 -125
103 -12 12 -27 22 -33 22 -6 0 -16 9 -22 20 -6 11 -17 20 -25 20 -8 0 -19 9
-25 20 -6 11 -17 20 -25 20 -8 0 -19 10 -26 21 -9 18 -8 24 4 31 9 5 14 15 11
22 -3 7 2 16 10 19 9 4 13 13 10 22 -4 8 0 17 9 21 9 3 13 13 10 25 -3 10 0
19 6 19 6 0 11 9 11 20 0 11 5 20 10 20 6 0 10 9 10 20 0 11 6 20 14 20 8 0
18 -9 21 -20z m605 11 c0 -4 50 -58 110 -120 61 -61 111 -119 111 -129 4 -51
4 -202 1 -202 -4 0 -50 43 -149 138 -35 34 -69 62 -73 62 -17 0 -29 37 -22 66
4 16 7 66 6 112 0 45 3 82 8 82 4 0 8 -4 8 -9z"/>
<path d="M1962 11491 l-73 -68 3 -65 2 -66 31 25 c16 14 34 32 38 39 4 8 12
14 16 14 5 0 22 12 39 28 28 26 29 31 25 92 -3 36 -6 66 -7 67 -1 1 -34 -29
-74 -66z m16 -66 c-6 -14 -15 -25 -20 -25 -11 0 -10 7 2 31 16 28 32 23 18 -6z"/>
<path d="M2320 11536 c-8 -8 -27 -26 -41 -40 -15 -14 -31 -26 -37 -26 -5 0
-12 -7 -16 -15 -3 -8 -12 -15 -20 -15 -7 0 -16 -6 -19 -13 -6 -17 14 -107 24
-107 4 0 5 -10 2 -22 l-5 -23 20 23 c11 12 25 22 30 22 6 0 29 18 51 39 23 22
46 41 53 43 14 5 20 68 7 68 -5 0 -9 9 -9 19 0 11 -4 22 -10 26 -5 3 -7 12 -3
20 7 19 -8 19 -27 1z m-16 -94 c6 -10 -31 -59 -39 -51 -7 8 15 59 26 59 4 0
10 -4 13 -8z"/>
<path d="M3606 11529 c-16 -13 -39 -34 -51 -46 -12 -13 -27 -23 -33 -23 -6 0
-16 -9 -22 -20 -6 -11 -17 -20 -25 -20 -20 0 -19 -26 0 -34 8 -3 15 -12 15
-21 0 -8 7 -15 15 -15 8 0 15 -8 15 -19 0 -10 9 -21 20 -24 11 -3 20 -12 20
-21 0 -9 8 -16 20 -16 11 0 20 7 20 15 0 8 11 17 25 21 13 3 27 15 30 25 4 10
15 19 25 19 9 0 20 9 23 20 3 12 14 20 26 20 24 0 28 15 8 27 -8 4 -16 16 -20
26 -3 9 -13 17 -22 17 -8 0 -15 8 -15 19 0 10 -9 21 -19 24 -11 2 -21 15 -23
27 l-3 23 -29 -24z m17 -120 c-6 -21 -29 -36 -39 -26 -12 11 8 47 26 47 13 0
17 -5 13 -21z"/>
<path d="M4087 11516 c-20 -18 -37 -39 -37 -45 0 -6 -6 -11 -14 -11 -8 0 -28
-13 -45 -29 l-31 -29 46 -46 c25 -25 50 -46 55 -46 5 0 14 -11 19 -25 10 -27
40 -34 40 -10 0 9 11 20 25 25 14 5 25 16 25 25 0 9 9 15 21 15 12 0 23 8 26
20 3 11 11 20 19 20 22 0 28 22 10 36 -11 7 -15 18 -10 25 4 8 3 10 -4 5 -7
-4 -12 -2 -12 3 0 6 -9 11 -20 11 -13 0 -20 7 -20 20 0 13 -7 20 -20 20 -15 0
-20 7 -20 25 0 33 -9 32 -53 -9z m43 -111 c0 -19 -5 -25 -21 -25 -15 0 -19 4
-15 16 3 9 6 20 6 25 0 5 7 9 15 9 9 0 15 -9 15 -25z"/>
<path d="M5090 11510 c0 -11 -7 -20 -15 -20 -9 0 -19 -8 -22 -17 -9 -25 -46
-63 -60 -63 -7 0 -13 -7 -13 -15 0 -8 7 -15 15 -15 8 0 20 -9 27 -20 7 -11 18
-20 25 -20 7 0 17 -9 23 -20 6 -11 17 -20 25 -20 8 0 21 -10 30 -22 l16 -23
16 23 c8 12 22 22 29 22 8 0 14 9 14 20 0 13 7 20 20 20 12 0 17 5 14 14 -3 8
4 16 17 19 21 6 21 6 -8 35 -16 16 -39 32 -51 36 -12 4 -22 14 -22 22 0 8 -7
14 -15 14 -9 0 -21 11 -27 25 -13 30 -38 33 -38 5z m58 -118 c3 -17 -2 -22
-17 -22 -16 0 -21 6 -21 26 0 33 33 30 38 -4z"/>
<path d="M4590 11516 c0 -8 -9 -17 -19 -21 -10 -3 -21 -15 -24 -25 -3 -11 -12
-20 -20 -20 -8 0 -17 -9 -20 -20 -3 -11 -12 -20 -21 -20 -9 0 -16 -4 -16 -10
0 -12 44 -55 64 -63 9 -4 16 -11 16 -17 0 -6 11 -15 25 -20 14 -5 25 -16 25
-25 0 -8 9 -15 20 -15 11 0 20 7 20 15 0 8 9 15 20 15 13 0 24 10 30 25 5 14
16 25 25 25 8 0 15 7 15 15 0 8 7 15 15 15 19 0 20 29 0 36 -8 3 -17 14 -20
25 -4 10 -15 19 -25 19 -10 0 -22 9 -25 20 -3 11 -15 20 -26 20 -12 0 -19 7
-19 20 0 13 -7 20 -20 20 -11 0 -20 -6 -20 -14z m48 -124 c3 -17 -2 -22 -17
-22 -16 0 -21 6 -21 26 0 33 33 30 38 -4z"/>
<path d="M5540 11510 c0 -11 -4 -20 -10 -20 -5 0 -10 -9 -10 -20 0 -11 -7 -23
-15 -26 -8 -4 -15 -12 -15 -20 0 -8 -7 -14 -15 -14 -24 0 -17 -30 9 -39 13 -5
26 -17 29 -25 4 -9 13 -16 21 -16 9 0 20 -9 26 -20 6 -11 17 -20 25 -20 8 0
19 -9 25 -20 6 -11 18 -20 26 -20 11 0 13 6 9 20 -5 16 -2 20 15 20 16 0 20 4
16 15 -3 9 1 18 9 21 8 4 15 15 15 25 0 10 7 19 15 19 22 0 18 21 -5 27 -10 3
-22 14 -25 24 -4 10 -13 19 -21 19 -8 0 -22 9 -31 20 -10 11 -23 20 -30 20 -8
0 -18 11 -23 25 -11 30 -40 33 -40 5z m70 -109 c14 -27 13 -31 -10 -31 -15 0
-20 7 -20 25 0 30 15 33 30 6z"/>
<path d="M6315 11510 c4 -12 2 -20 -5 -20 -7 0 -9 -8 -5 -20 4 -12 2 -20 -5
-20 -7 0 -9 -7 -6 -17 4 -9 1 -20 -5 -24 -12 -7 97 -119 116 -119 6 0 16 -9
23 -20 7 -11 17 -20 23 -20 6 0 8 9 4 20 -4 12 -2 20 5 20 7 0 9 8 5 20 -4 12
-2 20 5 20 7 0 9 7 6 17 -4 9 -2 19 4 23 11 7 0 18 -86 98 -14 12 -28 22 -32
22 -4 0 -13 9 -20 20 -7 11 -17 20 -23 20 -6 0 -8 -9 -4 -20z m85 -134 c0 -6
-7 -2 -15 8 -8 11 -15 25 -15 30 0 6 7 2 15 -8 8 -11 15 -25 15 -30z"/>
<path d="M5963 11511 c3 -11 -1 -22 -9 -25 -8 -3 -11 -12 -7 -22 3 -9 2 -19
-3 -23 -5 -3 -15 -17 -22 -30 -13 -22 -12 -26 20 -50 18 -14 43 -36 56 -48 13
-13 27 -23 32 -23 6 0 15 -9 22 -20 7 -11 18 -20 25 -20 7 0 13 9 13 20 0 11
5 20 10 20 6 0 10 9 10 20 0 11 5 20 11 20 6 0 8 7 5 15 -3 9 1 18 9 21 17 7
8 34 -11 34 -13 0 -18 12 -15 33 0 4 -8 7 -18 7 -11 0 -41 20 -67 45 -50 48
-69 56 -61 26z m80 -121 c3 -12 0 -20 -8 -20 -7 0 -15 9 -18 20 -3 12 0 20 8
20 7 0 15 -9 18 -20z"/>
<path d="M6597 11501 c-3 -14 -1 -31 4 -37 6 -7 6 -22 -1 -39 -12 -32 -11 -35
48 -88 26 -23 60 -55 75 -72 25 -25 29 -26 27 -10 -1 11 -1 25 0 30 1 6 1 30
0 54 -1 39 -8 49 -75 116 -71 70 -73 71 -78 46z m83 -111 c6 -11 8 -20 6 -20
-3 0 -10 9 -16 20 -6 11 -8 20 -6 20 3 0 10 -9 16 -20z"/>
<path d="M1937 11713 c-12 -22 -16 -63 -7 -68 8 -5 7 -11 -1 -21 -9 -11 -8
-14 2 -14 8 1 28 18 44 40 17 21 38 41 48 43 9 3 17 10 17 16 0 12 -96 16
-103 4z"/>
<path d="M2175 11710 c-4 -6 -1 -17 5 -25 6 -8 9 -19 5 -26 -4 -6 -2 -15 6
-19 10 -7 10 -11 0 -24 -11 -13 -11 -16 0 -16 8 0 33 20 56 44 23 24 48 46 55
49 23 8 5 15 -58 22 -42 4 -64 3 -69 -5z"/>
<path d="M2500 11696 c0 -9 5 -16 10 -16 6 0 8 -11 4 -25 -5 -18 -2 -25 9 -25
10 0 13 -7 10 -20 -8 -32 10 -23 52 25 22 25 48 45 58 45 9 0 17 5 17 10 0 6
-22 10 -49 10 -27 0 -63 3 -80 6 -24 5 -31 3 -31 -10z"/>
<path d="M2884 11689 c-2 -4 3 -10 12 -13 10 -4 13 -13 9 -25 -4 -13 0 -20 15
-24 13 -3 18 -10 14 -21 -3 -9 -3 -16 1 -16 12 0 75 67 75 80 0 5 12 10 27 10
14 0 23 3 20 7 -9 8 -168 10 -173 2z"/>
<path d="M3310 11690 c0 -5 7 -13 17 -18 10 -6 14 -16 10 -26 -5 -11 -1 -16
13 -16 13 0 20 -7 20 -20 0 -13 7 -20 19 -20 11 0 23 9 26 20 3 11 13 20 20
20 8 0 19 8 24 19 6 10 22 22 36 25 14 4 23 11 20 16 -8 13 -205 13 -205 0z"/>
<path d="M3765 11690 c-3 -6 6 -15 20 -20 21 -8 25 -13 16 -24 -13 -15 -5 -26
21 -26 11 0 18 -7 18 -20 0 -15 7 -20 25 -20 18 0 25 5 25 20 0 11 6 20 14 20
7 0 21 11 30 25 11 16 26 25 43 25 18 0 24 3 17 10 -14 14 -221 23 -229 10z"/>
<path d="M4250 11675 c0 -9 9 -15 21 -15 17 0 20 -5 16 -20 -4 -17 0 -22 24
-27 20 -4 28 -11 27 -22 -2 -10 5 -17 20 -19 17 -3 22 2 22 18 0 13 8 24 20
27 11 3 20 12 20 20 0 8 9 17 19 20 11 3 22 11 25 19 4 11 -14 14 -104 14 -91
0 -110 -3 -110 -15z"/>
<path d="M6078 11683 c-57 -4 -77 -20 -38 -30 11 -3 20 -14 20 -24 0 -11 9
-21 24 -25 13 -3 26 -14 29 -25 3 -10 13 -19 22 -19 12 0 15 6 10 19 -3 11 -1
22 5 26 5 3 10 15 10 25 0 10 5 20 12 22 18 6 1 38 -19 36 -10 -1 -44 -3 -75
-5z"/>
<path d="M4740 11670 c0 -6 9 -10 20 -10 18 0 25 -10 21 -32 0 -4 10 -10 24
-14 16 -4 25 -13 25 -25 0 -12 7 -19 20 -19 15 0 20 7 20 25 0 16 6 25 15 25
18 0 20 26 3 37 -27 16 -148 27 -148 13z"/>
<path d="M5658 11672 c-25 -5 -23 -22 2 -22 13 0 20 -7 20 -20 0 -13 7 -20 20
-20 13 0 24 -10 30 -25 5 -14 17 -25 26 -25 12 0 15 6 10 25 -5 18 -2 25 9 25
8 0 15 9 15 19 0 10 7 22 16 25 49 19 -67 33 -148 18z"/>
<path d="M6350 11666 c0 -8 7 -16 15 -20 8 -3 15 -12 15 -20 0 -8 9 -18 20
-21 11 -3 25 -15 30 -26 19 -35 38 -23 36 22 -2 27 2 43 11 46 10 4 11 9 2 19
-16 20 -129 19 -129 0z"/>
<path d="M6600 11667 c0 -7 8 -20 18 -29 9 -9 29 -29 43 -45 14 -17 30 -32 35
-35 10 -7 10 95 -1 111 -9 16 -95 14 -95 -2z"/>
<path d="M6786 11658 c17 -31 56 -79 61 -75 2 3 -1 23 -7 46 -9 34 -15 41 -36
41 -17 0 -23 -4 -18 -12z"/>
<path d="M5259 11638 c-8 -15 -5 -20 16 -28 14 -5 25 -16 25 -25 0 -8 8 -15
19 -15 14 0 17 6 13 26 -3 19 -1 25 7 20 6 -4 11 -2 11 4 0 6 6 8 13 4 6 -4 4
2 -6 12 -24 25 -85 26 -98 2z"/>
<path d="M1725 11483 c-43 -46 -56 -67 -61 -101 -3 -24 -4 -45 -1 -48 2 -3 29
19 60 48 49 48 56 58 61 106 4 28 4 52 1 52 -3 0 -30 -26 -60 -57z m15 -42
c-11 -22 -29 -35 -36 -28 -9 8 20 47 34 47 9 0 10 -5 2 -19z"/>
<path d="M2700 11525 c-7 -8 -18 -15 -25 -15 -7 0 -20 -11 -29 -25 -9 -14 -21
-23 -27 -20 -5 4 -12 -1 -15 -10 -4 -9 -17 -21 -30 -26 -24 -8 -33 -29 -14
-29 6 0 10 -9 10 -20 0 -11 5 -20 10 -20 6 0 10 -9 10 -20 0 -11 5 -20 10 -20
6 0 10 -9 10 -20 0 -13 5 -18 15 -14 8 4 15 12 15 20 0 8 7 14 16 14 9 0 27
10 40 23 43 41 64 57 74 57 14 0 0 53 -16 63 -7 4 -11 14 -8 22 4 8 1 15 -5
15 -6 0 -11 9 -11 20 0 24 -13 26 -30 5z m0 -91 c0 -18 -23 -44 -39 -44 -17 0
-18 3 -8 25 10 21 47 36 47 19z"/>
<path d="M3127 11522 c-10 -10 -28 -27 -41 -39 -13 -13 -27 -23 -32 -23 -5 0
-17 -8 -26 -19 -8 -10 -22 -21 -29 -25 -11 -5 -11 -7 -1 -12 6 -3 12 -14 12
-24 0 -10 7 -21 16 -24 9 -4 14 -13 10 -21 -4 -10 1 -15 14 -15 14 0 20 -7 20
-22 0 -19 2 -20 10 -8 5 8 10 11 10 5 0 -5 5 -2 11 8 5 9 18 17 29 17 10 0 22
9 25 20 3 11 14 20 23 20 10 0 23 9 30 20 7 11 20 20 30 20 16 1 16 1 0 10
-10 6 -14 18 -11 30 3 12 2 20 -3 19 -23 -4 -34 3 -34 21 0 11 -7 20 -15 20
-9 0 -15 7 -13 16 4 23 -13 26 -35 6z m16 -89 c10 -17 -13 -53 -33 -53 -23 0
-25 12 -8 40 13 20 33 26 41 13z"/>
<path d="M6820 11501 c0 -4 5 -33 11 -63 10 -49 19 -64 74 -118 l64 -63 -16
64 c-14 55 -25 73 -74 126 -33 34 -59 58 -59 54z m80 -116 c7 -9 8 -15 2 -15
-5 0 -12 7 -16 15 -3 8 -4 15 -2 15 2 0 9 -7 16 -15z"/>
<path d="M1720 11240 c-6 -11 -17 -20 -25 -20 -8 0 -15 -6 -15 -14 0 -8 -9
-18 -20 -21 -11 -3 -20 -11 -20 -16 0 -12 107 -12 115 1 3 6 1 10 -4 10 -7 0
-10 17 -8 40 4 43 -6 52 -23 20z"/>
<path d="M2008 11241 c-7 -10 -23 -21 -35 -25 -13 -4 -23 -13 -23 -21 0 -7 -9
-15 -20 -18 -11 -3 -20 -10 -20 -16 0 -7 29 -11 80 -11 74 0 101 10 65 24 -8
3 -12 12 -9 20 3 8 1 17 -4 20 -6 3 -8 15 -5 26 7 25 -12 26 -29 1z"/>
<path d="M2371 11231 c-6 -10 -22 -22 -36 -25 -14 -4 -25 -13 -25 -21 0 -8 -9
-15 -20 -15 -11 0 -20 -4 -20 -10 0 -5 17 -10 38 -10 20 -1 61 -2 90 -3 51 -2
67 5 37 17 -8 3 -15 12 -15 21 0 8 -5 15 -11 15 -7 0 -9 10 -7 25 6 30 -16 34
-31 6z"/>
<path d="M3290 11220 c0 -15 -7 -20 -26 -20 -17 0 -28 -6 -31 -20 -3 -10 -17
-23 -32 -28 -19 -6 3 -10 88 -15 64 -3 122 -2 130 3 14 8 13 10 -4 11 -11 1
-24 1 -28 0 -5 -1 -11 7 -14 18 -3 10 -13 21 -24 24 -11 3 -19 14 -19 26 0 14
-6 21 -20 21 -13 0 -20 -7 -20 -20z"/>
<path d="M2809 11217 c-1 -7 -1 -15 -1 -18 1 -3 -10 -4 -24 -1 -19 3 -26 0
-31 -16 -3 -12 -15 -23 -27 -25 -20 -4 17 -8 112 -12 24 -1 38 1 32 5 -6 4 -8
14 -4 24 3 9 3 16 -2 15 -23 -4 -36 2 -31 15 3 8 -1 17 -9 20 -8 3 -15 0 -15
-7z"/>
<path d="M3797 11209 c-3 -12 -10 -18 -15 -15 -17 10 -43 -5 -40 -23 2 -10 -5
-17 -19 -19 -13 -2 -23 -7 -23 -11 0 -14 226 -24 247 -12 10 6 16 11 13 11 -3
1 -13 3 -23 5 -35 7 -47 14 -47 30 0 8 -9 15 -20 15 -13 0 -20 7 -20 20 0 29
-46 28 -53 -1z"/>
<path d="M4333 11210 c-4 -13 -14 -20 -30 -20 -19 0 -24 -4 -21 -22 2 -19 -1
-23 -19 -21 -15 2 -23 -3 -23 -12 0 -13 22 -15 130 -15 85 0 130 4 130 11 0 5
-4 8 -9 4 -5 -3 -13 0 -16 6 -4 5 -13 8 -20 5 -8 -3 -17 4 -20 15 -4 10 -13
19 -21 19 -8 0 -19 11 -24 25 -12 31 -49 34 -57 5z"/>
<path d="M1486 11201 c-14 -16 -15 -19 -2 -24 9 -4 16 3 19 19 5 29 5 29 -17
5z"/>
<path d="M4870 11200 c0 -15 -7 -20 -26 -20 -21 0 -24 -4 -19 -20 5 -16 2 -20
-14 -20 -12 0 -21 -4 -21 -10 0 -6 45 -10 115 -10 73 0 115 4 115 10 0 6 -6
10 -12 9 -27 -3 -36 2 -41 21 -3 12 -14 20 -26 20 -14 0 -21 6 -21 20 0 15 -7
20 -25 20 -18 0 -25 -5 -25 -20z"/>
<path d="M5384 11205 c4 -10 -3 -19 -19 -25 -16 -6 -23 -15 -19 -25 4 -10 0
-15 -15 -15 -12 0 -21 -4 -21 -10 0 -6 33 -11 78 -11 42 -1 93 -2 112 -3 19
-1 39 0 44 2 12 7 -16 22 -40 22 -13 0 -24 8 -27 20 -3 11 -14 20 -25 20 -11
0 -22 9 -25 20 -3 12 -14 20 -27 20 -16 0 -20 -4 -16 -15z"/>
<path d="M5850 11201 c0 -11 -10 -22 -22 -26 -14 -4 -18 -8 -10 -12 19 -8 14
-23 -8 -23 -13 0 -18 -5 -14 -15 5 -12 27 -15 110 -15 105 0 129 9 74 29 -17
5 -33 17 -36 26 -3 8 -12 15 -20 15 -7 0 -18 9 -24 20 -14 26 -50 27 -50 1z"/>
<path d="M6265 11200 c5 -14 2 -20 -10 -20 -12 0 -15 -6 -10 -20 4 -14 2 -20
-9 -20 -10 0 -13 -6 -9 -15 4 -13 22 -15 97 -13 54 2 90 7 89 13 -1 6 -12 11
-23 13 -11 2 -39 21 -61 43 -44 43 -75 52 -64 19z"/>
<path d="M6610 11201 c0 -11 -6 -21 -12 -24 -10 -3 -10 -7 0 -19 10 -13 10
-17 1 -20 -7 -2 -9 -10 -5 -16 4 -7 34 -12 77 -12 55 0 69 3 69 15 0 8 -7 15
-16 15 -9 0 -34 18 -55 40 -43 44 -59 50 -59 21z"/>
<path d="M6874 11168 l1 -53 58 -3 c31 -2 57 0 57 4 0 9 -101 104 -110 104 -4
0 -6 -24 -6 -52z"/>
<path d="M7074 11171 c3 -18 6 -37 6 -42 0 -5 11 -9 25 -9 32 0 31 7 -7 50
l-30 35 6 -34z"/>
<path d="M2140 11085 c-9 -11 -23 -14 -46 -11 -18 3 -175 8 -349 11 -261 5
-319 3 -336 -9 -16 -11 -17 -15 -5 -19 45 -17 659 -36 1246 -39 256 -1 560 -5
675 -9 116 -4 380 -8 588 -9 l378 -2 10 -25 c8 -22 14 -24 42 -19 17 4 40 7
50 7 37 1 15 19 -23 19 -22 0 -40 3 -40 8 0 4 206 6 457 5 252 -1 680 -3 951
-3 270 -1 492 -5 492 -8 0 -4 -14 -13 -30 -20 -17 -8 -27 -18 -24 -23 3 -5 24
4 47 21 22 16 48 30 56 30 14 0 14 -1 1 -10 -13 -9 -12 -12 5 -25 24 -19 37
-15 50 13 8 17 18 22 49 22 36 0 38 -1 21 -13 -21 -16 -14 -22 34 -32 32 -7
34 -6 29 18 l-5 26 121 -1 c125 -1 177 -9 118 -18 -18 -3 -31 -9 -30 -15 3
-12 385 -12 414 -1 18 7 18 8 2 20 -15 11 -8 14 54 20 39 3 73 8 75 10 2 2 1
10 -2 18 -8 20 -49 28 -146 28 -50 0 -79 4 -79 11 0 6 -7 3 -16 -5 -20 -20
-43 -20 -50 -1 -7 17 -54 21 -54 4 0 -6 7 -9 15 -5 8 3 15 1 15 -4 0 -6 -22
-10 -50 -10 -30 0 -50 4 -50 11 0 6 7 9 15 5 8 -3 15 -1 15 4 0 6 -12 10 -26
10 -19 0 -25 -4 -20 -15 4 -12 -3 -15 -34 -15 -29 0 -40 4 -40 15 0 8 -4 15
-9 15 -5 0 -11 -7 -15 -15 -7 -18 -72 -20 -80 -2 -5 10 -7 10 -12 0 -7 -15
-92 -17 -114 -3 -9 6 -17 5 -22 -3 -6 -9 -11 -8 -19 3 -8 11 -12 12 -16 3 -3
-8 -24 -13 -54 -13 -31 0 -48 4 -44 10 3 6 1 10 -4 10 -6 0 -11 -4 -11 -10 0
-5 -24 -10 -54 -10 -30 0 -58 5 -61 10 -3 6 -15 10 -26 10 -11 0 -17 -4 -14
-10 9 -14 -8 -13 -23 2 -8 8 -15 8 -26 -1 -20 -17 -1516 -17 -1527 1 -6 9 -11
9 -23 -1 -18 -15 -148 -9 -154 8 -5 16 -22 14 -22 -3 0 -12 -25 -13 -137 -11
-76 2 -247 5 -380 5 -147 1 -243 6 -243 12 0 5 -4 7 -9 4 -15 -10 -1039 -11
-1249 -2 -164 7 -202 12 -198 22 7 19 -9 18 -24 -1z m4180 -111 c0 -8 -4 -12
-10 -9 -5 3 -10 10 -10 16 0 5 5 9 10 9 6 0 10 -7 10 -16z m510 -4 c-28 -7
-80 -1 -80 9 0 3 24 4 52 2 40 -3 47 -6 28 -11z m220 12 c0 -4 -21 -8 -47 -8
-27 0 -52 -1 -58 -3 -5 -2 -28 -3 -50 -2 -30 1 -36 4 -25 11 18 12 180 13 180
2z"/>
<path d="M1726 11002 c-3 -5 0 -9 7 -10 73 -10 96 -11 117 -6 23 6 24 7 5 14
-27 11 -122 12 -129 2z"/>
<path d="M1880 11000 c0 -5 5 -10 11 -10 5 0 7 5 4 10 -3 6 -8 10 -11 10 -2 0
-4 -4 -4 -10z"/>
<path d="M2130 10990 c0 -5 5 -10 11 -10 5 0 7 5 4 10 -3 6 -8 10 -11 10 -2 0
-4 -4 -4 -10z"/>
<path d="M3166 10991 c-3 -5 -20 -7 -38 -5 l-33 3 32 -16 c26 -13 35 -14 48
-3 8 7 15 16 15 21 0 12 -17 12 -24 0z"/>
<path d="M2555 10980 c-3 -5 1 -10 10 -10 9 0 13 5 10 10 -3 6 -8 10 -10 10
-2 0 -7 -4 -10 -10z"/>
<path d="M2600 10979 c0 -5 5 -7 10 -4 6 3 10 8 10 11 0 2 -4 4 -10 4 -5 0
-10 -5 -10 -11z"/>
<path d="M3225 10980 c-3 -6 1 -7 9 -4 18 7 21 14 7 14 -6 0 -13 -4 -16 -10z"/>
<path d="M3280 10980 c0 -5 5 -10 10 -10 6 0 10 5 10 10 0 6 -4 10 -10 10 -5
0 -10 -4 -10 -10z"/>
<path d="M3320 10979 c0 -5 8 -10 18 -10 39 -4 48 -6 65 -13 22 -10 35 0 20
15 -14 14 -103 21 -103 8z"/>
<path d="M3616 10976 c3 -9 11 -16 18 -17 6 0 19 -2 28 -4 11 -2 15 2 11 11
-3 8 -11 14 -18 14 -7 0 -21 3 -29 6 -12 5 -15 2 -10 -10z"/>
<path d="M3835 10980 c-11 -4 -32 -5 -47 -3 -17 3 -28 1 -28 -6 0 -6 8 -12 18
-13 55 -5 75 -2 79 10 7 18 2 21 -22 12z"/>
<path d="M1408 10972 c-67 -3 -73 -10 -131 -134 -74 -157 -71 -105 -82 -1328
-3 -322 -7 -801 -10 -1065 -3 -264 -7 -781 -10 -1150 -3 -368 -7 -958 -10
-1310 -3 -352 -7 -944 -10 -1315 -3 -371 -8 -932 -11 -1246 l-6 -570 58 -26
c68 -31 168 -59 304 -87 207 -42 731 -104 1145 -136 116 -8 230 -17 255 -20
42 -3 199 -10 895 -35 154 -6 447 -10 650 -10 204 0 383 0 398 0 16 0 26 -4
22 -10 -3 -5 -12 -7 -20 -4 -8 4 -28 1 -44 -4 -21 -8 -31 -7 -33 0 -3 7 -10 8
-16 4 -8 -5 -10 -16 -6 -28 5 -17 3 -20 -10 -15 -9 4 -16 2 -16 -4 0 -6 -47
-9 -122 -7 -68 1 -113 4 -100 6 31 5 22 26 -13 30 -24 3 -27 1 -22 -17 3 -14
0 -21 -10 -21 -10 0 -12 6 -8 20 3 11 2 20 -4 20 -5 0 -18 3 -28 6 -13 4 -14
3 -5 -3 7 -5 10 -17 6 -26 -5 -14 -20 -17 -82 -17 -41 0 -72 3 -68 7 3 4 21 7
38 7 33 1 50 20 21 24 -74 9 -88 7 -98 -15 -8 -19 -18 -23 -57 -23 -48 0 -66
17 -29 27 11 3 22 10 24 16 3 9 -24 12 -97 11 -134 -2 -136 -2 -136 -14 0 -6
6 -10 13 -9 27 3 47 -1 47 -11 0 -16 -222 -8 -228 8 -3 9 2 10 21 3 44 -17 85
-1 48 19 -12 6 -21 8 -21 4 0 -3 -6 -1 -13 5 -8 6 -17 8 -21 4 -9 -10 -48 -12
-66 -3 -8 4 -26 1 -40 -6 -22 -12 -22 -14 -6 -20 11 -4 21 -2 26 6 6 9 9 9 15
0 4 -6 13 -9 21 -6 8 3 14 -1 14 -11 0 -13 -8 -15 -46 -9 -26 3 -77 6 -114 6
-62 0 -68 2 -63 19 3 10 0 22 -6 26 -6 3 -11 3 -10 -2 1 -4 -1 -16 -6 -26 -7
-17 -20 -18 -199 -12 -105 3 -200 8 -212 10 -11 3 -26 16 -33 31 -10 22 -16
25 -39 20 -15 -4 -35 -7 -45 -7 -31 0 -12 -24 24 -30 24 -5 13 -7 -38 -8 -40
0 -73 3 -73 7 0 5 -7 17 -16 28 -15 18 -15 18 -9 -3 5 -17 2 -23 -9 -23 -10 0
-16 9 -16 21 0 14 -5 19 -17 17 -23 -4 -28 -25 -6 -31 29 -9 -265 2 -352 13
-44 5 -117 12 -163 15 -57 3 -88 10 -99 21 -11 11 -18 12 -23 4 -5 -8 -53 -5
-176 10 -188 23 -198 25 -188 41 5 8 1 8 -15 0 -30 -17 -318 36 -554 101 -60
16 -111 27 -114 24 -18 -18 59 -57 197 -99 232 -71 478 -108 1030 -157 412
-36 412 -36 422 -54 11 -20 29 -21 22 -1 -7 18 -24 18 255 1 124 -8 271 -17
325 -20 67 -3 102 -9 107 -18 7 -11 9 -10 9 1 0 12 45 13 288 7 359 -8 968 -8
1251 0 154 4 212 3 201 -5 -12 -9 -11 -11 8 -11 12 0 21 5 20 13 -2 8 14 13
52 14 30 2 181 10 335 18 522 28 525 28 525 16 0 -6 9 -11 20 -11 13 0 18 5
13 15 -4 13 2 16 33 15 22 0 65 3 98 6 44 5 60 3 67 -7 7 -12 9 -11 9 2 0 12
26 18 143 30 98 10 144 12 150 4 5 -7 10 -6 16 3 12 20 91 29 91 11 1 -11 4
-10 13 3 15 19 94 38 83 19 -4 -6 0 -11 9 -11 9 0 15 6 13 12 -3 8 14 18 46
26 34 9 52 9 54 2 5 -14 33 -13 30 1 -4 16 54 32 63 17 5 -8 12 -6 25 6 9 10
25 15 35 13 11 -3 19 -1 19 3 0 5 16 12 35 16 19 3 39 12 46 20 6 8 17 14 24
14 17 0 65 57 65 77 0 12 -6 14 -27 8 l-27 -6 19 21 c11 12 21 34 23 49 17
184 29 531 18 531 -21 0 -58 -24 -66 -42 -8 -20 -9 -18 -9 14 -1 33 2 37 20
35 12 -1 24 4 26 11 3 7 -4 12 -16 12 -27 0 -35 15 -9 17 43 4 58 31 58 105 0
54 -3 68 -15 68 -12 0 -14 11 -12 56 2 31 8 59 14 62 6 4 13 94 17 220 7 191
6 213 -9 218 -12 5 -15 16 -11 49 2 24 9 52 14 62 12 24 16 1003 4 1003 -13 0
-13 81 -1 96 16 19 26 1224 10 1224 -8 0 -10 7 -5 23 4 12 9 38 10 57 9 113
19 1486 19 2670 l0 1375 -46 75 c-26 41 -56 94 -68 118 -12 23 -26 42 -31 42
-16 0 -12 -11 25 -82 29 -54 65 -157 65 -185 0 -17 -31 24 -41 55 -6 20 -34
79 -61 130 l-50 92 -76 1 c-43 0 -124 -1 -182 -2 -204 -4 -435 -1 -428 6 2 3
30 6 62 6 63 2 81 13 38 24 -39 11 -62 13 -67 5 -5 -8 -36 -6 -52 3 -20 13
-26 -14 -7 -28 17 -13 -1 -15 -136 -16 -85 0 -190 -3 -232 -5 -47 -2 -78 0
-78 6 0 6 14 10 31 10 42 0 32 23 -12 25 -48 3 -179 5 -212 3 -44 -3 -13 -22
37 -23 43 0 65 -9 54 -20 -7 -7 -987 -7 -1362 1 -319 7 -329 8 -350 29 -19 19
-32 21 -91 20 -94 -3 -95 -3 -95 -20 0 -11 6 -12 23 -7 19 7 45 8 145 3 12 -1
22 -5 22 -11 0 -6 -63 -10 -169 -10 -143 0 -170 2 -175 16 -3 8 -2 13 3 9 12
-7 41 4 41 16 0 13 -57 11 -65 -1 -4 -6 -1 -18 6 -26 11 -13 -38 -14 -424 -8
-350 6 -437 4 -437 -6 0 -8 -4 -9 -12 -3 -7 5 -49 8 -93 6 -93 -4 -164 -3
-220 2 -22 2 -125 7 -230 10 -104 3 -336 10 -515 16 -446 14 -477 14 -542 11z
m4607 -42 c15 -6 11 -7 -17 -7 -23 1 -33 4 -25 9 14 9 16 9 42 -2z m-811 -170
c12 4 29 5 37 0 7 -4 59 -8 114 -8 170 -2 354 -13 475 -28 25 -4 51 -7 58 -7
6 0 12 -4 12 -9 0 -5 3 -7 8 -4 4 2 16 -3 27 -11 15 -12 16 -14 3 -10 -9 3
-18 2 -20 -4 -3 -9 -134 -38 -203 -45 -48 -4 -309 -14 -490 -18 -71 -1 -147 1
-170 5 -22 4 -69 10 -105 13 -36 4 -83 11 -105 17 -22 6 -46 11 -52 11 -7 1
-13 5 -13 10 0 5 -11 6 -25 4 -13 -3 -27 -1 -30 3 -6 11 45 35 68 32 9 -1 17
1 17 6 0 4 10 9 23 9 12 1 47 4 77 8 30 3 80 8 110 11 30 3 75 7 99 10 24 2
46 7 49 10 4 3 8 2 10 -4 2 -6 12 -7 26 -1z m-2581 -205 c-3 -9 -8 -14 -10
-11 -3 3 -2 9 2 15 9 16 15 13 8 -4z m4747 -64 c0 -6 -4 -13 -10 -16 -5 -3
-10 1 -10 9 0 9 5 16 10 16 6 0 10 -4 10 -9z m-9 -164 c-8 -8 -11 -5 -11 9 0
27 14 41 18 19 2 -9 -1 -22 -7 -28z m9 -49 c0 -16 -3 -19 -11 -11 -6 6 -8 16
-5 22 11 17 16 13 16 -11z m-1937 -382 c35 -11 148 -84 177 -116 30 -32 58
-42 181 -60 95 -15 146 -28 175 -45 50 -29 147 -133 174 -185 38 -74 65 -66
33 10 -12 28 -18 50 -14 50 25 0 104 -79 122 -123 16 -38 2 -47 -76 -46 -33 1
-52 3 -42 6 18 5 23 18 8 27 -5 4 -51 17 -103 31 -244 65 -678 228 -849 318
-87 46 -114 51 -82 14 16 -17 13 -16 -20 3 -53 32 -110 87 -102 100 3 5 32 10
63 10 l57 0 -24 -19 c-34 -26 -12 -34 40 -15 60 22 178 52 210 53 14 1 46 -5
72 -13z m-420 -115 c164 -128 308 -202 587 -298 360 -124 563 -172 660 -157
l37 6 6 -103 c4 -57 5 -135 3 -174 -3 -38 -8 -130 -12 -203 -8 -150 -9 -153
-84 -146 -71 7 -231 35 -275 49 -22 7 -69 20 -105 30 -104 28 -180 52 -255 80
-38 15 -86 31 -105 37 -19 6 -39 13 -45 17 -5 4 -32 16 -60 26 -73 26 -388
193 -405 214 -3 3 -27 21 -55 40 -176 121 -239 161 -252 161 -8 0 -20 5 -27
12 -10 10 -5 23 26 69 21 32 38 61 38 64 0 4 11 21 25 39 14 18 25 36 25 41 0
23 182 245 202 245 4 0 36 -22 71 -49z m182 -41 c3 -6 -1 -7 -9 -4 -18 7 -21
14 -7 14 6 0 13 -4 16 -10z m2162 -27 c-3 -10 -5 -4 -5 12 0 17 2 24 5 18 2
-7 2 -21 0 -30z m-1980 -64 c165 -77 253 -112 431 -169 90 -28 162 -54 159
-56 -5 -6 -198 50 -282 82 -38 14 -82 29 -96 34 -14 4 -34 12 -45 19 -10 6
-48 22 -84 37 -111 45 -222 104 -195 104 2 0 53 -23 112 -51z m-1477 -69 c25
-12 114 -70 199 -127 139 -95 260 -164 334 -192 25 -10 27 -15 25 -58 -1 -45
0 -48 64 -108 90 -85 224 -171 518 -332 182 -100 209 -112 390 -176 318 -114
714 -195 835 -173 25 5 42 16 53 36 l18 29 84 -43 c123 -62 247 -112 310 -126
100 -22 103 -25 97 -75 -2 -25 -11 -52 -18 -61 -23 -28 -129 -74 -244 -106
-193 -54 -334 -41 -678 62 -163 49 -354 116 -467 165 -30 13 -120 52 -200 85
-429 183 -877 433 -1105 616 -165 132 -346 333 -385 427 -23 55 -30 64 -43 51
-6 -6 4 -32 48 -129 24 -53 130 -180 236 -282 158 -152 368 -303 574 -413 44
-23 107 -57 140 -75 286 -156 987 -445 1245 -513 227 -59 331 -75 464 -69 67
3 136 10 153 17 18 6 38 10 45 8 7 -3 -12 -13 -42 -24 -46 -16 -82 -19 -215
-18 -157 0 -163 1 -343 47 -101 26 -216 61 -255 78 -40 17 -110 44 -157 60
-47 16 -105 38 -130 49 -25 11 -137 58 -250 106 -219 92 -553 252 -712 340
-165 93 -458 314 -591 449 -203 205 -301 428 -214 490 33 24 158 16 217 -15z
m559 -44 c57 -3 106 -7 108 -10 2 -2 -17 -43 -43 -91 -39 -73 -50 -86 -68 -83
-12 2 -82 45 -155 94 l-135 89 50 6 c27 3 69 4 94 2 25 -1 92 -5 149 -7z
m2899 -156 c1 -114 -12 -126 -15 -13 -2 75 1 103 11 103 2 0 4 -40 4 -90z
m-3784 39 c4 -22 15 -58 26 -80 11 -21 20 -42 20 -47 0 -5 -53 -24 -117 -42
-194 -55 -419 -152 -552 -238 -31 -20 -106 -74 -167 -119 -61 -46 -113 -83
-117 -83 -10 0 -96 116 -107 144 -8 23 -4 29 38 66 26 22 54 40 63 40 19 0 42
24 32 33 -3 4 0 7 7 7 7 0 22 8 33 18 11 9 17 11 13 4 -7 -11 -4 -11 12 -1 12
7 18 17 15 23 -3 5 -1 6 4 3 6 -4 40 11 75 32 157 95 357 183 560 245 150 46
154 46 162 -5z m3786 -195 c0 -8 -4 -12 -10 -9 -5 3 -10 10 -10 16 0 5 5 9 10
9 6 0 10 -7 10 -16z m0 -150 c0 -13 -4 -24 -10 -24 -5 0 -10 14 -10 31 0 17 4
28 10 24 6 -3 10 -17 10 -31z m-3818 -34 c129 -48 183 -173 125 -289 -39 -76
-50 -90 -107 -135 -69 -54 -106 -73 -200 -103 -97 -31 -181 -43 -307 -43 -90
0 -102 -2 -108 -19 -10 -33 5 -48 68 -66 77 -22 133 -49 141 -70 13 -36 6 -72
-21 -97 -42 -39 -67 -48 -130 -50 -75 -2 -102 7 -136 46 l-27 31 -68 -35 c-42
-22 -95 -63 -143 -110 -119 -118 -178 -245 -199 -429 -10 -89 -7 -156 10 -196
4 -11 14 -42 21 -68 15 -60 73 -151 123 -195 87 -76 188 -106 361 -105 182 1
327 35 743 172 242 81 400 126 408 118 3 -3 -6 -31 -20 -61 -15 -31 -29 -82
-32 -113 -3 -32 -9 -61 -12 -64 -4 -3 -34 -12 -67 -19 -33 -6 -78 -16 -100
-22 -22 -5 -49 -10 -60 -12 -11 -1 -27 -5 -35 -8 -8 -4 -71 -21 -140 -38 -69
-18 -168 -43 -220 -57 -296 -77 -436 -102 -605 -110 -157 -6 -229 8 -345 68
-144 74 -251 217 -300 399 -32 120 -32 311 1 425 12 44 22 89 21 99 -1 23 56
130 103 196 41 56 145 156 206 198 25 17 81 48 124 68 l78 37 -89 22 c-95 23
-230 71 -239 85 -3 5 25 -2 62 -16 69 -26 158 -51 268 -77 77 -18 95 -9 95 49
l0 41 -57 13 c-131 29 -345 126 -452 205 -49 35 -121 109 -121 122 0 5 36 33
80 62 43 30 105 73 137 97 32 24 61 43 64 41 4 -1 34 -43 68 -94 34 -50 92
-119 129 -153 63 -59 185 -140 209 -140 12 0 33 52 33 83 0 27 94 169 136 207
137 119 370 169 526 110z m3818 -59 c0 -22 -4 -43 -10 -46 -6 -4 -10 12 -10
39 0 25 5 46 10 46 6 0 10 -18 10 -39z m-5 -111 c3 -5 1 -10 -4 -10 -6 0 -11
5 -11 10 0 6 2 10 4 10 3 0 8 -4 11 -10z m-4 -103 c-8 -8 -11 -3 -9 18 2 43
12 55 16 21 2 -16 -1 -33 -7 -39z m-3153 -80 c30 -30 46 -102 26 -118 -8 -6
-14 -20 -14 -30 0 -11 -8 -27 -19 -38 -10 -10 -21 -30 -25 -44 -7 -30 -158
-185 -202 -207 -16 -8 -38 -23 -48 -32 -11 -10 -23 -18 -27 -18 -4 0 -14 -6
-21 -12 -22 -21 -122 -67 -203 -94 -82 -27 -133 -54 -138 -74 -6 -21 -237
-374 -249 -378 -4 -2 -8 -8 -8 -13 0 -6 -15 -33 -33 -62 -60 -94 -108 -189
-103 -202 11 -29 64 -26 247 16 101 23 201 48 223 55 47 17 46 17 46 0 0 -8
-10 -22 -22 -30 -20 -14 -20 -16 -4 -16 16 0 17 -2 5 -16 -17 -21 -36 -28
-214 -79 -216 -63 -356 -83 -419 -63 -47 15 -76 52 -76 98 0 48 9 68 84 195
32 55 64 109 70 120 35 63 183 305 203 331 27 36 29 54 8 54 -28 0 -136 -40
-176 -66 -57 -36 -85 -45 -111 -35 -22 8 -22 10 19 49 55 53 135 98 246 137
l92 32 76 112 c137 202 231 301 354 376 85 51 159 76 245 84 92 8 136 0 168
-32z m3157 13 c3 -5 1 -10 -4 -10 -6 0 -11 5 -11 10 0 6 2 10 4 10 3 0 8 -4
11 -10z m5 -77 c0 -7 -4 -13 -10 -13 -5 0 -10 12 -10 28 0 21 2 24 10 12 5 -8
10 -21 10 -27z m-5076 -105 c36 -23 66 -45 66 -49 0 -5 -33 -59 -74 -121 -209
-320 -339 -721 -387 -1193 -7 -66 -13 -226 -13 -356 l-1 -237 -53 -56 c-29
-31 -54 -50 -57 -43 -13 43 -15 93 -16 324 0 270 9 411 41 629 36 247 103 501
189 716 59 149 210 428 231 428 5 0 38 -19 74 -42z m5076 38 c0 -3 -4 -8 -10
-11 -5 -3 -10 -1 -10 4 0 6 5 11 10 11 6 0 10 -2 10 -4z m-8 -78 c-9 -9 -12
-7 -12 12 0 19 3 21 12 12 9 -9 9 -15 0 -24z m-2407 -128 c-7 -11 34 -120 53
-142 14 -17 16 -17 27 -1 11 14 13 13 19 -10 7 -31 48 -46 71 -27 18 15 20 81
3 98 -20 20 -2 24 30 8 42 -22 45 -30 26 -73 -9 -21 -20 -65 -25 -98 -4 -33
-10 -71 -13 -85 -40 -176 -42 -192 -21 -206 64 -45 174 -114 182 -114 5 0 9
43 10 95 0 96 15 170 42 216 9 15 30 50 46 78 17 28 34 51 38 51 5 0 59 -20
120 -44 62 -24 155 -56 207 -71 52 -15 131 -37 175 -50 44 -13 98 -26 120 -30
22 -3 56 -10 75 -14 19 -5 47 -12 63 -15 15 -4 27 -13 27 -21 0 -8 18 -55 40
-105 45 -102 51 -126 40 -156 -9 -24 -117 -87 -133 -77 -11 7 30 32 54 33 27
0 44 27 29 45 -19 23 -43 18 -73 -16 -36 -41 -61 -36 -67 16 -6 44 -28 57 -47
26 -9 -15 -8 -26 9 -60 11 -22 26 -41 34 -41 31 0 11 -18 -33 -30 -27 -7 -56
-14 -65 -17 -21 -5 -74 -70 -111 -135 -54 -95 -26 -92 67 7 l71 75 56 0 c58 0
73 8 82 45 3 13 5 9 6 -13 1 -27 -4 -34 -26 -43 -104 -38 -188 -83 -188 -100
0 -7 12 -16 27 -20 33 -9 108 -70 101 -82 -3 -5 -23 -6 -45 -3 -29 5 -40 3
-44 -9 -10 -24 4 -62 36 -99 17 -18 30 -45 30 -59 0 -37 -46 -87 -80 -87 -52
0 -282 92 -443 176 -315 167 -365 216 -401 389 -17 82 -34 112 -58 102 -10 -3
-13 -17 -10 -44 2 -21 4 -46 5 -55 1 -10 5 -18 10 -18 4 0 5 -5 2 -10 -14 -23
55 -170 99 -212 44 -41 333 -218 356 -218 4 0 13 -7 20 -15 9 -11 8 -24 -6
-62 -9 -26 -21 -53 -26 -59 -4 -6 -5 -13 -2 -16 3 -3 -10 -11 -29 -17 -28 -10
-41 -8 -81 9 -27 12 -55 18 -67 15 -13 -4 -36 3 -67 22 -47 28 -183 99 -322
169 -41 21 -77 40 -80 44 -3 3 -36 28 -75 54 -140 98 -168 142 -195 311 -7 39
-15 77 -19 85 -11 25 -2 106 21 184 l12 39 146 -5 c81 -3 154 -2 162 3 9 5 32
34 53 64 20 30 42 55 50 55 19 0 63 42 58 55 -2 6 -18 9 -36 7 -41 -5 -58 14
-64 69 -3 23 -24 81 -48 130 -27 58 -40 98 -37 115 3 19 7 22 18 13 8 -6 12
-15 9 -19z m84 -83 c0 -33 -2 -38 -9 -22 -12 28 -12 78 0 70 6 -3 10 -25 9
-48z m1579 -439 c85 -328 117 -589 117 -978 0 -433 -49 -792 -154 -1130 -190
-615 -511 -1062 -980 -1365 -156 -101 -317 -179 -496 -242 -550 -191 -1189
-186 -1745 14 -258 93 -576 275 -719 410 l-61 59 0 76 c0 45 6 90 15 112 l15
36 83 -72 c464 -412 992 -595 1652 -575 346 11 663 88 960 233 712 346 1156
1027 1286 1969 19 135 23 208 23 460 1 295 -4 362 -40 575 -16 98 -50 246 -85
372 -13 48 -21 90 -17 93 5 6 91 31 113 34 6 0 21 -36 33 -81z m741 22 c0 -31
-3 -49 -9 -45 -11 7 -13 39 -4 73 9 32 11 28 13 -28z m1 -126 c0 -41 -4 -63
-10 -59 -18 11 -12 125 7 125 2 0 3 -30 3 -66z m-8 -171 l-10 -38 -1 50 c-1
36 2 46 10 38 8 -8 8 -22 1 -50z m8 -183 c0 -68 -4 -121 -10 -125 -6 -4 -10
40 -10 125 0 85 4 129 10 125 6 -4 10 -57 10 -125z m-1167 43 c16 -15 -27 -43
-67 -43 -41 1 -41 1 -16 15 14 8 33 12 43 9 11 -4 17 0 17 10 0 17 12 21 23 9z
m110 -42 c169 -125 232 -248 244 -471 5 -100 3 -126 -17 -200 -12 -47 -27 -89
-31 -94 -5 -6 -9 -19 -9 -31 0 -12 -4 -25 -9 -30 -5 -6 -14 -26 -20 -46 -7
-20 -21 -45 -31 -54 -11 -10 -20 -22 -20 -26 0 -29 -162 -153 -213 -165 -17
-4 -41 -13 -52 -20 -35 -23 -135 -43 -280 -55 -290 -24 -729 14 -1440 126 -16
2 -68 9 -115 15 -47 6 -92 13 -100 15 -13 4 -369 51 -450 60 -14 1 -97 12
-185 24 -390 54 -563 66 -885 65 -420 -2 -574 -44 -741 -201 -51 -49 -79 -85
-107 -141 -34 -70 -37 -83 -40 -179 -4 -97 -2 -108 23 -160 24 -48 34 -58 82
-80 97 -45 182 -17 294 96 69 70 96 123 85 167 -4 16 -2 24 6 24 7 0 85 9 173
19 267 32 335 36 335 19 0 -28 -59 -136 -106 -194 -198 -248 -492 -395 -744
-373 -96 8 -151 33 -224 100 -78 71 -108 145 -114 274 -10 265 79 471 282 645
149 127 246 184 412 239 65 22 162 46 214 53 52 7 86 14 75 16 -36 6 -127 33
-124 37 2 2 38 -6 79 -17 64 -18 113 -21 330 -25 465 -7 704 -44 1875 -288
429 -89 624 -115 865 -115 152 0 339 15 409 32 101 24 227 109 261 174 8 16
21 35 27 42 27 28 45 123 41 211 -5 113 -35 170 -135 256 -39 35 -79 67 -88
73 -23 12 -8 39 40 76 28 22 35 34 35 62 0 30 24 84 37 84 2 0 27 -17 56 -39z
m-136 -47 c11 -29 -12 -37 -51 -19 -53 25 -53 35 -1 35 32 0 47 -5 52 -16z
m1193 -139 c0 -28 -9 -55 -19 -55 -9 0 -12 39 -6 68 7 28 25 19 25 -13z m-10
-196 c0 -44 -4 -68 -10 -64 -18 11 -12 135 7 135 2 0 3 -32 3 -71z m0 -179 c0
-21 -4 -42 -10 -45 -6 -4 -10 13 -10 45 0 32 4 49 10 45 6 -3 10 -24 10 -45z
m0 -195 c0 -72 -4 -126 -10 -130 -6 -4 -10 42 -10 130 0 88 4 134 10 130 6 -4
10 -58 10 -130z m-4 -199 c0 -30 -3 -53 -8 -50 -10 6 -11 104 0 104 4 0 7 -24
8 -54z m-4791 -26 c3 -5 1 -10 -4 -10 -6 0 -11 5 -11 10 0 6 2 10 4 10 3 0 8
-4 11 -10z m4795 -130 c0 -33 -4 -60 -10 -60 -11 0 -14 103 -3 113 12 12 13 8
13 -53z m-4120 9 c179 -15 189 -17 186 -35 -1 -9 -7 -19 -13 -22 -5 -4 -13
-19 -17 -34 -3 -16 -11 -28 -16 -28 -6 0 -10 -6 -10 -13 0 -7 -13 -28 -30 -47
-16 -19 -29 -38 -30 -42 -1 -15 -112 -168 -122 -168 -6 0 -9 -3 -5 -6 7 -7
-29 -67 -89 -147 -24 -31 -44 -60 -44 -63 0 -3 -26 -44 -57 -91 -64 -94 -67
-99 -137 -210 -144 -229 -242 -395 -269 -453 -78 -172 -76 -284 8 -407 14 -21
25 -42 25 -48 0 -6 -52 -28 -115 -48 -287 -93 -538 -251 -686 -434 -83 -102
-87 -84 -17 67 141 301 345 680 516 960 203 332 490 774 525 810 43 44 159
223 188 290 32 74 35 109 14 150 l-16 30 43 0 c24 0 99 -5 168 -11z m885 -83
c96 -25 165 -79 208 -161 24 -47 46 -157 46 -237 1 -58 1 -58 32 -58 45 0 175
46 223 79 70 49 91 76 116 155 20 63 21 80 11 102 l-12 26 143 -7 c79 -4 150
-11 158 -16 8 -5 10 -9 4 -9 -14 0 -50 -78 -40 -87 3 -4 23 3 44 14 66 37 158
63 225 63 75 0 108 -23 126 -86 14 -51 14 -59 -3 -73 -7 -6 -12 -22 -10 -36 5
-51 -105 -295 -133 -295 -7 0 -10 -6 -8 -12 3 -7 -15 -43 -39 -81 -125 -189
-164 -287 -113 -287 28 0 101 34 192 89 136 83 134 81 182 176 25 50 53 99 63
110 10 11 34 58 55 105 21 47 48 108 60 135 44 99 58 155 52 211 l-5 53 106 3
c59 2 112 2 118 0 6 -2 -5 -35 -28 -80 -21 -42 -38 -83 -38 -90 0 -7 -11 -34
-24 -60 -13 -26 -32 -66 -42 -89 -10 -24 -21 -43 -25 -43 -4 0 -6 -6 -6 -12 1
-14 -21 -63 -106 -240 -32 -65 -58 -108 -67 -108 -12 0 -12 -2 -1 -9 9 -6 10
-11 2 -15 -17 -11 -13 -53 5 -60 23 -9 56 1 176 51 116 48 111 43 158 163 12
30 25 57 30 60 11 7 96 207 132 308 39 113 46 173 24 206 -9 14 -16 27 -16 29
0 2 39 7 86 11 81 6 151 18 187 31 14 6 14 2 5 -29 -6 -20 -16 -36 -21 -36 -5
0 -7 -7 -3 -15 3 -8 1 -15 -4 -15 -6 0 -10 -7 -10 -16 0 -18 -64 -202 -85
-244 -42 -86 -55 -116 -55 -123 0 -21 -184 -381 -232 -454 -55 -85 -134 -199
-150 -217 -5 -6 -32 -42 -59 -79 -28 -37 -59 -73 -70 -80 -10 -6 -19 -16 -19
-21 0 -19 -86 -87 -150 -120 -114 -58 -280 -68 -600 -35 -153 16 -326 13 -545
-7 -116 -11 -141 -15 -200 -33 -155 -49 -228 -91 -319 -188 -29 -31 -58 -53
-70 -53 -40 0 -231 51 -336 89 -87 32 -251 104 -270 119 -8 7 74 75 133 110
104 63 273 106 537 138 102 13 225 17 510 18 322 0 403 -3 574 -22 341 -38
479 -28 595 41 57 34 155 134 174 176 7 14 27 48 45 74 48 74 42 81 -35 40
-192 -101 -353 -98 -353 8 0 21 -5 39 -10 39 -6 0 -34 -18 -63 -39 -50 -37
-115 -78 -202 -126 -95 -52 -182 -56 -226 -9 -21 22 -24 35 -23 97 1 102 21
157 108 290 42 64 97 155 122 202 25 47 49 85 54 85 4 0 10 8 13 18 4 9 13 35
21 57 42 110 -6 133 -143 68 l-78 -36 -98 -161 c-176 -287 -203 -329 -272
-438 -37 -60 -71 -108 -75 -108 -5 0 -8 -7 -8 -15 0 -9 -7 -18 -15 -21 -8 -4
-15 -14 -15 -24 0 -33 -32 -48 -120 -55 -128 -10 -136 -11 -149 -19 -6 -4 -11
-2 -11 4 0 7 -8 9 -21 5 -16 -6 -20 -4 -13 6 70 120 165 263 195 298 22 24 39
50 39 57 0 8 5 14 10 14 6 0 10 5 10 10 0 10 26 52 128 208 30 45 52 85 49 88
-3 4 -37 -9 -74 -28 -37 -19 -93 -45 -123 -57 -50 -19 -59 -28 -90 -84 -55
-100 -131 -196 -236 -296 -124 -117 -114 -109 -204 -166 -147 -94 -274 -135
-417 -135 -72 0 -97 5 -141 25 -183 85 -237 304 -140 568 16 45 31 94 33 109
4 37 135 217 230 317 139 146 310 257 455 295 70 19 200 20 265 2z m3230 -66
c1 -22 -2 -37 -6 -34 -5 3 -9 24 -9 46 0 52 12 42 15 -12z m-5376 -88 c12 -57
36 -144 51 -195 33 -105 31 -109 -44 -105 -39 2 -53 8 -68 29 -22 29 -68 202
-64 239 5 49 81 161 96 143 4 -4 17 -54 29 -111z m5368 -544 c-3 -8 -6 -5 -6
6 -1 11 2 17 5 13 3 -3 4 -12 1 -19z m-1 -65 c-10 -10 -19 5 -10 18 6 11 8 11
12 0 2 -7 1 -15 -2 -18z m-5 -86 c-8 -8 -11 -5 -11 9 0 27 14 41 18 19 2 -9
-1 -22 -7 -28z m-5056 -79 c75 -124 74 -112 10 -212 -20 -32 -41 -54 -45 -50
-21 23 -96 147 -132 221 -41 82 -44 113 -11 113 10 0 36 9 58 19 22 11 43 20
46 20 4 1 37 -49 74 -111z m5065 -73 c0 -19 -2 -35 -4 -35 -2 0 -6 16 -8 35
-2 19 0 35 4 35 4 0 8 -16 8 -35z m0 -71 c0 -8 -5 -12 -10 -9 -6 4 -8 11 -5
16 9 14 15 11 15 -7z m-2 -109 c0 -25 -5 -45 -10 -45 -4 0 -8 20 -8 45 0 25 5
45 10 45 6 0 9 -20 8 -45z m2 -94 c0 -11 -4 -23 -10 -26 -6 -4 -10 5 -10 19 0
14 5 26 10 26 6 0 10 -9 10 -19z m-4 -158 c-10 -10 -19 5 -10 18 6 11 8 11 12
0 2 -7 1 -15 -2 -18z m4 -103 c0 -14 -5 -32 -10 -40 -7 -11 -9 1 -8 38 1 53
18 55 18 2z m0 -106 c0 -13 -4 -24 -10 -24 -5 0 -10 14 -10 31 0 17 4 28 10
24 6 -3 10 -17 10 -31z m-10 -284 c0 -11 -4 -20 -10 -20 -5 0 -10 9 -10 20 0
11 5 20 10 20 6 0 10 -9 10 -20z m0 -230 c0 -5 -2 -10 -4 -10 -3 0 -8 5 -11
10 -3 6 -1 10 4 10 6 0 11 -4 11 -10z m0 -30 c0 -5 -2 -10 -4 -10 -3 0 -8 5
-11 10 -3 6 -1 10 4 10 6 0 11 -4 11 -10z m-3735 -190 c27 0 43 -30 64 -125
15 -61 27 -95 34 -92 7 2 37 40 67 85 54 80 56 83 89 78 19 -3 39 -10 45 -16
7 -7 0 -59 -20 -167 l-31 -158 -34 4 c-38 3 -51 17 -45 46 3 11 7 38 11 60 l6
40 -23 -29 c-60 -77 -64 -79 -91 -72 -21 5 -29 15 -37 49 -19 70 -21 77 -30
77 -4 0 -11 -22 -15 -48 -9 -70 -15 -77 -59 -62 -20 6 -36 17 -36 24 0 17 49
287 55 305 3 7 12 10 21 7 9 -3 22 -6 29 -6z m1337 -58 c12 -46 -1 -58 -70
-66 -66 -8 -87 -18 -79 -39 4 -12 14 -13 54 -6 26 5 54 10 62 12 16 2 36 -46
28 -67 -3 -8 -25 -17 -49 -21 -65 -10 -78 -15 -78 -31 0 -17 28 -17 102 0 32
8 60 11 62 8 2 -4 6 -23 10 -44 6 -34 5 -37 -26 -47 -55 -17 -207 -45 -213
-40 -9 9 -56 289 -53 313 3 18 17 24 103 43 127 27 137 26 147 -15z m-338 -28
c20 -52 -4 -84 -65 -84 l-31 0 3 -122 4 -122 -34 -8 c-20 -6 -37 -6 -43 0 -5
5 -12 63 -16 128 l-7 119 -44 -3 c-50 -4 -61 6 -61 55 l0 31 73 6 c66 6 119
10 188 14 17 1 29 -4 33 -14z m-367 -163 c29 -90 53 -168 53 -173 0 -4 -18 -8
-40 -8 -34 0 -42 4 -55 30 -15 29 -19 30 -80 30 -54 0 -65 -3 -70 -19 -10 -33
-95 -34 -95 -2 0 10 27 73 61 141 33 67 64 133 70 146 8 22 14 25 56 22 l46
-3 54 -164z m3103 139 c0 -11 -4 -20 -10 -20 -5 0 -10 9 -10 20 0 11 5 20 10
20 6 0 10 -9 10 -20z m0 -61 c0 -10 -4 -19 -10 -19 -5 0 -10 12 -10 26 0 14 4
23 10 19 6 -3 10 -15 10 -26z m-8 -151 c-9 -9 -12 -7 -12 12 0 19 3 21 12 12
9 -9 9 -15 0 -24z m-5 -40 c-3 -8 -6 -5 -6 6 -1 11 2 17 5 13 3 -3 4 -12 1
-19z m0 -200 c-3 -8 -6 -5 -6 6 -1 11 2 17 5 13 3 -3 4 -12 1 -19z m0 -80 c-3
-8 -6 -5 -6 6 -1 11 2 17 5 13 3 -3 4 -12 1 -19z m3 -120 c0 -16 -3 -19 -11
-11 -6 6 -8 16 -5 22 11 17 16 13 16 -11z m0 -198 c0 -11 -2 -20 -4 -20 -2 0
-6 9 -9 20 -3 11 -1 20 4 20 5 0 9 -9 9 -20z m5 -57 c-21 -15 -30 -10 -22 11
4 10 13 13 23 9 15 -6 15 -7 -1 -20z m-50 -23 c-3 -5 -12 -10 -18 -10 -7 0 -6
4 3 10 19 12 23 12 15 0z m-68 -26 c-3 -3 -12 -4 -19 -1 -8 3 -5 6 6 6 11 1
17 -2 13 -5z m-92 -24 c-11 -5 -29 -9 -40 -9 l-20 0 20 9 c11 5 29 9 40 9 l20
0 -20 -9z m-70 -9 c-14 -13 -83 -26 -70 -13 9 9 29 15 70 21 6 0 6 -2 0 -8z
m-89 -20 c-7 -10 -57 -23 -111 -27 -22 -1 -58 -7 -80 -13 -52 -14 -57 -13 -53
1 3 8 47 20 109 29 127 20 142 21 135 10z m104 -20 c0 -10 -69 -25 -78 -17 -3
3 4 6 16 6 11 0 24 5 27 10 8 12 35 13 35 1z m-372 -21 c-25 -15 -115 -25
-103 -12 6 6 30 12 55 15 25 2 50 4 55 5 6 1 2 -3 -7 -8z m222 -10 c0 -5 -9
-10 -19 -10 -11 0 -28 -3 -38 -6 -10 -3 -7 2 7 10 29 18 50 20 50 6z m-337
-14 c4 -11 1 -13 -10 -9 -11 4 -14 2 -11 -8 3 -8 15 -13 27 -12 11 2 21 -2 21
-7 0 -6 -13 -10 -29 -10 -21 0 -32 6 -36 20 -8 24 -12 24 -57 6 -22 -10 -39
-11 -49 -5 -23 14 -32 10 -15 -6 9 -9 21 -15 28 -14 7 1 24 0 38 -1 18 -2 13
-5 -19 -12 -41 -9 -46 -8 -64 14 l-19 23 5 -22 c3 -13 1 -23 -4 -23 -5 0 -9 9
-9 20 0 24 -9 25 -36 5 -16 -12 -17 -16 -5 -24 11 -7 8 -9 -10 -9 -13 0 -57
-3 -96 -7 l-73 -8 0 27 c0 14 -5 26 -11 26 -5 0 -8 -4 -5 -8 3 -5 -8 -6 -25
-4 -39 6 -37 22 4 23 17 0 39 2 47 3 8 2 58 6 110 10 155 11 225 18 229 22 11
11 69 2 74 -10z m243 -4 c-3 -3 -35 -11 -70 -17 -53 -10 -63 -10 -59 1 2 7 14
14 26 16 39 5 108 6 103 0z m-146 -22 c0 -5 -12 -10 -27 -9 -25 0 -26 1 -8 9
27 12 35 12 35 0z m-708 -22 c-7 -7 -29 -12 -49 -12 -26 0 -44 -8 -65 -28 -32
-32 -68 -36 -112 -13 -24 13 -27 13 -23 1 7 -19 -28 -24 -213 -31 -80 -3 -172
-8 -205 -11 -41 -3 -55 -2 -45 5 26 18 2 23 -31 7 -43 -21 -209 -23 -209 -2 0
9 10 13 31 12 18 0 34 4 36 10 2 6 -11 11 -29 12 -18 0 -61 1 -95 2 -111 3
-67 20 55 21 64 0 279 9 477 18 469 24 492 24 477 9z m65 6 c-3 -3 -12 -4 -19
-1 -8 3 -5 6 6 6 11 1 17 -2 13 -5z m103 -34 c0 -6 -6 -12 -12 -15 -27 -9
-168 -12 -168 -4 0 5 12 9 28 10 43 1 116 10 121 15 9 8 31 4 31 -6z m-205
-20 c-3 -5 -22 -10 -41 -10 -21 0 -33 4 -29 10 3 6 22 10 41 10 21 0 33 -4 29
-10z m-1037 -34 c37 2 76 5 86 6 10 2 21 -3 23 -9 3 -9 -8 -13 -34 -14 -21 0
-71 -3 -110 -5 -59 -4 -73 -2 -73 10 0 14 32 28 38 15 1 -3 33 -5 70 -3z
m-833 -6 c3 -5 -1 -10 -9 -10 -9 0 -16 5 -16 10 0 6 4 10 9 10 6 0 13 -4 16
-10z m65 0 c0 -13 -28 -25 -38 -16 -3 4 0 11 8 16 20 13 30 12 30 0z"/>
<path d="M3239 8871 c-25 -10 -60 -29 -78 -42 -36 -27 -131 -147 -131 -166 0
-7 -4 -13 -10 -13 -5 0 -10 -12 -10 -28 l0 -27 83 3 c202 6 340 67 354 154 8
55 -12 94 -61 118 -50 24 -85 24 -147 1z"/>
<path d="M3888 8488 c-181 -196 -251 -278 -244 -285 8 -9 104 39 178 89 67 45
189 162 218 210 11 18 20 43 20 55 0 22 -26 43 -53 43 -8 0 -62 -51 -119 -112z"/>
<path d="M6053 7850 c2 -42 -2 -71 -14 -97 -10 -21 -18 -43 -19 -49 0 -13 -55
-90 -96 -134 -56 -60 -114 -178 -114 -232 0 -48 15 -71 31 -47 5 8 9 30 9 49
0 46 41 126 102 197 79 93 116 154 132 214 18 71 8 159 -19 159 -12 0 -15 -12
-12 -60z"/>
<path d="M3896 5951 c2 -2 -26 -19 -62 -37 -171 -88 -310 -225 -406 -404 -45
-83 -60 -129 -63 -199 -5 -109 15 -141 110 -178 70 -27 165 -4 270 66 58 39
285 267 285 286 0 7 -16 23 -35 35 -19 12 -48 43 -63 68 -24 42 -27 57 -26
132 1 92 22 158 63 194 36 32 27 46 -28 43 -27 -1 -47 -4 -45 -6z"/>
<path d="M4092 3570 c-19 -31 -15 -50 12 -50 28 0 37 16 25 48 -10 27 -20 28
-37 2z"/>
<path d="M6210 2593 c0 -10 52 -35 59 -28 2 3 0 9 -5 14 -14 13 -54 24 -54 14z"/>
<path d="M6166 2583 c-11 -12 -6 -19 14 -20 11 -1 20 2 20 7 0 10 -26 20 -34
13z"/>
<path d="M5740 2550 c0 -5 4 -10 9 -10 6 0 13 5 16 10 3 6 -1 10 -9 10 -9 0
-16 -4 -16 -10z"/>
<path d="M5185 2530 c-3 -5 1 -10 10 -10 9 0 13 5 10 10 -3 6 -8 10 -10 10 -2
0 -7 -4 -10 -10z"/>
<path d="M5416 2525 c-3 -8 -2 -15 3 -15 5 0 14 7 21 15 10 12 10 15 -3 15 -8
0 -17 -7 -21 -15z"/>
<path d="M5515 2530 c3 -5 10 -10 16 -10 5 0 9 5 9 10 0 6 -7 10 -16 10 -8 0
-12 -4 -9 -10z"/>
<path d="M5570 2530 c0 -5 5 -10 10 -10 6 0 10 5 10 10 0 6 -4 10 -10 10 -5 0
-10 -4 -10 -10z"/>
<path d="M5370 2519 c0 -5 5 -7 10 -4 6 3 10 8 10 11 0 2 -4 4 -10 4 -5 0 -10
-5 -10 -11z"/>
<path d="M3485 10970 c-3 -5 3 -10 14 -10 12 0 21 5 21 10 0 6 -6 10 -14 10
-8 0 -18 -4 -21 -10z"/>
<path d="M3540 10975 c0 -10 52 -25 63 -18 7 4 3 9 -9 14 -23 9 -54 11 -54 4z"/>
<path d="M3685 10970 c3 -5 10 -10 16 -10 5 0 9 5 9 10 0 6 -7 10 -16 10 -8 0
-12 -4 -9 -10z"/>
<path d="M3957 10974 c-12 -12 3 -22 24 -17 16 4 17 8 7 14 -16 10 -23 11 -31
3z"/>
<path d="M4253 10963 c9 -9 20 -13 24 -9 4 4 1 11 -7 16 -25 16 -35 11 -17 -7z"/>
<path d="M4430 10970 c0 -5 5 -10 10 -10 6 0 10 5 10 10 0 6 -4 10 -10 10 -5
0 -10 -4 -10 -10z"/>
<path d="M4490 10971 c0 -5 5 -13 10 -16 6 -3 10 -2 10 4 0 5 -4 13 -10 16 -5
3 -10 2 -10 -4z"/>
<path d="M4530 10969 c0 -5 9 -9 20 -9 11 0 20 4 20 8 0 4 -9 8 -20 9 -11 1
-20 -2 -20 -8z"/>
<path d="M4648 10963 c7 -3 16 -2 19 1 4 3 -2 6 -13 5 -11 0 -14 -3 -6 -6z"/>
<path d="M4730 10960 c0 -5 5 -10 11 -10 5 0 7 5 4 10 -3 6 -8 10 -11 10 -2 0
-4 -4 -4 -10z"/>
<path d="M4795 10960 c-3 -5 -1 -10 4 -10 6 0 11 5 11 10 0 6 -2 10 -4 10 -3
0 -8 -4 -11 -10z"/>
<path d="M4855 10960 c-10 -16 10 -18 100 -14 50 2 103 4 118 4 16 0 26 4 22
9 -7 12 -85 10 -85 -2 0 -5 -5 -5 -12 0 -16 12 -136 14 -143 3z"/>
<path d="M5525 10960 c-3 -5 -1 -10 4 -10 6 0 11 5 11 10 0 6 -2 10 -4 10 -3
0 -8 -4 -11 -10z"/>
<path d="M6120 10959 c0 -10 27 -19 34 -12 11 12 6 19 -14 19 -11 0 -20 -3
-20 -7z"/>
<path d="M6356 10954 c-5 -14 -4 -15 9 -4 17 14 19 20 6 20 -5 0 -12 -7 -15
-16z"/>
<path d="M5740 10950 c0 -5 5 -10 10 -10 6 0 10 5 10 10 0 6 -4 10 -10 10 -5
0 -10 -4 -10 -10z"/>
<path d="M1276 2754 c-3 -9 -6 -17 -6 -18 0 -1 9 -2 20 -3 17 -2 18 1 10 18
-13 23 -16 24 -24 3z"/>
<path d="M1370 2720 c0 -5 5 -10 10 -10 6 0 10 5 10 10 0 6 -4 10 -10 10 -5 0
-10 -4 -10 -10z"/>
<path d="M1505 2710 c-3 -6 2 -13 12 -16 10 -3 29 -10 43 -14 41 -14 130 -20
130 -10 0 6 -7 10 -16 10 -8 0 -25 5 -37 12 -12 7 -40 13 -63 14 -23 0 -46 4
-52 8 -6 3 -13 2 -17 -4z"/>
<path d="M1935 2630 c3 -5 8 -10 11 -10 2 0 4 5 4 10 0 6 -5 10 -11 10 -5 0
-7 -4 -4 -10z"/>
<path d="M1140 2596 c0 -34 16 -41 31 -15 9 17 8 23 -2 30 -22 14 -29 10 -29
-15z"/>
<path d="M2200 2610 c0 -5 5 -10 10 -10 6 0 10 5 10 10 0 6 -4 10 -10 10 -5 0
-10 -4 -10 -10z"/>
<path d="M7346 2603 c-6 -14 -9 -15 -15 -4 -9 14 -45 8 -70 -13 -7 -6 -19 -11
-25 -12 -6 0 -19 -2 -28 -2 -9 -1 -20 -12 -23 -23 -5 -16 -9 -18 -15 -9 -11
18 -116 -4 -124 -26 -9 -25 -7 -34 9 -34 8 0 12 -6 9 -14 -3 -7 2 -16 10 -19
9 -4 16 -13 16 -22 0 -19 29 -20 35 0 15 47 18 51 22 31 3 -10 0 -23 -6 -29
-6 -6 -11 -19 -11 -28 0 -16 -19 -29 -41 -29 -5 0 -9 7 -9 15 0 8 -4 15 -10
15 -5 0 -10 9 -10 20 0 11 -4 20 -10 20 -5 0 -10 7 -10 15 0 28 -39 62 -65 57
-26 -5 -75 -61 -75 -86 0 -9 -4 -16 -10 -16 -5 0 -10 -11 -10 -24 0 -13 -7
-26 -15 -30 -8 -3 -15 -13 -15 -21 0 -9 -7 -23 -16 -32 -8 -9 -13 -22 -10 -29
3 -8 1 -14 -4 -14 -6 0 -10 7 -10 15 0 9 -7 18 -15 21 -8 4 -15 13 -15 20 0 8
-7 17 -15 20 -8 4 -15 13 -15 20 0 8 -7 17 -15 20 -8 4 -15 12 -15 18 0 46
-116 79 -127 37 -3 -11 -13 -21 -24 -24 -11 -3 -19 -14 -19 -25 0 -12 -9 -23
-19 -27 -13 -4 -17 -12 -14 -25 4 -14 0 -20 -11 -20 -9 0 -16 -8 -16 -20 0
-10 -9 -24 -19 -30 -11 -5 -21 -20 -23 -32 -4 -30 -22 -30 -26 0 -2 14 -10 22
-23 22 -10 0 -19 6 -19 13 0 7 -8 20 -17 29 -39 38 -53 55 -53 67 0 6 -8 15
-17 18 -10 4 -22 12 -28 18 -15 17 -105 7 -105 -11 0 -8 -11 -19 -25 -24 -15
-6 -25 -17 -25 -30 0 -11 -6 -20 -14 -20 -8 0 -17 -11 -20 -25 -4 -14 -13 -25
-21 -25 -9 0 -20 -11 -25 -25 -5 -14 -16 -25 -24 -25 -8 0 -16 -10 -18 -22 -4
-31 -25 -33 -32 -3 -4 16 -13 25 -26 25 -12 0 -20 7 -20 16 0 9 -9 18 -20 21
-11 3 -20 12 -20 20 0 8 -9 17 -20 20 -11 3 -20 14 -20 24 0 11 -10 23 -24 29
-13 5 -27 14 -31 19 -13 22 -115 9 -115 -14 0 -8 -10 -15 -22 -17 -15 -2 -24
-11 -26 -25 -3 -17 -10 -23 -28 -23 -19 0 -24 -5 -24 -25 0 -18 -5 -25 -20
-25 -15 0 -20 -7 -20 -25 0 -20 -5 -25 -24 -25 -18 0 -25 -6 -28 -22 -4 -31
-31 -34 -43 -6 -6 13 -17 22 -24 20 -7 -1 -15 6 -18 17 -3 11 -13 23 -24 26
-10 3 -21 15 -24 25 -3 10 -15 22 -25 25 -10 3 -22 15 -25 26 -4 10 -13 19
-21 19 -8 0 -17 7 -20 15 -9 23 -132 21 -142 -2 -4 -10 -16 -18 -27 -18 -13 0
-21 -8 -23 -22 -2 -14 -11 -23 -25 -25 -14 -2 -23 -11 -25 -25 -2 -14 -11 -23
-25 -25 -14 -2 -23 -11 -25 -25 -2 -15 -10 -23 -23 -23 -12 0 -23 -10 -29 -26
-12 -31 -44 -29 -48 4 -2 14 -10 22 -23 22 -10 0 -19 7 -19 15 0 9 -11 20 -25
25 -14 5 -25 16 -25 23 0 8 -11 19 -25 25 -14 6 -25 17 -25 24 -1 7 -17 23
-36 36 -44 27 -154 33 -154 7 0 -8 -6 -16 -12 -16 -7 -1 -20 -2 -28 -3 -8 0
-16 -11 -18 -23 -2 -17 -10 -23 -27 -23 -17 0 -25 -6 -27 -22 -2 -15 -11 -24
-25 -26 -14 -2 -23 -11 -25 -25 -2 -16 -9 -21 -25 -20 -16 2 -23 -4 -25 -20
-4 -30 -48 -38 -48 -8 0 14 -9 23 -25 27 -14 3 -25 13 -25 21 0 8 -8 17 -19
20 -10 2 -24 16 -30 29 -6 13 -18 24 -26 24 -9 0 -20 11 -25 25 -5 14 -15 25
-23 25 -7 0 -20 9 -30 20 -25 29 -126 29 -134 0 -4 -13 -14 -20 -30 -20 -16 0
-27 -7 -30 -19 -3 -11 -17 -21 -33 -25 -23 -4 -27 -9 -23 -26 4 -15 1 -20 -16
-20 -14 0 -25 -9 -31 -25 -6 -15 -17 -25 -30 -25 -13 0 -20 -7 -20 -20 0 -13
-7 -20 -20 -20 -13 0 -20 7 -20 19 0 12 -9 21 -25 25 -14 4 -25 13 -25 21 0 9
-11 20 -25 25 -14 5 -25 16 -25 25 0 9 -11 20 -25 25 -14 5 -25 16 -25 25 0 9
-11 20 -24 24 -13 5 -26 17 -29 25 -9 23 -127 23 -127 1 0 -9 -9 -15 -24 -15
-17 0 -26 -7 -30 -25 -4 -16 -13 -25 -26 -25 -13 0 -20 -7 -20 -20 0 -15 -7
-20 -24 -20 -18 0 -25 -6 -28 -22 -2 -15 -10 -23 -23 -23 -13 0 -21 -8 -23
-22 -4 -30 -42 -32 -42 -3 0 13 -9 22 -25 26 -15 4 -25 13 -25 24 0 10 -9 22
-20 25 -11 3 -20 13 -20 21 0 8 -11 20 -25 26 -14 6 -25 16 -25 22 0 7 -14 24
-31 39 -39 34 -135 44 -142 15 -3 -10 -14 -18 -26 -18 -14 0 -21 -6 -21 -20 0
-15 -7 -20 -25 -20 -18 0 -25 -5 -25 -20 0 -11 -7 -20 -15 -20 -9 0 -20 -11
-25 -25 -6 -15 -17 -25 -30 -25 -13 0 -20 -7 -20 -20 0 -13 -7 -20 -20 -20
-13 0 -20 7 -20 18 0 11 -11 24 -25 30 -14 6 -25 18 -25 27 0 8 -7 15 -15 15
-8 0 -15 7 -15 15 0 8 -9 24 -19 34 -11 11 -24 29 -31 40 -6 12 -17 21 -25 21
-8 0 -15 7 -15 15 0 8 -10 17 -22 19 -67 14 -79 13 -89 -5 -5 -11 -16 -19 -24
-19 -8 0 -15 -7 -15 -16 0 -9 -9 -18 -20 -21 -18 -5 -24 -15 -21 -35 0 -5 -8
-8 -19 -8 -13 0 -20 -7 -20 -20 0 -13 -7 -20 -19 -20 -10 0 -21 -9 -24 -20 -8
-30 -37 -25 -37 6 0 19 -4 25 -15 20 -10 -3 -17 3 -21 19 -3 13 -12 26 -20 29
-8 3 -14 14 -14 25 0 11 -9 22 -20 26 -11 4 -20 15 -20 26 0 11 -7 22 -15 25
-8 4 -15 12 -15 19 0 18 -7 21 -57 30 -34 5 -43 4 -43 -8 0 -8 -9 -17 -20 -20
-11 -3 -20 -12 -20 -21 0 -9 -7 -16 -15 -16 -8 0 -15 -9 -15 -20 0 -11 -7 -20
-15 -20 -8 0 -15 -9 -15 -20 0 -11 -6 -20 -14 -20 -8 0 -16 -10 -18 -22 -5
-32 -28 -35 -28 -4 0 14 -4 26 -9 26 -10 0 -32 35 -52 83 -6 15 -15 27 -20 27
-5 0 -9 8 -9 18 -1 23 -40 68 -67 76 -24 8 -63 -23 -63 -49 0 -8 -4 -15 -10
-15 -5 0 -10 -7 -10 -15 0 -9 -7 -18 -15 -21 -8 -4 -15 -15 -15 -25 0 -10 -4
-19 -9 -19 -5 0 -11 -10 -15 -22 -5 -21 -8 -18 -27 22 -11 25 -24 54 -29 65
-46 120 -60 145 -84 145 -23 0 -35 -20 -72 -128 -10 -28 -22 -52 -26 -52 -11
0 -10 -41 1 -59 9 -14 14 -4 55 94 32 77 41 95 48 95 5 0 8 -8 8 -18 0 -10 4
-22 8 -28 4 -5 14 -27 21 -49 7 -22 17 -50 22 -62 5 -13 14 -35 20 -50 6 -16
15 -36 20 -45 14 -28 11 -44 -16 -90 -14 -24 -33 -59 -41 -78 -8 -19 -22 -51
-31 -70 l-16 -35 -15 35 c-8 19 -27 76 -42 126 -29 97 -49 142 -50 112 0 -9
-3 -23 -6 -32 -4 -10 -1 -16 9 -16 8 0 17 -12 20 -27 3 -16 8 -37 11 -48 3
-11 11 -42 17 -70 6 -27 15 -54 20 -59 5 -6 9 -18 9 -27 0 -16 19 -29 44 -29
7 0 23 24 37 53 13 28 26 54 30 57 3 3 12 20 20 38 14 33 34 38 34 9 0 -9 6
-22 13 -29 6 -6 12 -20 12 -30 0 -10 5 -18 10 -18 6 0 10 -11 10 -24 0 -13 7
-27 16 -30 9 -3 14 -13 11 -20 -3 -8 1 -20 9 -26 8 -7 14 -20 14 -30 0 -18 19
-30 47 -30 19 0 63 46 63 66 0 7 5 14 10 14 6 0 10 7 10 15 0 9 7 18 15 21 8
4 15 13 15 20 0 8 6 17 14 20 8 3 16 15 20 26 4 18 8 19 20 9 8 -7 13 -18 10
-26 -3 -7 3 -16 15 -20 12 -3 21 -15 21 -26 0 -11 7 -22 15 -25 8 -4 15 -15
15 -25 0 -11 7 -22 15 -25 8 -4 15 -14 15 -25 0 -10 9 -23 20 -29 11 -6 18
-16 14 -22 -10 -15 16 -28 56 -28 38 0 80 34 80 64 0 9 8 16 20 16 13 0 20 7
20 20 0 11 7 20 15 20 8 0 15 9 15 20 0 13 7 20 20 20 14 0 20 7 20 21 0 14 5
19 18 17 9 -2 17 -12 17 -22 0 -11 10 -23 24 -27 15 -6 21 -14 17 -24 -4 -11
3 -19 20 -25 17 -7 24 -15 20 -25 -3 -9 3 -19 14 -25 11 -6 20 -20 20 -30 0
-13 7 -20 19 -20 12 0 21 -9 25 -25 6 -23 11 -25 61 -25 40 0 55 4 55 14 0 7
9 16 20 19 12 3 20 14 20 26 0 14 6 21 19 21 10 0 21 9 24 20 3 11 12 20 21
20 9 0 16 8 16 20 0 13 7 20 19 20 11 0 23 9 26 20 9 27 45 27 45 0 0 -12 9
-24 22 -29 13 -5 23 -17 23 -27 0 -12 8 -20 23 -22 16 -3 22 -10 22 -28 0 -17
6 -24 19 -24 13 0 21 -8 23 -22 2 -15 11 -24 26 -26 14 -2 22 -10 22 -23 0
-13 7 -19 23 -19 12 0 39 -3 60 -7 33 -5 39 -3 44 15 3 11 15 22 27 24 13 2
22 11 24 26 2 14 10 22 22 22 10 0 22 9 25 20 3 11 13 20 22 20 8 0 17 9 20
19 3 11 15 21 27 23 13 2 22 11 24 26 4 30 36 26 40 -5 2 -14 12 -23 25 -25
14 -2 23 -11 25 -25 2 -15 10 -23 23 -23 14 0 19 -7 19 -25 0 -18 5 -25 20
-25 12 0 24 -10 30 -24 5 -14 19 -26 32 -28 15 -2 24 -11 26 -25 3 -21 9 -23
64 -23 51 0 61 3 65 19 3 11 15 21 27 23 13 2 22 11 24 26 2 14 10 22 22 22
10 0 21 9 25 19 3 11 15 23 25 26 10 3 22 15 25 26 4 10 15 19 25 19 10 0 22
9 25 20 9 28 43 26 47 -2 2 -15 11 -24 26 -26 14 -2 22 -10 22 -22 0 -12 8
-20 23 -22 14 -2 23 -11 25 -25 2 -15 10 -23 23 -23 12 0 23 -10 29 -25 6 -16
17 -25 31 -25 12 0 23 -8 26 -20 5 -18 14 -20 73 -20 59 0 68 2 73 20 3 12 14
20 25 20 14 0 22 8 24 23 2 14 10 22 23 22 13 0 21 8 23 22 2 14 11 23 25 25
14 2 23 11 25 26 3 16 10 22 28 22 18 0 24 5 24 21 0 16 5 20 23 17 12 -2 21
-9 20 -15 -3 -13 25 -32 42 -30 6 1 11 -8 13 -20 3 -17 10 -23 28 -23 19 0 24
-5 24 -25 0 -20 5 -25 25 -25 18 0 25 -5 25 -20 0 -13 7 -20 20 -20 13 0 24
-10 30 -25 9 -25 13 -26 77 -23 62 3 68 5 71 26 2 14 10 22 23 22 12 0 23 10
29 25 5 14 16 25 25 25 9 0 20 11 25 25 5 14 16 25 24 25 7 0 16 9 19 20 3 12
14 20 25 20 14 0 22 8 24 22 4 33 36 35 48 4 6 -16 17 -26 30 -26 13 0 20 -7
20 -20 0 -15 7 -20 25 -20 20 0 25 -5 25 -25 0 -20 5 -25 25 -25 18 0 25 -5
25 -20 0 -15 7 -20 25 -20 18 0 25 -5 25 -20 0 -18 7 -20 66 -20 57 0 67 3 71
20 3 11 13 20 23 20 11 0 20 10 24 24 3 14 15 28 26 31 11 3 20 15 20 25 0 11
10 20 25 24 16 4 25 13 25 26 0 13 7 20 19 20 13 0 21 8 23 23 2 14 10 22 23
22 13 0 21 -8 23 -22 2 -15 10 -23 24 -23 11 0 22 -8 25 -20 3 -11 13 -20 23
-20 12 0 20 -9 22 -22 2 -15 11 -24 26 -26 14 -2 22 -10 22 -23 0 -13 7 -19
21 -19 13 0 23 -8 26 -21 5 -17 11 -20 36 -15 16 3 42 6 58 6 18 0 30 6 34 19
3 10 15 21 25 24 12 3 20 14 20 25 0 11 9 22 20 25 11 3 20 14 20 25 0 11 9
22 20 25 12 3 20 14 20 26 0 14 6 21 19 21 12 0 21 9 25 25 4 14 13 25 21 25
9 0 15 -10 15 -25 0 -18 5 -25 20 -25 13 0 20 -7 20 -20 0 -15 7 -20 26 -20
19 0 25 -4 20 -15 -4 -10 3 -19 19 -25 15 -6 23 -15 19 -23 -3 -10 4 -17 20
-21 18 -4 26 -13 26 -27 0 -17 4 -20 23 -15 12 3 37 6 55 6 26 0 32 4 32 21 0
12 8 23 20 26 11 3 20 14 20 24 0 10 9 23 20 29 11 6 20 20 20 30 0 11 7 20
15 20 9 0 15 9 15 21 0 12 8 23 19 26 11 3 21 14 23 26 4 27 28 35 28 9 0 -11
9 -22 20 -25 12 -3 20 -14 20 -26 0 -12 6 -21 15 -21 8 0 15 -9 15 -20 0 -11
7 -20 15 -20 8 0 15 -9 15 -20 0 -13 7 -20 20 -20 14 0 20 -7 20 -21 0 -19 4
-20 43 -14 42 7 57 18 57 43 0 6 7 12 15 12 9 0 15 9 15 24 0 13 7 26 15 30 8
3 15 14 15 25 0 10 7 21 15 25 8 3 15 15 15 26 0 11 7 20 15 20 9 0 15 9 15
25 0 14 5 25 10 25 6 0 10 -9 10 -19 0 -10 7 -22 16 -25 8 -3 12 -10 9 -16 -3
-6 1 -13 9 -16 9 -3 16 -15 16 -25 0 -10 4 -19 9 -19 5 0 11 -10 13 -22 2 -13
9 -22 16 -20 6 1 12 -7 12 -19 0 -18 4 -20 33 -14 37 8 59 23 52 35 -3 5 -1
11 4 15 6 3 15 -3 20 -14 9 -17 16 -18 43 -10 18 5 42 9 53 8 18 0 18 -1 -3
-9 -12 -5 -71 -21 -130 -36 -109 -27 -155 -47 -130 -56 7 -3 38 1 68 8 30 7
72 15 92 19 21 3 44 13 53 21 11 11 19 13 28 6 13 -11 94 5 118 24 8 6 26 14
40 18 15 3 29 13 33 21 7 20 -21 32 -37 16 -6 -6 -20 -11 -31 -11 -14 0 -3 10
29 26 28 14 54 29 58 34 12 11 -3 98 -20 115 -10 11 -11 23 -5 47 l9 33 12
-45 c7 -25 17 -62 22 -84 7 -25 14 -35 20 -29 9 9 -32 230 -47 254 -3 5 2 44
10 87 19 98 39 243 33 248 -3 3 -8 -3 -11 -13z m-20 -90 c-28 -92 -27 -91 -36
-68 -12 28 -12 35 2 33 6 -2 15 15 20 37 11 54 17 69 25 62 3 -4 -2 -33 -11
-64z m-47 -18 c0 -5 -4 -3 -9 5 -5 8 -9 22 -9 30 0 16 17 -16 18 -35z m-122
-7 c-3 -8 -6 -5 -6 6 -1 11 2 17 5 13 3 -3 4 -12 1 -19z m83 -35 c7 -27 22
-67 33 -91 11 -24 20 -60 20 -80 -1 -34 -7 -58 -49 -190 -8 -23 -14 -49 -14
-57 0 -8 -4 -15 -10 -15 -5 0 -10 5 -10 10 0 6 -21 54 -46 107 -41 86 -45 98
-34 122 7 14 16 35 20 46 40 103 51 134 56 163 9 45 19 40 34 -15z m-5700 -2
c0 -10 7 -24 15 -31 8 -7 15 -21 15 -31 0 -11 5 -19 10 -19 6 0 10 -9 10 -20
0 -11 7 -23 15 -26 8 -4 15 -15 15 -25 0 -11 7 -22 15 -25 8 -4 15 -16 15 -29
0 -13 7 -25 15 -29 30 -11 18 -51 -27 -94 -10 -9 -18 -22 -18 -28 0 -7 -7 -14
-15 -18 -8 -3 -15 -12 -15 -20 0 -7 -7 -16 -15 -20 -8 -3 -15 -12 -15 -21 0
-8 -4 -15 -8 -15 -5 0 -14 -12 -21 -27 -12 -27 -13 -26 -58 67 -24 52 -56 119
-71 149 -21 43 -23 56 -13 70 6 9 14 24 17 34 4 9 10 17 14 17 4 0 10 8 14 18
5 17 26 52 36 62 10 10 31 45 36 63 8 23 34 22 34 -2z m5450 -30 c0 -11 4 -21
8 -23 4 -1 20 -29 36 -60 15 -32 31 -58 34 -58 4 0 12 -15 18 -34 12 -40 8
-52 -85 -246 -26 -56 -31 -62 -37 -42 -3 12 -10 22 -15 22 -5 0 -9 4 -9 8 0
14 -93 152 -102 152 -14 0 -9 48 7 54 8 3 15 15 15 26 0 11 5 20 10 20 6 0 10
9 10 19 0 11 4 22 9 26 13 7 71 124 71 142 0 7 7 13 15 13 8 0 15 -9 15 -19z
m-5082 -39 c2 -12 10 -22 18 -22 8 0 14 -9 14 -20 0 -11 7 -23 15 -26 8 -4 15
-15 15 -25 0 -11 7 -22 16 -26 8 -3 20 -16 25 -29 4 -13 15 -24 24 -24 9 0 15
-9 15 -25 0 -16 6 -25 15 -25 10 0 15 -10 15 -30 0 -20 -5 -30 -15 -30 -8 0
-15 -9 -15 -19 0 -11 -9 -23 -20 -26 -11 -3 -20 -12 -20 -20 0 -8 -9 -17 -20
-20 -11 -3 -20 -13 -20 -21 0 -8 -6 -17 -14 -20 -8 -3 -16 -14 -19 -25 -3 -10
-12 -19 -20 -19 -8 0 -17 -9 -20 -20 -7 -28 -24 -25 -31 5 -4 14 -13 25 -21
25 -8 0 -15 8 -15 19 0 10 -7 24 -15 31 -8 7 -15 18 -15 25 0 7 -6 18 -14 24
-8 7 -24 31 -36 53 -11 22 -27 47 -35 55 -19 19 -19 52 0 59 8 3 17 14 20 25
4 10 13 19 21 19 8 0 14 9 14 20 0 11 7 20 15 20 8 0 15 9 15 20 0 11 7 20 15
20 8 0 15 7 15 15 0 8 9 19 20 25 11 6 20 18 20 26 0 24 35 12 38 -14z m4752
-18 c0 -8 7 -17 15 -20 8 -4 15 -13 15 -20 0 -8 7 -17 15 -20 8 -4 15 -15 15
-25 0 -10 7 -19 15 -19 8 0 15 -9 15 -20 0 -11 7 -20 15 -20 8 0 15 -7 15 -16
0 -9 8 -22 17 -29 16 -12 16 -15 -2 -51 -11 -22 -26 -43 -32 -47 -7 -4 -13
-16 -13 -26 0 -11 -7 -21 -15 -25 -8 -3 -15 -14 -15 -25 0 -10 -7 -21 -15 -25
-8 -3 -15 -15 -15 -26 0 -11 -7 -20 -15 -20 -9 0 -15 -9 -15 -25 0 -31 -25
-34 -33 -4 -3 12 -10 18 -16 15 -6 -4 -13 5 -17 19 -3 13 -10 23 -14 20 -5 -3
-11 3 -15 14 -3 11 -12 22 -20 25 -8 3 -15 12 -15 20 0 9 -9 20 -20 26 -11 6
-20 17 -20 24 0 8 -7 16 -15 20 -8 3 -15 15 -15 26 0 11 7 23 15 26 8 4 15 14
15 24 0 10 7 20 15 24 8 3 20 16 26 28 22 49 40 78 50 78 5 0 9 9 9 20 0 11 7
23 15 26 8 4 15 14 15 24 0 18 18 31 33 23 4 -2 7 -11 7 -19z m-4300 -25 c0
-12 8 -23 20 -26 11 -3 20 -14 20 -25 0 -11 9 -22 20 -25 11 -3 20 -14 20 -25
0 -11 9 -22 20 -25 11 -3 20 -13 20 -23 0 -11 10 -20 26 -24 16 -4 24 -12 21
-21 -3 -7 5 -21 19 -29 29 -20 32 -56 5 -63 -11 -3 -21 -14 -24 -25 -3 -11
-14 -22 -25 -25 -11 -3 -22 -13 -25 -24 -3 -10 -12 -19 -21 -19 -9 0 -16 -7
-16 -16 0 -9 -9 -18 -20 -21 -11 -3 -20 -12 -20 -19 0 -8 -11 -19 -25 -24 -14
-5 -25 -16 -25 -24 0 -15 -24 -28 -34 -19 -3 4 -6 15 -6 25 0 10 -7 18 -15 18
-9 0 -20 11 -24 24 -5 13 -17 26 -25 29 -9 4 -16 15 -16 26 0 11 -9 22 -20 26
-11 3 -20 14 -20 23 0 10 -9 23 -20 30 -11 7 -20 18 -20 26 0 8 -7 16 -15 20
-9 3 -15 18 -15 36 0 20 5 30 15 30 8 0 15 6 15 13 0 7 11 23 25 35 14 12 25
26 25 32 0 5 6 10 14 10 8 0 18 9 21 20 3 11 12 20 20 20 7 0 15 9 18 20 3 11
12 20 21 20 9 0 16 8 16 20 0 15 7 20 25 20 19 0 25 -5 25 -21z m3888 -17 c2
-12 10 -22 17 -22 8 0 17 -9 20 -20 3 -11 13 -20 21 -20 8 0 14 -9 14 -20 0
-12 7 -20 16 -20 9 0 18 -9 21 -20 3 -11 11 -20 18 -20 7 0 16 -11 19 -25 4
-14 13 -25 21 -25 20 0 19 -36 0 -44 -8 -3 -15 -15 -15 -27 0 -12 -8 -23 -20
-26 -11 -3 -20 -14 -20 -24 0 -10 -9 -23 -20 -29 -11 -6 -20 -17 -20 -26 0 -8
-6 -17 -14 -20 -8 -3 -17 -16 -20 -29 -3 -12 -15 -25 -26 -28 -12 -3 -20 -13
-20 -26 0 -12 -6 -21 -15 -21 -8 0 -15 9 -15 20 0 11 -5 20 -11 20 -14 0 -63
50 -72 73 -4 10 -11 15 -17 12 -6 -3 -13 2 -17 12 -4 10 -23 34 -43 53 -47 44
-57 70 -31 77 11 3 22 16 25 29 4 13 13 24 21 24 9 0 20 11 25 25 5 14 14 25
20 25 6 0 15 11 20 25 5 14 14 25 19 25 5 0 12 11 15 25 4 14 13 25 21 25 8 0
15 8 15 18 0 39 43 43 48 4z m-3368 -27 c0 -18 5 -25 20 -25 13 0 20 -7 20
-19 0 -10 9 -21 20 -24 11 -3 24 -17 30 -31 5 -14 16 -26 25 -26 8 0 15 -9 15
-19 0 -13 8 -21 23 -23 14 -2 23 -11 25 -24 2 -12 12 -24 23 -27 27 -7 27 -57
0 -57 -13 0 -21 -8 -23 -22 -2 -15 -11 -24 -25 -26 -15 -2 -23 -10 -23 -23 0
-12 -7 -19 -20 -19 -12 0 -20 -7 -20 -16 0 -9 -9 -18 -21 -21 -11 -3 -25 -16
-30 -29 -5 -14 -17 -24 -29 -24 -13 0 -20 -7 -20 -20 0 -26 -36 -27 -45 -1 -3
11 -15 23 -26 26 -10 4 -19 13 -19 21 0 8 -7 14 -16 14 -8 0 -20 13 -25 30 -6
16 -14 29 -17 29 -21 -3 -30 4 -36 25 -3 13 -15 26 -26 29 -11 3 -20 9 -19 14
3 20 -2 34 -10 28 -11 -6 -31 26 -31 50 0 9 9 19 20 22 10 3 22 14 25 24 4 10
15 19 26 19 12 0 19 7 19 20 0 13 7 20 20 20 13 0 22 9 26 25 4 15 13 25 24
25 10 0 20 9 23 20 3 11 12 20 20 20 8 0 17 9 20 20 3 14 14 20 31 20 21 0 26
-5 26 -25z m2870 -10 c5 -14 15 -24 22 -23 7 2 14 -7 16 -19 2 -15 10 -23 23
-23 12 0 19 -7 19 -20 0 -13 7 -20 20 -20 13 0 20 -7 20 -19 0 -13 8 -21 23
-23 14 -2 23 -11 25 -24 2 -12 12 -24 23 -27 23 -6 25 -35 3 -44 -8 -3 -20
-16 -25 -29 -4 -13 -15 -24 -24 -24 -8 0 -17 -11 -21 -24 -3 -13 -14 -26 -25
-29 -11 -3 -19 -14 -19 -26 0 -14 -6 -21 -19 -21 -13 0 -21 -8 -23 -22 -2 -15
-11 -24 -25 -26 -13 -2 -23 -12 -25 -24 -4 -29 -28 -35 -35 -8 -3 13 -11 19
-20 16 -8 -3 -18 4 -25 19 -6 14 -17 25 -25 25 -7 0 -18 12 -24 26 -5 15 -12
24 -15 21 -8 -8 -34 18 -34 32 0 6 -7 11 -15 11 -8 0 -19 9 -25 19 -5 11 -19
23 -30 26 -27 8 -27 55 -1 62 11 3 21 14 24 25 3 11 15 22 26 25 12 3 21 12
21 19 0 8 11 20 25 26 14 6 25 17 25 24 0 7 9 18 20 24 11 6 20 17 20 26 0 8
11 19 25 24 15 6 25 17 25 30 0 30 38 26 50 -5z m-2310 -20 c5 -14 16 -25 24
-25 7 0 16 -9 19 -21 3 -11 15 -23 26 -26 12 -3 21 -14 21 -24 0 -17 11 -24
33 -20 4 1 12 -10 17 -24 6 -15 17 -25 30 -25 14 0 20 -7 20 -21 0 -12 8 -23
19 -26 28 -7 35 -44 10 -50 -10 -3 -22 -16 -25 -29 -4 -17 -13 -24 -30 -24
-17 0 -24 -6 -24 -19 0 -12 -9 -21 -25 -25 -16 -4 -25 -13 -25 -26 0 -14 -7
-20 -21 -20 -12 0 -23 -8 -26 -20 -3 -13 -14 -20 -28 -20 -17 0 -25 -7 -27
-22 -4 -33 -36 -35 -44 -3 -4 16 -12 24 -23 23 -9 -2 -20 7 -26 20 -5 12 -15
22 -22 22 -7 0 -19 12 -27 28 -8 15 -15 23 -16 18 0 -10 -40 33 -40 44 0 4 -9
10 -20 13 -11 3 -20 12 -20 21 0 9 -11 21 -25 26 -33 12 -36 60 -4 60 12 0 23
8 26 20 3 11 14 20 24 20 12 0 23 10 29 25 5 14 17 25 26 25 9 0 18 9 21 19 3
11 15 21 27 23 13 2 22 11 24 26 2 13 10 22 22 22 10 0 20 9 23 20 8 29 45 26
57 -5z m1760 5 c0 -13 10 -24 25 -30 14 -5 25 -16 25 -25 0 -8 9 -15 19 -15
13 0 21 -8 23 -22 2 -15 11 -24 26 -26 14 -2 22 -10 22 -23 0 -14 7 -19 25
-19 20 0 25 -5 25 -25 0 -18 5 -25 20 -25 14 0 20 -7 20 -24 0 -15 -7 -26 -20
-29 -12 -3 -20 -14 -20 -26 0 -14 -8 -23 -25 -27 -14 -3 -25 -13 -25 -20 0 -8
-11 -19 -25 -24 -15 -6 -25 -17 -25 -30 0 -13 -7 -20 -19 -20 -11 0 -22 -9
-26 -19 -3 -11 -15 -23 -25 -26 -10 -3 -22 -14 -25 -25 -9 -30 -34 -33 -45 -5
-6 15 -17 25 -30 25 -11 0 -20 7 -20 15 0 9 -11 20 -25 25 -14 5 -25 16 -25
23 0 8 -11 19 -25 25 -14 6 -25 18 -25 27 0 8 -9 15 -20 15 -13 0 -22 9 -26
25 -4 15 -13 25 -24 25 -20 0 -32 23 -24 45 4 8 14 15 24 15 10 0 20 9 23 21
3 11 15 23 26 26 12 3 21 12 21 19 0 8 11 19 24 24 13 5 27 18 31 29 3 12 13
21 21 21 8 0 19 11 24 25 5 14 16 25 25 25 9 0 20 11 25 25 12 31 50 35 50 5z
m-1172 -27 c2 -14 10 -23 21 -23 10 0 23 -11 29 -25 6 -14 18 -25 27 -25 8 0
15 -7 15 -15 0 -9 11 -20 24 -24 13 -5 26 -19 29 -30 3 -13 13 -21 26 -21 12
0 21 -6 21 -15 0 -9 11 -21 25 -27 31 -14 35 -58 6 -58 -13 0 -21 -8 -23 -22
-2 -17 -11 -24 -30 -26 -20 -2 -28 -9 -28 -23 0 -12 -7 -19 -20 -19 -13 0 -22
-9 -26 -25 -4 -16 -13 -25 -26 -25 -11 0 -22 -8 -25 -20 -3 -11 -14 -20 -24
-20 -12 0 -23 -10 -29 -25 -8 -21 -13 -24 -29 -16 -10 6 -21 18 -25 26 -3 9
-10 14 -15 10 -5 -3 -17 5 -26 17 -8 13 -21 23 -27 23 -7 0 -18 11 -25 25 -7
14 -18 25 -25 25 -7 0 -18 11 -25 25 -7 14 -16 25 -21 25 -14 0 -82 74 -82 90
0 8 9 15 20 15 13 0 24 10 30 25 6 15 17 25 30 25 11 0 20 7 20 15 0 9 11 20
24 25 13 5 27 18 31 29 3 12 15 21 26 21 11 0 19 7 19 16 0 9 9 18 21 21 11 3
25 17 30 30 12 32 52 29 57 -4z m582 8 c0 -11 9 -21 24 -25 13 -3 26 -15 29
-26 3 -12 13 -20 26 -20 14 0 21 -6 21 -19 0 -12 9 -21 25 -25 16 -4 25 -13
25 -26 0 -15 7 -20 25 -20 18 0 25 -5 25 -19 0 -10 9 -21 20 -24 25 -6 29 -57
5 -57 -9 0 -20 -11 -25 -25 -6 -15 -17 -25 -29 -25 -10 0 -21 -9 -24 -21 -3
-11 -15 -23 -26 -26 -12 -3 -21 -13 -21 -23 0 -10 -10 -20 -24 -24 -13 -3 -26
-15 -29 -26 -3 -11 -13 -20 -24 -20 -10 0 -23 -10 -28 -22 -14 -31 -33 -33
-46 -5 -7 15 -17 23 -25 20 -8 -3 -18 6 -25 21 -7 14 -16 26 -21 26 -13 0 -88
74 -88 87 0 7 -3 12 -7 12 -21 -3 -32 3 -38 21 -3 11 -13 20 -20 20 -17 0 -34
30 -28 48 3 6 13 12 24 12 11 0 23 10 28 22 5 13 17 23 27 23 12 0 20 8 22 23
2 12 10 22 17 22 8 0 22 11 31 25 9 14 23 25 30 25 8 0 19 11 23 24 5 13 19
26 30 29 12 3 21 12 21 21 0 10 9 16 25 16 18 0 25 -5 25 -19z m2497 -143 c-3
-8 -6 -5 -6 6 -1 11 2 17 5 13 3 -3 4 -12 1 -19z m23 -37 c0 -11 4 -22 10 -26
5 -3 6 -13 3 -22 -5 -14 -8 -13 -14 5 -11 30 -26 27 -44 -8 -9 -16 -17 -30
-19 -30 -7 0 -2 36 6 41 5 3 10 14 12 23 5 33 46 48 46 17z m50 -126 c0 -8 8
-15 18 -17 12 -3 10 -5 -9 -9 -23 -5 -25 -3 -21 23 3 16 0 28 -7 28 -6 0 -11
10 -11 23 0 20 1 20 15 -7 8 -15 15 -34 15 -41z m-128 3 c-9 -9 -12 -7 -12 12
0 19 3 21 12 12 9 -9 9 -15 0 -24z"/>
<path d="M7187 2321 c-27 -83 -28 -91 -14 -123 8 -18 21 -48 28 -65 16 -39 29
-43 29 -10 0 13 3 27 7 31 11 11 33 80 33 106 0 27 -40 150 -49 150 -3 0 -19
-40 -34 -89z"/>
<path d="M1505 2337 c-11 -12 -27 -35 -35 -52 -8 -16 -22 -35 -30 -42 -13 -10
-13 -13 0 -30 23 -28 40 -61 40 -78 0 -9 7 -18 15 -21 8 -4 15 -14 15 -24 0
-27 17 -34 25 -10 3 11 11 20 16 20 5 0 9 7 9 15 0 9 7 18 15 21 8 4 15 11 15
17 0 6 8 19 17 30 17 18 17 19 0 28 -9 6 -17 19 -17 29 0 11 -4 20 -9 20 -5 0
-12 14 -16 30 -4 17 -11 30 -16 30 -5 0 -9 6 -9 14 0 25 -14 26 -35 3z m33
-122 c-4 -35 -20 -36 -24 -2 -2 19 2 27 12 27 11 0 14 -8 12 -25z"/>
<path d="M6966 2343 c-3 -3 -6 -15 -6 -25 0 -10 -4 -18 -8 -18 -5 0 -18 -21
-30 -47 -12 -27 -28 -56 -35 -66 -10 -15 -9 -20 6 -31 9 -7 17 -21 17 -30 0
-9 5 -16 10 -16 6 0 10 -7 10 -15 0 -9 7 -18 15 -21 8 -4 15 -12 15 -19 0 -22
20 -28 26 -8 6 19 49 115 65 146 7 12 2 28 -16 57 -14 22 -25 44 -25 50 0 5
-4 10 -10 10 -5 0 -10 6 -10 14 0 17 -14 28 -24 19z"/>
<path d="M1870 2285 c0 -8 -9 -19 -20 -25 -11 -6 -20 -17 -20 -25 0 -8 -7 -15
-15 -15 -8 0 -15 -9 -15 -20 0 -11 -7 -20 -15 -20 -8 0 -15 -7 -15 -15 0 -8 5
-15 10 -15 6 0 15 -11 20 -25 5 -14 14 -25 20 -25 5 0 10 -11 10 -24 0 -15 7
-26 20 -29 12 -3 20 -14 20 -26 0 -12 6 -21 15 -21 8 0 15 8 15 19 0 10 9 21
20 24 11 3 20 12 20 21 0 9 6 16 13 16 6 0 20 14 29 31 16 27 16 32 3 45 -8 9
-15 21 -15 29 0 7 -7 15 -15 19 -8 3 -15 14 -15 25 0 10 -9 21 -20 24 -12 3
-20 14 -20 26 0 12 -6 21 -15 21 -8 0 -15 -7 -15 -15z m30 -136 c0 -38 -22
-35 -27 4 -3 19 1 27 12 27 10 0 15 -10 15 -31z"/>
<path d="M6630 2275 c0 -8 -9 -24 -20 -35 -11 -11 -20 -26 -20 -33 0 -7 -8
-20 -17 -29 -10 -8 -26 -26 -36 -39 -16 -21 -16 -25 -2 -35 8 -6 15 -19 15
-28 0 -9 8 -16 20 -16 15 0 20 -7 20 -25 0 -15 6 -25 14 -25 7 0 16 -9 19 -21
7 -25 30 -20 36 7 2 10 9 23 17 27 8 4 14 16 14 26 0 10 11 23 24 31 14 7 22
18 20 25 -3 7 -1 16 5 20 16 9 13 42 -4 49 -8 3 -15 12 -15 20 0 7 -7 16 -15
20 -8 3 -15 12 -15 21 0 8 -6 15 -14 15 -7 0 -16 9 -19 20 -6 23 -27 27 -27 5z
m30 -146 c0 -10 -5 -19 -11 -19 -6 0 -9 7 -5 15 3 8 1 15 -5 15 -6 0 -7 5 -4
10 9 15 25 2 25 -21z"/>
<path d="M2315 2230 c-3 -11 -15 -20 -26 -20 -12 0 -19 -7 -19 -20 0 -11 -6
-20 -14 -20 -8 0 -18 -9 -21 -20 -3 -11 -13 -20 -21 -20 -19 0 -18 -26 1 -34
8 -3 15 -15 15 -26 0 -13 7 -20 20 -20 14 0 20 -7 20 -24 0 -15 7 -26 20 -29
12 -3 20 -14 20 -26 0 -28 36 -28 43 -1 3 11 12 20 20 20 9 0 18 9 22 19 3 11
14 23 24 26 11 3 21 15 24 25 3 11 12 20 21 20 9 0 16 5 16 10 0 6 -9 10 -20
10 -13 0 -20 7 -20 19 0 11 -9 23 -20 26 -11 3 -20 15 -20 26 0 12 -10 23 -25
29 -15 6 -25 17 -25 30 0 26 -27 26 -35 0z m43 -127 c-2 -18 -10 -29 -22 -31
-14 -3 -17 0 -13 11 3 9 1 17 -5 19 -18 6 1 28 23 28 16 0 20 -6 17 -27z"/>
<path d="M6204 2227 c-4 -12 -15 -28 -25 -35 -11 -7 -19 -20 -19 -28 0 -8 -5
-14 -10 -14 -6 0 -16 -11 -22 -25 -6 -14 -17 -25 -25 -25 -7 0 -13 -9 -13 -20
0 -11 6 -20 14 -20 7 0 16 -9 19 -20 3 -11 12 -20 21 -20 10 0 16 -9 16 -25 0
-18 5 -25 20 -25 14 0 20 -7 20 -21 0 -27 43 -22 49 6 2 11 12 26 22 33 11 7
19 19 19 26 0 8 12 17 26 20 19 5 24 11 19 25 -3 12 0 21 10 25 19 7 20 36 1
36 -8 0 -18 9 -21 20 -3 11 -11 20 -16 20 -5 0 -14 11 -19 25 -5 14 -16 25
-25 25 -8 0 -15 4 -15 10 0 5 -9 14 -19 20 -16 8 -21 6 -27 -13z m36 -137 c0
-16 -4 -30 -9 -30 -10 0 -22 40 -15 52 11 18 24 6 24 -22z"/>
<path d="M2827 2190 c-3 -12 -14 -20 -26 -20 -12 0 -21 -6 -21 -13 0 -7 -11
-23 -25 -35 -14 -12 -25 -26 -25 -32 0 -5 -9 -10 -20 -10 -11 0 -20 -7 -20
-15 0 -8 9 -15 20 -15 13 0 20 -7 20 -19 0 -13 8 -21 23 -23 14 -2 23 -11 25
-25 2 -12 12 -25 23 -28 10 -4 19 -15 19 -25 0 -11 9 -19 24 -22 19 -4 26 0
30 17 3 13 15 25 26 28 11 3 20 12 20 21 0 9 8 16 20 16 13 0 24 10 30 25 5
14 16 25 25 25 8 0 15 7 15 15 0 8 -9 15 -20 15 -13 0 -20 7 -20 19 0 10 -9
21 -21 24 -11 3 -23 14 -26 25 -3 11 -14 22 -25 25 -11 3 -22 15 -25 26 -7 27
-39 27 -46 1z m46 -107 c8 -13 -12 -53 -25 -53 -7 0 -14 13 -15 30 -2 24 2 30
17 30 10 0 21 -3 23 -7z"/>
<path d="M5698 2188 c-2 -13 -13 -27 -25 -33 -13 -5 -23 -16 -23 -23 0 -8 -9
-16 -19 -19 -11 -3 -22 -16 -26 -30 -3 -14 -9 -23 -12 -19 -9 8 -33 -14 -33
-30 0 -8 8 -14 19 -14 10 0 21 -9 24 -20 3 -12 14 -20 26 -20 14 0 21 -6 21
-19 0 -13 8 -21 23 -23 14 -2 22 -10 22 -23 0 -29 49 -28 53 1 2 12 12 24 23
27 11 3 19 14 19 26 0 14 6 21 20 21 13 0 22 9 26 25 3 14 12 25 20 25 8 0 14
9 14 20 0 11 -6 20 -14 20 -8 0 -17 9 -21 19 -3 10 -15 21 -25 24 -11 3 -20
12 -20 21 0 9 -5 16 -11 16 -7 0 -22 11 -35 25 -29 31 -42 32 -46 3z m40 -135
c-2 -14 -9 -29 -17 -31 -10 -3 -12 0 -8 11 3 9 2 19 -4 22 -13 8 -1 25 17 25
11 0 14 -8 12 -27z"/>
<path d="M3380 2165 c-5 -12 -18 -25 -29 -28 -12 -3 -21 -12 -21 -19 0 -8 -11
-20 -25 -26 -14 -6 -25 -19 -25 -27 0 -12 -6 -15 -20 -10 -16 5 -20 2 -20 -14
0 -12 7 -21 15 -21 9 0 20 -11 25 -25 6 -15 17 -25 29 -25 13 0 21 -8 23 -22
2 -15 11 -24 26 -26 13 -2 22 -10 22 -22 0 -16 18 -30 40 -30 4 0 11 11 14 25
4 15 13 25 25 25 10 0 21 9 24 20 3 12 14 20 26 20 12 0 21 4 21 10 0 5 6 8
13 6 6 -1 9 -1 5 1 -16 9 -7 33 12 33 14 0 20 7 20 21 0 16 -4 19 -20 14 -15
-5 -21 0 -26 19 -3 14 -12 26 -20 26 -7 0 -20 14 -29 30 -9 17 -22 30 -31 30
-8 0 -18 8 -22 18 -10 25 -42 24 -52 -3z m50 -129 c0 -14 -5 -28 -11 -31 -13
-9 -16 -6 -24 28 -6 23 -4 27 14 27 16 0 21 -6 21 -24z"/>
<path d="M5148 2158 c-2 -14 -11 -24 -24 -26 -12 -2 -26 -14 -32 -28 -7 -13
-18 -24 -27 -24 -8 0 -15 -9 -15 -19 0 -12 -8 -21 -22 -23 -31 -4 -34 -26 -4
-38 14 -5 26 -16 26 -24 0 -8 10 -16 23 -18 14 -2 22 -10 22 -23 0 -12 9 -21
25 -25 14 -3 25 -12 25 -20 0 -9 10 -15 25 -15 18 0 26 6 28 23 2 14 10 22 23
22 10 0 19 7 19 15 0 8 14 21 30 30 17 9 30 22 30 30 0 8 9 19 20 25 25 14 26
30 1 30 -11 0 -23 9 -26 20 -3 11 -15 20 -25 20 -12 0 -20 8 -22 23 -2 14 -11
23 -25 25 -15 2 -23 10 -23 23 0 29 -48 26 -52 -3z m52 -128 c0 -11 -7 -23
-15 -27 -19 -7 -20 -5 -29 25 -6 19 -4 22 18 22 19 0 26 -5 26 -20z"/>
<path d="M3976 2163 c-3 -4 -6 -15 -6 -25 0 -12 -7 -18 -24 -18 -16 0 -26 -7
-29 -21 -3 -11 -15 -23 -26 -26 -11 -3 -23 -13 -26 -23 -4 -12 -12 -16 -25
-13 -16 4 -20 0 -20 -21 0 -19 5 -26 19 -26 10 0 21 -9 24 -19 2 -11 15 -21
28 -23 16 -2 24 -10 24 -23 0 -12 9 -21 25 -25 16 -4 26 -14 28 -28 5 -32 48
-30 56 3 4 16 13 25 26 25 10 0 22 9 25 20 3 11 15 20 26 20 12 0 23 10 29 25
5 14 16 25 25 25 9 0 15 9 15 21 0 16 -5 20 -19 16 -15 -3 -21 1 -23 17 -2 13
-11 22 -25 24 -13 2 -23 11 -25 25 -2 12 -15 28 -30 35 -16 7 -28 19 -28 25 0
13 -33 20 -44 10z m42 -150 c-4 -33 -24 -41 -31 -12 -7 27 -1 39 19 39 11 0
14 -8 12 -27z"/>
<path d="M4558 2147 c-2 -14 -11 -23 -25 -25 -12 -2 -25 -12 -28 -22 -3 -10
-15 -22 -25 -25 -10 -3 -22 -15 -25 -26 -5 -14 -12 -18 -26 -14 -15 5 -19 1
-19 -19 0 -19 5 -26 20 -26 13 0 20 -7 20 -20 0 -15 7 -20 24 -20 18 0 25 -6
28 -22 2 -15 11 -24 24 -26 12 -2 24 -12 27 -23 7 -27 57 -27 57 1 0 12 9 22
24 26 13 3 26 14 29 25 3 11 14 19 25 19 13 0 22 9 26 24 3 13 15 26 26 29 27
7 25 25 -2 29 -15 2 -24 11 -26 26 -2 14 -10 22 -24 22 -11 0 -22 8 -25 20 -3
11 -16 23 -28 26 -13 3 -25 13 -28 23 -6 26 -45 24 -49 -2z m52 -132 c0 -31
-35 -35 -43 -6 -6 24 0 31 25 31 13 0 18 -7 18 -25z"/>
<path d="M2394 2595 c-10 -8 -14 -15 -9 -15 6 -1 17 -3 25 -5 24 -4 54 -7 68
-6 17 1 15 31 -3 31 -8 0 -15 -5 -15 -10 0 -6 -10 -4 -23 5 -21 13 -26 13 -43
0z"/>
<path d="M2310 2590 c0 -5 5 -10 10 -10 6 0 10 5 10 10 0 6 -4 10 -10 10 -5 0
-10 -4 -10 -10z"/>
<path d="M2340 2580 c0 -5 7 -7 15 -4 8 4 15 8 15 10 0 2 -7 4 -15 4 -8 0 -15
-4 -15 -10z"/>
<path d="M2510 2580 c-8 -5 -11 -12 -7 -16 4 -4 13 -2 19 4 15 15 7 24 -12 12z"/>
<path d="M2570 2566 c0 -31 6 -34 13 -6 3 11 1 23 -4 26 -5 3 -9 -6 -9 -20z"/>
<path d="M1320 2561 c0 -5 6 -14 14 -21 8 -6 12 -18 9 -27 -3 -8 0 -19 8 -24
8 -4 14 -16 14 -25 0 -10 6 -19 13 -21 6 -3 12 3 12 13 0 9 13 29 29 45 35 33
29 41 -41 58 -56 13 -58 13 -58 2z"/>
<path d="M2630 2559 c0 -5 5 -7 10 -4 6 3 10 8 10 11 0 2 -4 4 -10 4 -5 0 -10
-5 -10 -11z"/>
<path d="M2700 2561 c0 -5 5 -13 10 -16 6 -3 10 -2 10 4 0 5 -4 13 -10 16 -5
3 -10 2 -10 -4z"/>
<path d="M3084 2545 c-17 -13 -17 -14 -1 -15 9 0 17 -5 17 -11 0 -8 5 -8 15 1
11 10 18 10 29 1 11 -9 15 -9 18 1 4 10 8 10 19 2 12 -10 53 -12 105 -5 7 0
14 7 17 14 4 11 -11 14 -71 14 -43 0 -89 2 -103 6 -16 4 -33 1 -45 -8z m36 -5
c0 -5 -4 -10 -10 -10 -5 0 -10 5 -10 10 0 6 5 10 10 10 6 0 10 -4 10 -10z"/>
<path d="M2915 2540 c-3 -5 -1 -10 4 -10 6 0 11 5 11 10 0 6 -2 10 -4 10 -3 0
-8 -4 -11 -10z"/>
<path d="M3466 2542 c-8 -7 -13 -8 -41 -11 -8 0 -15 -5 -15 -11 0 -13 47 -13
55 0 4 6 11 8 16 5 5 -4 9 -2 9 4 0 14 -16 22 -24 13z"/>
<path d="M3315 2530 c-3 -5 1 -10 10 -10 9 0 13 5 10 10 -3 6 -8 10 -10 10 -2
0 -7 -4 -10 -10z"/>
<path d="M3364 2525 c25 -19 36 -19 36 0 0 10 -10 15 -27 15 -27 -1 -27 -1 -9
-15z"/>
<path d="M3533 2525 c-3 -9 -3 -19 1 -22 7 -7 36 16 36 28 0 15 -30 10 -37 -6z"/>
<path d="M1900 2520 c0 -5 5 -10 10 -10 6 0 10 5 10 10 0 6 -4 10 -10 10 -5 0
-10 -4 -10 -10z"/>
<path d="M4590 2505 c-39 -20 -41 -23 -17 -21 15 2 33 8 39 14 7 7 20 12 31
12 10 0 15 5 12 10 -8 13 -12 12 -65 -15z"/>
<path d="M3565 2510 c-3 -5 1 -10 9 -10 8 0 18 5 21 10 3 6 -1 10 -9 10 -8 0
-18 -4 -21 -10z"/>
<path d="M3860 2511 c0 -19 22 -23 38 -7 15 15 14 16 -11 16 -15 0 -27 -4 -27
-9z"/>
<path d="M4170 2505 c-18 -22 -5 -30 19 -13 12 8 18 18 14 21 -10 11 -19 8
-33 -8z"/>
<path d="M4675 2509 c-4 -6 -5 -13 -2 -16 7 -7 27 6 27 18 0 12 -17 12 -25 -2z"/>
<path d="M4362 2499 c2 -6 8 -10 13 -10 5 0 11 4 13 10 2 6 -4 11 -13 11 -9 0
-15 -5 -13 -11z"/>
<path d="M1610 2492 c0 -6 9 -13 19 -17 12 -4 17 -12 14 -24 -3 -13 2 -21 15
-26 12 -3 22 -16 24 -27 3 -24 28 -37 28 -15 0 17 37 60 65 75 19 10 19 11 -7
21 -43 16 -158 26 -158 13z"/>
<path d="M6795 2477 c-46 -10 -64 -21 -65 -39 0 -5 9 -8 19 -8 14 0 18 -5 14
-20 -4 -14 0 -20 11 -20 10 0 16 -8 16 -21 0 -30 44 -22 48 9 2 12 7 22 12 22
4 0 11 11 14 24 3 14 15 27 26 31 28 9 14 35 -19 34 -14 -1 -48 -6 -76 -12z"/>
<path d="M6225 2460 c4 -6 11 -8 16 -5 14 9 11 15 -7 15 -8 0 -12 -5 -9 -10z"/>
<path d="M2005 2442 c-11 -12 -4 -22 16 -22 17 0 20 -5 16 -21 -4 -15 1 -22
19 -29 14 -6 24 -18 24 -30 0 -27 36 -27 43 0 3 11 12 20 21 20 9 0 16 8 16
19 0 13 10 20 33 25 44 9 18 25 -43 26 -25 1 -66 5 -92 9 -27 4 -50 6 -53 3z"/>
<path d="M6388 2423 c-40 -3 -48 -8 -48 -24 0 -12 7 -19 19 -19 14 0 18 -5 14
-20 -4 -15 0 -20 16 -20 14 0 21 -6 21 -20 0 -15 7 -20 25 -20 20 0 25 5 25
25 0 15 6 25 14 25 8 0 17 11 20 24 3 14 16 26 31 30 14 4 25 11 25 16 0 10
-62 11 -162 3z"/>
<path d="M1222 2362 c-23 -57 -23 -60 -7 -118 9 -32 19 -69 22 -82 l5 -23 13
23 c6 13 22 40 34 62 22 38 22 39 4 85 -10 25 -18 49 -18 53 0 3 -3 10 -7 14
-5 4 -8 16 -8 26 0 34 -15 18 -38 -40z m38 -82 c0 -16 -4 -30 -10 -30 -5 0
-10 14 -10 30 0 17 5 30 10 30 6 0 10 -13 10 -30z"/>
<path d="M3655 2400 c-3 -5 1 -10 9 -10 9 0 16 5 16 10 0 6 -4 10 -9 10 -6 0
-13 -4 -16 -10z"/>
<path d="M5160 2400 c0 -5 4 -10 9 -10 6 0 13 5 16 10 3 6 -1 10 -9 10 -9 0
-16 -4 -16 -10z"/>
<path d="M7356 2401 c-15 -23 -17 -127 -4 -144 11 -15 13 -6 14 68 1 86 0 92
-10 76z"/>
<path d="M2482 2392 c-18 -6 -4 -22 18 -22 15 0 19 -6 17 -22 -1 -17 4 -24 21
-26 13 -2 22 -10 22 -22 0 -10 9 -20 19 -23 24 -6 31 0 31 25 0 11 7 18 19 18
10 0 21 9 24 20 4 15 14 20 36 20 17 0 31 5 31 10 0 6 -3 10 -7 10 -5 1 -37 3
-73 6 -116 9 -146 10 -158 6z"/>
<path d="M4130 2390 c0 -5 5 -10 10 -10 6 0 10 5 10 10 0 6 -4 10 -10 10 -5 0
-10 -4 -10 -10z"/>
<path d="M4310 2390 c0 -5 5 -10 11 -10 5 0 7 5 4 10 -3 6 -8 10 -11 10 -2 0
-4 -4 -4 -10z"/>
<path d="M5915 2380 c-35 -3 -50 -9 -50 -20 0 -8 10 -16 23 -18 17 -3 21 -8
17 -23 -5 -15 -1 -19 19 -19 19 0 26 -5 26 -20 0 -15 7 -20 25 -20 19 0 25 5
25 21 0 12 8 23 20 26 11 3 20 13 20 23 0 12 10 21 30 25 17 4 30 13 30 21 0
15 -66 17 -185 4z"/>
<path d="M3000 2354 c0 -8 11 -16 25 -20 27 -7 33 -19 13 -27 -7 -3 2 -10 20
-17 21 -8 32 -19 32 -31 0 -14 7 -19 30 -19 23 0 30 4 30 20 0 13 7 20 19 20
11 0 22 9 26 19 3 12 19 21 40 25 19 4 35 11 35 16 0 12 -45 18 -167 23 -81 3
-103 1 -103 -9z"/>
<path d="M5403 2353 c-54 -3 -73 -8 -73 -18 0 -7 10 -15 23 -17 14 -2 22 -10
22 -23 0 -13 8 -21 23 -23 14 -2 22 -10 22 -23 0 -31 54 -22 58 9 2 14 10 22
22 22 10 0 22 9 25 20 3 11 10 20 15 20 5 0 21 5 37 11 22 8 24 12 13 19 -15
9 -37 10 -187 3z"/>
<path d="M3570 2342 c-21 -8 -9 -32 16 -32 21 0 24 -4 19 -20 -5 -17 -1 -21
24 -26 20 -4 31 -13 33 -28 5 -33 45 -34 58 -2 6 16 17 26 29 26 10 0 21 9 24
20 3 11 14 21 26 21 42 3 46 4 46 19 0 12 -24 16 -133 20 -73 3 -137 4 -142 2z"/>
<path d="M4154 2331 c-12 -13 -1 -31 19 -31 30 0 40 -10 26 -26 -12 -15 -5
-19 36 -26 12 -2 19 -10 17 -21 -2 -10 6 -19 22 -23 31 -7 46 1 46 27 0 13 7
19 21 19 12 0 23 8 26 19 4 17 45 37 66 33 4 -1 7 5 7 12 0 12 -26 16 -141 18
-77 2 -143 1 -145 -1z"/>
<path d="M4833 2332 c-65 -2 -83 -6 -83 -17 0 -9 10 -15 26 -15 21 0 24 -4 19
-20 -5 -17 -1 -21 24 -26 21 -5 31 -12 31 -25 0 -14 7 -19 30 -19 23 0 30 4
30 20 0 13 10 24 25 30 14 5 25 16 25 25 0 8 9 15 19 15 11 0 23 5 26 10 4 6
11 8 16 5 5 -4 9 -2 9 4 0 14 -32 22 -76 19 -22 -2 -76 -4 -121 -6z"/>
<path d="M1136 2068 c-8 -33 -8 -34 18 -46 23 -10 23 -10 11 24 -15 45 -21 49
-29 22z"/>
<path d="M1360 2040 c0 -11 -4 -20 -10 -20 -5 0 -10 -9 -10 -19 0 -11 -6 -21
-12 -24 -21 -7 4 -27 55 -42 51 -15 69 -6 45 23 -14 17 -32 53 -42 85 -7 23
-26 22 -26 -3z"/>
<path d="M1673 1982 c-3 -12 -12 -22 -19 -22 -8 0 -14 -9 -14 -20 0 -11 -7
-20 -15 -20 -8 0 -15 -8 -15 -19 0 -20 12 -24 118 -37 28 -4 52 -3 52 1 0 3
-16 26 -35 49 -19 24 -35 48 -35 53 0 6 -7 16 -16 23 -13 11 -16 10 -21 -8z"/>
<path d="M6797 1973 c-4 -3 -7 -14 -7 -24 0 -9 -7 -19 -15 -23 -8 -3 -15 -14
-15 -25 0 -10 -9 -21 -21 -24 -17 -5 -19 -9 -9 -27 7 -13 18 -19 28 -16 9 3
44 10 76 15 33 6 63 16 67 23 5 7 -6 24 -27 43 -19 17 -34 39 -34 48 0 17 -30
24 -43 10z"/>
<path d="M2075 1920 c-3 -5 -3 -10 2 -11 4 -1 -3 -4 -17 -8 -19 -5 -24 -13
-22 -30 3 -17 -1 -21 -15 -19 -11 2 -18 -3 -18 -12 0 -21 191 -42 207 -23 8
10 6 13 -6 13 -20 0 -86 66 -86 86 0 16 -36 19 -45 4z"/>
<path d="M6414 1905 c-3 -14 -12 -25 -19 -25 -15 0 -28 -27 -19 -41 3 -5 -4
-9 -15 -9 -16 0 -21 -6 -21 -25 0 -28 -6 -28 147 -9 41 5 69 34 42 43 -20 6
-69 61 -69 76 0 26 -39 17 -46 -10z"/>
<path d="M2560 1871 c0 -14 -8 -21 -27 -23 -21 -2 -27 -8 -25 -21 2 -12 -4
-21 -18 -24 -49 -13 -8 -28 99 -37 112 -9 143 -4 107 18 -11 6 -41 32 -67 59
-52 51 -69 58 -69 28z"/>
<path d="M5950 1862 c0 -11 -12 -22 -31 -29 -26 -10 -30 -15 -20 -27 10 -12 8
-15 -11 -18 -12 -2 -24 -11 -26 -21 -4 -17 4 -18 105 -16 59 1 114 7 121 12
18 14 15 37 -5 37 -19 0 -83 55 -83 71 0 5 -11 9 -25 9 -17 0 -25 -5 -25 -18z"/>
<path d="M1490 1855 c0 -9 9 -15 25 -15 28 0 34 15 9 24 -25 10 -34 7 -34 -9z"/>
<path d="M3090 1834 c0 -14 -4 -23 -9 -20 -16 10 -41 -5 -41 -25 0 -12 -7 -19
-19 -19 -19 0 -36 -26 -23 -34 4 -2 61 -7 127 -11 104 -6 123 -5 134 9 11 13
9 17 -14 26 -14 5 -28 10 -31 10 -2 0 -24 20 -47 45 -50 51 -77 58 -77 19z"/>
<path d="M5427 1843 c-4 -3 -7 -14 -7 -23 0 -11 -11 -20 -29 -23 -23 -5 -28
-10 -24 -26 3 -14 0 -19 -13 -18 -10 1 -20 -6 -22 -15 -3 -16 5 -18 65 -17
107 2 186 13 191 27 2 7 -5 12 -17 12 -12 0 -29 9 -38 20 -10 11 -23 20 -30
20 -8 0 -18 11 -23 25 -9 24 -38 34 -53 18z"/>
<path d="M1615 1830 c3 -5 10 -10 16 -10 5 0 9 5 9 10 0 6 -7 10 -16 10 -8 0
-12 -4 -9 -10z"/>
<path d="M3665 1832 c-3 -3 -5 -14 -5 -24 0 -11 -7 -18 -19 -18 -36 0 -53 -11
-40 -26 9 -11 7 -14 -14 -14 -14 0 -28 -7 -31 -15 -10 -26 39 -36 163 -33 95
2 116 6 119 18 1 10 -5 16 -18 17 -23 2 -100 62 -100 79 0 12 -46 25 -55 16z"/>
<path d="M4256 1822 c-3 -3 -6 -14 -6 -24 0 -12 -7 -18 -24 -18 -27 0 -42 -15
-26 -25 18 -11 2 -23 -25 -17 -20 3 -25 0 -25 -17 0 -16 6 -21 28 -21 15 0 73
-3 129 -7 75 -4 107 -2 118 7 22 18 18 27 -15 33 -16 4 -46 24 -67 45 -36 37
-75 56 -87 44z"/>
<path d="M4857 1823 c-4 -3 -7 -14 -7 -24 0 -12 -9 -19 -27 -21 -20 -2 -27 -8
-25 -20 2 -12 -4 -18 -18 -18 -21 0 -38 -25 -26 -37 11 -11 249 -3 263 9 20
17 15 26 -14 26 -17 0 -33 8 -41 21 -8 11 -21 21 -28 21 -8 0 -19 11 -24 25
-9 24 -38 34 -53 18z"/>
<path d="M6751 1801 c-21 -11 -30 -21 -22 -25 6 -4 11 -3 11 2 0 5 12 7 26 4
17 -3 31 2 45 17 l20 21 -23 0 c-13 -1 -38 -9 -57 -19z"/>
<path d="M1832 1804 c13 -13 89 -22 85 -10 -2 6 -23 12 -48 14 -24 2 -41 0
-37 -4z"/>
<path d="M6682 1788 c6 -18 28 -21 28 -4 0 9 -7 16 -16 16 -9 0 -14 -5 -12
-12z"/>
<path d="M1935 1780 c3 -5 12 -7 20 -3 21 7 19 13 -6 13 -11 0 -18 -4 -14 -10z"/>
<path d="M6588 1779 c-10 -5 -18 -15 -18 -21 0 -9 3 -9 11 -1 8 8 18 8 35 1
27 -13 54 -4 54 17 0 18 -54 21 -82 4z"/>
<path d="M6484 1759 c-3 -6 -1 -16 6 -22 9 -9 15 -7 26 7 8 11 14 14 14 8 0
-7 5 -12 10 -12 6 0 10 7 10 15 0 18 -55 21 -66 4z"/>
<path d="M6346 1751 c-3 -5 -15 -7 -26 -4 -24 6 -27 -15 -4 -24 16 -6 64 15
64 29 0 11 -27 10 -34 -1z"/>
<path d="M6422 1749 c2 -7 14 -13 26 -14 29 -2 22 19 -7 23 -15 3 -22 -1 -19
-9z"/>
<path d="M6138 1738 c-27 -6 -48 -14 -48 -19 0 -8 41 -14 65 -9 5 1 33 3 63 6
58 4 75 10 67 25 -8 11 -85 10 -147 -3z"/>
<path d="M2736 1704 c-5 -14 -4 -16 4 -8 8 8 24 9 48 3 20 -5 55 -9 77 -9 67
0 25 22 -53 28 -61 4 -70 2 -76 -14z"/>
<path d="M6060 1710 c-8 -5 -12 -12 -9 -15 4 -3 12 1 19 10 14 17 11 19 -10 5z"/>
<path d="M5932 1701 c2 -7 7 -12 11 -12 12 1 9 15 -3 20 -7 2 -11 -2 -8 -8z"/>
<path d="M2941 1684 c0 -11 3 -14 6 -6 3 7 2 16 -1 19 -3 4 -6 -2 -5 -13z"/>
<path d="M2970 1689 c0 -5 5 -7 10 -4 6 3 10 8 10 11 0 2 -4 4 -10 4 -5 0 -10
-5 -10 -11z"/>
<path d="M3075 1690 c-8 -13 15 -24 27 -12 6 6 4 11 -6 15 -8 3 -18 2 -21 -3z"/>
<path d="M3160 1686 c-13 -16 -3 -26 27 -26 13 0 23 6 23 14 0 18 -37 27 -50
12z"/>
<path d="M3320 1683 c0 -20 26 -33 69 -33 41 0 44 1 30 16 -18 17 -99 32 -99
17z"/>
<path d="M3220 1671 c0 -6 5 -13 10 -16 6 -3 10 1 10 9 0 9 -4 16 -10 16 -5 0
-10 -4 -10 -9z"/>
<path d="M3280 1670 c0 -5 5 -10 10 -10 6 0 10 5 10 10 0 6 -4 10 -10 10 -5 0
-10 -4 -10 -10z"/>
<path d="M3440 1675 c0 -2 10 -10 23 -16 20 -11 21 -11 8 4 -13 16 -31 23 -31
12z"/>
<path d="M3557 1673 c-12 -11 -8 -21 13 -26 11 -3 23 -1 26 5 4 7 9 6 13 -1 6
-8 16 -8 39 2 18 7 29 16 25 20 -8 9 -108 9 -116 0z"/>
<path d="M5117 1673 c-14 -13 -6 -18 31 -17 81 2 102 4 102 14 0 11 -123 14
-133 3z"/>
<path d="M5270 1665 c0 -8 5 -15 10 -15 6 0 10 4 10 10 0 5 7 7 15 4 8 -4 15
-1 15 5 0 6 -11 11 -25 11 -16 0 -25 -6 -25 -15z"/>
<path d="M3512 1659 c2 -6 8 -10 13 -10 5 0 11 4 13 10 2 6 -4 11 -13 11 -9 0
-15 -5 -13 -11z"/>
<path d="M3745 1660 c3 -5 8 -10 11 -10 2 0 4 5 4 10 0 6 -5 10 -11 10 -5 0
-7 -4 -4 -10z"/>
<path d="M3780 1655 c0 -8 14 -12 40 -10 22 1 40 -2 40 -7 0 -5 8 -5 18 1 9 5
20 9 25 10 4 1 6 4 5 8 -5 13 -128 11 -128 -2z"/>
<path d="M3936 1654 c-3 -8 1 -14 9 -14 20 0 28 17 11 23 -8 3 -17 -1 -20 -9z"/>
<path d="M4017 1663 c-13 -12 -7 -19 19 -21 22 -2 25 0 14 13 -14 16 -23 19
-33 8z"/>
<path d="M4070 1654 c0 -10 6 -14 15 -10 8 3 15 1 15 -4 0 -6 5 -10 10 -10 19
0 10 17 -15 28 -21 10 -25 9 -25 -4z"/>
<path d="M4355 1656 c-24 -18 -11 -35 14 -19 11 7 22 8 27 3 5 -5 15 -5 24 0
17 11 13 16 -20 25 -15 3 -33 0 -45 -9z"/>
<path d="M4591 1660 c-14 -3 -26 -11 -29 -18 -3 -10 9 -12 49 -10 29 2 54 8
56 14 5 14 -42 22 -76 14z"/>
<path d="M4785 1660 c-11 -17 6 -31 28 -24 31 9 34 14 17 24 -20 13 -37 12
-45 0z"/>
<path d="M5020 1660 c0 -5 5 -10 11 -10 5 0 7 5 4 10 -3 6 -8 10 -11 10 -2 0
-4 -4 -4 -10z"/>
<path d="M5055 1661 c-3 -5 -1 -12 5 -16 5 -3 10 1 10 9 0 18 -6 21 -15 7z"/>
<path d="M4165 1650 c-3 -5 1 -10 9 -10 9 0 16 5 16 10 0 6 -4 10 -9 10 -6 0
-13 -4 -16 -10z"/>
<path d="M4456 1651 c-4 -7 -5 -15 -2 -18 9 -9 19 4 14 18 -4 11 -6 11 -12 0z"/>
<path d="M4510 1645 c-7 -8 -8 -15 -2 -15 5 0 15 7 22 15 7 8 8 15 2 15 -5 0
-15 -7 -22 -15z"/>
<path d="M4695 1650 c-3 -5 -1 -10 4 -10 6 0 11 5 11 10 0 6 -2 10 -4 10 -3 0
-8 -4 -11 -10z"/>
<path d="M4757 1653 c-4 -3 -7 -11 -7 -17 0 -6 5 -5 12 2 6 6 9 14 7 17 -3 3
-9 2 -12 -2z"/>
<path d="M4895 1650 c3 -5 10 -10 16 -10 5 0 9 5 9 10 0 6 -7 10 -16 10 -8 0
-12 -4 -9 -10z"/>
</g>
</svg>
