<svg width="88" height="76" viewBox="0 0 88 76" fill="none" xmlns="http://www.w3.org/2000/svg">
<path fill-rule="evenodd" clip-rule="evenodd" d="M2.76843 75.6712L87.2838 72.4435L84.5179 0L0 3.2277L2.76843 75.6712ZM4.86525 71.0703H82.4146V4.59982H4.86525V71.0703Z" fill="#EED4F1"/>
<path d="M16.1322 45.0812L15.7371 42.4333L14.2592 45.0812H16.1322ZM16.5171 41.2249L17.5126 47.1851H16.4529L16.2631 45.9432H13.7794L13.0892 47.1851H11.9629L15.4266 41.2249H16.5171Z" fill="#EED4F1"/>
<path fill-rule="evenodd" clip-rule="evenodd" d="M15.7291 14.9563C14.6181 14.9563 14.3308 14.3559 14.3308 13.2629V9.74268H13.2891V13.2218C13.2891 15.1461 14.0203 15.8106 15.7291 15.8106C17.4661 15.8106 18.1614 15.0717 18.1614 13.1885V9.74268H17.1197V13.2295C17.1197 14.3251 16.8246 14.9563 15.7291 14.9563ZM49.4016 42.2123H48.4215L48.6267 41.2245H49.6068L49.4016 42.2123ZM48.3317 47.1847H47.3618L48.2983 42.7613H49.2759L48.3317 47.1847ZM26.2443 46.5367C25.9338 46.5367 25.6285 46.3724 25.6285 46.0184C25.6285 45.5591 26.0724 45.2948 27.6272 45.1127L27.5784 45.3128C27.4117 46.0928 27.0679 46.5367 26.2443 46.5367ZM28.7279 44.4815C28.7792 44.2839 28.7946 44.112 28.7946 43.9555C28.7946 42.9857 27.989 42.6316 27.0448 42.6316C25.9492 42.6316 25.1692 43.214 24.9973 44.1505H25.9415C26.0313 43.6168 26.4341 43.3551 26.937 43.3551C27.404 43.3551 27.8222 43.5271 27.8222 43.9966C27.8222 44.071 27.8171 44.1505 27.7914 44.2429L27.7504 44.4328C25.7106 44.6457 24.5765 45.0152 24.5765 46.1415C24.5765 46.9061 25.2436 47.2935 25.9595 47.2935C26.5393 47.2935 27.0268 47.1293 27.404 46.6598L27.3065 47.1858H28.2199C28.2455 46.8163 28.3276 46.2826 28.4508 45.7233C28.5205 45.3812 28.631 44.9022 28.6972 44.6147L28.7279 44.4815ZM21.118 42.6648C20.4689 42.6648 20.0173 42.9676 19.7454 43.3062L19.8608 42.7623H18.873L17.9365 47.1856H18.9166L19.399 44.9098C19.5837 44.0298 20.0173 43.4705 20.7511 43.4705C21.1924 43.4705 21.3823 43.6988 21.3823 44.1273C21.3823 44.2684 21.3566 44.4403 21.3156 44.6302L20.7717 47.1856H21.7518L22.3111 44.5378C22.3624 44.3018 22.3855 44.0965 22.3855 43.9066C22.3855 43.0753 21.9262 42.6648 21.118 42.6648ZM31.2812 43.388C30.8707 43.388 30.5167 43.5522 30.5167 43.8575C30.5167 44.1192 30.7476 44.2937 31.1093 44.3912L31.6276 44.5298C32.4487 44.7607 33.0567 45.0814 33.0567 45.8716C33.0567 46.8338 32.1279 47.2931 31.1915 47.2931C30.0984 47.2931 29.2158 46.7081 29.2004 45.633H30.1472C30.1575 46.1744 30.5167 46.5695 31.2094 46.5695C31.6764 46.5695 32.0638 46.3874 32.0638 45.9768C32.0638 45.6561 31.7508 45.4765 31.3377 45.3611L30.7886 45.2122C30.0625 45.0147 29.5802 44.6709 29.5802 43.9396C29.5802 43.0596 30.491 42.6645 31.3634 42.6645C32.21 42.6645 33.1876 43.0827 33.2697 44.1372H32.3255C32.2998 43.5933 31.8149 43.388 31.2812 43.388ZM34.886 43.8575C34.886 43.5522 35.2401 43.388 35.6506 43.388C36.1843 43.388 36.6692 43.5933 36.6949 44.1372H37.6391C37.557 43.0827 36.5794 42.6645 35.7327 42.6645C34.8604 42.6645 33.9496 43.0596 33.9496 43.9396C33.9496 44.6709 34.4319 45.0147 35.158 45.2122L35.7071 45.3611C36.1202 45.4765 36.4332 45.6561 36.4332 45.9768C36.4332 46.3874 36.0458 46.5695 35.5788 46.5695C34.886 46.5695 34.5268 46.1744 34.5166 45.633H33.5698C33.5852 46.7081 34.4678 47.2931 35.5608 47.2931C36.4973 47.2931 37.4261 46.8338 37.4261 45.8716C37.4261 45.0814 36.818 44.7607 35.997 44.5298L35.4787 44.3912C35.117 44.2937 34.886 44.1192 34.886 43.8575ZM39.9883 46.4961C40.8683 46.4961 41.3866 45.4929 41.3866 44.5718C41.3866 43.9304 41.1121 43.4608 40.4501 43.4608C39.5701 43.4608 39.0518 44.464 39.0518 45.3851C39.0518 46.0266 39.3212 46.4961 39.9883 46.4961ZM39.8805 47.294C38.8029 47.294 38.0383 46.6192 38.0383 45.4262C38.0383 44.169 38.885 42.6655 40.5553 42.6655C41.6329 42.6655 42.3949 43.3402 42.3949 44.5307C42.3949 45.7879 41.5483 47.294 39.8805 47.294ZM44.8024 46.4802C44.2097 46.4802 43.8787 46.1184 43.8967 45.3359C43.93 44.6124 44.3329 43.4783 45.3361 43.4783C45.9621 43.4783 46.2315 43.8401 46.2315 44.2762H47.168C47.1936 43.3705 46.5189 42.665 45.449 42.665C43.6324 42.665 42.9191 44.3096 42.8832 45.436C42.8524 46.5444 43.5246 47.2935 44.6869 47.2935C45.5901 47.2935 46.5599 46.8163 46.9627 45.6746H46.0006C45.7876 46.2082 45.3591 46.4802 44.8024 46.4802ZM51.1698 46.5367C50.8568 46.5367 50.554 46.3724 50.554 46.0184C50.554 45.5591 50.9979 45.2948 52.5502 45.1127L52.5014 45.3128C52.3372 46.0928 51.9934 46.5367 51.1698 46.5367ZM53.6534 44.4815C53.7022 44.2839 53.7176 44.112 53.7176 43.9555C53.7176 42.9857 52.9119 42.6316 51.9677 42.6316C50.8747 42.6316 50.0922 43.214 49.9203 44.1505H50.8645C50.9568 43.6168 51.3571 43.3551 51.86 43.3551C52.3295 43.3551 52.7477 43.5271 52.7477 43.9966C52.7477 44.071 52.7426 44.1505 52.7169 44.2429L52.6733 44.4328C50.6361 44.6457 49.5021 45.0152 49.5021 46.1415C49.5021 46.9061 50.1692 47.2935 50.8824 47.2935C51.4649 47.2935 51.9524 47.1293 52.3295 46.6598L52.2295 47.1858H53.1429C53.1685 46.8163 53.2506 46.2826 53.3738 45.7233C53.4381 45.4077 53.5386 44.9756 53.6063 44.6848L53.6066 44.6837L53.6067 44.6833L53.6067 44.6832C53.6252 44.6035 53.6413 44.5345 53.6534 44.4815ZM56.4349 41.5949L56.1809 42.7623H57.0686L56.9198 43.4705H56.0244L55.5164 45.8797C55.4907 45.9849 55.483 46.0772 55.483 46.1491C55.483 46.38 55.6062 46.439 55.9192 46.439H56.2733L56.1142 47.1856H55.4009C54.6851 47.1856 54.4311 47.0394 54.4311 46.5853C54.4311 46.439 54.4567 46.2491 54.5029 46.0285L55.0468 43.4705H54.3977L54.5465 42.7623H55.2033L55.4574 41.5949H56.4349ZM58.083 42.2123H59.0605L59.2658 41.2245H58.2882L58.083 42.2123ZM57.0208 47.1847H57.9932L58.9374 42.7613H57.9572L57.0208 47.1847ZM61.1831 46.4961C62.0657 46.4961 62.5814 45.4929 62.5814 44.5718C62.5814 43.9304 62.3095 43.4608 61.6449 43.4608C60.7649 43.4608 60.2466 44.464 60.2466 45.3851C60.2466 46.0266 60.5186 46.4961 61.1831 46.4961ZM61.0779 47.294C60.0003 47.294 59.2357 46.6192 59.2357 45.4262C59.2357 44.169 60.0824 42.6655 61.7527 42.6655C62.8303 42.6655 63.5923 43.3402 63.5923 44.5307C63.5923 45.7879 62.7456 47.294 61.0779 47.294ZM67.0658 42.6648C66.4167 42.6648 65.9651 42.9676 65.6931 43.3062L65.8086 42.7623H64.8208L63.8843 47.1856H64.8644L65.3467 44.9098C65.5315 44.0298 65.9651 43.4705 66.6989 43.4705C67.1402 43.4705 67.3301 43.6988 67.3301 44.1273C67.3301 44.2684 67.3044 44.4403 67.2634 44.6302L66.7194 47.1856H67.6995L68.2589 44.5378C68.3102 44.3018 68.3333 44.0965 68.3333 43.9066C68.3333 43.0753 67.874 42.6648 67.0658 42.6648ZM15.2528 52.6236C14.5293 52.6236 14.1495 52.9597 13.9443 53.8988L13.4773 56.1002H12.4972L13.4337 51.6769H14.3958L14.247 52.3927C14.578 51.9257 15.0552 51.6692 15.6146 51.6692C15.689 51.6692 15.7608 51.6769 15.8378 51.6871L15.63 52.6493C15.4914 52.6313 15.3683 52.6236 15.2528 52.6236ZM19.2221 53.4083C19.2202 53.4234 19.2183 53.4387 19.2165 53.4541H16.9561C17.2204 52.5997 17.7925 52.3431 18.3365 52.3431C18.8881 52.3431 19.2678 52.6818 19.2345 53.2642C19.2345 53.3096 19.2284 53.358 19.2221 53.4083ZM18.4186 51.5811C16.874 51.5811 15.8477 52.8127 15.7964 54.3649C15.763 55.4271 16.4122 56.2071 17.6694 56.2071C18.6495 56.2071 19.4859 55.6914 19.899 54.778H18.9599C18.7239 55.2065 18.3698 55.3938 17.8285 55.3938C17.1126 55.3938 16.7508 54.9345 16.7662 54.2931C16.7662 54.252 16.7662 54.211 16.7765 54.1699H20.0478C20.1376 53.8903 20.1864 53.626 20.1864 53.3797C20.2197 52.2944 19.5629 51.5811 18.4186 51.5811ZM21.6896 54.2509C21.6717 55.0335 22.0001 55.3952 22.5928 55.3952C23.1521 55.3952 23.578 55.1233 23.7936 54.5896H24.7531C24.3529 55.7314 23.3805 56.2086 22.4799 56.2086C21.3176 56.2086 20.6454 55.4594 20.6762 54.351C20.7095 53.2246 21.4254 51.58 23.2419 51.58C24.3093 51.58 24.9841 52.2856 24.9584 53.1913H24.0219C24.0219 52.7551 23.7525 52.3933 23.129 52.3933C22.1233 52.3933 21.723 53.5274 21.6896 54.2509ZM28.638 53.4868C28.638 54.4079 28.1222 55.4111 27.2396 55.4111C26.5751 55.4111 26.3031 54.9416 26.3031 54.3002C26.3031 53.3791 26.8214 52.3759 27.7015 52.3759C28.366 52.3759 28.638 52.8454 28.638 53.4868ZM25.2922 54.3412C25.2922 55.5343 26.0568 56.2091 27.1344 56.2091C28.8022 56.2091 29.6489 54.703 29.6489 53.4458C29.6489 52.2553 28.8868 51.5805 27.8092 51.5805C26.1389 51.5805 25.2922 53.084 25.2922 54.3412ZM32.1529 55.1639C33.0253 55.1639 33.4204 54.1941 33.4204 53.4295C33.4204 52.8214 33.0894 52.3775 32.4403 52.3775C31.5551 52.3775 31.1908 53.2807 31.1908 54.0453C31.1908 54.7277 31.5038 55.1639 32.1529 55.1639ZM31.8322 55.9542C30.6904 55.9542 30.1876 55.0331 30.1876 54.0863C30.1876 52.7701 30.9855 51.5796 32.3684 51.5796C32.9663 51.5796 33.4691 51.8336 33.6924 52.4083L33.8463 51.6771H34.7751L33.9361 55.6411C33.6333 57.0959 33.0432 57.6476 31.709 57.6476C30.7392 57.6476 30.067 57.2114 29.9746 56.2903H30.888C30.9214 56.652 31.2164 56.8573 31.7835 56.8573C32.4582 56.8573 32.761 56.5776 32.9175 55.8054L32.9919 55.4333C32.779 55.6976 32.3915 55.9542 31.8322 55.9542ZM38.1511 51.5799C37.502 51.5799 37.0478 51.8826 36.7784 52.2213L36.8939 51.6773H35.9061L34.9696 56.1007H35.9471L36.4321 53.8249C36.6142 52.9448 37.0478 52.3855 37.7817 52.3855C38.223 52.3855 38.4154 52.6138 38.4154 53.0423C38.4154 53.1834 38.3897 53.3553 38.3487 53.5452L37.8047 56.1007H38.7823L39.3442 53.4528C39.3929 53.2168 39.416 53.0115 39.416 52.8217C39.416 51.9904 38.9568 51.5799 38.1511 51.5799ZM41.8648 51.1278H40.8847L41.09 50.14H42.0701L41.8648 51.1278ZM40.7949 56.1002H39.8251L40.7616 51.6769H41.7391L40.7949 56.1002ZM42.5638 52.5009H44.7087L41.8146 55.3207L41.653 56.1007H45.2937L45.4656 55.2796H43.0975L45.9993 52.4496L46.1635 51.6773H42.7357L42.5638 52.5009ZM49.5647 53.4541L49.5656 53.4462C49.573 53.3823 49.5801 53.3209 49.5801 53.2642C49.6134 52.6818 49.2337 52.3431 48.6846 52.3431C48.1407 52.3431 47.566 52.5997 47.3017 53.4541H49.5647ZM46.1445 54.3649C46.1933 52.8127 47.2196 51.5811 48.7641 51.5811C49.9085 51.5811 50.5679 52.2944 50.5345 53.3797C50.5345 53.626 50.4832 53.8903 50.3934 54.1699H47.1221C47.1144 54.211 47.1144 54.252 47.1144 54.2931C47.0964 54.9345 47.4608 55.3938 48.174 55.3938C48.718 55.3938 49.072 55.2065 49.3081 54.778H50.2471C49.8341 55.6914 48.9951 56.2071 48.0175 56.2071C46.7603 56.2071 46.1112 55.4271 46.1445 54.3649ZM52.9483 55.4102C52.3377 55.4102 52.0426 54.9919 52.0426 54.2761C52.0426 53.4859 52.4378 52.3775 53.3332 52.3775C53.9592 52.3775 54.28 52.8547 54.28 53.5705C54.28 54.448 53.8104 55.4102 52.9483 55.4102ZM51.0317 54.3172C51.0317 55.3127 51.509 56.2081 52.6841 56.2081C53.1639 56.2081 53.5949 56.0105 53.8592 55.6411L53.7617 56.1003H54.7418L56.0067 50.1401H55.0266L54.5442 52.4082C54.321 51.8746 53.8515 51.5795 53.2537 51.5795C51.8476 51.5795 51.0317 52.9291 51.0317 54.3172ZM16.1222 62.4256C16.1222 61.7097 15.8272 61.2915 15.2114 61.2915C14.357 61.2915 13.8875 62.2537 13.8875 63.1311C13.8875 63.847 14.2082 64.3242 14.8316 64.3242C15.7297 64.3242 16.1222 63.2235 16.1222 62.4256ZM15.4833 60.4936C16.6584 60.4936 17.1357 61.3736 17.1357 62.3691C17.1357 63.7572 16.3198 65.1222 14.9137 65.1222C14.3159 65.1222 13.8541 64.8271 13.6309 64.2909L13.4769 65.0144H12.4968L13.7643 59.0542H14.7418L14.3159 61.0606C14.5776 60.6911 15.0035 60.4936 15.4833 60.4936ZM19.2666 65.0071L21.7246 60.5915H20.6726L19.0203 63.8141L18.5533 60.5915H17.5501L18.2557 64.9507L18.1736 65.0969C17.8272 65.7153 17.7964 65.723 17.3782 65.723H17.0575L16.8984 66.4542H17.4424C18.3968 66.4542 18.5764 66.231 19.2666 65.0071ZM25.5611 59.425L25.3071 60.5924H26.1949L26.046 61.298H25.1506L24.6426 63.7072C24.6169 63.815 24.6092 63.9048 24.6092 63.9792C24.6092 64.2101 24.7324 64.2665 25.0454 64.2665H25.3995L25.2404 65.0157H24.5271C23.8113 65.0157 23.5573 64.8669 23.5573 64.4153C23.5573 64.2665 23.5829 64.0767 23.6291 63.856L24.1731 61.298H23.5239L23.6727 60.5924H24.3296L24.5836 59.425H25.5611ZM29.329 60.4923C28.6798 60.4923 28.2283 60.7976 27.9563 61.1338L28.4002 59.0529H27.4149L26.1475 65.0157H27.1276L27.6099 62.7373C27.7947 61.8573 28.2283 61.298 28.9621 61.298C29.4034 61.298 29.5932 61.5289 29.5932 61.9574C29.5932 62.0959 29.5676 62.2678 29.5265 62.4577L28.9826 65.0157H29.9704L30.5297 62.3679C30.5785 62.137 30.6041 61.924 30.6041 61.7341C30.6041 60.9054 30.1449 60.4923 29.329 60.4923ZM34.5383 62.3677C34.5401 62.3523 34.542 62.337 34.5439 62.3219C34.5502 62.2716 34.5563 62.2232 34.5563 62.1778C34.5896 61.5954 34.2099 61.2567 33.6582 61.2567C33.1143 61.2567 32.5422 61.5133 32.2779 62.3677H34.5383ZM31.1182 63.2785C31.1695 61.7262 32.1958 60.4947 33.7403 60.4947C34.8847 60.4947 35.5415 61.208 35.5081 62.2933C35.5081 62.5396 35.4594 62.8038 35.3696 63.0835H32.0983C32.088 63.1246 32.088 63.1656 32.088 63.2067C32.0726 63.8481 32.4344 64.3074 33.1502 64.3074C33.6916 64.3074 34.0457 64.1201 34.2817 63.6916H35.2208C34.8077 64.605 33.9713 65.1207 32.9912 65.1207C31.7339 65.1207 31.0848 64.3407 31.1182 63.2785ZM42.8903 59.9264L43.0699 59.0541H38.8672L37.6023 65.0143H41.8127L42 64.1342H38.8287L39.1956 62.3844H42.1898L42.372 61.5197H39.3855L39.7319 59.9264H42.8903ZM45.3102 61.9067C46.1569 61.9067 46.9575 61.668 46.9575 60.6751C46.9575 59.9413 46.3365 59.8926 45.6874 59.8926H44.8664L44.4379 61.9067H45.3102ZM48.0658 60.575C48.0658 62.2838 46.765 62.761 45.0973 62.761H44.2583L43.7811 65.0138H42.7368L44.0043 59.0536H45.8696C47.0216 59.0536 48.0658 59.3101 48.0658 60.575ZM53.1432 59.9264L53.3305 59.0541H49.1791L47.9142 65.0143H48.9559L49.5178 62.3844H52.4427L52.6249 61.5197H49.6974L50.0437 59.9264H53.1432ZM56.9035 64.1357L56.7136 65.0157H52.6777L53.9452 59.0555H54.9869L53.9093 64.1357H56.9035ZM21.5142 11.1834C22.5816 11.1834 23.0178 11.8736 23.0178 12.9255V15.7042H22.0402V13.1641C22.0402 12.5637 21.9504 11.9813 21.2012 11.9813C20.4546 11.9813 20.1749 12.556 20.1749 13.354V15.7042H19.1974V11.2809H20.1749V11.8992C20.4289 11.4374 20.8985 11.1834 21.5142 11.1834ZM25.9177 11.9466C26.4924 11.9466 27.0184 12.3674 27.044 13.0576H24.7426C24.8247 12.2186 25.4558 11.9466 25.9177 11.9466ZM27.0261 14.3815C26.8542 14.792 26.4539 14.9973 25.9408 14.9973C25.384 14.9973 24.8067 14.5945 24.7426 13.7734H28.0395C28.1216 12.2853 27.275 11.1846 25.9177 11.1846C24.6579 11.1846 23.7471 12.1288 23.7471 13.4604C23.7471 14.7253 24.5604 15.8106 25.9818 15.8106C27.1261 15.8106 27.783 15.0897 27.9882 14.3815H27.0261ZM31.5142 14.4631C31.5142 14.8506 31.8349 15.0789 32.325 15.0789C33.0511 15.0789 33.4796 14.7095 33.4796 13.9628V13.6241C32.0812 13.7576 31.5142 13.9526 31.5142 14.4631ZM33.4539 12.9417V12.8596C33.4539 12.1052 33.0177 11.8743 32.5303 11.8743C32.0402 11.8743 31.6707 12.136 31.6451 12.6697H30.6829C30.7471 11.7666 31.4963 11.1482 32.5662 11.1482C33.6258 11.1482 34.4546 11.6357 34.4315 13.0494C34.4315 13.1446 34.4287 13.2931 34.4254 13.4633L34.4254 13.4635C34.4211 13.6922 34.4161 13.9603 34.4161 14.1912C34.4161 14.7505 34.4648 15.3355 34.5469 15.705H33.6515C33.644 15.6623 33.6365 15.624 33.6292 15.5866L33.6292 15.5866L33.6292 15.5865C33.604 15.4577 33.5813 15.3413 33.5694 15.1046C33.2871 15.5818 32.7612 15.8102 32.112 15.8102C31.1499 15.8102 30.4777 15.2944 30.4777 14.4888C30.4777 13.3855 31.8349 13.1059 33.4539 12.9417ZM36.1552 12.4162C36.1552 12.1211 36.5477 11.9312 36.9762 11.9312C37.4688 11.9312 37.8383 12.0878 37.9461 12.4906H38.8646C38.685 11.6028 37.8947 11.1821 37.0327 11.1821C36.0705 11.1821 35.2315 11.6849 35.2315 12.4649C35.2315 13.2706 35.8165 13.6092 36.5657 13.7555L37.2302 13.8889C37.6664 13.9684 37.9948 14.1352 37.9948 14.497C37.9948 14.8588 37.6176 15.0717 37.1071 15.0717C36.5323 15.0717 36.2014 14.81 36.1116 14.3559H35.1597C35.2649 15.1949 35.9884 15.8106 37.0737 15.8106C38.0769 15.8106 38.9493 15.3001 38.9493 14.3815C38.9493 13.5169 38.2668 13.2372 37.3688 13.0653L36.7453 12.9421C36.3681 12.8677 36.1552 12.7112 36.1552 12.4162ZM41.3034 11.9312C40.8774 11.9312 40.4823 12.1211 40.4823 12.4162C40.4823 12.7112 40.6953 12.8677 41.0724 12.9421L41.6985 13.0653C42.5939 13.2372 43.279 13.5169 43.279 14.3815C43.279 15.3001 42.4066 15.8106 41.4034 15.8106C40.3181 15.8106 39.5946 15.1949 39.4868 14.3559H40.4413C40.5311 14.81 40.8595 15.0717 41.4368 15.0717C41.9448 15.0717 42.322 14.8588 42.322 14.497C42.322 14.1352 41.9961 13.9684 41.5599 13.8889L40.8928 13.7555C40.1462 13.6092 39.5612 13.2706 39.5612 12.4649C39.5612 11.6849 40.3977 11.1821 41.3598 11.1821C42.2245 11.1821 43.0147 11.6028 43.1943 12.4906H42.2732C42.168 12.0878 41.796 11.9312 41.3034 11.9312ZM46.0044 11.9795C46.6201 11.9795 47.1692 12.4824 47.1692 13.501C47.1692 14.5196 46.6201 15.0148 46.0044 15.0148C45.386 15.0148 44.837 14.5196 44.837 13.501C44.837 12.4824 45.386 11.9795 46.0044 11.9795ZM43.8235 13.501C43.8235 15.0969 44.9268 15.8102 46.0044 15.8102C47.0794 15.8102 48.1827 15.0969 48.1827 13.501C48.1827 11.9051 47.0794 11.1841 46.0044 11.1841C44.9268 11.1841 43.8235 11.9051 43.8235 13.501ZM51.9347 12.7948C51.8526 12.3253 51.4421 11.9969 50.9058 11.9969C50.2978 11.9969 49.7461 12.4484 49.7461 13.4927C49.7461 14.5472 50.3055 14.9988 50.8828 14.9988C51.3574 14.9988 51.8449 14.7832 51.9681 14.1906H52.9199C52.7249 15.2271 51.809 15.8121 50.8648 15.8121C49.5819 15.8121 48.7352 14.8166 48.7352 13.5004C48.7352 12.1867 49.5896 11.1835 50.9058 11.1835C51.868 11.1835 52.7249 11.807 52.8866 12.7948H51.9347ZM53.6812 15.7042H54.6613V11.2809H53.6812V15.7042ZM53.6812 10.7318H54.6613V9.74399H53.6812V10.7318ZM56.5374 14.4631C56.5374 14.8506 56.8581 15.0789 57.3482 15.0789C58.0743 15.0789 58.5028 14.7095 58.5028 13.9628V13.6241C57.1044 13.7576 56.5374 13.9526 56.5374 14.4631ZM58.4771 12.9417V12.8596C58.4771 12.1052 58.0409 11.8743 57.5534 11.8743C57.0634 11.8743 56.6939 12.136 56.6683 12.6697H55.7061C55.7703 11.7666 56.5195 11.1482 57.5894 11.1482C58.649 11.1482 59.4777 11.6357 59.4547 13.0494C59.4547 13.1446 59.4519 13.2928 59.4487 13.4628L59.4486 13.4635L59.4486 13.4639V13.464V13.4642V13.4645C59.4443 13.693 59.4393 13.9606 59.4393 14.1912C59.4393 14.7505 59.488 15.3355 59.5701 15.705H58.6747C58.6672 15.6623 58.6597 15.6239 58.6524 15.5866C58.6272 15.4577 58.6045 15.3413 58.5926 15.1046C58.3103 15.5818 57.7844 15.8102 57.1352 15.8102C56.1731 15.8102 55.5009 15.2944 55.5009 14.4888C55.5009 13.3855 56.8581 13.1059 58.4771 12.9417ZM61.5637 11.2818V10.1144H60.5836V11.2818H59.9268V11.9874H60.5836V14.5455C60.5836 15.4512 60.7734 15.7052 61.7202 15.7052H62.4437V14.956H62.0897C61.6715 14.956 61.5637 14.8508 61.5637 14.3966V11.9874H62.4514V11.2818H61.5637ZM64.221 15.7042H63.2408V11.2809H64.221V15.7042ZM64.221 10.7318H63.2408V9.74399H64.221V10.7318ZM67.2093 11.9795C67.8251 11.9795 68.3742 12.4824 68.3742 13.501C68.3742 14.5196 67.8251 15.0148 67.2093 15.0148C66.591 15.0148 66.0419 14.5196 66.0419 13.501C66.0419 12.4824 66.591 11.9795 67.2093 11.9795ZM65.0284 13.501C65.0284 15.0969 66.1317 15.8102 67.2093 15.8102C68.2844 15.8102 69.3876 15.0969 69.3876 13.501C69.3876 11.9051 68.2844 11.1841 67.2093 11.1841C66.1317 11.1841 65.0284 11.9051 65.0284 13.501ZM72.5133 11.1834C73.5832 11.1834 74.0194 11.8736 74.0194 12.9255V15.7042H73.0392V13.1641C73.0392 12.5637 72.9494 11.9813 72.2028 11.9813C71.4536 11.9813 71.1765 12.556 71.1765 13.354V15.7042H70.1964V11.2809H71.1765V11.8992C71.428 11.4374 71.8975 11.1834 72.5133 11.1834ZM14.3077 22.3008C14.3077 21.413 14.6618 21.1667 15.2776 21.1667C15.4264 21.1667 15.5804 21.1744 15.7471 21.1898V20.2046C15.6702 20.1969 15.565 20.1892 15.4906 20.1892C14.9569 20.1969 14.5284 20.4919 14.2898 20.9846V20.1969H13.3276V24.6202H14.3077V22.3008ZM19.2668 21.9726C19.2412 21.2825 18.7152 20.8617 18.143 20.8617C17.6812 20.8617 17.0475 21.1336 16.9679 21.9726H19.2668ZM18.1661 23.9123C18.6767 23.9123 19.0795 23.7071 19.2514 23.2966H20.2136C20.0083 24.0047 19.3489 24.7257 18.2072 24.7257C16.7832 24.7257 15.9698 23.6404 15.9698 22.3755C15.9698 21.0438 16.8833 20.0997 18.143 20.0997C19.4977 20.0997 20.3444 21.2004 20.2623 22.6885H16.9679C17.0321 23.5095 17.6068 23.9123 18.1661 23.9123ZM22.9885 20.9114C23.5222 20.9114 23.9327 21.2398 24.0148 21.7094H24.9692C24.805 20.7215 23.9506 20.0981 22.9885 20.0981C21.6723 20.0981 20.8179 21.1013 20.8179 22.4149C20.8179 23.7312 21.6646 24.7267 22.9474 24.7267C23.8916 24.7267 24.805 24.1417 25.0026 23.1051H24.0481C23.925 23.6978 23.4375 23.9133 22.9628 23.9133C22.3855 23.9133 21.8262 23.4617 21.8262 22.4072C21.8262 21.363 22.3778 20.9114 22.9885 20.9114ZM28.8281 22.4155C28.8281 21.3969 28.2791 20.8941 27.6633 20.8941C27.045 20.8941 26.4959 21.3969 26.4959 22.4155C26.4959 23.4341 27.045 23.9293 27.6633 23.9293C28.2791 23.9293 28.8281 23.4341 28.8281 22.4155ZM27.6633 24.7247C26.5857 24.7247 25.4824 24.0114 25.4824 22.4155C25.4824 20.8197 26.5857 20.0987 27.6633 20.0987C28.7383 20.0987 29.8416 20.8197 29.8416 22.4155C29.8416 24.0114 28.7383 24.7247 27.6633 24.7247ZM34.4735 21.8405C34.4735 20.7886 34.0373 20.0984 32.9674 20.0984C32.3516 20.0984 31.8821 20.3524 31.6306 20.8142V20.1959H30.6505V24.6192H31.6306V22.269C31.6306 21.4711 31.9077 20.8964 32.6569 20.8964C33.4035 20.8964 33.4933 21.4788 33.4933 22.0792V24.6192H34.4735V21.8405ZM37.8158 20.0984C38.8831 20.0984 39.3193 20.7886 39.3193 21.8405V24.6192H38.3417V22.0792C38.3417 21.4788 38.2519 20.8964 37.5027 20.8964C36.7561 20.8964 36.4764 21.4711 36.4764 22.269V24.6192H35.4989V20.1959H36.4764V20.8142C36.7305 20.3524 37.2 20.0984 37.8158 20.0984ZM40.2865 22.984C40.2865 24.036 40.7124 24.7262 41.7644 24.7262C42.3647 24.7262 42.8163 24.4722 43.0729 24.0103V24.6184H44.0504V20.1951H43.0729V22.5556C43.0729 23.3535 42.8086 23.9282 42.0774 23.9282C41.3461 23.9282 41.264 23.3458 41.264 22.7454V20.1951H40.2865V22.984ZM48.1562 21.9726C48.1306 21.2825 47.6046 20.8617 47.0324 20.8617C46.5706 20.8617 45.9369 21.1336 45.8573 21.9726H48.1562ZM47.0555 23.9123C47.5661 23.9123 47.9689 23.7071 48.1408 23.2966H49.103C48.8977 24.0047 48.2383 24.7257 47.0966 24.7257C45.6726 24.7257 44.8593 23.6404 44.8593 22.3755C44.8593 21.0438 45.7727 20.0997 47.0324 20.0997C48.3871 20.0997 49.2338 21.2004 49.1517 22.6885H45.8573C45.9215 23.5095 46.4962 23.9123 47.0555 23.9123ZM15.4073 29.808C16.0924 29.808 16.5029 30.393 16.5029 31.3218C16.5029 32.2583 16.0924 32.8433 15.4073 32.8433C14.7659 32.8433 14.2656 32.3404 14.2656 31.3218C14.2656 30.3032 14.7659 29.808 15.4073 29.808ZM15.6229 29.0127C15.0302 29.0127 14.5709 29.2667 14.3092 29.7029V29.1102H13.3291V34.9703H14.3092V32.9485C14.5709 33.3847 15.0302 33.6387 15.6229 33.6387C16.6979 33.6387 17.5215 32.7432 17.5215 31.3218C17.5215 29.9081 16.6979 29.0127 15.6229 29.0127ZM19.0561 32.2918C19.0561 32.6766 19.3768 32.9075 19.8669 32.9075C20.593 32.9075 21.0214 32.5381 21.0214 31.7914V31.4528C19.6231 31.5862 19.0561 31.7812 19.0561 32.2918ZM20.9958 30.7703V30.6882C20.9958 29.9338 20.5596 29.7029 20.0721 29.7029C19.5821 29.7029 19.2126 29.9646 19.1869 30.4983H18.2248C18.2889 29.5952 19.0381 28.9768 20.108 28.9768C21.1677 28.9768 21.9964 29.4643 21.9733 30.878C21.9733 30.9717 21.9706 31.119 21.9674 31.2886C21.963 31.5184 21.9579 31.7891 21.9579 32.0224C21.9579 32.5791 22.0067 33.1641 22.0888 33.5336H21.1933C21.1859 33.4909 21.1784 33.4526 21.1711 33.4152L21.1711 33.4152C21.1459 33.2863 21.1232 33.1699 21.1112 32.9332C20.829 33.4104 20.303 33.6388 19.6539 33.6388C18.6918 33.6388 18.0195 33.1231 18.0195 32.3174C18.0195 31.2141 19.3768 30.9345 20.9958 30.7703ZM23.9421 31.2148C23.9421 30.3271 24.2962 30.0808 24.912 30.0808C25.0608 30.0808 25.2173 30.0885 25.3815 30.1039V29.1186C25.3071 29.1109 25.1994 29.1032 25.1275 29.1032C24.5913 29.1109 24.1654 29.406 23.9268 29.8986V29.1109H22.9646V33.5343H23.9421V31.2148ZM27.8928 27.5731H28.8729V33.5333H27.8928V27.5731ZM30.9703 28.7732V27.5724H29.849V28.6911H30.3545L29.8105 29.9894H30.393L30.9703 28.7732ZM36.217 27.5721V28.4445H33.0432V30.0378H36.0451V30.9024H33.0432V32.6523H36.217V33.5323H31.9963V27.5721H36.217ZM39.0737 30.4252H38.1038V28.4111H39.0249C39.7587 28.4111 40.472 28.4855 40.472 29.4554C40.472 30.3098 39.8639 30.4252 39.0737 30.4252ZM39.0403 31.2796C40.4463 31.2796 41.5573 30.9512 41.5573 29.4477C41.5573 27.7876 40.3309 27.5721 39.0249 27.5721H37.0596V33.5323H38.1038V31.2796H39.0403ZM46.4126 27.5721V28.4445H43.2952V30.0378H46.2304V30.9024H43.2952V33.5323H42.251V27.5721H46.4126ZM51.0706 33.5343V32.6542H48.0687V27.5741H47.0244V33.5343H51.0706Z" fill="#EED4F1"/>
</svg>
