<?xml version="1.0" encoding="UTF-8" standalone="no"?>
<!DOCTYPE svg PUBLIC "-//W3C//DTD SVG 20010904//EN" "http://www.w3.org/TR/2001/REC-SVG-20010904/DTD/svg10.dtd">
<svg version="1.0" xmlns="http://www.w3.org/2000/svg" width="220.000000pt" height="67.000000pt" viewBox="0 0 220.000000 67.000000" preserveAspectRatio="xMidYMid meet">

<g transform="translate(0.000000,67.000000) scale(0.100000,-0.100000)" fill="#fff7ae" stroke="none">
<path d="M442 625 c-244 -26 -419 -48 -428 -55 -21 -18 -21 -332 1 -350 10 -8 178 -29 449 -57 l435 -44 40 25 c38 24 49 26 157 26 106 0 120 -2 163 -26 l46 -25 432 44 c271 28 438 49 448 57 22 18 22 332 1 350 -9 7 -191 29 -451 56 l-436 44 -42 -28 c-38 -24 -52 -27 -147 -30 -101 -3 -107 -2 -162 27 -32 17 -66 30 -75 30 -10 -1 -204 -21 -431 -44z m-332 -165 l0 -60 60 0 c47 0 60 -3 60 -15 0 -12 -16 -15 -80 -15 l-80 0 0 75 c0 68 2 75 20 75 18 0 20 -7 20 -60z m319 -9 c22 -38 41 -72 41 -75 0 -13 -38 -5 -44 9 -8 22 -112 21 -124 -1 -5 -9 -16 -14 -25 -13 -13 3 -9 17 26 76 56 96 71 97 126 4z m248 52 c3 -8 -16 -11 -64 -10 -56 2 -68 -1 -71 -15 -3 -15 7 -17 65 -20 l68 -3 0 -40 0 -40 -85 0 c-70 0 -85 3 -88 16 -2 14 7 15 73 11 65 -4 75 -2 75 12 0 13 -11 16 -54 16 -74 0 -86 6 -86 44 0 18 3 36 7 40 12 11 156 2 160 -11z m203 7 c0 -5 -28 -10 -62 -12 -50 -2 -63 -6 -66 -20 -3 -15 4 -18 37 -18 51 0 54 -18 4 -22 -27 -2 -39 -8 -41 -20 -3 -16 5 -18 62 -18 52 0 66 -3 66 -15 0 -12 -16 -15 -85 -15 l-85 0 0 75 0 75 85 0 c47 0 85 -4 85 -10z m215 -11 c11 -33 -3 -69 -25 -69 -27 0 -25 -6 8 -35 l27 -24 -24 -1 c-13 0 -39 14 -58 30 -18 17 -40 30 -48 30 -10 0 -15 -10 -15 -30 0 -23 -4 -30 -20 -30 -18 0 -20 7 -20 75 l0 75 84 0 c77 0 85 -2 91 -21z m303 4 c3 -10 -16 -13 -72 -13 l-76 0 0 -45 0 -45 55 0 c42 0 55 3 55 15 0 10 -10 15 -30 15 -20 0 -30 5 -30 15 0 11 12 15 51 15 l50 0 -3 -42 -3 -43 -90 0 -90 0 -3 59 c-5 88 -6 87 95 84 58 -2 88 -7 91 -15z m218 -58 c40 -66 42 -70 22 -73 -12 -2 -25 3 -30 12 -12 22 -113 23 -122 1 -3 -8 -15 -15 -27 -15 l-21 0 23 38 c67 109 70 113 91 110 14 -2 36 -27 64 -73z m163 30 l33 -45 37 45 c20 25 44 45 54 45 15 0 17 -10 17 -75 0 -68 -2 -75 -20 -75 -17 0 -20 7 -20 48 l0 47 -35 -40 -34 -40 -35 40 -35 40 -1 -47 c0 -36 -4 -48 -15 -48 -12 0 -15 15 -15 75 0 65 2 75 18 75 9 0 32 -21 51 -45z m351 35 c0 -6 -28 -10 -65 -10 -58 0 -65 -2 -65 -20 0 -16 7 -20 35 -20 22 0 35 -5 35 -13 0 -9 -11 -12 -35 -9 -30 4 -35 1 -35 -17 0 -19 6 -21 65 -21 51 0 65 -3 65 -15 0 -12 -16 -15 -85 -15 l-85 0 0 75 0 75 85 0 c50 0 85 -4 85 -10z m-1030 -241 c0 -24 4 -29 25 -29 21 0 25 5 25 30 0 17 5 30 10 30 6 0 10 -18 10 -41 l0 -40 -47 3 c-44 3 -48 5 -51 31 -2 16 -1 35 2 43 9 24 26 6 26 -27z m-642 24 c-41 -5 -52 -22 -15 -24 l22 -2 -22 -4 c-33 -6 -28 -23 6 -23 17 0 33 -4 36 -10 4 -6 -12 -10 -39 -10 l-46 0 0 40 0 40 48 -2 c43 -1 44 -2 10 -5z m134 -20 l16 -27 13 27 c7 15 18 27 25 27 8 0 5 -13 -9 -40 -12 -22 -25 -40 -29 -40 -7 0 -48 63 -48 74 0 15 17 4 32 -21z m238 -13 l0 -40 -50 0 -50 0 0 40 0 40 50 0 50 0 0 -40z m110 10 c0 -27 3 -30 30 -30 17 0 30 -4 30 -10 0 -5 -18 -10 -40 -10 l-40 0 0 40 c0 22 5 40 10 40 6 0 10 -13 10 -30z m383 23 c-19 -4 -23 -11 -23 -39 0 -19 -4 -34 -10 -34 -5 0 -10 15 -10 34 0 28 -4 35 -22 39 -13 2 2 4 32 4 30 0 45 -2 33 -4z m107 -33 c0 -22 -4 -40 -10 -40 -5 0 -10 18 -10 40 0 22 5 40 10 40 6 0 10 -18 10 -40z m190 0 l0 -40 -50 0 -50 0 0 40 0 40 50 0 50 0 0 -40z m137 14 l33 -25 0 25 c0 15 5 26 10 26 6 0 10 -18 10 -40 0 -22 -3 -40 -7 -40 -3 0 -21 11 -40 26 l-33 25 0 -25 c0 -15 -4 -26 -10 -26 -5 0 -10 18 -10 40 0 22 3 40 7 40 3 0 21 -11 40 -26z"/>
<path d="M345 460 l-16 -30 36 0 36 0 -16 30 c-9 17 -18 30 -20 30 -2 0 -11 -13 -20 -30z"/>
<path d="M960 481 c0 -18 6 -21 51 -21 43 0 50 3 47 18 -2 13 -15 18 -51 20 -42 3 -47 1 -47 -17z"/>
<path d="M1532 465 c-16 -35 -16 -35 18 -35 35 0 36 6 12 38 l-18 23 -12 -26z"/>
<path d="M750 265 c0 -21 5 -25 30 -25 25 0 30 4 30 25 0 21 -5 25 -30 25 -25 0 -30 -4 -30 -25z"/>
<path d="M1540 265 c0 -21 5 -25 30 -25 25 0 30 4 30 25 0 21 -5 25 -30 25 -25 0 -30 -4 -30 -25z"/>
</g>
</svg>