<?xml version="1.0" encoding="UTF-8"?>
<svg version="1.1" xmlns="http://www.w3.org/2000/svg" width="361" height="338">
<path d="M0 0 C119.13 0 238.26 0 361 0 C361 111.54 361 223.08 361 338 C241.87 338 122.74 338 0 338 C0 226.46 0 114.92 0 0 Z " fill="#515582" transform="translate(0,0)"/>
<path d="M0 0 C6.27648552 4.95869527 10.44837304 11.74531013 11.8671875 19.61328125 C12.70916268 29.48382109 11.83072519 37.23252576 5.87890625 45.3125 C-0.41683597 52.76083061 -6.76034239 57.04636105 -16.6015625 57.921875 C-27.03863414 58.37876459 -35.14886013 56.89132272 -43.28515625 49.71484375 C-49.80506977 42.74005254 -52.87212396 35.7755296 -52.6953125 26.23828125 C-52.68435547 25.40192139 -52.67339844 24.56556152 -52.66210938 23.70385742 C-52.30912182 13.62900423 -48.57606755 7.14695814 -41.25 0.3046875 C-28.88584536 -9.57294896 -12.86336571 -8.36354364 0 0 Z " fill="#EED4F1" transform="translate(216.1328125,144.38671875)"/>
<path d="M0 0 C10 0 10 0 12.890625 2.54296875 C13.71222338 3.73432854 14.49693388 4.95167903 15.25 6.1875 C15.68546143 6.83936279 16.12092285 7.49122559 16.56958008 8.1628418 C17.53365131 9.61305856 18.48252652 11.07345684 19.41845703 12.54199219 C21.168576 15.26199802 22.98276926 17.93182363 24.80859375 20.6015625 C27.32788892 24.30449747 29.84484933 28.00846235 32.32421875 31.73828125 C32.84072998 32.51212158 33.35724121 33.28596191 33.8894043 34.08325195 C35 36 35 36 35 38 C38.28235075 34.9414145 40.68883464 31.69245079 43.15234375 27.94921875 C43.5343544 27.37218704 43.91636505 26.79515533 44.30995178 26.20063782 C45.52356728 24.36580603 46.73080224 22.526887 47.9375 20.6875 C48.74367991 19.46388904 49.55031657 18.24057889 50.35742188 17.01757812 C50.74910553 16.42333038 51.14078918 15.82908264 51.54434204 15.21682739 C52.31932676 14.04650046 53.0983931 12.87886527 53.88168335 11.71408081 C55.4523155 9.37627154 56.97067641 7.05331268 58.32861328 4.58447266 C59.44140625 2.64453125 59.44140625 2.64453125 62 0 C65.3 0 68.6 0 72 0 C72 26.73 72 53.46 72 81 C68.04 81 64.08 81 60 81 C59.67 63.18 59.34 45.36 59 27 C53.07650786 36.19518924 53.07650786 36.19518924 47.21484375 45.4296875 C46.45793603 46.57958069 45.69895694 47.72811423 44.9375 48.875 C44.56818359 49.47957031 44.19886719 50.08414063 43.81835938 50.70703125 C42.23932781 53.03987185 40.82542071 54.7507712 38.07530212 55.58114624 C35.81788801 55.76078796 34.16898735 55.65456647 32 55 C29.90347621 52.98413495 28.76299726 51.58395199 27.31640625 49.1640625 C26.9305687 48.56951263 26.54473114 47.97496277 26.14720154 47.36239624 C24.92518013 45.46572154 23.74423496 43.54697431 22.5625 41.625 C21.7427967 40.33950835 20.9205551 39.05563152 20.09570312 37.7734375 C14.56334703 29.12669406 14.56334703 29.12669406 13 26 C12.67 44.15 12.34 62.3 12 81 C8.04 81 4.08 81 0 81 C0 54.27 0 27.54 0 0 Z " fill="#EED4F1" transform="translate(237,207)"/>
<path d="M0 0 C7.2316985 5.57595609 11.79425739 11.99772597 14.3203125 20.7890625 C14.3203125 21.4490625 14.3203125 22.1090625 14.3203125 22.7890625 C9.7003125 22.7890625 5.0803125 22.7890625 0.3203125 22.7890625 C-0.2675 21.21125 -0.2675 21.21125 -0.8671875 19.6015625 C-3.85258103 12.7462144 -9.04955071 9.61866063 -15.6796875 6.7890625 C-23.21224619 4.2782096 -30.96715769 4.99111125 -38.1171875 8.2890625 C-45.24066546 12.29249471 -49.67199468 17.82947433 -52.20703125 25.6015625 C-54.21501962 34.89473182 -52.46742963 43.90550917 -47.32421875 51.89453125 C-42.92623262 57.42443874 -37.71640662 60.67800159 -30.6796875 61.7890625 C-21.92949732 62.59183224 -14.93122147 62.05100592 -7.6796875 56.7890625 C-4.83301737 54.08182111 -2.44052895 51.3107454 -0.6796875 47.7890625 C-10.2496875 47.4590625 -19.8196875 47.1290625 -29.6796875 46.7890625 C-29.6796875 42.8290625 -29.6796875 38.8690625 -29.6796875 34.7890625 C-15.1596875 34.7890625 -0.6396875 34.7890625 14.3203125 34.7890625 C13.26547631 48.50193291 11.57504431 55.60306462 1.93359375 64.7421875 C-9.61209192 73.78544504 -21.55502526 75.02479371 -35.6796875 73.7890625 C-44.6249037 71.81938546 -51.80492162 66.74052034 -57.6796875 59.7890625 C-64.81302422 48.40828255 -67.94534292 36.01025798 -64.9921875 22.6875 C-61.37077039 11.97414106 -54.96571319 2.68976419 -44.86328125 -2.71875 C-30.11589394 -9.59170014 -13.8750882 -9.0567296 0 0 Z " fill="#EED4F1" transform="translate(116.6796875,214.2109375)"/>
<path d="M0 0 C0.75127167 -0.00807175 1.50254333 -0.01614349 2.27658081 -0.02445984 C3.86860866 -0.03828536 5.46066595 -0.04901437 7.05273438 -0.05688477 C8.66838364 -0.06836506 10.28399617 -0.08875398 11.89941406 -0.1184082 C29.10350471 -0.43406341 29.10350471 -0.43406341 36.3671875 4.23828125 C37.7284375 5.10453125 37.7284375 5.10453125 39.1171875 5.98828125 C43.40440359 10.27549734 47.20882285 15.71348733 47.48744202 21.9148407 C47.48522141 22.99183731 47.48300079 24.06883392 47.48071289 25.1784668 C47.48059959 27.01002571 47.48059959 27.01002571 47.48048401 28.87858582 C47.47532272 30.1974025 47.47016144 31.51621918 47.46484375 32.875 C47.4629783 34.23834684 47.461555 35.60169436 47.46055603 36.96504211 C47.45674082 40.55056616 47.44691905 44.1360496 47.43585205 47.72155762 C47.42561651 51.38142345 47.42105382 55.04129585 47.41601562 58.70117188 C47.40529588 65.88022898 47.38770715 73.05924425 47.3671875 80.23828125 C43.4071875 80.23828125 39.4471875 80.23828125 35.3671875 80.23828125 C35.35260498 78.60882568 35.33802246 76.97937012 35.32299805 75.30053711 C35.26492388 69.24155999 35.18769048 63.18295094 35.10473633 57.12426758 C35.07153007 54.50453678 35.04348484 51.88473519 35.02075195 49.26489258 C34.98712796 45.49399714 34.93480554 41.72374803 34.87890625 37.953125 C34.87251633 36.78619614 34.8661264 35.61926727 34.85954285 34.41697693 C34.73433954 27.45530997 34.35541361 21.97356388 29.8671875 16.36328125 C25.07211506 12.76697692 17.95844024 13.93632945 12.22583008 13.88818359 C10.78360843 13.87164175 9.34146818 13.84437411 7.8996582 13.80615234 C5.80897986 13.75109039 3.7202141 13.7294697 1.62890625 13.71484375 C0.38069092 13.69502441 -0.86752441 13.67520508 -2.15356445 13.65478516 C-6.75980229 14.42728592 -8.34897434 15.97503431 -11.6328125 19.23828125 C-12.95491309 21.88248242 -12.79403372 23.9202774 -12.83813477 26.88134766 C-12.85807999 28.06242096 -12.87802521 29.24349426 -12.89857483 30.46035767 C-12.92364357 32.38070328 -12.92364357 32.38070328 -12.94921875 34.33984375 C-12.96999985 35.64658051 -12.99078094 36.95331726 -13.01219177 38.2996521 C-13.06740544 41.77497025 -13.11681775 45.25034778 -13.16503906 48.72576904 C-13.21525927 52.27166025 -13.27094262 55.81746515 -13.32617188 59.36328125 C-13.4337448 66.32154137 -13.53468689 73.27988156 -13.6328125 80.23828125 C-18.2528125 80.23828125 -22.8728125 80.23828125 -27.6328125 80.23828125 C-27.70727423 72.44614727 -27.76156262 64.65422298 -27.79760742 56.86181641 C-27.81264269 54.21399322 -27.83307626 51.56619472 -27.85913086 48.91845703 C-27.89574511 45.10052373 -27.91259216 41.28292132 -27.92578125 37.46484375 C-27.94126511 36.29152496 -27.95674896 35.11820618 -27.97270203 33.90933228 C-27.97484565 23.31000121 -26.35161943 13.99154714 -18.6328125 6.23828125 C-12.57502006 1.62609837 -7.59631154 0.07773399 0 0 Z " fill="#EED4F1" transform="translate(260.6328125,46.76171875)"/>
<path d="M0 0 C1.5049788 -0.01147482 3.00991835 -0.03185501 4.51464844 -0.06152344 C15.26045762 -0.27308303 24.56962294 0.07306402 33.0234375 7.48266602 C38.35121126 12.77028067 40.38111292 19.4831308 40.60253906 26.82470703 C40.60191206 29.31625188 40.57968846 31.80785858 40.5390625 34.29907227 C40.53340271 35.61810043 40.52774292 36.9371286 40.52191162 38.29612732 C40.50676594 41.77335914 40.46758352 45.24990403 40.4230957 48.72686768 C40.38190091 52.28664868 40.36384941 55.84654259 40.34375 59.40649414 C40.30107525 66.36969241 40.23081923 73.33232534 40.1484375 80.29516602 C35.8584375 80.29516602 31.5684375 80.29516602 27.1484375 80.29516602 C27.1390918 78.56959473 27.12974609 76.84402344 27.12011719 75.06616211 C27.08452579 69.35031446 27.03068743 63.63483138 26.96453476 57.91925621 C26.92510755 54.4555109 26.89289629 50.99201798 26.87744141 47.52807617 C26.85933197 43.54125665 26.80935938 39.55513645 26.7578125 35.56860352 C26.75658386 34.33089203 26.75535522 33.09318054 26.75408936 31.81796265 C26.66526394 23.22636195 26.66526394 23.22636195 22.1484375 16.29516602 C17.41670346 12.7708707 10.59068441 13.88448713 4.93164062 13.86962891 C2.78659579 13.85773895 0.6444376 13.80854007 -1.5 13.75805664 C-2.87498606 13.74859008 -4.24998967 13.74135615 -5.625 13.73657227 C-7.48777588 13.71639038 -7.48777588 13.71639038 -9.38818359 13.69580078 C-14.0266252 14.49851995 -15.56393005 15.95619246 -18.8515625 19.29516602 C-20.90915939 22.54936031 -21.11975046 25.1653259 -21.17041016 28.98168945 C-21.19027985 30.12257019 -21.21014954 31.26345093 -21.23062134 32.43890381 C-21.24217255 33.66506409 -21.25372375 34.89122437 -21.265625 36.15454102 C-21.28499115 37.41405579 -21.3043573 38.67357056 -21.3243103 39.97125244 C-21.37394664 43.31177552 -21.41522527 46.65218926 -21.45245361 49.99285889 C-21.49253589 53.4049265 -21.54360889 56.81682777 -21.59375 60.22875977 C-21.689813 66.91746394 -21.77384289 73.60622456 -21.8515625 80.29516602 C-26.1415625 80.29516602 -30.4315625 80.29516602 -34.8515625 80.29516602 C-34.94229152 72.75802731 -35.0155237 65.22109501 -35.05881119 57.6835413 C-35.0795977 54.18269969 -35.10774849 50.68225428 -35.15332031 47.18164062 C-35.20549878 43.14783135 -35.22458136 39.11443174 -35.2421875 35.08032227 C-35.26283264 33.83622086 -35.28347778 32.59211945 -35.30474854 31.31031799 C-35.30728334 21.4056055 -33.25467589 14.17362645 -26.49609375 6.79907227 C-18.66282197 -0.36437104 -10.01924571 0.0530864 0 0 Z " fill="#EED4F1" transform="translate(85.8515625,46.704833984375)"/>
<path d="M0 0 C3 1 3 1 4.38671875 3.50390625 C4.81597656 4.51324219 5.24523437 5.52257813 5.6875 6.5625 C6.34298828 8.08037109 6.34298828 8.08037109 7.01171875 9.62890625 C7.50091797 10.80259766 7.50091797 10.80259766 8 12 C7.12988281 12.51046875 7.12988281 12.51046875 6.2421875 13.03125 C-0.51473502 17.22366397 -4.93283485 21.6777456 -8.375 28.875 C-10.33088115 38.65440576 -8.49537217 46.38243758 -3.25 54.8125 C3.59999904 61.47222129 10.15983405 63.38472394 19.57421875 63.26953125 C26.7051987 62.70848494 32.00961322 60.47623483 36.9375 55.25 C42.99749759 47.46061631 44.1319608 39.79443975 43 30 C41.97903198 26.79124336 40.68526571 23.91159746 39 21 C40.59622656 19.96679519 42.20229106 18.94877571 43.8125 17.9375 C44.70582031 17.36902344 45.59914063 16.80054687 46.51953125 16.21484375 C49 15 49 15 52 16 C53.1328125 17.671875 53.1328125 17.671875 54.125 19.75 C54.62386719 20.76320313 54.62386719 20.76320313 55.1328125 21.796875 C58.97085998 31.54759022 58.38385052 45.10847834 54.2578125 54.64453125 C49.00839561 64.47496102 41.17027304 72.12906754 30.6640625 76.10546875 C18.60442761 79.04966533 6.77844864 78.44907382 -4.01171875 72.109375 C-13.15547331 65.65496002 -19.74657825 57.61029669 -22.6328125 46.58203125 C-24.49472617 33.4892128 -22.5370195 22.92709105 -14.6875 12.125 C-11.2848041 8.02240604 -7.42621208 4.93477105 -3 2 C-2.01 1.34 -1.02 0.68 0 0 Z " fill="#EED4F1" transform="translate(162,49)"/>
<path d="M0 0 C6.27065605 4.04518792 10.48258125 9.90032053 12.6171875 17.07421875 C14.08859723 24.47631054 12.53135048 31.19056569 8.40625 37.3984375 C3.62696278 43.29419755 -1.58874876 47.13346265 -9 49 C-14.00386015 49.50412955 -18.98602763 49.30449225 -24 49 C-23 41.57142857 -23 41.57142857 -22 38 C-21.13117188 37.91363281 -20.26234375 37.82726562 -19.3671875 37.73828125 C-10.04046781 36.65694156 -10.04046781 36.65694156 -3 31 C-0.60373088 26.96991103 -0.29647922 22.59092404 -1 18 C-3.24459886 13.13670247 -6.07696848 10.80311389 -10.859375 8.6953125 C-16.89216841 6.73575551 -21.54294615 7.83274669 -27.140625 10.5390625 C-30.44356724 13.1342314 -32.64298813 16.0172261 -33.38909912 20.16098022 C-33.55699738 22.70477931 -33.60584667 25.22410369 -33.609375 27.7734375 C-33.62591125 28.6971817 -33.64244751 29.6209259 -33.65948486 30.57266235 C-33.70785236 33.5068433 -33.72931083 36.44050638 -33.75 39.375 C-33.77816909 41.37111965 -33.80809782 43.36721529 -33.83984375 45.36328125 C-33.91360839 50.24214485 -33.96325178 55.12072286 -34 60 C-37.96 60 -41.92 60 -46 60 C-46.0992969 53.88025582 -46.17167096 47.76098648 -46.21972656 41.640625 C-46.23977159 39.56111475 -46.26701513 37.48166037 -46.30175781 35.40234375 C-46.35058948 32.40350513 -46.37304028 29.40541537 -46.390625 26.40625 C-46.41127014 25.48509399 -46.43191528 24.56393799 -46.45318604 23.61486816 C-46.45577345 16.07582647 -44.57326621 10.90317213 -39.5625 5.25 C-38.2940625 4.13625 -38.2940625 4.13625 -37 3 C-36.236875 2.29875 -35.47375 1.5975 -34.6875 0.875 C-24.40176162 -6.30109655 -10.78134332 -6.20217062 0 0 Z " fill="#EED4F1" transform="translate(296,142)"/>
<path d="M0 0 C4.86725567 -0.78292964 9.15770934 -1.03975566 14 0 C17.96877754 3.5858122 20.20728114 7.93950794 22.625 12.625 C23.29326419 13.82956161 23.96641383 15.03142643 24.64453125 16.23046875 C25.89507821 18.45078865 27.10610597 20.67920211 28.29931641 22.93212891 C29.99103493 26.09108158 29.99103493 26.09108158 32.21240234 29.26708984 C34 32 34 32 34 34 C37.00967586 31.34609303 38.90953595 28.09761235 40.94140625 24.6875 C41.49392311 23.77230591 41.49392311 23.77230591 42.05760193 22.83862305 C43.22999805 20.89484786 44.396415 18.94756653 45.5625 17 C46.73341102 15.05321307 47.9055297 13.10715899 49.07810974 11.16137695 C49.80613443 9.95232972 50.53296095 8.74255999 51.25843811 7.53198242 C52.78936667 4.9813289 54.3493064 2.47604041 56 0 C59.2578125 -0.29296875 59.2578125 -0.29296875 63.125 -0.1875 C65.04699219 -0.14689453 65.04699219 -0.14689453 67.0078125 -0.10546875 C67.99523437 -0.07066406 68.98265625 -0.03585938 70 0 C68.66811259 3.56454713 67.08183951 6.71513246 65.09375 9.95703125 C64.51915039 10.89772461 63.94455078 11.83841797 63.35253906 12.80761719 C62.74120117 13.79922852 62.12986328 14.79083984 61.5 15.8125 C60.87577148 16.83118164 60.25154297 17.84986328 59.60839844 18.89941406 C46.56576423 40.15135365 46.56576423 40.15135365 42 47 C41.7597883 49.60793391 41.62736305 52.11887145 41.5859375 54.73046875 C41.56657135 55.48088943 41.5472052 56.23131012 41.5272522 57.00447083 C41.46752541 59.39869867 41.42109935 61.79297477 41.375 64.1875 C41.3368138 65.8118698 41.29776169 67.43621948 41.2578125 69.06054688 C41.16182975 73.04020105 41.07777364 77.01995001 41 81 C37.04 81 33.08 81 29 81 C29.05349609 80.10619629 29.10699219 79.21239258 29.16210938 78.29150391 C30.22491456 55.96973798 27.75139913 42.22991246 14.07080078 23.84326172 C10.9633777 19.57669143 8.26730937 15.09053755 5.5625 10.5625 C5.10891113 9.82837891 4.65532227 9.09425781 4.18798828 8.33789062 C2.4885138 5.58198606 1.02772395 3.08317186 0 0 Z " fill="#EED4F1" transform="translate(147,207)"/>
<path d="M0 0 C5.96680138 2.74952033 10.08217886 7.2138241 12.60546875 13.31640625 C13.38645015 19.93953427 12.96011079 25.53254066 9.60546875 31.31640625 C5.50826825 36.35010972 0.5725697 39.6352506 -5.8515625 40.73828125 C-12.27467097 41.09347619 -16.52108089 39.46263796 -21.39453125 35.31640625 C-26.23572808 30.61071366 -28.4519062 26.21501611 -28.76953125 19.50390625 C-28.63143879 14.3407826 -27.58158453 10.42788106 -24.39453125 6.31640625 C-17.08920948 -0.31035797 -9.86585905 -2.81651767 0 0 Z " fill="#EED4F1" transform="translate(203.39453125,150.68359375)"/>
<path d="M0 0 C1.92972656 -0.00386719 1.92972656 -0.00386719 3.8984375 -0.0078125 C7.2424251 0.11136526 10.34597949 0.48543872 13.625 1.125 C13.625 4.755 13.625 8.385 13.625 12.125 C12.75875 11.96 11.8925 11.795 11 11.625 C3.91635627 10.60681712 -4.48217065 9.96992184 -11.375 12.125 C-11.79048503 15.1892021 -12.05754131 17.17466014 -11.375 20.125 C-7.12013777 24.72220747 0.10494345 26.69252706 5.79296875 28.9140625 C10.94100769 31.11529294 14.27030587 32.86290218 16.625 38.125 C17.42134294 43.85723428 17.41649056 49.2781887 15.125 54.625 C8.7486877 61.0013123 2.92562604 63.26302314 -6 63.3125 C-12.07225249 63.28074136 -17.48385554 62.55315623 -23.375 61.125 C-23.375 57.495 -23.375 53.865 -23.375 50.125 C-22.01375 50.455 -20.6525 50.785 -19.25 51.125 C-12.05460921 52.5517608 -3.30947423 53.94050164 3.51171875 50.79296875 C5.94912575 49.25355106 5.94912575 49.25355106 6.125 46.125 C5.56913033 42.78978199 5.137113 42.2090222 2.625 40.125 C0.81705574 39.18006266 0.81705574 39.18006266 -1.17578125 38.4765625 C-1.90603516 38.19296875 -2.63628906 37.909375 -3.38867188 37.6171875 C-4.908388 37.04390461 -6.42920826 36.47353928 -7.95117188 35.90625 C-14.02360334 33.53912132 -18.5455072 30.86923919 -22.25 25.3125 C-24.20248503 19.78045907 -24.13700866 15.27584043 -21.875 9.9375 C-19.16801366 5.02625336 -14.80781114 2.31674011 -9.5859375 0.50390625 C-6.37889579 -0.04571044 -3.25140173 -0.00648982 0 0 Z " fill="#EED4F1" transform="translate(75.375,138.875)"/>
<path d="M0 0 C4.29 0 8.58 0 13 0 C13 2.64 13 5.28 13 8 C18.94 8 24.88 8 31 8 C31 11.96 31 15.92 31 20 C25.06 20 19.12 20 13 20 C13.06033452 23.66833888 13.14751429 27.33279393 13.25 31 C13.26417969 32.02996094 13.27835938 33.05992187 13.29296875 34.12109375 C13.53877586 41.83943694 14.67526988 47.58291626 20.25 53.3125 C23.72619468 55.44561946 27.13774042 56.69075947 31 58 C31 61.96 31 65.92 31 70 C21.99211238 70.87173106 16.88782916 67.91772566 9.953125 62.359375 C4.18745713 57.08649926 0.32121215 49.74668548 -0.12025452 41.84857178 C-0.11803391 41.07579895 -0.11581329 40.30302612 -0.11352539 39.50683594 C-0.11341209 38.18591949 -0.11341209 38.18591949 -0.11329651 36.83831787 C-0.10813522 35.89651672 -0.10297394 34.95471558 -0.09765625 33.984375 C-0.0962413 33.01340881 -0.09482635 32.04244263 -0.09336853 31.04205322 C-0.08777663 27.94467065 -0.07522559 24.84736068 -0.0625 21.75 C-0.05748395 19.64843854 -0.05292123 17.54687596 -0.04882812 15.4453125 C-0.03780985 10.29684708 -0.02055074 5.14843584 0 0 Z " fill="#EED4F1" transform="translate(113,132)"/>
<path d="M0 0 C2.36187412 3.69042832 2.47610153 6.68813705 2 11 C0.4526168 13.48540192 -1.52710212 15.4101689 -3.625 17.4375 C-4.73421031 18.57314325 -5.84100426 19.71115187 -6.9453125 20.8515625 C-7.74243652 21.66415527 -7.74243652 21.66415527 -8.55566406 22.49316406 C-14.44980378 28.64235783 -19.92057611 36.36460891 -21 45 C-21.66 44.67 -22.32 44.34 -23 44 C-24.07225495 28.60122759 -17.62541331 18.373847 -7.8125 7.0625 C-5.39110163 4.34520774 -2.97308653 2.10291486 0 0 Z " fill="#EED4F1" transform="translate(213,35)"/>
<path d="M0 0 C2.16015625 0.47265625 2.16015625 0.47265625 5.22265625 2.41015625 C7.82325194 6.52077524 8.2164708 9.73212265 7.16015625 14.47265625 C4.64181152 18.13570313 2.95731814 19.22626076 -1.27734375 20.53515625 C-5.72054309 20.45720538 -7.50129846 19.34535801 -10.83984375 16.47265625 C-12.94841828 13.8140188 -12.84007989 12.48564418 -12.77734375 9.03515625 C-10.91516333 1.95887064 -7.04575111 -0.45873839 0 0 Z " fill="#EED4F1" transform="translate(184.83984375,38.52734375)"/>
</svg>
