<?xml version="1.0" encoding="UTF-8" standalone="no"?><!--Created with Inkscape (http://www.inkscape.org/)--><svg version="1.1" width="394.66666" height="100.756" viewBox="0 0 394.66666 100.756" sodipodi:docname="payot_logo.svg" inkscape:version="1.3 (0e150ed6c4, 2023-07-21)" xmlns:inkscape="http://www.inkscape.org/namespaces/inkscape" xmlns:sodipodi="http://sodipodi.sourceforge.net/DTD/sodipodi-0.dtd" xmlns:xlink="http://www.w3.org/1999/xlink" xmlns="http://www.w3.org/2000/svg" xmlns:svg="http://www.w3.org/2000/svg"><defs><clipPath clipPathUnits="userSpaceOnUse" id="a"><path d="M 0.014999,75.567 H 296 V 0 H 0.014999 Z" transform="translate(-41.463001,-57.566002)"/></clipPath><clipPath clipPathUnits="userSpaceOnUse" id="b"><path d="M 0.014999,75.567 H 296 V 0 H 0.014999 Z" transform="translate(-148,-19.850001)"/></clipPath></defs><sodipodi:namedview pagecolor="#ffffff" bordercolor="#000000" borderopacity="0.25" inkscape:showpageshadow="2" inkscape:pageopacity="0.0" inkscape:pagecheckerboard="0" inkscape:deskcolor="#d1d1d1" inkscape:zoom="3.2863177" inkscape:cx="197.33333" inkscape:cy="50.360317" inkscape:window-width="2160" inkscape:window-height="1346" inkscape:window-x="-11" inkscape:window-y="-11" inkscape:window-maximized="1" inkscape:current-layer="g1"><inkscape:page x="0" y="0" inkscape:label="Page 1" width="394.66666" height="100.756" margin="0" bleed="0"/></sodipodi:namedview><g inkscape:groupmode="layer" inkscape:label="Page 1"><g><path d="m 0,0 c 0,-9.345 3.419,-18.631 15.119,-18.631 11.442,0 14.347,9.94 14.347,18.81 0,8.928 -3.419,18.75 -14.734,18.75 C 3.611,18.929 0,8.81 0,0 Z m -8.603,0 c 0,11.846 11.186,20.536 23.593,20.536 12.278,0 23.079,-8.333 23.079,-20.119 0,-12.203 -10.35,-20.655 -23.337,-20.655 -12.535,0 -23.335,8.274 -23.335,20.238" style="fill:#eed4f1;fill-opacity:1;fill-rule:nonzero;stroke:none" transform="matrix(1.3333333,0,0,-1.3333333,244.032,27.381333)"/><path d="m 0,0 c -0.5,-0.5 -1.25,-0.701 -1.25,-2.725 0,-1.548 4.036,-6.441 4.75,-7.75 l 6.5,-9.5 4.25,5.875 c 1.25,2.083 4.125,6.75 5,8.625 0.569,1.22 0.994,3.891 0.75,4.375 -0.079,0.155 -0.232,0.426 -0.385,0.594 -0.327,0.355 -0.703,0.578 -0.703,0.578 L 28.125,0.025 26,-2.725 c -1.875,-2.125 -9,-11.375 -10.875,-14 l -4.008,-6.188 V -33.1 c 0.004,-1.559 0.013,-2.325 0.28,-3.159 0.333,-1.038 1.608,-1.935 1.608,-1.935 0,0 -3.203,-0.016 -5.312,0.016 -2.109,0.031 -5.469,0 -5.469,0 0,0 0.86,0.578 1.365,1.615 0.222,0.456 0.29,1.286 0.264,3.338 v 10.059 l -6.103,9.441 c -0.655,1.19 -3.854,5.14 -5.625,7.5 -4.125,5.5 -5,6.25 -5,6.25 L 0,0" style="fill:#eed4f1;fill-opacity:1;fill-rule:nonzero;stroke:none" transform="matrix(1.3333333,0,0,-1.3333333,181.11067,1.2)"/><path d="m 0,0 c 0,0 0,-0.969 0.006,-1.33 0.006,-0.361 0.033,-0.756 0.119,-0.889 0.172,-0.265 1.521,-0.427 2.215,-0.427 6.131,0 17.242,0.313 17.242,9.534 0,8.779 -10.816,9.012 -16.587,8.83 C 0.89,15.652 0.067,15.709 -0.024,15.53 -0.116,15.351 0.021,14.463 0.021,12.637 Z m 0.021,-10.935 c 0,-1.904 -0.03,-5.219 0.565,-6.826 0.247,-0.687 0.542,-1.306 0.958,-1.839 0.635,-0.812 1.416,-1.341 1.416,-1.341 l -13.476,0.004 c 0,0 0.625,0.39 1.172,0.828 0.547,0.437 0.854,0.871 0.991,1.08 0.294,0.449 0.554,1.092 0.622,1.278 0.123,0.334 0.2,0.826 0.271,1.277 0.268,1.698 0.217,4.035 0.217,5.539 V 5.792 c 0,2.666 -0.288,6.817 -0.491,8.005 -0.125,0.86 -0.241,1.208 -0.384,1.589 -0.222,0.595 -0.582,0.88 -0.991,1.052 -0.672,0.281 -0.813,0.234 -1,0.328 -0.188,0.093 -0.021,0.109 -0.021,0.109 3.035,-0.06 3.303,0.107 6.28,0.048 2.857,0.059 5.865,-0.002 8.722,0.058 C 11.3,16.743 26.995,19.334 26.995,7.067 26.995,-4.433 9.96,-3.911 2.876,-3.911 2.504,-3.91 1.521,-3.956 0.844,-4.078 0.423,-4.154 0.149,-4.285 0.125,-4.375 0.063,-4.609 0.026,-5.562 0.016,-5.562 l 0.005,-5.373" style="fill:#eed4f1;fill-opacity:1;fill-rule:nonzero;stroke:none" transform="matrix(1.3333333,0,0,-1.3333333,55.284,24.001333)" clip-path="url(#a)"/><path d="M 0,0 -6.428,12.247 -11.738,0 Z m -14.272,-6.581 c -0.826,-2.091 -3.392,-7.305 -3.859,-8.716 -0.027,-0.081 -0.29,-0.716 -0.319,-1.387 -0.012,-0.282 0.062,-0.633 0.139,-0.852 0.26,-0.74 1.94,-1.684 1.94,-1.684 0,0 -2.632,-0.039 -5.05,-0.032 -2.059,0.006 -3.971,0.015 -3.971,0.015 0,0 0.638,0.559 1.298,1.171 0.618,0.574 1.125,1.348 1.365,1.669 0.692,0.924 1.424,2.176 1.801,2.894 1.938,3.679 4.459,7.565 6.125,11.375 l 9.518,21.113 h 2.024 L 11.322,-8.503 c 0.714,-1.548 2.57,-5.077 2.876,-5.576 0.307,-0.498 0.656,-1.159 1.974,-2.625 1.318,-1.466 2.542,-2.501 2.542,-2.501 H 7.188 c 0,0 0.996,0.862 1.134,1.827 0.125,0.875 0,1.625 -2.375,5.75 L 0.649,-2.03 h -13.002 l -1.919,-4.551" style="fill:#eed4f1;fill-opacity:1;fill-rule:nonzero;stroke:none" transform="matrix(1.3333333,0,0,-1.3333333,133.01467,26.329333)"/><path d="m 0,0 c -0.497,0.299 -0.971,0.53 -1.062,0.578 -0.339,0.178 -1.81,0.76 -2.28,0.905 -3.863,1.198 -9.499,0.778 -9.844,-0.017 v -25.899 c 0,-3.145 10e-4,-4.567 10e-4,-5.642 0,0 -0.034,-1.863 0.498,-2.863 0.541,-1.02 2,-1.906 2,-1.906 h -0.985 l -9.437,-0.015 -1.016,0.015 c 0,0 1.463,0.963 1.903,2.028 0.441,1.065 0.378,2.816 0.378,2.816 l -0.013,31.466 c -0.591,0.962 -8.679,0.969 -11.859,-0.629 -0.392,-0.197 -1.862,-1.134 -1.862,-1.134 l -2.193,-1.656 c 0.099,0.391 0.375,1.125 1.693,5.282 H 0.752 C 1.481,0.877 1.904,-0.33 2.031,-0.906 2.074,-1.102 2.151,-1.269 2.104,-1.328 2.104,-1.328 0.932,-0.562 0,0" style="fill:#eed4f1;fill-opacity:1;fill-rule:nonzero;stroke:none" transform="matrix(1.3333333,0,0,-1.3333333,357.63867,5.7293333)"/><path d="M 0,0 V -7.833 H 2.785 V -9.6182 H -2.66 V 0 H 0" style="fill:#eed4f1;fill-opacity:1;fill-rule:nonzero;stroke:none" transform="matrix(1.3333333,0,0,-1.3333333,87.930667,87.931733)"/><path d="m 85.482,0 h 2.6597 V 9.6182 H 85.482 Z" style="fill:#eed4f1;fill-opacity:1;fill-rule:nonzero;stroke:none" transform="matrix(1.3333333,0,0,-1.3333333,0,100.756)"/><path d="m 0,0 0.464,-0.0127 c 1.214,0 1.979,0.0937 1.979,1.3769 0,1.0918 -0.747,1.25 -2.086,1.1992 H 0 Z M -2.66,-5.4854 V 4.1328 L 0.006,4.206 c 3.156,0.125 4.743,-0.5 4.743,-2.8291 0,-1.0586 -0.873,-2.248 -2.194,-2.7705 L 5.177,-5.4854 H 2.374 L 0.036,-1.6133 H 0 v -3.8721 h -2.66" style="fill:#eed4f1;fill-opacity:1;fill-rule:nonzero;stroke:none" transform="matrix(1.3333333,0,0,-1.3333333,176.42267,93.442133)"/><path d="m 0,0 0.464,-0.0127 c 1.214,0 1.979,0.0937 1.979,1.3769 0,1.0918 -0.748,1.25 -2.087,1.1992 H 0 Z m -2.66,-5.4854 v 9.6182 l 2.666,0.0576 c 3.14,0.125 4.743,-0.4844 4.743,-2.8135 0,-1.0586 -0.872,-2.248 -2.193,-2.7705 L 5.177,-5.4854 H 2.375 l -2.34,3.8721 H 0 v -3.8721 h -2.66" style="fill:#eed4f1;fill-opacity:1;fill-rule:nonzero;stroke:none" transform="matrix(1.3333333,0,0,-1.3333333,268.08933,93.442133)"/><path d="M 0,0 -0.304,0.8867 H -0.339 L -0.625,0 -1.48,-2.5645 H 0.962 Z M 1.179,3.9287 4.977,-5.6895 H 2.138 l -0.784,1.6191 h -3.262 l -0.766,-1.6191 h -2.641 l 3.69,9.6182 h 2.804" style="fill:#eed4f1;fill-opacity:1;fill-rule:nonzero;stroke:none" transform="matrix(1.3333333,0,0,-1.3333333,210.752,93.17)"/><path d="m 179.082,0 h 2.659 v 9.6182 h -2.659 z" style="fill:#eed4f1;fill-opacity:1;fill-rule:nonzero;stroke:none" transform="matrix(1.3333333,0,0,-1.3333333,0,100.756)"/><path d="m 0,0 v -1.7862 h -2.696 v -2.3759 h 2.374 V -5.3809 H -2.696 V -7.833 H 0.036 V -9.6182 H -5.356 V 0 H 0" style="fill:#eed4f1;fill-opacity:1;fill-rule:nonzero;stroke:none" transform="matrix(1.3333333,0,0,-1.3333333,305.55467,87.931733)"/><path d="m 0,0 c -9.333,0 148,1.984 148,1.984 v 0.932 c 0,0 -139,2.268 -148,2.268 -9,0 -148,-2.268 -148,-2.268 V 1.984 C -148,1.984 9.333,0 0,0" style="fill:#eed4f1;fill-opacity:1;fill-rule:nonzero;stroke:none" transform="matrix(1.3333333,0,0,-1.3333333,197.33333,74.289333)" clip-path="url(#b)"/><path d="m 0,0 c -0.305,0.2422 -0.864,0.2852 -1.655,0.2383 l 0.009,-2.0234 c 0.659,0 1.21,-0.0235 1.565,0.2304 0.202,0.1446 0.388,0.4991 0.388,0.7784 C 0.307,-0.456 0.233,-0.1836 0,0 Z m 0.18,-3.4668 c -0.483,0.2656 -1.211,0.2119 -1.879,0.1953 l 0.015,-2.7939 c 0.709,-0.0254 1.509,-0.083 1.983,0.2178 0.313,0.1982 0.532,0.5224 0.532,1.2519 0,0.5459 -0.297,0.9336 -0.651,1.1289 z m -0.655,-4.3506 c -0.688,-0.0312 -0.759,-0.0078 -2.33,-0.0117 l -1.522,-0.0029 0.005,9.542 3.457,0.0254 c 0,0 1.558,0.0293 2.286,-0.3252 0.975,-0.4766 1.192,-1.416 1.192,-1.877 0,-0.6094 -0.272,-1.3886 -1.371,-1.9219 0.609,-0.2109 1.154,-0.6093 1.459,-1.1982 0.304,-0.5898 0.324,-1.2598 0.324,-1.7148 0,-0.7207 -0.366,-1.837 -1.604,-2.2647 -0.314,-0.1084 -1.06,-0.2129 -1.896,-0.251" style="fill:#eed4f1;fill-opacity:1;fill-rule:nonzero;stroke:none" transform="matrix(1.3333333,0,0,-1.3333333,146.52267,90.223467)"/></g></g></svg>