<?xml version="1.0" encoding="UTF-8"?>
<svg version="1.1" xmlns="http://www.w3.org/2000/svg" width="919" height="733">
<path d="M0 0 C4.63235294 2.26470588 4.63235294 2.26470588 6 5 C7.02337314 11.36858787 5.72668257 15.39630227 2.03857422 20.58081055 C1.46896973 21.33789307 0.89936523 22.09497559 0.3125 22.875 C-0.8872929 24.54516062 -2.08649497 26.21574579 -3.28515625 27.88671875 C-4.21158936 29.15588135 -4.21158936 29.15588135 -5.15673828 30.45068359 C-8.06432216 34.47200688 -10.83965124 38.58105214 -13.625 42.6875 C-14.71011982 44.2752987 -15.79604774 45.86254547 -16.8828125 47.44921875 C-17.40649414 48.21411621 -17.93017578 48.97901367 -18.46972656 49.76708984 C-21.25345867 53.82899378 -24.04498824 57.88552822 -26.83642578 61.94213867 C-30.3996558 67.12215052 -33.95120264 72.31009212 -37.5 77.5 C-41.93577763 83.98706446 -46.38103266 90.46746559 -50.8359375 96.94140625 C-54.39930599 102.12167894 -57.95103702 107.30984992 -61.5 112.5 C-65.93577763 118.98706446 -70.38103266 125.46746559 -74.8359375 131.94140625 C-78.39930599 137.12167894 -81.95103702 142.30984992 -85.5 147.5 C-89.93577763 153.98706446 -94.38103266 160.46746559 -98.8359375 166.94140625 C-102.39930599 172.12167894 -105.95103702 177.30984992 -109.5 182.5 C-113.93577763 188.98706446 -118.38103266 195.46746559 -122.8359375 201.94140625 C-126.39930599 207.12167894 -129.95103702 212.30984992 -133.5 217.5 C-137.93577763 223.98706446 -142.38103266 230.46746559 -146.8359375 236.94140625 C-150.39930599 242.12167894 -153.95103702 247.30984992 -157.5 252.5 C-161.93577763 258.98706446 -166.38103266 265.46746559 -170.8359375 271.94140625 C-174.39930599 277.12167894 -177.95103702 282.30984992 -181.5 287.5 C-185.93577763 293.98706446 -190.38103266 300.46746559 -194.8359375 306.94140625 C-198.39930599 312.12167894 -201.95103702 317.30984992 -205.5 322.5 C-209.93577763 328.98706446 -214.38103266 335.46746559 -218.8359375 341.94140625 C-222.39930599 347.12167894 -225.95103702 352.30984992 -229.5 357.5 C-233.49237051 363.33860758 -237.49044464 369.17317996 -241.5 375 C-247.68423648 383.9879823 -253.8420072 392.99402577 -260 402 C-273.94564748 422.39530508 -273.94564748 422.39530508 -279.82104492 430.91577148 C-282.37642754 434.6246869 -284.91280504 438.34559365 -287.43359375 442.078125 C-288.01625 442.93792969 -288.59890625 443.79773438 -289.19921875 444.68359375 C-290.33172925 446.35563734 -291.46081277 448.03000885 -292.5859375 449.70703125 C-293.10285156 450.46886719 -293.61976563 451.23070312 -294.15234375 452.015625 C-294.60601318 452.68883789 -295.05968262 453.36205078 -295.52709961 454.05566406 C-297.18191521 456.24014135 -299.04915835 458.07928555 -301 460 C-300.3982694 448.04735233 -298.99827479 436.26664045 -297.43969727 424.40625 C-297.17640302 422.3760621 -296.91350539 420.34582273 -296.65097046 418.3155365 C-295.94250535 412.84654213 -295.22815383 407.37833228 -294.5123837 401.91028976 C-293.91405009 397.33496652 -293.31870469 392.75925648 -292.72336239 388.18354321 C-291.31936589 377.39280782 -289.91064712 366.6026964 -288.4987793 355.81298828 C-287.04363264 344.69200266 -285.59580245 333.57008211 -284.15164715 322.44766426 C-282.90880548 312.87739352 -281.6618092 303.30767064 -280.41139644 293.73838615 C-279.66571533 288.03161308 -278.92152241 282.32465647 -278.18118477 276.6171875 C-277.48585005 271.25830575 -276.78530937 265.90012979 -276.08076096 260.54245186 C-275.82334008 258.57830284 -275.56773424 256.61391496 -275.31408882 254.64927483 C-274.96727346 251.96529594 -274.61386523 249.28226395 -274.25880432 246.59936523 C-274.16025652 245.82456062 -274.06170872 245.04975601 -273.96017462 244.25147247 C-272.49917171 233.36711323 -272.49917171 233.36711323 -269.8125 229.125 C-266.89601993 227.31477099 -264.39828461 227.11718223 -261 227 C-254.85030045 229.09989741 -251.6684945 235.877457 -248.75390625 241.33203125 C-246.62384184 245.20805009 -245.78028522 246.70739304 -241.5 248.3125 C-236.89232519 247.90110046 -236.04961195 246.40677371 -233 243 C-231.21726967 240.78061885 -229.53758462 238.49784486 -227.875 236.1875 C-227.39909424 235.53225342 -226.92318848 234.87700684 -226.43286133 234.2019043 C-222.16464249 228.29438601 -218.03868915 222.29221636 -213.9296875 216.2734375 C-210.75982002 211.63623858 -207.53841406 207.03581665 -204.3125 202.4375 C-199.19216655 195.136166 -194.08932165 187.8229854 -189 180.5 C-180.41625518 168.15152714 -171.79164585 155.83192036 -163.15625 143.51953125 C-162.52348145 142.61678467 -161.89071289 141.71403809 -161.23876953 140.78393555 C-160.03201282 139.06232337 -158.82469254 137.34110604 -157.61669922 135.62036133 C-156.54662043 134.0935031 -155.47936168 132.56466285 -154.41552734 131.03344727 C-153.52875893 129.75957798 -152.63439789 128.49092399 -151.72900391 127.23022461 C-148.97045641 123.30713329 -148.45491637 120.81490541 -149 116 C-150.67027074 112.81636051 -150.67027074 112.81636051 -153.50843811 112.20669556 C-158.17150548 111.93064852 -162.30735517 112.75758206 -166.86499023 113.69287109 C-167.854352 113.88715195 -168.84371376 114.0814328 -169.86305618 114.28160095 C-173.18028879 114.93560982 -176.49432614 115.60457807 -179.80859375 116.2734375 C-182.18965959 116.74593941 -184.57091573 117.21748323 -186.9523468 117.68814087 C-192.08716601 118.70499854 -197.22068919 119.72814667 -202.35314941 120.75683594 C-209.79184457 122.24760261 -217.23303508 123.72558515 -224.67498803 125.19999266 C-236.0920573 127.46206543 -247.50787797 129.73035754 -258.92267776 132.00385332 C-284.94354209 137.18640918 -310.96946111 142.34335067 -336.99927044 147.48078728 C-344.77271971 149.01524519 -352.54527398 150.55409741 -360.31668419 152.09885013 C-366.27955264 153.28385774 -372.24352966 154.46318323 -378.20793724 155.64042282 C-380.6590285 156.12522246 -383.10973334 156.61198043 -385.56002235 157.10081863 C-388.90456283 157.76776973 -392.25041214 158.42771514 -395.59667969 159.0859375 C-396.57125342 159.28205313 -397.54582716 159.47816875 -398.54993343 159.68022728 C-403.10414504 160.56863097 -407.33256903 161.23762084 -412 161 C-409.58259716 158.58259716 -407.5582889 157.92004719 -404.359375 156.70703125 C-403.16368896 156.24965576 -401.96800293 155.79228027 -400.73608398 155.32104492 C-399.76649246 154.95419083 -399.76649246 154.95419083 -398.77731323 154.57992554 C-395.24948112 153.24448886 -391.72881462 151.89035148 -388.20703125 150.5390625 C-387.45958145 150.25280502 -386.71213165 149.96654755 -385.94203186 149.6716156 C-377.4172074 146.40262988 -368.92697247 143.04698554 -360.4375 139.6875 C-358.81658844 139.04666309 -357.19565728 138.40587576 -355.57470703 137.76513672 C-352.31084822 136.47475595 -349.04718899 135.1838722 -345.78369141 133.89257812 C-338.23195666 130.90460924 -330.67875554 127.92035604 -323.125 124.9375 C-321.99134003 124.4897673 -321.99134003 124.4897673 -320.83477783 124.0329895 C-305.66840379 118.04400311 -290.49054727 112.08432701 -275.3125 106.125 C-258.326152 99.45559936 -241.34399485 92.77594068 -224.375 86.0625 C-223.49924316 85.71603424 -222.62348633 85.36956848 -221.72119141 85.01260376 C-217.4378803 83.31792009 -213.15470619 81.62289046 -208.87158203 79.92773438 C-201.18639492 76.88635192 -193.49994829 73.84816234 -185.8125 70.8125 C-185.06332306 70.51665009 -184.31414612 70.22080017 -183.54226685 69.91598511 C-167.25524983 63.48565179 -150.95512333 57.08871134 -134.65591431 50.68936157 C-118.42385622 44.31590586 -102.1993486 37.92390924 -85.98544312 31.50442505 C-67.05830197 24.01167297 -48.11069531 16.571115 -29.16210938 9.1328125 C-27.99171112 8.67333725 -26.82131287 8.213862 -25.615448 7.74046326 C-23.41265565 6.87575712 -21.20979871 6.0112155 -19.00686646 5.14686584 C-18.02314056 4.76074631 -17.03941467 4.37462677 -16.02587891 3.97680664 C-14.74482773 3.47414024 -14.74482773 3.47414024 -13.43789673 2.96131897 C-11.74184349 2.29252602 -10.0541035 1.60242103 -8.37338257 0.89598083 C-5.36647586 -0.23916308 -3.19438391 -0.33274832 0 0 Z " fill="#eed4f1" transform="translate(662,42)"/>
<path d="M0 0 C12.54 0 25.08 0 38 0 C38 63.36 38 126.72 38 192 C34.64264863 193.11911712 32.11794614 193.11365586 28.58203125 193.09765625 C27.32841797 193.09443359 26.07480469 193.09121094 24.78320312 193.08789062 C23.47287109 193.07951172 22.16253906 193.07113281 20.8125 193.0625 C19.47721519 193.05748317 18.14192859 193.05292059 16.80664062 193.04882812 C13.53771527 193.03702695 10.26888009 193.02056297 7 193 C5.25933698 188.87134555 4.45783058 185.14199089 3.875 180.6875 C3.70742188 179.43324219 3.53984375 178.17898438 3.3671875 176.88671875 C3.18542969 175.45779297 3.18542969 175.45779297 3 174 C2.34 174 1.68 174 1 174 C-0.30477219 175.59393864 -0.30477219 175.59393864 -1.625 177.625 C-8.00789547 186.32476378 -17.3512857 191.33859894 -27.859375 193.62109375 C-44.29827581 195.60439397 -59.04411084 193.38975568 -73 184 C-88.26561209 171.45968477 -94.49210948 155.64723752 -96.6875 136.41796875 C-98.60735025 115.41960666 -93.5494836 95.249196 -79.9375 78.875 C-71.07315128 69.3828222 -58.66039484 62.70733493 -45.5715332 61.83886719 C-42.81840074 61.79300387 -40.06598189 61.76475409 -37.3125 61.75 C-36.36955078 61.729375 -35.42660156 61.70875 -34.45507812 61.6875 C-26.18753592 61.64204272 -18.5581371 63.17010237 -11.3125 67.3125 C-10.64863281 67.67988281 -9.98476563 68.04726563 -9.30078125 68.42578125 C-6.00100459 70.68352318 -3.03569026 73.39797978 0 76 C0 50.92 0 25.84 0 0 Z M-48.3984375 100.98828125 C-57.24137281 112.09587072 -58.13696436 124.40663127 -57 138 C-56.14455699 141.70100991 -54.9063853 144.7281415 -53 148 C-52.401875 149.093125 -51.80375 150.18625 -51.1875 151.3125 C-46.29704984 157.32076734 -40.50280357 160.43306105 -32.7734375 161.40625 C-23.89296709 161.65122849 -17.2953889 160.23002766 -10 155 C-2.58980595 147.73654247 0.11230267 138.54165274 0.25 128.375 C0.12344725 117.36491046 -2.02576569 108.91056777 -10 101 C-16.10795092 96.09203944 -22.89135814 93.49242362 -30.828125 93.75390625 C-37.44349322 94.50348934 -43.48624563 96.36709601 -48.3984375 100.98828125 Z " fill="#eed4f1" transform="translate(724,539)"/>
<path d="M0 0 C1.22396484 0.00829834 2.44792969 0.01659668 3.70898438 0.02514648 C19.68081458 0.32244937 33.71913756 3.61296999 46 14.5625 C61.74518032 31.9245448 59.63005486 55.58490879 59.69873047 77.37597656 C59.71432581 80.80033622 59.74724641 84.22421948 59.78125 87.6484375 C59.77822876 88.7034848 59.77520752 89.7585321 59.77209473 90.84555054 C59.78220581 91.81481476 59.79231689 92.78407898 59.80273438 93.78271484 C59.80478882 94.63602386 59.80684326 95.48933289 59.80895996 96.36849976 C59.93387817 97.05126984 60.05879639 97.73403992 60.1875 98.4375 C63.8316774 100.8669516 65.89991272 100.59929575 70.1875 100.4375 C71.01853 104.11946566 71.36857734 107.62465455 71.50390625 111.39453125 C71.56674805 113.06225586 71.56674805 113.06225586 71.63085938 114.76367188 C71.67017578 115.91416016 71.70949219 117.06464844 71.75 118.25 C71.79318359 119.41982422 71.83636719 120.58964844 71.88085938 121.79492188 C71.98668279 124.67567031 72.08876825 127.55650123 72.1875 130.4375 C65.97670076 131.84006803 60.0600395 132.80152393 53.6875 132.75 C52.9548291 132.74508545 52.2221582 132.7401709 51.46728516 132.73510742 C42.89733516 132.55045104 34.34553674 130.86123883 28.1875 124.4375 C26.27220095 121.54510676 24.66931198 118.57183963 23.1875 115.4375 C22.40375 116.46875 21.62 117.5 20.8125 118.5625 C13.57113055 126.97952708 2.96858738 130.99747296 -7.8125 132.4375 C-22.87162781 133.35734512 -39.04657107 132.81795112 -51.0703125 122.5 C-58.31766684 115.01195861 -60.97720986 107.26862737 -61.3125 96.9375 C-60.98869715 86.96032458 -58.49575114 78.83827012 -51.44921875 71.5703125 C-31.64422388 55.5502722 -3.06119949 54.91602259 21.1875 55.4375 C20.87682987 46.98727254 19.96571953 40.21571953 13.8125 34.0625 C6.54722605 29.56494946 -2.0077112 29.25057833 -10.2578125 30.9375 C-14.80707502 32.4596867 -17.98679481 34.58426565 -20.8125 38.4375 C-21.7669584 42.07726302 -21.8125 45.68381362 -21.8125 49.4375 C-25.84893771 50.17961847 -29.88736534 50.90961477 -33.92797852 51.62866211 C-35.30096773 51.87472274 -36.67337885 52.1240329 -38.04516602 52.37670898 C-40.02203133 52.7402457 -42.00123929 53.09096911 -43.98046875 53.44140625 C-45.16922607 53.65611572 -46.3579834 53.8708252 -47.58276367 54.09204102 C-50.65756376 54.42092771 -52.84964735 54.24110966 -55.8125 53.4375 C-58.24416987 42.19102687 -57.19160806 30.85426783 -51.26953125 20.82421875 C-39.20464907 4.39720526 -19.44263411 -0.17099824 0 0 Z M-20.9375 84.0625 C-24.03520616 87.98626114 -24.3144312 90.41818798 -23.8125 95.4375 C-20.71361268 100.26811847 -18.27168727 101.99532628 -12.8125 103.4375 C-2.15242235 104.53542417 7.74353696 103.33368609 16.25 96.4375 C19.77624835 93.26473865 21.11150388 90.78111132 21.3828125 85.984375 C21.35960937 84.73140625 21.33640625 83.4784375 21.3125 82.1875 C21.29445312 80.92421875 21.27640625 79.6609375 21.2578125 78.359375 C21.23460937 77.39515625 21.21140625 76.4309375 21.1875 75.4375 C8.32370393 74.9989615 -10.9477134 74.4689089 -20.9375 84.0625 Z " fill="#eed4f1" transform="translate(179.8125,600.5625)"/>
<path d="M0 0 C12.73195368 9.56705042 21.13042544 22.6015783 25 38 C25.3740027 42.79572033 25.37163514 47.58719649 25.37060547 52.39526367 C25.37495624 54.66467657 25.41127366 56.93210483 25.44921875 59.20117188 C25.57987508 76.05364716 20.1239823 90.28486235 8.51025391 102.71508789 C-3.91999174 115.28766459 -21.18200814 120.95062848 -38.609375 121.24145508 C-59.0804806 121.3146259 -77.32610347 116.13954585 -92.6875 101.9375 C-105.41505934 88.48004479 -110.42191069 70.628141 -110.21484375 52.40625 C-109.02990464 33.61957904 -102.34993476 17.34103 -88.640625 4.16796875 C-64.27015872 -15.84032827 -26.1211825 -17.17603797 0 0 Z M-63.125 30.0625 C-69.51915748 37.96708838 -71.27403071 48.05496894 -71 58 C-69.89560735 67.84396138 -67.43631668 75.97601872 -60.04296875 82.80859375 C-52.34531166 88.94611384 -44.66867318 89.9390438 -35 89 C-27.34655062 86.89927576 -21.30409149 82.54645711 -17.25 75.6875 C-11.78425261 64.93175273 -11.11034764 52.03977526 -14.625 40.5 C-17.92785436 31.98879837 -22.6172385 25.88469435 -31 22 C-42.88429751 17.80424986 -54.44848502 21.01906772 -63.125 30.0625 Z " fill="#eed4f1" transform="translate(894,612)"/>
<path d="M0 0 C2.39938779 6.4347218 3.67192023 12.5661323 4.5703125 19.375 C4.72459909 21.91913017 4.72459909 21.91913017 6 23 C6.61875 22.03900391 6.61875 22.03900391 7.25 21.05859375 C14.10221388 10.79556805 21.84478596 3.73400616 33.90551758 0.40795898 C38.17339834 -0.42333006 42.47941372 -0.32726853 46.8125 -0.3125 C48.21338867 -0.33666992 48.21338867 -0.33666992 49.64257812 -0.36132812 C61.96579942 -0.36987998 72.4375751 3.82372709 81.6875 12 C94.94550199 26.22962861 95.449677 45.09311845 95.29296875 63.30078125 C95.28736138 65.23275928 95.28309669 67.16474162 95.28010559 69.09672546 C95.26874659 74.1387852 95.23935821 79.18057846 95.20599365 84.22253418 C95.16964938 90.29502609 95.15608895 96.36760797 95.13863373 102.44017792 C95.10971413 111.62696961 95.05216492 120.81317865 95 130 C82.13 130 69.26 130 56 130 C55.97421875 124.32941406 55.9484375 118.65882813 55.921875 112.81640625 C55.89669126 109.21154411 55.87034665 105.60676461 55.83984375 102.00195312 C55.79159961 96.28751372 55.74752085 90.57326572 55.72900391 84.85864258 C55.71379529 80.24833789 55.67927558 75.63853591 55.63169098 71.02845573 C55.61692041 69.2747632 55.60896148 67.52099887 55.60811615 65.76724434 C55.63828808 52.87371623 55.63828808 52.87371623 51 41 C50.67 40.01 50.34 39.02 50 38 C48.26857146 36.84077872 48.26857146 36.84077872 46 36 C45.13375 35.62875 44.2675 35.2575 43.375 34.875 C35.04422081 32.71516836 27.46960548 33.644884 20 38 C13.01384157 43.65189212 10.22269351 52.37830439 9 61 C8.88934005 63.33676152 8.82466732 65.67594868 8.79467773 68.01513672 C8.78477814 68.68900925 8.77487854 69.36288177 8.76467896 70.05717468 C8.73331816 72.26464432 8.70840816 74.47213541 8.68359375 76.6796875 C8.66300221 78.21811453 8.64200518 79.75653618 8.62062073 81.29495239 C8.56562715 85.32917912 8.51611845 89.36345497 8.46777344 93.39776611 C8.40852188 98.24623953 8.34241981 103.09462385 8.27747345 107.94302368 C8.17975002 115.29529436 8.0906986 122.64762419 8 130 C-4.54 130 -17.08 130 -30 130 C-30.02254688 113.32814247 -30.04097909 96.65629789 -30.05181217 79.98442936 C-30.05697517 72.24392718 -30.06401793 64.50343513 -30.07543945 56.76293945 C-30.08538619 50.01872849 -30.0918534 43.27452485 -30.09408849 36.53030676 C-30.09539562 32.95713134 -30.09848158 29.3839769 -30.10573006 25.81080818 C-30.11374372 21.82837649 -30.11399114 17.84596559 -30.11352539 13.86352539 C-30.11712067 12.67022614 -30.12071594 11.47692688 -30.12442017 10.24746704 C-30.1230455 9.16908066 -30.12167084 8.09069427 -30.12025452 6.97962952 C-30.12117631 6.03663529 -30.1220981 5.09364107 -30.12304783 4.12207127 C-30 2 -30 2 -29 1 C-26.20289211 0.75742426 -23.42773803 0.5739115 -20.625 0.4375 C-19.81240723 0.3950415 -18.99981445 0.35258301 -18.16259766 0.30883789 C-12.10568557 0.01002061 -6.06433877 -0.12021817 0 0 Z " fill="#eed4f1" transform="translate(511,601)"/>
<path d="M0 0 C1.03294189 -0.0103125 2.06588379 -0.020625 3.13012695 -0.03125 C18.84873889 0.14880569 31.62279436 5.1869875 43.02734375 16.03125 C57.16317704 30.91616163 59.68143788 48.75205175 59.45776367 68.39208984 C59.2892122 70.76540789 58.77911828 73.10440859 58.3125 75.4375 C29.9325 75.4375 1.5525 75.4375 -27.6875 75.4375 C-21.65926371 89.9052671 -18.59142321 94.66679093 -4.6875 100.4375 C5.72509135 103.44886201 18.7814353 102.51349048 28.3125 97.4375 C32.87618442 94.73178617 37.08076468 91.62786869 41.3125 88.4375 C48.01175257 94.74901448 55.54674455 101.92968214 59.3125 110.4375 C46.99835993 123.98993348 30.08027187 131.36517962 11.83544922 132.60595703 C-9.6854277 133.56431171 -29.54314781 129.70709257 -46.68359375 115.8203125 C-58.88411472 104.46214376 -65.1755536 87.63170768 -65.90625 71.2421875 C-66.49612258 50.39332006 -60.8968627 32.30236953 -46.625 16.8125 C-33.50942297 4.27391959 -17.74305329 0.14666927 0 0 Z M-22.2265625 40.32421875 C-25.45724931 45.13246315 -26.17235339 48.37691354 -27.6875 54.4375 C-10.5275 54.4375 6.6325 54.4375 24.3125 54.4375 C23.17128789 45.30780314 21.63066092 39.45171854 14.30078125 33.69140625 C1.97507052 25.91821736 -13.15027031 29.19769812 -22.2265625 40.32421875 Z " fill="#eed4f1" transform="translate(398.6875,600.5625)"/>
<path d="M0 0 C0 12.21 0 24.42 0 37 C14.85 37 29.7 37 45 37 C45 46.9 45 56.8 45 67 C30.15 67 15.3 67 0 67 C0.07424704 73.93825833 0.15730538 80.87528623 0.26245117 87.81298828 C0.29556457 90.16969275 0.32363813 92.52647394 0.34643555 94.88330078 C0.38023192 98.28451012 0.43256061 101.68502496 0.48828125 105.0859375 C0.49467117 106.12801361 0.5010611 107.17008972 0.50764465 108.2437439 C0.66274995 116.08186814 1.41020364 123.64026418 6.3125 130 C12.59011926 134.67171666 19.41268023 134.79326221 27 134 C29.97894374 133.16559371 32.76951685 132.15819166 35.625 130.97265625 C37.75295052 130.10117651 39.76976795 129.52903316 42 129 C43.45650002 132.76671848 44.8985025 136.5386362 46.32739258 140.31591797 C46.81531413 141.59964914 47.30714597 142.88190126 47.80297852 144.16259766 C48.51568528 146.00548437 49.21312185 147.85425361 49.91015625 149.703125 C50.33433838 150.81333008 50.75852051 151.92353516 51.19555664 153.06738281 C51.99368772 155.97698843 52.23385074 157.28003586 51 160 C36.20454512 169.29323056 14.19517387 170.36906221 -2.59008789 166.86865234 C-15.29196289 163.78728567 -24.3459107 157.70199682 -31.5 146.69140625 C-37.58234249 135.66716048 -38.45273008 123.28990139 -38.29296875 110.9453125 C-38.28872391 109.67775116 -38.28447906 108.41018982 -38.28010559 107.10421753 C-38.26630957 103.78663877 -38.23951419 100.46952593 -38.20599365 97.15209961 C-38.17491899 93.74598798 -38.16152167 90.33980724 -38.14648438 86.93359375 C-38.11365544 80.28886227 -38.06200026 73.64452071 -38 67 C-44.6 67 -51.2 67 -58 67 C-58.02291394 62.88822073 -58.04283951 58.77660342 -58.05493164 54.66479492 C-58.0599708 53.26504772 -58.06680216 51.8653058 -58.07543945 50.46557617 C-58.0875232 48.45754223 -58.09269807 46.44947043 -58.09765625 44.44140625 C-58.10289307 43.23170166 -58.10812988 42.02199707 -58.11352539 40.77563477 C-58 38 -58 38 -57 37 C-55.5112814 36.91330568 -54.018555 36.89296506 -52.52734375 36.90234375 C-51.62822266 36.90556641 -50.72910156 36.90878906 -49.80273438 36.91210938 C-48.38444336 36.92467773 -48.38444336 36.92467773 -46.9375 36.9375 C-45.98810547 36.94201172 -45.03871094 36.94652344 -44.06054688 36.95117188 C-41.70696935 36.9629989 -39.35351523 36.97947975 -37 37 C-37.00785522 35.41747437 -37.00785522 35.41747437 -37.01586914 33.80297852 C-37.03391901 29.9024337 -37.04543195 26.0018926 -37.05493164 22.10131836 C-37.0599719 20.41055684 -37.06680405 18.71979971 -37.07543945 17.02905273 C-37.08751857 14.60399293 -37.09323123 12.17899056 -37.09765625 9.75390625 C-37.10281754 8.99348526 -37.10797882 8.23306427 -37.11329651 7.44960022 C-37.11349238 5.6326743 -37.06197277 3.81586873 -37 2 C-34.88873887 -0.11126113 -30.42027096 0.57732459 -27.5 0.4375 C-26.74074219 0.39431641 -25.98148438 0.35113281 -25.19921875 0.30664062 C-16.77850991 -0.12187687 -8.465373 0 0 0 Z " fill="#eed4f1" transform="translate(58,565)"/>
<path d="M0 0 C3.97131621 3.56634647 7.2605121 7.63968834 10.5625 11.8125 C11.08279785 12.46629639 11.6030957 13.12009277 12.13916016 13.79370117 C16.30774311 19.06056712 20.34923446 24.41666999 24.35766602 29.8059082 C28.17107405 34.92437388 32.06847057 39.9718374 36 45 C40.89637088 51.26449416 45.70975656 57.58198776 50.45874023 63.95874023 C53.67683031 68.26781665 56.95133588 72.52801015 60.26513672 76.76391602 C62.6195916 79.77494464 64.95817179 82.79817534 67.29833984 85.8203125 C68.95859288 87.94696087 70.64376545 90.05181639 72.33203125 92.15625 C73.34736343 93.45754649 74.36173768 94.75959115 75.375 96.0625 C75.84558838 96.63299072 76.31617676 97.20348145 76.80102539 97.79125977 C79.87945943 101.8196039 80.4917135 104.92256746 80.39453125 109.9699707 C79.82860491 112.88189988 78.37113159 114.61540111 75.94476795 116.27257824 C69.125386 118.82330251 59.09487089 115.12168612 52.2355957 113.6550293 C50.53851974 113.29868912 50.53851974 113.29868912 48.80715942 112.93515015 C45.09545221 112.15395261 41.38553347 111.36464445 37.67578125 110.57421875 C35.73952138 110.16365688 33.80326111 109.75309685 31.86695164 109.34276897 C25.79093741 108.05488485 19.71628164 106.76072677 13.64233398 105.46313477 C7.39381317 104.12841487 1.14262648 102.80674958 -5.10991925 101.49102658 C-10.49885558 100.35640948 -15.88576933 99.2125168 -21.27122813 98.06150752 C-24.47887617 97.37612351 -27.687419 96.6955988 -30.89761925 96.02225304 C-34.47553721 95.27056621 -38.0498954 94.50376013 -41.6237793 93.7331543 C-42.67693832 93.51533798 -43.73009735 93.29752167 -44.81517029 93.07310486 C-50.56374847 91.81493485 -55.12471744 90.34112408 -60 87 C-61.57244793 83.85510414 -61.30696235 81.48949155 -61 78 C-59.83545673 75.18761679 -58.22934639 72.72738678 -56.5625 70.1875 C-56.0780542 69.42252197 -55.5936084 68.65754395 -55.09448242 67.86938477 C-53.41547963 65.23339971 -51.71016346 62.61586897 -50 60 C-49.36255859 59.01966797 -48.72511719 58.03933594 -48.06835938 57.02929688 C-44.90430413 52.16551727 -41.7292573 47.30919533 -38.5401001 42.46183777 C-35.17840035 37.34983038 -31.84763056 32.22018615 -28.5625 27.05859375 C-28.20306808 26.4942009 -27.84363617 25.92980804 -27.47331238 25.34831238 C-25.76182015 22.65886626 -24.05472524 19.96674155 -22.3527832 17.27124023 C-9.75198583 -2.56631206 -9.75198583 -2.56631206 0 0 Z " fill="#eed4f1" transform="translate(590,229)"/>
<path d="M0 0 C12.54 0 25.08 0 38 0 C38 63.36 38 126.72 38 192 C25.46 192 12.92 192 0 192 C0 128.64 0 65.28 0 0 Z " fill="#eed4f1" transform="translate(272,539)"/>
<path d="M0 0 C2.61916043 1.99155442 4.40075244 4.40373933 6.3125 7.0625 C6.860271 7.77913818 7.40804199 8.49577637 7.97241211 9.23413086 C9.67391333 11.47143019 11.33824832 13.73307896 13 16 C14.02396562 17.36614186 15.0499422 18.73077924 16.078125 20.09375 C17.57288504 22.07848756 19.06447513 24.06516016 20.5456543 26.06005859 C23.97831593 30.68105802 27.51297561 35.20556094 31.125 39.6875 C35.62395965 45.27116614 40.06658884 50.88690873 44.3984375 56.6015625 C46.31852354 59.13306417 48.29372303 61.61337645 50.2890625 64.0859375 C51.40134159 65.49455489 52.51332488 66.90340591 53.625 68.3125 C54.15867187 68.95823975 54.69234375 69.60397949 55.2421875 70.26928711 C57.74913983 73.48915401 59.36744424 76.03155423 59.6484375 80.16796875 C58.85385153 84.86368465 57.57086513 85.95266066 54 89 C51.14349365 90.42301941 51.14349365 90.42301941 47.97558594 91.55541992 C46.18782745 92.20585518 46.18782745 92.20585518 44.36395264 92.86943054 C43.07092134 93.32356931 41.77772452 93.77723704 40.484375 94.23046875 C39.14505858 94.71069547 37.80613624 95.19202249 36.46759033 95.6743927 C33.66646901 96.68055387 30.86225056 97.67732037 28.05517578 98.66674805 C24.47867957 99.92757839 20.9085424 101.20532423 17.34035873 102.48946667 C14.57601862 103.48334489 11.80954731 104.47116822 9.04230499 105.45693398 C7.72636538 105.92584485 6.41081899 106.39586094 5.0956955 106.86705589 C-13.99989382 113.69094577 -13.99989382 113.69094577 -19.4375 111.8125 C-22 110 -22 110 -24 107 C-24.87187118 99.01212142 -23.77427286 90.84385192 -22.9206543 82.88793945 C-22.0880736 75.09953187 -21.40726735 67.30155453 -20.75186157 59.49673462 C-20.36982156 54.9639114 -19.97779846 50.43193676 -19.58811951 45.89976501 C-19.25910624 42.06243214 -18.93500142 38.22479045 -18.62060547 34.38623047 C-18.31744604 30.6856253 -18.00268181 26.98617489 -17.67990112 23.28723145 C-17.56115636 21.90129168 -17.4467468 20.51497279 -17.33694458 19.1282959 C-17.18395059 17.2030799 -17.01418839 15.27921888 -16.84375 13.35546875 C-16.75287109 12.26903076 -16.66199219 11.18259277 -16.56835938 10.06323242 C-15.78385856 5.83508303 -14.68542499 2.20633032 -11.0847168 -0.37084961 C-7.22033004 -1.53708976 -3.82462203 -1.23238741 0 0 Z " fill="#eed4f1" transform="translate(420,1)"/>
</svg>
