<?xml version="1.0" encoding="UTF-8"?>
<svg version="1.1" width="244px" height="46px" viewBox="0 0 244.0 46.0" xmlns="http://www.w3.org/2000/svg" xmlns:xlink="http://www.w3.org/1999/xlink"><defs><clipPath id="i0"><path d="M174.412326,31.6083288 L174.412326,39.6694516 C174.412326,42.3023512 175.533861,43.6997989 177.374898,43.6997989 C179.199299,43.6997989 180.320834,42.3834205 180.320834,39.7706456 L180.320834,31.6083288 L182.379523,31.6083288 L182.379523,39.6490415 C182.379523,43.8823478 180.405399,46.0085637 177.341626,46.0085637 C174.295875,46.0085637 172.353637,43.8823478 172.353637,39.7706456 L172.353637,31.6083288 L174.412326,31.6083288 Z M188.912715,31.5068493 C190.688337,31.5068493 192.09788,32.1311212 193.334474,33.2785276 L192.184355,35.150634 C191.089004,34.2045096 189.992212,33.7013757 188.878125,33.7013757 C187.625678,33.7013757 186.894963,34.4457926 186.894963,35.3719165 L186.894963,35.4122012 C186.894963,36.4993223 187.451286,36.982172 189.800526,37.6263025 C192.376042,38.3510026 193.699111,39.4179813 193.699111,41.7532206 L193.699111,41.7927961 C193.699111,44.4303129 191.906194,46 189.347973,46 C187.485876,46 185.728991,45.2555831 184.266121,43.7454721 L185.5546,41.9742194 C186.720572,43.1417681 187.903839,43.8060411 189.399858,43.8060411 C190.722927,43.8060411 191.558852,43.081341 191.558852,42.0349302 L191.558852,41.9945036 C191.558852,40.9882358 191.071709,40.4446752 188.808945,39.8409713 C186.216134,39.1162712 184.753264,38.2300065 184.753264,35.6337674 L184.753264,35.5936245 C184.753264,33.1778157 186.494295,31.5068493 188.912715,31.5068493 Z M166.176183,31.5068493 L171.331917,45.786051 L169.15539,45.786051 L167.967312,42.3634386 L162.426179,42.3634386 L161.221465,45.786051 L159.111482,45.786051 L164.267216,31.5068493 L166.176183,31.5068493 Z M151.726098,31.5068493 L151.726098,43.1519818 L157.85375,43.1519818 L157.85375,45.369863 L149.678492,45.369863 L149.678492,31.5068493 L151.726098,31.5068493 Z M150.307358,0 L135.670623,22.652445 L135.670623,45.3695811 L119.933678,45.3695811 L119.933678,22.652445 L105.298201,0 L150.307358,0 Z M223.877932,31.5068493 L230.063958,41.092082 L230.063958,31.5068493 L232.059935,31.5068493 L232.059935,45.369863 L230.361784,45.369863 L223.994057,35.5071858 L223.994057,45.369863 L221.99808,45.369863 L221.99808,31.5068493 L223.877932,31.5068493 Z M210.672857,31.5068493 L216.858044,41.092082 L216.858044,31.5068493 L218.85375,31.5068493 L218.85375,45.369863 L217.154463,45.369863 L210.7876,35.5071858 L210.7876,45.369863 L208.791894,45.369863 L208.791894,31.5068493 L210.672857,31.5068493 Z M201.598392,31.5068493 L206.905296,45.369863 L204.664952,45.369863 L203.442038,42.0470076 L197.738436,42.0470076 L196.498399,45.369863 L194.327977,45.369863 L199.634881,31.5068493 L201.598392,31.5068493 Z M45.008318,0.0646910703 L22.5367361,45.3695811 L0,0.0646910703 L45.008318,0.0646910703 Z M65.0830413,0 L65.0830413,45.369863 L48.2451889,45.369863 L48.2451889,0 L65.0830413,0 Z M243.924898,31.5068493 L243.924898,33.6853747 L237.270667,33.6853747 L237.270667,37.2896411 L243.169305,37.2896411 L243.169305,39.468306 L237.270667,39.468306 L237.270667,43.1917563 L244.008389,43.1917563 L244.008389,45.369863 L235.204265,45.369863 L235.204265,31.5068493 L243.924898,31.5068493 Z M85.4172623,0 C97.8509234,0 107.888844,10.1836993 107.888844,22.652445 C107.888844,35.1858818 97.8509234,45.3695811 85.4172623,45.3695811 L74.1488243,45.3695811 L74.1488243,0 L85.4172623,0 Z M165.187734,34.4844365 L163.178953,40.1555825 L167.213152,40.1555825 L165.187734,34.4844365 Z M200.582389,34.3976504 L198.514709,39.9035026 L202.667193,39.9035026 L200.582389,34.3976504 Z M157.224884,13.8630137 L157.224884,16.120809 L153.538618,16.120809 L153.538618,27.7260274 L151.47816,27.7260274 L151.47816,16.120809 L147.791894,16.120809 L147.791894,13.8630137 L157.224884,13.8630137 Z M226.316651,13.8630137 L226.316651,16.0413996 L219.66242,16.0413996 L219.66242,19.645945 L225.559666,19.645945 L225.559666,21.8244704 L219.66242,21.8244704 L219.66242,25.5476415 L226.400142,25.5476415 L226.400142,27.7260274 L217.596018,27.7260274 L217.596018,13.8630137 L226.316651,13.8630137 Z M210.924262,13.8630137 C212.412884,13.8630137 213.579415,14.37757 214.339831,15.2491197 C214.965809,16.0016251 215.320109,17.0317145 215.320109,18.2397424 L215.320109,18.2792378 C215.320109,20.556711 214.153578,21.9231391 212.513713,22.4777489 L215.70942,27.7260274 L213.240519,27.7260274 L210.331894,22.893497 L207.728555,22.893497 L207.728555,27.7260274 L205.647564,27.7260274 L205.647564,13.8630137 L210.924262,13.8630137 Z M203.760966,13.8630137 L203.760966,16.120809 L200.0747,16.120809 L200.0747,27.7260274 L198.014243,27.7260274 L198.014243,16.120809 L194.327977,16.120809 L194.327977,13.8630137 L203.760966,13.8630137 Z M189.650541,13.8897452 L194.956843,27.7260274 L192.716753,27.7260274 L191.493978,24.409441 L185.791023,24.409441 L184.551126,27.7260274 L182.379523,27.7260274 L187.685825,13.8897452 L189.650541,13.8897452 Z M180.409434,13.5603937 L180.409434,15.7863322 L173.756595,15.7863322 L173.756595,19.4695624 L179.653841,19.4695624 L179.653841,21.6956435 L173.756595,21.6956435 L173.756595,25.5000889 L180.492925,25.5000889 L180.492925,27.7260274 L171.688801,27.7260274 L171.688801,13.5603937 L180.409434,13.5603937 Z M161.245118,13.8630137 L161.245118,19.6261275 L167.039701,19.6261275 L167.039701,13.8630137 L169.173337,13.8630137 L169.173337,27.7260274 L167.039701,27.7260274 L167.039701,21.8836437 L161.245118,21.8836437 L161.245118,27.7260274 L159.111482,27.7260274 L159.111482,13.8630137 L161.245118,13.8630137 Z M188.633226,16.7748338 L186.567207,22.269931 L190.71922,22.269931 L188.633226,16.7748338 Z M210.754814,16.0808949 L207.728555,16.0808949 L207.728555,20.7349286 L210.771618,20.7349286 C212.260241,20.7349286 213.20691,19.8240231 213.20691,18.4175414 L213.20691,18.3784647 C213.20691,16.8927131 212.29385,16.0808949 210.754814,16.0808949 Z M189.650541,10.0821918 L191.735108,12.732031 L189.97728,12.732031 L188.651774,11.593264 L187.324842,12.732031 L185.601257,12.732031 L187.685825,10.0821918 L189.650541,10.0821918 Z M177.132413,9.45205479 L178.981738,10.4230597 L176.830454,12.3861752 L175.251083,12.3861752 L177.132413,9.45205479 Z"/></clipPath></defs><g clip-path="url(#i0)"><polygon points="0,0 244.008389,0 244.008389,46.0085637 0,46.0085637 0,0" stroke="none" fill="#fff7ae"/></g></svg>