<?xml version="1.0" encoding="UTF-8"?>
<svg version="1.1" xmlns="http://www.w3.org/2000/svg" width="4267" height="4268">
<path d="M0 0 C4.62 0 9.24 0 14 0 C16.75690722 7.92284694 18.98308843 15.9730526 21.1875 24.0625 C21.55901887 25.4186817 21.930762 26.77480199 22.30273438 28.13085938 C23.20402303 31.4199777 24.10305027 34.70969631 25 38 C25.73387939 37.52876709 26.46775879 37.05753418 27.22387695 36.57202148 C28.19800537 35.94884033 29.17213379 35.32565918 30.17578125 34.68359375 C31.13653564 34.06798584 32.09729004 33.45237793 33.0871582 32.81811523 C36.97625329 30.39064971 40.9600208 28.16463083 45 26 C45.97993419 27.73799648 46.93256414 29.49138764 47.875 31.25 C48.67550781 32.71179688 48.67550781 32.71179688 49.4921875 34.203125 C53.96309827 44.19388562 53.36959353 55.83372313 53.3125 66.5625 C53.30968018 67.33165741 53.30686035 68.10081482 53.30395508 68.89328003 C53.12375718 101.8733203 46.21488265 133.71792382 39.546875 165.8828125 C39.34409943 166.86357254 39.14132385 167.84433258 38.93240356 168.85481262 C37.9566246 173.57039377 36.97266795 178.28391127 35.97021484 182.99389648 C32.39662859 199.95053663 30.73256714 216.39721931 30.46826172 233.703125 C30.43372083 235.77363215 30.38887204 237.84376269 30.34375 239.9140625 C30.32505859 241.1098291 30.30636719 242.3055957 30.28710938 243.53759766 C29.67071151 256.18265759 26.95667596 268.37149678 24.02734375 280.6328125 C23.627685 282.32895953 23.22860204 284.02524231 22.83004761 285.72164917 C21.76318909 290.25302927 20.68675964 294.78208035 19.6076088 299.31054688 C18.93376741 302.14067687 18.26231253 304.97136258 17.59164429 307.80224609 C14.63205898 320.29328049 11.6522 332.77937689 8.65699768 345.26191711 C8.01964215 347.91814001 7.38279379 350.57448414 6.74597168 353.23083496 C4.2963308 363.44309617 1.82565047 373.65005263 -0.66453171 383.85250092 C-1.17749181 385.9589027 -1.68737122 388.06602655 -2.19631958 390.17340088 C-8.15567271 414.8176397 -15.28107696 438.99327167 -23.8125 462.875 C-24.35175292 464.39747488 -24.89080589 465.9200206 -25.4296875 467.44262695 C-32.49637255 487.35622166 -39.77188647 507.1957469 -47.01091003 527.04711914 C-52.3060825 541.57371676 -57.56288649 556.11418345 -62.82156372 570.65402222 C-67.53164269 583.67580077 -72.24837426 596.69501617 -76.99609375 609.703125 C-88.00667394 639.87902899 -98.82444113 670.11838572 -109.53713036 700.40092468 C-113.36467096 711.21999239 -117.22005238 722.0288713 -121.08984375 732.83288574 C-126.04727071 746.67923987 -130.98626692 760.53235629 -135.87426758 774.40338135 C-136.48998708 776.14844066 -137.10744296 777.89288848 -137.72680664 779.63665771 C-138.57943605 782.03857571 -139.42530919 784.4427725 -140.26953125 786.84765625 C-140.51774124 787.54259689 -140.76595123 788.23753754 -141.02168274 788.95353699 C-148.20554873 809.55552648 -145.75886731 829.8295564 -136.6875 849.4375 C-133.82705084 855.75709699 -132.8285793 861.11922256 -134 868 C-136.32152185 873.74853028 -141.21686675 876.42100232 -146.125 879.88671875 C-161.10610428 890.89864459 -167.61365788 905.90869964 -170.64233398 923.79296875 C-171.16621676 927.58685815 -171.6281829 931.38235284 -172.0625 935.1875 C-172.38889618 937.90808285 -172.72218923 940.62781345 -173.0546875 943.34765625 C-173.29203613 945.30856201 -173.29203613 945.30856201 -173.53417969 947.30908203 C-174.15943328 952.26326644 -174.90896804 957.19300485 -175.6875 962.125 C-180.96312074 996.30244863 -175.68772069 1030.36043459 -170.95727539 1064.28821182 C-170.55797547 1067.15751253 -170.16170222 1070.02721604 -169.76635742 1072.89706421 C-166.10761477 1099.44651417 -162.31918776 1125.97666181 -158.34882736 1152.48134613 C-158.00413743 1154.78485028 -157.6611283 1157.08859979 -157.31838989 1159.39239502 C-154.17825868 1180.45664372 -150.86916854 1201.17325247 -144.375 1221.5 C-143.97587647 1222.78494336 -143.57743898 1224.07010001 -143.1796875 1225.35546875 C-141.20179828 1231.96048196 -141.20179828 1231.96048196 -138 1238 C-137.91015625 1240.5390625 -137.91015625 1240.5390625 -138.0625 1243.625 C-138.27162151 1258.83831605 -133.82173454 1272.41019092 -128.4375 1286.4375 C-117.33447425 1315.6558298 -117.33447425 1315.6558298 -121.90625 1329.8046875 C-126.01849991 1338.94610791 -132.45870595 1343.32761718 -141.1875 1347.75 C-162.31161384 1358.48222119 -175.67227904 1377.87366718 -183.18359375 1399.9453125 C-185.80167816 1408.25086141 -187.61286066 1416.77562772 -189.54266357 1425.26113892 C-193.06704276 1440.7106921 -197.21395217 1455.95079724 -201.5625 1471.1875 C-201.88807892 1472.32841095 -202.21365784 1473.4693219 -202.54910278 1474.64480591 C-207.26203909 1491.12633944 -212.02728958 1507.59470301 -217 1524 C-215.28345215 1523.86368164 -215.28345215 1523.86368164 -213.53222656 1523.72460938 C-193.32866213 1522.14122962 -173.14830017 1520.69625181 -152.875 1520.625 C-152.13463501 1520.61750732 -151.39427002 1520.61001465 -150.63146973 1520.60229492 C-140.61507592 1520.51821304 -130.42936316 1520.5624877 -122.25 1527.125 C-121.57453125 1527.64320312 -120.8990625 1528.16140625 -120.203125 1528.6953125 C-113.91867015 1535.26947626 -110.48959415 1542.9125621 -107.4375 1551.375 C-106.86225586 1552.95220825 -106.86225586 1552.95220825 -106.27539062 1554.5612793 C-101.40702626 1568.15830794 -97.76383733 1580.80514688 -97.29736328 1595.28491211 C-96.5772657 1616.72011497 -85.96388822 1630.72200649 -70.94555664 1644.80371094 C-67.03729066 1648.42553957 -63.0849649 1651.96433241 -58.9375 1655.3125 C-54.43131271 1659.43518198 -51.85347063 1663.11364711 -51.375 1669.3125 C-52.60980265 1694.34531731 -70.0821257 1722.09808247 -81 1744 C-81.59095459 1745.18795166 -81.59095459 1745.18795166 -82.19384766 1746.39990234 C-96.5996147 1775.10340907 -115.24870979 1801.42023006 -137 1825 C-137.84949219 1825.95261719 -138.69898437 1826.90523437 -139.57421875 1827.88671875 C-145.9907511 1835.06269296 -152.75056008 1841.66771668 -160 1848 C-160.84433594 1848.74378906 -161.68867188 1849.48757813 -162.55859375 1850.25390625 C-177.74549793 1863.05950386 -192.83326156 1865.08973527 -212 1864 C-217.89327547 1863.30962694 -222.36574328 1862.14416196 -226.625 1857.875 C-229.56941896 1853.78362715 -230.45310818 1850.00037246 -230 1845 C-228.74665689 1839.45211358 -226.2157367 1834.41970276 -223.76171875 1829.3203125 C-223.16012939 1828.06903564 -223.16012939 1828.06903564 -222.54638672 1826.79248047 C-221.73808126 1825.12692981 -220.91847131 1823.46680717 -220.08642578 1821.81298828 C-217.1782783 1815.90004054 -215.39469066 1810.97610427 -216.75 1804.3125 C-219.82531681 1796.9997651 -226.84759448 1791.18372081 -232.359375 1785.6171875 C-237.50610876 1780.21892164 -239.95767875 1775.14812439 -242 1768 C-242.22429687 1767.25621094 -242.44859375 1766.51242187 -242.6796875 1765.74609375 C-243.14424046 1764.17106832 -243.57689042 1762.58666091 -244 1761 C-248.92230375 1764.03185376 -253.39289614 1767.23942995 -257.625 1771.1875 C-284.9130101 1796.25048774 -323.37613413 1816.10867821 -361.06640625 1816.16796875 C-361.8223558 1816.17129715 -362.57830536 1816.17462555 -363.35716248 1816.17805481 C-364.95139972 1816.18309165 -366.54564739 1816.18546414 -368.13989258 1816.18530273 C-370.53159862 1816.18747197 -372.92282947 1816.20561453 -375.31445312 1816.22460938 C-383.70503823 1816.25343702 -391.63118669 1815.8708625 -399.90209961 1814.33325195 C-404.87629081 1813.79816085 -408.74000857 1814.21250536 -413 1816.875 C-415.59719701 1819.26142971 -417.29448501 1821.93527855 -419.125 1824.9375 C-432.62289276 1847.01683451 -453.71487417 1863.82697888 -479 1870 C-486.61983481 1871.49535303 -494.13389371 1872.29401884 -501.875 1872.75 C-513.30220902 1873.55256794 -524.56096533 1875.12213291 -535.875 1876.875 C-536.69369568 1876.99806519 -537.51239136 1877.12113037 -538.355896 1877.2479248 C-549.75566134 1878.97374923 -560.98143036 1880.69277437 -570.625 1887.5 C-571.6253125 1888.19738281 -572.625625 1888.89476563 -573.65625 1889.61328125 C-574.18992187 1889.99436035 -574.72359375 1890.37543945 -575.2734375 1890.76806641 C-577.14235726 1892.10157448 -579.02336795 1893.41675557 -580.90625 1894.73046875 C-595.44753967 1904.90408253 -609.86940586 1915.26229067 -624 1926 C-625.08978893 1926.81908337 -626.1796347 1927.6380911 -627.26953125 1928.45703125 C-634.15088711 1933.65436335 -640.73021062 1939.0701992 -647 1945 C-648.28970703 1946.19302734 -648.28970703 1946.19302734 -649.60546875 1947.41015625 C-655.88324894 1953.41617107 -661.09859438 1959.84529289 -666.29077148 1966.79077148 C-669.91161619 1971.62560993 -673.67815985 1976.21001328 -677.8046875 1980.62890625 C-679.66365478 1982.63672323 -681.45534933 1984.6786383 -683.2421875 1986.75 C-692.87433692 1997.78881834 -703.42760324 2008.02282339 -715 2017 C-716.10271082 2017.90065399 -717.20281286 2018.80450814 -718.30078125 2019.7109375 C-730.3585841 2029.61538461 -743.12354168 2038.5386261 -756.1875 2047.0625 C-771.42953471 2057.12310648 -785.71360905 2068.88553647 -799.08203125 2081.30078125 C-801.77812414 2083.7947574 -804.50622684 2086.24625619 -807.25 2088.6875 C-813.59820211 2094.39580333 -819.54143909 2100.34579441 -825.1015625 2106.82421875 C-827.26745005 2109.30652198 -829.50876957 2111.71055145 -831.75 2114.125 C-837.0051992 2119.89619308 -841.83288787 2125.94075802 -846.57470703 2132.13769531 C-847.52287301 2133.37658022 -848.47436308 2134.61292831 -849.42919922 2135.84667969 C-864.89895697 2155.8478768 -878.08136899 2177.30264948 -891 2199 C-891.61375488 2200.0302832 -892.22750977 2201.06056641 -892.85986328 2202.12207031 C-919.12211177 2246.32548137 -919.12211177 2246.32548137 -940.24072266 2293.10620117 C-947.50182062 2311.83065545 -958.26658587 2327.81873235 -972.22216797 2342.17089844 C-973.49797649 2343.48349902 -974.76706507 2344.80264391 -976.03173828 2346.12597656 C-978.21669647 2348.40924058 -980.41830348 2350.67525233 -982.625 2352.9375 C-983.30506104 2353.64753174 -983.98512207 2354.35756348 -984.68579102 2355.08911133 C-993.68208087 2364.18441526 -1003.74331844 2369.7287988 -1016.625 2370.3125 C-1027.15092211 2370.21252516 -1037.68205145 2367.2826496 -1047.87109375 2364.84375 C-1062.30476718 2361.40544064 -1074.80668543 2360.07310517 -1088.515625 2367.33203125 C-1096.16172162 2372.33237589 -1102.6286613 2379.02134701 -1109.21630859 2385.3046875 C-1115.08480436 2390.88240919 -1121.0681686 2396.2950018 -1127.375 2401.375 C-1132.80684106 2405.75777304 -1137.89469627 2410.45042628 -1142.9921875 2415.2109375 C-1145.38773026 2417.44508374 -1147.8271878 2419.6155554 -1150.3125 2421.75 C-1158.97983269 2429.33165427 -1165.51455691 2437.53763221 -1172 2447 C-1171.01 2447.66 -1170.02 2448.32 -1169 2449 C-1168.30810547 2450.76489258 -1168.30810547 2450.76489258 -1167.8671875 2452.89453125 C-1167.7012207 2453.67820068 -1167.53525391 2454.46187012 -1167.36425781 2455.26928711 C-1167.20280273 2456.10854736 -1167.04134766 2456.94780762 -1166.875 2457.8125 C-1166.61734863 2459.10909546 -1166.61734863 2459.10909546 -1166.35449219 2460.43188477 C-1165.03952774 2467.28948818 -1164.18652972 2474.01290751 -1164 2481 C-1163.96132812 2482.14734619 -1163.96132812 2482.14734619 -1163.921875 2483.31787109 C-1163.46930005 2498.0180711 -1163.94926481 2512.89346317 -1174.34375 2524.4921875 C-1187.33541681 2536.31950681 -1201.71599543 2536.35991798 -1218.29959106 2536.05355835 C-1234.09338673 2535.78398723 -1249.82004234 2535.80770676 -1265.5625 2537.1875 C-1266.28110199 2537.25047272 -1266.99970398 2537.31344543 -1267.74008179 2537.37832642 C-1277.21824053 2538.23128543 -1286.67637056 2539.28396967 -1296.13671875 2540.3125 C-1297.18239517 2540.42564041 -1298.22807159 2540.53878082 -1299.30543518 2540.65534973 C-1304.4317126 2541.21135202 -1309.55606943 2541.7788195 -1314.67797852 2542.3737793 C-1335.63811709 2544.75931581 -1357.88385636 2547.04284147 -1375.6875 2533.375 C-1389.18707607 2520.92362631 -1394.53896576 2499.71815355 -1395.625 2481.9375 C-1395.15251072 2472.06094982 -1386.95908748 2463.37024162 -1380 2457 C-1373.83904929 2452.53387993 -1366.90832403 2449.382084 -1360.0625 2446.125 C-1358.88574707 2445.56184082 -1357.70899414 2444.99868164 -1356.49658203 2444.41845703 C-1346.15371864 2439.48565165 -1335.72520075 2434.74450562 -1325.28344727 2430.02563477 C-1313.65846002 2424.77001434 -1302.07363128 2419.43019899 -1290.5 2414.0625 C-1289.64799011 2413.6676239 -1288.79598022 2413.2727478 -1287.91815186 2412.86590576 C-1283.05801465 2410.6130217 -1278.20097464 2408.35362004 -1273.34591675 2406.08981323 C-1270.97273395 2404.98733335 -1268.59526814 2403.89452839 -1266.21704102 2402.80297852 C-1264.69801801 2402.10055598 -1263.17905384 2401.39800619 -1261.66015625 2400.6953125 C-1260.97518066 2400.38372696 -1260.29020508 2400.07214142 -1259.58447266 2399.75111389 C-1253.04060234 2396.7090806 -1247.55078186 2392.57805102 -1242 2388 C-1240.69898308 2386.95049955 -1239.39682998 2385.90240656 -1238.09375 2384.85546875 C-1234.66195979 2382.09031738 -1231.24803003 2379.30414661 -1227.84082031 2376.50878906 C-1226.22786913 2375.18676807 -1224.61039507 2373.87026924 -1222.9921875 2372.5546875 C-1217.54934627 2368.12742014 -1212.17611153 2363.62499052 -1206.83081055 2359.08105469 C-1203.46111255 2356.22107147 -1200.05951093 2353.40725959 -1196.625 2350.625 C-1186.90448534 2342.70668295 -1177.46933983 2334.42477099 -1168.20703125 2325.9765625 C-1166.77221501 2324.69157663 -1165.3119634 2323.43425357 -1163.82421875 2322.2109375 C-1156.78574981 2316.40519476 -1151.5158011 2309.92159606 -1150.0390625 2300.69921875 C-1149.95703366 2295.03102599 -1151.46319356 2289.07361288 -1154 2284 C-1154.64696441 2280.05269816 -1154.76594977 2276.48813099 -1152.90625 2272.875 C-1149.92029029 2268.8090123 -1146.40065637 2265.2776907 -1142.78125 2261.77734375 C-1140.94324179 2259.94336626 -1139.25264642 2258.03305708 -1137.5625 2256.0625 C-1135.14382221 2253.25423653 -1132.64100317 2250.60029407 -1130 2248 C-1126.12128664 2244.15836803 -1122.49215311 2240.19610492 -1119 2236 C-1118.5884668 2235.50757812 -1118.17693359 2235.01515625 -1117.75292969 2234.5078125 C-1101.55288211 2214.97898802 -1093.11921984 2192.40916954 -1083.84619141 2169.05419922 C-1077.27929657 2152.5155032 -1070.43707172 2136.17230984 -1063 2120 C-1062.72778625 2119.40785706 -1062.45557251 2118.81571411 -1062.17510986 2118.20562744 C-1054.65772106 2101.86618801 -1046.9468385 2085.62213849 -1039.1015625 2069.4375 C-1037.04179176 2065.18175408 -1035.01740349 2060.91196073 -1033.0234375 2056.625 C-1028.32841108 2046.55761092 -1023.78189429 2036.85744478 -1017 2028 C-1016.26652344 2027.01257812 -1015.53304688 2026.02515625 -1014.77734375 2025.0078125 C-1005.92019488 2013.68794419 -995.25228306 2005.9961326 -982.69873047 1999.20239258 C-969.92501136 1992.23107365 -961.25302004 1982.73926698 -953.5625 1970.5625 C-944.80113213 1956.70927377 -936.29250507 1947.78934838 -920.45654297 1942.88671875 C-912.14315198 1940.22710695 -907.27774408 1935.64112133 -901.78125 1929.0703125 C-899.94482078 1926.93586626 -898.0098701 1924.97121876 -896 1923 C-892.72797872 1919.7784145 -889.70683945 1916.41407855 -886.71484375 1912.93359375 C-884.49830603 1910.43430862 -882.12837719 1908.11718116 -879.74609375 1905.77734375 C-877.93522357 1903.93406426 -876.24678646 1902.02177201 -874.5625 1900.0625 C-871.52320349 1896.53365237 -868.28983153 1893.26994973 -864.97265625 1890.00390625 C-862.42662171 1887.41753849 -860.07978443 1884.6846472 -857.71484375 1881.93359375 C-855.4995262 1879.43568444 -853.1310183 1877.11975011 -850.75 1874.78125 C-848.91757513 1872.91610326 -847.20646865 1870.98072254 -845.5 1869 C-842.74656316 1865.80404653 -839.85322821 1862.82769937 -836.84350586 1859.87475586 C-835.06663359 1858.06776312 -833.40563127 1856.20655066 -831.75390625 1854.28515625 C-828.08596377 1850.06707083 -824.28336238 1845.99310202 -820.4375 1841.9375 C-819.02448973 1840.44164222 -817.61173415 1838.94554383 -816.19921875 1837.44921875 C-815.49587402 1836.70462402 -814.7925293 1835.9600293 -814.06787109 1835.19287109 C-810.95158413 1831.88820882 -807.84879149 1828.57106401 -804.75 1825.25 C-803.88737549 1824.32550049 -803.88737549 1824.32550049 -803.00732422 1823.38232422 C-798.8582757 1818.93075322 -794.73052905 1814.45988279 -790.60839844 1809.98339844 C-785.9591984 1804.9413947 -781.26405746 1799.94296991 -776.56884766 1794.94384766 C-772.18445486 1790.27232143 -767.82748982 1785.57676118 -763.48828125 1780.86328125 C-759.67662115 1776.7254898 -755.84175806 1772.60984858 -752 1768.5 C-747.16284329 1763.32492212 -742.34243591 1758.13520812 -737.54785156 1752.9206543 C-734.85753609 1749.99839966 -732.15030389 1747.09376737 -729.421875 1744.20703125 C-715.4855662 1729.84732868 -715.4855662 1729.84732868 -707 1712 C-704.62234097 1704.0744699 -702.05801631 1697.59462887 -697 1691 C-696.58363281 1690.40832031 -696.16726563 1689.81664063 -695.73828125 1689.20703125 C-690.55667472 1682.4071452 -682.62807379 1677.92488514 -675.484375 1673.41015625 C-670.84815445 1670.31075696 -669.18668986 1667.93563948 -667.76171875 1662.5625 C-662.01745895 1643.23822087 -647.22393926 1634.82026584 -630.5625 1625.75 C-629.82999023 1625.36223389 -629.09748047 1624.97446777 -628.34277344 1624.57495117 C-626.20029058 1623.42663677 -624.09701081 1622.22921419 -622 1621 C-621.32372559 1620.62278809 -620.64745117 1620.24557617 -619.95068359 1619.85693359 C-612.95800463 1615.39658281 -610.00193136 1608.34145163 -606.5 1601.125 C-605.84373773 1599.80917028 -605.18568621 1598.49423147 -604.52587891 1597.18017578 C-603.23986708 1594.61162104 -601.96461088 1592.03823763 -600.70019531 1589.45898438 C-598.94768548 1585.89356806 -597.1567988 1582.34969319 -595.35400391 1578.80957031 C-594.41431359 1576.95268601 -593.49233857 1575.08828848 -592.578125 1573.21875 C-591.57118251 1571.1649861 -590.54204353 1569.12185666 -589.484375 1567.09375 C-582.23278403 1552.59056807 -583.65480052 1538.65906929 -588.4375 1523.6875 C-596.27881224 1500.48152199 -608.36014102 1478.62513912 -620.8125 1457.625 C-621.44704102 1456.54806885 -622.08158203 1455.4711377 -622.73535156 1454.36157227 C-628.49290082 1444.56170494 -628.49290082 1444.56170494 -637.859375 1438.5078125 C-646.2936807 1436.50697356 -654.48981049 1437.73900064 -662 1442 C-663.00473926 1442.99523818 -664.0057802 1443.99425302 -665 1445 C-665.66 1445 -666.32 1445 -667 1445 C-667.25007813 1445.52207031 -667.50015625 1446.04414063 -667.7578125 1446.58203125 C-678.43100399 1467.35783481 -693.22219456 1486.20127332 -708.34765625 1503.8828125 C-710.77352276 1506.72187125 -713.14414924 1509.60242955 -715.5 1512.5 C-720.12552993 1518.17903141 -724.85467044 1523.76592822 -729.59716797 1529.34716797 C-730.97477588 1530.97028067 -732.34931757 1532.5959304 -733.72265625 1534.22265625 C-738.49844324 1539.87864588 -743.29687422 1545.51360413 -748.125 1551.125 C-751.61815106 1555.18628745 -755.06448396 1559.27518587 -758.4375 1563.4375 C-762.53785914 1568.4869477 -766.78369349 1573.39773017 -771.0534668 1578.3034668 C-779.54241282 1588.06086178 -787.83867162 1597.96653894 -796 1608 C-798.24957099 1610.75121748 -800.50080173 1613.50097511 -802.7578125 1616.24609375 C-804.24946842 1618.07817985 -805.72363698 1619.92464725 -807.1796875 1621.78515625 C-821.5333505 1639.94432776 -841.62375946 1653.92657531 -865 1657 C-869.16883027 1657.33280578 -873.31880766 1657.45555947 -877.5 1657.5 C-878.49531738 1657.51844971 -879.49063477 1657.53689941 -880.51611328 1657.5559082 C-895.43286541 1657.43391695 -909.13720252 1652.10188159 -922.87167358 1646.80206299 C-925.5046094 1645.7866179 -928.14182513 1644.78309907 -930.78051758 1643.78271484 C-934.27983314 1642.45596013 -937.77811148 1641.12654671 -941.27539062 1639.79443359 C-954.63923513 1634.71149274 -968.0251149 1629.85094348 -981.72363281 1625.74047852 C-1023.85488637 1613.08614657 -1060.96776109 1591.62009562 -1094.4909668 1563.2578125 C-1104.57478374 1554.92553079 -1116.29938655 1549.16245284 -1128 1543.5 C-1136.65028591 1539.31373778 -1144.98104017 1534.96474332 -1153.07324219 1529.76708984 C-1175.95049197 1515.95448274 -1201.2683457 1520.61996852 -1226 1526 C-1249.89127368 1531.05037107 -1266.64953514 1526.20599901 -1286.87890625 1513.140625 C-1293.72382322 1508.22401248 -1296.92222654 1502.49906223 -1298.67578125 1494.24609375 C-1301.87841592 1472.0591668 -1285.96998183 1449.81468759 -1273.25292969 1432.640625 C-1271.44937255 1430.27581092 -1269.61131671 1427.94456344 -1267.75 1425.625 C-1267.18394043 1424.90521973 -1266.61788086 1424.18543945 -1266.03466797 1423.44384766 C-1260.9856408 1417.32644574 -1256.18486097 1415.64475948 -1248.6875 1413.3125 C-1235.31657894 1408.38733126 -1228.36852941 1397.32048593 -1220.67480469 1386.06054688 C-1217.18167746 1381.0314903 -1213.87228533 1377.95742844 -1208 1376 C-1205.984375 1375.83203125 -1205.984375 1375.83203125 -1203.75 1375.8125 C-1203.02296875 1375.79832031 -1202.2959375 1375.78414062 -1201.546875 1375.76953125 C-1198.21448359 1376.07108201 -1195.21371645 1377.07264216 -1192 1378 C-1189.9546829 1378.39136308 -1187.90572015 1378.71770541 -1185.84814453 1379.0378418 C-1168.64524343 1381.7222719 -1155.69994462 1388.84846034 -1145 1403 C-1141.34847179 1408.45972154 -1138.12266137 1414.19653738 -1134.92333984 1419.92919922 C-1129.69496627 1429.28385208 -1123.9066359 1437.03006976 -1116.34130859 1444.63525391 C-1115.20296382 1445.79348967 -1114.10627756 1446.99243734 -1113.01953125 1448.19921875 C-1092.49213225 1470.53919161 -1059.78255169 1481.0430382 -1031.3203125 1488.046875 C-1030.19052255 1488.32727347 -1030.19052255 1488.32727347 -1029.03790855 1488.61333656 C-1007.30270319 1494.00387501 -985.46034333 1498.94676626 -963.62908936 1503.93017578 C-954.82899948 1505.93962599 -946.03026671 1507.95500908 -937.23165512 1509.97092056 C-934.09104942 1510.68999888 -930.95009718 1511.40754842 -927.80911255 1512.12496948 C-919.39524318 1514.04961898 -910.98410801 1515.97804804 -902.60302734 1518.04150391 C-901.42862595 1518.3299971 -900.25422455 1518.6184903 -899.04423523 1518.91572571 C-897.02467951 1519.41688678 -895.0068541 1519.92511804 -892.99153137 1520.44303894 C-888.23159546 1521.63109623 -883.95052336 1522.40865729 -879 1522 C-875.73844784 1519.95524009 -874.35010156 1518.16858529 -873.24267578 1514.47216797 C-872.58241176 1511.30426635 -872.0583971 1508.13519719 -871.5625 1504.9375 C-864.73629599 1466.00954229 -847.03229953 1431.65982447 -821.46484375 1401.67822266 C-817.97442976 1397.51019435 -814.63278733 1393.25870125 -813 1388 C-813.6797486 1383.06820694 -817.42156062 1380.57606412 -821.125 1377.625 C-822.30731241 1376.64846261 -823.48960413 1375.67190018 -824.671875 1374.6953125 C-826.5666417 1373.15328358 -828.47131975 1371.62879719 -830.390625 1370.1171875 C-836.75719509 1364.92868353 -843.1936015 1357.27838831 -844.2734375 1348.87109375 C-844.56091829 1341.98261181 -843.14927746 1336.57559159 -839 1331 C-833.83321045 1325.82097593 -828.05073422 1321.94523426 -821.8125 1318.1875 C-802.57861124 1306.30516457 -785.81649674 1292.03102496 -772.89501953 1273.34643555 C-768.19915326 1266.66821545 -762.67126725 1260.85010025 -757 1255 C-756.28972656 1254.24976563 -755.57945312 1253.49953125 -754.84765625 1252.7265625 C-750.4810796 1248.20818257 -745.75224302 1244.28249026 -740.85546875 1240.3515625 C-737.98191458 1237.98510612 -735.23717383 1235.52241697 -732.5 1233 C-728.94329756 1229.72581577 -725.32838189 1226.59357567 -721.5625 1223.5625 C-717.6773995 1220.43359678 -714.00453273 1217.17156496 -710.375 1213.75 C-705.53565713 1209.22271633 -700.44447779 1205.09546845 -695.1875 1201.0625 C-694.12958252 1200.24700684 -694.12958252 1200.24700684 -693.05029297 1199.41503906 C-686.69908117 1194.60555808 -680.02767783 1190.9448941 -672.875 1187.4375 C-666.23931794 1184.14391161 -659.6383878 1180.78642381 -653.0625 1177.375 C-651.76771729 1176.7106897 -651.76771729 1176.7106897 -650.44677734 1176.03295898 C-645.32432134 1173.36326704 -640.53344663 1170.45236773 -635.81030273 1167.12353516 C-634 1166 -634 1166 -632 1166 C-632.19534831 1156.58776313 -634.00058334 1147.88448711 -636.2722168 1138.78076172 C-636.49304932 1137.87600098 -636.71388184 1136.97124023 -636.94140625 1136.0390625 C-637.14451416 1135.23678223 -637.34762207 1134.43450195 -637.55688477 1133.60791016 C-638.49990671 1128.05784935 -637.95871886 1122.93999507 -636.73754883 1117.48461914 C-636.45870346 1116.22243057 -636.17985809 1114.960242 -635.89256287 1113.6598053 C-635.58089066 1112.28488336 -635.26904133 1110.91000156 -634.95703125 1109.53515625 C-634.63315328 1108.08313647 -634.30989006 1106.63097945 -633.98719788 1105.17869568 C-633.11862922 1101.27958034 -632.24047285 1097.38268658 -631.3597641 1093.48629761 C-630.628198 1090.24623827 -629.90109038 1087.00518452 -629.17380524 1083.76416206 C-627.32775521 1075.53930854 -625.47030183 1067.31707499 -623.60665131 1059.09619331 C-622.41985996 1053.85947962 -621.23918704 1048.62142653 -620.06298828 1043.38232422 C-618.61547251 1036.93618303 -617.15505214 1030.493074 -615.68417358 1024.05221558 C-615.15137632 1021.71327277 -614.62200953 1019.37354545 -614.09634399 1017.0329895 C-606.49735866 983.26676511 -606.49735866 983.26676511 -596 969 C-595.41347656 968.19175781 -594.82695312 967.38351562 -594.22265625 966.55078125 C-583.89298135 953.19379569 -571.3487745 941.06688101 -557.73046875 931.125 C-552.91308684 927.37585013 -549.20104457 922.76625107 -545.41796875 918.01171875 C-534.13133682 904.30848436 -518.59351677 896.6433011 -502.23046875 890.6484375 C-501.41308731 890.34858444 -500.59570587 890.04873138 -499.7535553 889.73979187 C-491.41199349 886.72276223 -482.96730149 884.08948195 -474.46557617 881.56469727 C-471.93186117 880.81082224 -469.40241946 880.04369334 -466.87304688 879.27539062 C-436.72433221 870.19885421 -436.72433221 870.19885421 -422.4375 870.5625 C-420.98609619 870.58449463 -420.98609619 870.58449463 -419.50537109 870.60693359 C-403.60551985 871.01947312 -389.59243539 874.94510381 -374.90722656 880.84008789 C-368.42050999 883.39387141 -362.56150407 884.52635889 -355.9375 881.6875 C-353.24730166 879.22625471 -351.23192589 876.8041938 -349 873.9375 C-345.36743765 869.319836 -341.55932525 865.84180307 -336.875 862.3125 C-324.30242795 852.77319414 -318.1026271 842.50823161 -314.5625 827.0625 C-311.34298394 813.22613968 -304.59174078 803.15922837 -296.0546875 792.04296875 C-283.36066169 775.41642458 -273.29230953 756.99806812 -263.41064453 738.62158203 C-262.15328208 736.28486379 -260.88821305 733.95252837 -259.62109375 731.62109375 C-252.10812972 717.71404703 -245.47372635 703.38271105 -238.7457428 689.08537292 C-237.16526571 685.72859664 -235.58204727 682.37311593 -233.99874878 679.01766968 C-232.84439518 676.56769366 -231.69464675 674.11559521 -230.54516602 671.66333008 C-227.05761906 664.24959584 -223.50154729 656.890099 -219.65234375 649.65625 C-219.33199661 649.05389526 -219.01164948 648.45154053 -218.68159485 647.83093262 C-214.80524053 640.64984813 -210.10113003 634.32533011 -204.94433594 628.03295898 C-168.05413708 582.85262633 -151.04479814 527.67105453 -133.24157715 473.1289978 C-121.96115058 438.57721088 -109.88400992 404.34937872 -97.25366211 370.26831055 C-92.94297272 358.62617143 -88.72100286 346.95347833 -84.55130005 335.26010132 C-83.86488232 333.33554532 -83.17733123 331.41139307 -82.48849487 329.48770142 C-79.06637121 319.92460965 -75.72447887 310.34479425 -72.6484375 300.6640625 C-72.40677856 299.90640091 -72.16511963 299.14873932 -71.9161377 298.36811829 C-67.95371163 285.70841442 -66.718057 273.6880508 -66.5625 260.4375 C-66.52890381 258.63454468 -66.52890381 258.63454468 -66.49462891 256.79516602 C-66.51311735 249.84691536 -67.10871234 244.81601058 -71 239 C-71.92425781 237.56720703 -71.92425781 237.56720703 -72.8671875 236.10546875 C-73.52976562 235.14253906 -74.19234375 234.17960938 -74.875 233.1875 C-96.07285863 201.09706206 -101.96112893 169.23087662 -105.69360352 131.68310547 C-105.77375702 130.88091583 -105.85391052 130.0787262 -105.93649292 129.25222778 C-106.08647711 127.74228143 -106.23410775 126.2320987 -106.37893677 124.72164917 C-106.737652 121.0919065 -107.24987083 117.56771617 -108 114 C-108.36570923 109.90405661 -108.4479893 107.74664883 -106.3125 104.1875 C-101.07035675 99.22871584 -95.21020547 99.5592859 -88.3203125 99.703125 C-83.97011875 100.0920835 -81.99439916 100.77526245 -79 104 C-74.61939143 111.32578397 -72.11474169 119.24120718 -69.6875 127.375 C-69.32849609 128.53644531 -68.96949219 129.69789063 -68.59960938 130.89453125 C-66 139.4608631 -66 139.4608631 -66 144 C-58.92210846 138.85244251 -55.70379638 132.66784335 -54.25390625 124.046875 C-52.77994146 106.3592975 -57.02541023 88.09660745 -60.71166992 70.9074707 C-63.40247365 58.24910014 -65.41327931 45.91848367 -59 34 C-55.44292838 28.90303155 -50.91220477 24.92846861 -46.19140625 20.9375 C-42.65579365 17.81153949 -39.39626514 14.41536768 -36.1015625 11.0390625 C-33.50433809 8.51907896 -32.47027841 8.07524455 -28.875 7.5 C-23.33022429 8.21545493 -20.82023727 11.12977832 -17 15 C-15.02 16.98 -13.04 18.96 -11 21 C-7.37 14.07 -3.74 7.14 0 0 Z " fill="#EED4F1" transform="translate(2729,691)"/>
<path d="M0 0 C64.68 0 129.36 0 196 0 C203.425 21.285 203.425 21.285 211 43 C216.59057915 58.69927517 216.59057915 58.69927517 222.203125 74.390625 C225.71985639 84.2059523 229.21404347 94.02921331 232.70346069 103.85427856 C238.57515967 120.38699438 244.466799 136.91248093 250.37234497 153.43313599 C258.02499976 174.84181391 265.65070799 196.25983647 273.25 217.6875 C273.48302826 218.34454548 273.71605652 219.00159096 273.95614624 219.67854691 C276.0283669 225.52140168 278.10041267 231.36431847 280.17230225 237.20729065 C284.15244419 248.43131485 288.13612925 259.65407487 292.125 270.875 C292.43861481 271.75726257 292.75222961 272.63952515 293.0753479 273.54852295 C296.98489021 284.54480837 300.90463339 295.53742298 304.83203125 306.52734375 C305.24891708 307.69392517 305.66580292 308.86050659 306.09532166 310.06243896 C307.8009717 314.83508053 309.50671285 319.60768936 311.21310425 324.38006592 C315.74013932 337.04193813 320.25723804 349.70710531 324.734375 362.38671875 C325.11344498 363.45976761 325.49251495 364.53281647 325.8830719 365.63838196 C327.6524408 370.64816192 329.41927797 375.65880788 331.18139648 380.67114258 C335.94230155 394.18222432 340.92613297 407.60346509 346 421 C346.62322144 419.1897937 346.62322144 419.1897937 347.2590332 417.34301758 C355.42711627 393.63558643 363.68730889 369.96555849 372.1875 346.375 C379.24366127 326.79051136 386.15978647 307.16062018 393 287.5 C400.11251123 267.05764123 407.31881042 246.65286631 414.65673828 226.29003906 C421.22042983 208.06646767 427.63488546 189.7935569 434 171.5 C441.10935664 151.06746586 448.30966278 130.67145573 455.64666748 110.31924438 C460.41620336 97.08311654 465.12721478 83.82825887 469.7578125 70.54296875 C470.00229378 69.84169483 470.24677505 69.14042091 470.49866486 68.41789627 C472.89942192 61.52985597 475.29589502 54.64034823 477.68297005 47.74755383 C478.35193567 45.81705943 479.02217476 43.88701188 479.69284058 41.95710754 C480.50143872 39.6294348 481.30784206 37.30099732 482.1111145 34.97148132 C486.19523181 23.22624109 490.62883373 11.65644338 495 0 C559.35 0 623.7 0 690 0 C691.34499435 4.70748023 692.4128146 8.89339898 693.17514038 13.66148376 C693.27798694 14.29721982 693.3808335 14.93295588 693.48679662 15.58795667 C693.82907351 17.71027086 694.16525556 19.83350393 694.50146484 21.95678711 C694.7492373 23.50112114 694.99738909 25.04539436 695.24588585 26.58961201 C695.92800223 30.8353071 696.60479936 35.08183562 697.28076839 39.32851315 C698.01346827 43.92538637 698.75119261 48.52145338 699.48834229 53.11761475 C700.77398641 61.1378269 702.05659087 69.15852041 703.33721924 77.17953491 C705.40702357 90.14294987 707.48311738 103.10535381 709.56005859 116.06762695 C710.27997883 120.56113539 710.99984989 125.0546517 711.71969604 129.548172 C711.89999284 130.67362944 712.08028964 131.79908688 712.26604998 132.9586491 C713.56894486 141.09220924 714.87098119 149.22590655 716.17263794 157.35966492 C721.35907685 189.76762501 726.55719153 222.17369258 731.765625 254.578125 C731.94671499 255.70479584 732.12780499 256.83146667 732.31438255 257.99227905 C734.34061652 270.59850108 736.36724187 283.20466016 738.39404297 295.81079102 C740.45306698 308.61738106 742.51140547 321.42408122 744.56957722 334.23080826 C754.43755058 395.63286629 764.31261757 457.03378181 774.19154203 518.43407881 C776.95165069 535.58901519 779.71104894 552.74406567 782.46979892 569.89922059 C783.98325762 579.31050774 785.49683676 588.72177552 787.01045012 598.13303781 C787.38030456 600.43270668 787.75015363 602.73237642 788.11999726 605.03204703 C792.72147925 633.64362188 797.32981169 662.25407413 801.95065451 690.86252862 C802.91344306 696.82379239 803.87541118 702.78518804 804.83673096 708.74668884 C805.03219977 709.95886303 805.03219977 709.95886303 805.23161745 711.19552559 C805.86863249 715.14612318 806.50552534 719.09674045 807.14231873 723.04737377 C808.44529084 731.12986443 809.75111638 739.211883 811.06103247 747.29325122 C812.0151717 753.18121816 812.96465767 759.0699247 813.91223335 764.95895195 C814.29024364 767.30314144 814.66987286 769.64707056 815.05128288 771.9907093 C815.56103037 775.12399052 816.06507393 778.25813623 816.56762695 781.39257812 C816.7153121 782.29132377 816.86299725 783.19006941 817.0151577 784.11604977 C817.14670061 784.94404363 817.27824352 785.77203749 817.41377258 786.62512207 C817.5850415 787.68416119 817.5850415 787.68416119 817.75977039 788.76459503 C818.05321442 791.49517537 818 794.25369733 818 797 C753.32 797 688.64 797 622 797 C606.91468681 691.48137699 606.91468681 691.48137699 602.34375 659.46875 C602.18323591 658.34461386 602.02272182 657.22047771 601.85734367 656.06227684 C593.91941791 600.46887068 586.00307308 544.87239579 578.09490108 489.27475005 C576.85777778 480.57734851 575.62035409 471.87998974 574.3828125 463.18264771 C572.70351874 451.38049819 571.02498355 439.57824097 569.3469696 427.77590942 C568.73045136 423.43974273 568.11367668 419.10361265 567.49665833 414.76751709 C566.64617958 408.79050199 565.79652543 402.81337004 564.94726562 396.83618164 C564.81584325 395.91178417 564.68442087 394.98738671 564.549016 394.0349772 C563.26427916 384.9948255 561.98678881 375.95390322 560.75073242 366.9069519 C560.65578853 366.21289582 560.56084464 365.51883973 560.46302366 364.80375165 C560.03296955 361.65631618 559.60589425 358.50852152 559.18344879 355.36005497 C559.03956474 354.2996522 558.89568069 353.23924944 558.74743652 352.14671326 C558.56508579 350.78687144 558.56508579 350.78687144 558.37905121 349.39955807 C558.03474172 347.2199301 557.57499815 345.12898382 557 343 C556.52393311 344.22775146 556.04786621 345.45550293 555.55737305 346.72045898 C555.23755463 347.54525253 554.91773621 348.37004608 554.58822632 349.21983337 C553.85573982 351.10888024 553.12325705 352.99792855 552.39077759 354.88697815 C550.29274944 360.29773228 548.19465034 365.70845887 546.09643555 371.11914062 C541.75301014 382.31977649 537.41042354 393.52073566 533.0703125 404.72265625 C525.41176934 424.4875479 517.74038092 444.24719535 510.0269165 463.99072266 C504.55985569 477.98585111 499.11762883 491.99050213 493.6875 506 C493.29130463 507.022146 492.89510925 508.04429199 492.48690796 509.09741211 C489.6572957 516.39802566 486.82855195 523.69897559 484 531 C480.77142379 539.33356223 477.54247333 547.66697916 474.3125 556 C473.91606293 557.02279053 473.51962585 558.04558105 473.11117554 559.09936523 C467.43651924 573.73770011 461.74002023 588.36735585 456.0269165 602.99072266 C450.55985569 616.98585111 445.11762883 630.99050213 439.6875 645 C439.29130463 646.022146 438.89510925 647.04429199 438.48690796 648.09741211 C435.6572957 655.39802566 432.82855195 662.69897559 430 670 C420.27228143 695.10907062 410.54303775 720.2173805 400.73925781 745.296875 C397.45619838 753.696757 394.18348567 762.10045364 390.9296875 770.51171875 C390.27258169 772.20859272 389.61543723 773.90545172 388.95825195 775.60229492 C387.71958812 778.80059463 386.48426309 782.00015705 385.25073242 785.20043945 C384.69984508 786.62326309 384.14882746 788.0460363 383.59765625 789.46875 C383.3474472 790.12070847 383.09723816 790.77266693 382.83944702 791.44438171 C381.11372777 795.88627223 381.11372777 795.88627223 380 797 C377.53555943 797.09500548 375.09925374 797.12557985 372.63452148 797.11352539 C371.86384338 797.11367142 371.09316528 797.11381744 370.2991333 797.1139679 C367.73975861 797.1132686 365.1804558 797.10547545 362.62109375 797.09765625 C360.85132385 797.09579213 359.08155344 797.0943682 357.31178284 797.09336853 C352.64448634 797.08954288 347.97722077 797.0797122 343.30993652 797.06866455 C338.55102965 797.05845144 333.79211779 797.05387113 329.03320312 797.04882812 C319.68878847 797.03808997 310.3443968 797.02101299 301 797 C289.75057455 766.89046977 278.57984155 736.75353199 267.51426697 706.57597351 C262.91850509 694.04580351 258.30290219 681.5229459 253.6875 669 C252.80387251 666.60229536 251.92024621 664.20459028 251.03662109 661.80688477 C249.70198639 658.18543497 248.36732555 654.56399482 247.03259277 650.94258118 C243.88642878 642.40616749 240.74169754 633.86922695 237.59765625 625.33203125 C229.23616192 602.62852786 220.86907033 579.92714671 212.47741699 557.23477173 C206.01925517 539.77009213 199.58142999 522.2979522 193.14648438 504.82470703 C186.93652893 487.96301542 180.71701433 471.1049071 174.48355103 454.25189209 C170.21288178 442.7051684 165.95075988 431.15534436 161.69921875 419.6015625 C150.65793331 389.5606902 150.65793331 389.5606902 139.51797485 359.55633545 C139.01152618 358.20026455 138.50595199 356.84386669 138.00131226 355.48712158 C137.33179728 353.68828738 136.65823441 351.89096124 135.984375 350.09375 C135.62053711 349.12115234 135.25669922 348.14855469 134.88183594 347.14648438 C134.18391246 345.05546086 134.18391246 345.05546086 133 344 C128.62940179 374.69222239 124.26029248 405.38465659 119.8921399 436.07722714 C118.64668591 444.82832633 117.40107972 453.57940383 116.15532523 462.33046025 C113.62217358 480.1251256 111.08978919 497.91990002 108.55859375 515.71484375 C108.46006002 516.40755716 108.36152629 517.10027058 108.2600067 517.8139753 C102.36226168 559.27727366 96.4859128 600.74353936 90.63274574 642.21315527 C89.92605693 647.21957258 89.21910013 652.22595202 88.51212573 657.23232901 C87.6507281 663.33228122 86.78945436 669.43225092 85.92822266 675.53222656 C85.76089614 676.71736871 85.59356963 677.90251085 85.42117262 679.12356639 C83.43471006 693.19427939 81.45083765 707.26535342 79.47057849 721.33694082 C78.23524217 730.11413007 76.99754781 738.89098468 75.75800961 747.6675815 C74.90868625 753.68223845 74.06230147 759.69729847 73.21826363 765.71269929 C72.70910773 769.33615124 72.1970641 772.9591904 71.68412805 776.58210897 C71.44905605 778.24668082 71.21519662 779.91142442 70.98262763 781.57634783 C70.6684261 783.82450422 70.34997125 786.07201667 70.03038025 788.31941223 C69.85423156 789.5705119 69.67808287 790.82161158 69.49659634 792.11062336 C69 795 69 795 68 797 C3.32 797 -61.36 797 -128 797 C-126.19026878 784.33188149 -124.36185878 771.68671621 -122.3215332 759.05712891 C-122.06669376 757.47084039 -121.81201613 755.88452586 -121.55748272 754.29818821 C-120.86879656 750.00895701 -120.17787092 745.72008935 -119.4865284 741.43128562 C-118.73780012 736.78385948 -117.99122943 732.13608668 -117.24438477 727.48835754 C-115.95029464 719.43686101 -114.65487935 711.38557861 -113.35855103 703.33444214 C-111.45245815 691.49616657 -109.54849982 679.65754841 -107.64502084 667.81885231 C-104.54853188 648.56049859 -101.45052838 629.30238887 -98.3515625 610.04443359 C-94.42512411 585.64416329 -90.5009634 561.24352724 -86.57781124 536.84272838 C-85.28317236 528.79051258 -83.98847824 520.73830566 -82.69379187 512.6860975 C-82.37003262 510.67249773 -82.04627449 508.65889778 -81.72251749 506.64529765 C-79.26678972 491.37196644 -76.81075051 476.09868534 -74.35449219 460.82543945 C-74.18963113 459.80031687 -74.02477008 458.77519428 -73.85491323 457.71900737 C-73.18516116 453.55442433 -72.51540843 449.38984139 -71.8456552 445.22525853 C-62.99377944 390.18342435 -54.14371795 335.14129859 -45.29629564 280.09874839 C-44.14555503 272.93967537 -42.99473995 265.78061433 -41.84386206 258.62156337 C-34.10488238 210.48108621 -26.36969344 162.34001846 -18.66490674 114.19405532 C-18.05739137 110.39797138 -17.4497518 106.60190733 -16.84210759 102.80584401 C-16.11009643 98.23279484 -15.37815404 93.65973467 -14.64624023 89.08666992 C-14.50502176 88.20432493 -14.36380329 87.32197994 -14.21830547 86.41289723 C-12.57827069 76.16534038 -10.93955646 65.91757402 -9.30293143 55.66947204 C-8.31173649 49.46323361 -7.31941659 43.25717577 -6.32618749 37.05126256 C-5.65593526 32.8629184 -4.98713895 28.6743456 -4.31955487 24.48557538 C-3.82681779 21.39673578 -3.33182492 18.30825763 -2.8371582 15.21972656 C-2.66344979 14.12672902 -2.48974138 13.03373148 -2.31076908 11.9076128 C-2.15115916 10.91379943 -1.99154924 9.91998606 -1.82710266 8.89605713 C-1.62208366 7.61239447 -1.62208366 7.61239447 -1.41292286 6.30279922 C-1.0329084 4.18352445 -0.52219765 2.0887906 0 0 Z " fill="#EED4F1" transform="translate(3381,2016)"/>
<path d="M0 0 C1.03281097 0.14211914 1.03281097 0.14211914 2.08648682 0.28710938 C45.12082896 6.2243861 86.80330915 17.37524643 126.25439453 35.72412109 C128.83742075 36.92444965 131.43036228 38.09978021 134.02734375 39.26953125 C185.26445391 62.61384745 234.4264269 100.46251521 269 145 C269.4640625 145.58620117 269.928125 146.17240234 270.40625 146.77636719 C312.82634066 200.36960673 341.04179628 264.18742206 351.25 331.8125 C351.40106201 332.81120117 351.55212402 333.80990234 351.70776367 334.83886719 C352.18697239 338.22170775 352.60535519 341.60618541 353 345 C353.08720306 345.74973083 353.17440613 346.49946167 353.26425171 347.27191162 C355.05619747 363.18284498 355.36075803 378.99962096 355.3125 395 C355.30976578 396.88336563 355.30976578 396.88336563 355.30697632 398.80477905 C355.26159518 417.37896778 354.84972796 435.61438924 352 454 C351.74259033 455.71630615 351.74259033 455.71630615 351.47998047 457.46728516 C345.05479497 499.23960376 332.56182324 539.48569036 313.03613281 576.99707031 C311.93127732 579.13284657 310.85215439 581.28060149 309.7734375 583.4296875 C297.56337213 607.49575669 282.25682296 629.91729064 264.5 650.22900391 C263.34589935 651.59160907 262.22109272 652.97906553 261.109375 654.37646484 C255.54258003 661.35886658 249.57397127 667.73652171 243.24414062 674.01660156 C241.62653713 675.62347307 240.01993087 677.24078494 238.4140625 678.859375 C231.92904191 685.35263167 225.1868808 691.27967916 218 697 C216.89815612 697.934761 215.80182933 698.87612688 214.71484375 699.828125 C190.0955131 721.29645834 161.37619435 737.92499392 132 752 C131.21238281 752.38124023 130.42476562 752.76248047 129.61328125 753.15527344 C114.14257213 760.59680445 98.27067111 766.54953883 82 772 C81.01418945 772.33128906 80.02837891 772.66257812 79.01269531 773.00390625 C44.9246444 784.29963473 8.8022453 790.65530394 -27 793 C-27.81662109 793.05639648 -28.63324219 793.11279297 -29.47460938 793.17089844 C-128.15092633 799.74154366 -229.21195782 777.9214542 -348.5546875 693.0390625 C-360.69994372 682.37510235 -372.52355885 671.32898257 -383 659 C-383.88952965 657.98471636 -384.78025986 656.97048392 -385.671875 655.95703125 C-441.00193568 592.75922784 -474.44838723 510.72297468 -480 427 C-480.05639648 426.15356934 -480.11279297 425.30713867 -480.17089844 424.43505859 C-486.2922436 327.59827588 -460.39501872 228.69018415 -390 140 C-389.38694504 139.26467545 -389.38694504 139.26467545 -388.76150513 138.51449585 C-381.59332825 129.92574963 -374.10266105 121.78336756 -366.16333008 113.90258789 C-364.42745269 112.17751523 -362.7026491 110.44188009 -360.97851562 108.70507812 C-354.29446384 102.01265257 -347.44176215 95.85112211 -340 90 C-338.74513342 88.97542094 -337.49225406 87.94839874 -336.2421875 86.91796875 C-276.62650493 38.36185539 -202.78480683 10.09011367 -127 0 C-125.16526123 -0.2477417 -125.16526123 -0.2477417 -123.29345703 -0.50048828 C-83.06797594 -5.63961369 -40.15740165 -5.66855535 0 0 Z M-200 236 C-200.74507812 236.63550781 -201.49015625 237.27101563 -202.2578125 237.92578125 C-214.66539919 248.79777553 -226.59734162 260.39492899 -236 274 C-236.43086914 274.61891113 -236.86173828 275.23782227 -237.30566406 275.87548828 C-260.44474753 309.46957819 -273.5296649 347.1522531 -275 388 C-275.04125 389.05316406 -275.0825 390.10632812 -275.125 391.19140625 C-276.21895686 448.00879045 -253.77623374 499.59158089 -215.3984375 540.79296875 C-209.64343433 546.68499581 -203.48972631 551.93658716 -197 557 C-195.56140625 558.12921875 -195.56140625 558.12921875 -194.09375 559.28125 C-187.02592326 564.71231687 -179.7421573 569.58606718 -172 574 C-171.26700684 574.42039551 -170.53401367 574.84079102 -169.77880859 575.27392578 C-144.18505821 589.77130429 -115.37710953 599.33877949 -86 602 C-84.32550781 602.16435547 -84.32550781 602.16435547 -82.6171875 602.33203125 C-26.62654803 607.11483075 31.14561891 590.68024223 74.41210938 554.35888672 C79.07112136 550.37179252 83.5657626 546.23487795 88 542 C88.92554688 541.12730469 89.85109375 540.25460937 90.8046875 539.35546875 C124.99507954 506.27892801 148.34335513 456.60184203 149.21530151 408.72364807 C149.22667648 407.64227821 149.22667648 407.64227821 149.23828125 406.5390625 C149.25304001 405.369412 149.25304001 405.369412 149.26809692 404.1761322 C149.87044717 343.93550953 130.72256862 291.67641399 88.4375 248.1875 C83.56624965 243.44743233 78.32988679 239.20968301 73 235 C72.04738281 234.21882813 71.09476563 233.43765625 70.11328125 232.6328125 C32.86611423 202.77784892 -14.85438796 187.51129545 -62.3125 187.625 C-63.1350528 187.62521149 -63.95760559 187.62542297 -64.80508423 187.62564087 C-113.6052954 187.74993435 -162.75230405 203.85563606 -200 236 Z " fill="#EED4F1" transform="translate(1116,2019)"/>
<path d="M0 0 C141.9 0 283.8 0 430 0 C430 58.08 430 116.16 430 176 C353.11 176 276.22 176 197 176 C197 219.56 197 263.12 197 308 C269.6 308 342.2 308 417 308 C417 366.08 417 424.16 417 484 C344.4 484 271.8 484 197 484 C197 528.88 197 573.76 197 620 C273.89 620 350.78 620 430 620 C430 678.41 430 736.82 430 797 C288.1 797 146.2 797 0 797 C0 533.99 0 270.98 0 0 Z " fill="#EED4F1" transform="translate(2717,2016)"/>
<path d="M0 0 C171.27 0 342.54 0 519 0 C519 58.08 519 116.16 519 176 C465.87 176 412.74 176 358 176 C358 380.93 358 585.86 358 797 C292.99 797 227.98 797 161 797 C161 592.07 161 387.14 161 176 C107.87 176 54.74 176 0 176 C0 117.92 0 59.84 0 0 Z " fill="#EED4F1" transform="translate(71,2016)"/>
<path d="M0 0 C1371.81 0 2743.62 0 4157 0 C4157 13.2 4157 26.4 4157 40 C4054.77173601 40.00442231 3952.54347201 40.00871592 3775.72338867 40.01586914 C3774.47979527 40.01591905 3773.23620187 40.01596896 3771.95492382 40.01602038 C3638.12863473 40.02139063 3504.30234563 40.02653953 2973.46583372 40.042239 C2969.03468962 40.04234323 2964.60354551 40.04244766 2960.17240141 40.04255217 C2834.617722 40.04551293 2709.0630426 40.04827978 2583.50836318 40.05078693 C2578.86159052 40.05087972 2574.21481787 40.05097252 2569.56804521 40.05106533 C2568.03329777 40.05109598 2566.49855034 40.05112663 2564.9172954 40.05115821 C2507.20783642 40.05231126 2449.49837743 40.05350863 2391.78891844 40.05473244 C2385.51861786 40.05486537 2379.24831728 40.05499779 2372.9780167 40.05512976 C2224.93287451 40.05824588 2076.88773241 40.06215974 1928.84259033 40.06866455 C1927.28378696 40.06873299 1925.72498359 40.06880142 1924.11894376 40.06887193 C1872.28025724 40.07114901 1820.44157072 40.0735034 1768.60288421 40.07586844 C1721.76506514 40.07800509 1674.92724607 40.08011399 1628.08942699 40.08213139 C1626.5508354 40.08219767 1625.0122438 40.08226395 1623.42702822 40.08233224 C1527.10258615 40.08647458 1430.77814411 40.08941535 1334.45370197 40.09113979 C1332.96649122 40.09116658 1331.47928047 40.09119336 1329.94700273 40.09122096 C1264.63908989 40.09239616 1199.33117705 40.09332053 1134.02326421 40.0939579 C1107.75142148 40.09421546 1081.47957875 40.09451019 1055.20773602 40.09482527 C1050.85158686 40.09487721 1046.4954377 40.09492794 1042.13928853 40.09497854 C975.46540283 40.09576163 908.79151727 40.09737648 842.11763167 40.10139394 C839.95901152 40.10152399 839.95901152 40.10152399 837.75678287 40.10165666 C814.6054832 40.10305652 791.45418354 40.10452544 768.30288387 40.10600626 C702.61538701 40.11020778 636.9278903 40.11394815 571.24039328 40.11413276 C569.24305768 40.11413872 569.24305768 40.11413872 567.20537186 40.11414481 C538.1620708 40.11422158 509.11876975 40.11402546 480.07546869 40.1135619 C468.49395222 40.11338145 456.91243574 40.11323843 445.33091927 40.11310768 C444.06753554 40.11309245 442.80415181 40.11307721 441.50248372 40.11306151 C401.36476178 40.11259547 361.22704083 40.11521731 321.08931914 40.11960873 C281.59783004 40.12391708 242.10634216 40.12522177 202.61485291 40.12209016 C197.2166813 40.1216626 191.81850969 40.12127019 186.42033807 40.12089889 C185.36346012 40.12082487 184.30658216 40.12075084 183.2176776 40.12067457 C166.49615453 40.11959507 149.77463367 40.12187204 133.05311104 40.12555815 C116.72697493 40.12908966 100.40084206 40.12912201 84.07470597 40.12530107 C74.53051693 40.12317463 64.98633753 40.12381108 55.44214933 40.12846097 C49.13592665 40.13126483 42.8297112 40.13050681 36.52348904 40.12673209 C32.94485732 40.12469258 29.36624473 40.12426091 25.78761418 40.12820339 C21.95902023 40.13238836 18.13045593 40.12895398 14.30186154 40.12467116 C13.18534114 40.12713146 12.06882074 40.12959175 10.9184664 40.13212659 C9.402935 40.12853216 9.402935 40.12853216 7.8567868 40.12486512 C6.98436231 40.12489138 6.11193782 40.12491763 5.21307623 40.12494468 C3 40 3 40 0 39 C0 26.13 0 13.26 0 0 Z " fill="#EED4F1" transform="translate(55,3270)"/>
<path d="M0 0 C24.09 0 48.18 0 73 0 C82.77630829 25.48250849 92.51952607 50.9762462 102.1875 76.5 C110.72065976 99.02757148 119.31643306 121.52998142 128 144 C130.09492753 140.85760871 131.34366346 137.90703857 132.75390625 134.40234375 C133.18099632 133.34497009 133.18099632 133.34497009 133.61671448 132.26623535 C134.60189121 129.82461961 135.58211147 127.38104195 136.5625 124.9375 C137.27884042 123.15946824 137.99548741 121.38155996 138.71240234 119.60375977 C140.66764422 114.75231969 142.61921742 109.89941246 144.56970596 105.04605961 C146.68607853 99.78023153 148.80398305 94.51502071 150.92236328 89.25 C151.44204257 87.95838534 151.44204257 87.95838534 151.97222042 86.64067745 C153.79024122 82.12227261 155.60838508 77.60391731 157.42658997 73.08558655 C158.16843069 71.24203659 158.91026722 69.39848495 159.65209961 67.55493164 C160.02140374 66.63717233 160.39070787 65.71941301 160.77120304 64.77384281 C162.99105212 59.25689506 165.20981174 53.73951071 167.42763042 48.22174644 C168.84550505 44.69442293 170.26392325 41.16731814 171.68241692 37.64024353 C172.34394176 35.99498001 173.00522394 34.34961889 173.66623116 32.70414734 C174.59209745 30.39942403 175.5188673 28.09506575 176.44580078 25.79077148 C176.7025335 25.15103362 176.95926622 24.51129576 177.22377872 23.8521719 C180.43278261 15.88060402 183.72782339 7.94671462 187 0 C211.42 0 235.84 0 261 0 C266.27275766 33.43875805 271.44403525 66.88912946 276.47481155 100.36497021 C277.00992728 103.92542733 277.54542654 107.48582658 278.08102417 111.04621124 C279.7665517 122.25153733 281.45079604 133.45705509 283.13304424 144.66287398 C285.05927384 157.49383353 286.99005843 170.32409738 288.92453575 183.15381598 C290.43573297 193.17810747 291.94300621 203.20298402 293.44727516 213.2283175 C294.34006205 219.17779267 295.2344896 225.12700976 296.13305664 231.07561493 C296.97157166 236.62737161 297.8052208 242.17983707 298.63509941 247.73289108 C298.93969261 249.76531185 299.24604033 251.79747056 299.55427742 253.82934189 C299.97461612 256.6019908 300.38860453 259.37551697 300.80102539 262.14935303 C300.92396973 262.95018366 301.04691406 263.75101429 301.17358398 264.57611251 C301.28360245 265.32494523 301.39362091 266.07377796 301.50697327 266.84530258 C301.60288285 267.48330662 301.69879244 268.12131065 301.79760838 268.77864814 C302.07657864 271.84048986 302 274.92547578 302 278 C277.91 278 253.82 278 229 278 C224.81618558 247.42972101 220.86959732 216.83159498 216.95913517 186.22530758 C216.08948679 179.41919795 215.21829587 172.613286 214.34701765 165.80738485 C212.56304397 151.87179878 210.78087433 137.93598247 209 124 C206.4787315 126.5212685 205.47641401 129.31374757 204.15625 132.55859375 C203.8755365 133.23684204 203.594823 133.91509033 203.30560303 134.6138916 C202.69150118 136.09926792 202.0796872 137.58559165 201.46984863 139.07272339 C200.48145067 141.48272873 199.48715897 143.89022481 198.49121094 146.29711914 C197.42882476 148.86480191 196.36683204 151.43264076 195.30657959 154.00120544 C191.31951971 163.6599539 187.28692745 173.29951093 183.25 182.9375 C182.8788205 183.82419373 182.50764099 184.71088745 182.12521362 185.62445068 C173.82449488 205.45274088 165.46368851 225.25559314 157.09130859 245.05371094 C155.47160474 248.88398779 153.8532525 252.71483262 152.23588562 256.5460968 C150.94941387 259.59343827 149.66215318 262.6404463 148.375 265.6875 C147.93164307 266.7381665 147.48828613 267.78883301 147.03149414 268.87133789 C146.63696045 269.80453857 146.24242676 270.73773926 145.8359375 271.69921875 C145.50126465 272.49158936 145.1665918 273.28395996 144.82177734 274.1003418 C144.25213738 275.41714768 143.64163345 276.7167331 143 278 C132.77 278 122.54 278 112 278 C91.33333333 226.33333333 70.66666667 174.66666667 50 123 C48.19292009 130.57639934 46.99172924 138.18207768 45.86108398 145.88574219 C45.6557995 147.2681439 45.45022498 148.65050258 45.24438477 150.03282166 C44.80435815 152.99206028 44.36636295 155.95158963 43.92999077 158.91136932 C43.23968801 163.59343311 42.54482099 168.27481272 41.84938049 172.95611572 C40.75025532 180.35851255 39.65421042 187.76136164 38.55946928 195.16440797 C36.59759254 208.43081632 34.63095279 221.69651872 32.66243988 234.96194386 C31.97218902 239.61429673 31.28344988 244.26687016 30.59596431 248.91963243 C30.16837626 251.81203236 29.73978109 254.70428244 29.31095123 257.59649849 C29.01806498 259.5741479 28.72645861 261.55198672 28.43489075 263.52983093 C28.25970917 264.71009354 28.08452759 265.89035614 27.90403748 267.10638428 C27.75269568 268.12986843 27.60135389 269.15335258 27.44542599 270.20785141 C27.02926424 272.81655736 26.51807845 275.40960774 26 278 C1.91 278 -22.18 278 -47 278 C-45.24887048 265.74209339 -43.49846964 253.52593105 -41.41989136 241.32536316 C-41.18782801 239.96022614 -41.18782801 239.96022614 -40.95107651 238.5675106 C-40.79094196 237.62580828 -40.63080742 236.68410595 -40.46582031 235.71386719 C-40.12183158 233.67883602 -39.77807876 231.64376497 -39.43453979 229.60865784 C-38.5110577 224.14203851 -37.58430147 218.67597903 -36.65689182 213.21002483 C-35.67598682 207.42535366 -34.69813205 201.64016682 -33.71990967 195.8550415 C-32.07413747 186.12458108 -30.42644511 176.39444752 -28.77734375 166.66455078 C-26.47653341 153.089487 -24.17905869 139.51386037 -21.88233805 125.93810415 C-13.608332 77.03388117 -13.608332 77.03388117 -9.49766326 52.82696748 C-8.48241593 46.84711635 -7.47006643 40.86678263 -6.45969796 34.8861053 C-5.80705555 31.02550789 -5.15247802 27.16524031 -4.49743032 23.30505037 C-4.19160477 21.50029503 -3.88660327 19.69539982 -3.58247614 17.89035749 C-3.16773925 15.42947973 -2.75009468 12.96911264 -2.33172607 10.5088501 C-2.21064342 9.78601412 -2.08956077 9.06317815 -1.96480894 8.31843805 C-1.47385601 5.44672526 -0.92326361 2.76979082 0 0 Z " fill="#EED4F1" transform="translate(2859,2950)"/>
<path d="M0 0 C24.09 0 48.18 0 73 0 C77.86485575 5.47296272 82.42038291 10.69370299 86.6875 16.5625 C90.82029901 22.16297251 95.07676966 27.62614865 99.5 33 C104.335043 38.87948699 108.95193637 44.88229927 113.48046875 51 C117.03147296 55.77195316 120.72241762 60.40588556 124.5 65 C129.33472397 70.87975932 133.95192372 76.88228217 138.48046875 83 C142.03147549 87.77195656 145.7224756 92.40583484 149.5 97 C154.35499825 102.90581993 158.9995961 108.93196965 163.55297852 115.07250977 C166.92388337 119.60415334 170.38958899 124.04329829 173.9375 128.4375 C178.73437753 134.37858685 183.41025699 140.40153923 188.02124023 146.48803711 C193.26421372 153.39550143 198.63854262 160.17632697 204 167 C204.33 111.89 204.66 56.78 205 0 C229.09 0 253.18 0 278 0 C278 91.74 278 183.48 278 278 C253.58 278 229.16 278 204 278 C198.11150262 270.93380315 192.31701826 263.92467064 186.76171875 256.61328125 C183.55553606 252.40878036 180.30983012 248.2352578 177.0625 244.0625 C176.46211914 243.29083496 175.86173828 242.51916992 175.24316406 241.72412109 C171.23813331 236.58053282 167.2165657 231.45025512 163.18383789 226.32836914 C158.82991584 220.79415269 154.51128939 215.23267489 150.19140625 209.671875 C146.64109544 205.10386022 143.07906298 200.54551618 139.5 196 C134.70506529 189.91029064 129.94641301 183.79279083 125.19140625 177.671875 C121.64109544 173.10386022 118.07906298 168.54551618 114.5 164 C109.70796699 157.91397587 104.95190637 151.80039926 100.20019531 145.68286133 C95.78656539 140.00343337 91.34781951 134.3445065 86.890625 128.69921875 C82.56089265 123.15833154 78.28744225 117.57367493 74 112 C73.67 166.78 73.34 221.56 73 278 C48.91 278 24.82 278 0 278 C0 186.26 0 94.52 0 0 Z " fill="#EED4F1" transform="translate(3594,2950)"/>
<path d="M0 0 C0.79921875 0.19867676 1.5984375 0.39735352 2.421875 0.60205078 C23.40761221 5.9732086 43.15184791 14.78475462 58 31 C60.40768032 33.41944423 62.82565435 35.82776946 65.25390625 38.2265625 C73.40253945 46.69231679 87 61.76140916 87 74 C64.38602291 83.46526014 41.73223787 92.82219905 19 102 C16.11432505 99.27794838 14.68690611 96.57618154 12.9375 93 C5.39662716 78.86086343 -6.35522091 68.74242353 -21.5 63.5 C-38.24104402 58.42125631 -56.4257931 60.28452889 -71.9375 68.25 C-91.09068311 79.53201197 -102.45410061 97.06676119 -107.9921875 118.3828125 C-113.95453858 143.96893132 -110.32558286 169.37427077 -97 192 C-86.7314911 207.21022881 -72.56470593 217.41862403 -54.68481445 221.53271484 C-41.39024431 223.84660111 -25.38813417 223.64695706 -13 218 C-12.26523438 217.69964844 -11.53046875 217.39929687 -10.7734375 217.08984375 C1.44090244 211.64290837 9.0558807 202.40686976 13.875 190.125 C15.10390361 186.74754969 16.12717183 183.49131266 17 180 C-2.47 180 -21.94 180 -42 180 C-42 161.19 -42 142.38 -42 123 C5.52 123 53.04 123 102 123 C102 170.61795562 95.23852628 210.65305974 62 246 C61.4740625 246.59039063 60.948125 247.18078125 60.40625 247.7890625 C39.91118994 269.85262205 7.60832565 282.60509233 -22.12068176 284.10714722 C-24.36864858 284.16338652 -26.61464459 284.1907791 -28.86328125 284.203125 C-29.69474167 284.20882507 -30.52620209 284.21452515 -31.38285828 284.22039795 C-33.13844556 284.22979484 -34.89405005 284.23636064 -36.6496582 284.24023438 C-39.26742647 284.2498347 -41.88437198 284.28086461 -44.50195312 284.3125 C-80.9478382 284.54177346 -116.03685185 272.93011153 -143 248 C-143.51159668 247.53223145 -144.02319336 247.06446289 -144.55029297 246.58251953 C-169.24963537 223.76324125 -185.77354313 189.89209884 -187.16113281 156.07275391 C-187.18061589 154.70742403 -187.19440403 153.34200353 -187.203125 151.9765625 C-187.21018463 151.23731537 -187.21724426 150.49806824 -187.22451782 149.73641968 C-187.45024711 119.17395723 -187.45024711 119.17395723 -184 106 C-183.81195801 105.23478027 -183.62391602 104.46956055 -183.43017578 103.68115234 C-174.50180526 68.03159653 -153.01973464 36.83407914 -121.33984375 17.77734375 C-107.03056878 9.36385679 -92.12215869 3.82831536 -76 0 C-75.32710937 -0.16661133 -74.65421875 -0.33322266 -73.9609375 -0.50488281 C-51.39210473 -5.84838587 -22.46644131 -5.74566847 0 0 Z " fill="#EED4F1" transform="translate(4105,2947)"/>
<path d="M0 0 C148.17090909 0 148.17090909 0 168 19 C182.23268657 33.84484513 186.16674843 52.74868678 186.25 72.625 C186.2809375 74.43677734 186.2809375 74.43677734 186.3125 76.28515625 C186.38288281 92.6315649 181.34002888 107.37917892 170.91015625 120.08984375 C167.6706134 123.3293866 163.95164089 125.71503758 160 128 C161.19625 128.37125 162.3925 128.7425 163.625 129.125 C181.19203536 135.06354183 195.71168438 142.76285544 204.6875 159.5 C214.0977094 179.02209142 215.45957492 203.06228075 209.12890625 223.796875 C208.75636719 224.85390625 208.38382813 225.9109375 208 227 C207.69964844 227.93328125 207.39929687 228.8665625 207.08984375 229.828125 C204.79640917 236.30136891 201.20066981 241.60654741 197 247 C196.41476563 247.763125 195.82953125 248.52625 195.2265625 249.3125 C184.7928351 261.99145988 169.87732754 269.10078124 154.4375 273.75 C153.77782227 273.94883789 153.11814453 274.14767578 152.43847656 274.35253906 C103.54433931 288.23723561 50.82736917 278 0 278 C0 186.26 0 94.52 0 0 Z M73 56 C73 73.49 73 90.98 73 109 C93.10871155 109.989253 93.10871155 109.989253 111 102 C117.22281553 95.68678037 119.85455302 89.91589992 120 81 C119.33689784 73.76727459 116.6085916 67.71472664 111.5390625 62.49609375 C100.83880491 53.75320035 85.72130926 56 73 56 Z M73 163 C73 182.14 73 201.28 73 221 C80.54875 221.061875 80.54875 221.061875 88.25 221.125 C89.81137695 221.14320801 91.37275391 221.16141602 92.98144531 221.18017578 C105.93005591 221.23112868 120.83447896 220.91147941 131.23828125 212.10546875 C136.62763393 206.26979287 138.86292438 199.96409376 139 192 C138.28486982 182.92844118 135.58519328 176.66667494 129.25 170.1875 C120.97544236 164.6180862 111.46946045 163.90214505 101.75 163.4375 C100.97398437 163.39431641 100.19796875 163.35113281 99.3984375 163.30664062 C90.57846434 162.86842429 81.86593872 163 73 163 Z " fill="#EED4F1" transform="translate(3206,2950)"/>
<path d="M0 0 C0.7264975 0.00215515 1.452995 0.0043103 2.20150757 0.00653076 C19.24487429 0.08755472 53.92836911 1.42836911 66.8125 14.3125 C66.90764592 17.02088086 66.93804932 19.70368513 66.92602539 22.41235352 C66.92617142 23.26106018 66.92631744 24.10976685 66.9264679 24.98419189 C66.92576848 27.80328891 66.91797478 30.62232071 66.91015625 33.44140625 C66.90829217 35.39053817 66.90686822 37.33967055 66.90586853 39.2888031 C66.90204255 44.42956832 66.89221159 49.57030547 66.88116455 54.71105957 C66.87095215 59.95255148 66.86637128 65.1940479 66.86132812 70.43554688 C66.85058939 80.72787694 66.83351201 91.02018614 66.8125 101.3125 C63.46498191 100.19666064 62.88327967 99.42839291 60.75 96.75 C49.55589129 83.72117223 32.7957792 74.86082508 15.8125 72.3125 C-6.75260415 70.90108593 -27.02730405 73.05341206 -44.8828125 88.19921875 C-60.14491374 102.19378955 -69.00229525 121.45977418 -70.14453125 142.19726562 C-70.56561619 162.92612882 -63.34139724 183.06593205 -49.1875 198.3125 C-34.17122995 212.98326295 -13.78724887 217.97578874 6.6105957 217.78100586 C25.69755364 217.22832537 42.58491128 209.97086937 56.8125 197.3125 C58.16659137 196.18740937 59.52075075 195.06240059 60.875 193.9375 C63.79675785 191.65143665 63.79675785 191.65143665 64.8125 189.3125 C65.4725 189.3125 66.1325 189.3125 66.8125 189.3125 C66.8125 218.0225 66.8125 246.7325 66.8125 276.3125 C19.92896742 291.94034419 -24.94846344 295.89031782 -70.1875 273.3125 C-79.99899248 268.34277144 -88.76199956 262.35208945 -97.1875 255.3125 C-97.95707031 254.67272217 -97.95707031 254.67272217 -98.7421875 254.02001953 C-125.21788499 231.7021489 -142.16786417 197.53226212 -146.1875 163.3125 C-146.50642435 157.83030654 -146.57757177 152.36538759 -146.5625 146.875 C-146.56195618 146.12782715 -146.56141235 145.3806543 -146.56085205 144.61083984 C-146.51928875 132.15382125 -145.55575535 120.36285648 -142.1875 108.3125 C-141.86604004 107.14726807 -141.86604004 107.14726807 -141.53808594 105.95849609 C-130.84239353 68.44572921 -105.61831605 36.70994231 -71.703125 17.69921875 C-49.33162374 5.62114364 -25.36820722 -0.13578117 0 0 Z " fill="#EED4F1" transform="translate(2386.1875,2944.6875)"/>
<path d="M0 0 C24.09 0 48.18 0 73 0 C73 71.28 73 142.56 73 216 C101.38 216 129.76 216 159 216 C159 236.46 159 256.92 159 278 C106.53 278 54.06 278 0 278 C0 186.26 0 94.52 0 0 Z " fill="#EED4F1" transform="translate(2498,2950)"/>
<path d="M0 0 C24.09 0 48.18 0 73 0 C73 91.74 73 183.48 73 278 C48.91 278 24.82 278 0 278 C0 186.26 0 94.52 0 0 Z " fill="#EED4F1" transform="translate(3464,2950)"/>
<path d="M0 0 C24.09 0 48.18 0 73 0 C73 91.74 73 183.48 73 278 C48.91 278 24.82 278 0 278 C0 186.26 0 94.52 0 0 Z " fill="#EED4F1" transform="translate(2694,2950)"/>
<path d="M0 0 C5.33134465 4.93540714 9.57109739 10.95557093 11.26171875 18.09375 C13.62602982 15.86353419 15.44284837 13.48783811 17.32421875 10.84375 C25.53705157 0.2598483 38.32973622 -5.67372682 51.42578125 -7.625 C67.79874038 -9.24876454 83.78419463 -6.43730188 97.07421875 3.78125 C108.040755 14.05234736 112.50623717 29.29328094 113.43960953 43.87236786 C113.50420576 46.64590162 113.50981088 49.41233624 113.48876953 52.18652344 C113.48906158 53.22215424 113.48935364 54.25778503 113.48965454 55.32479858 C113.48827654 58.70099679 113.47278828 62.07696601 113.45703125 65.453125 C113.45329567 67.81251912 113.45045128 70.1719148 113.44845581 72.53131104 C113.44086227 78.70601777 113.42125098 84.88062867 113.39904785 91.05529785 C113.37849674 97.37018539 113.36943437 103.68508858 113.359375 110 C113.33800068 122.36463196 113.30285386 134.72916797 113.26171875 147.09375 C100.72171875 147.09375 88.18171875 147.09375 75.26171875 147.09375 C75.25237305 143.90477051 75.24302734 140.71579102 75.23339844 137.43017578 C75.19957355 126.87289013 75.14399371 116.31579882 75.07781601 105.7586689 C75.03837136 99.36026129 75.00616787 92.96199069 74.99072266 86.56347656 C74.97553659 80.38413517 74.94105547 74.20517053 74.89340973 68.02599716 C74.87861621 65.67303626 74.87067891 63.32002157 74.8698349 60.96701431 C74.86745749 57.66136138 74.84031374 54.35674307 74.80761719 51.05126953 C74.81264755 50.08669327 74.81767792 49.122117 74.82286072 48.12831116 C74.71638382 41.13285999 73.53393921 33.93324288 68.85003281 28.43733406 C63.37510184 23.61628136 57.37738923 22.22164604 50.26171875 22.09375 C43.30250676 22.63368886 37.33797315 25.28311356 32.26171875 30.09375 C26.86719331 38.12131762 26.11426159 45.6161872 26.05639648 55.0246582 C26.04649689 56.02025253 26.03659729 57.01584686 26.02639771 58.04161072 C25.99486032 61.32589353 25.97005592 64.61019081 25.9453125 67.89453125 C25.92473628 70.17425407 25.90373963 72.45397312 25.88233948 74.73368835 C25.82718788 80.72922723 25.7777481 86.72480014 25.72949219 92.72039795 C25.6792267 98.8403221 25.62356699 104.96019692 25.56835938 111.08007812 C25.46086232 123.08459481 25.35989714 135.08915348 25.26171875 147.09375 C13.05171875 147.09375 0.84171875 147.09375 -11.73828125 147.09375 C-11.76801025 142.59077271 -11.76801025 142.59077271 -11.79833984 137.99682617 C-11.86540936 128.0502736 -11.94304616 118.10382339 -12.02580833 108.15738964 C-12.07563856 102.13009608 -12.1219694 96.10281892 -12.16015625 90.07543945 C-12.19717716 84.2527991 -12.24358188 78.4303006 -12.29634476 72.60778236 C-12.31479971 70.39240331 -12.32994007 68.17699394 -12.34162521 65.96156883 C-12.35864078 62.84557105 -12.38771128 59.72989188 -12.41943359 56.61401367 C-12.42159378 55.70913712 -12.42375397 54.80426056 -12.42597961 53.8719635 C-12.54676285 44.51363285 -13.05327556 34.26955358 -19.73828125 27.09375 C-25.9985458 22.48233457 -33.07139577 21.51318298 -40.61328125 22.65625 C-48.5055896 24.46540991 -57.15137487 29.26316208 -61.73828125 36.09375 C-62.61302222 39.71734828 -62.55588704 43.25046294 -62.51123047 46.96435547 C-62.5218602 48.04787796 -62.53248993 49.13140045 -62.54344177 50.24775696 C-62.57148447 53.81929016 -62.5574344 57.38934464 -62.54296875 60.9609375 C-62.5542189 63.44102265 -62.56809953 65.92109715 -62.58450317 68.40115356 C-62.62056597 74.92127318 -62.62091134 81.44092412 -62.61383057 87.96112061 C-62.60969588 94.61738119 -62.64576858 101.27350986 -62.67578125 107.9296875 C-62.72966731 120.98447999 -62.74270172 134.0388469 -62.73828125 147.09375 C-74.94828125 147.09375 -87.15828125 147.09375 -99.73828125 147.09375 C-99.73828125 96.93375 -99.73828125 46.77375 -99.73828125 -4.90625 C-90.49828125 -4.90625 -81.25828125 -4.90625 -71.73828125 -4.90625 C-67.87186765 -1.0398364 -67.16513004 -0.09901492 -65.98828125 4.84375 C-65.7459375 5.82859375 -65.50359375 6.8134375 -65.25390625 7.828125 C-65.08375 8.57578125 -64.91359375 9.3234375 -64.73828125 10.09375 C-64.20460938 9.58585937 -63.6709375 9.07796875 -63.12109375 8.5546875 C-45.99869789 -7.26427338 -20.38442687 -15.49347743 0 0 Z " fill="#EED4F1" transform="translate(727.73828125,3080.90625)"/>
<path d="M0 0 C12.21 0 24.42 0 37 0 C37.33 27.06 37.66 54.12 38 82 C41.3 79.36 44.6 76.72 48 74 C61.73602258 65.21653833 78.25218567 62.82618638 94.11962891 66.08056641 C106.2399893 68.90531155 115.74717118 74.78878048 123 85 C129.80177361 96.16109215 132.48136153 107.56697076 132.34057617 120.55175781 C132.34101425 121.63615646 132.34145233 122.72055511 132.34190369 123.83781433 C132.33983506 127.37644269 132.31659544 130.91458073 132.29296875 134.453125 C132.28736595 136.92461895 132.28309909 139.39611626 132.28010559 141.86761475 C132.26871077 148.33829116 132.23929003 154.80876208 132.20599365 161.27935791 C132.17517672 167.89584576 132.1615755 174.51236716 132.14648438 181.12890625 C132.11441493 194.08604181 132.0616911 207.04297158 132 220 C119.79 220 107.58 220 95 220 C94.9906543 216.87684326 94.98130859 213.75368652 94.97167969 210.53588867 C94.93783686 200.19015156 94.88224714 189.84461237 94.81609726 179.49903393 C94.77667251 173.22957027 94.74445931 166.96024603 94.72900391 160.69067383 C94.71380467 154.63451784 94.67930039 148.57874525 94.63169098 142.52276039 C94.61691098 140.2180751 94.60896094 137.91333506 94.60811615 135.60860252 C94.60573463 132.36780815 94.57855846 129.1280632 94.54589844 125.88745117 C94.5509288 124.94517166 94.55595917 124.00289215 94.56114197 123.03205872 C94.44736981 115.68368679 93.21499206 107.71743041 88.2604332 101.98857403 C82.6081754 96.82519641 76.55259722 95.11709453 69 95 C62.37546476 95.52222614 56.39408362 97.10048273 50.6401062 100.47058105 C48 102 48 102 45.37234497 103.15734863 C41.93277635 105.09685598 40.20329025 106.68343053 38 110 C36.02010189 118.02043984 36.69808439 126.65069459 36.8046875 134.84375 C36.80089851 137.29855383 36.79270765 139.75335447 36.78030396 142.20812988 C36.75952424 148.65310667 36.7983838 155.09638633 36.84979248 161.5411377 C36.89170669 168.12379948 36.87704539 174.70631067 36.8671875 181.2890625 C36.85618005 194.19334541 36.91342568 207.0960024 37 220 C24.79 220 12.58 220 0 220 C0 147.4 0 74.8 0 0 Z " fill="#EED4F1" transform="translate(1114,3008)"/>
<path d="M0 0 C0.70382812 0.50917969 1.40765625 1.01835937 2.1328125 1.54296875 C16.64049782 13.06377768 23.95394274 32.07581764 26.3984375 49.90625 C26.67902829 52.60598837 26.86915832 55.28912391 27 58 C27.04125 58.76183594 27.0825 59.52367188 27.125 60.30859375 C27.69431298 81.40875599 22.64710046 102.19157176 8.5625 118.3125 C7.05899683 119.89168286 5.53911432 121.45550416 4 123 C3.38640625 123.63679688 2.7728125 124.27359375 2.140625 124.9296875 C-8.75244783 135.40379599 -26.02855465 141.3572188 -41 142 C-42.06089844 142.0515625 -43.12179687 142.103125 -44.21484375 142.15625 C-66.0157686 142.70527644 -86.54027898 137.15600146 -102.6875 121.875 C-118.23147526 105.64363068 -124.20449418 84.73148702 -124.3125 62.6875 C-123.78457248 40.60253224 -117.59385732 20.16786433 -102 4 C-74.26002471 -20.40511488 -29.65862092 -21.9279312 0 0 Z M-74.5625 24.5625 C-84.02989643 35.85216078 -85.35243427 49.11986025 -85.3125 63.3125 C-85.32861328 64.44623047 -85.34472656 65.57996094 -85.36132812 66.74804688 C-85.36889763 80.03252899 -83.00190558 93.18120543 -73.890625 103.35546875 C-65.83739085 110.97827142 -56.82846826 113.451507 -45.84375 113.26953125 C-37.01253479 112.43250673 -29.27440637 109.68872157 -22.93359375 103.3828125 C-10.98225304 88.65489769 -10.52478359 68.80052389 -12.2109375 50.74072266 C-13.61426032 39.50085102 -17.51190119 28.18236256 -26.07421875 20.3984375 C-40.71631644 9.76583917 -62.19593724 11.55903272 -74.5625 24.5625 Z " fill="#EED4F1" transform="translate(312,3088)"/>
<path d="M0 0 C1.18752289 1.16664337 2.35445467 2.35461207 3.5 3.5625 C4.16128906 4.19285156 4.82257813 4.82320312 5.50390625 5.47265625 C18.29771431 18.46067771 22.26161715 37.10247937 22.6875 54.75 C22.62080487 58.9918104 22.19125665 62.61623448 20.5 66.5625 C16.05495998 70.27157415 11.71291947 69.97125099 6.21166992 69.90307617 C5.28435059 69.90351425 4.35703125 69.90395233 3.40161133 69.90440369 C0.34434773 69.90231795 -2.71236374 69.87899675 -5.76953125 69.85546875 C-7.89230551 69.84987204 -10.01508364 69.8456023 -12.13786316 69.84260559 C-17.71925596 69.83116278 -23.30041377 69.80170024 -28.88171387 69.76849365 C-34.57931337 69.73778074 -40.27695092 69.72409763 -45.97460938 69.70898438 C-57.1498427 69.67683018 -68.3249018 69.62564046 -79.5 69.5625 C-78.88945166 72.44556123 -78.27119477 75.32660474 -77.6484375 78.20703125 C-77.39211548 79.42332214 -77.39211548 79.42332214 -77.13061523 80.66418457 C-75.7857128 86.84164435 -73.97279154 92.2252599 -70.5 97.5625 C-70.09394531 98.20316406 -69.68789063 98.84382813 -69.26953125 99.50390625 C-63.83952558 106.8766119 -54.13027477 111.00880388 -45.25 112.375 C-32.32383169 113.25632966 -22.0611904 110.32262018 -10.6015625 104.640625 C-9.93962891 104.31723145 -9.27769531 103.99383789 -8.59570312 103.66064453 C-7.31684047 103.0291348 -6.04649507 102.37995793 -4.78710938 101.71044922 C-0.31042938 99.47088071 2.67617901 99.33451147 7.5 100.5625 C9.9375 102.5 9.9375 102.5 12.5 105.5625 C13.19996094 106.35914062 13.89992188 107.15578125 14.62109375 107.9765625 C20.50513904 114.89057066 20.50513904 114.89057066 20.484375 117.60546875 C15.55038658 127.41470764 2.18532852 133.92314222 -7.87011719 137.37646484 C-16.52061838 140.04355996 -25.41523403 142.34857301 -34.5 142.5625 C-35.59957031 142.61277344 -36.69914063 142.66304687 -37.83203125 142.71484375 C-59.31806315 143.27730532 -79.3928813 137.5030516 -95.53125 122.6875 C-112.36133293 104.5216962 -118.33907853 80.55017139 -117.4140625 56.31054688 C-116.17177554 35.72146741 -108.35783165 15.99768641 -92.7109375 2.08203125 C-66.8602111 -18.27797358 -26.23869046 -21.98515275 0 0 Z M-67.5 21.5625 C-68.04269531 22.05363281 -68.58539063 22.54476562 -69.14453125 23.05078125 C-75.1928331 29.22158035 -78.5 38.03481664 -78.5 46.5625 C-56.39 46.5625 -34.28 46.5625 -11.5 46.5625 C-12.51294588 35.42009527 -14.07185073 27.23090156 -22.4375 19.5 C-35.62274253 9.17783871 -55.34113092 10.05939015 -67.5 21.5625 Z " fill="#EED4F1" transform="translate(579.5,3087.4375)"/>
<path d="M0 0 C0 15.84 0 31.68 0 48 C13.53 48 27.06 48 41 48 C41 56.91 41 65.82 41 75 C27.47 75 13.94 75 0 75 C0.09082868 89.75893551 0.09082868 89.75893551 0.20898438 104.51757812 C0.26325678 110.53944525 0.31436896 116.56122031 0.34643555 122.58325195 C0.37249736 127.43985902 0.41292031 132.29615598 0.46318626 137.15257072 C0.47983549 139.00281853 0.49136186 140.85311994 0.49761391 142.70343208 C0.50727617 145.30074483 0.53536047 147.89726773 0.56762695 150.49438477 C0.56619186 151.25467987 0.56475677 152.01497498 0.5632782 152.79830933 C0.66367138 158.53463035 1.69726245 163.5327812 5.75 167.875 C9.03238347 169.51619173 11.29578118 169.94025454 15 170 C17.6140647 169.11345508 20.10959974 168.04243637 22.6484375 166.9609375 C25.87646743 165.64184221 27.58976662 165.01482147 31 166 C33.77571751 168.71219995 35.86831737 171.76916851 38 175 C38.598125 175.88558594 39.19625 176.77117188 39.8125 177.68359375 C44.02383447 184.24430695 44.02383447 184.24430695 43.93359375 187.10546875 C41.06257117 192.93160244 31.36030507 196.02100432 25.546875 198.1875 C11.56343835 202.64847365 -4.21360241 202.83528168 -17.71875 196.78125 C-26.7007666 191.91148196 -31.68126648 184.87476658 -35.2734375 175.45703125 C-37.00726765 169.59370242 -37.13948769 163.92994994 -37.11352539 157.87353516 C-37.11367142 156.97533051 -37.11381744 156.07712585 -37.1139679 155.15170288 C-37.11327398 152.19746443 -37.10550605 149.24328987 -37.09765625 146.2890625 C-37.09579022 144.23497553 -37.09436719 142.18088811 -37.09336853 140.12680054 C-37.08955794 134.73129031 -37.07974012 129.33580717 -37.06866455 123.94030762 C-37.05841906 118.43026089 -37.05386419 112.92020977 -37.04882812 107.41015625 C-37.03811653 96.60675896 -37.02105764 85.80338174 -37 75 C-38.25296875 75.03480469 -39.5059375 75.06960937 -40.796875 75.10546875 C-42.44790324 75.13361128 -44.09894601 75.16091094 -45.75 75.1875 C-46.575 75.21263672 -47.4 75.23777344 -48.25 75.26367188 C-54.38469725 75.33788192 -54.38469725 75.33788192 -57.53163147 73.60980225 C-61.01004692 69.79634473 -60.11838875 64.61662018 -60.0625 59.75 C-60.05798828 59.00492188 -60.05347656 58.25984375 -60.04882812 57.4921875 C-60.03709246 55.6614236 -60.0191585 53.83070127 -60 52 C-51.81572054 49.79654015 -43.50560048 47.915972 -35 48 C-34.89300781 46.68644531 -34.78601563 45.37289062 -34.67578125 44.01953125 C-33.99325001 37.23605525 -32.81277266 30.54894889 -31.58081055 23.84838867 C-31.31719576 22.40006187 -31.06042645 20.95047341 -30.81030273 19.49975586 C-30.44410997 17.37583782 -30.05834795 15.25630831 -29.66796875 13.13671875 C-29.44391357 11.88592529 -29.2198584 10.63513184 -28.98901367 9.34643555 C-27.91139051 5.70018014 -26.65475103 3.69706278 -24 1 C-16.40394839 -1.5320172 -8.00694143 0 0 0 Z " fill="#EED4F1" transform="translate(409,3029)"/>
<path d="M0 0 C0 15.84 0 31.68 0 48 C13.2 48 26.4 48 40 48 C40 56.91 40 65.82 40 75 C26.8 75 13.6 75 0 75 C0.06172415 90.11444265 0.06172415 90.11444265 0.16015625 105.22851562 C0.20846129 111.39526642 0.25251723 117.56183807 0.27099609 123.72875977 C0.28616843 128.70213495 0.3206245 133.67504072 0.36830902 138.64820671 C0.38311682 140.54310966 0.39104067 142.43807962 0.39188385 144.33304024 C0.39425707 146.99279627 0.42136469 149.6512588 0.45410156 152.31079102 C0.4490712 153.0897876 0.44404083 153.86878418 0.43885803 154.67138672 C0.54345543 160.18393094 1.85872131 163.44827793 5 168 C8.61103016 170.16799899 12.47522996 170.31522811 16.55078125 169.47265625 C20.59383579 168.30917577 20.59383579 168.30917577 24 166 C27.125 165.3125 27.125 165.3125 31 166 C33.87892115 168.99084465 35.88304179 172.44601777 38 176 C38.59683594 176.91910156 39.19367188 177.83820312 39.80859375 178.78515625 C42.97978341 183.75799177 42.97978341 183.75799177 44 186 C42.33760401 190.98718796 37.59412663 192.6787453 33.1484375 195.05859375 C19.13515096 201.97869416 1.6346582 203.39195666 -13.3203125 199.03515625 C-21.8466633 195.74144931 -29.19578258 189.65957559 -33.28515625 181.40625 C-35.37855485 176.30405986 -37.12760241 171.46742341 -37.12025452 165.91241455 C-37.12162918 165.10757126 -37.12300385 164.30272797 -37.12442017 163.47349548 C-37.12082489 162.59955643 -37.11722961 161.72561737 -37.11352539 160.82519531 C-37.11367142 159.898022 -37.11381744 158.97084869 -37.1139679 158.01557922 C-37.11327162 154.95307063 -37.10549249 151.89062296 -37.09765625 148.828125 C-37.09579106 146.7039188 -37.09436763 144.57971216 -37.09336853 142.45550537 C-37.08955131 136.86597505 -37.07972778 131.27647073 -37.06866455 125.68695068 C-37.05843337 119.98271028 -37.05386725 114.27846568 -37.04882812 108.57421875 C-37.03810482 97.38280108 -37.02103791 86.1914027 -37 75 C-38.24136719 75.05800781 -39.48273438 75.11601562 -40.76171875 75.17578125 C-42.40360814 75.22269238 -44.04553832 75.26819109 -45.6875 75.3125 C-46.50412109 75.35439453 -47.32074219 75.39628906 -48.16210938 75.43945312 C-52.62778816 75.52985148 -54.40849586 75.4622412 -58.04655457 72.61921692 C-60.07113403 69.90462214 -60.60731857 68.88345613 -60.48828125 65.57421875 C-60.47216797 64.77822266 -60.45605469 63.98222656 -60.43945312 63.16210938 C-60.39755859 62.34548828 -60.35566406 61.52886719 -60.3125 60.6875 C-60.28994141 59.85154297 -60.26738281 59.01558594 -60.24414062 58.15429688 C-60.1855061 56.10208851 -60.09583215 54.05080798 -60 52 C-52.09409267 49.85881676 -44.05223842 48.4658201 -36 47 C-35.77860352 45.74864258 -35.55720703 44.49728516 -35.32910156 43.20800781 C-34.50258931 38.56084067 -33.65531672 33.91765948 -32.80175781 29.27539062 C-32.43541238 27.26665051 -32.07468604 25.25687708 -31.71972656 23.24609375 C-31.2081555 20.3538596 -30.67640881 17.46595893 -30.140625 14.578125 C-29.98627991 13.68007141 -29.83193481 12.78201782 -29.6729126 11.85675049 C-28.77383178 7.12935478 -28.12372826 3.93935742 -24 1 C-16.40394839 -1.5320172 -8.00694143 0 0 0 Z " fill="#EED4F1" transform="translate(135,3029)"/>
<path d="M0 0 C1.36102121 1.30505817 2.70611246 2.62835479 4 4 C2.52260227 8.32039013 0.30953519 11.55636154 -2.4375 15.1875 C-3.21996094 16.23292969 -4.00242187 17.27835938 -4.80859375 18.35546875 C-7.4926731 21.5945449 -9.00016027 22.88594061 -13.21875 23.3671875 C-17.79615099 22.92268782 -20.61001815 21.44294795 -24.5 19.125 C-35.41252319 12.75748647 -46.90853571 10.90198793 -59.375 14.0625 C-67.69950832 17.04936677 -73.50454691 22.50048562 -77.71875 30.19140625 C-81.31411893 38.07271801 -83.65393234 46.33388902 -84 55 C-84.0515625 55.95003906 -84.103125 56.90007813 -84.15625 57.87890625 C-84.59707396 72.84855315 -81.89612532 89.08966446 -72.19921875 100.953125 C-64.04835305 108.5393659 -54.35518632 110.39119136 -43.66015625 110.26953125 C-34.21177819 109.57375955 -27.3916131 105.26806555 -19.921875 99.70703125 C-16.45150025 97.67955295 -14.01367961 97.08626687 -10 97 C-5.28856922 98.87466841 -2.61646224 102.5117541 0.375 106.4375 C0.83777344 107.01048828 1.30054688 107.58347656 1.77734375 108.17382812 C5.0090023 112.3653375 5.0090023 112.3653375 4.96875 115.203125 C-0.62231168 125.57364263 -14.41881527 132.11069966 -25 136 C-44.60720357 141.62886227 -67.48148406 142.84601157 -86 133 C-104.66631112 121.82311678 -115.47675885 105.77364787 -121 85 C-126.64541065 61.56120079 -123.19515933 36.08327372 -111.9375 14.9375 C-102.44073062 -0.55615177 -87.56427995 -10.62619503 -70 -15 C-44.59154719 -20.61762489 -20.55452213 -15.9583026 0 0 Z " fill="#EED4F1" transform="translate(1087,3090)"/>
<path d="M0 0 C4.81424829 5.03816682 7.2908732 10.46897758 7.78515625 17.44921875 C7.48308427 24.75936068 5.01089552 30.84399751 -0.3125 35.8125 C-6.4211939 40.05313349 -13.31286032 41.60017126 -20.66796875 40.44140625 C-27.98964281 38.41250862 -33.35839581 33.98791931 -37.3125 27.5625 C-39.13368459 20.7330578 -39.42122352 13.32840478 -36.55078125 6.73046875 C-33.16242711 1.48226092 -28.41330295 -2.31820223 -22.6875 -4.6875 C-14.04539487 -5.96781187 -7.29921846 -4.82023861 0 0 Z " fill="#EED4F1" transform="translate(921.3125,3189.1875)"/>
</svg>
