<?xml version="1.0" encoding="UTF-8" standalone="no"?>
<svg
   xmlns:dc="http://purl.org/dc/elements/1.1/"
   xmlns:cc="http://creativecommons.org/ns#"
   xmlns:rdf="http://www.w3.org/1999/02/22-rdf-syntax-ns#"
   xmlns:svg="http://www.w3.org/2000/svg"
   xmlns="http://www.w3.org/2000/svg"
   viewBox="0 0 53.921333 46.260799"
   height="46.260799"
   width="53.921333"
   xml:space="preserve"
   id="svg2"
   version="1.1"><metadata
     id="metadata8"><rdf:RDF><cc:Work
         rdf:about=""><dc:format>image/svg+xml</dc:format><dc:type
           rdf:resource="http://purl.org/dc/dcmitype/StillImage" /></cc:Work></rdf:RDF></metadata><defs
     id="defs6"><clipPath
       id="clipPath28"
       clipPathUnits="userSpaceOnUse"><path
         id="path26"
         d="M 0,34.696 H 40.441 V 0 H 0 Z" /></clipPath></defs><g
     transform="matrix(1.3333333,0,0,-1.3333333,0,46.2608)"
     id="g10"><g
       transform="translate(37.2717,3.6556)"
       id="g12"><path
         id="path14"
         style="fill:#ed1c24;fill-opacity:1;fill-rule:nonzero;stroke:none"
         d="m 0,0 -32.94,-1.258 -1.079,28.235 32.941,1.258 z" /></g><path
       id="path16"
       style="fill:#ffffff;fill-opacity:1;fill-rule:nonzero;stroke:none"
       d="M 35.374,4.191 H 5.149 v 25.907 h 30.225 z" /><g
       transform="translate(9.5403,14.3201)"
       id="g18"><path
         id="path20"
         style="fill:#ed1c24;fill-opacity:1;fill-rule:nonzero;stroke:none"
         d="M 0,0 -0.154,1.032 -0.73,0 Z M 0.15,1.503 0.538,-0.82 H 0.125 L 0.051,-0.336 H -0.917 L -1.186,-0.82 h -0.439 l 1.35,2.323 z" /></g><g
       id="g22"><g
         clip-path="url(#clipPath28)"
         id="g24"><g
           transform="translate(10.9485,15.012)"
           id="g30"><path
             id="path32"
             style="fill:#ed1c24;fill-opacity:1;fill-rule:nonzero;stroke:none"
             d="M 0,0 C 0.106,0.132 0.282,0.25 0.535,0.25 0.85,0.25 1.029,0.09 1.029,-0.234 1.029,-0.308 1.02,-0.388 1,-0.48 L 0.782,-1.512 H 0.4 l 0.212,0.996 c 0.016,0.074 0.026,0.141 0.026,0.196 0,0.167 -0.074,0.256 -0.246,0.256 -0.286,0 -0.455,-0.218 -0.527,-0.561 l -0.188,-0.887 h -0.382 l 0.365,1.724 h 0.385 z" /></g><g
           transform="translate(13.2415,13.9549)"
           id="g34"><path
             id="path36"
             style="fill:#ed1c24;fill-opacity:1;fill-rule:nonzero;stroke:none"
             d="m 0,0 c 0,-0.138 0.119,-0.202 0.24,-0.202 0.321,0 0.455,0.173 0.52,0.477 L 0.779,0.353 C 0.173,0.282 0,0.179 0,0 M 1.234,0.804 C 1.234,0.743 1.228,0.676 1.208,0.599 1.186,0.503 1.132,0.272 1.1,0.115 1.052,-0.103 1.02,-0.311 1.01,-0.455 H 0.654 L 0.692,-0.25 C 0.545,-0.433 0.355,-0.497 0.129,-0.497 c -0.279,0 -0.539,0.151 -0.539,0.449 0,0.439 0.442,0.583 1.237,0.666 l 0.016,0.074 c 0.01,0.036 0.012,0.067 0.012,0.096 0,0.183 -0.163,0.25 -0.345,0.25 -0.196,0 -0.353,-0.102 -0.388,-0.31 H -0.246 C -0.179,1.093 0.125,1.32 0.552,1.32 0.92,1.32 1.234,1.182 1.234,0.804" /></g><g
           transform="translate(15.4446,14.9803)"
           id="g38"><path
             id="path40"
             style="fill:#ed1c24;fill-opacity:1;fill-rule:nonzero;stroke:none"
             d="m 0,0 c -0.16,0 -0.298,-0.064 -0.298,-0.183 0,-0.102 0.09,-0.17 0.231,-0.208 l 0.202,-0.054 c 0.32,-0.09 0.557,-0.215 0.557,-0.523 0,-0.375 -0.362,-0.554 -0.727,-0.554 -0.426,0 -0.77,0.228 -0.776,0.647 h 0.369 c 0.004,-0.211 0.144,-0.365 0.414,-0.365 0.182,0 0.333,0.071 0.333,0.231 0,0.125 -0.122,0.195 -0.283,0.24 l -0.214,0.058 c -0.283,0.077 -0.471,0.211 -0.471,0.496 0,0.343 0.355,0.497 0.695,0.497 0.33,0 0.711,-0.163 0.743,-0.574 H 0.407 C 0.397,-0.08 0.208,0 0,0" /></g><g
           transform="translate(17.1477,14.9803)"
           id="g42"><path
             id="path44"
             style="fill:#ed1c24;fill-opacity:1;fill-rule:nonzero;stroke:none"
             d="m 0,0 c -0.16,0 -0.298,-0.064 -0.298,-0.183 0,-0.102 0.09,-0.17 0.231,-0.208 l 0.202,-0.054 c 0.32,-0.09 0.557,-0.215 0.557,-0.523 0,-0.375 -0.362,-0.554 -0.727,-0.554 -0.426,0 -0.77,0.228 -0.776,0.647 h 0.369 c 0.004,-0.211 0.144,-0.365 0.414,-0.365 0.182,0 0.333,0.071 0.333,0.231 0,0.125 -0.122,0.195 -0.283,0.24 l -0.214,0.058 c -0.283,0.077 -0.471,0.211 -0.471,0.496 0,0.343 0.355,0.497 0.695,0.497 0.33,0 0.711,-0.163 0.743,-0.574 H 0.407 C 0.397,-0.08 0.208,0 0,0" /></g><g
           transform="translate(18.8382,13.7688)"
           id="g46"><path
             id="path48"
             style="fill:#ed1c24;fill-opacity:1;fill-rule:nonzero;stroke:none"
             d="M 0,0 C 0.343,0 0.545,0.391 0.545,0.75 0.545,1 0.438,1.183 0.18,1.183 -0.163,1.183 -0.365,0.792 -0.365,0.433 -0.365,0.183 -0.26,0 0,0 m -0.042,-0.311 c -0.42,0 -0.718,0.263 -0.718,0.728 0,0.49 0.33,1.076 0.981,1.076 0.42,0 0.717,-0.263 0.717,-0.727 0,-0.49 -0.33,-1.077 -0.98,-1.077" /></g><g
           transform="translate(20.3616,14.221)"
           id="g50"><path
             id="path52"
             style="fill:#ed1c24;fill-opacity:1;fill-rule:nonzero;stroke:none"
             d="m 0,0 c -0.007,-0.305 0.122,-0.446 0.353,-0.446 0.217,0 0.384,0.106 0.467,0.314 H 1.195 C 1.038,-0.577 0.66,-0.763 0.308,-0.763 c -0.453,0 -0.715,0.292 -0.703,0.724 0.014,0.439 0.292,1.08 1,1.08 0.417,0 0.68,-0.275 0.67,-0.628 H 0.91 C 0.91,0.583 0.805,0.724 0.561,0.724 0.17,0.724 0.013,0.282 0,0" /></g><g
           transform="translate(22.5071,15.4383)"
           id="g54"><path
             id="path56"
             style="fill:#ed1c24;fill-opacity:1;fill-rule:nonzero;stroke:none"
             d="m 0,0 h -0.382 l 0.08,0.385 H 0.08 Z m -0.417,-1.938 h -0.378 l 0.365,1.724 h 0.381 z" /></g><g
           transform="translate(22.9563,13.9549)"
           id="g58"><path
             id="path60"
             style="fill:#ed1c24;fill-opacity:1;fill-rule:nonzero;stroke:none"
             d="m 0,0 c 0,-0.138 0.118,-0.202 0.24,-0.202 0.321,0 0.455,0.173 0.519,0.477 L 0.778,0.353 C 0.173,0.282 0,0.179 0,0 M 1.233,0.804 C 1.233,0.743 1.227,0.676 1.208,0.599 1.186,0.503 1.131,0.272 1.099,0.115 1.051,-0.103 1.019,-0.311 1.009,-0.455 H 0.653 L 0.692,-0.25 C 0.545,-0.433 0.355,-0.497 0.128,-0.497 c -0.278,0 -0.538,0.151 -0.538,0.449 0,0.439 0.442,0.583 1.236,0.666 l 0.017,0.074 c 0.01,0.036 0.012,0.067 0.012,0.096 0,0.183 -0.163,0.25 -0.346,0.25 -0.196,0 -0.352,-0.102 -0.388,-0.31 H -0.247 C -0.18,1.093 0.125,1.32 0.551,1.32 0.919,1.32 1.233,1.182 1.233,0.804" /></g><g
           transform="translate(25.2483,15.679)"
           id="g62"><path
             id="path64"
             style="fill:#ed1c24;fill-opacity:1;fill-rule:nonzero;stroke:none"
             d="M 0,0 -0.099,-0.455 H 0.247 L 0.189,-0.731 H -0.16 L -0.358,-1.67 c -0.01,-0.041 -0.013,-0.077 -0.013,-0.105 0,-0.09 0.048,-0.113 0.17,-0.113 h 0.138 l -0.062,-0.291 h -0.278 c -0.279,0 -0.378,0.057 -0.378,0.234 0,0.057 0.01,0.131 0.028,0.217 l 0.212,0.997 h -0.253 l 0.058,0.276 H -0.48 L -0.381,0 Z" /></g><g
           transform="translate(26.2717,15.4383)"
           id="g66"><path
             id="path68"
             style="fill:#ed1c24;fill-opacity:1;fill-rule:nonzero;stroke:none"
             d="m 0,0 h -0.381 l 0.08,0.385 H 0.08 Z m -0.416,-1.938 h -0.379 l 0.365,1.724 h 0.382 z" /></g><g
           transform="translate(27.0989,13.7688)"
           id="g70"><path
             id="path72"
             style="fill:#ed1c24;fill-opacity:1;fill-rule:nonzero;stroke:none"
             d="M 0,0 C 0.344,0 0.545,0.391 0.545,0.75 0.545,1 0.439,1.183 0.18,1.183 -0.163,1.183 -0.365,0.792 -0.365,0.433 -0.365,0.183 -0.259,0 0,0 m -0.041,-0.311 c -0.42,0 -0.718,0.263 -0.718,0.728 0,0.49 0.33,1.076 0.981,1.076 0.42,0 0.717,-0.263 0.717,-0.727 0,-0.49 -0.33,-1.077 -0.98,-1.077" /></g><g
           transform="translate(28.8567,15.012)"
           id="g74"><path
             id="path76"
             style="fill:#ed1c24;fill-opacity:1;fill-rule:nonzero;stroke:none"
             d="M 0,0 C 0.106,0.132 0.282,0.25 0.535,0.25 0.85,0.25 1.029,0.09 1.029,-0.234 1.029,-0.308 1.02,-0.388 1,-0.48 L 0.782,-1.512 H 0.4 l 0.212,0.996 c 0.016,0.074 0.026,0.141 0.026,0.196 0,0.167 -0.074,0.256 -0.246,0.256 -0.286,0 -0.455,-0.218 -0.527,-0.561 l -0.188,-0.887 h -0.382 l 0.365,1.724 h 0.385 z" /></g><g
           transform="translate(9.1975,11.3807)"
           id="g78"><path
             id="path80"
             style="fill:#ed1c24;fill-opacity:1;fill-rule:nonzero;stroke:none"
             d="m 0,0 c -0.282,0 -0.43,-0.131 -0.51,-0.497 l -0.182,-0.858 h -0.382 l 0.365,1.724 h 0.375 L -0.392,0.09 c 0.129,0.182 0.315,0.282 0.533,0.282 0.029,0 0.057,-0.003 0.087,-0.007 L 0.147,-0.01 C 0.093,-0.003 0.045,0 0,0" /></g><g
           transform="translate(10.7424,11.0569)"
           id="g82"><path
             id="path84"
             style="fill:#ed1c24;fill-opacity:1;fill-rule:nonzero;stroke:none"
             d="m 0,0 c 0.003,0.026 0.007,0.051 0.007,0.074 0.013,0.227 -0.135,0.359 -0.35,0.359 -0.212,0 -0.435,-0.1 -0.538,-0.433 z m -1.333,-0.355 c 0.02,0.605 0.42,1.085 1.022,1.085 0.446,0 0.702,-0.278 0.689,-0.701 0,-0.096 -0.019,-0.199 -0.054,-0.308 h -1.275 c -0.004,-0.016 -0.004,-0.032 -0.004,-0.048 -0.006,-0.25 0.135,-0.429 0.414,-0.429 0.211,0 0.349,0.073 0.441,0.24 h 0.366 c -0.161,-0.356 -0.487,-0.557 -0.869,-0.557 -0.49,0 -0.743,0.304 -0.73,0.718" /></g><g
           transform="translate(11.7063,10.7464)"
           id="g86"><path
             id="path88"
             style="fill:#ed1c24;fill-opacity:1;fill-rule:nonzero;stroke:none"
             d="m 0,0 c -0.007,-0.305 0.121,-0.446 0.352,-0.446 0.218,0 0.384,0.106 0.468,0.314 H 1.194 C 1.038,-0.577 0.659,-0.763 0.308,-0.763 c -0.453,0 -0.715,0.292 -0.703,0.724 0.013,0.439 0.292,1.08 1,1.08 0.416,0 0.679,-0.275 0.669,-0.628 H 0.909 c 0,0.17 -0.105,0.311 -0.348,0.311 C 0.169,0.724 0.013,0.282 0,0" /></g><g
           transform="translate(13.8694,10.2942)"
           id="g90"><path
             id="path92"
             style="fill:#ed1c24;fill-opacity:1;fill-rule:nonzero;stroke:none"
             d="M 0,0 C 0.344,0 0.545,0.391 0.545,0.75 0.545,1 0.439,1.183 0.18,1.183 -0.163,1.183 -0.365,0.792 -0.365,0.433 -0.365,0.183 -0.259,0 0,0 m -0.041,-0.311 c -0.42,0 -0.718,0.263 -0.718,0.728 0,0.49 0.33,1.076 0.981,1.076 0.42,0 0.717,-0.263 0.717,-0.727 0,-0.49 -0.33,-1.077 -0.98,-1.077" /></g><g
           transform="translate(15.7844,10.3904)"
           id="g94"><path
             id="path96"
             style="fill:#ed1c24;fill-opacity:1;fill-rule:nonzero;stroke:none"
             d="m 0,0 c 0.34,0 0.494,0.378 0.494,0.676 0,0.237 -0.129,0.41 -0.382,0.41 -0.345,0 -0.487,-0.352 -0.487,-0.65 C -0.375,0.17 -0.253,0 0,0 m -0.125,-0.308 c -0.445,0 -0.641,0.359 -0.641,0.728 0,0.513 0.311,0.977 0.85,0.977 0.233,0 0.429,-0.099 0.516,-0.323 L 0.66,1.359 H 1.022 L 0.695,-0.186 c -0.118,-0.567 -0.348,-0.782 -0.868,-0.782 -0.378,0 -0.64,0.17 -0.676,0.529 h 0.356 c 0.013,-0.141 0.128,-0.221 0.349,-0.221 0.263,0 0.381,0.109 0.442,0.41 l 0.029,0.145 C 0.244,-0.208 0.093,-0.308 -0.125,-0.308" /></g><g
           transform="translate(17.5872,11.5374)"
           id="g98"><path
             id="path100"
             style="fill:#ed1c24;fill-opacity:1;fill-rule:nonzero;stroke:none"
             d="M 0,0 C 0.105,0.132 0.282,0.25 0.535,0.25 0.849,0.25 1.028,0.09 1.028,-0.234 1.028,-0.308 1.019,-0.388 1,-0.48 L 0.781,-1.512 H 0.4 l 0.212,0.996 c 0.016,0.074 0.026,0.141 0.026,0.196 0,0.167 -0.075,0.256 -0.247,0.256 -0.286,0 -0.455,-0.218 -0.526,-0.561 l -0.189,-0.887 h -0.381 l 0.365,1.724 h 0.385 z" /></g><g
           transform="translate(19.5696,11.9637)"
           id="g102"><path
             id="path104"
             style="fill:#ed1c24;fill-opacity:1;fill-rule:nonzero;stroke:none"
             d="m 0,0 h -0.382 l 0.08,0.385 H 0.08 Z m -0.417,-1.938 h -0.378 l 0.365,1.724 h 0.381 z" /></g><g
           transform="translate(20.678,11.4285)"
           id="g106"><path
             id="path108"
             style="fill:#ed1c24;fill-opacity:1;fill-rule:nonzero;stroke:none"
             d="m 0,0 h -0.836 l 0.067,0.321 H 0.567 L 0.503,0.02 -0.628,-1.083 h 0.923 l -0.067,-0.32 h -1.419 l 0.063,0.304 z" /></g><g
           transform="translate(22.5706,11.0569)"
           id="g110"><path
             id="path112"
             style="fill:#ed1c24;fill-opacity:1;fill-rule:nonzero;stroke:none"
             d="m 0,0 c 0.003,0.026 0.006,0.051 0.006,0.074 0.013,0.227 -0.135,0.359 -0.349,0.359 -0.212,0 -0.436,-0.1 -0.539,-0.433 z m -1.333,-0.355 c 0.019,0.605 0.419,1.085 1.021,1.085 0.446,0 0.703,-0.278 0.69,-0.701 0,-0.096 -0.02,-0.199 -0.055,-0.308 h -1.275 c -0.003,-0.016 -0.003,-0.032 -0.003,-0.048 -0.007,-0.25 0.135,-0.429 0.413,-0.429 0.212,0 0.35,0.073 0.442,0.24 h 0.366 c -0.161,-0.356 -0.488,-0.557 -0.869,-0.557 -0.49,0 -0.743,0.304 -0.73,0.718" /></g><g
           transform="translate(23.5364,10.7366)"
           id="g114"><path
             id="path116"
             style="fill:#ed1c24;fill-opacity:1;fill-rule:nonzero;stroke:none"
             d="m 0,0 c 0,-0.279 0.115,-0.442 0.353,-0.442 0.336,0 0.519,0.375 0.519,0.717 C 0.872,0.554 0.747,0.74 0.503,0.74 0.154,0.74 0,0.308 0,0 m 0.25,-0.753 c -0.458,0 -0.644,0.349 -0.644,0.737 0,0.541 0.318,1.067 0.866,1.067 0.233,0 0.416,-0.115 0.503,-0.323 L 1.163,1.612 H 1.545 L 1.052,-0.711 H 0.67 l 0.038,0.179 C 0.605,-0.676 0.437,-0.753 0.25,-0.753" /></g><g
           transform="translate(9.5364,7.5603)"
           id="g118"><path
             id="path120"
             style="fill:#ed1c24;fill-opacity:1;fill-rule:nonzero;stroke:none"
             d="m 0,0 c 0,0.279 -0.115,0.442 -0.355,0.442 -0.333,0 -0.516,-0.375 -0.516,-0.717 0,-0.279 0.125,-0.465 0.368,-0.465 C -0.153,-0.74 0,-0.311 0,0 m -0.249,0.753 c 0.458,0 0.644,-0.343 0.644,-0.731 0,-0.541 -0.318,-1.073 -0.866,-1.073 -0.233,0 -0.413,0.115 -0.5,0.324 l -0.06,-0.282 h -0.382 l 0.494,2.323 h 0.381 L -0.704,0.532 c 0.102,0.144 0.268,0.221 0.455,0.221" /></g><g
           transform="translate(11.72,8.2752)"
           id="g122"><path
             id="path124"
             style="fill:#ed1c24;fill-opacity:1;fill-rule:nonzero;stroke:none"
             d="M 0,0 -0.958,-1.721 C -1.227,-2.198 -1.297,-2.285 -1.669,-2.285 H -1.881 L -1.819,-2 h 0.125 c 0.163,0 0.175,0.003 0.31,0.244 L -1.352,-1.699 -1.627,0 h 0.391 L -1.054,-1.256 -0.41,0 Z" /></g><g
           transform="translate(13.2151,8.7298)"
           id="g126"><path
             id="path128"
             style="fill:#ed1c24;fill-opacity:1;fill-rule:nonzero;stroke:none"
             d="M 0,0 -0.099,-0.455 H 0.247 L 0.189,-0.73 H -0.16 l -0.198,-0.939 c -0.01,-0.042 -0.013,-0.077 -0.013,-0.106 0,-0.09 0.048,-0.112 0.17,-0.112 h 0.138 l -0.062,-0.292 h -0.278 c -0.279,0 -0.378,0.058 -0.378,0.234 0,0.058 0.01,0.132 0.028,0.218 l 0.212,0.997 h -0.253 l 0.058,0.275 H -0.48 L -0.381,0 Z" /></g><g
           transform="translate(14.1487,8.0638)"
           id="g130"><path
             id="path132"
             style="fill:#ed1c24;fill-opacity:1;fill-rule:nonzero;stroke:none"
             d="m 0,0 c 0.106,0.131 0.282,0.25 0.535,0.25 0.318,0 0.497,-0.161 0.497,-0.484 0,-0.074 -0.01,-0.157 -0.029,-0.247 L 0.785,-1.513 H 0.4 l 0.212,0.997 c 0.016,0.074 0.026,0.141 0.026,0.195 0,0.167 -0.074,0.257 -0.246,0.257 -0.286,0 -0.455,-0.218 -0.527,-0.561 l -0.188,-0.888 h -0.382 l 0.494,2.324 h 0.384 z" /></g><g
           transform="translate(16.7141,7.5828)"
           id="g134"><path
             id="path136"
             style="fill:#ed1c24;fill-opacity:1;fill-rule:nonzero;stroke:none"
             d="m 0,0 c 0.003,0.026 0.007,0.051 0.007,0.074 0.013,0.227 -0.135,0.359 -0.35,0.359 -0.212,0 -0.435,-0.1 -0.538,-0.433 z m -1.333,-0.355 c 0.02,0.605 0.42,1.085 1.022,1.085 0.446,0 0.702,-0.278 0.689,-0.701 0,-0.096 -0.019,-0.199 -0.054,-0.308 h -1.275 c -0.004,-0.016 -0.004,-0.032 -0.004,-0.048 -0.006,-0.25 0.135,-0.429 0.414,-0.429 0.211,0 0.349,0.073 0.441,0.24 h 0.366 c -0.161,-0.356 -0.487,-0.557 -0.869,-0.557 -0.49,0 -0.743,0.304 -0.73,0.718" /></g><g
           transform="translate(20.0393,8.8743)"
           id="g138"><path
             id="path140"
             style="fill:#ed1c24;fill-opacity:1;fill-rule:nonzero;stroke:none"
             d="m 0,0 -0.07,-0.34 h -1.231 l -0.135,-0.621 h 1.164 L -0.343,-1.298 H -1.51 L -1.653,-1.98 h 1.236 L -0.49,-2.323 H -2.131 L -1.638,0 Z" /></g><g
           transform="translate(20.9124,7.7625)"
           id="g142"><path
             id="path144"
             style="fill:#ed1c24;fill-opacity:1;fill-rule:nonzero;stroke:none"
             d="m 0,0 c 0.33,0 0.642,0.093 0.642,0.48 0,0.286 -0.242,0.305 -0.495,0.305 h -0.32 L -0.34,0 Z m 1.074,0.519 c 0,-0.666 -0.507,-0.852 -1.157,-0.852 H -0.41 l -0.186,-0.878 h -0.407 l 0.494,2.323 h 0.727 c 0.449,0 0.856,-0.1 0.856,-0.593" /></g><g
           transform="translate(24.0383,8.8743)"
           id="g146"><path
             id="path148"
             style="fill:#ed1c24;fill-opacity:1;fill-rule:nonzero;stroke:none"
             d="m 0,0 -0.073,-0.34 h -1.208 l -0.135,-0.621 h 1.141 l -0.071,-0.337 h -1.14 L -1.705,-2.323 H -2.111 L -1.618,0 Z" /></g><g
           transform="translate(25.4309,6.8938)"
           id="g150"><path
             id="path152"
             style="fill:#ed1c24;fill-opacity:1;fill-rule:nonzero;stroke:none"
             d="m 0,0 -0.074,-0.343 h -1.573 l 0.494,2.323 h 0.406 L -1.167,0 Z" /></g><g
           transform="translate(8.8382,26.7215)"
           id="g154"><path
             id="path156"
             style="fill:#ed1c24;fill-opacity:1;fill-rule:nonzero;stroke:none"
             d="m 0,0 c 0,-0.426 0.112,-0.66 0.545,-0.66 0.427,0 0.542,0.246 0.542,0.673 V 1.372 H 1.493 V 0.029 c 0,-0.734 -0.271,-1.022 -0.948,-1.022 -0.666,0 -0.951,0.259 -0.951,1.009 v 1.356 l 0.406,0 z" /></g><g
           transform="translate(11.638,27.532)"
           id="g158"><path
             id="path160"
             style="fill:#ed1c24;fill-opacity:1;fill-rule:nonzero;stroke:none"
             d="M 0,0 C 0.416,0 0.586,-0.269 0.586,-0.679 V -1.762 H 0.205 v 0.99 c 0,0.234 -0.035,0.461 -0.327,0.461 -0.291,0 -0.4,-0.224 -0.4,-0.535 v -0.916 h -0.381 v 1.724 h 0.381 V -0.279 C -0.423,-0.099 -0.24,0 0,0" /></g><g
           transform="translate(13.7932,26.8016)"
           id="g162"><path
             id="path164"
             style="fill:#ed1c24;fill-opacity:1;fill-rule:nonzero;stroke:none"
             d="M 0,0 C -0.01,0.269 -0.215,0.433 -0.439,0.433 -0.619,0.433 -0.865,0.327 -0.897,0 Z m -0.43,-0.756 c 0.2,0 0.356,0.08 0.423,0.24 h 0.375 c -0.08,-0.276 -0.336,-0.557 -0.782,-0.557 -0.554,0 -0.871,0.423 -0.871,0.916 0,0.519 0.355,0.887 0.846,0.887 0.529,0 0.859,-0.429 0.827,-1.009 h -1.285 c 0.025,-0.32 0.25,-0.477 0.467,-0.477" /></g><g
           transform="translate(15.5354,26.2537)"
           id="g166"><path
             id="path168"
             style="fill:#ed1c24;fill-opacity:1;fill-rule:nonzero;stroke:none"
             d="m 0,0 c 0,-0.151 0.125,-0.24 0.316,-0.24 0.283,0 0.45,0.144 0.45,0.435 V 0.327 C 0.221,0.275 0,0.199 0,0 m 0.756,0.593 v 0.032 c 0,0.294 -0.17,0.384 -0.36,0.384 -0.191,0 -0.335,-0.102 -0.345,-0.31 h -0.375 c 0.025,0.352 0.317,0.593 0.734,0.593 0.413,0 0.736,-0.19 0.727,-0.741 0,-0.087 -0.006,-0.288 -0.006,-0.445 0,-0.218 0.019,-0.446 0.051,-0.59 H 0.833 C 0.82,-0.41 0.807,-0.369 0.801,-0.25 0.691,-0.436 0.486,-0.525 0.233,-0.525 c -0.375,0 -0.637,0.201 -0.637,0.515 0,0.43 0.529,0.539 1.16,0.603" /></g><g
           transform="translate(17.6643,27.2405)"
           id="g170"><path
             id="path172"
             style="fill:#ed1c24;fill-opacity:1;fill-rule:nonzero;stroke:none"
             d="m 0,0 c -0.167,0 -0.32,-0.074 -0.32,-0.189 0,-0.115 0.083,-0.176 0.23,-0.205 l 0.243,-0.048 c 0.35,-0.067 0.616,-0.176 0.616,-0.513 0,-0.358 -0.34,-0.557 -0.731,-0.557 -0.423,0 -0.705,0.24 -0.746,0.567 h 0.371 c 0.035,-0.177 0.164,-0.279 0.388,-0.279 0.199,0 0.346,0.083 0.346,0.224 0,0.141 -0.128,0.206 -0.298,0.237 l -0.259,0.052 c -0.292,0.057 -0.52,0.189 -0.52,0.503 0,0.304 0.327,0.5 0.702,0.5 0.336,0 0.644,-0.164 0.714,-0.51 H 0.378 C 0.336,-0.061 0.192,0 0,0" /></g><g
           transform="translate(19.3508,27.2405)"
           id="g174"><path
             id="path176"
             style="fill:#ed1c24;fill-opacity:1;fill-rule:nonzero;stroke:none"
             d="m 0,0 c -0.166,0 -0.32,-0.074 -0.32,-0.189 0,-0.115 0.083,-0.176 0.23,-0.205 l 0.244,-0.048 c 0.349,-0.067 0.616,-0.176 0.616,-0.513 0,-0.358 -0.34,-0.557 -0.731,-0.557 -0.423,0 -0.705,0.24 -0.747,0.567 h 0.372 c 0.035,-0.177 0.163,-0.279 0.388,-0.279 0.198,0 0.345,0.083 0.345,0.224 0,0.141 -0.127,0.206 -0.297,0.237 l -0.26,0.052 c -0.291,0.057 -0.519,0.189 -0.519,0.503 0,0.304 0.326,0.5 0.701,0.5 0.337,0 0.645,-0.164 0.715,-0.51 H 0.378 C 0.337,-0.061 0.192,0 0,0" /></g><g
           transform="translate(21.637,26.6287)"
           id="g178"><path
             id="path180"
             style="fill:#ed1c24;fill-opacity:1;fill-rule:nonzero;stroke:none"
             d="m 0,0 c 0,0.397 -0.214,0.593 -0.454,0.593 -0.241,0 -0.455,-0.196 -0.455,-0.593 0,-0.397 0.214,-0.59 0.455,-0.59 C -0.214,-0.59 0,-0.397 0,0 m -0.454,-0.9 c -0.42,0 -0.85,0.278 -0.85,0.9 0,0.622 0.43,0.903 0.85,0.903 0.419,0 0.849,-0.281 0.849,-0.903 0,-0.622 -0.43,-0.9 -0.849,-0.9" /></g><g
           transform="translate(23.4944,26.9041)"
           id="g182"><path
             id="path184"
             style="fill:#ed1c24;fill-opacity:1;fill-rule:nonzero;stroke:none"
             d="m 0,0 c -0.032,0.183 -0.192,0.311 -0.401,0.311 -0.237,0 -0.452,-0.176 -0.452,-0.583 0,-0.411 0.218,-0.587 0.443,-0.587 0.185,0 0.375,0.084 0.423,0.315 h 0.371 c -0.076,-0.404 -0.433,-0.632 -0.801,-0.632 -0.5,0 -0.83,0.388 -0.83,0.901 0,0.512 0.333,0.903 0.846,0.903 0.375,0 0.709,-0.243 0.772,-0.628 z" /></g><path
           id="path186"
           style="fill:#ed1c24;fill-opacity:1;fill-rule:nonzero;stroke:none"
           d="m 24.557,25.77 h -0.382 v 1.724 h 0.382 z m 0,1.938 h -0.382 v 0.385 h 0.382 z" /><g
           transform="translate(25.2883,26.2537)"
           id="g188"><path
             id="path190"
             style="fill:#ed1c24;fill-opacity:1;fill-rule:nonzero;stroke:none"
             d="m 0,0 c 0,-0.151 0.125,-0.24 0.316,-0.24 0.283,0 0.45,0.144 0.45,0.435 V 0.327 C 0.221,0.275 0,0.199 0,0 m 0.756,0.593 v 0.032 c 0,0.294 -0.17,0.384 -0.36,0.384 -0.191,0 -0.335,-0.102 -0.345,-0.31 h -0.375 c 0.025,0.352 0.317,0.593 0.734,0.593 0.413,0 0.736,-0.19 0.727,-0.741 0,-0.087 -0.006,-0.288 -0.006,-0.445 0,-0.218 0.019,-0.446 0.051,-0.59 H 0.833 C 0.82,-0.41 0.807,-0.369 0.801,-0.25 0.691,-0.436 0.486,-0.525 0.233,-0.525 c -0.375,0 -0.637,0.201 -0.637,0.515 0,0.43 0.529,0.539 1.16,0.603" /></g><g
           transform="translate(27.2473,27.9485)"
           id="g192"><path
             id="path194"
             style="fill:#ed1c24;fill-opacity:1;fill-rule:nonzero;stroke:none"
             d="M 0,0 V -0.455 H 0.346 V -0.73 H 0 V -1.669 C 0,-1.846 0.042,-1.887 0.205,-1.887 H 0.343 V -2.179 H 0.061 c -0.369,0 -0.443,0.099 -0.443,0.452 v 0.997 h -0.256 v 0.275 h 0.256 V 0 Z" /></g><path
           id="path196"
           style="fill:#ed1c24;fill-opacity:1;fill-rule:nonzero;stroke:none"
           d="m 28.283,25.77 h -0.382 v 1.724 h 0.382 z m 0,1.938 h -0.382 v 0.385 h 0.382 z" /><g
           transform="translate(29.9016,26.6287)"
           id="g198"><path
             id="path200"
             style="fill:#ed1c24;fill-opacity:1;fill-rule:nonzero;stroke:none"
             d="m 0,0 c 0,0.397 -0.214,0.593 -0.454,0.593 -0.241,0 -0.455,-0.196 -0.455,-0.593 0,-0.397 0.214,-0.59 0.455,-0.59 C -0.214,-0.59 0,-0.397 0,0 m -0.454,-0.9 c -0.42,0 -0.85,0.278 -0.85,0.9 0,0.622 0.43,0.903 0.85,0.903 0.419,0 0.849,-0.281 0.849,-0.903 0,-0.622 -0.43,-0.9 -0.849,-0.9" /></g><g
           transform="translate(31.5149,27.532)"
           id="g202"><path
             id="path204"
             style="fill:#ed1c24;fill-opacity:1;fill-rule:nonzero;stroke:none"
             d="M 0,0 C 0.417,0 0.587,-0.269 0.587,-0.679 V -1.762 H 0.205 v 0.99 c 0,0.234 -0.035,0.461 -0.326,0.461 -0.292,0 -0.4,-0.224 -0.4,-0.535 v -0.916 h -0.382 v 1.724 h 0.382 V -0.279 C -0.423,-0.099 -0.24,0 0,0" /></g><g
           transform="translate(9.2073,23.6409)"
           id="g206"><path
             id="path208"
             style="fill:#ed1c24;fill-opacity:1;fill-rule:nonzero;stroke:none"
             d="M 0,0 C -0.24,0 -0.378,-0.096 -0.378,-0.442 V -1.346 H -0.76 v 1.724 h 0.375 V 0.071 c 0.093,0.192 0.26,0.307 0.468,0.31 0.029,0 0.07,-0.003 0.1,-0.006 V -0.009 C 0.118,-0.003 0.058,0 0,0" /></g><g
           transform="translate(10.762,23.327)"
           id="g210"><path
             id="path212"
             style="fill:#ed1c24;fill-opacity:1;fill-rule:nonzero;stroke:none"
             d="M 0,0 C -0.01,0.269 -0.215,0.433 -0.438,0.433 -0.618,0.433 -0.865,0.327 -0.896,0 Z m -0.429,-0.756 c 0.199,0 0.356,0.08 0.423,0.24 h 0.375 c -0.08,-0.276 -0.337,-0.557 -0.782,-0.557 -0.555,0 -0.872,0.423 -0.872,0.916 0,0.519 0.356,0.887 0.847,0.887 0.528,0 0.858,-0.429 0.826,-1.009 h -1.284 c 0.025,-0.32 0.249,-0.477 0.467,-0.477" /></g><g
           transform="translate(12.6126,23.4295)"
           id="g214"><path
             id="path216"
             style="fill:#ed1c24;fill-opacity:1;fill-rule:nonzero;stroke:none"
             d="m 0,0 c -0.032,0.183 -0.192,0.311 -0.4,0.311 -0.238,0 -0.453,-0.176 -0.453,-0.583 0,-0.411 0.218,-0.587 0.443,-0.587 0.185,0 0.375,0.084 0.423,0.315 h 0.372 c -0.077,-0.404 -0.433,-0.632 -0.801,-0.632 -0.5,0 -0.83,0.388 -0.83,0.901 0,0.512 0.333,0.903 0.846,0.903 0.375,0 0.708,-0.243 0.772,-0.628 z" /></g><g
           transform="translate(14.4885,23.1541)"
           id="g218"><path
             id="path220"
             style="fill:#ed1c24;fill-opacity:1;fill-rule:nonzero;stroke:none"
             d="m 0,0 c 0,0.397 -0.214,0.593 -0.454,0.593 -0.241,0 -0.455,-0.196 -0.455,-0.593 0,-0.397 0.214,-0.59 0.455,-0.59 C -0.214,-0.59 0,-0.397 0,0 m -0.454,-0.9 c -0.42,0 -0.85,0.278 -0.85,0.9 0,0.622 0.43,0.903 0.85,0.903 0.419,0 0.849,-0.281 0.849,-0.903 0,-0.622 -0.43,-0.9 -0.849,-0.9" /></g><g
           transform="translate(16.1018,24.0574)"
           id="g222"><path
             id="path224"
             style="fill:#ed1c24;fill-opacity:1;fill-rule:nonzero;stroke:none"
             d="M 0,0 C 0.417,0 0.587,-0.269 0.587,-0.679 V -1.762 H 0.205 v 0.99 c 0,0.234 -0.035,0.461 -0.326,0.461 -0.292,0 -0.4,-0.224 -0.4,-0.535 v -0.916 h -0.382 v 1.724 h 0.382 V -0.279 C -0.423,-0.099 -0.24,0 0,0" /></g><g
           transform="translate(17.9915,24.0574)"
           id="g226"><path
             id="path228"
             style="fill:#ed1c24;fill-opacity:1;fill-rule:nonzero;stroke:none"
             d="M 0,0 C 0.416,0 0.586,-0.269 0.586,-0.679 V -1.762 H 0.205 v 0.99 c 0,0.234 -0.035,0.461 -0.327,0.461 -0.291,0 -0.4,-0.224 -0.4,-0.535 v -0.916 h -0.381 v 1.724 h 0.381 V -0.279 C -0.423,-0.099 -0.24,0 0,0" /></g><g
           transform="translate(19.5305,22.2537)"
           id="g230"><path
             id="path232"
             style="fill:#ed1c24;fill-opacity:1;fill-rule:nonzero;stroke:none"
             d="m 0,0 c -0.41,0 -0.576,0.269 -0.576,0.679 v 1.087 h 0.381 V 0.772 c 0,-0.234 0.032,-0.461 0.317,-0.461 0.285,0 0.388,0.224 0.388,0.535 v 0.92 H 0.891 V 0.042 H 0.51 V 0.279 C 0.41,0.099 0.234,0 0,0" /></g><g
           transform="translate(22.0217,23.327)"
           id="g234"><path
             id="path236"
             style="fill:#ed1c24;fill-opacity:1;fill-rule:nonzero;stroke:none"
             d="M 0,0 C -0.01,0.269 -0.215,0.433 -0.438,0.433 -0.618,0.433 -0.865,0.327 -0.896,0 Z m -0.429,-0.756 c 0.199,0 0.356,0.08 0.423,0.24 h 0.375 c -0.08,-0.276 -0.337,-0.557 -0.782,-0.557 -0.555,0 -0.872,0.423 -0.872,0.916 0,0.519 0.356,0.887 0.847,0.887 0.528,0 0.858,-0.429 0.826,-1.009 h -1.284 c 0.025,-0.32 0.249,-0.477 0.467,-0.477" /></g><g
           transform="translate(9.6848,19.6829)"
           id="g238"><path
             id="path240"
             style="fill:#ed1c24;fill-opacity:1;fill-rule:nonzero;stroke:none"
             d="m 0,0 c 0,0.362 -0.16,0.59 -0.427,0.59 -0.25,0 -0.445,-0.193 -0.445,-0.59 0,-0.397 0.195,-0.593 0.445,-0.593 C -0.16,-0.593 0,-0.365 0,0 m -0.855,0.631 c 0.102,0.17 0.281,0.269 0.512,0.269 0.419,0 0.74,-0.349 0.74,-0.9 0,-0.554 -0.321,-0.903 -0.74,-0.903 -0.231,0 -0.41,0.099 -0.512,0.269 v -0.788 h -0.382 v 2.284 h 0.382 z" /></g><g
           transform="translate(10.6799,19.305)"
           id="g242"><path
             id="path244"
             style="fill:#ed1c24;fill-opacity:1;fill-rule:nonzero;stroke:none"
             d="m 0,0 c 0,-0.15 0.125,-0.24 0.316,-0.24 0.283,0 0.45,0.144 0.45,0.435 V 0.327 C 0.221,0.275 0,0.199 0,0 m 0.756,0.593 v 0.032 c 0,0.294 -0.17,0.384 -0.36,0.384 -0.191,0 -0.335,-0.102 -0.345,-0.31 h -0.375 c 0.025,0.352 0.317,0.593 0.734,0.593 0.413,0 0.736,-0.19 0.727,-0.741 0,-0.086 -0.006,-0.288 -0.006,-0.446 0,-0.217 0.019,-0.445 0.051,-0.589 H 0.833 C 0.82,-0.41 0.807,-0.369 0.801,-0.25 0.691,-0.436 0.486,-0.525 0.233,-0.525 c -0.375,0 -0.637,0.201 -0.637,0.515 0,0.43 0.529,0.539 1.16,0.603" /></g><g
           transform="translate(12.9622,20.1668)"
           id="g246"><path
             id="path248"
             style="fill:#ed1c24;fill-opacity:1;fill-rule:nonzero;stroke:none"
             d="m 0,0 c -0.24,0 -0.378,-0.096 -0.378,-0.442 v -0.904 h -0.381 v 1.724 h 0.375 V 0.071 c 0.093,0.192 0.259,0.307 0.468,0.31 0.028,0 0.07,-0.003 0.099,-0.006 V -0.009 C 0.119,-0.003 0.058,0 0,0" /></g><path
           id="path250"
           style="fill:#ed1c24;fill-opacity:1;fill-rule:nonzero;stroke:none"
           d="m 14.124,21.144 h 0.382 v -2.323 h -0.382 z" /><g
           transform="translate(15.3235,21.1443)"
           id="g252"><path
             id="path254"
             style="fill:#ed1c24;fill-opacity:1;fill-rule:nonzero;stroke:none"
             d="m 0,0 v -0.468 l -0.225,-0.474 h -0.227 l 0.212,0.506 H -0.437 V 0 Z" /></g><g
           transform="translate(17.3684,21.1443)"
           id="g256"><path
             id="path258"
             style="fill:#ed1c24;fill-opacity:1;fill-rule:nonzero;stroke:none"
             d="m 0,0 v -0.34 h -1.237 v -0.621 h 1.17 v -0.337 h -1.17 V -1.98 H 0 V -2.323 H -1.645 V 0 Z" /></g><g
           transform="translate(18.1038,20.0325)"
           id="g260"><path
             id="path262"
             style="fill:#ed1c24;fill-opacity:1;fill-rule:nonzero;stroke:none"
             d="m 0,0 h 0.378 c 0.308,0 0.545,0.045 0.545,0.378 0,0.378 -0.278,0.407 -0.564,0.407 L 0,0.785 Z m 1.346,0.381 c 0,-0.586 -0.433,-0.714 -0.981,-0.714 H 0 v -0.878 h -0.407 v 2.323 h 0.766 c 0.509,0 0.987,-0.084 0.987,-0.731" /></g><g
           transform="translate(21.3421,21.1443)"
           id="g264"><path
             id="path266"
             style="fill:#ed1c24;fill-opacity:1;fill-rule:nonzero;stroke:none"
             d="m 0,0 v -0.34 h -1.215 v -0.621 h 1.144 V -1.298 H -1.215 V -2.323 H -1.622 V 0 Z" /></g><g
           transform="translate(23.1575,19.1639)"
           id="g268"><path
             id="path270"
             style="fill:#ed1c24;fill-opacity:1;fill-rule:nonzero;stroke:none"
             d="M 0,0 V -0.343 H -1.577 V 1.98 H -1.17 V 0 Z" /></g></g></g></g></svg>