<?xml version="1.0" encoding="UTF-8" standalone="no"?>
<svg
   width="1024"
   height="1024"
   viewBox="0 0 1024 1024"
   fill="none"
   version="1.1"
   id="svg9"
   sodipodi:docname="logo-carré.svg"
   xmlns:inkscape="http://www.inkscape.org/namespaces/inkscape"
   xmlns:sodipodi="http://sodipodi.sourceforge.net/DTD/sodipodi-0.dtd"
   xmlns="http://www.w3.org/2000/svg"
   xmlns:svg="http://www.w3.org/2000/svg">
  <sodipodi:namedview
     id="namedview1"
     pagecolor="#ffffff"
     bordercolor="#000000"
     borderopacity="0.25"
     inkscape:showpageshadow="2"
     inkscape:pageopacity="0.0"
     inkscape:pagecheckerboard="0"
     inkscape:deskcolor="#d1d1d1">
    <inkscape:page
       x="0"
       y="0"
       width="1024"
       height="1024"
       id="page2"
       margin="0"
       bleed="0" />
  </sodipodi:namedview>
  <defs
     id="defs9" />
  <path
     d="M 1507,0 H -413 v 1080 h 1920 z"
     fill="#434569"
     id="path1"
     style="fill:#312b48;fill-opacity:1" />
  <path
     d="M 233,635 796,362 1507,835 V 0 H -413 V 1080 H 628 Z"
     fill="#545784"
     id="path2"
     style="fill:#41335f;fill-opacity:1" />
  <g
     id="g1"
     style="display:inline;fill:#5a1f34;fill-opacity:1">
    <path
       d="m 349.2,336.72 c -46.83,-5.543 -94.3,-1.328 -139.42,12.38 v 316.6 c 0,0 75.9,-24.22 154.79,-15.16 90.24,10.46 120.53,49.08 120.53,49.08 V 391.29 c 0,0 -45.65,-44.06 -135.9,-54.57 z"
       fill="#AB5B5B"
       id="path3"
       style="fill:#5a1f34;fill-opacity:1" />
    <path
       d="m 544.15,391.29 h -59.18 v 308.36 h 59.18 z"
       fill="#AB5B5B"
       id="path4"
       style="fill:#5a1f34;fill-opacity:1" />
    <path
       d="m 678.15,336.72 c 46.806,-5.48 94.239,-1.221 139.32,12.51 V 665.7 c 0,0 -75.93,-24.22 -154.79,-15.16 -90.25,10.38 -118.7,49 -118.7,49 l -1.83,-308.36 c 0,0 45.75,-43.95 136,-54.46 z"
       fill="#AB5B5B"
       id="path6"
       style="fill:#5a1f34;fill-opacity:1" />
  </g>
  <g
     id="g2">
    <path
       d="M 374,311.66 C 292.26,302.6 233.35,324 233.35,324 v 311.68 c 0,0 58.91,-21.43 140.65,-12.37 93.47,10.37 140.61,54.26 140.61,54.26 V 366.09 c 0,0 -47.18,-44.09 -140.61,-54.43 z"
       fill="#E7D8CB"
       id="path5"
       style="fill:#e6d6ca;fill-opacity:1" />
    <path
       d="m 655.22,311.66 c 81.7,-9.06 140.62,12.37 140.62,12.37 v 311.65 c 0,0 -58.92,-21.43 -140.62,-12.37 -93.47,10.37 -140.65,54.26 -140.65,54.26 V 366.09 c 0,0 47.18,-44.09 140.65,-54.43 z"
       fill="#E7D8CB"
       id="path7"
       style="fill:#e6d6ca;fill-opacity:1" />
  </g>
  <path
     d="m 708.94,309.59 c 52.64,1.86 87,14.38 87,14.38 v 311.65 c 0,0 -58.91,-21.44 -140.61,-12.38 -23.556,2.499 -46.755,7.641 -69.16,15.33"
     fill="#DACABE"
     id="path8"
     style="fill:#dac6b0;fill-opacity:1" />
  <path
     d="m 329.09,621.1 c 15.031,-0.178 30.059,0.56 45,2.21 93.47,10.37 140.61,54.26 140.61,54.26 V 366.09 c 0,0 -30.7,-28.73 -91.83,-45.24"
     fill="#DACABE"
     id="path9"
     style="fill:#dac6b0;fill-opacity:1" />
</svg>
