<?xml version="1.0" encoding="UTF-8" standalone="no"?>
<!-- Created with Inkscape (http://www.inkscape.org/) -->

<svg
   version="1.1"
   id="svg237594"
   width="1800"
   height="800"
   viewBox="0 0 1800 800"
   sodipodi:docname="logo-document-inkscape.svg"
   xml:space="preserve"
   inkscape:version="1.4.2 (ebf0e940, 2025-05-08)"
   inkscape:export-filename="../EPFL/EPFL/EPFL/EPFL/S4S/logo-document-inkscape.svg"
   inkscape:export-xdpi="96"
   inkscape:export-ydpi="96"
   xmlns:inkscape="http://www.inkscape.org/namespaces/inkscape"
   xmlns:sodipodi="http://sodipodi.sourceforge.net/DTD/sodipodi-0.dtd"
   xmlns="http://www.w3.org/2000/svg"
   xmlns:svg="http://www.w3.org/2000/svg"><defs
     id="defs237598" /><sodipodi:namedview
     id="namedview237596"
     pagecolor="#ffffff"
     bordercolor="#000000"
     borderopacity="0.25"
     inkscape:showpageshadow="2"
     inkscape:pageopacity="0.0"
     inkscape:pagecheckerboard="0"
     inkscape:deskcolor="#d1d1d1"
     showgrid="false"
     inkscape:zoom="0.12540381"
     inkscape:cx="725.65577"
     inkscape:cy="422.63468"
     inkscape:window-width="1120"
     inkscape:window-height="703"
     inkscape:window-x="0"
     inkscape:window-y="162"
     inkscape:window-maximized="0"
     inkscape:current-layer="g237600"><inkscape:page
       x="0"
       y="0"
       width="1800"
       height="800"
       id="page2"
       margin="0"
       bleed="0" /></sodipodi:namedview><g
     inkscape:groupmode="layer"
     inkscape:label="Image"
     id="g237600"
     style="display:inline"><rect
       style="display:inline;fill:#41335f;fill-opacity:1;stroke-width:2.90155;stroke-linecap:square;paint-order:stroke fill markers"
       id="Background"
       width="1556.912"
       height="455.88116"
       x="166.29234"
       y="143.42714"
       rx="50.016697"
       ry="38.47641"
       inkscape:export-filename="logo-document2025.png"
       inkscape:export-xdpi="300"
       inkscape:export-ydpi="300" /><path
       id="Shade"
       style="display:inline;fill:#312b48;fill-opacity:1;stroke-width:2.90155;stroke-linecap:square;paint-order:stroke fill markers"
       d="m 643.74023,254.70703 -438.25585,107.75 136.34179,236.70117 H 1673.4922 c 27.7092,0 50.0176,-17.16065 50.0176,-38.47656 V 419.62109 Z" /><path
       id="Text2_4Students"
       d="m 1039.5312,389.47852 c -8.0314,0 -15.1711,1.43735 -21.416,4.3125 -6.2489,2.87555 -11.1535,6.89142 -14.7226,12.04687 -3.57313,5.05679 -5.35547,10.90802 -5.35547,17.55078 0,4.2638 0.64645,8.12921 1.93359,11.59961 1.38868,3.37092 3.31988,6.3459 5.80078,8.92383 2.5783,2.47886 5.6006,4.56063 9.0722,6.24609 3.4717,1.68546 7.3363,2.92576 11.5997,3.71875 l 19.4824,3.71875 c 3.1752,0.59485 5.7529,1.73446 7.7343,3.41992 2.083,1.58639 3.1231,3.52048 3.1231,5.80079 0,2.18123 -0.6954,4.06595 -2.084,5.65234 -1.2871,1.58639 -3.1225,2.77496 -5.5019,3.56836 -2.3794,0.79299 -5.2039,1.18945 -8.4766,1.18945 -5.7495,0 -10.2605,-1.48671 -13.5332,-4.46093 -3.1711,-2.97463 -4.8577,-6.99009 -5.0567,-12.04688 h -28.40619 c 0.69432,7.83286 3.02128,14.62389 6.98829,20.375 4.0644,5.75071 9.5176,10.21199 16.3594,13.38477 6.9432,3.0737 15.023,4.61132 24.2441,4.61132 9.3186,0 17.3514,-1.48671 24.0957,-4.46094 6.7402,-3.0737 11.9447,-7.33752 15.6152,-12.79101 3.7681,-5.45308 5.6524,-11.84846 5.6524,-19.18555 0,-7.73379 -2.4817,-13.93171 -7.4395,-18.59179 -4.9577,-4.75917 -12.1933,-8.07888 -21.7148,-9.96289 l -20.6699,-4.01758 c -1.8841,-0.3967 -3.6195,-0.94085 -5.2071,-1.63477 -1.5876,-0.79299 -2.8745,-1.73555 -3.8652,-2.82617 -0.8933,-1.19009 -1.3398,-2.57767 -1.3398,-4.16406 0,-1.98309 0.5445,-3.71817 1.6367,-5.20508 1.0922,-1.58679 2.6279,-2.82628 4.6094,-3.71875 1.9855,-0.89206 4.3633,-1.33789 7.1406,-1.33789 3.1711,0 5.9487,0.64443 8.3281,1.93359 2.3794,1.28877 4.3127,3.12258 5.7988,5.50196 1.4902,2.37978 2.3304,5.20471 2.5293,8.47656 h 28.4063 c -0.4954,-7.73339 -2.7774,-14.37518 -6.8418,-19.92774 -3.967,-5.65163 -9.2693,-10.01419 -15.9121,-13.08789 -6.5453,-3.0737 -14.0807,-4.61132 -22.6075,-4.61132 z m 267.6661,1.33788 v 34.20704 c -3.0737,-2.97422 -6.4427,-5.2045 -10.1133,-6.69141 -3.5691,-1.48731 -7.4357,-2.23047 -11.6016,-2.23047 -7.1381,0 -13.3826,1.83341 -18.7382,5.50195 -5.3557,3.66855 -9.518,8.67594 -12.4942,15.02149 -2.9722,6.24647 -4.4609,13.23691 -4.4609,20.9707 0,7.63472 1.4887,14.62475 4.4609,20.97071 2.9762,6.24647 7.1385,11.25346 12.4942,15.02148 5.3556,3.66855 11.6001,5.50195 18.7382,5.50195 4.6613,0 8.9744,-0.89279 12.9414,-2.67773 3.967,-1.88401 7.5848,-4.50994 10.8575,-7.88086 v 9.07031 h 23.3476 V 390.8164 Z m -200.4766,3.27344 v 23.49805 h -14.873 v 22.16016 h 14.873 v 30.33984 c 0,6.04833 1.138,11.25473 3.4199,15.61719 2.282,4.36287 5.555,7.68413 9.8184,9.96484 4.2634,2.28031 9.366,3.41992 15.3144,3.41992 3.5691,0 6.7932,-0.34667 9.668,-1.04101 2.8747,-0.59484 5.7012,-1.6851 8.4785,-3.27149 v -22.16015 c -1.3886,0.89247 -3.0732,1.58626 -5.0547,2.08203 -1.884,0.49577 -3.8703,0.74414 -5.9492,0.74414 -3.4716,0 -6.0493,-0.8932 -7.7344,-2.67773 -1.685,-1.88402 -2.5292,-4.76027 -2.5292,-8.62696 v -24.39062 h 21.8632 v -22.16016 h -21.8632 v -23.49805 z m 426.7129,0 v 23.49805 h -14.8691 v 22.16016 h 14.8691 v 30.33984 c 0,6.04833 1.1419,11.25473 3.4238,15.61719 2.2819,4.36287 5.5491,7.68413 9.8125,9.96484 4.2634,2.28031 9.3719,3.41992 15.3203,3.41992 3.5691,0 6.7933,-0.34667 9.668,-1.04101 2.8747,-0.59484 5.7012,-1.6851 8.4785,-3.27149 v -22.16015 c -1.3886,0.89247 -3.075,1.58626 -5.0605,2.08203 -1.88,0.49577 -3.8643,0.74414 -5.9473,0.74414 -3.4675,0 -6.0454,-0.8932 -7.7305,-2.67773 -1.685,-1.88402 -2.5312,-4.76027 -2.5312,-8.62696 v -24.39062 h 21.8613 v -22.16016 h -21.8613 v -23.49805 z m -611.73437,2.97461 -51.90823,63.50586 v 19.18555 h 47.29496 v 17.8457 h 25.43355 v -17.8457 h 14.42776 v -22.30859 h -14.42776 v -60.38282 z m 463.54297,19.03711 c -7.9299,0 -15.0188,1.78405 -21.2637,5.35352 -6.1474,3.56907 -11.0071,8.47813 -14.5762,14.72461 -3.4716,6.1474 -5.207,13.23616 -5.207,21.26758 0,8.22956 1.6865,15.46641 5.0567,21.71288 3.4716,6.24648 8.2783,11.10578 14.4257,14.57618 6.2489,3.4704 13.4845,5.20507 21.7149,5.20507 10.0129,0 18.3945,-2.47823 25.1347,-7.43554 6.7443,-4.95771 11.3512,-11.99711 13.8321,-21.11914 h -25.4336 c -1.0882,2.87515 -2.8257,5.05565 -5.2051,6.54297 -2.3794,1.4869 -5.3509,2.23046 -8.9199,2.23046 -3.2727,0 -6.0012,-0.79251 -8.1817,-2.3789 -2.1804,-1.58639 -3.8179,-3.9659 -4.9101,-7.13867 -0.5595,-1.68226 -0.9654,-3.57709 -1.2383,-5.65235 h 54.3359 c 1.1897,-6.5441 1.0389,-12.6907 -0.4472,-18.4414 -1.4902,-5.84978 -4.0638,-10.9559 -7.7344,-15.31836 -3.5691,-4.46194 -8.0311,-7.93325 -13.3867,-10.41211 -5.3516,-2.47845 -11.3533,-3.7168 -17.9961,-3.7168 z m 99.0293,0 c -5.0593,0 -9.5213,0.99153 -13.3868,2.97461 -3.768,1.98309 -7.2409,4.70929 -10.412,8.17969 v -9.66797 h -23.3516 v 80.01367 h 25.4355 v -42.08789 c 0,-4.06524 0.5426,-7.28859 1.6348,-9.66797 1.0882,-2.37978 2.5259,-4.11446 4.3125,-5.20508 1.884,-1.09102 3.8663,-1.63671 5.9492,-1.63671 3.8655,0 6.692,1.33862 8.4785,4.01562 1.884,2.677 2.8262,6.54478 2.8262,11.60157 v 42.98046 h 25.4297 v -51.45898 c 0,-9.71688 -2.5267,-17.15274 -7.5859,-22.30859 -4.9578,-5.15586 -11.4002,-7.73243 -19.3301,-7.73243 z m 139.5176,0 c -6.9392,0 -12.9881,1.13922 -18.1407,3.41993 -5.0592,2.18123 -8.9746,5.25453 -11.7519,9.2207 -2.7773,3.96576 -4.166,8.52773 -4.166,13.68359 0,6.44462 2.084,11.64907 6.25,15.61524 4.1619,3.96617 9.7151,6.59405 16.6543,7.88281 l 15.7675,2.82617 c 2.7733,0.49577 4.8067,1.18956 6.0938,2.08203 1.3886,0.89247 2.084,2.23109 2.084,4.01562 0,2.08257 -1.1421,3.51911 -3.4199,4.3125 -2.1805,0.79299 -4.7093,1.18946 -7.584,1.18946 -4.3649,0 -7.9337,-0.99152 -10.711,-2.97461 -2.7732,-1.98268 -4.1621,-4.65838 -4.1621,-8.0293 h -24.3906 c 0.7918,9.2211 4.4627,16.50733 11.0039,21.86133 6.5453,5.25493 15.8141,7.88281 27.8125,7.88281 12.0958,0 21.3177,-2.57851 27.6641,-7.73437 6.3463,-5.15586 9.5175,-12.14435 9.5175,-20.96875 0,-5.7507 -2.0351,-10.46036 -6.0996,-14.12891 -3.9629,-3.76802 -9.8138,-6.34654 -17.5488,-7.73437 l -16.9551,-3.12305 c -2.4768,-0.49577 -4.3613,-1.09083 -5.6484,-1.78515 -1.2912,-0.69392 -1.9375,-1.88445 -1.9375,-3.57032 0,-1.78453 0.8931,-3.07224 2.6797,-3.86523 1.7825,-0.89247 4.1624,-1.33985 7.1387,-1.33985 3.4716,0 6.3471,0.94216 8.625,2.82618 2.2819,1.78453 3.5686,4.26277 3.8691,7.43554 h 24.3906 c -0.4953,-5.94885 -2.3797,-11.10393 -5.6523,-15.46679 -3.1752,-4.36247 -7.4395,-7.68414 -12.791,-9.96485 -5.3557,-2.37938 -11.5512,-3.56836 -18.5918,-3.56836 z m -459.1543,1.48633 v 50.41797 c 0,7.03987 1.189,12.89069 3.5683,17.55078 2.4809,4.56101 5.8519,7.98141 10.1153,10.26172 4.2634,2.18123 9.0212,3.27148 14.2753,3.27148 4.6613,0 8.9745,-0.94256 12.9415,-2.82617 4.0644,-1.88401 7.1866,-4.31248 9.3711,-7.28711 v 8.625 h 23.3476 v -80.01367 h -25.4316 v 45.6582 c 0,2.97463 -0.5955,5.45442 -1.7852,7.4375 -1.1897,1.88361 -2.6763,3.32096 -4.4629,4.3125 -1.685,0.89247 -3.3696,1.3379 -5.0547,1.3379 -3.569,0 -6.3955,-1.09026 -8.4785,-3.27149 -1.9814,-2.18123 -2.9726,-5.45354 -2.9726,-9.81641 v -45.6582 z m -247.54884,15.16992 v 24.68946 h -19.63283 z m 467.56444,2.08203 c 3.768,0 6.8413,1.19094 9.2207,3.57032 2.3794,2.37978 3.6172,5.60077 3.7188,9.66601 h -26.6934 c 0.2278,-1.16093 0.4887,-2.26855 0.8125,-3.27148 1.0922,-3.37133 2.6808,-5.84916 4.7597,-7.43555 2.1845,-1.68546 4.909,-2.5293 8.1817,-2.5293 z m -93.0684,4.16407 c 2.5783,0 5.0072,0.64483 7.2891,1.93359 2.3794,1.28917 4.3108,3.32158 5.7969,6.09766 1.4901,2.677 2.2344,6.14872 2.2344,10.41211 0,4.16431 -0.7443,7.63408 -2.2344,10.41015 -1.3887,2.77608 -3.273,4.85785 -5.6524,6.24609 -2.2778,1.38825 -4.7578,2.08204 -7.4336,2.08204 -3.8655,0 -7.3853,-1.53568 -10.5605,-4.60938 -3.1712,-3.0737 -4.7598,-7.73399 -4.7598,-13.98047 0,-6.44462 1.5886,-11.15428 4.7598,-14.1289 3.1752,-2.97463 6.695,-4.46289 10.5605,-4.46289 z"
       style="fill:#eed4f1;fill-opacity:1;stroke-width:4.06037" /><path
       id="Text1_Students"
       d="m 917.38671,248.19141 c -8.03141,0 -15.16906,1.4371 -21.41797,4.3125 -6.24485,2.87535 -11.15555,6.89105 -14.72461,12.04687 -3.56907,5.05671 -5.35547,10.90574 -5.35547,17.54883 0,4.26359 0.64645,8.13116 1.93359,11.60156 1.38865,3.37092 3.32187,6.3459 5.80276,8.92383 2.57833,2.47886 5.60274,4.56063 9.0703,6.24609 3.47162,1.68546 7.33624,2.92381 11.59963,3.7168 l 19.48633,3.71875 c 3.17115,0.59484 5.74899,1.73642 7.73045,3.42188 2.08297,1.58638 3.12694,3.51852 3.12694,5.79882 0,2.18124 -0.69339,4.06596 -2.08204,5.65235 -1.2912,1.58639 -3.12255,2.77732 -5.50192,3.57031 -2.38344,0.79339 -5.20589,1.18945 -8.47855,1.18945 -5.75354,0 -10.26441,-1.48866 -13.53707,-4.46289 -3.17115,-2.97462 -4.85576,-6.99049 -5.05472,-12.04687 h -28.40623 c 0.69432,7.83286 3.02323,14.62625 6.99021,20.37695 4.06444,5.75071 9.51768,10.21199 16.3594,13.38477 6.93918,3.0737 15.01911,4.61132 24.24021,4.61132 9.32261,0 17.35549,-1.48826 24.09571,-4.46289 6.74427,-3.0737 11.94873,-7.33753 15.61525,-12.79101 3.76802,-5.45308 5.65232,-11.84846 5.65232,-19.18555 0,-7.73379 -2.47991,-13.92976 -7.43356,-18.58984 -4.95772,-4.75917 -12.19931,-8.08083 -21.71682,-9.96485 l -20.67382,-4.01562 c -1.88402,-0.39629 -3.61747,-0.9424 -5.20507,-1.63672 -1.58355,-0.79299 -2.87645,-1.73356 -3.86718,-2.82422 -0.89328,-1.18981 -1.33984,-2.57959 -1.33984,-4.16601 0,-1.98301 0.54851,-3.71781 1.63669,-5.20508 1.09224,-1.58643 2.62775,-2.82445 4.61327,-3.7168 1.98146,-0.89235 4.36141,-1.33984 7.1387,-1.33984 3.17115,0 5.94678,0.64463 8.32616,1.93359 2.37938,1.28897 4.3126,3.12429 5.80276,5.50391 1.48609,2.37962 2.32643,5.20447 2.52539,8.47656 h 28.40623 c -0.49537,-7.73387 -2.77332,-14.37725 -6.84181,-19.92969 -3.96292,-5.65159 -9.26934,-10.01423 -15.9121,-13.08789 -6.54126,-3.0737 -14.07674,-4.60937 -22.60352,-4.60937 z m 267.66409,1.33789 v 34.20703 c -3.0737,-2.97451 -6.4448,-5.20609 -10.1113,-6.69336 -3.5732,-1.48727 -7.4376,-2.23047 -11.6036,-2.23047 -7.1381,0 -13.3846,1.83532 -18.7402,5.50391 -5.3516,3.66858 -9.5159,8.67398 -12.4922,15.01953 -2.9722,6.24647 -4.459,13.23691 -4.459,20.9707 0,7.63431 1.4868,14.62516 4.459,20.9707 2.9763,6.24648 7.1406,11.25387 12.4922,15.02149 5.3556,3.66854 11.6021,5.5039 18.7402,5.5039 4.6613,0 8.9725,-0.89279 12.9395,-2.67773 3.967,-1.88361 7.5848,-4.51149 10.8574,-7.88281 v 9.07226 h 23.3516 V 249.5293 Z m -200.47855,3.27148 v 23.5 h -14.87302 v 22.16016 h 14.87302 v 30.33984 c 0,6.04793 1.14206,11.25237 3.41993,15.61524 2.28192,4.36246 5.55499,7.68454 9.81838,9.96484 4.26334,2.2803 9.36584,3.42187 15.31834,3.42187 3.5691,0 6.7892,-0.34862 9.668,-1.04296 2.8747,-0.59485 5.7013,-1.6851 8.4746,-3.27149 v -22.16016 c -1.3887,0.89247 -3.0732,1.58667 -5.0547,2.08204 -1.884,0.49577 -3.8663,0.74414 -5.9492,0.74414 -3.4716,0 -6.0493,-0.8932 -7.7344,-2.67774 -1.685,-1.88401 -2.5293,-4.7579 -2.5293,-8.625 v -24.39062 h 21.8653 v -22.16016 h -21.8653 v -23.5 z m 426.71685,0 v 23.5 h -14.8731 v 22.16016 h 14.8731 v 30.33984 c 0,6.04793 1.142,11.25237 3.4199,15.61524 2.2819,4.36246 5.5549,7.68454 9.8183,9.96484 4.2634,2.2803 9.366,3.42187 15.3145,3.42187 3.5731,0 6.7932,-0.34862 9.668,-1.04296 2.8747,-0.59485 5.7012,-1.6851 8.4785,-3.27149 v -22.16016 c -1.3887,0.89247 -3.0732,1.58667 -5.0547,2.08204 -1.884,0.49577 -3.8703,0.74414 -5.9492,0.74414 -3.4716,0 -6.0494,-0.8932 -7.7344,-2.67774 -1.6851,-1.88401 -2.5293,-4.7579 -2.5293,-8.625 v -24.39062 h 21.8652 v -22.16016 h -21.8652 v -23.5 z m -148.1914,22.01172 c -7.934,0 -15.0228,1.78408 -21.2676,5.35352 -6.1474,3.56943 -11.0071,8.47813 -14.5762,14.7246 -3.4675,6.1474 -5.2051,13.23658 -5.2051,21.26758 0,8.22956 1.6845,15.46837 5.0586,21.71485 3.4676,6.24647 8.2784,11.10382 14.4258,14.57422 6.2448,3.4704 13.4846,5.20507 21.711,5.20507 10.0169,0 18.3943,-2.47824 25.1386,-7.43554 6.7402,-4.95772 11.3533,-11.99711 13.8301,-21.11914 h -25.4317 c -1.0922,2.87555 -2.8257,5.0576 -5.205,6.54492 -2.3835,1.48731 -5.3548,2.23047 -8.9238,2.23047 -3.2727,0 -6.0013,-0.79407 -8.1817,-2.38086 -2.1804,-1.58639 -3.8181,-3.9659 -4.9063,-7.13867 -0.5629,-1.68647 -0.9796,-3.56907 -1.2519,-5.65039 h 54.3457 c 1.1897,-6.5441 1.0408,-12.69266 -0.4453,-18.44336 -1.4861,-5.84978 -4.0658,-10.9559 -7.7363,-15.31836 -3.5691,-4.4619 -8.0313,-7.93143 -13.3828,-10.41016 -5.3557,-2.47878 -11.3534,-3.71875 -17.9961,-3.71875 z m 99.0253,0 c -5.0592,0 -9.5171,0.99161 -13.3867,2.97461 -3.768,1.98304 -7.2369,4.70941 -10.4121,8.17969 v -9.66602 h -23.3457 v 80.01367 h 25.4297 v -42.08984 c 0,-4.06484 0.5445,-7.28664 1.6367,-9.66602 1.0923,-2.37978 2.5281,-4.11641 4.3106,-5.20703 1.884,-1.09061 3.8703,-1.63476 5.9492,-1.63476 3.8695,0 6.696,1.33862 8.4785,4.01562 1.884,2.67741 2.8262,6.54283 2.8262,11.59961 v 42.98242 h 25.4336 v -51.45898 c 0,-9.71647 -2.5289,-17.1529 -7.584,-22.3086 -4.9577,-5.15581 -11.4061,-7.73437 -19.336,-7.73437 z m 139.5215,0 c -6.9432,0 -12.9878,1.13946 -18.1445,3.41992 -5.0592,2.18131 -8.9746,5.25657 -11.7519,9.22266 -2.7773,3.96617 -4.1622,8.52578 -4.1622,13.68164 0,6.44503 2.0802,11.65142 6.2462,15.61719 4.1659,3.96617 9.717,6.59364 16.6562,7.88281 l 15.7656,2.82422 c 2.7773,0.49577 4.8065,1.18956 6.0977,2.08203 1.3886,0.89247 2.084,2.23068 2.084,4.01562 0,2.08216 -1.1419,3.52147 -3.4239,4.31446 -2.1804,0.7934 -4.7092,1.18945 -7.584,1.18945 -4.3608,0 -7.9297,-0.99193 -10.707,-2.97461 -2.7773,-1.98308 -4.166,-4.65993 -4.166,-8.03125 h -24.3906 c 0.7917,9.2211 4.4625,16.50928 11.0078,21.86328 6.5412,5.25493 15.8102,7.88281 27.8086,7.88281 12.0958,0 21.3177,-2.57851 27.664,-7.73437 6.3464,-5.15586 9.5176,-12.1463 9.5176,-20.9707 0,-5.75071 -2.0313,-10.46036 -6.0957,-14.12891 -3.967,-3.76762 -9.8177,-6.34613 -17.5527,-7.73438 l -16.9512,-3.12304 c -2.4809,-0.49577 -4.3652,-1.09124 -5.6524,-1.78516 -1.2912,-0.69432 -1.9336,-1.8829 -1.9336,-3.56836 0,-1.78494 0.8893,-3.07379 2.6758,-3.86719 1.7866,-0.89247 4.1665,-1.33789 7.1387,-1.33789 3.4717,0 6.347,0.94021 8.6289,2.82422 2.2779,1.78494 3.5689,4.26473 3.8653,7.4375 h 24.3906 c -0.4954,-5.94885 -2.3797,-11.10433 -5.6524,-15.46679 -3.1711,-4.36279 -7.4334,-7.68438 -12.789,-9.96485 -5.3516,-2.37962 -11.5532,-3.57031 -18.5899,-3.57031 z m -459.1582,1.48828 v 50.41797 c 0,7.03947 1.189,12.88874 3.5684,17.54883 2.4809,4.56101 5.8518,7.98141 10.1152,10.26172 4.2634,2.18123 9.0211,3.27343 14.2793,3.27343 4.6573,0 8.9706,-0.94216 12.9375,-2.82617 4.0645,-1.88401 7.1907,-4.31443 9.3711,-7.28906 v 8.62695 h 23.3516 v -80.01367 h -25.4356 v 45.6582 c 0,2.97463 -0.5915,5.45247 -1.7812,7.43555 -1.1938,1.88361 -2.6804,3.32291 -4.4629,4.31445 -1.6851,0.89247 -3.3735,1.3379 -5.0586,1.3379 -3.5691,0 -6.3956,-1.08985 -8.4785,-3.27149 -1.9815,-2.18123 -2.9727,-5.45354 -2.9727,-9.81641 v -45.6582 z m 220.0157,17.25195 c 3.768,0 6.8413,1.18899 9.2207,3.56836 2.3793,2.37979 3.6172,5.60273 3.7187,9.66797 h -26.7109 c 0.229,-1.17082 0.5066,-2.26108 0.8339,-3.27148 1.0882,-3.37133 2.6768,-5.85112 4.7598,-7.4375 2.1804,-1.68587 4.9051,-2.52735 8.1778,-2.52735 z m -93.0684,4.16407 c 2.5783,0 5.0071,0.64483 7.289,1.93359 2.3794,1.28917 4.3126,3.32158 5.8028,6.09766 1.4861,2.677 2.2285,6.14677 2.2285,10.41015 0,4.16432 -0.7424,7.63408 -2.2285,10.41016 -1.3886,2.77648 -3.273,4.86021 -5.6524,6.24804 -2.2819,1.38825 -4.7596,2.08204 -7.4394,2.08204 -3.8655,0 -7.3855,-1.53763 -10.5567,-4.61133 -3.1752,-3.07329 -4.7636,-7.734 -4.7636,-13.98047 0,-6.44503 1.5884,-11.15428 4.7636,-14.12891 3.1712,-2.97422 6.6912,-4.46093 10.5567,-4.46093 z"
       style="display:inline;fill:#ffffff;fill-opacity:1;stroke-width:4.06037" /><path
       id="Couverture"
       style="fill:#5a1f34;fill-opacity:1;stroke-width:1.32384"
       d="M 142.00242,37.064107 C 95.373554,36.388409 48.824225,42.928668 4.025384,56.539061 V 475.66738 c 0,0 100.481016,-32.06371 204.919026,-20.06972 114.97252,13.32684 156.43624,61.18301 159.39124,64.76234 v 0.25327 h 78.34461 v -0.43954 c 3.26824,-4.15876 42.72406,-51.4427 156.91419,-64.57615 104.39828,-11.994 204.91907,20.06971 204.91907,20.06971 V 56.7122 C 748.83331,38.534514 686.03903,32.896584 624.07524,40.151208 504.59841,54.064806 444.03257,112.24639 444.03257,112.24639 v 0.14485 h -75.52628 c 0,0 -60.43391,-58.326349 -179.91083,-72.239947 -15.49887,-1.834515 -31.05008,-2.861996 -46.59304,-3.087271 z" /><path
       id="Papier"
       style="fill:#e6d6ca;fill-opacity:1;stroke-width:1.32384"
       d="M 182.35895,4.2343582 C 94.938759,1.6219057 35.228782,23.311153 35.228782,23.311153 V 435.92619 c 0,0 77.988128,-28.36885 186.199048,-16.37481 121.65847,13.49736 184.02948,69.8892 186.09304,71.78233 v 0.0487 c 0,0 0.008,-0.008 0.0254,-0.0254 0.0212,0.0169 0.0254,0.0254 0.0254,0.0254 v -0.0487 c 2.06445,-1.89237 64.48802,-58.28485 186.1473,-71.78233 108.15803,-11.99404 186.15771,16.37481 186.15771,16.37481 V 23.349906 c 0,0 -77.99968,-28.3687622 -186.15771,-16.374766 C 471.45034,20.500955 409.01296,77.65142 407.54582,79.008237 406.07876,77.65142 343.64333,20.500955 221.42703,6.97514 207.90062,5.4758905 194.8467,4.6075718 182.35815,4.2343582 Z" /><path
       id="Ombre"
       style="display:inline;fill:#dac6b0;fill-opacity:1;stroke-width:1.32384"
       d="M 664.83515,4.2343582 502.30754,439.75294 c 29.6607,-10.17905 60.37276,-16.98638 91.55719,-20.29461 108.15798,-11.99404 186.14475,16.38773 186.14475,16.38773 V 23.2724 c 0,0 -45.4872,-16.5756878 -115.17433,-19.0380418 z M 286.12291,19.140538 161.97384,416.62446 c 19.89869,-0.23548 39.79336,0.74257 59.57292,2.92692 123.73965,13.72831 186.14475,71.83146 186.14475,71.83146 V 79.031489 c 0,0 -40.64207,-38.034324 -121.5686,-59.890951 z" /></g></svg>
