<?xml version="1.0" encoding="UTF-8" standalone="no"?>
<svg
   width="590.39893"
   height="121.9792"
   viewBox="0 0 590.39893 121.9792"
   fill="none"
   version="1.1"
   id="svg232565"
   sodipodi:docname="logo-texte-fond-sombre2025-inkscape.svg"
   inkscape:version="1.4 (e7c3feb1, 2024-10-09)"
   inkscape:export-filename="logo-texte-fond-sombre.png"
   inkscape:export-xdpi="96"
   inkscape:export-ydpi="96"
   xmlns:inkscape="http://www.inkscape.org/namespaces/inkscape"
   xmlns:sodipodi="http://sodipodi.sourceforge.net/DTD/sodipodi-0.dtd"
   xmlns="http://www.w3.org/2000/svg"
   xmlns:svg="http://www.w3.org/2000/svg">
  <sodipodi:namedview
     id="namedview232567"
     pagecolor="#ffffff"
     bordercolor="#000000"
     borderopacity="0.25"
     inkscape:showpageshadow="2"
     inkscape:pageopacity="0.0"
     inkscape:pagecheckerboard="0"
     inkscape:deskcolor="#d1d1d1"
     showgrid="false"
     inkscape:zoom="1.2182905"
     inkscape:cx="102.60278"
     inkscape:cy="157.59787"
     inkscape:window-width="1120"
     inkscape:window-height="703"
     inkscape:window-x="0"
     inkscape:window-y="257"
     inkscape:window-maximized="0"
     inkscape:current-layer="svg232565">
    <inkscape:page
       x="0"
       y="0"
       width="590.39893"
       height="121.9792"
       id="page1"
       margin="0"
       bleed="0" />
  </sodipodi:namedview>
  <mask
     id="mask0_1_633"
     maskUnits="userSpaceOnUse"
     x="0"
     y="0"
     width="701"
     height="321">
    <rect
       x="0.095214799"
       y="0.51586902"
       width="700"
       height="320"
       rx="32"
       fill="#d9d9d9"
       id="rect232501" />
  </mask>
  <rect
     x="-314.91431"
     y="-357.56177"
     width="1200"
     height="920"
     fill="#515582"
     id="rect232504"
     style="display:none;fill:#41335f;fill-opacity:1" />
  <path
     d="M 342.9907,562.43822 7.3676998,45.308217 155.9077,12.896217 l 815.582,110.553003 91.83,302.393 z"
     fill="url(#paint0_linear_1_633)"
     id="path232506"
     style="display:none;fill:#312b48;fill-opacity:1" />
  <path
     id="Text1_Students"
     style="display:inline;fill:#41335f;fill-opacity:1;stroke:none;stroke-opacity:1"
     d="m 248.70751,-3.1565425e-6 c -3.683,0 -6.95726,0.6595199965425 -9.82226,1.9785200565425 -2.865,1.319 -5.11691,3.16039 -6.75391,5.52539 -1.637,2.319 -2.45703,5.0037801 -2.45703,8.0507801 0,1.955 0.29572,3.72831 0.88672,5.32031 0.637,1.546 1.52511,2.91175 2.66211,4.09375 1.182,1.137 2.56815,2.09224 4.16015,2.86524 1.592,0.773 3.36727,1.34107 5.32227,1.70507 l 8.93555,1.70508 c 1.455,0.273 2.63787,0.79536 3.54687,1.56836 0.955,0.728 1.4336,1.61611 1.4336,2.66211 0,1 -0.31808,1.8648 -0.95508,2.5918 -0.591,0.728 -1.43244,1.27372 -2.52344,1.63672 -1.092,0.364 -2.38767,0.54687 -3.88867,0.54687 -2.638,0 -4.70799,-0.68287 -6.20899,-2.04687 -1.455,-1.365 -2.22736,-3.20639 -2.31836,-5.52539 h -13.03125 c 0.318,3.593 1.38803,6.7077 3.20703,9.3457 1.86501,2.638 4.36591,4.68462 7.50391,6.14062 3.184,1.41 6.88914,2.11328 11.11914,2.11328 4.275,0 7.95974,-0.68287 11.05274,-2.04687 3.092,-1.41 5.48106,-3.36619 7.16406,-5.86719 1.728,-2.501 2.5918,-5.43383 2.5918,-8.79883 0,-3.548 -1.13811,-6.38934 -3.41211,-8.52734 -2.274,-2.183 -5.59299,-3.70631 -9.95899,-4.57031 l -9.48242,-1.8418 c -0.865,-0.182 -1.66067,-0.43295 -2.38867,-0.75195 -0.728,-0.364 -1.31844,-0.79492 -1.77344,-1.29492 -0.409,-0.546 -0.61328,-1.18216 -0.61328,-1.91016 0,-0.91 0.249,-1.70667 0.75,-2.38867 0.5,-0.727 1.20428,-1.29608 2.11328,-1.70508 0.91,-0.41 2.00139,-0.6132801 3.27539,-0.6132801 1.455,0 2.72931,0.2947201 3.82031,0.8867201 1.092,0.591 1.98011,1.43144 2.66211,2.52344 0.682,1.09099 1.06821,2.38767 1.15821,3.88867 h 13.02929 c -0.227,-3.547 -1.27172,-6.59363 -3.13672,-9.1406301 -1.819,-2.592 -4.25182,-4.5949 -7.29882,-6.0039 -3.002,-1.41000006 -6.4591,-2.1152400565425 -10.3711,-2.1152400565425 z M 371.48486,0.61327684 V 16.304687 c -1.41,-1.364 -2.95568,-2.38731 -4.63868,-3.07031 -1.637,-0.682 -3.41226,-1.02344 -5.32226,-1.02344 -3.275,0 -6.1397,0.84044 -8.5957,2.52344 -2.456,1.683 -4.36647,3.98062 -5.73047,6.89062 -1.365,2.866 -2.04688,6.07214 -2.04688,9.61914 0,3.502 0.68188,6.70914 2.04688,9.61914 1.364,2.865 3.27447,5.16263 5.73047,6.89063 2.456,1.683 5.3207,2.52343 8.5957,2.52343 2.137,0 4.11655,-0.40856 5.93555,-1.22656 1.819,-0.865 3.47946,-2.07119 4.98046,-3.61718 v 4.1621 h 10.70899 V 0.61327684 Z M 279.52587,2.1152369 V 12.892577 h -6.82031 v 10.16602 h 6.82031 v 13.91601 c 0,2.774 0.52431,5.16306 1.57031,7.16406 1.046,2.001 2.54596,3.52432 4.50196,4.57032 1.955,1.046 4.29834,1.56835 7.02734,1.56835 1.637,0 3.1156,-0.15856 4.4336,-0.47656 1.31899,-0.273 2.61567,-0.77395 3.88867,-1.50195 v -10.16406 c -0.637,0.41 -1.40936,0.72807 -2.31836,0.95507 -0.865,0.22801 -1.77547,0.3418 -2.73047,0.3418 -1.592,0 -2.77288,-0.41051 -3.54688,-1.22851 -0.773,-0.864 -1.16015,-2.18303 -1.16015,-3.95703 v -11.1875 h 10.02929 V 12.892577 H 291.19189 V 2.1152369 Z m 195.73242,0 V 12.892577 h -6.82226 v 10.16602 h 6.82226 v 13.91601 c 0,2.774 0.52236,5.16306 1.56836,7.16406 1.046,2.001 2.54791,3.52432 4.50391,4.57032 1.955,1.046 4.29739,1.56835 7.02539,1.56835 1.638,0 3.11655,-0.15856 4.43555,-0.47656 1.318,-0.273 2.61372,-0.77395 3.88672,-1.50195 v -10.16406 c -0.637,0.41 -1.40936,0.72807 -2.31836,0.95507 -0.865,0.22801 -1.77352,0.3418 -2.72852,0.3418 -1.592,0 -2.77483,-0.41051 -3.54883,-1.22851 -0.773,-0.864 -1.1582,-2.18303 -1.1582,-3.95703 v -11.1875 h 10.02734 V 12.892577 H 486.92431 V 2.1152369 Z M 407.28368,12.210937 c -3.638,0 -6.89085,0.82003 -9.75586,2.45703 -2.82,1.637 -5.04854,3.88791 -6.68554,6.75391 -1.592,2.819 -2.38672,6.0699 -2.38672,9.7539 0,3.775 0.77236,7.09594 2.31836,9.96094 1.592,2.865 3.79719,5.09355 6.61719,6.68555 2.865,1.591 6.18593,2.38672 9.96093,2.38672 4.594,0 8.4373,-1.13616 11.5293,-3.41016 3.093,-2.274 5.20675,-5.5035 6.34375,-9.6875 h -11.66601 c -0.50001,1.319 -1.29472,2.31995 -2.38672,3.00195 -1.091,0.682 -2.45575,1.02344 -4.09375,1.02344 -1.501,0 -2.75096,-0.3648 -3.75196,-1.0918 -1,-0.728 -1.75,-1.82039 -2.25,-3.27539 -0.25711,-0.77187 -0.44346,-1.63958 -0.56836,-2.59179 h 24.92188 c 0.546,-3.002 0.47692,-5.82099 -0.20508,-8.45899 -0.683,-2.683 -1.86387,-5.02634 -3.54687,-7.02734 -1.637,-2.047 -3.68463,-3.63644 -6.14063,-4.77344 -2.455,-1.137 -5.20691,-1.70703 -8.25391,-1.70703 z m 45.42188,0 c -2.32,0 -4.36663,0.45623 -6.14063,1.36523 -1.728,0.91 -3.31843,2.15996 -4.77343,3.75196 v -4.43555 h -10.71094 v 36.70312 h 11.66602 v -19.30664 c 0,-1.864 0.25,-3.34259 0.75,-4.43359 0.5,-1.092 1.15951,-1.88767 1.97851,-2.38867 0.864,-0.5 1.77352,-0.75 2.72852,-0.75 1.774,0 3.06967,0.6138 3.88867,1.8418 0.864,1.22799 1.29492,3.00226 1.29492,5.32226 v 19.71484 h 11.66602 v -23.60351 c 0,-4.457 -1.16047,-7.86938 -3.48047,-10.23438 -2.274,-2.364 -5.22919,-3.54687 -8.86719,-3.54687 z m 63.99805,0 c -3.184,0 -5.95922,0.52236 -8.32422,1.56836 -2.319,1.001 -4.11567,2.41147 -5.38867,4.23047 -1.273,1.819 -1.91016,3.91234 -1.91016,6.27734 0,2.956 0.95523,5.34311 2.86523,7.16211 1.91,1.819 4.45663,3.02323 7.64063,3.61523 l 7.23047,1.29688 c 1.273,0.227 2.20587,0.54508 2.79687,0.95508 0.637,0.409 0.95508,1.02279 0.95508,1.84179 0,0.955 -0.52236,1.61452 -1.56836,1.97852 -1.001,0.364 -2.15951,0.54492 -3.47851,0.54492 -2.001,0 -3.63911,-0.45523 -4.91211,-1.36523 -1.274,-0.909 -1.91016,-2.13564 -1.91016,-3.68164 h -11.1875 c 0.364,4.229 2.04488,7.57134 5.04688,10.02734 3.00199,2.41 7.25481,3.61523 12.75781,3.61523 5.549,0 9.77845,-1.18187 12.68945,-3.54687 2.911,-2.365 4.36524,-5.57114 4.36524,-9.61914 -10e-6,-2.638 -0.93188,-4.79747 -2.79688,-6.48047 -1.819,-1.728 -4.50378,-2.90987 -8.05078,-3.54687 l -7.77539,-1.4336 c -1.137,-0.227 -2.00275,-0.50036 -2.59375,-0.81836 -0.592,-0.319 -0.88672,-0.86467 -0.88672,-1.63867 0,-0.818 0.40952,-1.40748 1.22852,-1.77148 0.818,-0.41 1.90943,-0.61524 3.27343,-0.61524 1.592,0 2.91103,0.43288 3.95703,1.29688 1.046,0.819 1.63839,1.95415 1.77539,3.41015 h 11.1875 c -0.228,-2.729 -1.09275,-5.09275 -2.59375,-7.09375 -1.455,-2.001 -3.41118,-3.52626 -5.86718,-4.57226 -2.455,-1.091 -5.29639,-1.63672 -8.52539,-1.63672 z m -210.61133,0.68164 v 23.12695 c 0,3.229 0.54572,5.91278 1.63672,8.05078 1.137,2.092 2.68367,3.66104 4.63867,4.70703 1.956,1 4.13883,1.5 6.54883,1.5 2.138,0 4.11554,-0.43287 5.93554,-1.29687 1.864,-0.864 3.29688,-1.9778 4.29688,-3.3418 v 3.95703 h 10.71094 v -36.70312 h -11.66602 v 20.94531 c 0,1.364 -0.27141,2.50016 -0.81641,3.41016 -0.546,0.864 -1.22787,1.52351 -2.04687,1.97851 -0.773,0.409 -1.54731,0.61328 -2.32031,0.61328 -1.638,10e-6 -2.93368,-0.49899 -3.88867,-1.5 -0.91001,-1 -1.36329,-2.50095 -1.36329,-4.50195 v -20.94531 z m 100.91797,7.91406 c 1.728,0 3.13847,0.54472 4.23047,1.63672 1.091,1.091 1.66007,2.57155 1.70507,4.43555 h -12.25195 c 0.10494,-0.53702 0.23295,-1.03829 0.38281,-1.50196 0.5,-1.546 1.22664,-2.68215 2.18164,-3.41015 1.001,-0.773 2.25096,-1.16016 3.75196,-1.16016 z m -42.68946,1.91016 c 1.182,0 2.29775,0.29472 3.34375,0.88672 1.092,0.591 1.97816,1.52287 2.66016,2.79687 0.682,1.228 1.02344,2.81939 1.02344,4.77539 0,1.91 -0.34144,3.50239 -1.02344,4.77539 -0.637,1.274 -1.5008,2.22824 -2.5918,2.86524 -1.046,0.636 -2.18411,0.95508 -3.41211,0.95508 -1.774,0 -3.38875,-0.70524 -4.84375,-2.11524 -1.455,-1.41 -2.18164,-3.54711 -2.18164,-6.41211 0,-2.956 0.72664,-5.11547 2.18164,-6.48047 1.455,-1.364 3.06975,-2.04687 4.84375,-2.04687 z" />
  <path
     id="Text2_4Students"
     style="display:inline;fill:#312b48;fill-opacity:1"
     d="m 304.73486,64.808597 c -3.684,0 -6.95727,0.66051 -9.82227,1.97851 -2.866,1.319 -5.11691,3.16039 -6.75391,5.52539 -1.637,2.32 -2.45507,5.00183 -2.45507,8.04883 0,1.956 0.29571,3.73026 0.88671,5.32227 0.637,1.547 1.52316,2.90979 2.66016,4.09179 1.183,1.137 2.57011,2.09319 4.16211,2.86719 1.592,0.773 3.36431,1.34108 5.32031,1.70508 l 8.9375,1.70508 c 1.455,0.272 2.63788,0.79731 3.54688,1.57031 0.955,0.727 1.43164,1.6122 1.43164,2.658203 0,1.001 -0.31908,1.86575 -0.95508,2.59375 -0.592,0.727 -1.43244,1.27272 -2.52344,1.63672 -1.092,0.364 -2.38767,0.54688 -3.88867,0.54688 -2.638,-1e-5 -4.70798,-0.68288 -6.20898,-2.04688 -1.455,-1.364 -2.22736,-3.207343 -2.31836,-5.527343 h -13.0293 c 0.318,3.593003 1.38608,6.709653 3.20508,9.347653 1.865,2.638 4.36591,4.68367 7.50391,6.13867 3.18399,1.41 6.89109,2.11524 11.12109,2.11524 4.275,0 7.95878,-0.68188 11.05078,-2.04688 3.093,-1.41 5.48011,-3.36518 7.16211,-5.86718 1.729,-2.501 2.59375,-5.43283 2.59375,-8.798833 0,-3.547 -1.13616,-6.39035 -3.41016,-8.52735 -2.274,-2.183 -5.59493,-3.70826 -9.96093,-4.57226 l -9.48243,-1.8418 c -0.864,-0.182 -1.65972,-0.432 -2.38671,-0.75 -0.72801,-0.364 -1.3204,-0.79587 -1.7754,-1.29687 -0.409,-0.545 -0.61328,-1.18216 -0.61328,-1.91016 0,-0.909 0.25,-1.70472 0.75,-2.38672 0.501,-0.728 1.20624,-1.29608 2.11524,-1.70508 0.91,-0.409 2.00139,-0.61523 3.27539,-0.61523 1.455,0 2.72636,0.29572 3.81836,0.88672 1.092,0.591 1.97911,1.43439 2.66211,2.52539 0.682,1.092 1.0672,2.38767 1.1582,3.88867 h 13.03125 c -0.227,-3.548 -1.27367,-6.59558 -3.13867,-9.14258 -1.819,-2.592 -4.25183,-4.59195 -7.29883,-6.00195 -3.002,-1.41 -6.45909,-2.11523 -10.37109,-2.11523 z m 122.77734,0.61328 v 15.6914 c -1.41,-1.365 -2.95667,-2.38831 -4.63867,-3.07031 -1.638,-0.683 -3.41031,-1.02344 -5.32031,-1.02344 -3.275,0 -6.13971,0.84239 -8.59571,2.52539 -2.456,1.682 -4.36742,3.97767 -5.73242,6.88868 -1.364,2.86499 -2.04492,6.07114 -2.04492,9.61914 0,3.502 0.68092,6.708143 2.04492,9.619143 1.365,2.865 3.27642,5.16162 5.73242,6.89062 2.456,1.682 5.32071,2.52344 8.59571,2.52344 2.137,0 4.11359,-0.40952 5.93359,-1.22852 1.819,-0.864 3.47947,-2.06823 4.98047,-3.61523 v 4.16211 h 10.71094 V 65.421877 Z m -91.95703,1.50195 v 10.7793 h -6.82227 v 10.16406 h 6.82227 V 101.7832 c 0,2.774 0.52236,5.16111 1.56836,7.16211 1.046,2.001 2.54695,3.52627 4.50195,4.57227 1.956,1.046 4.29835,1.56836 7.02734,1.56836 1.63701,0 3.1146,-0.15952 4.4336,-0.47852 1.319,-0.273 2.61467,-0.772 3.88867,-1.5 v -10.16406 c -0.637,0.409 -1.41031,0.72708 -2.32031,0.95508 -0.864,0.227 -1.77156,0.33984 -2.72656,0.33984 -1.592,0 -2.77583,-0.40756 -3.54883,-1.22656 -0.773,-0.864 -1.16016,-2.18303 -1.16016,-3.957033 v -11.1875 h 10.0293 v -10.16406 h -10.0293 v -10.7793 z m 195.73047,0 v 10.7793 h -6.82227 v 10.16406 h 6.82227 V 101.7832 c 0,2.774 0.52236,5.16111 1.56836,7.16211 1.046,2.001 2.54695,3.52627 4.50195,4.57227 1.956,1.046 4.29834,1.56836 7.02734,1.56836 1.637,0 3.1146,-0.15952 4.4336,-0.47852 1.319,-0.273 2.61662,-0.772 3.89062,-1.5 v -10.16406 c -0.637,0.409 -1.41031,0.72708 -2.32031,0.95508 -0.864,0.227 -1.77352,0.33984 -2.72852,0.33984 -1.592,0 -2.77582,-0.40756 -3.54882,-1.22656 -0.773,-0.864 -1.15821,-2.18303 -1.15821,-3.957033 v -11.1875 H 552.979 v -10.16406 h -10.02735 v -10.7793 z m -280.59961,1.36328 -23.8086,29.13086 v 8.798833 h 21.69336 v 8.1875 h 11.66602 v -8.1875 H 266.854 V 95.984377 h -6.61719 v -27.69727 z m 212.625,8.73242 c -3.639,0 -6.88986,0.81808 -9.75586,2.45508 -2.819,1.638 -5.04659,3.88891 -6.68359,6.75391 -1.59201,2.82 -2.38868,6.07286 -2.38868,9.75586 0,3.775 0.77332,7.093983 2.32032,9.958983 1.591,2.866 3.79718,5.0955 6.61718,6.6875 2.865,1.592 6.18399,2.38672 9.95899,2.38672 4.593,0 8.43629,-1.13616 11.52929,-3.41016 3.093,-2.274 5.20675,-5.5025 6.34375,-9.6875 h -11.66406 c -0.5,1.319 -1.29667,2.31996 -2.38867,3.00196 -1.091,0.682 -2.45675,1.02148 -4.09375,1.02148 -1.501,0 -2.75095,-0.36184 -3.75195,-1.08984 -1.001,-0.728 -1.75,-1.81939 -2.25,-3.27539 -0.25824,-0.77318 -0.44922,-1.637033 -0.57422,-2.591803 h 24.92773 c 0.546,-3.002 0.47792,-5.82098 -0.20508,-8.45899 -0.682,-2.68299 -1.86387,-5.02634 -3.54687,-7.02734 -1.637,-2.046 -3.68463,-3.63839 -6.14063,-4.77539 -2.456,-1.137 -5.2069,-1.70508 -8.2539,-1.70508 z m 45.42187,0 c -2.32,0 -4.36467,0.45524 -6.13867,1.36524 -1.728,0.909 -3.32134,2.15995 -4.77734,3.75195 v -4.43359 H 487.1079 V 114.4043 h 11.66602 V 95.097657 c 0,-1.865 0.25,-3.3416 0.75,-4.4336 0.5,-1.091 1.16051,-1.88867 1.97851,-2.38867 0.864,-0.501 1.77352,-0.75 2.72852,-0.75 1.774,0 3.06967,0.6138 3.88867,1.8418 0.864,1.228 1.29688,3.00131 1.29688,5.32031 V 114.4043 h 11.66406 V 90.800777 c 0,-4.457 -1.15852,-7.86937 -3.47852,-10.23437 -2.274,-2.365 -5.23114,-3.54688 -8.86914,-3.54688 z m 63.99805,0 c -3.184,0 -5.95922,0.52236 -8.32422,1.56836 -2.319,1.001 -4.11567,2.41147 -5.38867,4.23047 -1.274,1.819 -1.91016,3.91039 -1.91016,6.27539 0,2.956 0.95524,5.34506 2.86524,7.16406 1.91,1.819 4.45762,3.02424 7.64062,3.61524 l 7.23242,1.296873 c 1.273,0.227 2.20488,0.54608 2.79688,0.95508 0.636,0.409 0.95508,1.0228 0.95508,1.8418 0,0.955 -0.52431,1.61356 -1.57032,1.97656 -1.00099,0.364 -2.15951,0.54688 -3.47851,0.54688 -2.001,0 -3.63911,-0.45429 -4.91211,-1.36329 -1.274,-0.91 -1.91016,-2.13954 -1.91016,-3.68554 h -11.1875 c 0.363,4.23 2.04683,7.57329 5.04883,10.02929 3.001,2.411 7.25286,3.61524 12.75586,3.61524 5.548,0 9.77845,-1.18188 12.68945,-3.54688 2.91,-2.365 4.36524,-5.57114 4.36524,-9.61914 0,-2.637003 -0.93288,-4.798473 -2.79688,-6.480473 -1.82,-1.729 -4.50182,-2.91182 -8.04882,-3.54882 l -7.77735,-1.43164 c -1.137,-0.228 -2.00175,-0.50036 -2.59375,-0.81836 -0.591,-0.318 -0.88476,-0.86372 -0.88476,-1.63672 0,-0.819 0.40756,-1.41139 1.22656,-1.77539 0.818,-0.409 1.91139,-0.61328 3.27539,-0.61328 1.592,0 2.91103,0.43287 3.95703,1.29687 1.046,0.819 1.63549,1.95516 1.77148,3.41016 h 11.18946 c -0.227,-2.729 -1.0908,-5.09471 -2.5918,-7.09571 -1.455,-2.001 -3.41119,-3.52431 -5.86719,-4.57031 -2.456,-1.092 -5.29834,-1.63672 -8.52734,-1.63672 z m -210.61133,0.6836 v 23.125003 c 0,3.229 0.54572,5.91278 1.63672,8.05078 1.137,2.092 2.68367,3.66103 4.63867,4.70703 1.956,1.001 4.13883,1.5 6.54883,1.5 2.138,0 4.11655,-0.43092 5.93555,-1.29492 1.865,-0.864 3.29883,-1.97975 4.29883,-3.34375 v 3.95703 h 10.71093 V 77.703127 h -11.66601 v 20.9414 c 0,1.364003 -0.27432,2.502113 -0.82032,3.412113 -0.545,0.864 -1.22692,1.52352 -2.04492,1.97852 -0.773,0.41 -1.54631,0.61328 -2.32031,0.61328 -1.637,0 -2.93367,-0.50095 -3.88867,-1.50195 -0.91,-1 -1.36328,-2.50096 -1.36328,-4.501963 v -20.9414 z m -113.54883,6.95703 v 11.32422 h -9.0039 z m 214.46875,0.95508 c 1.728,0 3.13752,0.54571 4.22852,1.63671 1.092,1.092 1.65908,2.57055 1.70508,4.43555 h -12.25196 c 0.10511,-0.53717 0.23262,-1.03846 0.38282,-1.50195 0.5,-1.547 1.22859,-2.68316 2.18359,-3.41016 1,-0.773 2.25095,-1.16015 3.75195,-1.16015 z m -42.68945,1.91015 c 1.182,0 2.2958,0.29572 3.3418,0.88672 1.092,0.591 1.97815,1.52388 2.66015,2.79688 0.682,1.228 1.02344,2.82039 1.02344,4.77539 0,1.911 -0.34144,3.50139 -1.02344,4.775393 -0.637,1.273 -1.49979,2.22823 -2.59179,2.86523 -1.046,0.637 -2.18316,0.95508 -3.41016,0.95508 -1.774,0 -3.38875,-0.70524 -4.84375,-2.11524 -1.455,-1.40999 -2.18359,-3.547103 -2.18359,-6.412103 0,-2.957 0.72859,-5.11647 2.18359,-6.48047 1.455,-1.365 3.06975,-2.04688 4.84375,-2.04688 z" />
  <path
     id="Couverture"
     style="fill:#5a1f34;fill-opacity:1;stroke-width:0.312574"
     d="M 32.577961,7.8076968 C 21.568348,7.6481568 10.57752,9.1923869 7.7914488e-7,12.405957 v 98.961003 c 0,0 23.72472222085512,-7.57061 48.38372822085513,-4.73869 27.14633,3.14662 36.93639,14.44601 37.6341,15.29113 v 0.0598 h 18.498061 v -0.10378 c 0.77167,-0.98193 10.08764,-12.14621 37.04924,-15.24717 24.64963,-2.83192 48.38374,4.73869 48.38374,4.73869 V 12.446837 C 175.85769,8.1548768 161.03124,6.8236968 146.40088,8.5365968 118.19103,11.821757 103.89074,25.559097 103.89074,25.559097 v 0.0342 H 86.058119 c 0,0 -14.26914,-13.77152 -42.479006,-17.0566802 -3.659465,-0.43315 -7.331285,-0.67575 -11.001152,-0.72894 z" />
  <path
     id="Papier"
     style="fill:#e6d6ca;fill-opacity:1;stroke-width:0.312574"
     d="M 42.106603,0.05621684 C 21.465688,-0.56061316 7.3674798,4.5604668 7.3674798,4.5604668 V 101.98361 c 0,0 18.4138912,-6.698213 43.9637292,-3.866283 28.72496,3.186883 43.45147,16.501643 43.9387,16.948633 v 0.0115 c 0,0 0.002,-0.002 0.006,-0.006 0.005,0.004 0.006,0.006 0.006,0.006 v -0.0115 c 0.48744,-0.44681 15.226361,-13.76172 43.951511,-16.948633 25.53735,-2.83193 43.95397,3.866283 43.95397,3.866283 V 4.5696169 c 0,0 -18.41662,-6.69819 -43.95397,-3.86627006 C 110.36439,3.8969469 95.622209,17.390827 95.275799,17.711187 94.929409,17.390827 80.187689,3.8969469 51.331019,0.70334684 c -3.19374,-0.35399 -6.275916,-0.55901 -9.224614,-0.64713 z" />
  <path
     id="Ombre"
     style="display:inline;fill:#dac6b0;fill-opacity:1;stroke-width:0.312574"
     d="M 156.02476,0.05621684 117.65013,102.88715 c 7.00323,-2.40339 14.2547,-4.010683 21.6177,-4.791793 25.53734,-2.83193 43.95091,3.869333 43.95091,3.869333 V 4.5513168 c 0,0 -10.74005,-3.91370996 -27.19398,-4.49509996 z M 66.606459,3.5757368 37.293435,97.426247 c 4.698311,-0.0556 9.395676,0.17533 14.065854,0.69108 29.21635,3.241413 43.95091,16.960233 43.95091,16.960233 V 17.716677 c 0,0 -9.59606,-8.9803401 -28.70374,-14.1409402 z" />
  <defs
     id="defs232563" />
</svg>
