<?xml version="1.0" encoding="UTF-8" standalone="no"?>
<!-- Created with Inkscape (http://www.inkscape.org/) -->

<svg
   version="1.1"
   id="svg9961"
   width="550"
   height="550"
   viewBox="0 0 550.00006 550"
   sodipodi:docname="PhilippeHead.svg"
   xml:space="preserve"
   inkscape:version="1.3.2 (091e20ef0f, 2023-11-25)"
   inkscape:export-filename="PhilippeHead2.png"
   inkscape:export-xdpi="349.09091"
   inkscape:export-ydpi="349.09091"
   xmlns:inkscape="http://www.inkscape.org/namespaces/inkscape"
   xmlns:sodipodi="http://sodipodi.sourceforge.net/DTD/sodipodi-0.dtd"
   xmlns="http://www.w3.org/2000/svg"
   xmlns:svg="http://www.w3.org/2000/svg"><defs
     id="defs9965"><rect
       x="760.06104"
       y="635.13361"
       width="9.9585276"
       height="58.924168"
       id="rect2" /><rect
       x="768.7196"
       y="576.91248"
       width="14.125713"
       height="87.873146"
       id="rect7" /></defs><sodipodi:namedview
     id="namedview9963"
     pagecolor="#ffffff"
     bordercolor="#000000"
     borderopacity="0.25"
     inkscape:showpageshadow="2"
     inkscape:pageopacity="0.0"
     inkscape:pagecheckerboard="0"
     inkscape:deskcolor="#d1d1d1"
     showgrid="false"
     inkscape:zoom="0.35355339"
     inkscape:cx="-83.4386"
     inkscape:cy="417.193"
     inkscape:window-width="1440"
     inkscape:window-height="891"
     inkscape:window-x="0"
     inkscape:window-y="32"
     inkscape:window-maximized="1"
     inkscape:current-layer="g9967" /><g
     inkscape:groupmode="layer"
     inkscape:label="Image"
     id="g9967"
     transform="translate(-259.32135,-230.14562)"><g
       inkscape:label="philippe"
       id="layer1"
       transform="matrix(4.9466769,0,0,4.9466769,57.981544,79.833332)"><path
         style="fill:#ff66b3;fill-opacity:1;stroke:none;stroke-width:3"
         d="m 95.685887,32.192198 c 21.998543,-4.995379 37.778123,8.732256 45.267793,23.131438 7.48967,14.399182 7.89109,35.624501 2.68818,58.456534 -5.2029,22.83204 -27.79875,27.03363 -27.79875,27.03363 0,0 5.82393,-8.47225 11.38279,-35.50988 5.55886,-27.037631 -2.09363,-30.862831 -2.09363,-30.862831 0,0 -7.34644,6.343535 -19.67654,7.531444 C 93.125639,83.160441 88.297415,79.647014 88.297415,79.647014 L 70.498809,61.686109 c 0,0 3.188539,-24.498532 25.187078,-29.493911 z"
         id="path5"
         sodipodi:nodetypes="zzzczczccz"
         inkscape:label="head" /><path
         d="m 70.59838,61.061407 c 0,0 -14.577561,7.49922 -19.254744,21.718553 l 16.222782,15.205274 c 0.517365,-1.705795 1.168862,-3.317918 2.043803,-4.718059 5.542128,-8.868904 20.10814,-12.87374 20.10814,-12.87374 0,0 1.28889,-9.624707 -4.256187,-15.618173 C 79.917096,58.781796 70.59838,61.061407 70.59838,61.061407 Z"
         style="fill:#e7d8cb;fill-opacity:1;stroke-width:3"
         id="path11"
         sodipodi:nodetypes="cccscsc"
         inkscape:label="beak" /><g
         id="g10"
         inkscape:label="eye"
         style="display:none"><circle
           style="fill:#ffffff;fill-opacity:1;stroke:none;stroke-width:2.68492"
           id="path7"
           cx="100.9476"
           cy="60.34705"
           r="10.370233" /><circle
           style="fill:#000000;fill-opacity:1;stroke:none;stroke-width:3.30232"
           id="path8"
           cx="99.59449"
           cy="59.298264"
           r="6.9257336" /><circle
           style="fill:#ffffff;fill-opacity:1;stroke:none;stroke-width:6.75786"
           id="path9"
           cx="101.76411"
           cy="57.353386"
           r="2.1952722" /></g><path
         d="M 67.566418,97.985234 51.343636,82.77996 c -0.543382,1.651962 -0.969207,3.390073 -1.226798,5.223971 -2.47482,17.619249 11.21289,33.351189 13.938167,32.177359 2.295035,-0.9885 0.751639,-13.09685 3.511413,-22.196056 z"
         style="fill:#000000;fill-opacity:1;stroke-width:3"
         id="path13"
         inkscape:label="beak-end" /><path
         style="fill:#000000;fill-opacity:1;stroke:none;stroke-width:3"
         d="m 60.35266,79.626813 c 0,0 3.486556,-10.701244 6.914976,-7.743197 3.42842,2.958047 -6.914976,7.743197 -6.914976,7.743197 z"
         id="path14"
         sodipodi:nodetypes="czc"
         inkscape:label="nostril" /></g><g
       style="display:inline;shape-rendering:crispEdges"
       id="g11"
       transform="matrix(14.866729,0,0,14.866729,223.39866,344.35587)"
       inkscape:label="glasses"><path
         id="path72"
         style="color:#000000;display:inline;fill:#000000;-inkscape-stroke:none;shape-rendering:auto"
         d="M 3.9999502,0.4999862 V 1.0000016 1.500017 2.0000325 2.5000479 H 4.999981 v 0.5000154 0.499884 h 1.0000308 v 0.5000155 0.5000154 h 1.0000309 0.9998994 1.0000309 1.000031 1.000031 1.000031 V 3.9999628 3.4999473 h 0.999899 V 3.0000633 2.5000479 h 1.000031 1.000031 v 0.5000154 0.499884 h 1.00003 v 0.5000155 0.5000154 h 0.9999 V 4.9999936 5.500009 h 1.000031 1.000031 2.999961 1.000031 1.00003 V 4.9999936 4.4999782 h 0.9999 V 3.9999628 3.4999473 h 1.000031 V 3.0000633 2.5000479 h 1.000031 V 2.0000325 1.500017 h 1.00003 1.000031 1.999931 V 1.0000016 0.4999862 h -1.999931 -1.000031 -1.00003 -1.000031 -1.999931 -1.00003 -1.000031 -1.000031 -2.999961 -1.000031 -0.9999 H 12.000066 11.000035 10.000004 8.999973 7.9999421 7.0000427 6.0000118 Z M 30.999995,1.500017 v 0.5000155 0.5000154 h 2.000061 V 2.0000325 1.500017 Z m -22.000022,0 h 1.000031 v 0.5000155 0.5000154 h 1.000031 V 2.0000325 1.500017 h 1.000031 v 0.5000155 0.5000154 h -1.000031 v 0.5000154 0.499884 H 10.000004 V 3.0000633 2.5000479 H 8.999973 v 0.5000154 0.499884 H 7.9999421 V 3.0000633 2.5000479 H 8.999973 V 2.0000325 Z m 13.000007,0 h 1.000031 v 0.5000155 0.5000154 h 1.00003 V 2.0000325 1.500017 h 0.9999 v 0.5000155 0.5000154 h -0.9999 v 0.5000154 0.499884 h -1.00003 V 3.9999628 4.4999782 H 21.99998 V 3.9999628 3.4999473 h -1.000031 v 0.5000155 0.5000154 h -0.9999 V 3.9999628 3.4999473 h 0.9999 V 3.0000633 2.5000479 H 21.99998 V 2.0000325 Z m 0,1.0000309 v 0.5000154 0.499884 h 1.000031 V 3.0000633 2.5000479 Z"
         inkscape:label="black" /><path
         id="path85"
         style="color:#000000;display:inline;fill:#ffffff;fill-opacity:1;-inkscape-stroke:none;shape-rendering:auto"
         d="m 8.999973,1.500017 v 0.5000155 0.5000154 h 1.000031 V 2.0000325 1.500017 Z m 1.000031,1.0000309 v 0.5000154 0.499884 h 1.000031 V 3.0000633 2.5000479 Z m 1.000031,0 h 1.000031 V 2.0000325 1.500017 h -1.000031 v 0.5000155 z m -2.000062,0 H 7.9999421 v 0.5000154 0.499884 H 8.999973 V 3.0000633 Z M 21.99998,1.500017 v 0.5000155 0.5000154 h 1.000031 V 2.0000325 1.500017 Z m 1.000031,1.0000309 v 0.5000154 0.499884 h 1.00003 V 3.0000633 2.5000479 Z m 1.00003,0 h 0.9999 V 2.0000325 1.500017 h -0.9999 v 0.5000155 z m -1.00003,0.9998994 H 21.99998 v 0.5000155 0.5000154 h 1.000031 V 3.9999628 Z m -1.000031,0 V 3.0000633 2.5000479 h -1.000031 v 0.5000154 0.499884 z m -1.000031,0 h -0.9999 v 0.5000155 0.5000154 h 0.9999 V 3.9999628 Z"
         inkscape:label="white" /></g></g></svg>
