<svg version="1.1" id="Layer_1" xmlns="http://www.w3.org/2000/svg" xmlns:xlink="http://www.w3.org/1999/xlink" x="0px" y="0px"
	 width="100%" viewBox="0 0 1852 418" enable-background="new 0 0 1852 418" xml:space="preserve">
<path fill="none" opacity="1.000000" stroke="#000000" stroke-linecap="round" stroke-linejoin="round" stroke-width="14.000000"
	d="
M1257.500000,144.500000 
	C1260.162598,138.470306 1259.637451,133.538284 1255.166016,127.869072 
	C1235.127319,102.462700 1209.534058,86.220612 1177.978760,79.601295 
	C1166.175781,77.125412 1154.139282,76.331032 1141.994995,77.444778 
	C1119.900269,79.471062 1099.454102,86.167458 1081.020264,98.530212 
	C1050.823608,118.781914 1031.613647,146.913910 1025.248047,182.544327 
	C1018.300720,221.431808 1027.377441,256.981201 1052.492065,288.006439 
	C1066.725952,305.590332 1084.408325,318.369843 1105.495728,326.511108 
	C1115.350708,330.315826 1125.510010,332.620911 1135.978516,334.147339 
	C1144.686401,335.417023 1153.368164,335.245697 1161.992798,334.845642 
	C1175.656250,334.211945 1188.774292,330.664429 1201.521729,325.554138 
	C1224.068115,316.515594 1241.791382,301.597412 1256.672485,282.635345 
	C1260.648560,277.568695 1259.411377,273.371460 1258.000000,268.500000 
"/>
<path fill="none" opacity="1.000000" stroke="#000000" stroke-linecap="round" stroke-linejoin="round" stroke-width="15.000000"
	d="
M389.000000,77.000000 
	C389.000000,135.000000 388.931488,193.000137 389.041992,250.999924 
	C389.074921,268.270386 394.337921,283.881592 404.433563,298.047363 
	C416.687622,315.241669 432.666595,327.398285 453.045319,332.312012 
	C485.171906,340.058411 513.535278,332.495056 537.020203,308.519806 
	C548.878418,296.414032 556.282593,282.058380 559.466248,265.493530 
	C560.257263,261.378082 561.048340,257.267456 561.043640,252.999954 
	C560.979004,194.333359 561.000000,135.666672 561.000000,77.000000 
"/>
<path fill="none" opacity="1.000000" stroke="#000000" stroke-linecap="round" stroke-linejoin="round" stroke-width="15.000000"
	d="
M802.500000,103.000000 
	C795.547607,102.738144 790.470337,99.525002 785.330872,94.679359 
	C772.919373,82.977478 757.734131,77.440384 740.503967,76.878067 
	C726.801147,76.430847 713.840210,78.026321 701.459839,84.422218 
	C684.221863,93.327614 676.139832,107.799042 675.065796,126.503777 
	C673.636353,151.397354 686.321228,168.218689 707.016907,179.970230 
	C724.176575,189.713943 742.598633,196.809692 760.472046,205.060593 
	C777.203735,212.784470 793.144653,221.825089 804.471985,237.020905 
	C810.747375,245.439392 813.750061,254.954819 815.220825,265.469116 
	C817.450806,281.410858 814.473022,295.909424 804.860291,308.392395 
	C791.051025,326.324677 771.680115,333.866882 749.500183,335.003448 
	C738.589172,335.562531 727.767578,335.305908 716.989014,333.052460 
	C697.949646,329.071991 681.404236,320.726898 669.130371,305.395599 
	C665.113525,300.378113 660.449280,298.342499 654.500000,298.000000 
"/>
<path fill="none" opacity="1.000000" stroke="#000000" stroke-linecap="round" stroke-linejoin="round" stroke-width="14.000000"
	d="
M45.500000,90.500000 
	C50.831326,92.974060 53.996098,97.407799 56.509743,102.495186 
	C79.159752,148.336746 101.830704,194.167969 124.501335,239.999344 
	C133.159775,257.503418 141.840790,274.996307 150.492935,292.503479 
	C152.000977,295.554932 153.617599,298.541168 156.016525,300.983765 
	C158.304947,303.313873 162.079285,303.173950 163.946136,300.462921 
	C166.015045,297.458466 167.847870,294.256653 169.471832,290.985992 
	C184.852463,260.009491 200.191422,229.012207 215.493149,197.996613 
	C231.190781,166.178574 246.853439,134.343201 262.479340,102.489868 
	C264.953247,97.446854 268.028046,93.106537 273.500000,91.000000 
"/>
<path fill="none" opacity="1.000000" stroke="#000000" stroke-linecap="round" stroke-linejoin="round" stroke-width="15.000000"
	d="
M1671.000000,76.000000 
	C1671.000000,158.833328 1671.000000,241.666672 1671.000000,324.500000 
	C1671.000000,324.833344 1670.997681,325.166687 1671.000488,325.500000 
	C1671.065430,333.280731 1672.719238,334.986084 1680.500000,334.991028 
	C1713.666626,335.012085 1746.833374,335.000000 1780.000000,335.000000 
	C1787.333374,335.000000 1794.666626,335.000000 1802.000000,335.000000 
"/>
<path fill="none" opacity="1.000000" stroke="#000000" stroke-linecap="round" stroke-linejoin="round" stroke-width="14.000000"
	d="
M1576.500000,341.500000 
	C1571.115234,339.950806 1567.011353,336.965027 1564.987183,331.504761 
	C1562.878296,325.816681 1560.461304,320.233856 1558.576050,314.475098 
	C1557.423828,310.955688 1555.823975,307.794189 1553.443604,305.048950 
	C1552.872803,304.390778 1552.074585,303.894928 1552.019897,302.998779 
	C1551.270874,290.713745 1544.929932,280.232697 1540.903931,269.034546 
	C1534.087280,250.075363 1526.709961,231.316727 1519.487793,212.504684 
	C1512.377197,193.983170 1505.122681,175.516861 1498.012207,156.995316 
	C1490.790039,138.183289 1483.793579,119.283463 1476.428345,100.528130 
	C1473.982422,94.299820 1472.386841,87.552605 1467.495728,82.504166 
	C1465.689209,80.639557 1464.057617,79.963120 1461.940063,82.448914 
	C1459.596313,85.200157 1457.760132,88.094276 1456.462524,91.485657 
	C1443.190430,126.175758 1429.797729,160.819733 1416.538940,195.514862 
	C1414.580566,200.639252 1412.695557,205.767349 1408.435913,209.425339 
	C1407.212036,210.476257 1407.514526,211.464203 1407.535278,212.499298 
	C1407.615112,216.501038 1407.741577,220.507401 1408.062866,224.494949 
	C1408.146118,225.528488 1408.734863,226.920288 1409.543823,227.430786 
	C1414.321411,230.446045 1416.570801,235.330048 1418.962036,240.019348 
	C1432.540283,266.646088 1445.981323,293.342804 1459.520874,319.989349 
	C1461.463501,323.812653 1463.266602,327.633362 1463.500000,332.000000 
"/>
<path fill="none" opacity="1.000000" stroke="#000000" stroke-linecap="round" stroke-linejoin="round" stroke-width="15.000000"
	d="
M920.000000,76.000000 
	C920.000000,162.666672 920.000000,249.333328 920.000000,336.000000 
"/>
<path fill="none" opacity="1.000000" stroke="#000000" stroke-linecap="round" stroke-linejoin="round" stroke-width="15.000000"
	d="
M42.250000,79.000000 
	C42.666664,80.833336 42.821579,82.779648 43.554081,84.476654 
	C45.115246,88.093491 44.896267,91.315575 42.526371,94.519508 
	C40.353462,97.457123 39.958630,100.881645 39.961037,104.500023 
	C40.012409,181.666656 40.000000,258.833344 40.000000,336.000000 
"/>
<path fill="none" opacity="1.000000" stroke="#000000" stroke-linecap="round" stroke-linejoin="round" stroke-width="16.000000"
	d="
M276.750000,79.000000 
	C276.166656,81.000000 275.416534,82.969017 275.037964,85.007057 
	C274.426147,88.300751 273.760132,91.401825 276.363800,94.610512 
	C278.498749,97.241547 278.543976,100.967987 278.541473,104.500031 
	C278.487091,181.499985 278.500000,258.500000 278.500000,335.500000 
"/>
<path fill="none" opacity="1.000000" stroke="#000000" stroke-linecap="round" stroke-linejoin="round" stroke-width="14.000000"
	d="
M1552.000000,304.000000 
	C1547.895264,304.430786 1545.074219,307.265167 1542.024292,309.532745 
	C1524.809814,322.331482 1505.612427,330.584442 1484.473511,333.827728 
	C1477.965820,334.826202 1470.966919,336.915100 1464.531006,332.949677 
	C1463.799438,332.498962 1462.998779,332.278107 1462.527222,332.547607 
	C1453.056763,337.960510 1443.526978,333.654480 1434.564453,331.703949 
	C1416.748047,327.826569 1400.515991,319.718903 1386.026123,308.466309 
	C1383.547607,306.541443 1380.726929,305.392853 1378.000000,304.000000 
"/>
<path fill="none" opacity="1.000000" stroke="#000000" stroke-linecap="round" stroke-linejoin="round" stroke-width="14.000000"
	d="
M1374.000000,127.000000 
	C1369.046997,125.490456 1364.186035,123.635559 1358.793945,122.976318 
	C1372.760986,149.367081 1386.295898,175.848633 1399.579956,202.460114 
	C1401.146729,205.598724 1403.546387,208.453568 1407.000000,210.000000 
"/>
<path fill="none" opacity="1.000000" stroke="#000000" stroke-linecap="round" stroke-linejoin="round" stroke-width="14.000000"
	d="
M1408.000000,226.500000 
	C1403.687622,229.866272 1401.368408,234.536392 1399.500488,239.500168 
	C1393.166138,256.333099 1386.988892,273.227966 1380.398560,289.960022 
	C1378.586060,294.561279 1378.593628,299.681793 1376.682617,303.854675 
	C1374.651367,308.290527 1371.348877,312.311859 1369.532227,317.012421 
	C1367.880127,321.286987 1366.342041,325.619843 1365.040039,330.011871 
	C1363.412720,335.501556 1359.909546,338.909607 1354.500000,340.500000 
"/>
<path fill="none" opacity="1.000000" stroke="#000000" stroke-linecap="round" stroke-linejoin="round" stroke-width="14.000000"
	d="
M1339.500000,70.500000 
	C1339.500000,70.666664 1339.559448,70.864006 1339.491455,70.995605 
	C1335.757080,78.230438 1339.121948,84.312828 1342.466675,90.517998 
	C1347.099487,99.113083 1351.550415,107.807716 1355.972656,116.513885 
	C1357.504761,119.530121 1358.049927,122.508057 1356.625122,126.050331 
	C1354.655396,130.947678 1353.161621,136.106384 1353.000000,141.500000 
"/>
<path fill="none" opacity="1.000000" stroke="#000000" stroke-linecap="round" stroke-linejoin="round" stroke-width="5.000000"
	d="
M1356.500000,120.500000 
	C1348.246216,121.073624 1340.576416,117.642784 1332.500000,117.000000 
"/>
<path fill="none" opacity="1.000000" stroke="#000000" stroke-linecap="round" stroke-linejoin="round" stroke-width="3.000000"
	d="
M1368.000000,98.500000 
	C1365.827515,105.225288 1362.987061,111.634216 1359.000000,117.500000 
"/>
<path fill="none" opacity="1.000000" stroke="#000000" stroke-linecap="round" stroke-linejoin="round" stroke-width="3.000000"
	d="
M666.000000,289.500000 
	C665.041138,292.764496 664.339355,296.067566 664.500000,299.500000 
"/>
<path fill="none" opacity="1.000000" stroke="#000000" stroke-linecap="round" stroke-linejoin="round" stroke-width="3.000000"
	d="
M792.500061,102.000008 
	C792.000061,105.166672 791.500061,108.333336 791.000061,111.500008 
"/>
<path fill="none" opacity="1.000000" stroke="#000000" stroke-linecap="round" stroke-linejoin="round" stroke-width="3.000000"
	d="
M1269.500000,275.500000 
	C1266.500000,276.166687 1263.500000,276.833344 1260.500000,277.500000 
"/>
</svg>