<?xml version="1.0" encoding="UTF-8"?>
<!DOCTYPE svg PUBLIC "-//W3C//DTD SVG 1.1//EN" "http://www.w3.org/Graphics/SVG/1.1/DTD/svg11.dtd">
<svg xmlns="http://www.w3.org/2000/svg" version="1.1" width="512px" height="512px" style="shape-rendering:geometricPrecision; text-rendering:geometricPrecision; image-rendering:optimizeQuality; fill-rule:evenodd; clip-rule:evenodd" xmlns:xlink="http://www.w3.org/1999/xlink">
<g><path style="opacity:0.986" fill="#ffa250" d="M 511.5,206.5 C 511.5,238.833 511.5,271.167 511.5,303.5C 510.327,308.205 507.66,312.039 503.5,315C 479.667,328.833 455.833,342.667 432,356.5C 431.667,384.833 431.333,413.167 431,441.5C 428.78,449.396 423.947,455.229 416.5,459C 394.908,470.934 373.575,483.267 352.5,496C 347.382,499.143 341.882,501.309 336,502.5C 331.685,501.381 327.519,499.881 323.5,498C 300.963,484.634 278.296,471.467 255.5,458.5C 232.704,471.467 210.037,484.634 187.5,498C 183.481,499.881 179.315,501.381 175,502.5C 169.118,501.309 163.618,499.143 158.5,496C 137.425,483.267 116.092,470.934 94.5,459C 87.0531,455.229 82.2198,449.396 80,441.5C 79.6667,413.167 79.3333,384.833 79,356.5C 55.1667,342.667 31.3333,328.833 7.5,315C 3.33958,312.039 0.672918,308.205 -0.5,303.5C -0.5,271.167 -0.5,238.833 -0.5,206.5C 0.672918,201.795 3.33958,197.961 7.5,195C 31.3333,181.167 55.1667,167.333 79,153.5C 79.3333,125.5 79.6667,97.5 80,69.5C 82.2198,61.6039 87.0531,55.7706 94.5,52C 116.092,40.0661 137.425,27.7327 158.5,15C 163.618,11.8574 169.118,9.69071 175,8.5C 179.315,9.61929 183.481,11.1193 187.5,13C 210.037,26.3663 232.704,39.5329 255.5,52.5C 278.296,39.5329 300.963,26.3663 323.5,13C 327.519,11.1193 331.685,9.61929 336,8.5C 341.882,9.69071 347.382,11.8574 352.5,15C 373.575,27.7327 394.908,40.0661 416.5,52C 423.947,55.7706 428.78,61.6039 431,69.5C 431.333,97.5 431.667,125.5 432,153.5C 455.833,167.333 479.667,181.167 503.5,195C 507.66,197.961 510.327,201.795 511.5,206.5 Z"/></g>
<g><path style="opacity:1" fill="#ffe064" d="M 173.5,38.5 C 195.941,50.8897 218.274,63.5564 240.5,76.5C 241.667,102.494 241.833,128.494 241,154.5C 219.147,167.426 197.147,180.093 175,192.5C 152.526,180.598 130.526,167.932 109,154.5C 108.167,128.494 108.333,102.494 109.5,76.5C 131.227,64.3109 152.56,51.6442 173.5,38.5 Z"/></g>
<g><path style="opacity:1" fill="#ffe064" d="M 333.5,39.5 C 335.989,39.2978 338.323,39.7978 340.5,41C 360.833,52.8333 381.167,64.6667 401.5,76.5C 402.667,102.494 402.833,128.494 402,154.5C 380.147,167.426 358.147,180.093 336,192.5C 313.853,180.093 291.853,167.426 270,154.5C 269.167,128.494 269.333,102.494 270.5,76.5C 291.799,64.5026 312.799,52.1693 333.5,39.5 Z"/></g>
<g><path style="opacity:1" fill="#ffe064" d="M 92.5,178.5 C 115.307,190.49 137.807,203.157 160,216.5C 160.667,242.167 160.667,267.833 160,293.5C 138.474,306.932 116.474,319.598 94,331.5C 71.8528,319.093 49.8528,306.426 28,293.5C 27.3333,267.833 27.3333,242.167 28,216.5C 49.4093,203.571 70.9093,190.905 92.5,178.5 Z"/></g>
<g><path style="opacity:1" fill="#ffe064" d="M 254.5,178.5 C 276.941,190.89 299.274,203.556 321.5,216.5C 322.666,242.16 322.833,267.827 322,293.5C 300.04,306.562 277.873,319.229 255.5,331.5C 233.127,319.229 210.96,306.562 189,293.5C 188.167,267.827 188.334,242.16 189.5,216.5C 211.394,204.059 233.061,191.392 254.5,178.5 Z"/></g>
<g><path style="opacity:1" fill="#ffe064" d="M 482.5,215.5 C 483.833,241.833 483.833,268.167 482.5,294.5C 460.597,306.702 438.764,319.035 417,331.5C 394.939,319.553 373.106,307.22 351.5,294.5C 350.333,268.506 350.167,242.506 351,216.5C 373.01,203.817 395.01,191.15 417,178.5C 438.764,190.965 460.597,203.298 482.5,215.5 Z"/></g>
<g><path style="opacity:1" fill="#ffab52" d="M 482.5,215.5 C 483.833,228.316 484.499,241.483 484.5,255C 484.499,268.517 483.833,281.684 482.5,294.5C 483.833,268.167 483.833,241.833 482.5,215.5 Z"/></g>
<g><path style="opacity:1" fill="#ffe064" d="M 173.5,318.5 C 196.307,330.49 218.807,343.157 241,356.5C 241.833,382.506 241.667,408.506 240.5,434.5C 218.5,447.167 196.5,459.833 174.5,472.5C 152.998,459.581 131.331,446.914 109.5,434.5C 108.333,408.506 108.167,382.506 109,356.5C 130.409,343.571 151.909,330.905 173.5,318.5 Z"/></g>
<g><path style="opacity:1" fill="#ffe064" d="M 334.5,318.5 C 337.016,318.755 339.35,319.589 341.5,321C 361.749,332.707 381.916,344.541 402,356.5C 402.833,382.506 402.667,408.506 401.5,434.5C 379.849,447.24 358.016,459.573 336,471.5C 313.984,459.573 292.151,447.24 270.5,434.5C 269.333,408.506 269.167,382.506 270,356.5C 291.645,343.933 313.145,331.266 334.5,318.5 Z"/></g>
</svg>
