<?xml version="1.0" encoding="UTF-8" standalone="no"?>
<svg
   width="770.76532"
   height="494.94559"
   viewBox="0 0 770.76532 494.94559"
   fill="none"
   version="1.1"
   id="svg239489"
   sodipodi:docname="logo-livre-v.14.03.svg"
   inkscape:version="1.4 (e7c3feb1, 2024-10-09)"
   inkscape:export-filename="logo-livre-v.14.03.png"
   inkscape:export-xdpi="96"
   inkscape:export-ydpi="96"
   xmlns:inkscape="http://www.inkscape.org/namespaces/inkscape"
   xmlns:sodipodi="http://sodipodi.sourceforge.net/DTD/sodipodi-0.dtd"
   xmlns="http://www.w3.org/2000/svg"
   xmlns:svg="http://www.w3.org/2000/svg">
  <defs
     id="defs239493" />
  <sodipodi:namedview
     id="namedview239491"
     pagecolor="#ffffff"
     bordercolor="#000000"
     borderopacity="0.25"
     inkscape:showpageshadow="2"
     inkscape:pageopacity="0.0"
     inkscape:pagecheckerboard="0"
     inkscape:deskcolor="#d1d1d1"
     showgrid="false"
     inkscape:zoom="0.66672413"
     inkscape:cx="377.96742"
     inkscape:cy="241.47919"
     inkscape:window-width="1120"
     inkscape:window-height="703"
     inkscape:window-x="0"
     inkscape:window-y="257"
     inkscape:window-maximized="0"
     inkscape:current-layer="g240172" />
  <g
     id="g240172"
     inkscape:label="livre"
     transform="matrix(4.0573066,0,0,4.0573066,-3.2470341,-1.7255481)">
    <path
       id="path239441"
       d="M 32.00557 8.2184296 C 21.455689 8.2016001 10.938257 9.7486873 0.80029301 12.82865 L 0.80029301 111.80085 C 0.80029301 111.80085 24.5273 104.2291 49.189075 107.0621 C 76.762557 110.25735 86.404901 121.83268 86.827094 122.35472 L 86.827094 122.41393 L 105.32719 122.41393 L 105.32719 122.31236 C 105.87226 121.60523 115.04412 110.20631 142.38081 107.0621 C 167.03278 104.2301 190.77007 111.80085 190.77007 111.80085 L 190.77007 12.869568 C 176.67708 8.5772621 161.84878 7.2457609 147.2168 8.9587992 C 119.00382 12.244336 104.70187 25.983448 104.70187 25.983448 L 104.70187 26.017626 L 86.868012 26.017626 C 86.868012 26.017626 72.597347 12.243874 44.384375 8.9583178 C 40.267048 8.4709936 36.133784 8.2250151 32.00557 8.2184296 z "
       style="fill:#862d4a;fill-opacity:1" />
    <path
       d="M 52.1368,1.12427 C 26.5841,-1.70798 8.16821,4.98187 8.16821,4.98187 V 102.416 c 0,0 18.41589,-6.6991 43.96859,-3.8669 29.2196,3.2419 43.9561,16.9619 43.9561,16.9619 V 18.1396 c 0,0 -14.749,-13.78295 -43.9561,-17.01533 z"
       fill="#e7d8cb"
       id="path239445"
       style="fill:#e6d6ca;fill-opacity:1" />
    <path
       d="m 140.049,1.124 c 25.541,-2.83225 43.96,3.86698 43.96,3.86698 V 102.416 c 0,0 -18.419,-6.6994 -43.96,-3.8671 C 110.83,101.791 96.0808,115.511 96.0808,115.511 V 18.1394 c 0,0 14.7492,-13.78302 43.9682,-17.0154 z"
       fill="#e7d8cb"
       id="path239449"
       style="fill:#e6d6ca;fill-opacity:1" />
    <path
       d="M 156.842,0.477051 C 173.298,1.05851 184.04,4.97238 184.04,4.97238 V 102.397 c 0,0 -18.416,-6.7021 -43.957,-3.8699 -7.363,0.7812 -14.616,2.3889 -21.62,4.7919"
       fill="#dacabe"
       id="path239451"
       style="fill:#d0b49f;fill-opacity:0.30980393" />
    <path
       d="m 38.0979,97.8582 c 4.6988,-0.0558 9.3967,0.1749 14.0674,0.6908 29.2197,3.242 43.9561,16.962 43.9561,16.962 V 18.1395 c 0,0 -9.5971,-8.98124 -28.707,-14.14243"
       fill="#dacabe"
       id="path239453"
       style="fill:#dfcbbc;fill-opacity:1" />
  </g>
</svg>
