<svg width="220" height="141" viewBox="0 0 220 141" fill="none" xmlns="http://www.w3.org/2000/svg">
<path d="M50.2914 9.84617C33.3991 7.84679 16.2757 9.36729 0 14.3119V128.515C0 128.515 27.3785 119.779 55.8356 123.047C88.3869 126.82 99.313 140.751 99.313 140.751V29.5306C99.313 29.5306 82.8462 13.6373 50.2914 9.84617Z" fill="#AB5B5B"/>
<path d="M120.613 29.5308H99.2661V140.762H120.613V29.5308Z" fill="#AB5B5B"/>
<path d="M59.2373 0.806542C29.7521 -2.46157 8.5022 5.25781 8.5022 5.25781V117.687C8.5022 117.687 29.7521 109.956 59.2373 113.225C92.9537 116.965 109.958 132.797 109.958 132.797V20.4405C109.958 20.4405 92.9392 4.53637 59.2373 0.806542Z" fill="#E7D8CB"/>
<path d="M168.95 9.84607C185.834 7.86942 202.944 9.40579 219.205 14.3587V128.515C219.205 128.515 191.816 119.779 163.37 123.047C130.815 126.791 120.552 140.722 120.552 140.722L119.892 29.4908C119.892 29.4908 136.395 13.6372 168.95 9.84607Z" fill="#AB5B5B"/>
<path d="M160.678 0.806644C190.149 -2.46147 211.403 5.26873 211.403 5.26873V117.687C211.403 117.687 190.149 109.956 160.678 113.225C126.962 116.965 109.943 132.797 109.943 132.797V20.4406C109.943 20.4406 126.962 4.53647 160.678 0.806644Z" fill="#E7D8CB"/>
<path d="M180.056 0.0600586C199.044 0.730995 211.439 5.24719 211.439 5.24719V117.665C211.439 117.665 190.189 109.931 160.718 113.199C152.221 114.101 143.853 115.956 135.771 118.729" fill="#DACABE"/>
<path d="M43.0374 112.427C48.4593 112.363 53.8801 112.629 59.2697 113.225C92.9861 116.965 109.99 132.797 109.99 132.797V20.4405C109.99 20.4405 98.9163 10.077 76.8655 4.12158" fill="#DACABE"/>
</svg>
